<svg xmlns="http://www.w3.org/2000/svg" width="150" height="150" viewBox="0 0 150 150">
  <g id="Grupo_29912" data-name="Grupo 29912" transform="translate(-449 -7465)">
    <g id="Elipse_1021" data-name="Elipse 1021" transform="translate(449 7465)" fill="#fff" stroke="#b869c3" stroke-width="7">
      <circle cx="75" cy="75" r="75" stroke="none"/>
      <circle cx="75" cy="75" r="71.5" fill="none"/>
    </g>
    <g id="descargar" transform="translate(436.093 7500)">
      <path id="Trazado_24757" data-name="Trazado 24757" d="M118.661,18.636l-6.04-6.039V3.588A3.593,3.593,0,0,0,109.033,0H59.451a3.548,3.548,0,0,0-3.544,3.544v59.45a3.548,3.548,0,0,0,3.544,3.544h2v1.975A3.548,3.548,0,0,0,65,72.056h7.687a1.183,1.183,0,1,0,0-2.365H65a1.18,1.18,0,0,1-1.179-1.178V20.965a1.183,1.183,0,1,0-2.365,0V64.172h-2a1.18,1.18,0,0,1-1.178-1.178V3.544a1.18,1.18,0,0,1,1.178-1.178h49.583a1.225,1.225,0,0,1,1.223,1.223v6.643L105.89,5.865a1.183,1.183,0,0,0-.836-.346H65a3.548,3.548,0,0,0-3.544,3.544v6.4a1.183,1.183,0,0,0,2.365,0v-6.4A1.18,1.18,0,0,1,65,7.884h38.872V19.47a1.183,1.183,0,0,0,1.182,1.183l11.59,0V68.512a1.18,1.18,0,0,1-1.178,1.178h-7.6a1.183,1.183,0,1,0,0,2.365h7.6a3.548,3.548,0,0,0,3.544-3.544V19.472a1.183,1.183,0,0,0-.346-.836Zm-12.426-.348V9.556l8.734,8.733Z" transform="translate(0)" fill="#002b45"/>
      <path id="Trazado_24758" data-name="Trazado 24758" d="M206.042,175.456H177.751a1.183,1.183,0,1,0,0,2.365h28.291a1.183,1.183,0,1,0,0-2.365Z" transform="translate(-101.635 -147.79)" fill="#002b45"/>
      <path id="Trazado_24759" data-name="Trazado 24759" d="M206.042,219.688H177.751a1.183,1.183,0,0,0,0,2.365h28.291a1.183,1.183,0,1,0,0-2.365Z" transform="translate(-101.635 -185.048)" fill="#002b45"/>
      <path id="Trazado_24760" data-name="Trazado 24760" d="M327.315,264.8h-5.589a1.183,1.183,0,1,0,0,2.365h5.589a1.183,1.183,0,1,0,0-2.365Z" transform="translate(-222.909 -223.048)" fill="#002b45"/>
      <path id="Trazado_24761" data-name="Trazado 24761" d="M194.887,267.167a1.183,1.183,0,0,0,0-2.365H177.751a1.183,1.183,0,0,0,0,2.365Z" transform="translate(-101.635 -223.048)" fill="#002b45"/>
      <path id="Trazado_24762" data-name="Trazado 24762" d="M244.171,374.462l-3.153,3.152V366.182a1.183,1.183,0,0,0-2.365,0v11.433l-3.153-3.152a1.183,1.183,0,0,0-1.672,1.673L239,381.306a1.183,1.183,0,0,0,1.672,0l5.171-5.171a1.183,1.183,0,0,0-1.672-1.673Z" transform="translate(-149.575 -307.446)" fill="#002b45"/>
      <path id="Trazado_24763" data-name="Trazado 24763" d="M194.433,323.61a14.852,14.852,0,1,0,14.853,14.853A14.87,14.87,0,0,0,194.433,323.61Zm0,27.34a12.487,12.487,0,1,1,12.488-12.487A12.5,12.5,0,0,1,194.433,350.95Z" transform="translate(-104.172 -272.584)" fill="#002b45"/>
    </g>
  </g>
</svg>
