<svg xmlns="http://www.w3.org/2000/svg" width="150" height="150" viewBox="0 0 150 150">
  <g id="Grupo_29514" data-name="Grupo 29514" transform="translate(-836 -1809)">
    <g id="Elipse_1024" data-name="Elipse 1024" transform="translate(836 1809)" fill="#fff" stroke="#b869c3" stroke-width="7">
      <circle cx="75" cy="75" r="75" stroke="none"/>
      <circle cx="75" cy="75" r="71.5" fill="none"/>
    </g>
    <g id="digital-marketing" transform="translate(873.235 1849.235)">
      <path id="Trazado_23909" data-name="Trazado 23909" d="M75.529,49.984s0,0,0-.006v-39.1a6,6,0,0,0-5.994-5.994H65.754V3.467A3.471,3.471,0,0,0,62.287,0H13.242A3.471,3.471,0,0,0,9.776,3.467V4.888H5.994A6,6,0,0,0,0,10.882v39.1s0,0,0,0a.042.042,0,0,0,0,0v4.883a6,6,0,0,0,5.994,5.994h5.855a1.106,1.106,0,0,0,0-2.213H5.994a3.785,3.785,0,0,1-3.781-3.781V51.09h71.1v3.781a3.785,3.785,0,0,1-3.781,3.781H16.274a1.106,1.106,0,1,0,0,2.213H27.347L26.4,68.429H20.658a1.106,1.106,0,0,0-1.106,1.106v4.888a1.106,1.106,0,0,0,1.106,1.106H54.872a1.106,1.106,0,0,0,1.106-1.106V69.535a1.106,1.106,0,0,0-1.106-1.106H49.128l-.945-7.563H69.535a6,6,0,0,0,5.994-5.994V49.99s0,0,0-.006Zm-39.1,10.882H39.1v2.675H36.427ZM53.765,73.316h-32V70.642h32ZM46.9,68.429H28.631l.945-7.563h4.638v3.781a1.106,1.106,0,0,0,1.106,1.106h4.888a1.106,1.106,0,0,0,1.106-1.106V60.866h4.638ZM68.429,48.878H65.754V11.988h2.56a.116.116,0,0,1,.116.116ZM11.988,3.467a1.255,1.255,0,0,1,1.254-1.254H62.287a1.255,1.255,0,0,1,1.254,1.254V48.878H11.988ZM2.213,10.882A3.785,3.785,0,0,1,5.994,7.1H9.776V9.776H7.216A2.331,2.331,0,0,0,4.888,12.1v2.83a1.106,1.106,0,0,0,2.213,0V12.1a.116.116,0,0,1,.116-.116h2.56V48.878H7.1V19.359a1.106,1.106,0,1,0-2.213,0V48.878H2.213Zm68.428,38V12.1a2.331,2.331,0,0,0-2.328-2.328h-2.56V7.1h3.781a3.785,3.785,0,0,1,3.781,3.781v38H70.642Z" fill="#002b45"/>
      <path id="Trazado_23910" data-name="Trazado 23910" d="M237.927,366.679a1.106,1.106,0,0,0,0-2.213h-4.888a1.106,1.106,0,1,0,0,2.213Z" transform="translate(-197.719 -310.701)" fill="#002b45"/>
      <path id="Trazado_23911" data-name="Trazado 23911" d="M179.2,143.03h1.222a1.106,1.106,0,0,0,0-2.213H179.2a1.106,1.106,0,0,0,0,2.213Z" transform="translate(-151.82 -120.044)" fill="#002b45"/>
      <path id="Trazado_23912" data-name="Trazado 23912" d="M119.434,59.476a3.471,3.471,0,0,0-3.467,3.467v2.611a3.471,3.471,0,0,0,3.467,3.467h1.575a3.482,3.482,0,0,0,2.29,2.29v7.717h-.157a2.289,2.289,0,0,0-2.287,2.287v2.527a2.289,2.289,0,0,0,2.287,2.287h7.415a2.289,2.289,0,0,0,2.287-2.287V81.313a2.289,2.289,0,0,0-2.287-2.287H130.4V71.464h1.158l13.736,4.579v.466A2.289,2.289,0,0,0,147.58,78.8h2.528a2.289,2.289,0,0,0,2.287-2.287V71.36a5.993,5.993,0,0,0,0-11.78V51.987a2.289,2.289,0,0,0-2.287-2.287H147.58a2.289,2.289,0,0,0-2.287,2.287v.466l-13.737,4.579h-7.236a3.473,3.473,0,0,0-3.313,2.444h-1.575Zm-1.254,6.078V62.942a1.255,1.255,0,0,1,1.254-1.254h1.421v5.119h-1.421A1.255,1.255,0,0,1,118.18,65.553Zm12.451,15.76v2.527a.074.074,0,0,1-.074.074h-7.415a.074.074,0,0,1-.074-.074V81.313a.074.074,0,0,1,.074-.074h7.415A.074.074,0,0,1,130.63,81.313Zm-2.444-2.287h-2.675V71.464h2.675ZM155.069,65.47a3.788,3.788,0,0,1-2.675,3.616V61.854A3.788,3.788,0,0,1,155.069,65.47Zm-7.563-13.483a.074.074,0,0,1,.074-.074h2.527a.074.074,0,0,1,.074.074V76.509a.074.074,0,0,1-.074.074H147.58a.074.074,0,0,1-.074-.074V51.987ZM145.294,73.71l-12.451-4.15V58.936l12.451-4.15ZM123.067,60.5a1.255,1.255,0,0,1,1.254-1.254h6.309V69.251h-6.309A1.255,1.255,0,0,1,123.067,68V60.5Z" transform="translate(-98.86 -42.368)" fill="#002b45"/>
      <path id="Trazado_23913" data-name="Trazado 23913" d="M369.123,266.172a1.106,1.106,0,1,0-2.213,0v1.338h-1.338a1.106,1.106,0,1,0,0,2.213h1.338v1.337a1.106,1.106,0,0,0,2.213,0v-1.337h1.337a1.106,1.106,0,1,0,0-2.213h-1.337Z" transform="translate(-310.701 -225.964)" fill="#002b45"/>
      <path id="Trazado_23914" data-name="Trazado 23914" d="M100.506,37.791h1.337v1.338a1.106,1.106,0,0,0,2.213,0V37.791h1.338a1.106,1.106,0,0,0,0-2.213h-1.338V34.24a1.106,1.106,0,0,0-2.213,0v1.337h-1.337a1.106,1.106,0,0,0,0,2.213Z" transform="translate(-84.737 -28.246)" fill="#002b45"/>
    </g>
  </g>
</svg>
