<svg xmlns="http://www.w3.org/2000/svg" width="150" height="150" viewBox="0 0 150 150">
  <g id="Grupo_29910" data-name="Grupo 29910" transform="translate(-973 -7465)">
    <g id="Elipse_1040" data-name="Elipse 1040" transform="translate(973 7465)" fill="#fff" stroke="#b869c3" stroke-width="7">
      <circle cx="75" cy="75" r="75" stroke="none"/>
      <circle cx="75" cy="75" r="71.5" fill="none"/>
    </g>
    <g id="market_1_" data-name="market (1)" transform="translate(1007 7499)">
      <path id="Trazado_24774" data-name="Trazado 24774" d="M46.143,12.143a2.574,2.574,0,0,1,2.572,2.572h2.572a5.138,5.138,0,0,0-3.857-4.96V7H44.857V9.572H41v5.143a5.148,5.148,0,0,0,5.143,5.143,2.574,2.574,0,0,1,2.572,2.572V25H46.143a2.574,2.574,0,0,1-2.572-2.572H41a5.138,5.138,0,0,0,3.857,4.96v2.754h2.572V27.572h3.857V22.429a5.148,5.148,0,0,0-5.143-5.143,2.574,2.574,0,0,1-2.572-2.572V12.143Z" transform="translate(11.43 1.715)" fill="#002b45"/>
      <path id="Trazado_24775" data-name="Trazado 24775" d="M80.717,35.716A34.755,34.755,0,0,0,46,1H44.716V37H61.431V52.43A2.574,2.574,0,0,1,58.859,55H52.288A8.992,8.992,0,0,0,46,39.573H37V6.143H35.716a34.715,34.715,0,0,0-6.429,68.829v5.745h27V67.971a1.929,1.929,0,0,1,1.584-1.9l4.113-.748a10.281,10.281,0,0,0,8.446-10.119V37H80.717ZM47.249,68.652,46,69.9l-1.247-1.247.792-11.078h.912ZM52.43,48.573A6.429,6.429,0,1,1,46,42.144,6.436,6.436,0,0,1,52.43,48.573ZM12.159,62.6A32.169,32.169,0,0,1,3.631,42.144H32.612ZM34.43,8.74V39.573H3.6A32.182,32.182,0,0,1,34.43,8.74ZM13.971,64.421,36.248,42.144h3.466a8.971,8.971,0,0,0,.44,13.256A14.157,14.157,0,0,0,29.287,69.145v3.18A31.886,31.886,0,0,1,13.971,64.421ZM67.86,55.205a7.711,7.711,0,0,1-6.335,7.59l-4.113.747a4.5,4.5,0,0,0-3.7,4.429V78.146H38.287V64H35.716V78.146H31.858v-9A11.578,11.578,0,0,1,42.966,57.6l-.86,12.041,3.9,3.9,3.9-3.9-.861-12.064h9.823A5.148,5.148,0,0,0,64,52.43V35.073a1.929,1.929,0,1,1,3.857,0ZM70.366,34.43a4.478,4.478,0,0,0-8.869,0H47.287V3.6A32.186,32.186,0,0,1,78.12,34.43Z" transform="translate(0 0)" fill="#002b45"/>
      <path id="Trazado_24776" data-name="Trazado 24776" d="M0,0H2.572V2.572H0Z" transform="translate(21.72 60.739) rotate(-45)" fill="#002b45"/>
      <path id="Trazado_24777" data-name="Trazado 24777" d="M0,0H2.442V2.572H0Z" transform="translate(25.355 57.101) rotate(-45)" fill="#002b45"/>
      <path id="Trazado_24778" data-name="Trazado 24778" d="M0,0H2.572V2.572H0Z" transform="translate(18.083 64.374) rotate(-45)" fill="#002b45"/>
      <path id="Trazado_24779" data-name="Trazado 24779" d="M30.144,31.858V19H7V31.858ZM9.572,21.572h18v7.715h-18Z" transform="translate(1.715 5.144)" fill="#002b45"/>
      <path id="Trazado_24780" data-name="Trazado 24780" d="M11,23h2.572v2.572H11Z" transform="translate(2.858 6.287)" fill="#002b45"/>
      <path id="Trazado_24781" data-name="Trazado 24781" d="M15,23h2.572v2.572H15Z" transform="translate(4.001 6.287)" fill="#002b45"/>
      <path id="Trazado_24782" data-name="Trazado 24782" d="M19,23h2.572v2.572H19Z" transform="translate(5.144 6.287)" fill="#002b45"/>
      <path id="Trazado_24783" data-name="Trazado 24783" d="M23,13h2.572v2.572H23Z" transform="translate(6.287 3.429)" fill="#002b45"/>
      <path id="Trazado_24784" data-name="Trazado 24784" d="M23,9h2.572v2.572H23Z" transform="translate(6.287 2.286)" fill="#002b45"/>
      <path id="Trazado_24785" data-name="Trazado 24785" d="M7.89,35.714l-2.532.453c.157.879.356,1.761.593,2.622l2.48-.68c-.215-.787-.4-1.592-.541-2.394Z" transform="translate(1.245 9.92)" fill="#002b45"/>
      <path id="Trazado_24786" data-name="Trazado 24786" d="M8.871,39.389,6.465,40.3c.316.838.672,1.669,1.059,2.466l2.314-1.12c-.354-.729-.679-1.488-.968-2.255Z" transform="translate(1.562 10.97)" fill="#002b45"/>
      <path id="Trazado_24787" data-name="Trazado 24787" d="M10.488,42.82l-2.2,1.326c.456.76.958,1.512,1.489,2.236l2.074-1.52c-.485-.661-.942-1.349-1.36-2.042Z" transform="translate(2.082 11.951)" fill="#002b45"/>
      <path id="Trazado_24788" data-name="Trazado 24788" d="M54.713,18.708l2.255-1.236c-.428-.779-.9-1.552-1.4-2.294l-2.133,1.434c.455.679.885,1.385,1.275,2.1Z" transform="translate(14.985 4.052)" fill="#002b45"/>
      <path id="Trazado_24789" data-name="Trazado 24789" d="M56.905,25.8l2.547-.348c-.121-.885-.284-1.774-.483-2.644l-2.506.577C56.646,24.18,56.795,24.992,56.905,25.8Z" transform="translate(15.849 6.232)" fill="#002b45"/>
      <path id="Trazado_24790" data-name="Trazado 24790" d="M56.143,22.158l2.442-.8c-.279-.847-.6-1.692-.958-2.512l-2.358,1.025C55.594,20.615,55.889,21.385,56.143,22.158Z" transform="translate(15.508 5.099)" fill="#002b45"/>
    </g>
  </g>
</svg>
