<svg xmlns="http://www.w3.org/2000/svg" width="150" height="150" viewBox="0 0 150 150">
  <g id="Grupo_29913" data-name="Grupo 29913" transform="translate(-259 -7465)">
    <g id="Elipse_1045" data-name="Elipse 1045" transform="translate(259 7465)" fill="#fff" stroke="#b869c3" stroke-width="7">
      <circle cx="75" cy="75" r="75" stroke="none"/>
      <circle cx="75" cy="75" r="71.5" fill="none"/>
    </g>
    <g id="conference" transform="translate(288 7494)">
      <path id="Trazado_24829" data-name="Trazado 24829" d="M25,21.073a1.467,1.467,0,0,0,1.467,1.467H44.073a1.467,1.467,0,0,0,1.467-1.467,10.275,10.275,0,0,0-5.927-9.293,5.869,5.869,0,1,0-8.686,0A10.275,10.275,0,0,0,25,21.073Zm7.336-13.2A2.934,2.934,0,1,1,35.27,10.8,2.938,2.938,0,0,1,32.336,7.869Zm2.934,5.869a7.348,7.348,0,0,1,7.188,5.869H28.082A7.348,7.348,0,0,1,35.27,13.737Z" transform="translate(10.745)" fill="#002b45"/>
      <path id="Trazado_24830" data-name="Trazado 24830" d="M41,28.073a1.467,1.467,0,0,0,1.467,1.467H60.073a1.467,1.467,0,0,0,1.467-1.467,10.275,10.275,0,0,0-5.927-9.293,5.869,5.869,0,1,0-8.686,0A10.275,10.275,0,0,0,41,28.073Zm7.336-13.2A2.934,2.934,0,1,1,51.27,17.8,2.938,2.938,0,0,1,48.336,14.869Zm2.934,5.869a7.348,7.348,0,0,1,7.188,5.869H44.082A7.348,7.348,0,0,1,51.27,20.737Z" transform="translate(18.22 3.27)" fill="#002b45"/>
      <path id="Trazado_24831" data-name="Trazado 24831" d="M51.27,41a5.843,5.843,0,0,0-4.343,9.78A10.275,10.275,0,0,0,41,60.073a1.467,1.467,0,0,0,1.467,1.467H60.073a1.467,1.467,0,0,0,1.467-1.467,10.275,10.275,0,0,0-5.927-9.293A5.843,5.843,0,0,0,51.27,41Zm-2.934,5.869A2.934,2.934,0,1,1,51.27,49.8,2.938,2.938,0,0,1,48.336,46.869ZM58.458,58.606H44.082a7.337,7.337,0,0,1,14.377,0Z" transform="translate(18.22 18.22)" fill="#002b45"/>
      <path id="Trazado_24832" data-name="Trazado 24832" d="M25,67.073a1.467,1.467,0,0,0,1.467,1.467H44.073a1.467,1.467,0,0,0,1.467-1.467,10.275,10.275,0,0,0-5.927-9.293,5.869,5.869,0,1,0-8.686,0A10.275,10.275,0,0,0,25,67.073Zm7.336-13.2A2.934,2.934,0,1,1,35.27,56.8,2.938,2.938,0,0,1,32.336,53.869Zm2.934,5.869a7.348,7.348,0,0,1,7.188,5.869H28.082A7.348,7.348,0,0,1,35.27,59.737Z" transform="translate(10.745 21.49)" fill="#002b45"/>
      <path id="Trazado_24833" data-name="Trazado 24833" d="M62.613,34.78a5.869,5.869,0,1,0-8.686,0A10.275,10.275,0,0,0,48,44.073a1.467,1.467,0,0,0,1.467,1.467H67.073a1.467,1.467,0,0,0,1.467-1.467A10.275,10.275,0,0,0,62.613,34.78Zm-7.278-3.911A2.934,2.934,0,1,1,58.27,33.8,2.938,2.938,0,0,1,55.336,30.869ZM51.082,42.606a7.337,7.337,0,0,1,14.377,0Z" transform="translate(21.49 10.745)" fill="#002b45"/>
      <path id="Trazado_24834" data-name="Trazado 24834" d="M9,28.073a1.467,1.467,0,0,0,1.467,1.467H28.073a1.467,1.467,0,0,0,1.467-1.467,10.275,10.275,0,0,0-5.927-9.293,5.869,5.869,0,1,0-8.686,0A10.275,10.275,0,0,0,9,28.073Zm7.336-13.2A2.934,2.934,0,1,1,19.27,17.8,2.938,2.938,0,0,1,16.336,14.869Zm2.934,5.869a7.348,7.348,0,0,1,7.188,5.869H12.082A7.348,7.348,0,0,1,19.27,20.737Z" transform="translate(3.27 3.27)" fill="#002b45"/>
      <path id="Trazado_24835" data-name="Trazado 24835" d="M9,60.073a1.467,1.467,0,0,0,1.467,1.467H28.073a1.467,1.467,0,0,0,1.467-1.467,10.275,10.275,0,0,0-5.927-9.293,5.869,5.869,0,1,0-8.686,0A10.275,10.275,0,0,0,9,60.073Zm7.336-13.2A2.934,2.934,0,1,1,19.27,49.8,2.938,2.938,0,0,1,16.336,46.869Zm2.934,5.869a7.348,7.348,0,0,1,7.188,5.869H12.082A7.348,7.348,0,0,1,19.27,52.737Z" transform="translate(3.27 18.22)" fill="#002b45"/>
      <path id="Trazado_24836" data-name="Trazado 24836" d="M2,44.073A1.467,1.467,0,0,0,3.467,45.54H21.073a1.467,1.467,0,0,0,1.467-1.467,10.275,10.275,0,0,0-5.927-9.293,5.869,5.869,0,1,0-8.686,0A10.275,10.275,0,0,0,2,44.073Zm7.336-13.2A2.934,2.934,0,1,1,12.27,33.8,2.938,2.938,0,0,1,9.336,30.869Zm2.934,5.869a7.348,7.348,0,0,1,7.188,5.869H5.082A7.348,7.348,0,0,1,12.27,36.737Z" transform="translate(0 10.745)" fill="#002b45"/>
      <path id="Trazado_24837" data-name="Trazado 24837" d="M21,37.139A16.139,16.139,0,1,0,37.139,21,16.157,16.157,0,0,0,21,37.139Zm16.139-13.2a13.2,13.2,0,1,1-13.2,13.2A13.219,13.219,0,0,1,37.139,23.934Z" transform="translate(8.876 8.876)" fill="#002b45"/>
    </g>
  </g>
</svg>
