<svg xmlns="http://www.w3.org/2000/svg" width="150" height="150" viewBox="0 0 150 150">
  <g id="Grupo_29513" data-name="Grupo 29513" transform="translate(-1015 -1809)">
    <g id="Elipse_1025" data-name="Elipse 1025" transform="translate(1015 1809)" fill="#fff" stroke="#b869c3" stroke-width="7">
      <circle cx="75" cy="75" r="75" stroke="none"/>
      <circle cx="75" cy="75" r="71.5" fill="none"/>
    </g>
    <g id="shop_·_ecommerce_·_shopping_·_buy_·_sale" data-name="shop · ecommerce · shopping · buy · sale" transform="translate(1046.451 1847.323)">
      <path id="Trazado_23915" data-name="Trazado 23915" d="M80.421,2H6.127A4.14,4.14,0,0,0,2,6.127V63.912a1.376,1.376,0,0,0,1.376,1.376H35.295A9.038,9.038,0,0,0,37.3,68.039a6.431,6.431,0,0,1,1.4,1.83,6.494,6.494,0,0,1-.041,2.408,6.171,6.171,0,0,0,.564,4.581,6.239,6.239,0,0,0,4.2,1.954,6.419,6.419,0,0,1,2.284.688,6.479,6.479,0,0,1,1.335,1.926,6.212,6.212,0,0,0,3.178,3.426,3.368,3.368,0,0,0,1.087.165,8.218,8.218,0,0,0,3.385-1.032,6.785,6.785,0,0,1,2.339-.812,6.785,6.785,0,0,1,2.339.812,6.124,6.124,0,0,0,4.471.867,6.212,6.212,0,0,0,3.178-3.426A6.479,6.479,0,0,1,68.356,79.5a6.42,6.42,0,0,1,2.284-.688,6.239,6.239,0,0,0,4.2-1.954,6.171,6.171,0,0,0,.564-4.581,6.494,6.494,0,0,1-.041-2.408,6.431,6.431,0,0,1,1.4-1.83,9.038,9.038,0,0,0,2.009-2.752h4.4a1.376,1.376,0,0,0,1.376-1.376V6.127A4.14,4.14,0,0,0,80.421,2ZM74.767,66.154a7.78,7.78,0,0,0-2.022,2.862,8.222,8.222,0,0,0-.069,3.618,4.815,4.815,0,0,1-.055,2.6c-.344.468-1.486.688-2.49.867a8.472,8.472,0,0,0-3.4,1.169,7.97,7.97,0,0,0-2.119,2.848c-.5.908-1.059,1.926-1.623,2.119-.523.165-1.541-.316-2.449-.743a8.468,8.468,0,0,0-3.508-1.073,8.468,8.468,0,0,0-3.508,1.073c-.908.426-1.94.908-2.449.743-.564-.193-1.128-1.211-1.623-2.119a8.134,8.134,0,0,0-2.119-2.848,8.472,8.472,0,0,0-3.4-1.169c-1-.179-2.146-.4-2.49-.867a4.815,4.815,0,0,1-.055-2.6,8.222,8.222,0,0,0-.069-3.618A7.78,7.78,0,0,0,39.3,66.154c-.715-.757-1.527-1.623-1.527-2.243s.812-1.486,1.527-2.243a7.78,7.78,0,0,0,2.022-2.862,8.222,8.222,0,0,0,.069-3.618,4.815,4.815,0,0,1,.055-2.6c.344-.468,1.486-.688,2.49-.867a8.472,8.472,0,0,0,3.4-1.169A7.97,7.97,0,0,0,49.452,47.7c.5-.908,1.059-1.926,1.623-2.119a.688.688,0,0,1,.248-.028,6.6,6.6,0,0,1,2.2.77A8.468,8.468,0,0,0,57.033,47.4a8.468,8.468,0,0,0,3.508-1.073c.908-.427,1.94-.908,2.449-.743.564.193,1.128,1.211,1.623,2.119a8.134,8.134,0,0,0,2.119,2.848,8.472,8.472,0,0,0,3.4,1.169c1,.179,2.146.4,2.49.867a4.815,4.815,0,0,1,.055,2.6,8.222,8.222,0,0,0,.069,3.618,7.78,7.78,0,0,0,2.022,2.862c.715.757,1.527,1.623,1.527,2.243S75.482,65.4,74.767,66.154Zm7.03-3.618H78.77a9.038,9.038,0,0,0-2.009-2.752,6.431,6.431,0,0,1-1.4-1.83,6.494,6.494,0,0,1,.041-2.408,6.171,6.171,0,0,0-.564-4.581,6.239,6.239,0,0,0-4.2-1.954,6.42,6.42,0,0,1-2.284-.688A6.479,6.479,0,0,1,67.021,46.4a6.212,6.212,0,0,0-3.178-3.426,6.111,6.111,0,0,0-4.471.867,6.786,6.786,0,0,1-2.339.812,6.785,6.785,0,0,1-2.339-.812,6.111,6.111,0,0,0-4.471-.867A6.212,6.212,0,0,0,47.044,46.4a6.479,6.479,0,0,1-1.335,1.926,6.42,6.42,0,0,1-2.284.688,6.239,6.239,0,0,0-4.2,1.954,6.171,6.171,0,0,0-.564,4.581,6.494,6.494,0,0,1,.041,2.408,6.431,6.431,0,0,1-1.4,1.83,9.038,9.038,0,0,0-2.009,2.752H4.752V15.758H81.8Zm0-49.529H4.752V6.127A1.376,1.376,0,0,1,6.127,4.752H80.421A1.376,1.376,0,0,1,81.8,6.127Z" transform="translate(0 0)" fill="#002b45"/>
      <path id="Trazado_23916" data-name="Trazado 23916" d="M50.752,49.879v1.376h1.376a1.376,1.376,0,1,1,0,2.752H49.376A1.376,1.376,0,0,1,48,52.631V44.376A1.376,1.376,0,0,1,49.376,43h2.752a1.376,1.376,0,0,1,0,2.752H50.752v1.376h1.376a1.376,1.376,0,1,1,0,2.752Z" transform="translate(17.287 15.408)" fill="#002b45"/>
      <path id="Trazado_23917" data-name="Trazado 23917" d="M49.5,52.631a1.376,1.376,0,0,1-1.376,1.376H45.376A1.376,1.376,0,0,1,44,52.631V44.376a1.376,1.376,0,1,1,2.752,0v6.879h1.376A1.376,1.376,0,0,1,49.5,52.631Z" transform="translate(15.784 15.408)" fill="#002b45"/>
      <path id="Trazado_23918" data-name="Trazado 23918" d="M38.879,49.879v1.376a2.76,2.76,0,0,1-2.752,2.752H33.376a1.376,1.376,0,1,1,0-2.752h2.752V49.879H34.752A2.76,2.76,0,0,1,32,47.127V45.752A2.76,2.76,0,0,1,34.752,43H37.5a1.376,1.376,0,0,1,0,2.752H34.752v1.376h1.376A2.76,2.76,0,0,1,38.879,49.879Z" transform="translate(11.274 15.408)" fill="#002b45"/>
      <path id="Trazado_23919" data-name="Trazado 23919" d="M46.563,52.19l-2.752-8.255A1.4,1.4,0,0,0,42.5,43H41.128a1.4,1.4,0,0,0-1.307.936L37.07,52.19a1.379,1.379,0,1,0,2.614.881l.605-1.816h3.054l.605,1.816a1.376,1.376,0,0,0,1.307.936,1.717,1.717,0,0,0,.44-.069,1.376,1.376,0,0,0,.936-1.307,1.55,1.55,0,0,0-.069-.44ZM41.2,48.5l.619-1.844.619,1.844Z" transform="translate(13.153 15.408)" fill="#002b45"/>
      <path id="Trazado_23920" data-name="Trazado 23920" d="M29.376,20.752h16.51a1.376,1.376,0,1,0,0-2.752H29.376a1.376,1.376,0,1,0,0,2.752Z" transform="translate(9.771 6.013)" fill="#002b45"/>
      <path id="Trazado_23921" data-name="Trazado 23921" d="M29.376,24.752H43.134a1.376,1.376,0,0,0,0-2.752H29.376a1.376,1.376,0,1,0,0,2.752Z" transform="translate(9.771 7.516)" fill="#002b45"/>
      <path id="Trazado_23922" data-name="Trazado 23922" d="M29.376,28.752h9.631a1.376,1.376,0,0,0,0-2.752H29.376a1.376,1.376,0,1,0,0,2.752Z" transform="translate(9.771 9.02)" fill="#002b45"/>
      <path id="Trazado_23923" data-name="Trazado 23923" d="M25.134,36H11.376a1.376,1.376,0,1,0,0,2.752H25.134a1.376,1.376,0,1,0,0-2.752Z" transform="translate(3.007 12.778)" fill="#002b45"/>
      <path id="Trazado_23924" data-name="Trazado 23924" d="M13.752,6H12.376a1.376,1.376,0,1,0,0,2.752h1.376a1.376,1.376,0,0,0,0-2.752Z" transform="translate(3.382 1.503)" fill="#002b45"/>
      <path id="Trazado_23925" data-name="Trazado 23925" d="M8.752,6H7.376a1.376,1.376,0,0,0,0,2.752H8.752A1.376,1.376,0,0,0,8.752,6Z" transform="translate(1.503 1.503)" fill="#002b45"/>
      <path id="Trazado_23926" data-name="Trazado 23926" d="M18.752,6H17.376a1.376,1.376,0,1,0,0,2.752h1.376a1.376,1.376,0,0,0,0-2.752Z" transform="translate(5.261 1.503)" fill="#002b45"/>
      <path id="Trazado_23927" data-name="Trazado 23927" d="M7.709,25.589l3.794-.948v12a1.376,1.376,0,0,0,1.376,1.376H26.637a1.376,1.376,0,0,0,1.376-1.376v-12l3.794.948a1.376,1.376,0,0,0,1.709-1.335v-5.5a1.376,1.376,0,0,0-1.041-1.335L27,16.041A1.365,1.365,0,0,0,26.662,16H23.886a1.376,1.376,0,0,0-1.376,1.376,2.752,2.752,0,1,1-5.5,0A1.376,1.376,0,0,0,15.631,16H12.846a1.4,1.4,0,0,0-.337.041L7.04,17.417A1.376,1.376,0,0,0,6,18.752v5.5a1.376,1.376,0,0,0,1.709,1.335Zm1.043-5.765,4.265-1.073H14.43a5.5,5.5,0,0,0,10.657,0h1.4l4.273,1.073v2.668l-3.794-.948a1.376,1.376,0,0,0-1.709,1.335V35.261H14.255V22.879a1.376,1.376,0,0,0-1.709-1.335l-3.794.948Z" transform="translate(1.503 5.261)" fill="#002b45"/>
      <path id="Trazado_23928" data-name="Trazado 23928" d="M45.376,31.758H59.134a1.376,1.376,0,0,0,1.376-1.376V19.376A1.376,1.376,0,0,0,59.134,18H45.376A1.376,1.376,0,0,0,44,19.376V30.382A1.376,1.376,0,0,0,45.376,31.758Zm1.376-11.007H57.758v8.255H46.752Z" transform="translate(15.784 6.013)" fill="#002b45"/>
    </g>
  </g>
</svg>
