<svg xmlns="http://www.w3.org/2000/svg" width="150" height="150" viewBox="0 0 150 150">
  <g id="Grupo_29916" data-name="Grupo 29916" transform="translate(-769 -7658)">
    <g id="Elipse_1043" data-name="Elipse 1043" transform="translate(769 7658)" fill="#fff" stroke="#b869c3" stroke-width="7">
      <circle cx="75" cy="75" r="75" stroke="none"/>
      <circle cx="75" cy="75" r="71.5" fill="none"/>
    </g>
    <g id="shopping-bag" transform="translate(792.642 7686.047)">
      <g id="Grupo_29892" data-name="Grupo 29892" transform="translate(41.003)">
        <g id="Grupo_29891" data-name="Grupo 29891">
          <path id="Trazado_24805" data-name="Trazado 24805" d="M98.714,10.422A12.152,12.152,0,0,0,76.869,4.99a1.429,1.429,0,1,0,2.308,1.686,9.294,9.294,0,0,1,16.707,4.149A1.431,1.431,0,0,0,97.3,12.053a1.531,1.531,0,0,0,.2-.014A1.43,1.43,0,0,0,98.714,10.422Z" transform="translate(-76.593)" fill="#002b45"/>
        </g>
      </g>
      <g id="Grupo_29894" data-name="Grupo 29894" transform="translate(18.217 18.583)">
        <g id="Grupo_29893" data-name="Grupo 29893" transform="translate(0)">
          <path id="Trazado_24806" data-name="Trazado 24806" d="M87.738,52.214l-4.288-7.148a1.428,1.428,0,0,0-1.226-.694h-4.11a1.429,1.429,0,0,0,0,2.859h3.3l2.573,4.288H26.139l2.573-4.288h1.514a1.429,1.429,0,0,0,0-2.859H27.9a1.428,1.428,0,0,0-1.226.694l-4.288,7.148a1.43,1.43,0,0,0,1.226,2.166h62.9a1.43,1.43,0,0,0,1.226-2.166Z" transform="translate(-22.185 -44.372)" fill="#002b45"/>
        </g>
      </g>
      <g id="Grupo_29896" data-name="Grupo 29896" transform="translate(53.044 8.01)">
        <g id="Grupo_29895" data-name="Grupo 29895">
          <path id="Trazado_24807" data-name="Trazado 24807" d="M128.944,24.36a1.427,1.427,0,0,0-.889-.638l-19.487-4.558a1.428,1.428,0,0,0-1.717,1.066l-1.47,6.282a1.429,1.429,0,0,0,2.784.65l1.144-4.889,16.7,3.907L123.387,37.4a1.428,1.428,0,0,0,1.066,1.717,1.445,1.445,0,0,0,.327.038,1.427,1.427,0,0,0,1.39-1.1l2.95-12.613A1.424,1.424,0,0,0,128.944,24.36Z" transform="translate(-105.343 -19.126)" fill="#002b45"/>
        </g>
      </g>
      <g id="Grupo_29898" data-name="Grupo 29898" transform="translate(23.791 4.344)">
        <g id="Grupo_29897" data-name="Grupo 29897">
          <path id="Trazado_24808" data-name="Trazado 24808" d="M63.555,22.652l-1.3-11.016a1.43,1.43,0,0,0-1.588-1.252L36.755,13.209A1.43,1.43,0,0,0,35.5,14.8l2.171,18.374a1.43,1.43,0,0,0,1.418,1.262,1.562,1.562,0,0,0,.17-.01,1.43,1.43,0,0,0,1.251-1.588l-2-16.955,21.07-2.49,1.134,9.6a1.43,1.43,0,0,0,2.839-.335Z" transform="translate(-35.494 -10.374)" fill="#002b45"/>
        </g>
      </g>
      <g id="Grupo_29900" data-name="Grupo 29900" transform="translate(34.472 13.724)">
        <g id="Grupo_29899" data-name="Grupo 29899">
          <path id="Trazado_24809" data-name="Trazado 24809" d="M89.682,45.663l-2.837-11.8a1.428,1.428,0,0,0-1.724-1.055L62.092,38.347a1.43,1.43,0,0,0-1.056,1.724l1.418,5.9a1.429,1.429,0,1,0,2.78-.668L64.15,40.792,84.4,35.923l2.5,10.409a1.43,1.43,0,0,0,2.78-.669Z" transform="translate(-60.997 -32.769)" fill="#002b45"/>
        </g>
      </g>
      <g id="Grupo_29902" data-name="Grupo 29902" transform="translate(15.359 25.731)">
        <g id="Grupo_29901" data-name="Grupo 29901">
          <path id="Trazado_24810" data-name="Trazado 24810" d="M83.973,62.8a1.43,1.43,0,0,0-1.428-1.356h-62.9A1.43,1.43,0,0,0,18.219,62.8l-2.859,55.75a1.429,1.429,0,0,0,1.428,1.5H85.4a1.429,1.429,0,0,0,1.429-1.5ZM18.292,117.19,21,64.3H81.186L83.9,117.19Z" transform="translate(-15.359 -61.441)" fill="#002b45"/>
        </g>
      </g>
      <g id="Grupo_29904" data-name="Grupo 29904" transform="translate(57.528 31.448)">
        <g id="Grupo_29903" data-name="Grupo 29903" transform="translate(0)">
          <path id="Trazado_24811" data-name="Trazado 24811" d="M120.34,75.093a4.288,4.288,0,1,0,4.288,4.288A4.293,4.293,0,0,0,120.34,75.093Zm0,5.718a1.429,1.429,0,1,1,1.429-1.429A1.431,1.431,0,0,1,120.34,80.811Z" transform="translate(-116.052 -75.093)" fill="#002b45"/>
        </g>
      </g>
      <g id="Grupo_29906" data-name="Grupo 29906" transform="translate(36.086 31.448)">
        <g id="Grupo_29905" data-name="Grupo 29905">
          <path id="Trazado_24812" data-name="Trazado 24812" d="M69.14,75.093a4.288,4.288,0,1,0,4.288,4.288A4.293,4.293,0,0,0,69.14,75.093Zm0,5.718a1.429,1.429,0,1,1,1.429-1.429A1.431,1.431,0,0,1,69.14,80.811Z" transform="translate(-64.852 -75.093)" fill="#002b45"/>
        </g>
      </g>
      <g id="Grupo_29908" data-name="Grupo 29908" transform="translate(38.945 35.737)">
        <g id="Grupo_29907" data-name="Grupo 29907" transform="translate(0)">
          <path id="Trazado_24813" data-name="Trazado 24813" d="M94.551,85.333h-.11a1.43,1.43,0,0,0-1.429,1.429,1.413,1.413,0,0,0,.11.551v7.311a9.292,9.292,0,1,1-18.584,0V86.763a1.429,1.429,0,0,0-2.859,0v7.862a12.15,12.15,0,0,0,24.3,0V86.763A1.43,1.43,0,0,0,94.551,85.333Z" transform="translate(-71.679 -85.333)" fill="#002b45"/>
        </g>
      </g>
    </g>
  </g>
</svg>
