<svg xmlns="http://www.w3.org/2000/svg" width="833.452" height="430.547" viewBox="0 0 833.452 430.547">
  <g id="Grupo_29548" data-name="Grupo 29548" transform="translate(-831.548 -654.929)">
    <g id="Grupo_29547" data-name="Grupo 29547" transform="translate(831.548 654.93)">
      <path id="Trazado_23934" data-name="Trazado 23934" d="M918.206,1085.26s-95.492-102.528-16.149-213.529c70.4-98.488,152.476-91.755,212.695-51.789,25.648,17.023,99.594,2.1,162.532-98.117,85.829-136.666,383.345-53.778,329.1,156.487-26.252,101.753,79.893,105.451,25.808,207.164Z" transform="translate(-854.685 -654.93)" fill="#dde8fd"/>
      <path id="Trazado_23935" data-name="Trazado 23935" d="M1338.964,1139.184s-47.241-67.244-65.7-58.526S1338.964,1139.184,1338.964,1139.184Z" transform="translate(-1092.059 -907.064)" fill="#bed2fa"/>
      <path id="Trazado_23936" data-name="Trazado 23936" d="M1400.413,1110.323s-7.216-50.561-18.591-48.577S1400.413,1110.323,1400.413,1110.323Z" transform="translate(-1156.512 -896.272)" fill="#bed2fa"/>
      <g id="Grupo_29519" data-name="Grupo 29519" transform="translate(122.728 346.305)">
        <path id="Trazado_23937" data-name="Trazado 23937" d="M1214.568,1531.827s4.54-22.5-13.094-25.325c0,0-11.961-.418-19,4.093,0,0,20,11.547,17.622,15.135s-21.359-14.473-21.359-14.473-21.441,9.391-26.226,16.192c0,0,25.336,4.515,22.148,7.408s-29.771-.58-29.771-.58-17.13,13.8-9.669,24.781,15.976,10.905,18.671,9,15.889-17.679,17.566-15.534-4.128,15.461-11,19.769c0,0,21.568,7.262,28.065-1.941s3.492-16.359,7.61-21.974,8.841-8.245,8-4.394-9.451,11.944-9.489,19.3-.767,12.717,7.639,6.209,19.57-21.556,15.929-29.61Z" transform="translate(-1133.334 -1506.492)" fill="#93b3f4"/>
        <g id="Grupo_29518" data-name="Grupo 29518" transform="translate(11.357 23.892)">
          <path id="Trazado_23938" data-name="Trazado 23938" d="M1161.262,1589.031s50.307-30.706,69.876-22.345a42.6,42.6,0,0,0,18.266,8.649l3.038,2.609s-14.157-4.417-17.663-3.2C1234.779,1574.741,1229.587,1553.739,1161.262,1589.031Z" transform="translate(-1161.262 -1565.243)" fill="#3a49cd"/>
          <path id="Trazado_23939" data-name="Trazado 23939" d="M1372.784,1590.035s15.6,2,24.509,16.15l-1.9,1.3s-11.949-13.109-21.613-15.447S1372.784,1590.035,1372.784,1590.035Z" transform="translate(-1284.642 -1579.943)" fill="#3a49cd"/>
        </g>
      </g>
      <g id="Grupo_29521" data-name="Grupo 29521" transform="translate(85.365 211.394)">
        <path id="Trazado_23940" data-name="Trazado 23940" d="M1175.455,1269.346s36.53-20.457,19.483-48.22c0,0-13.638-17.048-28.25-21.432,0,0,7.793,41.4,0,42.376s-5.358-46.759-5.358-46.759-38.479-18.509-53.578-17.048c0,0,23.867,40.427,16.074,39.453s-34.583-41.888-34.583-41.888-39.453-7.306-45.785,16.074,3.9,35.069,9.741,36.531,43.35.974,42.375,5.845-26.3,12.664-40.427,8.28c0,0,15.587,38.479,36.044,36.53s26.789-14.612,39.453-15.587,21.918,2.436,15.587,5.845-27.763,1.117-37.992,9.813-18.509,14.054.487,17.95,53.092,1.461,59.911-13.151Z" transform="translate(-1041.46 -1174.747)" fill="#bed2fa"/>
        <g id="Grupo_29520" data-name="Grupo 29520" transform="translate(20.019 24.461)">
          <path id="Trazado_23941" data-name="Trazado 23941" d="M1090.687,1234.9s102.286,33.121,113.976,70.138c0,0-.487,16.561,9.741,35.557v7.306s-10.716-24.841-16.56-28.25C1197.844,1319.646,1220.736,1287.5,1090.687,1234.9Z" transform="translate(-1090.687 -1234.895)" fill="#3a49cd"/>
          <path id="Trazado_23942" data-name="Trazado 23942" d="M1387.777,1488.165s15.774,23.954,6.781,53.112l-4.058-1.09s3.939-32.116-4.314-48.269S1387.777,1488.165,1387.777,1488.165Z" transform="translate(-1264.059 -1382.469)" fill="#3a49cd"/>
        </g>
      </g>
      <path id="Trazado_23943" data-name="Trazado 23943" d="M1382.254,986.492,1327.6,1269.061a9.315,9.315,0,0,0,9.145,11.084h28.826Z" transform="translate(-1125.766 -851.655)" fill="#e75755"/>
      <g id="Grupo_29523" data-name="Grupo 29523" transform="translate(603.514 153.825)">
        <path id="Trazado_23944" data-name="Trazado 23944" d="M2333.184,1095.083s-24.585-15.684-11.623-34.309c0,0,10.165-11.309,20.5-13.775,0,0-7.072,28.478-1.692,29.467s5.593-32.3,5.593-32.3,27.5-11.335,37.937-9.716c0,0-18.21,27.159-12.752,26.793s25.719-27.748,25.719-27.748,27.726-3.506,31.2,13-4.109,24.231-8.232,25.013-30.183-1.053-29.7,2.373,17.784,9.856,27.781,7.372c0,0-12.374,26.135-26.522,23.963s-18.045-11.23-26.812-12.413-15.338.818-11.072,3.442,19.261,1.885,26.027,8.34,12.31,10.511-1.055,12.462-36.976-1.1-41.134-11.536Z" transform="translate(-2316.891 -1033.183)" fill="#93b3f4"/>
        <g id="Grupo_29522" data-name="Grupo 29522" transform="translate(0 17.677)">
          <path id="Trazado_23945" data-name="Trazado 23945" d="M2425.324,1076.651s-72.448,18.948-82.055,44.223c0,0-.322,11.535-8.193,24.336l-.292,5.08s8.443-16.845,12.643-18.983C2347.428,1131.307,2332.793,1108.039,2425.324,1076.651Z" transform="translate(-2326.977 -1076.651)" fill="#93b3f4"/>
          <path id="Trazado_23946" data-name="Trazado 23946" d="M2323.684,1240.891s-11.925,16.027-6.836,36.662l2.865-.6s-1.457-22.49,4.927-33.393S2323.684,1240.891,2323.684,1240.891Z" transform="translate(-2315.584 -1172.333)" fill="#93b3f4"/>
        </g>
      </g>
      <g id="Grupo_29525" data-name="Grupo 29525" transform="translate(522.45 34.854)">
        <path id="Trazado_23947" data-name="Trazado 23947" d="M2147.411,853.431s-37.774-8.295-30.144-37.405c0,0,7.488-18.724,19.23-26.515,0,0,4.205,38.687,11.355,37.459s-7.793-42.77-7.793-42.77,29.054-26.672,42.793-29.427c0,0-10.264,42.132-3.636,39.183s19.345-46.3,19.345-46.3,32.918-17.03,44.78,1.94,5.953,32.045,1.178,34.9-38.06,12.478-35.893,16.522,26.644,4.147,37.956-3.513c0,0-3.467,38.191-22.073,41.951s-27.6-5.739-39.052-3.206-18.723,8.026-12.212,9.344,24.842-6.452,36.214-1.506,20.126,7.463,4.379,16-46.54,15.518-56.483,4.429Z" transform="translate(-2116.249 -740.636)" fill="#fff"/>
        <g id="Grupo_29524" data-name="Grupo 29524" transform="translate(30.283 20.253)">
          <path id="Trazado_23948" data-name="Trazado 23948" d="M2274.833,790.438s-81.543,56.687-81.958,92.542c0,0,4.868,14.509.917,34.042l1.958,6.458s2.816-24.83,7.069-29.41C2202.819,894.07,2173.969,871.787,2274.833,790.438Z" transform="translate(-2191.997 -790.438)" fill="#fff"/>
          <path id="Trazado_23949" data-name="Trazado 23949" d="M2192.51,1094.018s-7.525,25.4,8.238,48.767l3.295-2.051s-12.088-27.335-9.121-43.825S2192.51,1094.018,2192.51,1094.018Z" transform="translate(-2190.715 -967.434)" fill="#fff"/>
        </g>
      </g>
      <path id="Trazado_23950" data-name="Trazado 23950" d="M1410.817,982.218l-36.228,277.439a15.368,15.368,0,0,0,15.238,17.357h53.146l-29.965-295.8Z" transform="translate(-1153.672 -848.525)" fill="#3662c1"/>
      <path id="Trazado_23951" data-name="Trazado 23951" d="M1440.157,983.68l-16.218,275.67a18.066,18.066,0,0,0,18.034,19.127h79.262Z" transform="translate(-1183.012 -849.987)" fill="#6d89cf"/>
      <path id="Trazado_23952" data-name="Trazado 23952" d="M1462.369,989.213l7.885,273.42a18.066,18.066,0,0,0,18.034,19.126h79.263Z" transform="translate(-1205.833 -853.27)" fill="#3a49cd"/>
      <path id="Trazado_23953" data-name="Trazado 23953" d="M1846.526,1276.715H1534a16.159,16.159,0,0,1-15.9-13.253L1470.547,1003.4a19.227,19.227,0,0,1,18.913-22.685h308.848a16.159,16.159,0,0,1,15.9,13.252l48.217,263.686A16.158,16.158,0,0,1,1846.526,1276.715Z" transform="translate(-1210.495 -848.226)" fill="#fff"/>
      <path id="Trazado_23954" data-name="Trazado 23954" d="M1472,1037.172h345.588l-8.861-49.1a8.947,8.947,0,0,0-8.8-7.358H1465.18a2.93,2.93,0,0,0-2.882,3.457Z" transform="translate(-1205.761 -848.226)" fill="#fa7269"/>
      <g id="Grupo_29540" data-name="Grupo 29540" transform="translate(259.335 117.711)">
        <g id="Grupo_29527" data-name="Grupo 29527">
          <g id="Grupo_29526" data-name="Grupo 29526">
            <path id="Trazado_23955" data-name="Trazado 23955" d="M1484.234,944.379a15,15,0,0,0-14.983,14.979h2.878a12.107,12.107,0,1,1,16.063,11.44,11.962,11.962,0,0,1-3.269.647v2.879a14.816,14.816,0,0,0,3.828-.68,14.981,14.981,0,0,0-4.518-29.266Z" transform="translate(-1469.251 -944.379)" fill="#3662c1"/>
          </g>
          <path id="Trazado_23956" data-name="Trazado 23956" d="M1508.023,1009.482a3.333,3.333,0,0,1-.116.865,3.256,3.256,0,1,1,.116-.865Z" transform="translate(-1488.406 -981.081)" fill="#3662c1"/>
        </g>
        <g id="Grupo_29529" data-name="Grupo 29529" transform="translate(53.719)">
          <g id="Grupo_29528" data-name="Grupo 29528">
            <path id="Trazado_23957" data-name="Trazado 23957" d="M1616.328,944.379a15,15,0,0,0-14.983,14.979h2.875a12.107,12.107,0,1,1,16.067,11.44,11.984,11.984,0,0,1-3.272.647v2.879a14.811,14.811,0,0,0,3.828-.68,14.981,14.981,0,0,0-4.514-29.266Z" transform="translate(-1601.345 -944.379)" fill="#3662c1"/>
          </g>
          <path id="Trazado_23958" data-name="Trazado 23958" d="M1640.109,1009.482a3.312,3.312,0,0,1-.116.865,3.261,3.261,0,1,1,.116-.865Z" transform="translate(-1620.495 -981.081)" fill="#3662c1"/>
        </g>
        <g id="Grupo_29531" data-name="Grupo 29531" transform="translate(107.438)">
          <g id="Grupo_29530" data-name="Grupo 29530">
            <path id="Trazado_23959" data-name="Trazado 23959" d="M1748.423,944.379a15,15,0,0,0-14.983,14.979h2.874a12.107,12.107,0,0,1,24.214,0,11.994,11.994,0,0,1-.623,3.832,12.151,12.151,0,0,1-7.523,7.608,11.988,11.988,0,0,1-3.272.647v2.879a14.841,14.841,0,0,0,3.828-.68,14.982,14.982,0,0,0-4.515-29.266Z" transform="translate(-1733.44 -944.379)" fill="#3662c1"/>
          </g>
          <path id="Trazado_23960" data-name="Trazado 23960" d="M1772.2,1009.482a3.333,3.333,0,0,1-.116.865,3.262,3.262,0,1,1,.116-.865Z" transform="translate(-1752.589 -981.081)" fill="#3662c1"/>
        </g>
        <g id="Grupo_29533" data-name="Grupo 29533" transform="translate(161.156)">
          <g id="Grupo_29532" data-name="Grupo 29532">
            <path id="Trazado_23961" data-name="Trazado 23961" d="M1880.512,944.379a14.994,14.994,0,0,0-14.98,14.979h2.875a12.106,12.106,0,1,1,16.063,11.44,11.965,11.965,0,0,1-3.269.647v2.879a14.847,14.847,0,0,0,3.828-.68,14.982,14.982,0,0,0-4.518-29.266Z" transform="translate(-1865.532 -944.379)" fill="#3662c1"/>
          </g>
          <path id="Trazado_23962" data-name="Trazado 23962" d="M1904.3,1009.482a3.343,3.343,0,0,1-.116.865,3.253,3.253,0,1,1,.116-.865Z" transform="translate(-1884.682 -981.081)" fill="#3662c1"/>
        </g>
        <g id="Grupo_29535" data-name="Grupo 29535" transform="translate(214.871)">
          <g id="Grupo_29534" data-name="Grupo 29534">
            <path id="Trazado_23963" data-name="Trazado 23963" d="M2012.6,944.379a15,15,0,0,0-14.983,14.979h2.875a12.107,12.107,0,1,1,16.063,11.44,11.94,11.94,0,0,1-3.27.647v2.879a14.814,14.814,0,0,0,3.829-.68,14.981,14.981,0,0,0-4.514-29.266Z" transform="translate(-1997.618 -944.379)" fill="#3662c1"/>
          </g>
          <path id="Trazado_23964" data-name="Trazado 23964" d="M2036.382,1009.482a3.333,3.333,0,0,1-.116.865,3.253,3.253,0,1,1,.116-.865Z" transform="translate(-2016.768 -981.081)" fill="#3662c1"/>
        </g>
        <g id="Grupo_29537" data-name="Grupo 29537" transform="translate(268.59)">
          <g id="Grupo_29536" data-name="Grupo 29536">
            <path id="Trazado_23965" data-name="Trazado 23965" d="M2144.694,944.379a15,15,0,0,0-14.983,14.979h2.875a12.107,12.107,0,1,1,16.064,11.44,11.934,11.934,0,0,1-3.269.647v2.879a14.813,14.813,0,0,0,3.828-.68,14.982,14.982,0,0,0-4.515-29.266Z" transform="translate(-2129.711 -944.379)" fill="#3662c1"/>
          </g>
          <path id="Trazado_23966" data-name="Trazado 23966" d="M2168.475,1009.482a3.333,3.333,0,0,1-.116.865,3.258,3.258,0,1,1,.116-.865Z" transform="translate(-2148.861 -981.081)" fill="#3662c1"/>
        </g>
        <g id="Grupo_29539" data-name="Grupo 29539" transform="translate(322.308)">
          <g id="Grupo_29538" data-name="Grupo 29538">
            <path id="Trazado_23967" data-name="Trazado 23967" d="M2276.785,944.379a14.994,14.994,0,0,0-14.98,14.979h2.875a12.107,12.107,0,0,1,24.213,0,11.987,11.987,0,0,1-.623,3.832,12.147,12.147,0,0,1-7.527,7.608,11.959,11.959,0,0,1-3.269.647v2.879a14.816,14.816,0,0,0,3.829-.68,14.982,14.982,0,0,0-4.518-29.266Z" transform="translate(-2261.805 -944.379)" fill="#3662c1"/>
          </g>
          <path id="Trazado_23968" data-name="Trazado 23968" d="M2300.569,1009.482a3.333,3.333,0,0,1-.116.865,3.251,3.251,0,1,1,.116-.865Z" transform="translate(-2280.955 -981.081)" fill="#3662c1"/>
        </g>
      </g>
      <g id="Grupo_29541" data-name="Grupo 29541" transform="translate(303.823 218.077)">
        <path id="Trazado_23969" data-name="Trazado 23969" d="M1940.761,1310.168h-17.47a4.682,4.682,0,0,1-4.38-3.672l-3.37-17.47a2.951,2.951,0,0,1,2.964-3.672h17.47a4.683,4.683,0,0,1,4.38,3.672l3.37,17.47A2.95,2.95,0,0,1,1940.761,1310.168Z" transform="translate(-1778.496 -1247.056)" fill="#6d89cf"/>
        <path id="Trazado_23970" data-name="Trazado 23970" d="M2049.163,1310.168h-17.47a4.683,4.683,0,0,1-4.381-3.672l-3.37-17.47a2.951,2.951,0,0,1,2.964-3.672h17.47a4.683,4.683,0,0,1,4.38,3.672l3.37,17.47A2.95,2.95,0,0,1,2049.163,1310.168Z" transform="translate(-1842.814 -1247.056)" fill="#6d89cf"/>
        <path id="Trazado_23971" data-name="Trazado 23971" d="M2157.564,1310.168h-17.47a4.682,4.682,0,0,1-4.38-3.672l-3.37-17.47a2.951,2.951,0,0,1,2.963-3.672h17.47a4.684,4.684,0,0,1,4.38,3.672l3.37,17.47A2.95,2.95,0,0,1,2157.564,1310.168Z" transform="translate(-1907.132 -1247.056)" fill="#3662c1"/>
        <path id="Trazado_23972" data-name="Trazado 23972" d="M1615.557,1310.168h-17.47a4.682,4.682,0,0,1-4.38-3.672l-3.37-17.47a2.951,2.951,0,0,1,2.964-3.672h17.47a4.683,4.683,0,0,1,4.38,3.672l3.37,17.47A2.95,2.95,0,0,1,1615.557,1310.168Z" transform="translate(-1585.543 -1247.056)" fill="#6d89cf"/>
        <path id="Trazado_23973" data-name="Trazado 23973" d="M1589.514,1201.842h-7.508a2.012,2.012,0,0,1-1.882-1.578l-1.448-7.507a1.268,1.268,0,0,1,1.273-1.578h7.507a2.013,2.013,0,0,1,1.883,1.578l1.448,7.507A1.268,1.268,0,0,1,1589.514,1201.842Z" transform="translate(-1578.647 -1191.179)" fill="#fa7269"/>
        <path id="Trazado_23974" data-name="Trazado 23974" d="M1723.958,1310.168h-17.47a4.683,4.683,0,0,1-4.381-3.672l-3.37-17.47a2.951,2.951,0,0,1,2.963-3.672h17.47a4.683,4.683,0,0,1,4.38,3.672l3.37,17.47A2.95,2.95,0,0,1,1723.958,1310.168Z" transform="translate(-1649.861 -1247.056)" fill="#6d89cf"/>
        <path id="Trazado_23975" data-name="Trazado 23975" d="M1832.36,1310.168h-17.47a4.682,4.682,0,0,1-4.38-3.672l-3.37-17.47a2.951,2.951,0,0,1,2.964-3.672h17.47a4.683,4.683,0,0,1,4.38,3.672l3.37,17.47A2.95,2.95,0,0,1,1832.36,1310.168Z" transform="translate(-1714.178 -1247.056)" fill="#6d89cf"/>
        <path id="Trazado_23976" data-name="Trazado 23976" d="M2265.967,1310.168H2248.5a4.682,4.682,0,0,1-4.38-3.672l-3.37-17.47a2.95,2.95,0,0,1,2.963-3.672h17.47a4.683,4.683,0,0,1,4.38,3.672l3.37,17.47A2.95,2.95,0,0,1,2265.967,1310.168Z" transform="translate(-1971.45 -1247.056)" fill="#3662c1"/>
        <path id="Trazado_23977" data-name="Trazado 23977" d="M1922.764,1216.865h-17.47a4.683,4.683,0,0,1-4.38-3.671l-3.37-17.47a2.951,2.951,0,0,1,2.964-3.672h17.47a4.683,4.683,0,0,1,4.38,3.672l3.37,17.47A2.95,2.95,0,0,1,1922.764,1216.865Z" transform="translate(-1767.818 -1191.697)" fill="#6d89cf"/>
        <path id="Trazado_23978" data-name="Trazado 23978" d="M2031.165,1216.865H2013.7a4.683,4.683,0,0,1-4.381-3.671l-3.37-17.47a2.95,2.95,0,0,1,2.963-3.672h17.47a4.682,4.682,0,0,1,4.38,3.672l3.37,17.47A2.951,2.951,0,0,1,2031.165,1216.865Z" transform="translate(-1832.136 -1191.697)" fill="#6d89cf"/>
        <path id="Trazado_23979" data-name="Trazado 23979" d="M2139.566,1216.865H2122.1a4.683,4.683,0,0,1-4.381-3.671l-3.37-17.47a2.951,2.951,0,0,1,2.963-3.672h17.47a4.684,4.684,0,0,1,4.381,3.672l3.37,17.47A2.95,2.95,0,0,1,2139.566,1216.865Z" transform="translate(-1896.453 -1191.697)" fill="#3662c1"/>
        <path id="Trazado_23980" data-name="Trazado 23980" d="M2247.968,1216.865H2230.5a4.683,4.683,0,0,1-4.38-3.671l-3.37-17.47a2.951,2.951,0,0,1,2.964-3.672h17.47a4.683,4.683,0,0,1,4.38,3.672l3.37,17.47A2.95,2.95,0,0,1,2247.968,1216.865Z" transform="translate(-1960.771 -1191.697)" fill="#3662c1"/>
        <path id="Trazado_23981" data-name="Trazado 23981" d="M1959.837,1409.058h-17.471a4.683,4.683,0,0,1-4.379-3.672l-3.37-17.47a2.951,2.951,0,0,1,2.964-3.672h17.47a4.683,4.683,0,0,1,4.38,3.672l3.37,17.47A2.951,2.951,0,0,1,1959.837,1409.058Z" transform="translate(-1789.815 -1305.73)" fill="#6d89cf"/>
        <path id="Trazado_23982" data-name="Trazado 23982" d="M2068.238,1409.058h-17.47a4.684,4.684,0,0,1-4.381-3.672l-3.37-17.47a2.951,2.951,0,0,1,2.964-3.672h17.47a4.684,4.684,0,0,1,4.381,3.672l3.37,17.47A2.951,2.951,0,0,1,2068.238,1409.058Z" transform="translate(-1854.132 -1305.73)" fill="#6d89cf"/>
        <path id="Trazado_23983" data-name="Trazado 23983" d="M2176.64,1409.058h-17.47a4.683,4.683,0,0,1-4.38-3.672l-3.37-17.47a2.95,2.95,0,0,1,2.964-3.672h17.47a4.684,4.684,0,0,1,4.38,3.672l3.37,17.47A2.951,2.951,0,0,1,2176.64,1409.058Z" transform="translate(-1918.45 -1305.73)" fill="#3662c1"/>
        <path id="Trazado_23984" data-name="Trazado 23984" d="M1634.632,1409.058h-17.47a4.684,4.684,0,0,1-4.38-3.672l-3.37-17.47a2.951,2.951,0,0,1,2.964-3.672h17.47a4.684,4.684,0,0,1,4.38,3.672l3.37,17.47A2.951,2.951,0,0,1,1634.632,1409.058Z" transform="translate(-1596.861 -1305.73)" fill="#6d89cf"/>
        <path id="Trazado_23985" data-name="Trazado 23985" d="M1743.034,1409.058h-17.47a4.684,4.684,0,0,1-4.38-3.672l-3.37-17.47a2.951,2.951,0,0,1,2.964-3.672h17.47a4.684,4.684,0,0,1,4.38,3.672l3.37,17.47A2.951,2.951,0,0,1,1743.034,1409.058Z" transform="translate(-1661.178 -1305.73)" fill="#6d89cf"/>
        <path id="Trazado_23986" data-name="Trazado 23986" d="M1851.436,1409.058h-17.47a4.683,4.683,0,0,1-4.38-3.672l-3.37-17.47a2.95,2.95,0,0,1,2.963-3.672h17.47a4.685,4.685,0,0,1,4.381,3.672l3.37,17.47A2.951,2.951,0,0,1,1851.436,1409.058Z" transform="translate(-1725.497 -1305.73)" fill="#6d89cf"/>
        <path id="Trazado_23987" data-name="Trazado 23987" d="M2285.042,1409.058h-17.47a4.684,4.684,0,0,1-4.381-3.672l-3.37-17.47a2.951,2.951,0,0,1,2.964-3.672h17.47a4.684,4.684,0,0,1,4.38,3.672l3.37,17.47A2.951,2.951,0,0,1,2285.042,1409.058Z" transform="translate(-1982.768 -1305.73)" fill="#3662c1"/>
        <path id="Trazado_23988" data-name="Trazado 23988" d="M1978.913,1507.949h-17.47a4.683,4.683,0,0,1-4.381-3.672l-3.37-17.47a2.951,2.951,0,0,1,2.964-3.672h17.47a4.684,4.684,0,0,1,4.381,3.672l3.37,17.47A2.951,2.951,0,0,1,1978.913,1507.949Z" transform="translate(-1801.132 -1364.405)" fill="#6d89cf"/>
        <path id="Trazado_23989" data-name="Trazado 23989" d="M2087.314,1507.949h-17.47a4.683,4.683,0,0,1-4.381-3.672l-3.37-17.47a2.95,2.95,0,0,1,2.963-3.672h17.47a4.684,4.684,0,0,1,4.38,3.672l3.37,17.47A2.95,2.95,0,0,1,2087.314,1507.949Z" transform="translate(-1865.451 -1364.405)" fill="#6d89cf"/>
        <path id="Trazado_23990" data-name="Trazado 23990" d="M2195.716,1507.949h-17.47a4.683,4.683,0,0,1-4.38-3.672l-3.37-17.47a2.951,2.951,0,0,1,2.964-3.672h17.469a4.683,4.683,0,0,1,4.38,3.672l3.37,17.47A2.951,2.951,0,0,1,2195.716,1507.949Z" transform="translate(-1929.768 -1364.405)" fill="#3662c1"/>
        <path id="Trazado_23991" data-name="Trazado 23991" d="M1653.708,1507.949h-17.47a4.683,4.683,0,0,1-4.381-3.672l-3.37-17.47a2.951,2.951,0,0,1,2.964-3.672h17.47a4.684,4.684,0,0,1,4.38,3.672l3.37,17.47A2.951,2.951,0,0,1,1653.708,1507.949Z" transform="translate(-1608.179 -1364.405)" fill="#6d89cf"/>
        <path id="Trazado_23992" data-name="Trazado 23992" d="M1762.109,1507.949h-17.47a4.684,4.684,0,0,1-4.381-3.672l-3.37-17.47a2.951,2.951,0,0,1,2.963-3.672h17.47a4.684,4.684,0,0,1,4.38,3.672l3.37,17.47A2.95,2.95,0,0,1,1762.109,1507.949Z" transform="translate(-1672.497 -1364.405)" fill="#fa7269"/>
        <path id="Trazado_23993" data-name="Trazado 23993" d="M1870.511,1507.949h-17.47a4.682,4.682,0,0,1-4.38-3.672l-3.37-17.47a2.95,2.95,0,0,1,2.964-3.672h17.47a4.683,4.683,0,0,1,4.38,3.672l3.37,17.47A2.95,2.95,0,0,1,1870.511,1507.949Z" transform="translate(-1736.815 -1364.405)" fill="#6d89cf"/>
        <path id="Trazado_23994" data-name="Trazado 23994" d="M2304.117,1507.949h-17.47a4.683,4.683,0,0,1-4.38-3.672l-3.37-17.47a2.95,2.95,0,0,1,2.963-3.672h17.47a4.683,4.683,0,0,1,4.381,3.672l3.37,17.47A2.95,2.95,0,0,1,2304.117,1507.949Z" transform="translate(-1994.086 -1364.405)" fill="#3662c1"/>
        <path id="Trazado_23995" data-name="Trazado 23995" d="M1996.91,1601.252h-17.47a4.683,4.683,0,0,1-4.381-3.672l-3.37-17.47a2.951,2.951,0,0,1,2.964-3.672h17.47a4.684,4.684,0,0,1,4.381,3.672l3.37,17.47A2.95,2.95,0,0,1,1996.91,1601.252Z" transform="translate(-1811.811 -1419.764)" fill="#6d89cf"/>
        <path id="Trazado_23996" data-name="Trazado 23996" d="M2105.312,1601.252h-17.47a4.682,4.682,0,0,1-4.38-3.672l-3.371-17.47a2.951,2.951,0,0,1,2.964-3.672h17.47a4.683,4.683,0,0,1,4.38,3.672l3.37,17.47A2.95,2.95,0,0,1,2105.312,1601.252Z" transform="translate(-1876.129 -1419.764)" fill="#6d89cf"/>
        <path id="Trazado_23997" data-name="Trazado 23997" d="M2213.714,1601.252h-17.47a4.683,4.683,0,0,1-4.38-3.672l-3.37-17.47a2.95,2.95,0,0,1,2.963-3.672h17.47a4.682,4.682,0,0,1,4.38,3.672l3.371,17.47A2.951,2.951,0,0,1,2213.714,1601.252Z" transform="translate(-1940.447 -1419.764)" fill="#3662c1"/>
        <path id="Trazado_23998" data-name="Trazado 23998" d="M1671.706,1601.252h-17.47a4.683,4.683,0,0,1-4.381-3.672l-3.37-17.47a2.951,2.951,0,0,1,2.964-3.672h17.47a4.683,4.683,0,0,1,4.381,3.672l3.37,17.47A2.95,2.95,0,0,1,1671.706,1601.252Z" transform="translate(-1618.858 -1419.764)" fill="#6d89cf"/>
        <path id="Trazado_23999" data-name="Trazado 23999" d="M1780.107,1601.252h-17.47a4.683,4.683,0,0,1-4.381-3.672l-3.37-17.47a2.951,2.951,0,0,1,2.964-3.672h17.47a4.683,4.683,0,0,1,4.381,3.672l3.37,17.47A2.95,2.95,0,0,1,1780.107,1601.252Z" transform="translate(-1683.175 -1419.764)" fill="#6d89cf"/>
        <path id="Trazado_24000" data-name="Trazado 24000" d="M1888.509,1601.252h-17.47a4.683,4.683,0,0,1-4.38-3.672l-3.37-17.47a2.951,2.951,0,0,1,2.964-3.672h17.47a4.683,4.683,0,0,1,4.38,3.672l3.37,17.47A2.95,2.95,0,0,1,1888.509,1601.252Z" transform="translate(-1747.493 -1419.764)" fill="#6d89cf"/>
        <path id="Trazado_24001" data-name="Trazado 24001" d="M1666.237,1196.829h-46.282a1.244,1.244,0,0,1-1.24-1.24h0a1.244,1.244,0,0,1,1.24-1.24h46.282a1.244,1.244,0,0,1,1.24,1.24h0A1.244,1.244,0,0,1,1666.237,1196.829Z" transform="translate(-1602.421 -1193.06)" fill="#6d89cf"/>
        <path id="Trazado_24002" data-name="Trazado 24002" d="M1669.7,1210.612h-46.282a1.244,1.244,0,0,1-1.24-1.24h0a1.244,1.244,0,0,1,1.24-1.24H1669.7a1.244,1.244,0,0,1,1.24,1.24h0A1.244,1.244,0,0,1,1669.7,1210.612Z" transform="translate(-1604.474 -1201.238)" fill="#6d89cf"/>
      </g>
      <g id="Grupo_29542" data-name="Grupo 29542" transform="translate(299.755 175.376)">
        <path id="Trazado_24003" data-name="Trazado 24003" d="M1586.889,1090.909h-15.882a2.372,2.372,0,0,1-2.365-2.365h0a2.372,2.372,0,0,1,2.365-2.366h15.882a2.373,2.373,0,0,1,2.366,2.366h0A2.372,2.372,0,0,1,1586.889,1090.909Z" transform="translate(-1568.642 -1086.178)" fill="#fff"/>
        <path id="Trazado_24004" data-name="Trazado 24004" d="M1694.052,1090.909H1678.17a2.372,2.372,0,0,1-2.365-2.365h0a2.372,2.372,0,0,1,2.365-2.366h15.882a2.373,2.373,0,0,1,2.366,2.366h0A2.372,2.372,0,0,1,1694.052,1090.909Z" transform="translate(-1632.225 -1086.178)" fill="#fff"/>
        <path id="Trazado_24005" data-name="Trazado 24005" d="M1801.215,1090.909h-15.882a2.372,2.372,0,0,1-2.365-2.365h0a2.373,2.373,0,0,1,2.365-2.366h15.882a2.372,2.372,0,0,1,2.365,2.366h0A2.372,2.372,0,0,1,1801.215,1090.909Z" transform="translate(-1695.807 -1086.178)" fill="#fff"/>
        <path id="Trazado_24006" data-name="Trazado 24006" d="M1908.378,1090.909H1892.5a2.372,2.372,0,0,1-2.366-2.365h0a2.373,2.373,0,0,1,2.366-2.366h15.882a2.373,2.373,0,0,1,2.365,2.366h0A2.372,2.372,0,0,1,1908.378,1090.909Z" transform="translate(-1759.39 -1086.178)" fill="#fff"/>
        <path id="Trazado_24007" data-name="Trazado 24007" d="M2015.541,1090.909h-15.883a2.372,2.372,0,0,1-2.365-2.365h0a2.372,2.372,0,0,1,2.365-2.366h15.883a2.372,2.372,0,0,1,2.365,2.366h0A2.372,2.372,0,0,1,2015.541,1090.909Z" transform="translate(-1822.973 -1086.178)" fill="#fff"/>
        <path id="Trazado_24008" data-name="Trazado 24008" d="M2122.7,1090.909h-15.882a2.372,2.372,0,0,1-2.365-2.365h0a2.373,2.373,0,0,1,2.365-2.366H2122.7a2.373,2.373,0,0,1,2.366,2.366h0A2.372,2.372,0,0,1,2122.7,1090.909Z" transform="translate(-1886.556 -1086.178)" fill="#fff"/>
        <path id="Trazado_24009" data-name="Trazado 24009" d="M2229.866,1090.909h-15.882a2.372,2.372,0,0,1-2.365-2.365h0a2.372,2.372,0,0,1,2.365-2.366h15.882a2.373,2.373,0,0,1,2.365,2.366h0A2.372,2.372,0,0,1,2229.866,1090.909Z" transform="translate(-1950.139 -1086.178)" fill="#fff"/>
      </g>
      <g id="Grupo_29543" data-name="Grupo 29543" transform="translate(470.449 212.695)">
        <path id="Trazado_24010" data-name="Trazado 24010" d="M1996.962,1208.84c-3.507,0-6.061-1.113-7.453-3.274-2.669-4.142-.609-9.95,6.124-17.26a85.416,85.416,0,0,1,10.716-9.612.507.507,0,0,1,.6.817c-.224.165-22.356,16.552-16.587,25.506,1.828,2.837,5.739,3.024,8.7,2.681,5.483-.634,12.632-3.587,19.125-7.9,6.72-4.463,11.454-9.493,12.987-13.8,1.006-2.825.7-4.827-.926-5.949-2.094-1.449-6.468-1.45-11.7,0a36.932,36.932,0,0,0-13.163,6.51.507.507,0,0,1-.654-.774,37.99,37.99,0,0,1,13.547-6.712c5.6-1.549,10.174-1.495,12.547.147,1.405.973,2.773,3,1.3,7.122-1.605,4.51-6.483,9.723-13.381,14.3-6.619,4.4-13.935,7.41-19.569,8.062A19.323,19.323,0,0,1,1996.962,1208.84Z" transform="translate(-1988.379 -1177.946)" fill="#ed6966"/>
      </g>
      <g id="Grupo_29546" data-name="Grupo 29546" transform="translate(529.201 158.334)">
        <path id="Trazado_24011" data-name="Trazado 24011" d="M2215.8,1163.288l-1.8-3.4s.895-6.061-6.7-9.9c0,0-2.776-1.13-4.343,1.133-1.443,2.085,2.751,1.709,2.526,5.276a6.561,6.561,0,0,0,3.826,6.822l1.948,2.256Z" transform="translate(-2174.266 -1106.83)" fill="#fc9290"/>
        <path id="Trazado_24012" data-name="Trazado 24012" d="M2296.115,1161.391s-6.522,32.011-42.413,42.471c-11.2,3.265-36.657-33.621-36.657-33.621s.895-3.4,6.5-2.619c0,0,24.783,16.407,27.9,18.189,2.768,1.582,20.975-20.33,29.275-23.864A21.183,21.183,0,0,1,2296.115,1161.391Z" transform="translate(-2182.805 -1113.065)" fill="#060632"/>
        <g id="Grupo_29544" data-name="Grupo 29544" transform="translate(0 40.11)">
          <rect id="Rectángulo_4547" data-name="Rectángulo 4547" width="7.898" height="39.731" transform="translate(9.801 15.409) rotate(-100.493)" fill="#ed6966"/>
          <path id="Trazado_24013" data-name="Trazado 24013" d="M2132.85,1167.258l9.8,2.2-1.438-7.766Z" transform="translate(-2132.85 -1154.051)" fill="#fc9290"/>
          <path id="Trazado_24014" data-name="Trazado 24014" d="M2254.5,1145.044l.455,2.455a2.782,2.782,0,0,1-2.229,3.241l-1.806.335-1.438-7.767,1.965-.364A2.62,2.62,0,0,1,2254.5,1145.044Z" transform="translate(-2202.049 -1142.901)" fill="#fc9290"/>
        </g>
        <g id="Grupo_29545" data-name="Grupo 29545" transform="translate(75.362 120.78)">
          <path id="Trazado_24015" data-name="Trazado 24015" d="M2493.308,1655.126s4.452,4.063,3.584,6.95-4.887,4.812-5.43,8.341-2.715,5.453-4.67,5.453h-9.319s-1.439-2.483,2.036-3.232,4.786-4.9,4.568-8.745a67.768,67.768,0,0,1,.325-8.982l7.385-1.711Z" transform="translate(-2412.512 -1526.347)" fill="#060632"/>
          <path id="Trazado_24016" data-name="Trazado 24016" d="M2344.337,1678.555s.8,9.248-1.156,10.21l-25.016-.052s0-2.887,4.018-3.529,11.077-2.994,12.272-8.234S2344.337,1678.555,2344.337,1678.555Z" transform="translate(-2318.165 -1539.267)" fill="#060632"/>
          <path id="Trazado_24017" data-name="Trazado 24017" d="M2330.586,1359.288s1.319,16.209,2.87,35.694c2.108,26.469,4.643,58.981,4.893,65.14.433,10.7,2.173,27.8,2.173,27.8s4.125,4.064,12.38,2.351c0,0,7.356-24.422,9.458-50.262.032-.423.065-.85.1-1.276,1.955-26.305,4.994-81.7,4.994-81.7Z" transform="translate(-2325.535 -1350.627)" fill="#fa7269"/>
          <path id="Trazado_24018" data-name="Trazado 24018" d="M2330.586,1359.288s1.319,16.209,2.87,35.694l28.9,45.033c.032-.423.065-.85.1-1.276,1.955-26.305,4.994-81.7,4.994-81.7Z" transform="translate(-2325.535 -1350.627)" fill="#e75755"/>
          <path id="Trazado_24019" data-name="Trazado 24019" d="M2345.4,1351.853s23.783,58.705,39.42,86.293,20.525,35.288,20.525,35.288,8.959-3.529,9.774-5.934c0,0-5.98-53.261-16.452-66.244-5.918-7.336-12.869-29.352-13.195-37.052s-2.118-22.936-2.118-22.936Z" transform="translate(-2334.326 -1341.267)" fill="#fa7269"/>
        </g>
        <path id="Trazado_24020" data-name="Trazado 24020" d="M2385.336,1116.387s-16.092,7.765-25.369,4.884a21.888,21.888,0,0,1,6.279-5.024c-.321-1.862-.571-3.478-.713-4.848a44.771,44.771,0,0,1-.393-4.954l6.208-4.883,5.887-4.673C2376.772,1110.027,2385.336,1116.387,2385.336,1116.387Z" transform="translate(-2267.605 -1075.49)" fill="#fc9290"/>
        <path id="Trazado_24021" data-name="Trazado 24021" d="M2327.618,1229.393a1.45,1.45,0,0,0,.966.385c3.5-.071,13.665,1.86,22.261.983,7.28-.7,13.7-2.81,20.588-5.829.928-.422,3.036-1.547,3-2.53-.038-1.125-.142-2.7-.284-4.745-.288-4.014-.694-9.713-.823-16.47-.1-5.009-.042-10.6.322-16.519.02-.4.042-.8.058-1.2.1-2.17.155-4.357.155-6.494a112.728,112.728,0,0,0-1.459-19.321c-1.751-10.189-5.034-18.163-9.884-21.713-.644-.493-4.641,1.438-8.35,3.232a15.429,15.429,0,0,1-9.989,1.2l-3.211,2.81c-3.893,3.545-8.174,8.429-10.065,15.809-1.568,6.255-2.5,17.565-3,29.3-.247,5.34-.427,10.679-.5,15.772v.176c-.038.527-.038,1.058-.038,1.585C2327.192,1218.852,2327.367,1229.218,2327.618,1229.393Z" transform="translate(-2248.22 -1098.614)" fill="#0b0754"/>
        <path id="Trazado_24022" data-name="Trazado 24022" d="M2384.892,1108.729s-4.068,7.413-11.81,9.486a44.769,44.769,0,0,1-.393-4.954l6.208-4.883Z" transform="translate(-2275.153 -1082.307)" fill="#ea8888"/>
        <path id="Trazado_24023" data-name="Trazado 24023" d="M2361.358,1083.375s15.351,2.511,16.792-6.926,4.392-15.469-5.348-17.471-12.2,1.316-13.458,4.351S2357.4,1082.478,2361.358,1083.375Z" transform="translate(-2266.653 -1052.635)" fill="#fc9290"/>
        <path id="Trazado_24024" data-name="Trazado 24024" d="M2376.49,1049.484c.14-.16.461-.289,1.177-.328a2.9,2.9,0,0,0-1.336-.377c-.149-.995-.679-2.755-2.391-3.183a2.144,2.144,0,0,1,1.04,1.548c-1.982-2.037-6.231-3.519-18-2.59-15.5,1.224-10.4,11.151-8.388,12.335s7.06-2.061,10.8-1.765,4.451,5.7,5.72,6.443.77-.57,2.486-1.346,1.88,2.068,1.384,3.918,1.863,4.289,1.863,4.289l2.384-2.567c2.383-2.567,4.63-13.439,3.546-15.757C2376.683,1049.9,2376.588,1049.692,2376.49,1049.484Z" transform="translate(-2259.415 -1044.271)" fill="#0b0b36"/>
        <path id="Trazado_24025" data-name="Trazado 24025" d="M2223.559,1165.3s.528-2.086-.919-3.024-2.778-3.488-3.389-3.142c-1.263.715.692,2.941.334,5.717C2219.459,1165.817,2221.723,1168.364,2223.559,1165.3Z" transform="translate(-2183.859 -1112.4)" fill="#fc9290"/>
        <path id="Trazado_24026" data-name="Trazado 24026" d="M2426.759,1250.432c-.1-5.009-.042-10.6.322-16.519.02-.4.042-.8.058-1.2-1.459-7.229-3.667-13.644-6.916-13.853C2420.224,1218.86,2410.544,1234.072,2426.759,1250.432Z" transform="translate(-2301.656 -1147.86)" fill="#060632"/>
        <path id="Trazado_24027" data-name="Trazado 24027" d="M2457.541,1358.651s-.806,7.844-1.692,9.327-4.654,6.225-6.26,7.155.98-6.247.654-7.644-1.322,2.549-2.029,2.641-.526-3.458-.551-4.75,3.443-4.483,4.666-7.234S2457.541,1358.651,2457.541,1358.651Z" transform="translate(-2319.635 -1229.847)" fill="#fc9290"/>
        <path id="Trazado_24028" data-name="Trazado 24028" d="M2403.152,1135.86s9.713,4.6,14.37,11.67c7.224,10.967,15.6,50.939,15.751,54.641s-6.112,29.834-6.112,29.834-6.355-.419-7.994-3.627c0,0,1.269-26.85.465-28.576s-26.495-36.017-23.606-43.334S2403.152,1135.86,2403.152,1135.86Z" transform="translate(-2288.866 -1098.613)" fill="#0b0754"/>
        <path id="Trazado_24029" data-name="Trazado 24029" d="M2137.872,1167.16l.511,4.585-5.534-1.243Z" transform="translate(-2132.85 -1117.185)" fill="#ed6966"/>
      </g>
      <path id="Trazado_24030" data-name="Trazado 24030" d="M2620.524,1663.254h-27.991c-1.5-1.273,1.038-4.162,3.69-4.356a16.369,16.369,0,0,1,4.272.506c.385-5.116,2.585-28.115,10.875-27.19,9.321,1.034,0,10.128-2.636,15.512a128.122,128.122,0,0,0-4.951,12.4c.756.164,1.54.325,2.34.472,1.236-3.793,5.833-16.554,11.678-15.81,6.864.87,4.1,5.986-.76,9.023-3.569,2.233-7.952,5.407-10.034,6.941a29.738,29.738,0,0,0,5.475.438C2617.276,1661.08,2619.617,1662.493,2620.524,1663.254Z" transform="translate(-1876.127 -1234.764)" fill="#3a49cd"/>
      <path id="Trazado_24031" data-name="Trazado 24031" d="M1069.369,1665.314c-1.483-2.33-5.948-8.378-11.894-7.577-6.478.872,7.155,5.143,11.329,7.595a6.9,6.9,0,0,1-2.309-.27c-2.791-.994-7.57.913-9.1,1.583h26.566a4.212,4.212,0,0,0-1.9-2.43,4.747,4.747,0,0,0-2.445-.218c1.58-1.862,2.677-7.811-1.721-6.28-3.212,1.119-3.2,4.753-2.888,6.9-.684.108-1.377.216-2.061.314-1.323-6.74-6-26.5-15.483-27.024-9.612-.534,8.151,20.489,14.066,27.212C1070.774,1665.214,1070.045,1665.283,1069.369,1665.314Z" transform="translate(-963.932 -1238.155)" fill="#3a49cd"/>
      <path id="Trazado_24032" data-name="Trazado 24032" d="M1663.895,1710.1H832.653a1.108,1.108,0,0,1-1.105-1.105h0a1.108,1.108,0,0,1,1.1-1.1h831.242A1.109,1.109,0,0,1,1665,1709h0A1.109,1.109,0,0,1,1663.895,1710.1Z" transform="translate(-831.548 -1279.683)" fill="#060632"/>
    </g>
  </g>
</svg>
