<svg xmlns="http://www.w3.org/2000/svg" width="186.968" height="158.766" viewBox="0 0 186.968 158.766">
  <g id="Grupo_29298" data-name="Grupo 29298" transform="translate(-230.362 1.243)">
    <g id="Grupo_29297" data-name="Grupo 29297">
      <g id="Grupo_29243" data-name="Grupo 29243">
        <g id="Grupo_29203" data-name="Grupo 29203">
          <path id="Trazado_23376" data-name="Trazado 23376" d="M277.5,76.375l.754,4.12,5.059-1.352-2.989-12.207a17.2,17.2,0,0,0-1.576-2.309c-.009-.01-.025-.019-.035-.03-.408-.349-3.9-1.423-5.65-2.121a5.677,5.677,0,0,1-.834-.389v-3.76H266.78v3.76c-.934.594-5.842,1.941-6.518,2.54-.27.236-1.361,1.753-1.361,1.753l-3.207,12.763,5.007,1.1.823-4.3a75.44,75.44,0,0,1-.016,7.762c-.441,4.9-1.193,10.31-1.193,10.31l18.722-.175s-.978-5.489-1.429-10.5C277.35,80.453,277.524,77.576,277.5,76.375Z" fill="#d4a47d"/>
          <path id="Trazado_23377" data-name="Trazado 23377" d="M273.065,62.476a7.933,7.933,0,0,1-.834.639,1.031,1.031,0,0,1-.213.1H270.2a13.061,13.061,0,0,1-2.294-1.858,10.816,10.816,0,0,1-1.129-2.706v-.329h5.451v3.76A5.677,5.677,0,0,0,273.065,62.476Z" fill="#a88f7b" opacity="0.3" style="mix-blend-mode: multiply;isolation: isolate"/>
          <g id="Grupo_29191" data-name="Grupo 29191">
            <path id="Trazado_23378" data-name="Trazado 23378" d="M282.959,79.166l.2,4.859-.119,9.988-2.443-.823-.85-9.218-1.205-4.261Z" fill="#ffc89f"/>
          </g>
          <g id="Grupo_29192" data-name="Grupo 29192">
            <path id="Trazado_23379" data-name="Trazado 23379" d="M281.246,96.226l-.031-.814s-.017-.054-.045-.152a1.579,1.579,0,0,0-.033-.362.751.751,0,0,0,.336-.15,4.511,4.511,0,0,0,.531-.584c.045-.05.082-.105.121-.157a.437.437,0,0,0,.123-.11c.164.207.319.417.471.633.039.062.086.127.129.191l-.291.449c-.02.564-.049,1.835-.049,1.835l-.6,1.177s-.191,1.063-.4,1.161c-.045.022-.158-.008-.264-.144a1,1,0,0,1-.207-.785c.078-.257.274-.872.274-.872Z" fill="#d4a47d"/>
          </g>
          <g id="Grupo_29193" data-name="Grupo 29193">
            <path id="Trazado_23380" data-name="Trazado 23380" d="M280.323,97.475c-.168.021-.366-.128-.4-.433-.031-.216-.068-.6-.068-.6h0l-.1-.9c.086-.157.668-2.438.668-2.438l.407-1.031,1.468.073c-.013.033.274,1.969-.252,2.319a9.557,9.557,0,0,0-1.4,1.392s0,.6.016.786C280.707,97.279,280.518,97.453,280.323,97.475Z" fill="#ffc89f"/>
          </g>
          <path id="Trazado_23381" data-name="Trazado 23381" d="M281.668,92.21l.487.331.613.55.941,2.712-.881,2.248s-1.169,1.194-1.173,1.2a.242.242,0,0,1-.342.048.245.245,0,0,1-.024-.348l1.069-1.91s.164-2.536-.766-2.195C281.032,95.039,281.684,92.245,281.668,92.21Z" fill="#ffc89f"/>
          <g id="Grupo_29196" data-name="Grupo 29196">
            <g id="Grupo_29194" data-name="Grupo 29194">
              <path id="Trazado_23382" data-name="Trazado 23382" d="M262.221,127.283a12.267,12.267,0,0,0-.215,2.632,4.678,4.678,0,0,0,1.094,1.974,2.583,2.583,0,0,0,2.312.014,6.38,6.38,0,0,0,1.969-2.41,10.007,10.007,0,0,0,.225-2.21Z" fill="#ccc"/>
              <path id="Trazado_23383" data-name="Trazado 23383" d="M262.289,126.644a12.17,12.17,0,0,0-.211,2.637,4.634,4.634,0,0,0,1.092,1.972,2.584,2.584,0,0,0,2.311.012,6.463,6.463,0,0,0,1.97-2.409,10.344,10.344,0,0,0,.225-2.212Z" fill="#1c1c1f"/>
              <path id="Trazado_23384" data-name="Trazado 23384" d="M260.539,93.569c.022.417.075.832.1,1.242.133,1.95.174,3.914.3,5.869.127,1.91.211,3.826.453,5.728.037.281.078.564.115.845l.174,2.7.008,1.231c-.037.147-.071.3-.1.442a17.359,17.359,0,0,0-.344,3.317,78.035,78.035,0,0,0,.108,8.165c.043.7.1,1.408.187,2.109.057.442.268,2.018.268,2.018s6.074.293,6.244.047a4.206,4.206,0,0,0,.3-1.745c.051-.724.084-1.441.086-2.165.006-1.509.146-3.008.16-4.516.016-1.462-.027-2.917-.059-4.374-.017-.721-.086-1.441-.123-2.156a10.376,10.376,0,0,0-.048-1.17l.05-.919.287-5c.248-1.544.372-8.065.764-9.71.158-.662.4-1.3.584-1.956Z" fill="#15202e"/>
            </g>
            <g id="Grupo_29195" data-name="Grupo 29195">
              <path id="Trazado_23385" data-name="Trazado 23385" d="M277.262,127.283a12.139,12.139,0,0,1,.215,2.632,4.672,4.672,0,0,1-1.09,1.974,2.592,2.592,0,0,1-2.316.014,6.376,6.376,0,0,1-1.967-2.41,10.5,10.5,0,0,1-.227-2.21Z" fill="#ccc"/>
              <path id="Trazado_23386" data-name="Trazado 23386" d="M277.194,126.644a12.3,12.3,0,0,1,.213,2.637,4.677,4.677,0,0,1-1.092,1.972,2.585,2.585,0,0,1-2.311.012,6.414,6.414,0,0,1-1.969-2.409,10.162,10.162,0,0,1-.224-2.212Z" fill="#1c1c1f"/>
            </g>
            <path id="Trazado_23387" data-name="Trazado 23387" d="M269.45,93.658c.085.287.183.575.273.863h-1.588v2.356H270.2c.248,2.534.368,7.1.573,8.358l.283,5,.053.919c-.059.387-.034.805-.053,1.17-.035.715-.1,1.435-.121,2.156-.029,1.457-.074,2.912-.061,4.374.014,1.508.155,3.007.16,4.516,0,.724.041,1.441.086,2.165a4.192,4.192,0,0,0,.3,1.745c.168.246,6.244-.047,6.244-.047s.209-1.576.26-2.018c.092-.7.148-1.4.2-2.109a77.488,77.488,0,0,0,.1-8.165,17.042,17.042,0,0,0-.342-3.317c-.033-.147-.066-.295-.1-.442l.009-1.231.172-2.7c.041-.281.08-.564.117-.845.241-1.9.323-3.818.454-5.728.128-1.955.169-3.919.3-5.869.026-.379.072-.765.094-1.153Z" fill="#15202e"/>
          </g>
          <g id="Grupo_29198" data-name="Grupo 29198">
            <path id="Trazado_23388" data-name="Trazado 23388" d="M269.508,49.087c-4.262,0-4.525,3.443-4.525,6.506a9.371,9.371,0,0,0,1.318,4.164,13.217,13.217,0,0,0,2.3,1.86h1.812a12.514,12.514,0,0,0,1.971-1.554,9.157,9.157,0,0,0,1.643-4.47C274.028,52.53,274.028,49.087,269.508,49.087Z" fill="#ffc89f"/>
            <path id="Trazado_23389" data-name="Trazado 23389" d="M271.557,49.41a7.489,7.489,0,0,0,.039,2.722,4.03,4.03,0,0,0-1.467-.059c-1.054.112-2.4.663-3.451.246-.045-.019-.082.027-.066.072.259.8,1.683.685,2.322.619a9.068,9.068,0,0,1,2.213-.078,1.662,1.662,0,0,1,.97.589c.038.066.075.126.114.194a4.956,4.956,0,0,1,.263,3.9c-.263.8-1.146,1.414-1.769,2.124a4.68,4.68,0,0,1-3.01,1.294,3.63,3.63,0,0,0,.887.585h1.812a12.514,12.514,0,0,0,1.971-1.554,9.157,9.157,0,0,0,1.643-4.47C274.028,53.09,274.028,50.33,271.557,49.41Z" fill="#f0b990"/>
            <g id="Grupo_29197" data-name="Grupo 29197">
              <path id="Trazado_23390" data-name="Trazado 23390" d="M265.573,55.688c.152.661-.02,1.262-.387,1.344s-.779-.382-.934-1.045.022-1.26.391-1.341S265.424,55.026,265.573,55.688Z" fill="#ffc89f"/>
              <path id="Trazado_23391" data-name="Trazado 23391" d="M273.442,55.688c-.151.661.025,1.262.388,1.344s.778-.382.93-1.045-.023-1.26-.387-1.341S273.59,55.026,273.442,55.688Z" fill="#f0b990"/>
            </g>
            <path id="Trazado_23392" data-name="Trazado 23392" d="M274.328,50.571c-.607-1.819-2.627-2.491-4.849-2.383-2.219-.108-4.237.564-4.842,2.383a13.515,13.515,0,0,0,.182,4.1c.115.414.507,2.371.646.958a13.793,13.793,0,0,1,.488-3.124,1.466,1.466,0,0,1,1.973-.662,4.082,4.082,0,0,0,3.111,0,1.464,1.464,0,0,1,1.971.662,13.4,13.4,0,0,1,.486,3.124c.141,1.413.53-.544.649-.958A13.613,13.613,0,0,0,274.328,50.571Z" fill="#3b2c23"/>
            <path id="Trazado_23393" data-name="Trazado 23393" d="M273.946,49.806c-.92-1.433-3.315-2.66-6.379-2.058a2.843,2.843,0,0,0-2.153,1.589,1.569,1.569,0,0,0,.375,2.846,3.8,3.8,0,0,1,.582.25,3.141,3.141,0,0,0,1.256.073,16.82,16.82,0,0,1,4.3-.256,3.783,3.783,0,0,1,2.379,1.362C274.35,53.665,274.662,50.921,273.946,49.806Z" fill="#3b2c23"/>
          </g>
          <g id="Grupo_29199" data-name="Grupo 29199">
            <path id="Trazado_23394" data-name="Trazado 23394" d="M255.893,79.166l-.2,4.859.127,9.988,2.439-.823.848-9.218,1.207-4.261Z" fill="#ffc89f"/>
          </g>
          <g id="Grupo_29200" data-name="Grupo 29200">
            <path id="Trazado_23395" data-name="Trazado 23395" d="M257.612,96.226l.029-.814s.019-.054.047-.152a1.989,1.989,0,0,1,.029-.362.767.767,0,0,1-.332-.15,4.534,4.534,0,0,1-.533-.584,1.414,1.414,0,0,1-.119-.157.494.494,0,0,1-.129-.11c-.154.207-.317.417-.465.633-.041.062-.086.127-.131.191l.293.449c.02.564.049,1.835.049,1.835l.6,1.177s.183,1.063.4,1.161c.041.022.156-.008.262-.144a1,1,0,0,0,.209-.785l-.278-.872Z" fill="#d4a47d"/>
          </g>
          <g id="Grupo_29201" data-name="Grupo 29201">
            <path id="Trazado_23396" data-name="Trazado 23396" d="M257.612,96.226l.029-.814s.019-.054.047-.152a1.989,1.989,0,0,1,.029-.362.767.767,0,0,1-.332-.15,4.534,4.534,0,0,1-.533-.584,1.414,1.414,0,0,1-.119-.157.494.494,0,0,1-.129-.11c-.154.207-.317.417-.465.633-.041.062-.086.127-.131.191l.293.449c.02.564.049,1.835.049,1.835l.6,1.177s.183,1.063.4,1.161c.041.022.156-.008.262-.144a1,1,0,0,0,.209-.785l-.278-.872Z" fill="#d4a47d"/>
          </g>
          <path id="Trazado_23397" data-name="Trazado 23397" d="M277.5,76.375l.754,4.12,5.059-1.352-2.989-12.207a17.2,17.2,0,0,0-1.576-2.309.283.283,0,0,0-.035-.03c-.406-.347-3.857-1.406-5.611-2.111-.069.108-1.237,2.359-2.908,2.6a3.727,3.727,0,0,1-2.6-.555,16.45,16.45,0,0,1-1.826-1.995c-1.762.663-4.975,1.609-5.51,2.088-.266.236-1.361,1.753-1.361,1.753l-3.207,12.763,5.007,1.1.823-4.3a75.44,75.44,0,0,1-.016,7.762c-.441,4.9-1.193,10.31-1.193,10.31l18.722-.175s-.978-5.489-1.429-10.5C277.35,80.453,277.524,77.579,277.5,76.375Z" fill="#14b0bf"/>
          <path id="Trazado_23398" data-name="Trazado 23398" d="M264.346,86.319a21.4,21.4,0,0,0-2.826-10.17,66.608,66.608,0,0,1-.008,7.52C262.44,84.614,263.407,85.509,264.346,86.319Z" fill="#2278ba"/>
          <path id="Trazado_23399" data-name="Trazado 23399" d="M277.492,77.4a2.93,2.93,0,0,0-.031,1.213,2.93,2.93,0,0,1,.031-1.213c.01-.41.016-.758.01-1.022l.078.453c.049-.409,0-.69-.386-.61-.8.091-1.241,1.507-1.418,2.57-.707,3.369-.8,6.736-3.367,9.13a11.666,11.666,0,0,1-3.807,2.74c-2.576.885-5.295,1.917-8.092,1.9-.119.907-.2,1.454-.2,1.454l18.722-.175s-.978-5.489-1.429-10.5A55.98,55.98,0,0,1,277.492,77.4Z" fill="#0b7885"/>
          <g id="Grupo_29202" data-name="Grupo 29202">
            <path id="Trazado_23400" data-name="Trazado 23400" d="M258.534,97.475c.169.021.367-.128.408-.433.025-.216.068-.6.068-.6h0l.1-.9c-.084-.157-.672-2.438-.672-2.438l-.4-1.031-1.472.073c.019.033-.278,1.969.25,2.319a9.488,9.488,0,0,1,1.408,1.392s0,.6-.016.786C258.147,97.279,258.338,97.453,258.534,97.475Z" fill="#ffc89f"/>
          </g>
          <path id="Trazado_23401" data-name="Trazado 23401" d="M257.188,92.21l-.483.331-.619.55-.939,2.712.881,2.248,1.168,1.2a.242.242,0,1,0,.379-.3l-1.077-1.91s-.164-2.536.768-2.195C257.826,95.039,257.174,92.245,257.188,92.21Z" fill="#ffc89f"/>
        </g>
        <g id="Grupo_29224" data-name="Grupo 29224">
          <path id="Trazado_23402" data-name="Trazado 23402" d="M283.057,105.713a13.876,13.876,0,0,1-6.217.207c-.553,2.113.414,4.851.213,7.837a52.07,52.07,0,0,0-.1,7.776c.086,1.061.188,2.091.293,3.094h0c.02.174.038.345.051.52.008.061.016.131.024.194h0c.492,4.532,1.031,8.171,1.039,9.071,0,.182-.135.945-.258,1.588a12.013,12.013,0,0,0,1.084,2.991l1.889-1.575a7.2,7.2,0,0,0,.248-1.857,3.278,3.278,0,0,1-.28-1.359c-.019-.987.528-4.5,1.036-8.859h0c.133-1.157.266-2.376.383-3.627a37.479,37.479,0,0,0-.054-7.666C282.09,110.957,283.643,107.956,283.057,105.713Z" fill="#ffc89f"/>
          <path id="Trazado_23403" data-name="Trazado 23403" d="M289.967,105.92a13.884,13.884,0,0,1-6.219-.207c-.588,2.243.965,5.244.649,8.335a37.985,37.985,0,0,0-.055,7.666c.1,1,.2,1.968.315,2.913h-.01c.535,4.69,1.14,8.532,1.121,9.573a3.2,3.2,0,0,1-.279,1.359,6.966,6.966,0,0,0,.25,1.857l1.89,1.575a12.108,12.108,0,0,0,1.08-2.991c-.121-.643-.256-1.406-.256-1.588,0-.948.61-4.923,1.112-9.785h0c.1-1,.2-2.033.3-3.094a51.934,51.934,0,0,0-.106-7.776C289.549,110.771,290.524,108.033,289.967,105.92Z" fill="#ffc89f"/>
          <path id="Trazado_23404" data-name="Trazado 23404" d="M288.992,63.674a5.38,5.38,0,0,0-5.47-5.241V68.914A5.378,5.378,0,0,0,288.992,63.674Z" fill="#7d4e24"/>
          <path id="Trazado_23405" data-name="Trazado 23405" d="M283.475,58.429a5.252,5.252,0,1,0,0,10.489c.012,0,.029,0,.047,0V58.433C283.5,58.433,283.487,58.429,283.475,58.429Z" fill="#7d4e24"/>
          <g id="Grupo_29206" data-name="Grupo 29206">
            <path id="Trazado_23406" data-name="Trazado 23406" d="M278.559,79.657c-.057.222-.111.437-.166.656A2.519,2.519,0,0,0,278.559,79.657Z" fill="#ffc89f"/>
            <path id="Trazado_23407" data-name="Trazado 23407" d="M277.534,81.213a1.866,1.866,0,0,0,.093-.317.284.284,0,0,1-.189.112C277.473,81.075,277.5,81.146,277.534,81.213Z" fill="#ffc89f"/>
            <path id="Trazado_23408" data-name="Trazado 23408" d="M278.53,72.754a4.931,4.931,0,0,0-3.471,1.149,4.661,4.661,0,0,0-1.139,1.4c-.015.032-.033.063-.051.1a8.118,8.118,0,0,0-.679,1.6,19.116,19.116,0,0,0-.487,3.34,16.453,16.453,0,0,0-.287,3.361c.006.624-.06,3.6-.138,4.157-.065.422-.116.848-.168,1.268a20.208,20.208,0,0,0-.723,2.844,4.778,4.778,0,0,0-.172,1.334c0,.2.166,7.007.166,7.007l1.885-.048,1.365-7.089a13.763,13.763,0,0,0,.592-2.392c0-.175.16-1.792.225-2.413A21.186,21.186,0,0,1,275.821,86c.152-.733.974-5.277,1.136-6.013l.078.458a.141.141,0,0,1,.141.029c.256-.469.529-.921.781-1.393.129-.331.244-.665.35-1a6.152,6.152,0,0,0-.371-.852.122.122,0,0,0-.033-.008,2.529,2.529,0,0,1-1.446-1.915,1.734,1.734,0,0,0-.306-.79.45.45,0,0,1-.035-.038,4.121,4.121,0,0,1,.835-.323,7.41,7.41,0,0,1,1.583-.173C279.246,73.948,279.211,72.835,278.53,72.754Z" fill="#ffc89f"/>
            <g id="Grupo_29204" data-name="Grupo 29204">
              <path id="Trazado_23409" data-name="Trazado 23409" d="M272.621,103.272l.071-.745.054-.142a1.574,1.574,0,0,1,.049-.335.613.613,0,0,1-.3-.154,4.6,4.6,0,0,1-.456-.574,1.165,1.165,0,0,1-.107-.148.43.43,0,0,1-.109-.108c-.159.183-.317.368-.469.561-.041.052-.082.111-.135.167l.254.433c-.016.523-.06,1.7-.06,1.7l.49,1.129s.109.988.3,1.093c.041.018.149,0,.25-.124a.9.9,0,0,0,.235-.717c-.059-.233-.209-.819-.209-.819Z" fill="#d4a47d"/>
            </g>
            <g id="Grupo_29205" data-name="Grupo 29205">
              <path id="Trazado_23410" data-name="Trazado 23410" d="M273.4,104.48c.162.028.349-.1.4-.369.037-.2.094-.556.094-.556h0l.138-.822c-.062-.153-.474-2.293-.474-2.293l-.315-.977-1.371-.011c.016.031-.365,1.8.106,2.157a9.11,9.11,0,0,1,1.224,1.367s-.037.555-.058.728C273.057,104.275,273.223,104.452,273.4,104.48Z" fill="#ffc89f"/>
            </g>
            <path id="Trazado_23411" data-name="Trazado 23411" d="M272.451,99.535l-.468.284-.6.471-1.025,2.455.691,2.13,1.014,1.177a.229.229,0,0,0,.316.058.232.232,0,0,0,.049-.318l-.887-1.832s-.01-2.345.83-1.985C272.881,102.193,272.436,99.571,272.451,99.535Z" fill="#ffc89f"/>
          </g>
          <g id="Grupo_29209" data-name="Grupo 29209">
            <path id="Trazado_23412" data-name="Trazado 23412" d="M295.9,91.965a22.2,22.2,0,0,0-.731-2.844c-.053-.42-.105-.846-.164-1.268-.084-.562-.144-3.533-.144-4.157a16.043,16.043,0,0,0-.286-3.361,19.023,19.023,0,0,0-.484-3.34,8.162,8.162,0,0,0-.676-1.6l-.058-.1a4.506,4.506,0,0,0-1.141-1.4,4.918,4.918,0,0,0-3.465-1.149c-.685.081-.713,1.194,0,1.23a7.331,7.331,0,0,1,1.576.173,4.145,4.145,0,0,1,.838.323.191.191,0,0,1-.037.038,1.78,1.78,0,0,0-.306.79,2.531,2.531,0,0,1-1.448,1.915.332.332,0,0,0-.035.008,6.794,6.794,0,0,0-.582,1.6c-.24,1.094,1.565,1.154,1.565,1.156.16.736.988,5.28,1.138,6.013a22.433,22.433,0,0,1,.377,2.363c.065.621.217,2.238.217,2.413a13.263,13.263,0,0,0,.594,2.392l1.363,7.089,1.893.048s.158-6.8.158-7.007A5,5,0,0,0,295.9,91.965Z" fill="#ffc89f"/>
            <g id="Grupo_29207" data-name="Grupo 29207">
              <path id="Trazado_23413" data-name="Trazado 23413" d="M294.664,103.272l-.078-.745a1.318,1.318,0,0,0-.049-.142,1.768,1.768,0,0,0-.045-.335.605.605,0,0,0,.3-.154,4.368,4.368,0,0,0,.459-.574,1.168,1.168,0,0,0,.108-.148.439.439,0,0,0,.111-.108c.156.183.313.368.461.561.049.052.088.111.137.167l-.248.433c.015.523.054,1.7.054,1.7l-.49,1.129s-.1.988-.3,1.093c-.037.018-.148,0-.25-.124a.911.911,0,0,1-.232-.717c.057-.233.207-.819.207-.819Z" fill="#d4a47d"/>
            </g>
            <g id="Grupo_29208" data-name="Grupo 29208">
              <path id="Trazado_23414" data-name="Trazado 23414" d="M293.879,104.48c-.15.028-.345-.1-.4-.369-.039-.2-.1-.556-.1-.556h0l-.139-.822c.063-.153.485-2.293.485-2.293l.312-.977,1.362-.011c-.012.031.365,1.8-.1,2.157a9.327,9.327,0,0,0-1.223,1.367s.03.555.057.728C294.223,104.275,294.059,104.452,293.879,104.48Z" fill="#ffc89f"/>
            </g>
            <path id="Trazado_23415" data-name="Trazado 23415" d="M294.832,99.535l.465.284.606.471,1.019,2.455-.691,2.13s-1.014,1.173-1.02,1.177a.221.221,0,0,1-.31.058.227.227,0,0,1-.049-.318l.887-1.832s0-2.345-.827-1.985C294.4,102.193,294.846,99.571,294.832,99.535Z" fill="#ffc89f"/>
          </g>
          <g id="Grupo_29222" data-name="Grupo 29222">
            <g id="Grupo_29215" data-name="Grupo 29215">
              <g id="Grupo_29214" data-name="Grupo 29214">
                <g id="Grupo_29211" data-name="Grupo 29211">
                  <g id="Grupo_29210" data-name="Grupo 29210">
                    <path id="Trazado_23416" data-name="Trazado 23416" d="M284.657,139.581l.035.582,1.258.982,1.65.064s1.072-.653,1.42-.949l.037-.423-.281-1.345Z" fill="#e4e8ed"/>
                  </g>
                </g>
                <g id="Grupo_29213" data-name="Grupo 29213">
                  <g id="Grupo_29212" data-name="Grupo 29212">
                    <path id="Trazado_23417" data-name="Trazado 23417" d="M288.637,136.361c-.637-.755-1.289.415-1.969.232-.373-.1-.81-.593-1.1-.394a1.192,1.192,0,0,0-.332.639l-.576,2.743s1.089.91,1.1.91,1.67.087,1.67.087,1.4-.574,1.631-.741l-.115-2.889Z" fill="#ff4140"/>
                  </g>
                </g>
              </g>
              <path id="Trazado_23418" data-name="Trazado 23418" d="M288.244,137.864a1.4,1.4,0,0,1-1.252,1.522h0a1.4,1.4,0,0,1-1.253-1.522v-.77a1.4,1.4,0,0,1,1.253-1.521h0a1.4,1.4,0,0,1,1.252,1.521Z" fill="#cc2221"/>
              <path id="Trazado_23419" data-name="Trazado 23419" d="M288.715,135.266c-.389-.152-.822.352-1.035.6a2.932,2.932,0,0,0-.5.758,3.529,3.529,0,0,0-.5-.683c-.291-.331-.756-.808-1.236-.79-.575.014-.512.8-.4,1.179a1.2,1.2,0,0,0,.668.7,4.073,4.073,0,0,0,1.448.366.156.156,0,0,0,.148-.087,2,2,0,0,0,1.483-.82C289.026,136.179,289.207,135.457,288.715,135.266Zm-3.39,1.022c-.127-.284-.172-.992.308-.808a3.417,3.417,0,0,1,1.438,1.6,5.523,5.523,0,0,1-1.016-.229A1.026,1.026,0,0,1,285.325,136.288Zm3.279.062a1.566,1.566,0,0,1-1.3.664V137a2.759,2.759,0,0,1,1.16-1.5.223.223,0,0,1,.323.137A.777.777,0,0,1,288.6,136.35Z" fill="#e4e8ed"/>
            </g>
            <g id="Grupo_29221" data-name="Grupo 29221">
              <g id="Grupo_29220" data-name="Grupo 29220">
                <g id="Grupo_29217" data-name="Grupo 29217">
                  <g id="Grupo_29216" data-name="Grupo 29216">
                    <path id="Trazado_23420" data-name="Trazado 23420" d="M282.153,139.581l-.037.582-1.266.982-1.643.064s-1.072-.653-1.42-.949l-.035-.423.28-1.345Z" fill="#e4e8ed"/>
                  </g>
                </g>
                <g id="Grupo_29219" data-name="Grupo 29219">
                  <g id="Grupo_29218" data-name="Grupo 29218">
                    <path id="Trazado_23421" data-name="Trazado 23421" d="M278.172,136.361c.637-.755,1.289.415,1.959.232.381-.1.819-.593,1.113-.394a1.2,1.2,0,0,1,.329.639l.58,2.743s-1.094.91-1.106.91-1.662.087-1.662.087-1.4-.574-1.633-.741l.108-2.889Z" fill="#ff4140"/>
                  </g>
                </g>
              </g>
              <path id="Trazado_23422" data-name="Trazado 23422" d="M278.559,137.864a1.4,1.4,0,0,0,1.254,1.522h0a1.408,1.408,0,0,0,1.258-1.522v-.77a1.409,1.409,0,0,0-1.258-1.521h0a1.4,1.4,0,0,0-1.254,1.521Z" fill="#cc2221"/>
              <path id="Trazado_23423" data-name="Trazado 23423" d="M278.02,136.493a2.014,2.014,0,0,0,1.482.82.167.167,0,0,0,.155.087,4.127,4.127,0,0,0,1.449-.366,1.2,1.2,0,0,0,.662-.7c.107-.375.164-1.165-.4-1.179-.482-.018-.947.459-1.238.79a3.294,3.294,0,0,0-.5.683,2.983,2.983,0,0,0-.5-.758c-.217-.251-.648-.755-1.037-.6C277.6,135.457,277.78,136.179,278.02,136.493Zm2.734.354a5.5,5.5,0,0,1-1.019.229,3.383,3.383,0,0,1,1.439-1.6c.481-.184.434.524.307.808A1.015,1.015,0,0,1,280.754,136.847Zm-2.734-1.21a.226.226,0,0,1,.326-.137A2.752,2.752,0,0,1,279.5,137v.012a1.551,1.551,0,0,1-1.3-.664A.78.78,0,0,1,278.02,135.637Z" fill="#e4e8ed"/>
            </g>
          </g>
          <path id="Trazado_23424" data-name="Trazado 23424" d="M288.893,64.248h-2.684l.051-.32-8.205.32c-2.7,13.954.361,14.124,4.537,14.124.125,0,1.266-.017,1.391-.022s.242.022.373.022C288.526,78.372,291.6,78.2,288.893,64.248Z" fill="#3b2c23"/>
          <path id="Trazado_23425" data-name="Trazado 23425" d="M285.881,71.332c.041.249.082.514.137.8h-5.092c.059-.284.1-.549.139-.8a9.654,9.654,0,0,0,.109-1.428v-.033a11.8,11.8,0,0,0-.248-2.105h5.092c-.086.444-.145.831-.184,1.2A8.432,8.432,0,0,0,285.881,71.332Z" fill="#d4a47d"/>
          <path id="Trazado_23426" data-name="Trazado 23426" d="M289.008,73.475c0,1.316-2.48,2.385-5.533,2.385s-5.539-1.069-5.539-2.385c0-.941,1.283-1.757,3.129-2.143a11.2,11.2,0,0,1,1.515-.207c.287-.019.584-.027.9-.027a11.953,11.953,0,0,1,2.406.234,8.442,8.442,0,0,1,1.217.344h0C288.268,72.11,289.008,72.758,289.008,73.475Z" fill="#d4a47d"/>
          <path id="Trazado_23427" data-name="Trazado 23427" d="M287.123,74.115c-.547.045-1.974-.947-3.3-1.985-.44-.339-.866-.691-1.243-1-.728-.607-1.279-1.094-1.406-1.221-.017-.016-.027-.025-.027-.028a.107.107,0,0,0,.027,0c.326-.074,3.615-.823,4.66-.908a8.432,8.432,0,0,0,.047,2.369,8.442,8.442,0,0,1,1.217.344h0C287.459,72.89,287.67,74.069,287.123,74.115Z" fill="#a88f7b" opacity="0.3" style="mix-blend-mode: multiply;isolation: isolate"/>
          <path id="Trazado_23428" data-name="Trazado 23428" d="M287.2,65.868c0,2.687-1.668,4.866-3.73,4.866s-3.74-2.179-3.74-4.866.22-5.7,3.74-5.7C287.2,60.164,287.2,63.182,287.2,65.868Z" fill="#ffc89f"/>
          <path id="Trazado_23429" data-name="Trazado 23429" d="M283.475,60.164a3.867,3.867,0,0,0-1.975.457,3.626,3.626,0,0,0,1.569,2.98c1.007.621,2.015.883,2.683,1.865a2.54,2.54,0,0,1-.172,2.759.322.322,0,0,1-.025.036,3.973,3.973,0,0,1-1.234,1.572,2.845,2.845,0,0,1-2.946.009.52.52,0,0,0-.093-.038,3.187,3.187,0,0,0,2.193.93c2.062,0,3.73-2.179,3.73-4.866S287.2,60.164,283.475,60.164Z" fill="#f0b990"/>
          <g id="Grupo_29223" data-name="Grupo 29223">
            <path id="Trazado_23430" data-name="Trazado 23430" d="M280.145,65.319c.127.563-.026,1.07-.332,1.146s-.666-.33-.793-.89.017-1.068.332-1.136S280.016,64.764,280.145,65.319Z" fill="#ffc89f"/>
          </g>
          <path id="Trazado_23431" data-name="Trazado 23431" d="M283.762,59.553c-1.787,1.816-2.859,1.949-1.719,2.609a16.4,16.4,0,0,1,5.186,3.758c.236.281.633-3.464-.379-5.058S284.262,59.045,283.762,59.553Z" fill="#7d4e24"/>
          <path id="Trazado_23432" data-name="Trazado 23432" d="M291.356,93.179h.006c-.647-2.908-2.069-4.709-1.971-7.764a15.443,15.443,0,0,1,.353-3.781,1.817,1.817,0,0,1,.411-.634s1.341-5.632,1.134-7.525c-.144-1.325-4.439-1.957-4.439-1.957s-.086,2.8-.756,3.407a4.462,4.462,0,0,1-4.955,0c-.67-.609-.756-3.407-.756-3.407s-4.289.632-4.435,1.957c-.2,1.893,1.134,7.525,1.134,7.525a1.776,1.776,0,0,1,.41.634,15.148,15.148,0,0,1,.346,3.781c.106,3.055-1.318,4.856-1.961,7.764h0c-1.939,5.067-.326,20.62-.392,22.58h16.259C291.68,113.8,293.291,98.246,291.356,93.179Z" fill="#ff4140"/>
          <path id="Trazado_23433" data-name="Trazado 23433" d="M291.356,93.179h.006c-.647-2.908-2.069-4.709-1.971-7.764a15.443,15.443,0,0,1,.353-3.781,1.817,1.817,0,0,1,.411-.634s1.341-5.632,1.134-7.525c-.037-.345-.363-.648-.82-.9-.158,3.154-.369,6.349-1.82,9.166-.8,1.6-2.848,1.424-4.539,1.87-.623.176-2.61.306-2.166.573,1.158.891,3.056-.042,4.213,1.12,4.537,4.712,3.2,17.883,1.427,23.578a6.724,6.724,0,0,1-4.187,4.177c-2.528,1.06-5.285.779-8.043.528.094.992.146,1.755.135,2.171h16.259C291.68,113.8,293.291,98.246,291.356,93.179Z" fill="#cc2221"/>
          <path id="Trazado_23434" data-name="Trazado 23434" d="M283.9,60.775c-.047-.576-.7-.789-1.141-1.013a3.208,3.208,0,0,0-1.334-.3,2.9,2.9,0,0,0-1.945.636,6.707,6.707,0,0,0-1.668,3.368,27.676,27.676,0,0,0-.955,6.014,12.515,12.515,0,0,1-.174,1.487,9.065,9.065,0,0,0-.2,1.447,7.071,7.071,0,0,0,.041.947,5.956,5.956,0,0,0,.017.984,6.984,6.984,0,0,0,.42,1.862c.528,1.347,1.858,1.65,3.065,2.119.326.131,1.109-.535,1.066-.772-.1-.522-.3-1.019-.416-1.534-.131-.566-.244-1.138-.359-1.713-.207-1.144-.354-2.3-.5-3.449a15.625,15.625,0,0,1-.156-3.456,7.517,7.517,0,0,1,.371-1.68c.091-.254.183-.5.285-.757.023-.045.041-.1.066-.147.012.047.03.089.041.132a.271.271,0,0,0,.459.058c.467-.658.518-1.489,1.039-2.117a5.643,5.643,0,0,1,1.25-1.2.623.623,0,0,0,.207-.066c.014-.007.041-.023.063-.032a.909.909,0,0,0,.127-.08c.017-.009.041-.015.066-.025a.151.151,0,0,0,.117-.162A.813.813,0,0,0,283.9,60.775Z" fill="#7d4e24"/>
          <path id="Trazado_23435" data-name="Trazado 23435" d="M290.469,72.412a9.293,9.293,0,0,0-.2-1.447,11.743,11.743,0,0,1-.178-1.487,27.194,27.194,0,0,0-.951-6.014,6.663,6.663,0,0,0-1.676-3.368,2.88,2.88,0,0,0-1.939-.636,3.249,3.249,0,0,0-1.34.3c-.44.224-1.094.437-1.129,1.013a.608.608,0,0,0,0,.172c.094.066.187.137.281.2a6.857,6.857,0,0,0,.94.547,7.308,7.308,0,0,1,1.935,1.329,3.319,3.319,0,0,1,.936,1.7c.07.431.109,2.279.138,2.677a15.5,15.5,0,0,1-.152,3.456c-.147,1.153-.3,2.305-.508,3.449-.109.575-.224,1.147-.355,1.713-.116.515-.319,1.012-.414,1.534-.045.237.738.9,1.066.772,1.207-.469,2.539-.772,3.063-2.119a6.756,6.756,0,0,0,.418-1.862,6.174,6.174,0,0,0,.023-.984A7.058,7.058,0,0,0,290.469,72.412Z" fill="#7d4e24"/>
        </g>
        <g id="Grupo_29239" data-name="Grupo 29239">
          <g id="Grupo_29238" data-name="Grupo 29238">
            <g id="Grupo_29237" data-name="Grupo 29237">
              <g id="Grupo_29225" data-name="Grupo 29225">
                <path id="Trazado_23436" data-name="Trazado 23436" d="M268.606,85.648l.2,4.886-.125,10.032-2.455-.831-.844-9.255L264.168,86.2Z" fill="#ffc89f"/>
              </g>
              <g id="Grupo_29226" data-name="Grupo 29226">
                <path id="Trazado_23437" data-name="Trazado 23437" d="M266.881,102.781l-.029-.809s-.018-.064-.047-.156a2.287,2.287,0,0,0-.031-.37.7.7,0,0,0,.338-.144,5.288,5.288,0,0,0,.531-.592,1.539,1.539,0,0,0,.121-.151.62.62,0,0,0,.129-.114c.156.205.316.417.469.635.043.061.084.128.129.189l-.3.453c-.018.569-.043,1.84-.043,1.84l-.6,1.189s-.185,1.066-.4,1.159c-.045.022-.158-.006-.264-.139a.99.99,0,0,1-.209-.793c.084-.257.279-.867.279-.867Z" fill="#d4a47d"/>
              </g>
              <g id="Grupo_29227" data-name="Grupo 29227">
                <path id="Trazado_23438" data-name="Trazado 23438" d="M265.955,104.039c-.166.018-.371-.132-.408-.436-.027-.221-.066-.6-.066-.6h0l-.1-.9c.078-.159.668-2.447.668-2.447l.4-1.036,1.483.075c-.018.034.271,1.976-.256,2.325a9.929,9.929,0,0,0-1.41,1.4s0,.6.019.791C266.342,103.84,266.151,104.015,265.955,104.039Z" fill="#ffc89f"/>
              </g>
              <path id="Trazado_23439" data-name="Trazado 23439" d="M267.3,98.75l.488.334.617.552.946,2.721-.883,2.252s-1.17,1.208-1.176,1.208a.239.239,0,0,1-.346.044.245.245,0,0,1-.031-.344S268,103.6,268,103.6s.162-2.543-.765-2.206C266.666,101.593,267.323,98.79,267.3,98.75Z" fill="#ffc89f"/>
              <g id="Grupo_29230" data-name="Grupo 29230">
                <g id="Grupo_29228" data-name="Grupo 29228">
                  <path id="Trazado_23440" data-name="Trazado 23440" d="M247.582,133.968a12.068,12.068,0,0,0-.218,2.643,4.628,4.628,0,0,0,1.1,1.979,2.585,2.585,0,0,0,2.319.015,6.468,6.468,0,0,0,1.976-2.422,10.253,10.253,0,0,0,.227-2.215Z" fill="#ccc"/>
                  <path id="Trazado_23441" data-name="Trazado 23441" d="M247.655,133.331a11.615,11.615,0,0,0-.217,2.638,4.6,4.6,0,0,0,1.092,1.983,2.589,2.589,0,0,0,2.322.013,6.478,6.478,0,0,0,1.98-2.419,10.243,10.243,0,0,0,.223-2.215Z" fill="#1a222b"/>
                  <path id="Trazado_23442" data-name="Trazado 23442" d="M246.1,100.115c.023.416.072.837.1,1.247.134,1.962.175,3.926.308,5.891.131,1.922.207,3.843.451,5.756.033.279.075.56.121.844l.17,2.709.012,1.24c-.043.148-.074.3-.113.447a17.084,17.084,0,0,0-.334,3.325,77.061,77.061,0,0,0,.1,8.2c.053.709.108,1.414.2,2.121.054.438.263,2.023.263,2.023s6.1.3,6.272.051a4.234,4.234,0,0,0,.3-1.754c.05-.735.082-1.446.086-2.176.005-1.513.148-3.021.162-4.533.013-1.461-.032-2.932-.067-4.395-.011-.719-.082-1.443-.119-2.167a10.917,10.917,0,0,0-.047-1.168l.047-.923.289-5.022c.252-1.553.371-8.1.77-9.748.158-.669.4-1.31.586-1.967Z" fill="#17283d"/>
                </g>
                <g id="Grupo_29229" data-name="Grupo 29229">
                  <path id="Trazado_23443" data-name="Trazado 23443" d="M263.092,133.968a12.25,12.25,0,0,1,.211,2.643,4.594,4.594,0,0,1-1.092,1.979,2.6,2.6,0,0,1-2.324.015,6.41,6.41,0,0,1-1.975-2.422,10.09,10.09,0,0,1-.224-2.215Z" fill="#ccc"/>
                  <path id="Trazado_23444" data-name="Trazado 23444" d="M263.018,133.331a11.909,11.909,0,0,1,.219,2.638,4.637,4.637,0,0,1-1.1,1.983,2.6,2.6,0,0,1-2.326.013,6.491,6.491,0,0,1-1.973-2.419,10.157,10.157,0,0,1-.226-2.215Z" fill="#1a222b"/>
                  <path id="Trazado_23445" data-name="Trazado 23445" d="M255.045,100.206c.186.625.41,1.238.563,1.876.392,1.647.517,8.195.773,9.748l.281,5.022.051.923c-.054.387-.033.812-.051,1.168-.031.724-.1,1.448-.119,2.167-.033,1.463-.074,2.934-.064,4.395.015,1.512.156,3.02.162,4.533,0,.73.039,1.441.084,2.176a4.268,4.268,0,0,0,.3,1.754c.17.247,6.273-.051,6.273-.051s.205-1.585.264-2.023c.09-.707.148-1.412.191-2.121a77.6,77.6,0,0,0,.1-8.2,17.091,17.091,0,0,0-.342-3.325c-.035-.151-.068-.3-.108-.447l.008-1.24.172-2.709c.045-.284.084-.565.125-.844.24-1.913.32-3.834.447-5.756.131-1.965.178-3.929.313-5.891.017-.381.07-.768.1-1.156Z" fill="#17283d"/>
                </g>
                <rect id="Rectángulo_4416" data-name="Rectángulo 4416" width="5.254" height="2.369" transform="translate(252.987 101.069)" fill="#17283d"/>
              </g>
              <rect id="Rectángulo_4417" data-name="Rectángulo 4417" width="5.469" height="4.816" transform="translate(252.362 64.237)" fill="#d4a47d"/>
              <path id="Trazado_23446" data-name="Trazado 23446" d="M258.737,68.963l-3.08,5.012-6.5-3.529,2.221-1.44.984-.376V67.388h5.469v1.25Z" fill="#d4a47d"/>
              <g id="Grupo_29232" data-name="Grupo 29232">
                <path id="Trazado_23447" data-name="Trazado 23447" d="M255.1,54.969c-4.275,0-4.543,3.452-4.543,6.533a9.416,9.416,0,0,0,1.324,4.177,12.889,12.889,0,0,0,2.311,1.864H256a12.648,12.648,0,0,0,1.981-1.559,9.187,9.187,0,0,0,1.65-4.482C259.635,58.421,259.635,54.969,255.1,54.969Z" fill="#ffc89f"/>
                <g id="Grupo_29231" data-name="Grupo 29231">
                  <path id="Trazado_23448" data-name="Trazado 23448" d="M251.477,62.445c.146.659-.024,1.263-.393,1.348s-.785-.382-.939-1.053.027-1.262.39-1.349S251.323,61.78,251.477,62.445Z" fill="#ffc89f"/>
                  <path id="Trazado_23449" data-name="Trazado 23449" d="M258.682,62.445c-.148.659.023,1.263.391,1.348s.785-.382.935-1.053-.025-1.262-.392-1.349S258.83,61.78,258.682,62.445Z" fill="#ffc89f"/>
                </g>
              </g>
              <g id="Grupo_29233" data-name="Grupo 29233">
                <path id="Trazado_23450" data-name="Trazado 23450" d="M241.426,85.648l-.2,4.886.123,10.032,2.453-.831.848-9.255,1.217-4.278Z" fill="#ffc89f"/>
              </g>
              <g id="Grupo_29234" data-name="Grupo 29234">
                <path id="Trazado_23451" data-name="Trazado 23451" d="M243.153,102.781l.029-.809s.018-.064.047-.156a1.767,1.767,0,0,1,.031-.37.693.693,0,0,1-.338-.144,5.1,5.1,0,0,1-.531-.592,1.585,1.585,0,0,1-.125-.151.7.7,0,0,1-.123-.114q-.24.308-.475.635c-.039.061-.08.128-.127.189l.3.453c.02.569.045,1.84.045,1.84l.606,1.189s.185,1.066.4,1.159c.049.022.158-.006.268-.139a1.038,1.038,0,0,0,.211-.793c-.086-.257-.282-.867-.282-.867Z" fill="#d4a47d"/>
              </g>
              <g id="Grupo_29235" data-name="Grupo 29235">
                <path id="Trazado_23452" data-name="Trazado 23452" d="M244.073,104.039c.177.018.373-.132.414-.436.027-.221.068-.6.068-.6h0l.1-.9c-.08-.159-.672-2.447-.672-2.447l-.4-1.036-1.48.075c.017.034-.275,1.976.25,2.325a9.98,9.98,0,0,1,1.412,1.4s0,.6-.014.791C243.69,103.84,243.881,104.015,244.073,104.039Z" fill="#ffc89f"/>
              </g>
              <path id="Trazado_23453" data-name="Trazado 23453" d="M242.727,98.75l-.49.334-.616.552-.947,2.721.889,2.252,1.174,1.208a.238.238,0,0,0,.345.044.242.242,0,0,0,.03-.344s-1.075-1.919-1.075-1.919-.168-2.543.766-2.206C243.369,101.593,242.711,98.79,242.727,98.75Z" fill="#ffc89f"/>
              <g id="Grupo_29236" data-name="Grupo 29236">
                <path id="Trazado_23454" data-name="Trazado 23454" d="M263.151,82.9l.758,4.142,5.082-1.362-3-12.255a17.873,17.873,0,0,0-1.58-2.316.179.179,0,0,0-.038-.032c-.41-.352-3.875-1.411-5.634-2.115-.073.105-1.241,2.362-2.924,2.607a3.745,3.745,0,0,1-2.6-.555,15.837,15.837,0,0,1-1.832-2.009c-1.777.671-4.994,1.622-5.533,2.1-.269.234-1.361,1.754-1.361,1.754l-3.227,12.817,5.028,1.1.824-4.313a75.084,75.084,0,0,1-.014,7.8c-.439,4.915-1.2,10.355-1.2,10.355l18.8-.182s-.987-5.51-1.438-10.545C263,87,263.18,84.1,263.151,82.9Z" fill="#fff"/>
                <path id="Trazado_23455" data-name="Trazado 23455" d="M249.942,92.887a21.577,21.577,0,0,0-2.836-10.213,66.911,66.911,0,0,1-.012,7.552C248.032,91.175,249,92.074,249.942,92.887Z" fill="#e4e8ed"/>
                <path id="Trazado_23456" data-name="Trazado 23456" d="M263.143,83.93a3.091,3.091,0,0,0-.039,1.218,3.091,3.091,0,0,1,.039-1.218c.01-.412.014-.76.008-1.029l.078.455c.049-.408,0-.688-.387-.613-.8.092-1.246,1.513-1.428,2.583-.707,3.378-.8,6.762-3.377,9.163a11.647,11.647,0,0,1-3.83,2.755c-2.58.889-5.306,1.925-8.119,1.909-.115.912-.191,1.465-.191,1.465l18.8-.182s-.987-5.51-1.438-10.545A55.963,55.963,0,0,1,263.143,83.93Z" fill="#e4e8ed"/>
              </g>
            </g>
          </g>
          <path id="Trazado_23457" data-name="Trazado 23457" d="M259.873,57.692a3.091,3.091,0,0,0-.125-.437,1.029,1.029,0,0,0-.279-.323.264.264,0,0,1-.033-.022,1.328,1.328,0,0,1-.168-.245c-.059-.127-.109-.254-.154-.375a1.227,1.227,0,0,0-.555-.713,8.166,8.166,0,0,0-2.324-.85,4.131,4.131,0,0,0-1.721-.216c-.594.047-1.957.263-2.117,1.009a1.736,1.736,0,0,0-1.293.681,7.341,7.341,0,0,0-.713,1.054,2.5,2.5,0,0,0-.129.437,20.647,20.647,0,0,0,.137,3.478c.115.421.3.255.492.649.2.348.383,1.185.48.951.018-.346-.146-1.805-.14-2.143,0-.008-.242-1.071-.293-1.376a3.078,3.078,0,0,1,.178-1.411,2.862,2.862,0,0,1,2.384-1.557,5.555,5.555,0,0,1,1.414.638,4.087,4.087,0,0,0,1.977.373c.4.093.816.129,1.221.2a1.468,1.468,0,0,1,.875.269.9.9,0,0,1,.207.365c.015.075.029.157.043.232a6.049,6.049,0,0,1-.286,1.726c-.128.61-.587,3.014-.21,3.537,0,.005.519-2.021.527-2.016.016.065.494-.078.609-.5A22.741,22.741,0,0,0,259.873,57.692Z" fill="#3b2c23"/>
        </g>
        <path id="Trazado_23458" data-name="Trazado 23458" d="M268.789,105.153a38.424,38.424,0,1,1,38.422-38.425A38.47,38.47,0,0,1,268.789,105.153Zm0-73.566A35.143,35.143,0,1,0,303.93,66.728,35.184,35.184,0,0,0,268.789,31.587Z" fill="#743fb2"/>
        <path id="Trazado_23459" data-name="Trazado 23459" d="M268.789,39.014A27.715,27.715,0,1,0,296.5,66.728,27.746,27.746,0,0,0,268.789,39.014ZM270.428,92.2V88.7h-3.279V92.2A25.557,25.557,0,0,1,243.33,68.524h3.639V65.243h-3.662A25.557,25.557,0,0,1,267.149,41.26v3.806h3.279V41.26a25.554,25.554,0,0,1,23.838,23.983H290.6v3.281h3.639A25.555,25.555,0,0,1,270.428,92.2Z" fill="#9179b7"/>
        <g id="Grupo_29241" data-name="Grupo 29241">
          <g id="Grupo_29240" data-name="Grupo 29240">
            <path id="Trazado_23460" data-name="Trazado 23460" d="M282.418,59.441c-.086-.031-.17-.059-.254-.084a14.454,14.454,0,0,1,2.946,2.778,11.544,11.544,0,0,0-.614-1.5,7.1,7.1,0,0,1,1.375,1.1,6.078,6.078,0,0,0-2.457-2.68q.617.642,1.239,1.287c-.383-.24-.764-.482-1.149-.721q.326.413.641.826A5.451,5.451,0,0,0,282.418,59.441Z" fill="#7d4e24"/>
          </g>
        </g>
        <g id="Grupo_29242" data-name="Grupo 29242">
          <path id="Trazado_23461" data-name="Trazado 23461" d="M269.682,49.584c-.082-.033-.168-.059-.252-.086a14.354,14.354,0,0,1,2.945,2.779,12.3,12.3,0,0,0-.611-1.5,7.307,7.307,0,0,1,1.373,1.1,6.078,6.078,0,0,0-2.459-2.678q.621.641,1.24,1.284c-.381-.239-.761-.48-1.144-.719l.64.827A5.39,5.39,0,0,0,269.682,49.584Z" fill="#59493e"/>
        </g>
      </g>
      <g id="Grupo_29247" data-name="Grupo 29247">
        <g id="Grupo_29246" data-name="Grupo 29246">
          <path id="Trazado_23462" data-name="Trazado 23462" d="M347.225,58.888a2.847,2.847,0,0,0-2.906-2.759l-9.4.015-9.4.014a2.842,2.842,0,0,0-2.895,2.766l.065,38.935a2.836,2.836,0,0,0,2.9,2.757l9.395-.012,9.406-.017a2.837,2.837,0,0,0,2.891-2.767Z" fill="#1a222b"/>
          <path id="Trazado_23463" data-name="Trazado 23463" d="M343.883,58.888a2.846,2.846,0,0,0-2.9-2.759l-9.4.015-9.4.014a2.841,2.841,0,0,0-2.894,2.766l.062,38.935a2.838,2.838,0,0,0,2.9,2.757l9.4-.012,9.4-.017a2.843,2.843,0,0,0,2.895-2.767Z" fill="#2c3540"/>
          <path id="Trazado_23464" data-name="Trazado 23464" d="M342.725,61.656a1.139,1.139,0,0,0-1.158-1.109l-9.981.016-9.984.017a1.139,1.139,0,0,0-1.16,1.108l.052,30.95a1.14,1.14,0,0,0,1.161,1.1l9.978-.017,9.983-.014a1.135,1.135,0,0,0,1.158-1.107Z" fill="#f2f6fa"/>
          <g id="Grupo_29245" data-name="Grupo 29245">
            <path id="Trazado_23465" data-name="Trazado 23465" d="M334.975,62.191H321.44V92h20.266V62.191Z" fill="#fff"/>
            <rect id="Rectángulo_4418" data-name="Rectángulo 4418" width="17.611" height="2.496" transform="translate(322.858 87.195)" fill="#2d4375"/>
            <rect id="Rectángulo_4419" data-name="Rectángulo 4419" width="4.478" height="14.413" transform="translate(322.858 71.181)" fill="#ff4140"/>
            <rect id="Rectángulo_4420" data-name="Rectángulo 4420" width="4.478" height="18.474" transform="translate(329.1 67.121)" fill="#f4cd25"/>
            <rect id="Rectángulo_4421" data-name="Rectángulo 4421" width="4.48" height="12.156" transform="translate(335.989 73.439)" fill="#14b0bf"/>
            <g id="Grupo_29244" data-name="Grupo 29244">
              <path id="Trazado_23466" data-name="Trazado 23466" d="M333.881,62.191H321.44v2.348h20.266V62.191Z" fill="#17283d"/>
              <rect id="Rectángulo_4422" data-name="Rectángulo 4422" width="1.182" height="1.107" transform="translate(339.614 62.811)" fill="#fff"/>
              <rect id="Rectángulo_4423" data-name="Rectángulo 4423" width="1.186" height="1.107" transform="translate(337.127 62.811)" fill="#fff"/>
            </g>
          </g>
          <path id="Trazado_23467" data-name="Trazado 23467" d="M334.121,96.077a1.679,1.679,0,0,0-1.16-.459l-1.332.005h-1.336a1.636,1.636,0,0,0-.623.123,1.558,1.558,0,0,0-1.019,1.449,1.61,1.61,0,0,0,1.648,1.562l1.334,0h1.334a1.672,1.672,0,0,0,.623-.12,1.571,1.571,0,0,0,1.018-1.45A1.507,1.507,0,0,0,334.121,96.077Z" fill="#fff"/>
          <path id="Trazado_23468" data-name="Trazado 23468" d="M334.309,57.991l-2.734,0-2.741,0a.613.613,0,1,0,0,1.225l2.741,0h2.738a.617.617,0,1,0,0-1.232Z" fill="#fff"/>
        </g>
        <path id="Trazado_23469" data-name="Trazado 23469" d="M342.725,61.656s-.522-1.109-1.158-1.109l-9.981.016-9.984.017a1.139,1.139,0,0,0-1.16,1.108l.052,30.95c0,.6,1.161,1.1,1.161,1.1Z" fill="#fff" opacity="0.3" style="mix-blend-mode: screen;isolation: isolate"/>
      </g>
      <g id="Grupo_29268" data-name="Grupo 29268">
        <g id="Grupo_29255" data-name="Grupo 29255">
          <g id="Grupo_29251" data-name="Grupo 29251">
            <g id="Grupo_29248" data-name="Grupo 29248">
              <path id="Rectángulo_4424" data-name="Rectángulo 4424" d="M1.078,0H46.946a1.076,1.076,0,0,1,1.076,1.076v29.6a1.076,1.076,0,0,1-1.076,1.076H1.077A1.077,1.077,0,0,1,0,30.675V1.078A1.078,1.078,0,0,1,1.078,0Z" transform="translate(318.268 120.432)" fill="#1a222b"/>
            </g>
            <g id="Grupo_29249" data-name="Grupo 29249">
              <path id="Rectángulo_4425" data-name="Rectángulo 4425" d="M1.076,0H46.944A1.076,1.076,0,0,1,48.02,1.076v29.6a1.076,1.076,0,0,1-1.076,1.076H1.077A1.077,1.077,0,0,1,0,30.675V1.076A1.076,1.076,0,0,1,1.076,0Z" transform="translate(316.242 120.432)" fill="#2c3540"/>
            </g>
            <g id="Grupo_29250" data-name="Grupo 29250">
              <rect id="Rectángulo_4426" data-name="Rectángulo 4426" width="44.529" height="28.461" rx="1.063" transform="translate(317.987 122.078)" fill="#e4e8ed"/>
            </g>
          </g>
          <path id="Trazado_23470" data-name="Trazado 23470" d="M317.987,149.476V123.141a1.064,1.064,0,0,1,1.062-1.063h42.4Z" fill="#fff" opacity="0.3" style="mix-blend-mode: screen;isolation: isolate"/>
          <g id="Grupo_29254" data-name="Grupo 29254">
            <g id="Grupo_29252" data-name="Grupo 29252">
              <path id="Trazado_23471" data-name="Trazado 23471" d="M332.578,152.184H298.3v.621a4.72,4.72,0,0,0,4.719,4.718h58.553a4.72,4.72,0,0,0,4.718-4.718v-.621Z" fill="#1a222b"/>
            </g>
            <g id="Grupo_29253" data-name="Grupo 29253">
              <path id="Trazado_23472" data-name="Trazado 23472" d="M315,152.184H297.842v.621a4.719,4.719,0,0,0,4.717,4.718h41.43a4.718,4.718,0,0,0,4.718-4.718v-.621Z" fill="#1a222b"/>
            </g>
          </g>
        </g>
        <g id="Grupo_29267" data-name="Grupo 29267">
          <g id="Grupo_29266" data-name="Grupo 29266">
            <g id="Grupo_29256" data-name="Grupo 29256">
              <path id="Rectángulo_4427" data-name="Rectángulo 4427" d="M2.072,0h32.94a2.072,2.072,0,0,1,2.072,2.072V35.014a2.072,2.072,0,0,1-2.072,2.072H2.074A2.074,2.074,0,0,1,0,35.012V2.072A2.072,2.072,0,0,1,2.072,0Z" transform="translate(322.791 110.414)" fill="#c5d5e6"/>
              <path id="Rectángulo_4428" data-name="Rectángulo 4428" d="M2.072,0h32.94a2.074,2.074,0,0,1,2.074,2.074V35.014a2.072,2.072,0,0,1-2.072,2.072H2.072A2.072,2.072,0,0,1,0,35.014V2.072A2.072,2.072,0,0,1,2.072,0Z" transform="translate(320.58 110.414)" fill="#fff"/>
            </g>
            <g id="Grupo_29261" data-name="Grupo 29261">
              <g id="Grupo_29257" data-name="Grupo 29257">
                <rect id="Rectángulo_4429" data-name="Rectángulo 4429" width="7.803" height="11.526" transform="translate(327.303 131.653)" fill="#f4cd25"/>
              </g>
              <g id="Grupo_29258" data-name="Grupo 29258">
                <rect id="Rectángulo_4430" data-name="Rectángulo 4430" width="7.807" height="16.546" transform="translate(336.649 126.633)" fill="#ff4140"/>
              </g>
              <g id="Grupo_29259" data-name="Grupo 29259">
                <rect id="Rectángulo_4431" data-name="Rectángulo 4431" width="7.803" height="22.022" transform="translate(345.996 121.157)" fill="#14b0bf"/>
              </g>
              <g id="Grupo_29260" data-name="Grupo 29260">
                <path id="Trazado_23473" data-name="Trazado 23473" d="M356.944,145.617H323.955a.722.722,0,0,1-.722-.722V114.258a.723.723,0,0,1,1.445,0v29.915h32.266a.722.722,0,0,1,0,1.444Z" fill="#17283d"/>
              </g>
            </g>
            <g id="Grupo_29265" data-name="Grupo 29265">
              <g id="Grupo_29262" data-name="Grupo 29262">
                <path id="Trazado_23474" data-name="Trazado 23474" d="M327.625,126.855l-.645-.691,8.563-7.976,5.389,4.282L350.2,113.9l.641.695-9.857,9.122-5.387-4.28Z" fill="#ff4140"/>
              </g>
              <g id="Grupo_29264" data-name="Grupo 29264">
                <g id="Grupo_29263" data-name="Grupo 29263">
                  <path id="Trazado_23475" data-name="Trazado 23475" d="M351.391,116l1.115-3.6-3.676.835Z" fill="#ff4140"/>
                </g>
              </g>
            </g>
          </g>
        </g>
      </g>
      <g id="Grupo_29277" data-name="Grupo 29277">
        <rect id="Rectángulo_4432" data-name="Rectángulo 4432" width="40.268" height="31.055" transform="translate(370.936 92.286) rotate(-79)" fill="#c5d5e6"/>
        <rect id="Rectángulo_4433" data-name="Rectángulo 4433" width="40.268" height="31.055" transform="translate(369.999 92.157) rotate(-79.001)" fill="#e4e8ed"/>
        <g id="Grupo_29275" data-name="Grupo 29275">
          <rect id="Rectángulo_4434" data-name="Rectángulo 4434" width="31.056" height="40.268" transform="matrix(0.977, -0.212, 0.212, 0.977, 378.452, 56.516)" fill="#f2f6fa"/>
          <rect id="Rectángulo_4435" data-name="Rectángulo 4435" width="31.055" height="40.269" transform="translate(377.634 56.687) rotate(-12.227)" fill="#fff"/>
          <g id="Grupo_29272" data-name="Grupo 29272">
            <g id="Grupo_29269" data-name="Grupo 29269">
              <rect id="Rectángulo_4436" data-name="Rectángulo 4436" width="7.645" height="6.273" transform="matrix(0.979, -0.203, 0.203, 0.979, 387.801, 87.032)" fill="#f4cd25"/>
            </g>
            <g id="Grupo_29270" data-name="Grupo 29270">
              <rect id="Rectángulo_4437" data-name="Rectángulo 4437" width="7.649" height="9.006" transform="translate(396.215 82.5) rotate(-11.697)" fill="#14b0bf"/>
            </g>
            <g id="Grupo_29271" data-name="Grupo 29271">
              <rect id="Rectángulo_4438" data-name="Rectángulo 4438" width="7.646" height="11.986" transform="translate(404.145 77.724) rotate(-11.693)" fill="#ff4140"/>
            </g>
          </g>
          <g id="Grupo_29274" data-name="Grupo 29274">
            <path id="Trazado_23476" data-name="Trazado 23476" d="M387.135,74a11.409,11.409,0,0,0,4.82,3.451,11.533,11.533,0,0,0,5.9.573,11.686,11.686,0,0,0,3.256-1.058,11.219,11.219,0,0,0,2.136-1.391.609.609,0,0,0,.079-.067h0a11.4,11.4,0,0,0,3.373-4.753,11.536,11.536,0,0,0,.576-5.9l-11.293,1.871Z" fill="#17c5cc"/>
            <g id="Grupo_29273" data-name="Grupo 29273">
              <path id="Trazado_23477" data-name="Trazado 23477" d="M395.979,66.727l-7.272-8.842a11.448,11.448,0,0,1,18.565,6.971Z" fill="#ff4140"/>
              <path id="Trazado_23478" data-name="Trazado 23478" d="M387.135,74l8.844-7.27-7.272-8.842a11.374,11.374,0,0,0-3.443,4.818h0a11.5,11.5,0,0,0-.578,5.9l0,0,0,0A11.4,11.4,0,0,0,387.135,74Z" fill="#2d4375"/>
            </g>
          </g>
        </g>
        <g id="_10" data-name="10">
          <g id="Grupo_29276" data-name="Grupo 29276">
            <path id="Trazado_23479" data-name="Trazado 23479" d="M395.17,82.311l.069-21.985-29.45-.091a1.188,1.188,0,0,0-.814.32l0,0a1.179,1.179,0,0,0-.387.869l-.121,39.19,31.3.1a2.144,2.144,0,0,0,.24-.138h0c1.26-.705,1.6-2.353,1.607-3.944l.034-10.551Z" fill="#d9a60f"/>
            <path id="Trazado_23480" data-name="Trazado 23480" d="M394.174,82.311l.068-21.985L364.8,60.235a1.181,1.181,0,0,0-.814.32l0,0a1.17,1.17,0,0,0-.385.869l-.123,39.19,31.3.1a2.271,2.271,0,0,0,.242-.138h0c1.26-.705,1.6-2.353,1.607-3.944l.032-10.551Z" fill="#f4cd25"/>
            <rect id="Rectángulo_4439" data-name="Rectángulo 4439" width="29.421" height="3.785" transform="translate(386.895 96.149) rotate(-89.825)" fill="#fff"/>
          </g>
        </g>
      </g>
      <g id="search">
        <path id="Trazado_23481" data-name="Trazado 23481" d="M390.834,16a9.659,9.659,0,0,0-7.117,16.192l-1.248,1.247a2.657,2.657,0,0,0-2.949.491l-4.514,4.514a2.907,2.907,0,0,0,4.1,4.095l4.514-4.514a2.634,2.634,0,0,0,.584-2.7l1.488-1.488A9.66,9.66,0,1,0,390.834,16Zm0,17.163a7.5,7.5,0,1,1,7.5-7.5A7.5,7.5,0,0,1,390.834,33.16Z" fill="#9179b7"/>
      </g>
      <g id="Grupo_29278" data-name="Grupo 29278">
        <rect id="Rectángulo_4440" data-name="Rectángulo 4440" width="7.285" height="7.966" transform="translate(273.899 14.18)" fill="#743fb2"/>
        <rect id="Rectángulo_4441" data-name="Rectángulo 4441" width="7.285" height="9.599" transform="translate(282.561 12.548)" fill="#9179b7"/>
        <rect id="Rectángulo_4442" data-name="Rectángulo 4442" width="7.285" height="13.468" transform="translate(291.221 8.678)" fill="#743fb2"/>
        <path id="Trazado_23482" data-name="Trazado 23482" d="M292.838,5.451l.274-.3c.084-.1.166-.2.246-.3s.156-.19.23-.28c.045-.056.09-.111.133-.167l2.695,1.369-1.351-6.907L288.69,1.853,291.3,3.181c-.021.034-.043.067-.066.1-.057.088-.114.18-.174.274s-.133.185-.2.281c-.139.191-.28.4-.448.6a16.32,16.32,0,0,1-1.125,1.28q-.16.162-.328.329c-.056.055-.109.113-.168.167l-.177.161c-.239.215-.477.444-.741.652-.131.107-.261.215-.392.324s-.276.208-.412.314-.28.209-.42.315l-.44.3c-.148.1-.3.2-.447.3l-.461.283c-.305.2-.627.367-.945.545-.641.351-1.3.666-1.969.953l-.248.109-.25.1c-.168.066-.336.13-.5.195l-.125.048-.063.025-.029.012-.015.006-.008,0c-.006,0,.015,0,0,0l-.256.087-.506.171-.248.085c-.084.028-.164.048-.244.073l-.483.14c-.316.1-.636.17-.947.246-.154.038-.307.077-.459.111l-.449.088c-.3.058-.58.118-.858.153s-.541.085-.794.116-.5.051-.723.074-.44.034-.637.047l-.543.03c-.328.007-.588.006-.764.009l-.271,0,.27.031c.175.018.433.05.761.083l.547.035c.2.011.414.032.645.031l.736.014c.26,0,.531-.013.816-.019s.582-.028.891-.051l.469-.034c.158-.016.318-.037.48-.056.326-.039.662-.073,1-.135l.522-.086c.088-.016.177-.028.263-.046l.258-.054.524-.109.263-.055.28-.072.542-.139.274-.07.271-.082c.729-.214,1.463-.461,2.182-.749.359-.146.723-.287,1.072-.455l.53-.242c.173-.083.343-.175.515-.262l.51-.264.5-.285c.164-.1.33-.185.488-.286s.315-.2.469-.3c.317-.193.61-.411.9-.617l.217-.155c.073-.051.141-.108.209-.161.139-.109.276-.216.408-.322a18.778,18.778,0,0,0,1.45-1.293C292.455,5.874,292.647,5.654,292.838,5.451Z" fill="#743fb2"/>
      </g>
      <g id="Grupo_29296" data-name="Grupo 29296">
        <rect id="Rectángulo_4443" data-name="Rectángulo 4443" width="17.275" height="2.186" transform="translate(319.676 28.457)" fill="#c5d5e6"/>
        <g id="Grupo_29295" data-name="Grupo 29295">
          <g id="Grupo_29287" data-name="Grupo 29287">
            <g id="Grupo_29286" data-name="Grupo 29286">
              <g id="Grupo_29285" data-name="Grupo 29285">
                <path id="Trazado_23483" data-name="Trazado 23483" d="M348.981,43.168h-13.4v2.6h26.795v-2.6Z" fill="#1a222b"/>
                <path id="Trazado_23484" data-name="Trazado 23484" d="M347.135,25.267h-7.121v17.9h14.244v-17.9Z" fill="#10151a"/>
                <path id="Trazado_23485" data-name="Trazado 23485" d="M340.016,43.168h-13.4v2.6h26.795v-2.6Z" fill="#2c3540"/>
                <path id="Trazado_23486" data-name="Trazado 23486" d="M341.182,25.267h-7.121v17.9H348.3v-17.9Z" fill="#1a222b"/>
                <rect id="Rectángulo_4444" data-name="Rectángulo 4444" width="14.244" height="12.677" transform="translate(334.061 25.267)" fill="#2c3540" opacity="0.5" style="mix-blend-mode: multiply;isolation: isolate"/>
                <g id="Grupo_29284" data-name="Grupo 29284">
                  <g id="Grupo_29279" data-name="Grupo 29279">
                    <path id="Rectángulo_4445" data-name="Rectángulo 4445" d="M1.228,0H53.585a1.23,1.23,0,0,1,1.23,1.23V35.014a1.23,1.23,0,0,1-1.23,1.23H1.228A1.228,1.228,0,0,1,0,35.016V1.228A1.228,1.228,0,0,1,1.228,0Z" transform="translate(317.047 -1.243)" fill="#1a222b"/>
                  </g>
                  <g id="Grupo_29280" data-name="Grupo 29280">
                    <path id="Rectángulo_4446" data-name="Rectángulo 4446" d="M1.228,0H53.584a1.229,1.229,0,0,1,1.229,1.229V35.016a1.229,1.229,0,0,1-1.229,1.229H1.228A1.228,1.228,0,0,1,0,35.016V1.228A1.228,1.228,0,0,1,1.228,0Z" transform="translate(314.737 -1.243)" fill="#2c3540"/>
                  </g>
                  <g id="Grupo_29281" data-name="Grupo 29281">
                    <path id="Rectángulo_4447" data-name="Rectángulo 4447" d="M1.216,0h48.4A1.213,1.213,0,0,1,50.83,1.213v30.06a1.213,1.213,0,0,1-1.213,1.213H1.209A1.209,1.209,0,0,1,0,31.277V1.216A1.216,1.216,0,0,1,1.216,0Z" transform="translate(316.727 0.637)" fill="#e4e8ed"/>
                  </g>
                  <g id="Grupo_29283" data-name="Grupo 29283">
                    <path id="Trazado_23487" data-name="Trazado 23487" d="M336.2,19.273a9.908,9.908,0,0,0,1.845-9.746A10.134,10.134,0,0,0,336.659,6.9a9.885,9.885,0,0,0-1.5-1.619.6.6,0,0,0-.071-.055h0a9.847,9.847,0,0,0-4.558-2.175,9.983,9.983,0,0,0-5.119.381L328.68,12.8Z" fill="#ff4140"/>
                    <g id="Grupo_29282" data-name="Grupo 29282">
                      <path id="Trazado_23488" data-name="Trazado 23488" d="M328.68,12.8l-6.473,7.518a9.9,9.9,0,0,1-2.892-4.244,10,10,0,0,1-.381-5.12,9.912,9.912,0,0,1,6.475-7.519Z" fill="#17c5cc"/>
                      <path id="Trazado_23489" data-name="Trazado 23489" d="M336.2,19.273,328.68,12.8l-6.473,7.518a9.86,9.86,0,0,0,4.625,2.227h0a9.971,9.971,0,0,0,5.121-.381l0,0,0,0A9.859,9.859,0,0,0,336.2,19.273Z" fill="#f4cd25"/>
                    </g>
                  </g>
                </g>
              </g>
            </g>
            <path id="Trazado_23490" data-name="Trazado 23490" d="M316.727,31.907V1.846A1.213,1.213,0,0,1,317.94.637h48.406Z" fill="#fff" opacity="0.3" style="mix-blend-mode: screen;isolation: isolate"/>
          </g>
          <g id="Grupo_29294" data-name="Grupo 29294">
            <g id="Grupo_29288" data-name="Grupo 29288">
              <rect id="Rectángulo_4448" data-name="Rectángulo 4448" width="3.586" height="8.293" transform="translate(342.627 21.176)" fill="#14b0bf"/>
            </g>
            <g id="Grupo_29289" data-name="Grupo 29289">
              <rect id="Rectángulo_4449" data-name="Rectángulo 4449" width="3.584" height="11.903" transform="translate(346.924 17.566)" fill="#14b0bf"/>
            </g>
            <g id="Grupo_29290" data-name="Grupo 29290">
              <rect id="Rectángulo_4450" data-name="Rectángulo 4450" width="3.586" height="15.844" transform="translate(351.217 13.625)" fill="#14b0bf"/>
            </g>
            <g id="Grupo_29291" data-name="Grupo 29291">
              <rect id="Rectángulo_4451" data-name="Rectángulo 4451" width="3.584" height="13.443" transform="translate(356.059 16.026)" fill="#14b0bf"/>
            </g>
            <g id="Grupo_29292" data-name="Grupo 29292">
              <rect id="Rectángulo_4452" data-name="Rectángulo 4452" width="3.586" height="7.322" transform="translate(360.354 22.147)" fill="#14b0bf"/>
            </g>
            <g id="Grupo_29293" data-name="Grupo 29293">
              <path id="Trazado_23491" data-name="Trazado 23491" d="M364.983,30.943H340.6a.437.437,0,0,1-.436-.437V13.613a.436.436,0,0,1,.873,0V30.068h23.942a.438.438,0,0,1,0,.875Z" fill="#17283d"/>
            </g>
          </g>
          <rect id="Rectángulo_4453" data-name="Rectángulo 4453" width="17.275" height="2.184" transform="translate(319.676 24.74)" fill="#c5d5e6"/>
          <rect id="Rectángulo_4454" data-name="Rectángulo 4454" width="24.791" height="2.668" transform="translate(340.342 3.435)" fill="#c5d5e6"/>
          <rect id="Rectángulo_4455" data-name="Rectángulo 4455" width="24.791" height="2.67" transform="translate(340.342 7.976)" fill="#c5d5e6"/>
        </g>
      </g>
      <g id="target">
        <g id="target-2" data-name="target">
          <path id="Trazado_23492" data-name="Trazado 23492" d="M398.248,122.3l-1.8,1.146a10.793,10.793,0,1,1-2.4-3.737l1.846-1.173.074-.915a13.629,13.629,0,1,0,3.221,5.03Z" fill="#9179b7"/>
          <path id="Trazado_23493" data-name="Trazado 23493" d="M392.112,124.854a6.262,6.262,0,1,1-1.192-1.834l2.022-1.291a8.687,8.687,0,1,0,1.193,1.847Z" fill="#743fb2"/>
          <path id="Trazado_23494" data-name="Trazado 23494" d="M388.108,127.383a1.746,1.746,0,1,1-1.739-1.849,1.641,1.641,0,0,1,.487.082l2.226-1.422a4.15,4.15,0,1,0,1.2,1.818Z" fill="#9179b7"/>
          <path id="Trazado_23495" data-name="Trazado 23495" d="M399.237,122.16l2.8-1.774-2.415-.831.952-.6a.646.646,0,1,0-.694-1.089l-.922.588.268-2.49-2.793,1.774-.2,2.455-.547.35.152-1.414-1.558.989-.112,1.393-7.945,5.074a.554.554,0,0,0-.141.806.576.576,0,0,0,.791.214l8.049-5.082,1.311.494,1.558-.99-1.347-.465.447-.283Z" fill="#743fb2"/>
        </g>
      </g>
    </g>
  </g>
</svg>
