<svg xmlns="http://www.w3.org/2000/svg" width="181.387" height="167.622" viewBox="0 0 181.387 167.622">
  <g id="Grupo_29373" data-name="Grupo 29373" transform="translate(-23.682 -19.8)">
    <g id="Grupo_29308" data-name="Grupo 29308">
      <g id="Grupo_29306" data-name="Grupo 29306">
        <g id="Grupo_29299" data-name="Grupo 29299">
          <path id="Trazado_23496" data-name="Trazado 23496" d="M109.719,182.458l.979-1.88,5.6.1-.654,1.34a20.1,20.1,0,0,0,3.947,1.744,20.779,20.779,0,0,0,3.235.741c.047.019,1.078.434.877,1.089-.373,1.214-8.2.3-8.465.215l0-.012-.057-.006c-.6-.192-1.168-.4-1.721-.6l-.293.378-3.486-.391c-.056-.025-.107-.052-.158-.08C109.2,184.936,109.719,182.458,109.719,182.458Z" fill="#15202e"/>
          <path id="Trazado_23497" data-name="Trazado 23497" d="M100.452,183.661l.89-1.923,5.6-.152-.59,1.371a13.581,13.581,0,0,0,3.145,1.786,13.366,13.366,0,0,0,3.795.914c.541.112.638.635.9,1a.485.485,0,0,1-.43.761l-6.824-.448c-.275-.069-.549-.139-.814-.212v-.012l-.057-.005c-.6-.165-1.187-.34-1.744-.518l-.279.385-3.5-.226c-.055-.026-.112-.048-.161-.071C100.049,186.156,100.452,183.661,100.452,183.661Z" fill="#15202e"/>
          <path id="Trazado_23498" data-name="Trazado 23498" d="M116.878,129.7l3.816,25.074s-4.2,17.349-3.445,27.528c-6.508.573-7.6-1.792-7.6-1.792s.715-20.837,1.428-24.814a128,128,0,0,0-8.625-25.7Z" fill="#15202e"/>
          <path id="Trazado_23499" data-name="Trazado 23499" d="M117.358,130.044,115.653,155.7s-5.787,18.06-7.133,28c-7.471-1.312-7.922-1.312-7.922-1.312s4.584-22.963,5.78-26.8c-.4-5.576-1.114-7.574-2.006-12.036-1.221-6.091-2.746-9.1-2.717-12.119.035-3.389,6.154-10.108,6.154-10.108Z" fill="#16405e"/>
          <path id="Trazado_23500" data-name="Trazado 23500" d="M107.7,121.331s-6.1,6.74-6.119,10.128a21.742,21.742,0,0,0,1.215,5.97c4.582-.009,10.6.128,10.619,4.6,1.746,14.393-5.8,27.273-6.356,41.407.492.084,1.01.17,1.58.27,1.311-9.949,7.032-28.03,7.032-28.03l1.607-25.661Z" fill="#16405e" opacity="0.2" style="mix-blend-mode: multiply;isolation: isolate"/>
        </g>
        <g id="Grupo_29300" data-name="Grupo 29300">
          <path id="Trazado_23501" data-name="Trazado 23501" d="M127.956,119.913c.086-.061,2.054.58,2.158.587.387.019.773.035,1.158.057.742.048,1.436.351,2.17.415.223.02.939-.024,1.1.171a.2.2,0,0,1,.006.167c-.278.86-1.329.482-1.942.4-.23-.03-.488.005-.724,0,.57.37,1.136.743,1.707,1.114.326.216,2,1.252,1.726,1.639-.135.2-.447.047-.609-.029a15.708,15.708,0,0,1-2.043-1.133c.541.373,1.086.749,1.627,1.12.252.172,1.193.9.9,1.264a.288.288,0,0,1-.347.074,9.973,9.973,0,0,1-2.315-1.627c.551.464,1.1.927,1.654,1.4.145.12.4.38.309.618-.117.287-.49.135-.656.043a14.1,14.1,0,0,1-2-1.408c.361.53,1.945,1.746,1.359,1.821a.749.749,0,0,1-.451-.141c-.842-.483-1.356-.752-2.2-1.234a8.617,8.617,0,0,1-1.168-.831c-.373-.32-.668-.566-1.061-.87a11.194,11.194,0,0,1-1.855-1.869Z" fill="#d4a47d"/>
          <path id="Trazado_23502" data-name="Trazado 23502" d="M126.989,124.015a.814.814,0,0,0,1.119-.263l2.221-3.606a.815.815,0,0,0-.266-1.118h0a.811.811,0,0,0-1.117.269l-2.223,3.6a.812.812,0,0,0,.266,1.116Z" fill="#dcdcdc"/>
          <path id="Trazado_23503" data-name="Trazado 23503" d="M130.417,119.046a3.039,3.039,0,0,0-.424-.345l-10.711-7.3L116.21,98.015a3.173,3.173,0,1,0-6.182,1.43l2.492,10.873c-.058.069-.113.142-.164.216a3.169,3.169,0,0,0,.424,4.066,2.788,2.788,0,0,0,.422.344l.457.313a3.174,3.174,0,0,0,3.291,2.241l9.484,6.46a3.071,3.071,0,0,0,.848.406,24.4,24.4,0,0,1,1.5-2.9,23.91,23.91,0,0,1,1.646-2.4Z" fill="#15202e"/>
        </g>
        <g id="Grupo_29301" data-name="Grupo 29301">
          <path id="Trazado_23504" data-name="Trazado 23504" d="M115.4,93a2.023,2.023,0,0,0-.371.351c-.455.539-.354,1.372-.51,1.916a3.057,3.057,0,0,1-.986,1.315c-1.619,1.178-5.674-1.954-5.674-1.954h0s1.99-4.068,1.83-4.752,1.246-1.15,1.246-1.15Z" fill="#d4a47d"/>
          <path id="Trazado_23505" data-name="Trazado 23505" d="M115.03,93.355A2.023,2.023,0,0,1,115.4,93l-4.465-4.274s-1.408.463-1.246,1.15a2.377,2.377,0,0,1-.184.93c1.678,1.593,3.356,2.916,5.036,4.356A3.876,3.876,0,0,1,115.03,93.355Z" fill="#a88f7b" opacity="0.3" style="mix-blend-mode: multiply;isolation: isolate"/>
          <path id="Trazado_23506" data-name="Trazado 23506" d="M110.178,89.1a36.8,36.8,0,0,0,2.705,3.154,3.332,3.332,0,0,0,1.016.5c.75.3,1.5.593,2.254.891a1.743,1.743,0,0,0,.607.155,1.5,1.5,0,0,0,1.071-.669.561.561,0,0,0,.113-.191c.094-.3-.272-.62-.135-.9.069-.14.235-.2.324-.323a.756.756,0,0,0,.032-.638c.064.255.418-.475.408-.46.154-.281.057-.254.363-.348.256-.085.426.013.654-.2.612-.566-.181-1.213-.478-1.689a1.627,1.627,0,0,1-.395-1.063c.258-1.442.872-2.414.321-3.947a5.326,5.326,0,0,0-2.483-2.839,6.787,6.787,0,0,0-5.851-.138,4.732,4.732,0,0,0-1.533,1.023,4.24,4.24,0,0,0-.78,1.236,5.82,5.82,0,0,0-.426,3.178,4.9,4.9,0,0,0,1.489,2.819C109.794,88.948,109.864,88.759,110.178,89.1Z" fill="#ffc89f"/>
          <path id="Trazado_23507" data-name="Trazado 23507" d="M115.651,80.141a6.889,6.889,0,0,0-4.947.244,4.732,4.732,0,0,0-1.533,1.023,4.24,4.24,0,0,0-.78,1.236,5.82,5.82,0,0,0-.426,3.178,4.9,4.9,0,0,0,1.489,2.819c.34.307.41.118.724.454a36.8,36.8,0,0,0,2.705,3.154,3.332,3.332,0,0,0,1.016.5c.75.3,1.5.593,2.254.891a1.743,1.743,0,0,0,.607.155,1.5,1.5,0,0,0,1.071-.669C117.88,93.062,111.016,88.933,115.651,80.141Z" fill="#f0b990"/>
          <path id="Trazado_23508" data-name="Trazado 23508" d="M108.856,90.469a.842.842,0,0,1-.283-.314,9.18,9.18,0,0,1-.276-8.971,4.828,4.828,0,0,1,2.991-1.927,6.924,6.924,0,0,1,6.064,1.543.821.821,0,0,1,.377.5,3.5,3.5,0,0,0-1.043-.265c-2.166-.076-.582,1.7-.437,2.568a1.1,1.1,0,0,1-.323.907,3.263,3.263,0,0,0-1.125,2.042c-.111.492-.345.974-.416,1.468-.045.306.114.73-.242.9a1.122,1.122,0,0,1-.744-.282,5.234,5.234,0,0,0-.027-1.342,1.768,1.768,0,0,0-.668-1.125,1.072,1.072,0,0,0-1.25-.012c-.68.572-.5,2.518-.592,3.353a.767.767,0,0,1-.143.432.781.781,0,0,1-.349.179c-.338.109-.674.217-1.016.324a.773.773,0,0,1-.424.046C108.9,90.49,108.88,90.478,108.856,90.469Z" fill="#1a222b"/>
        </g>
        <path id="Trazado_23509" data-name="Trazado 23509" d="M114.575,124.1c-.106-.852-2.26-12.3-2.365-13.154-.424-3.454-.918-6.9-1.45-10.34-.213-1.375-.488-2.745-.814-4.1,3.207,0,4.258-1.012,4.258-1.012l.043.044a3.65,3.65,0,0,1,.691,1.069l.125.28a14.491,14.491,0,0,1,.6,1.876c.07.271.137.559.2.854l0,.021a48.448,48.448,0,0,1,.857,6.731q.055.922.082,1.841C116.973,115.21,115.729,121.939,114.575,124.1Z" fill="#c5d5e6"/>
        <path id="Trazado_23510" data-name="Trazado 23510" d="M116.19,107.46l-2.26-10.676.465.131.543-.316.125.28a14.491,14.491,0,0,1,.6,1.876l.2.854,0,.021a48.448,48.448,0,0,1,.857,6.731A1.541,1.541,0,0,1,116.19,107.46Z" fill="#ff4140"/>
        <path id="Trazado_23511" data-name="Trazado 23511" d="M115.063,96.879s.266.6-.172.421c0,0-.949-.4-.982-.43a2.277,2.277,0,0,1-.529-.79c.011-.115.824-.594.824-.594a3.937,3.937,0,0,1,.734,1.113Z" fill="#cc2221"/>
        <g id="Grupo_29302" data-name="Grupo 29302">
          <path id="Trazado_23512" data-name="Trazado 23512" d="M112.46,97.939,107.506,95.4l1.023-2.227,5.674,2.311Z" fill="#fdfffe"/>
        </g>
        <path id="Trazado_23513" data-name="Trazado 23513" d="M101.739,136.308l-.3-21.4c-.248-15.115,2.918-16.573,3.768-17.877.267-.415,2.2-3.418,3.326-3.852l8.189,13.185s1.176,9.288,1.567,17.739c.187,4.015.695,10.212.644,12.7Z" fill="#17283d"/>
        <path id="Trazado_23514" data-name="Trazado 23514" d="M118.286,124.1c-.391-8.451-1.567-17.739-1.567-17.739L108.53,93.176c-1.121.434-3.059,3.437-3.326,3.852-.649.991-2.633,2.08-3.438,9.208,2.133,6.687,7.319,11.054,11.684,15.418A10.015,10.015,0,0,1,115.3,133.7c-3.625,3.627-9.019-.709-13.589.832l.025,1.779,17.191.494C118.981,134.312,118.473,128.115,118.286,124.1Z" fill="#15202e"/>
        <rect id="Rectángulo_4456" data-name="Rectángulo 4456" width="2.662" height="7.551" transform="translate(105.311 126.104) rotate(-73.789)" fill="#16405e"/>
        <path id="Trazado_23515" data-name="Trazado 23515" d="M116.719,106.361l-5.39-3.752v-2.48s-4.119-2.486-4.069-3.985c.1-2.89,1.3-3.172,1.3-3.172Z" fill="#16405e"/>
        <g id="Grupo_29303" data-name="Grupo 29303">
          <path id="Trazado_23516" data-name="Trazado 23516" d="M133.794,87.449l.121,10.088,12.215,6.853L145.835,80.3Z" fill="#fff"/>
          <path id="Trazado_23517" data-name="Trazado 23517" d="M142.233,82.435c-1.016,4.263.043,9.588-2.838,14.2-1.264,1.261-3.385.8-5.488.089l.008.811,12.215,6.852L145.835,80.3Z" fill="#e4e8ed"/>
          <path id="Trazado_23518" data-name="Trazado 23518" d="M134.292,102.96l-1.623-6.868-2.149.025-1.9.022,1.826,7.731a1.974,1.974,0,1,0,3.842-.91Z" fill="#17283d"/>
          <path id="Trazado_23519" data-name="Trazado 23519" d="M127.758,92.788a1.124,1.124,0,0,1-1.111,1.139h0a1.129,1.129,0,0,1-1.137-1.113l-.015-1.2a1.131,1.131,0,0,1,1.111-1.138h0a1.123,1.123,0,0,1,1.137,1.112Z" fill="#17283d"/>
          <path id="Trazado_23520" data-name="Trazado 23520" d="M133.852,92.492l-.056-5.049-4.012.047a3.64,3.64,0,0,0-3.6,3.684l.014,1.408.017,1.4a3.641,3.641,0,0,0,3.686,3.6l4.01-.047Z" fill="#cc2221"/>
          <path id="Trazado_23521" data-name="Trazado 23521" d="M149.919,92.2c0,6.638-1.7,12.018-3.788,12.018s-3.787-5.38-3.787-12.018,1.7-12.014,3.787-12.014S149.919,85.567,149.919,92.2Z" fill="#17283d"/>
          <path id="Trazado_23522" data-name="Trazado 23522" d="M149.253,92.2c0,7.035-1.819,11.353-3.122,11.353-.986,0-2.261-2.454-2.826-6.682a35.582,35.582,0,0,1-.3-4.671,35.952,35.952,0,0,1,.217-4.009c.518-4.629,1.873-7.343,2.906-7.343C147.434,80.85,149.253,85.173,149.253,92.2Z" fill="#15202e"/>
          <path id="Trazado_23523" data-name="Trazado 23523" d="M147.95,92.739c-.08,2.045-2.037,3.7-4.645,4.134a35.582,35.582,0,0,1-.3-4.671,35.952,35.952,0,0,1,.217-4.009C146,88.725,148.024,90.588,147.95,92.739Z" fill="#fff"/>
        </g>
        <g id="Grupo_29305" data-name="Grupo 29305">
          <g id="Grupo_29304" data-name="Grupo 29304">
            <path id="Trazado_23524" data-name="Trazado 23524" d="M109.085,100.367a3.2,3.2,0,0,0-5.073,3.886l11.534,14.014a2.682,2.682,0,0,0,.306.373,3,3,0,0,0,1.613.818l.04-9.427Z" fill="#16405e"/>
          </g>
          <path id="Trazado_23525" data-name="Trazado 23525" d="M134.68,102.092a.484.484,0,0,0-.134-.959l-1.749.249s-.023-.111,0-.115l1.739-.309a.483.483,0,1,0-.17-.951l-1.735.255-.031-.088a14.557,14.557,0,0,0,1.285-.922c.315-.3.256-.847-.388-.831s-2.967,1.683-2.967,1.683l-2.615,3.2s-1.7,1.041-1.715,1.083-.68,2.839.98,2.4c.03.218,2.826-.9,3.045-.93,0,0,3.592-2.409,4.364-2.887.316-.2.255-.729-.155-.681-.39.048-1.24.239-1.24.239a.918.918,0,0,0-.031-.111Z" fill="#ffc89f"/>
          <path id="Trazado_23526" data-name="Trazado 23526" d="M131.567,106.966a.809.809,0,0,0,0-1.147l-2.992-3a.813.813,0,0,0-1.147,0h0a.815.815,0,0,0,0,1.151l2.991,3a.811.811,0,0,0,1.146,0Z" fill="#f9f9f9"/>
          <path id="Trazado_23527" data-name="Trazado 23527" d="M127.424,102.628l-8.7,8.807-1.222-1.4-.04,9.427a3.9,3.9,0,0,0,2.772-.535c.73-.477,11.451-11.9,11.451-11.9C131.922,106.8,127.555,102.5,127.424,102.628Z" fill="#16405e"/>
        </g>
      </g>
      <g id="Grupo_29307" data-name="Grupo 29307">
        <path id="Trazado_23528" data-name="Trazado 23528" d="M109.131,82.5c-.058.072-.113.149-.167.226a15.121,15.121,0,0,1,3.783-2.037,11.393,11.393,0,0,0-1.713.112,7.843,7.843,0,0,1,1.57-1.017,6.476,6.476,0,0,0-3.523,1.586l1.711-.821c-.37.3-.737.609-1.11.916l1.047-.371A5.851,5.851,0,0,0,109.131,82.5Z" fill="#494948"/>
      </g>
    </g>
    <g id="Grupo_29319" data-name="Grupo 29319">
      <g id="Grupo_29318" data-name="Grupo 29318">
        <g id="Grupo_29314" data-name="Grupo 29314">
          <g id="Grupo_29309" data-name="Grupo 29309">
            <path id="Trazado_23529" data-name="Trazado 23529" d="M33.43,116.979c.748-4.031,1.67-9.019,1.932-10.2,0-.012.852,5.953,1.834,4.309,1.363-2.3,2.771-4.462,2.156-7.271a17.165,17.165,0,0,0-1.484-4.093.355.355,0,0,1-.088-.02c-2.123-.63-3.15-2.906-3.709-4.872a4.411,4.411,0,0,0-.789-2.039,2.813,2.813,0,0,0-.789-.656,3.837,3.837,0,0,1-.615-.36c-.039-.033-.081-.05-.114-.076a3.427,3.427,0,0,1-.91-.2,7.373,7.373,0,0,0-1.221.86,14.534,14.534,0,0,0-3.914,6.772,49.112,49.112,0,0,0-1.24,8.537,41.96,41.96,0,0,0-.736,8.581c0,.175,0,.427-.006.726Z" fill="#ffc89f"/>
            <path id="Trazado_23530" data-name="Trazado 23530" d="M30.528,116.979a41.211,41.211,0,0,1-3.742-1.752,8.137,8.137,0,0,1-2.03-1.4c-.324-.375-.625-.747-.912-1.134-.082,1.186-.107,2.377-.1,3.557,0,.175,0,.427-.006.726Z" fill="#ffc89f"/>
          </g>
          <g id="Grupo_29310" data-name="Grupo 29310">
            <path id="Trazado_23531" data-name="Trazado 23531" d="M67.815,106.78c.26,1.18,1.182,6.168,1.932,10.2h9.689c0-.3,0-.551,0-.726a41.4,41.4,0,0,0-.73-8.581,49.8,49.8,0,0,0-1.233-8.537c-.795-2.454-1.922-5.057-3.914-6.772a7.758,7.758,0,0,0-1.236-.86,3.385,3.385,0,0,1-.9.2,1.393,1.393,0,0,1-.124.076,3.781,3.781,0,0,1-.609.36,3.014,3.014,0,0,0-.8.656,4.637,4.637,0,0,0-.787,2.039c-.557,1.966-1.58,4.242-3.7,4.872a.338.338,0,0,1-.092.02,17.721,17.721,0,0,0-1.492,4.093c-.6,2.809.805,4.971,2.17,7.271C66.973,112.733,67.815,106.768,67.815,106.78Z" fill="#ffc89f"/>
            <path id="Trazado_23532" data-name="Trazado 23532" d="M79.436,116.979c0-.3,0-.551,0-.726.01-1.318-.021-2.633-.115-3.944a37.668,37.668,0,0,1-5.223,2.309c-1.144.426-2.287.84-3.451,1.179-.342.1-.7.21-1.053.313.053.294.106.581.159.869Z" fill="#ffc89f"/>
          </g>
          <path id="Trazado_23533" data-name="Trazado 23533" d="M58.356,86.632c.705-1.288,1.406-2.583,2.084-3.9a56.024,56.024,0,0,0,3.762-7.53,22.672,22.672,0,0,0,.918-3.281,42.963,42.963,0,0,0-1.537-4.476H59.01l.125-.8L38.8,67.427c-.094.375-.174.744-.258,1.117a16.067,16.067,0,0,0-.2,7.039,16.923,16.923,0,0,0,1.6,4.305c.657,1.122,1.426,2.156,2.119,3.243,1.038,1.614,1.887,3.268,3.045,4.781h12.42C57.792,87.464,58.135,87.03,58.356,86.632Z" fill="#462b1a"/>
          <path id="Trazado_23534" data-name="Trazado 23534" d="M57.516,85.585a27.2,27.2,0,0,1,.317-9.135H46.2a27.475,27.475,0,0,1,.312,9.135c-4.226.983-7.136,3.058-7.136,5.476,0,3.36,5.662,6.1,12.65,6.1s12.633-2.737,12.633-6.1C64.657,88.643,61.747,86.568,57.516,85.585Z" fill="#d4a47d"/>
          <path id="Trazado_23535" data-name="Trazado 23535" d="M57.516,85.585a27.2,27.2,0,0,1,.317-9.135H46.2c.232,1.388.4,2.572.476,3.668,1.383,2.788,4.161,3.5,6.61,5.18.611.455,1.414,1.146,1.414,1.818.408,2.5-.2,5.232,2.238,6.371a8.5,8.5,0,0,0,7.291-.858,3.208,3.208,0,0,0,.43-1.568C64.657,88.643,61.747,86.568,57.516,85.585Z" fill="#a88f7b" opacity="0.3" style="mix-blend-mode: multiply;isolation: isolate"/>
          <path id="Trazado_23536" data-name="Trazado 23536" d="M61.809,70.01c0,6.648-4.385,12.029-9.785,12.029-5.422,0-9.809-5.381-9.809-12.029s.571-14.1,9.809-14.1C61.809,55.91,61.809,63.36,61.809,70.01Z" fill="#ffc89f"/>
          <path id="Trazado_23537" data-name="Trazado 23537" d="M52.024,55.91c-4.766,0-7.225,1.99-8.484,4.817a6,6,0,0,1,4.015-.748,1.642,1.642,0,0,1,2.184.569,8.213,8.213,0,0,1,1.07.454,11.206,11.206,0,0,1,6.039,5.877c1.137,2.5,3.342,10.907-2.488,13.854-6.631,2.106-9.031-2.867-10.523-4.1,1.752,3.248,4.755,5.41,8.187,5.41,5.4,0,9.785-5.381,9.785-12.029S61.809,55.91,52.024,55.91Z" fill="#f0b990"/>
          <g id="Grupo_29311" data-name="Grupo 29311">
            <path id="Trazado_23538" data-name="Trazado 23538" d="M43.5,70.213c.318,1.425-.051,2.721-.85,2.911-.777.176-1.691-.828-2.017-2.258s.062-2.738.849-2.922S43.169,68.78,43.5,70.213Z" fill="#ffc89f"/>
            <path id="Trazado_23539" data-name="Trazado 23539" d="M60.532,70.213c-.326,1.425.047,2.721.842,2.911s1.695-.828,2.023-2.258-.051-2.738-.846-2.922S60.856,68.78,60.532,70.213Z" fill="#ffc89f"/>
          </g>
          <path id="Trazado_23540" data-name="Trazado 23540" d="M34.88,109.22c.154.681.943,1.725,1.3,2.7a30.215,30.215,0,0,1,1.117,5.055H66.452a20.454,20.454,0,0,1,1.037-5.055,4.916,4.916,0,0,1,1.021-1.6c.211,1.121-.277,2.767-.031,4.06.184-.091,11.264-4.646,11.18-4.979.01-.106-1.342-7.6-2.188-10.267a21.035,21.035,0,0,0-1.748-4.087c-.051-.1-.092-.174-.127-.257a11.778,11.778,0,0,0-2.927-3.561,12.725,12.725,0,0,0-1.647-1.146c-2.076-2.722-10.914-4.029-10.914-4.029s-.227,7.148-1.937,8.715c-1.372,1.247-3.832,1.88-6.332,1.9-2.5-.022-4.969-.655-6.344-1.9-1.711-1.567-1.924-8.715-1.924-8.715s-7.645,1.133-10.387,3.469A14.082,14.082,0,0,0,30.51,91.23a11.527,11.527,0,0,0-2.916,3.561,2.14,2.14,0,0,0-.138.257,21.343,21.343,0,0,0-1.737,4.087c-.849,2.666-1.982,9.362-2.037,9.736.49.349,10.539,5.175,10.705,5.244C34.706,112.421,34.63,110.53,34.88,109.22Z" fill="#fff"/>
          <path id="Trazado_23541" data-name="Trazado 23541" d="M70.663,104.561c-.5.661-1.108,1.267-1.569,1.782a27.373,27.373,0,0,0-3.392,4.125c-.985,1.666-1.057,1.009-2.018,2.689-.523,1.59-9.744-.045-14.058,1.778a38.579,38.579,0,0,1,3.781,2.044H66.452a20.454,20.454,0,0,1,1.037-5.055,4.916,4.916,0,0,1,1.021-1.6c.211,1.121-.277,2.767-.031,4.06.184-.091,11.264-4.646,11.18-4.979.01-.106-1.342-7.6-2.188-10.267a21.035,21.035,0,0,0-1.748-4.087c-.051-.1-.092-.174-.127-.257a11.778,11.778,0,0,0-2.927-3.561,12.725,12.725,0,0,0-1.647-1.146c-2.076-2.722-10.914-4.029-10.914-4.029s-.061,1.857-.346,3.889c.09.062.182.113.274.169,1.217.641,2.459,1.242,3.652,1.942a30.053,30.053,0,0,1,6.043,4.811c1.27,1.245,3.41,3.222,2.908,5.258A4.44,4.44,0,0,1,70.663,104.561Z" fill="#e4e8ed"/>
          <path id="Trazado_23542" data-name="Trazado 23542" d="M67.456,68.981c-.453-4.6-1.631-8.209-5-11.631-.737-.752-5.637-4.114-10.43-3.808-5.873.37-7.113,3.747-7.113,3.747s-5.264.122-6.9,8.074a55.886,55.886,0,0,0-.7,7.5,27.851,27.851,0,0,0,.7,7.729,18.659,18.659,0,0,0,2.531,6.3c.922,1.423,6.944.885,7.823,2.324-5.262-9.1-5.4-19.406-3.971-23.986.047.331.1.639.135.928.1.968,3.23-4.766,3.943-5.673.1.063,6.555,5.376,6.17,4.6-.258-.491-.871-2.776-1.062-3.289,1.882.931,3.685,2.008,4.5,3.219,2.583,3.815,3.789,13.618-1.247,24.784-.1.208,7.866-3.231,8.717-5.542A35.373,35.373,0,0,0,67.456,68.981Z" fill="#7d4e24"/>
          <g id="Grupo_29313" data-name="Grupo 29313">
            <g id="Grupo_29312" data-name="Grupo 29312">
              <path id="Trazado_23543" data-name="Trazado 23543" d="M53.782,58.14c-.195-.073-.4-.138-.6-.2a34.194,34.194,0,0,1,6.957,6.57A26.492,26.492,0,0,0,58.7,60.968a17.179,17.179,0,0,1,3.25,2.61,14.417,14.417,0,0,0-5.815-6.336q1.462,1.521,2.93,3.041-1.353-.849-2.705-1.7.756.976,1.51,1.954A12.956,12.956,0,0,0,53.782,58.14Z" fill="#a86f3d"/>
            </g>
          </g>
        </g>
        <g id="Grupo_29317" data-name="Grupo 29317">
          <g id="Grupo_29315" data-name="Grupo 29315">
            <path id="Trazado_23544" data-name="Trazado 23544" d="M51.53,80.047c-7.178-.84-12.592-5.747-12.592-11.412h.867c0,5.225,5.086,9.761,11.826,10.55Z" fill="#393b42"/>
          </g>
          <path id="Trazado_23545" data-name="Trazado 23545" d="M53.858,79.4a1.014,1.014,0,0,1-1.014,1.016H50.682A1.015,1.015,0,0,1,49.667,79.4h0a1.014,1.014,0,0,1,1.015-1.013h2.162A1.014,1.014,0,0,1,53.858,79.4Z" fill="#1a222b"/>
          <g id="Grupo_29316" data-name="Grupo 29316">
            <path id="Trazado_23546" data-name="Trazado 23546" d="M65.526,63.754H63.792c0-5.776-4.012-10.473-8.944-10.473H49.309c-4.931,0-8.943,4.7-8.943,10.473H38.633c0-6.732,4.789-12.207,10.676-12.207h5.539C60.737,51.547,65.526,57.022,65.526,63.754Z" fill="#393b42"/>
          </g>
          <path id="Trazado_23547" data-name="Trazado 23547" d="M42.823,73.076a2.776,2.776,0,0,1-2.776,2.774h0a2.777,2.777,0,0,1-2.777-2.774V65.522a2.777,2.777,0,0,1,2.777-2.776h0a2.777,2.777,0,0,1,2.776,2.776Z" fill="#1a222b"/>
          <path id="Trazado_23548" data-name="Trazado 23548" d="M66.95,73.076a2.777,2.777,0,0,1-2.778,2.774h0A2.775,2.775,0,0,1,61.4,73.076V65.522a2.775,2.775,0,0,1,2.775-2.776h0a2.777,2.777,0,0,1,2.778,2.776Z" fill="#1a222b"/>
        </g>
      </g>
    </g>
    <g id="Grupo_29340" data-name="Grupo 29340">
      <g id="Grupo_29333" data-name="Grupo 29333">
        <g id="Grupo_29327" data-name="Grupo 29327">
          <g id="Grupo_29323" data-name="Grupo 29323">
            <g id="Grupo_29320" data-name="Grupo 29320">
              <path id="Rectángulo_4457" data-name="Rectángulo 4457" d="M1.094,0H47.582a1.094,1.094,0,0,1,1.094,1.094v30a1.092,1.092,0,0,1-1.092,1.092H1.091A1.091,1.091,0,0,1,0,31.092v-30A1.094,1.094,0,0,1,1.094,0Z" transform="translate(139.901 32.785)" fill="#b2a1d1"/>
            </g>
            <g id="Grupo_29321" data-name="Grupo 29321">
              <path id="Rectángulo_4458" data-name="Rectángulo 4458" d="M1.092,0h46.49a1.09,1.09,0,0,1,1.09,1.09v30a1.09,1.09,0,0,1-1.09,1.09H1.091A1.091,1.091,0,0,1,0,31.092v-30A1.092,1.092,0,0,1,1.092,0Z" transform="translate(137.85 32.785)" fill="#d3c7e5"/>
            </g>
            <g id="Grupo_29322" data-name="Grupo 29322">
              <path id="Rectángulo_4459" data-name="Rectángulo 4459" d="M1.078,0h42.98a1.078,1.078,0,0,1,1.078,1.078V27.771a1.076,1.076,0,0,1-1.076,1.076H1.078A1.078,1.078,0,0,1,0,27.769V1.078A1.078,1.078,0,0,1,1.078,0Z" transform="translate(139.616 34.454)" fill="#17283d"/>
            </g>
          </g>
          <g id="Grupo_29326" data-name="Grupo 29326">
            <g id="Grupo_29324" data-name="Grupo 29324">
              <path id="Trazado_23549" data-name="Trazado 23549" d="M154.409,64.968H119.663v.63a4.782,4.782,0,0,0,4.783,4.781h59.348a4.784,4.784,0,0,0,4.783-4.781v-.63Z" fill="#b2a1d1"/>
            </g>
            <g id="Grupo_29325" data-name="Grupo 29325">
              <path id="Trazado_23550" data-name="Trazado 23550" d="M170.755,64.968V65.6a4.786,4.786,0,0,1-4.782,4.783H123.981A4.787,4.787,0,0,1,119.2,65.6v-.629h21.547a1.973,1.973,0,0,0,1.982,1.97h4.51a1.964,1.964,0,0,0,1.971-1.97Z" fill="#d3c7e5"/>
            </g>
          </g>
        </g>
        <g id="Grupo_29332" data-name="Grupo 29332">
          <g id="Grupo_29331" data-name="Grupo 29331">
            <g id="Grupo_29330" data-name="Grupo 29330">
              <path id="Trazado_23551" data-name="Trazado 23551" d="M177.989,36.787l-16.23-10.873L145.475,36.883v.012l16.242,10.974Z" fill="#d9a60f"/>
              <g id="Grupo_29328" data-name="Grupo 29328">
                <path id="Trazado_23552" data-name="Trazado 23552" d="M161.745,28.817H150.364V52.873l1.148,1.214,1.377-1.46,1.379,1.46,1.379-1.46,1.379,1.46,1.379-1.46,1.379,1.46,1.379-1.46.582.618.8.842,1.379-1.46,1.379,1.46,1.377-1.46,1.381,1.46,1.379-1.46,1.379,1.46,1.379-1.46,1.014,1.074V28.817Z" fill="#f2e7f7"/>
              </g>
              <g id="Grupo_29329" data-name="Grupo 29329">
                <path id="Trazado_23553" data-name="Trazado 23553" d="M164.307,33.075h2.51V30.883H156.229v2.192h8.078Z" fill="#cc2221"/>
                <path id="Trazado_23554" data-name="Trazado 23554" d="M169.206,34.589H151.454v2.2h20.141v-2.2Z" fill="#97b0cc"/>
                <path id="Trazado_23555" data-name="Trazado 23555" d="M166.817,38.48H151.454v2.194h20.141V38.48h-4.777Z" fill="#97b0cc"/>
                <path id="Trazado_23556" data-name="Trazado 23556" d="M166.817,42.337H151.454V44.53h20.141V42.337h-4.777Z" fill="#97b0cc"/>
              </g>
              <path id="Trazado_23557" data-name="Trazado 23557" d="M178,58.864V36.793l-.008-.006L161.717,47.868Z" fill="#ebb515"/>
              <path id="Trazado_23558" data-name="Trazado 23558" d="M145.475,36.894V58.928l16.242-11.06Z" fill="#f4cd25"/>
            </g>
            <path id="Trazado_23559" data-name="Trazado 23559" d="M161.717,47.816,145.475,58.879v.049H178v-.11Z" fill="#d9a60f"/>
          </g>
        </g>
      </g>
      <g id="Grupo_29334" data-name="Grupo 29334">
        <path id="Trazado_23560" data-name="Trazado 23560" d="M154.585,38.709l2.822-.988-2.822-.988-.988-2.823-.99,2.823-2.82.988,2.82.988.99,2.822Z" fill="#f4cd25"/>
        <path id="Trazado_23561" data-name="Trazado 23561" d="M154.09,38.216l1.41-.5-1.41-.491-.494-1.413-.5,1.413-1.41.491,1.41.5.5,1.412Z" fill="#ebb515"/>
      </g>
      <g id="Grupo_29335" data-name="Grupo 29335">
        <path id="Trazado_23562" data-name="Trazado 23562" d="M180.508,48.562l1.863-.651-1.863-.653-.652-1.863-.652,1.863-1.865.653,1.865.651.652,1.865Z" fill="#f4cd25"/>
        <path id="Trazado_23563" data-name="Trazado 23563" d="M180.182,48.236l.932-.325-.932-.326-.326-.932-.326.932-.934.326.934.325.326.933Z" fill="#ebb515"/>
      </g>
      <g id="Grupo_29336" data-name="Grupo 29336">
        <path id="Trazado_23564" data-name="Trazado 23564" d="M176.536,30.491l3.051-1.068-3.051-1.067L175.467,25.3,174.4,28.355l-3.051,1.067,3.051,1.068,1.068,3.051Z" fill="#f4cd25"/>
        <path id="Trazado_23565" data-name="Trazado 23565" d="M176,29.959l1.523-.536L176,28.888l-.533-1.524-.535,1.524-1.523.535,1.523.536.535,1.522Z" fill="#ebb515"/>
      </g>
      <g id="Grupo_29337" data-name="Grupo 29337">
        <path id="Trazado_23566" data-name="Trazado 23566" d="M143.313,30.353l3-1.05-3-1.049-1.051-3-1.049,3-3,1.049,3,1.05,1.049,3Z" fill="#f4cd25"/>
        <path id="Trazado_23567" data-name="Trazado 23567" d="M142.788,29.828l1.5-.524-1.5-.524-.525-1.5-.523,1.5-1.5.524,1.5.524.523,1.5Z" fill="#ebb515"/>
      </g>
      <g id="Grupo_29338" data-name="Grupo 29338">
        <path id="Trazado_23568" data-name="Trazado 23568" d="M139.524,47.093l3.516-1.229-3.516-1.232-1.232-3.515-1.23,3.515-3.514,1.232,3.514,1.229,1.23,3.514Z" fill="#f4cd25"/>
        <path id="Trazado_23569" data-name="Trazado 23569" d="M138.909,46.476l1.758-.612-1.758-.616-.617-1.759-.615,1.759-1.756.616,1.756.612.615,1.76Z" fill="#ebb515"/>
      </g>
      <g id="Grupo_29339" data-name="Grupo 29339">
        <path id="Trazado_23570" data-name="Trazado 23570" d="M187.444,35.064l1.742-.61-1.742-.611-.611-1.742-.607,1.742-1.744.611,1.744.61.607,1.742Z" fill="#f4cd25"/>
        <path id="Trazado_23571" data-name="Trazado 23571" d="M187.137,34.759l.873-.3-.873-.306-.3-.871-.3.871-.873.306.873.3.3.872Z" fill="#ebb515"/>
      </g>
    </g>
    <g id="Grupo_29346" data-name="Grupo 29346">
      <g id="Grupo_29345" data-name="Grupo 29345">
        <g id="Grupo_29343" data-name="Grupo 29343">
          <g id="Grupo_29341" data-name="Grupo 29341">
            <path id="Trazado_23572" data-name="Trazado 23572" d="M106.274,25.843a2.907,2.907,0,0,0-2.965-2.819l-9.6.017-9.606.014a2.9,2.9,0,0,0-2.951,2.826l.06,39.757a2.9,2.9,0,0,0,2.965,2.817l9.6-.016,9.6-.014a2.9,2.9,0,0,0,2.954-2.828Z" fill="#10151a"/>
            <path id="Trazado_23573" data-name="Trazado 23573" d="M103.215,25.843a2.9,2.9,0,0,0-2.962-2.819l-9.6.017-9.6.014A2.9,2.9,0,0,0,78.1,25.881l.061,39.757a2.9,2.9,0,0,0,2.965,2.817l9.6-.016,9.606-.014a2.9,2.9,0,0,0,2.953-2.828Z" fill="#2c3540"/>
            <path id="Trazado_23574" data-name="Trazado 23574" d="M102.09,60.269A1.165,1.165,0,0,1,100.9,61.4l-10.191.016-10.2.013a1.169,1.169,0,0,1-1.162-.927.959.959,0,0,1-.021-.2l-.022-15.717-.014-4.78-.007-5.977-.008-5.13A1.162,1.162,0,0,1,80.46,27.57l5.109-.008,5.092-.007h.892l4.8-.007,4.5-.007a1.159,1.159,0,0,1,1.186,1.125l.013,9.6Z" fill="#f2f6fa"/>
            <rect id="Rectángulo_4460" data-name="Rectángulo 4460" width="20.504" height="3.226" transform="translate(80.434 29.038)" fill="#97b0cc"/>
            <rect id="Rectángulo_4461" data-name="Rectángulo 4461" width="10.836" height="10.121" transform="translate(80.434 33.911)" fill="#97b0cc"/>
            <rect id="Rectángulo_4462" data-name="Rectángulo 4462" width="8.975" height="1.749" transform="translate(91.88 33.911)" fill="#97b0cc"/>
            <rect id="Rectángulo_4463" data-name="Rectángulo 4463" width="8.975" height="1.75" transform="translate(91.88 36.727)" fill="#97b0cc"/>
            <rect id="Rectángulo_4464" data-name="Rectángulo 4464" width="20.504" height="2.617" transform="translate(80.434 45.74)" fill="#97b0cc"/>
            <rect id="Rectángulo_4465" data-name="Rectángulo 4465" width="20.504" height="2.617" transform="translate(80.434 49.762)" fill="#97b0cc"/>
            <rect id="Rectángulo_4466" data-name="Rectángulo 4466" width="6.31" height="5.896" transform="translate(80.434 53.737)" fill="#97b0cc"/>
            <rect id="Rectángulo_4467" data-name="Rectángulo 4467" width="6.311" height="5.896" transform="translate(87.489 53.737)" fill="#97b0cc"/>
            <rect id="Rectángulo_4468" data-name="Rectángulo 4468" width="6.311" height="5.896" transform="translate(94.544 53.737)" fill="#97b0cc"/>
            <path id="Trazado_23575" data-name="Trazado 23575" d="M93.251,63.819a1.7,1.7,0,0,0-1.186-.466l-1.361,0H89.34a1.753,1.753,0,0,0-.636.122,1.6,1.6,0,0,0-1.039,1.482,1.644,1.644,0,0,0,1.683,1.6l1.36,0h1.361a1.681,1.681,0,0,0,.637-.124,1.592,1.592,0,0,0,1.039-1.48A1.551,1.551,0,0,0,93.251,63.819Z" fill="#e4e8ed"/>
            <path id="Trazado_23576" data-name="Trazado 23576" d="M93.442,24.927l-2.795,0-2.8,0a.647.647,0,0,0-.656.631.637.637,0,0,0,.656.623l2.8,0h2.795a.629.629,0,1,0,0-1.257Z" fill="#e4e8ed"/>
          </g>
          <g id="Grupo_29342" data-name="Grupo 29342">
            <path id="Trazado_23577" data-name="Trazado 23577" d="M84.268,36.513A1.98,1.98,0,1,0,86.247,34.5,1.994,1.994,0,0,0,84.268,36.513Z" fill="#215372"/>
            <path id="Trazado_23578" data-name="Trazado 23578" d="M82.719,43.675H89.8c0-1.183,0-2.355,0-3.546A1.12,1.12,0,0,0,88.69,39H83.837a1.118,1.118,0,0,0-1.11,1.148C82.747,41.323,82.741,42.491,82.719,43.675Z" fill="#215372"/>
          </g>
          <path id="Trazado_23579" data-name="Trazado 23579" d="M91.553,27.555,79.3,39.809l-.008-5.978,6.277-6.27,5.092-.008Z" fill="#fff" opacity="0.2" style="mix-blend-mode: screen;isolation: isolate"/>
          <path id="Trazado_23580" data-name="Trazado 23580" d="M102.053,38.267,79.817,60.5h-.461a.959.959,0,0,1-.021-.2l-.022-15.717L96.354,27.548l4.5-.007a1.159,1.159,0,0,1,1.186,1.125Z" fill="#fff" opacity="0.2" style="mix-blend-mode: screen;isolation: isolate"/>
        </g>
        <g id="Grupo_29344" data-name="Grupo 29344">
          <path id="Trazado_23581" data-name="Trazado 23581" d="M118.866,20.132c-7.738-1.411-14.807,1.8-15.785,7.17a7.907,7.907,0,0,0,1.4,5.874,14.139,14.139,0,0,0,5.074,4.414L103.5,44.728l11.013-5.309c.266.06.536.114.809.165,7.738,1.41,14.807-1.8,15.785-7.171S126.606,21.543,118.866,20.132Z" fill="#e4e8ed"/>
          <path id="Trazado_23582" data-name="Trazado 23582" d="M117.645,20.132c-7.738-1.411-14.805,1.8-15.787,7.17a7.935,7.935,0,0,0,1.4,5.874,14.151,14.151,0,0,0,5.075,4.414L103.5,44.728l9.793-5.309c.265.06.535.114.806.165,7.741,1.41,14.809-1.8,15.787-7.171S125.383,21.543,117.645,20.132Z" fill="#fff"/>
          <path id="Trazado_23583" data-name="Trazado 23583" d="M123.188,28.289c-.369-2.307-1.808-3.355-3.305-3.478a3.477,3.477,0,0,0-3.55,1.851,4.155,4.155,0,0,0-4.244-1.754c-1.241.276-2.3,1.432-2.614,3.381-.629,3.951,4.744,6.619,6.858,8.217C118.444,34.908,123.817,32.24,123.188,28.289Z" fill="#ff4a39"/>
        </g>
      </g>
    </g>
    <path id="Trazado_23584" data-name="Trazado 23584" d="M97.924,83.933c-.066-.138-.134-.275-.205-.409a8.957,8.957,0,0,0-7.843-4.766h-.145a8.96,8.96,0,0,0-7.846,4.766c-.072.134-.14.271-.209.419a8.953,8.953,0,0,0,.079,7.712c.07.142.142.281.218.418a8.99,8.99,0,0,0,7.754,4.6h.145a8.989,8.989,0,0,0,7.758-4.6c.076-.137.15-.276.218-.418a8.951,8.951,0,0,0,.076-7.722Zm-7.7,3.364V84.25H94.11a12.827,12.827,0,0,1,.453,3.047Zm6.92-3.047a8.041,8.041,0,0,1,.768,3.047H95.4a13.638,13.638,0,0,0-.424-3.047Zm-6.92-.84V79.63c1.465.225,2.819,1.64,3.612,3.78Zm4.506,0a9.962,9.962,0,0,0-.9-1.949,7.211,7.211,0,0,0-.951-1.257,8.205,8.205,0,0,1,3.8,3.206Zm-4.506,7.934V88.138h4.34a12.694,12.694,0,0,1-.5,3.206Zm3.553.84c-.809,2.077-2.113,3.4-3.553,3.621V92.184Zm-.9,3.045a7.269,7.269,0,0,0,.951-1.255,9.866,9.866,0,0,0,.843-1.79h1.907A8.212,8.212,0,0,1,92.878,95.229Zm2.058-3.885a13.452,13.452,0,0,0,.467-3.206h2.508a7.985,7.985,0,0,1-.846,3.206ZM89.381,84.25V87.3H85.042A12.725,12.725,0,0,1,85.5,84.25Zm0-.84H85.768c.8-2.14,2.149-3.555,3.613-3.78Zm-3.607-1.95a10.021,10.021,0,0,0-.9,1.95H82.922A8.2,8.2,0,0,1,86.727,80.2,7.2,7.2,0,0,0,85.774,81.46Zm3.607,10.724v3.621c-1.441-.217-2.744-1.544-3.55-3.621Zm0-.84H85.544a12.518,12.518,0,0,1-.5-3.206h4.337ZM84.626,84.25A13.647,13.647,0,0,0,84.2,87.3H81.694a8,8,0,0,1,.768-3.047ZM84.2,88.138a13.416,13.416,0,0,0,.467,3.206H82.538a8.015,8.015,0,0,1-.844-3.206Zm.73,4.046a9.931,9.931,0,0,0,.842,1.79,7.32,7.32,0,0,0,.951,1.255,8.228,8.228,0,0,1-3.7-3.045Z" fill="#9179b7"/>
    <g id="Grupo_29366" data-name="Grupo 29366">
      <g id="Grupo_29358" data-name="Grupo 29358">
        <g id="Grupo_29357" data-name="Grupo 29357">
          <g id="Grupo_29356" data-name="Grupo 29356">
            <g id="Grupo_29347" data-name="Grupo 29347">
              <path id="Rectángulo_4469" data-name="Rectángulo 4469" d="M1.282,0H55.937a1.283,1.283,0,0,1,1.283,1.283V36.553a1.283,1.283,0,0,1-1.283,1.283H1.282A1.282,1.282,0,0,1,0,36.554V1.282A1.282,1.282,0,0,1,1.282,0Z" transform="translate(144.987 112.086)" fill="#1a222b"/>
            </g>
            <g id="Grupo_29348" data-name="Grupo 29348">
              <path id="Rectángulo_4470" data-name="Rectángulo 4470" d="M1.285,0H55.939a1.283,1.283,0,0,1,1.283,1.283V36.553a1.283,1.283,0,0,1-1.283,1.283H1.282A1.282,1.282,0,0,1,0,36.554V1.285A1.285,1.285,0,0,1,1.285,0Z" transform="translate(142.573 112.086)" fill="#2c3540"/>
            </g>
            <g id="Grupo_29349" data-name="Grupo 29349">
              <path id="Trazado_23585" data-name="Trazado 23585" d="M197.715,146.692a1.274,1.274,0,0,1-1.265,1.27H145.919a1.273,1.273,0,0,1-1.268-1.27V115.311a1.267,1.267,0,0,1,1.268-1.261H196.45a1.268,1.268,0,0,1,1.265,1.261Z" fill="#e4e8ed"/>
            </g>
            <g id="Grupo_29355" data-name="Grupo 29355">
              <path id="Trazado_23586" data-name="Trazado 23586" d="M174.8,137.549h-7.371V133.2h7Z" fill="#c5d5e6"/>
              <g id="Grupo_29352" data-name="Grupo 29352">
                <rect id="Rectángulo_4471" data-name="Rectángulo 4471" width="5.934" height="9.969" transform="translate(167.956 130.594)" fill="#d4a47d"/>
                <path id="Trazado_23587" data-name="Trazado 23587" d="M174.8,135.117a9.14,9.14,0,0,1-.91.693,1.08,1.08,0,0,1-.23.119H171.68a14.579,14.579,0,0,1-2.5-2.026,11.659,11.659,0,0,1-1.224-2.949v-.36h5.933v4.1A6.579,6.579,0,0,0,174.8,135.117Z" fill="#a88f7b" opacity="0.3" style="mix-blend-mode: multiply;isolation: isolate"/>
                <g id="Grupo_29351" data-name="Grupo 29351">
                  <path id="Trazado_23588" data-name="Trazado 23588" d="M170.922,120.536c-4.64,0-4.923,3.748-4.923,7.086a10.227,10.227,0,0,0,1.433,4.534,14.216,14.216,0,0,0,2.5,2.027h1.977a13.919,13.919,0,0,0,2.148-1.695,9.958,9.958,0,0,0,1.791-4.866C175.85,124.284,175.85,120.536,170.922,120.536Z" fill="#ffc89f"/>
                  <path id="Trazado_23589" data-name="Trazado 23589" d="M173.155,120.886a8.2,8.2,0,0,0,.047,2.965,4.391,4.391,0,0,0-1.6-.061c-1.146.118-2.621.718-3.75.267a.06.06,0,0,0-.08.08c.281.865,1.832.741,2.535.666a10.473,10.473,0,0,1,2.407-.084,1.9,1.9,0,0,1,1.058.641c.041.071.078.147.125.218a5.429,5.429,0,0,1,.285,4.244c-.285.865-1.254,1.541-1.927,2.316a5.106,5.106,0,0,1-3.282,1.4,3.806,3.806,0,0,0,.963.642h1.977a13.919,13.919,0,0,0,2.148-1.695,9.958,9.958,0,0,0,1.791-4.866C175.85,124.888,175.85,121.886,173.155,120.886Z" fill="#f0b990"/>
                  <g id="Grupo_29350" data-name="Grupo 29350">
                    <path id="Trazado_23590" data-name="Trazado 23590" d="M166.639,127.723c.164.72-.023,1.377-.422,1.467s-.853-.418-1.019-1.136.031-1.373.426-1.468S166.477,127.007,166.639,127.723Z" fill="#ffc89f"/>
                    <path id="Trazado_23591" data-name="Trazado 23591" d="M175.208,127.723c-.164.72.025,1.377.422,1.467s.855-.418,1.013-1.136-.023-1.373-.422-1.468S175.37,127.007,175.208,127.723Z" fill="#f0b990"/>
                  </g>
                  <path id="Trazado_23592" data-name="Trazado 23592" d="M176.169,122.149c-.659-1.983-2.854-2.712-5.272-2.6-2.422-.115-4.615.614-5.277,2.6a14.582,14.582,0,0,0,.2,4.468c.121.451.549,2.583.7,1.046a14.845,14.845,0,0,1,.535-3.4,1.6,1.6,0,0,1,2.149-.728,4.419,4.419,0,0,0,3.385,0,1.593,1.593,0,0,1,2.146.728,14.91,14.91,0,0,1,.537,3.4c.147,1.537.574-.6.7-1.046A14.705,14.705,0,0,0,176.169,122.149Z" fill="#9aa4af"/>
                  <path id="Trazado_23593" data-name="Trazado 23593" d="M175.76,121.318c-1-1.555-3.615-2.894-6.949-2.24a3.065,3.065,0,0,0-2.346,1.734,1.707,1.707,0,0,0,.413,3.1,3.326,3.326,0,0,1,.628.273,3.583,3.583,0,0,0,1.368.081c1.5-.125,3.2-.561,4.691-.279a4.078,4.078,0,0,1,2.59,1.482C176.2,125.518,176.54,122.53,175.76,121.318Z" fill="#9aa4af"/>
                </g>
              </g>
              <path id="Trazado_23594" data-name="Trazado 23594" d="M175.407,148h-7.485a25.919,25.919,0,0,0,.633-4.968,10.68,10.68,0,0,0-1.3-1.918,5.231,5.231,0,0,1,1.508-2.586c.487-.451,1.434-1.886,2.16-1.918.721.032,1.668,1.467,2.161,1.918a5.313,5.313,0,0,1,1.507,2.586C174.438,141.3,174.821,144.177,175.407,148Z" fill="#c5d5e6"/>
              <path id="Trazado_23595" data-name="Trazado 23595" d="M172.733,148h-3.607l.814-10.088.787.663a.418.418,0,0,0,.207.082.385.385,0,0,0,.207-.089l.783-.667Z" fill="#ff4140"/>
              <path id="Trazado_23596" data-name="Trazado 23596" d="M172.686,137l-1.764-.554-1.757.571a.44.44,0,0,0,0,.678l.365.219,1.107.66a.674.674,0,0,0,.293.083.711.711,0,0,0,.293-.086l1.1-.67.357-.224A.436.436,0,0,0,172.686,137Z" fill="#cc2221"/>
              <path id="Trazado_23597" data-name="Trazado 23597" d="M170.922,136.455c-.029,0-3.494-3.253-3.494-3.253l-.765,2.556,1.138,4.8Z" fill="#fff"/>
              <path id="Trazado_23598" data-name="Trazado 23598" d="M170.922,136.455c.03,0,3.5-3.253,3.5-3.253l.763,2.556-1.136,4.8Z" fill="#fff"/>
              <path id="Trazado_23599" data-name="Trazado 23599" d="M169.274,148l.078-1.233c-.658-1.777-1.793-7.013-1.793-7.013l-.742-4.774-7.812,3.377L155.913,148Z" fill="#17283d"/>
              <path id="Trazado_23600" data-name="Trazado 23600" d="M185.764,148,183.3,138l-8.4-3.025.176,4.882L173.487,148Z" fill="#17283d"/>
              <g id="Grupo_29353" data-name="Grupo 29353">
                <path id="Trazado_23601" data-name="Trazado 23601" d="M164.45,140.919,167.5,148h1.988l-2.553-13.237-3.43,3.138,2.742,1.207Z" fill="#15202e"/>
                <path id="Trazado_23602" data-name="Trazado 23602" d="M177.4,140.919,174.344,148h-1.986l2.551-13.237,3.43,3.138-2.74,1.207Z" fill="#15202e"/>
              </g>
              <g id="Grupo_29354" data-name="Grupo 29354">
                <path id="Trazado_23603" data-name="Trazado 23603" d="M171.053,120.393c-.086-.031-.173-.06-.263-.088a14.987,14.987,0,0,1,3.082,2.911,11.606,11.606,0,0,0-.637-1.569,7.578,7.578,0,0,1,1.439,1.157A6.368,6.368,0,0,0,172.1,120q.648.673,1.3,1.349l-1.2-.756q.335.432.67.866A5.764,5.764,0,0,0,171.053,120.393Z" fill="#e4e8ed"/>
              </g>
            </g>
          </g>
        </g>
      </g>
      <g id="_16" data-name="16">
        <g id="Grupo_29363" data-name="Grupo 29363">
          <g id="Grupo_29359" data-name="Grupo 29359">
            <path id="Trazado_23604" data-name="Trazado 23604" d="M151.049,141.876c.114,1.072-.351,2-1.035,2.071s-1.332-.739-1.443-1.811.35-2,1.037-2.071S150.938,140.8,151.049,141.876Z" fill="#d4a47d"/>
            <path id="Trazado_23605" data-name="Trazado 23605" d="M159.208,141.876c-.114,1.072.351,2,1.035,2.071s1.332-.739,1.443-1.811-.349-2-1.037-2.071S159.319,140.8,159.208,141.876Z" fill="#d4a47d"/>
            <rect id="Rectángulo_4472" data-name="Rectángulo 4472" width="6.125" height="9.059" transform="translate(152.721 143.012)" fill="#d4a47d"/>
            <path id="Trazado_23606" data-name="Trazado 23606" d="M161.038,136.437a4.1,4.1,0,0,0-3.711-3.255,12.853,12.853,0,0,0-5.395.4c-2.121.6-2.676,2.674-2.7,4.6a12.115,12.115,0,0,0,.385,5.1c.547,1.813,1.547,3.937,3.523,4.656a7.925,7.925,0,0,0,1.977.494,4.6,4.6,0,0,0,4.144-1.7,10.433,10.433,0,0,0,2.02-5.585C161.415,140.064,161.637,137.725,161.038,136.437Z" fill="#1a222b"/>
            <rect id="Rectángulo_4473" data-name="Rectángulo 4473" width="6.815" height="2.272" transform="translate(152.378 149.799)" fill="#e4f4ff"/>
            <path id="Trazado_23607" data-name="Trazado 23607" d="M159.065,151.373c.029.016-3.471-.1-3.471-.1l-3.472.1s-7.707,2.474-7.8,2.587l-3.262,8.513.418,11.453,4.692,2.931H165.1l5.41-2.091v-12.73l-3.634-8.076C166.782,153.847,159.036,151.356,159.065,151.373Z" fill="#16405e"/>
          </g>
          <g id="Grupo_29360" data-name="Grupo 29360">
            <path id="Trazado_23608" data-name="Trazado 23608" d="M183.547,141.876c.114,1.072-.351,2-1.035,2.071s-1.332-.739-1.443-1.811.35-2,1.037-2.071S183.436,140.8,183.547,141.876Z" fill="#d4a47d"/>
            <path id="Trazado_23609" data-name="Trazado 23609" d="M191.706,141.876c-.114,1.072.351,2,1.035,2.071s1.332-.739,1.443-1.811-.349-2-1.037-2.071S191.817,140.8,191.706,141.876Z" fill="#d4a47d"/>
            <rect id="Rectángulo_4474" data-name="Rectángulo 4474" width="6.125" height="9.059" transform="translate(185.219 143.012)" fill="#d4a47d"/>
            <path id="Trazado_23610" data-name="Trazado 23610" d="M193.536,136.437a4.1,4.1,0,0,0-3.711-3.255,12.853,12.853,0,0,0-5.4.4c-2.121.6-2.675,2.674-2.7,4.6a12.115,12.115,0,0,0,.385,5.1c.547,1.813,1.547,3.937,3.523,4.656a7.925,7.925,0,0,0,1.977.494,4.6,4.6,0,0,0,4.144-1.7,10.433,10.433,0,0,0,2.02-5.585C193.913,140.064,194.135,137.725,193.536,136.437Z" fill="#7d4e24"/>
            <rect id="Rectángulo_4475" data-name="Rectángulo 4475" width="6.814" height="2.272" transform="translate(184.876 149.799)" fill="#e4f4ff"/>
            <path id="Trazado_23611" data-name="Trazado 23611" d="M191.563,151.373c.029.016-3.471-.1-3.471-.1l-3.472.1s-7.707,2.474-7.8,2.587l-3.262,8.513.418,11.453,4.692,2.931h18.925l5.411-2.091v-12.73l-3.635-8.076C199.28,153.847,191.534,151.356,191.563,151.373Z" fill="#16405e"/>
          </g>
          <g id="Grupo_29362" data-name="Grupo 29362">
            <g id="Grupo_29361" data-name="Grupo 29361">
              <rect id="Rectángulo_4476" data-name="Rectángulo 4476" width="66.568" height="12.474" transform="translate(138.501 168.393)" fill="#e4e8ed"/>
              <rect id="Rectángulo_4477" data-name="Rectángulo 4477" width="66.568" height="3.837" transform="translate(138.501 168.393)" fill="#fff"/>
            </g>
            <path id="Trazado_23612" data-name="Trazado 23612" d="M170.54,181.052V169.665a13.511,13.511,0,0,0-27.022,0v11.387Z" fill="#d9a60f"/>
            <path id="Trazado_23613" data-name="Trazado 23613" d="M169.3,181.052V169.665a13.511,13.511,0,0,0-27.022,0v11.387Z" fill="#f4cd25"/>
            <path id="Trazado_23614" data-name="Trazado 23614" d="M203.454,181.052V169.665a13.511,13.511,0,0,0-27.022,0v11.387Z" fill="#d9a60f"/>
            <path id="Trazado_23615" data-name="Trazado 23615" d="M202.208,181.052V169.665a13.511,13.511,0,0,0-27.022,0v11.387Z" fill="#f4cd25"/>
          </g>
        </g>
        <g id="Grupo_29364" data-name="Grupo 29364">
          <path id="Trazado_23616" data-name="Trazado 23616" d="M150.589,137.907c-.03.088-.055.179-.081.271a15.081,15.081,0,0,1,2.854-3.212,11.431,11.431,0,0,0-1.57.693,7.757,7.757,0,0,1,1.127-1.495,6.473,6.473,0,0,0-2.764,2.7q.661-.681,1.324-1.358l-.728,1.24q.43-.355.857-.706A5.8,5.8,0,0,0,150.589,137.907Z" fill="#494948"/>
        </g>
        <g id="Grupo_29365" data-name="Grupo 29365">
          <path id="Trazado_23617" data-name="Trazado 23617" d="M189.674,134.854c-.05-.077-.109-.151-.166-.228a15.1,15.1,0,0,1,.823,4.218,11.387,11.387,0,0,0,.4-1.669,7.747,7.747,0,0,1,.506,1.8,6.5,6.5,0,0,0-.469-3.836c.092.627.186,1.252.278,1.877-.182-.442-.364-.884-.545-1.331.015.372.027.742.041,1.11A5.806,5.806,0,0,0,189.674,134.854Z" fill="#a86f3d"/>
        </g>
      </g>
    </g>
    <g id="Grupo_29370" data-name="Grupo 29370">
      <g id="Grupo_29369" data-name="Grupo 29369">
        <g id="Grupo_29368" data-name="Grupo 29368">
          <path id="Trazado_23618" data-name="Trazado 23618" d="M88.016,144.376l-4.678-.784-19.525,3.831,15.738,14.989,5.807-2.361,2.658-1.007Z" fill="#d4a47d"/>
          <path id="Trazado_23619" data-name="Trazado 23619" d="M83.339,143.592l-2.54.5c1.354,3.713,1.612,7.377-.513,10.564a2.7,2.7,0,0,1-2.967,0c-2.967-2.374-5.934-6.527-9.492-5.341a4.953,4.953,0,0,0-1.246.746l12.97,12.353,5.807-2.361,2.658-1.007V144.376Z" fill="#a88f7b" opacity="0.3" style="mix-blend-mode: multiply;isolation: isolate"/>
          <path id="Trazado_23620" data-name="Trazado 23620" d="M46.694,144.3l6.318.855s8.461-1.205,12.5-.353l1.53,2.693,9.1,8.214a16.675,16.675,0,0,1-2.925,3.65c-1.125,1.066-12.016,3.313-14.286,1.171-1.49-1.4-5.254.292-5.254.292l-6.148-2.578-4-.784Z" fill="#ffc89f"/>
          <path id="Trazado_23621" data-name="Trazado 23621" d="M59.755,159.833a1.853,1.853,0,0,1-.276-2.6h0a1.854,1.854,0,0,1,2.6-.273l4.341,3.785a1.851,1.851,0,0,1,.272,2.6h0a1.848,1.848,0,0,1-2.6.272l-.494-.39Z" fill="#ffc89f"/>
          <path id="Trazado_23622" data-name="Trazado 23622" d="M65.071,160.831a1.855,1.855,0,0,1-.274-2.6h0a1.852,1.852,0,0,1,2.6-.273l4.34,3.785a1.847,1.847,0,0,1,.273,2.6h0a1.85,1.85,0,0,1-2.6.275l-.494-.392Z" fill="#ffc89f"/>
          <path id="Trazado_23623" data-name="Trazado 23623" d="M69.044,159.741a2,2,0,0,1-.3-2.814h0a2,2,0,0,1,2.814-.295l4.695,4.092a2,2,0,0,1,.3,2.812h0a2,2,0,0,1-2.814.3l-.535-.424Z" fill="#ffc89f"/>
          <path id="Trazado_23624" data-name="Trazado 23624" d="M74.044,158.951a2,2,0,0,1-.3-2.815h0c.695-.858-9.578-11.351-8.721-10.655l16.229,14.452a2,2,0,0,1,.3,2.815h0a2,2,0,0,1-2.814.295l-.535-.423Z" fill="#ffc89f"/>
          <path id="Trazado_23625" data-name="Trazado 23625" d="M80.36,149.945a26.752,26.752,0,0,0-5.889-.57L68.407,148.3c-3.529,3.785-7.2,4.795-8.777,4.659-1.272-.108-1.793-1.935-1.645-2.2,1.305-2.363,10.861-8.367,10.861-8.367L80.212,144.3Z" fill="#d4a47d"/>
          <path id="Trazado_23626" data-name="Trazado 23626" d="M90.958,150.685l-1.943-9.074-6.631,1.419,1.943,9.073,1.938,9.063,6.633-1.42Z" fill="#fff"/>
          <path id="Trazado_23627" data-name="Trazado 23627" d="M44.081,141.743l-2,8.1-2,8.093,5.922,1.466,2-8.093,2-8.1Z" fill="#fff"/>
          <g id="Grupo_29367" data-name="Grupo 29367">
            <path id="Trazado_23628" data-name="Trazado 23628" d="M56.026,161.911a1.552,1.552,0,0,1-1.9,1.079h0a1.549,1.549,0,0,1-1.282-1.764l.553-2.565a1.548,1.548,0,0,1,1.9-1.079h0a1.547,1.547,0,0,1,1.283,1.765Z" fill="#d4a47d"/>
            <path id="Trazado_23629" data-name="Trazado 23629" d="M59.258,162.527a1.642,1.642,0,0,1-1.939,1.284h0a1.641,1.641,0,0,1-1.238-1.967l.633-2.94a1.644,1.644,0,0,1,1.941-1.284h0a1.644,1.644,0,0,1,1.238,1.969Z" fill="#d4a47d"/>
            <path id="Trazado_23630" data-name="Trazado 23630" d="M62.485,163.146a1.571,1.571,0,0,1-1.908,1.131h0a1.572,1.572,0,0,1-1.272-1.816l.573-2.657a1.57,1.57,0,0,1,1.908-1.132h0a1.568,1.568,0,0,1,1.271,1.816Z" fill="#d4a47d"/>
            <path id="Trazado_23631" data-name="Trazado 23631" d="M65.446,163.831a1.4,1.4,0,0,1-1.736.9h0A1.4,1.4,0,0,1,62.5,163.2l.476-2.2a1.392,1.392,0,0,1,1.733-.9h0a1.392,1.392,0,0,1,1.207,1.535Z" fill="#d4a47d"/>
          </g>
          <path id="Trazado_23632" data-name="Trazado 23632" d="M93.424,149.937l-2.061-9.613-7.023,1.5,2.057,9.612,2.057,9.6,7.027-1.5Z" fill="#14b0bf"/>
          <path id="Trazado_23633" data-name="Trazado 23633" d="M90.319,140.549l-5.979,1.28,2.057,9.612,1.731,8.076C93.522,155.853,87.819,146.382,90.319,140.549Z" fill="#0b7885"/>
          <path id="Trazado_23634" data-name="Trazado 23634" d="M95.481,159.539l-2.057-9.6-2.06-9.613-1.045.225c-2.5,5.833,3.2,15.3-2.191,18.968l.326,1.527Z" fill="#0b7885"/>
          <path id="Trazado_23635" data-name="Trazado 23635" d="M42.454,139.85l-2.244,9.072-2.244,9.062,6.633,1.641,2.242-9.062,2.242-9.071Z" fill="#17283d"/>
          <path id="Trazado_23636" data-name="Trazado 23636" d="M47.346,141.061c-1.373,5.661-3.3,13.785-8.84,14.743l-.541,2.18,6.633,1.641,2.242-9.063,2.243-9.071Z" fill="#15202e"/>
        </g>
      </g>
    </g>
    <g id="Grupo_29372" data-name="Grupo 29372">
      <g id="Grupo_29371" data-name="Grupo 29371">
        <path id="Trazado_23637" data-name="Trazado 23637" d="M172.811,92.535a.145.145,0,0,0-.2-.052l-.76.43a.149.149,0,0,0-.055.2l.071.12a.139.139,0,0,0,.125.074.127.127,0,0,0,.07-.019l.762-.431a.139.139,0,0,0,.068-.088.134.134,0,0,0-.013-.109Z" fill="#9179b7"/>
        <path id="Trazado_23638" data-name="Trazado 23638" d="M170.432,94.161a.185.185,0,0,0,.039.006.149.149,0,0,0,.073-.02l.759-.431a.136.136,0,0,0,.069-.087.149.149,0,0,0-.014-.111l-.068-.12a.141.141,0,0,0-.2-.053l-.761.429a.146.146,0,0,0-.055.2l.068.121A.141.141,0,0,0,170.432,94.161Z" fill="#9179b7"/>
        <path id="Trazado_23639" data-name="Trazado 23639" d="M189.4,92.117a.153.153,0,0,0-.109-.016.142.142,0,0,0-.088.069l-.071.118a.15.15,0,0,0,.051.2l.682.4a.142.142,0,0,0,.074.02.144.144,0,0,0,.125-.072l.068-.119a.135.135,0,0,0,.018-.11.151.151,0,0,0-.068-.088Z" fill="#9179b7"/>
        <path id="Trazado_23640" data-name="Trazado 23640" d="M191.932,93.758l-.07.119a.144.144,0,0,0,.053.2l.681.4a.135.135,0,0,0,.073.021.148.148,0,0,0,.125-.072l.068-.12a.152.152,0,0,0,.018-.11.165.165,0,0,0-.069-.089l-.681-.395A.144.144,0,0,0,191.932,93.758Z" fill="#9179b7"/>
        <path id="Trazado_23641" data-name="Trazado 23641" d="M191.3,93.7a.143.143,0,0,0,.125-.072l.071-.12a.143.143,0,0,0-.053-.2l-.68-.4a.159.159,0,0,0-.111-.016.149.149,0,0,0-.086.069l-.072.121a.145.145,0,0,0,.052.2l.682.4A.14.14,0,0,0,191.3,93.7Z" fill="#9179b7"/>
        <path id="Rectángulo_4478" data-name="Rectángulo 4478" d="M.145,0H.283A.145.145,0,0,1,.428.145V.932a.146.146,0,0,1-.146.146H.144A.144.144,0,0,1,0,.933V.145A.145.145,0,0,1,.145,0Z" transform="translate(181.233 98.217)" fill="#9179b7"/>
        <path id="Rectángulo_4479" data-name="Rectángulo 4479" d="M.143,0H.283A.145.145,0,0,1,.428.145V.931a.144.144,0,0,1-.144.144H.144A.144.144,0,0,1,0,.93V.143A.143.143,0,0,1,.143,0Z" transform="translate(181.233 95.072)" fill="#9179b7"/>
        <path id="Rectángulo_4480" data-name="Rectángulo 4480" d="M.146,0H.283A.145.145,0,0,1,.428.145V.931a.146.146,0,0,1-.146.146H.144A.144.144,0,0,1,0,.932V.146A.146.146,0,0,1,.146,0Z" transform="translate(181.233 96.645)" fill="#9179b7"/>
        <path id="Trazado_23642" data-name="Trazado 23642" d="M193,87.278c0-1.953-1.969-3.543-4.387-3.543a5.515,5.515,0,0,0-.7.047,3.667,3.667,0,0,0-3.284-1.99c-.1,0-.193,0-.3.014a3.406,3.406,0,0,0-3.258-2.822,3.347,3.347,0,0,0-3.2,2.556,2.973,2.973,0,0,0-.647-.071,3.378,3.378,0,0,0-3.279,2.909,3.163,3.163,0,0,0-1.375-.318,3.548,3.548,0,0,0,0,7.084,3.358,3.358,0,0,0,.336-.018,3.551,3.551,0,0,0,.525.891l-.06.035a.138.138,0,0,0-.069.086.159.159,0,0,0,.014.111l.068.121a.15.15,0,0,0,.127.072.147.147,0,0,0,.073-.019l.142-.081a3.244,3.244,0,0,0,2.236.924,3.139,3.139,0,0,0,1.2-.236,5.472,5.472,0,0,0,3.769,1.385c.1,0,.2,0,.3-.008v.023a.144.144,0,0,0,.145.145h.138a.144.144,0,0,0,.145-.145v-.055a4.646,4.646,0,0,0,3.711-2.242,3.152,3.152,0,0,0,1.8.564,3.314,3.314,0,0,0,3.048-2.12A3.658,3.658,0,0,0,193,87.278Z" fill="#9179b7"/>
        <path id="Trazado_23643" data-name="Trazado 23643" d="M170.9,95.367a1.363,1.363,0,0,0-.391.06,1.446,1.446,0,0,0-.71-.865.153.153,0,0,0,.056-.07.151.151,0,0,0-.015-.112l-.069-.119a.142.142,0,0,0-.2-.053l-.357.2c-.014,0-.03,0-.043,0a1.046,1.046,0,0,0-.125.007,1.4,1.4,0,0,0-1.3-.928,1.425,1.425,0,0,0-1.342,1.042,1.534,1.534,0,0,0-1.293.725c-.055,0-.109,0-.166,0a1.665,1.665,0,0,0-1.8,1.482,1.506,1.506,0,0,0,1.076,1.362,1.4,1.4,0,0,0,1.258.819,1.321,1.321,0,0,0,.608-.147,2.061,2.061,0,0,0,1.707.785,2.245,2.245,0,0,0,1.437-.49,1.331,1.331,0,0,0,.406.065,1.406,1.406,0,0,0,1.241-.788l.019,0a1.488,1.488,0,0,0,0-2.971Z" fill="#9179b7"/>
        <path id="Trazado_23644" data-name="Trazado 23644" d="M198.643,95.367a1.38,1.38,0,0,0-.392.06,1.41,1.41,0,0,0-1.336-1.021.99.99,0,0,0-.123.007,1.4,1.4,0,0,0-1.305-.928,1.423,1.423,0,0,0-1.34,1.042,1.559,1.559,0,0,0-.473.08l-.183-.106a.143.143,0,0,0-.2.053l-.071.119a.141.141,0,0,0-.013.108c0,.021.021.031.035.048a1.54,1.54,0,0,0-.393.423c-.055,0-.109,0-.164,0a1.667,1.667,0,0,0-1.8,1.482,1.511,1.511,0,0,0,1.078,1.362,1.394,1.394,0,0,0,1.256.819,1.323,1.323,0,0,0,.61-.147,2.055,2.055,0,0,0,1.707.785,2.233,2.233,0,0,0,1.435-.49,1.344,1.344,0,0,0,.408.065,1.408,1.408,0,0,0,1.241-.788l.019,0a1.488,1.488,0,0,0,0-2.971Z" fill="#9179b7"/>
        <path id="Trazado_23645" data-name="Trazado 23645" d="M184.34,101.421a1.327,1.327,0,0,0-.39.059,1.413,1.413,0,0,0-1.34-1.021c-.037,0-.078,0-.121.006a1.4,1.4,0,0,0-1.3-.927,1.426,1.426,0,0,0-1.34,1.041,1.532,1.532,0,0,0-1.291.727c-.056,0-.113,0-.168,0a1.667,1.667,0,0,0-1.8,1.484,1.506,1.506,0,0,0,1.08,1.359,1.387,1.387,0,0,0,1.254.819,1.322,1.322,0,0,0,.609-.147,2.055,2.055,0,0,0,1.707.785,2.237,2.237,0,0,0,1.437-.49,1.294,1.294,0,0,0,.407.065,1.411,1.411,0,0,0,1.24-.788h.019a1.486,1.486,0,0,0,0-2.968Z" fill="#9179b7"/>
      </g>
    </g>
  </g>
</svg>
