<?xml version="1.0" encoding="utf-8"?>
<!-- Generator: Adobe Illustrator 24.3.0, SVG Export Plug-In . SVG Version: 6.00 Build 0)  -->
<svg version="1.1" id="Layer_1" xmlns="http://www.w3.org/2000/svg" xmlns:xlink="http://www.w3.org/1999/xlink" x="0px" y="0px"
	 viewBox="0 0 428.3 231.7" style="enable-background:new 0 0 428.3 231.7;" xml:space="preserve">
<style type="text/css">
	.st0{fill:#E7D7F7;}
	.st1{fill:#A7A9AC;}
	.st2{fill:#FFFFFF;}
	.st3{fill:#19365A;}
	
		.st4{fill:none;stroke:#244E80;stroke-width:0.8504;stroke-linecap:round;stroke-linejoin:round;stroke-miterlimit:10;stroke-dasharray:2.8347;}
	.st5{fill:#A05E47;}
	.st6{fill:#E59B39;}
	.st7{fill:#632A1A;}
	.st8{fill:#FBB040;}
	.st9{fill:#D38E33;}
	.st10{fill:#774031;}
	.st11{opacity:0.3;fill:#171E26;enable-background:new    ;}
	.st12{fill:#7F4637;}
	.st13{fill:#D3AFA5;}
	.st14{fill:#EACFC5;}
	.st15{fill:#171C27;}
	.st16{fill:none;stroke:#7F4637;stroke-width:0.5669;stroke-linecap:round;stroke-linejoin:round;stroke-miterlimit:10;}
	.st17{fill:none;stroke:#A5867C;stroke-width:0.2835;stroke-linecap:round;stroke-linejoin:round;stroke-miterlimit:10;}
	.st18{fill:#503972;}
	.st19{fill:#DBA38D;}
	.st20{fill:#F75454;}
	.st21{fill:#BF4040;}
	.st22{fill:#EEB399;}
	.st23{fill:#C18B76;}
	.st24{fill:#638DCE;}
	.st25{fill:#B57359;}
	.st26{fill:#7298E2;}
	.st27{fill:#725FDD;}
	.st28{fill:#0D2638;}
	.st29{fill:#224CB3;}
	.st30{fill:#3F649E;}
	.st31{fill:#CC957F;}
	.st32{fill:#171E26;}
	.st33{fill:none;stroke:#3C62A0;stroke-width:0.2835;stroke-linecap:round;stroke-linejoin:round;stroke-miterlimit:10;}
	.st34{fill:#173658;}
	.st35{fill:#FFFFFF;stroke:#1F74C2;stroke-linecap:round;stroke-linejoin:round;stroke-miterlimit:10;}
	.st36{fill:#8A5FDD;}
	.st37{fill:#9D5FDD;}
	.st38{fill:none;stroke:#19365A;stroke-miterlimit:10;}
	.st39{fill:#A48CE0;}
</style>
<g id="Background">
</g>
<g id="Objects">
	<g>
		<g>
			<path class="st0" d="M312.6,44.4c-28-7.4-61.1-11-90.5-12.2C168.8,30,114.8,41.6,69.3,65C45,77.5,22.6,93.9,9.9,115.3
				C-22,168.8,28.1,217.9,91.1,228.4c31.7,5.3,64.5,3.1,96.8,1.4c42-2.2,84.1-3.6,126.1-1.2c16,0.9,32.3,2.3,47.9-0.6
				c36.7-6.8,62.3-37.4,65.9-68.5c3-25.9-7.4-52.7-28.1-72.3c-8.9-8.5-19.5-15.5-31-21.4C350.7,56.6,332,49.5,312.6,44.4z"/>
			<g>
				<g>
					<polygon class="st1" points="302.7,80.3 295,84.7 306.9,87.3 306.9,95.6 312.7,89.7 325.8,92.5 338.9,68.6 					"/>
					<g>
						<g>
							<g>
								<polygon class="st2" points="305.6,84.7 305.6,92.5 313.7,85.4 								"/>
								<polygon class="st2" points="307.7,85.4 339.6,63.9 324.4,89 								"/>
								<polygon class="st2" points="339.6,63.9 294.5,80.7 307.7,85.4 								"/>
								<polygon class="st3" points="307.7,85.4 305.6,84.7 339.6,63.9 								"/>
							</g>
						</g>
					</g>
				</g>
				<path class="st4" d="M303.5,97.9c-9.6,7.1-22.9,9.8-35.8,9.6c-5.6-0.1-11.3-0.7-16.3-2.6c-2.6-1-5.1-2.5-6.7-4.5
					c-1.6-2-2.1-4.7-0.9-6.9c1.2-2.2,4.4-3.6,7.2-2.8c2.9,0.8,4.4,3.9,3.7,6.4c-0.6,2.5-2.8,4.6-5.3,6.2c-6.1,4-14.1,5.9-21.9,5.9
					c-7.8,0.1-15.5-1.5-22.9-3.6"/>
			</g>
			<path class="st2" d="M151.5,82.1c1.1,0,2.2-0.1,3.2-0.4c0.8-0.3,1.4-0.7,2-1.2c3.9-3.5,2.5-10-2.7-12.2
				c-5.1-2.1-12.2,0.9-13.2,5.6c-0.4-1.5-2-2.6-3.8-2.8c-1.8-0.2-3.7,0.7-4.5,2.1c-1.2-3.8-3.2-7.5-6.9-10
				c-3.6-2.5-9.1-3.4-13.1-1.3c-5,2.6-5.7,8.5-5.3,13.4c-0.3-3.3-8.1,0.3-8.8,1.9c-3.2-2-9.3,0.1-6.4,3.4c2.4,2.7,10.9,2.2,14.4,2.2
				C121.5,82.7,136.5,82.4,151.5,82.1z"/>
			<path class="st0" d="M345.4,32.7c1.1,0,2.2-0.1,3.2-0.4c0.8-0.3,1.4-0.7,2-1.2c3.9-3.5,2.5-10-2.7-12.2
				c-5.1-2.1-12.2,0.9-13.2,5.6c-0.4-1.5-2-2.6-3.8-2.8c-1.8-0.2-3.7,0.7-4.5,2.1c-1.2-3.8-3.2-7.5-6.9-10
				c-3.6-2.5-9.1-3.4-13.1-1.3c-5,2.6-5.7,8.5-5.3,13.4c-0.3-3.3-8.1,0.3-8.8,1.9c-3.2-2-9.3,0.1-6.4,3.4c2.4,2.7,10.9,2.2,14.4,2.2
				C315.3,33.3,330.3,33,345.4,32.7z"/>
		</g>
		<g>
			<g>
				<path class="st3" d="M281,228.6l-31.7-3.5l4.2-38.3c0.5-4.4,4.5-7.6,8.9-7.1l15.7,1.7c4.4,0.5,7.6,4.5,7.1,8.9L281,228.6z"/>
				<path class="st5" d="M245.8,178.8c0,0-4.2-1-8-4.9c-5.3-5.4-7.7-13.5-7.3-24.3l0,0c-4-0.7-11.2-0.4-11.2-0.4
					c-0.7,17.9,5.6,28,11.1,33.3c6.1,5.9,12.4,7.3,13.2,7.4c0.4,0.1,0.8,0.1,1.1,0.1c2.6,0,5-1.8,5.6-4.5
					C250.8,182.4,248.9,179.4,245.8,178.8z"/>
				<path class="st6" d="M243.7,190.2c0.4,0.1,0.8,0.1,1.2,0.1c2.7,0,5.2-1.9,5.8-4.7c0.6-3.2-1.4-6.2-4.5-6.9c0,0-4.3-1-8.3-5.1
					c-0.9-0.9-1.8-2-2.5-3.1l-8.4,8.3c1.1,1.4,2.2,2.6,3.3,3.6C236.4,188.6,242.9,190.1,243.7,190.2z"/>
				<path class="st5" d="M230.2,143.6c-0.1-0.5-0.2-1-0.5-1.4s-0.9-0.6-1.3-0.3c-0.6,0.4-0.3,1.4-0.6,2.1c-0.2,0.5-0.8,0.8-1.4,0.8
					c-0.6,0.1-1.1,0-1.7-0.1c-2.7-0.1-5.2,2-5.6,4.7c-0.1,0.5-0.1,1,0.2,1.5c0.4,0.5,1.1,0.6,1.7,0.7c1.7,0.2,3.4,0.5,5.1,0.4
					c1.5-0.1,4.1-0.5,4.3-2.3C230.7,147.8,230.4,145.5,230.2,143.6z"/>
				<path class="st7" d="M221.7,150.8c-0.1-0.1-0.1-0.2-0.2-0.3c-0.1-0.1,0-0.2,0.1-0.3s0.2,0,0.3,0.1c0.2,0.3,0.4,0.4,0.6,0.4
					c0.4,0,0.9-0.5,1.1-0.7l0.1-0.1c0.1,0,0.1,0,0.1,0c0.3,0.3,0.6,0.4,0.9,0.4c0.4-0.1,0.6-0.6,0.6-0.6c0-0.1,0.1-0.1,0.2-0.1
					c0.1,0,0.1,0,0.2,0.1c0.2,0.3,0.4,0.4,0.5,0.5c0.2,0,0.4-0.1,0.4-0.1c1.6-1.1-0.4-4.9-0.4-4.9c-0.1-0.1,0-0.2,0.1-0.3
					s0.2,0,0.3,0.1c0.1,0.2,2.1,4.1,0.3,5.4c0,0-0.3,0.2-0.7,0.2c-0.2,0-0.4-0.2-0.6-0.4c-0.1,0.2-0.4,0.5-0.7,0.5
					c-0.3,0.1-0.7,0-1.1-0.3c-0.2,0.2-0.7,0.7-1.3,0.6C222.1,151.1,221.9,151,221.7,150.8z"/>
				<path class="st7" d="M225.2,150v-0.1c0,0-0.6-3.8-1.1-4.8c-0.1-0.1,0-0.2,0.1-0.3s0.2,0,0.3,0.1c0.6,1.1,1.1,4.8,1.2,4.9
					c0,0.1-0.1,0.2-0.2,0.2C225.3,150.1,225.3,150.1,225.2,150z"/>
				<path class="st7" d="M223.5,150.3C223.4,150.3,223.4,150.3,223.5,150.3c-0.1-0.1-0.7-3.8-1.3-4.7c-0.1-0.1,0-0.2,0.1-0.3
					s0.2,0,0.3,0.1c0.6,1,1.2,4.6,1.2,4.8c0,0.1-0.1,0.2-0.2,0.2C223.6,150.4,223.5,150.4,223.5,150.3z"/>
				<path class="st7" d="M227.2,149.4c0,0-0.1-0.1,0-0.2c0.1-0.3,0.3-0.5,0.5-0.6c-0.2-0.5-0.4-1-0.5-1.5c-0.1-0.6-0.1-1.2,0.1-1.7
					c0.1-0.3,0.2-0.5,0.4-0.6c0.3-0.2,0.7-0.2,1.1-0.1c0.3,0.2,0.6,0.4,0.8,0.6c0.6,0.7,1,1.5,1.2,2.4c0,0.1,0,0.2-0.1,0.2
					s-0.2,0-0.2-0.1c-0.2-0.8-0.6-1.5-1.1-2.2c-0.2-0.2-0.4-0.4-0.6-0.5c-0.2-0.1-0.5-0.1-0.7,0c-0.1,0.1-0.2,0.2-0.3,0.4
					c-0.1,0.4-0.2,0.9,0,1.5c0.1,0.5,0.3,1,0.5,1.5c0,0.1,0.1,0.2,0,0.3c0,0.1-0.2,0.2-0.2,0.2c-0.2,0.1-0.3,0.2-0.3,0.4
					C227.5,149.4,227.4,149.5,227.2,149.4L227.2,149.4z"/>
				<path class="st8" d="M236.4,187l2.7,35.4c0,0,8,4.4,19.3,3c11.3-1.3,13.8-6.3,13.8-6.3s-2-34.8-2.3-35.1
					c-0.3-0.3-1.7-11.8-18-9.4C235.5,177,236.4,187,236.4,187z"/>
				<path class="st9" d="M260,188.4c0,0,9.1,15.3,3.2,32.3c0,0,9.3-13.4,9-17.9C271.8,198.4,260,188.4,260,188.4z"/>
				<path class="st5" d="M281,200.5l-13.3-21.2c-1.7-2.6-5.2-3.4-7.8-1.8c-2.6,1.7-3.4,5.2-1.8,7.8l11.7,18.6l-8.2,17.9
					c0,0,4,4.9,10.3,4.7l9.5-20.7C282.1,204.2,282,202.1,281,200.5z"/>
				<g>
					<polygon class="st5" points="259.3,168.4 255.8,177.6 250,179.8 246.9,175.7 249,170.2 					"/>
				</g>
				<path class="st10" d="M256.4,172.6l-8.1-0.4l-1.1,2.9C251.3,176.2,256.4,172.6,256.4,172.6z"/>
				<path class="st5" d="M250.2,174.5l-3.8-1.5c-3.2-1.2-4.9-4.9-3.6-8.2l4-10.5c1.2-3.2,4.9-4.9,8.2-3.6l3.8,1.5
					c3.2,1.2,4.9,4.9,3.6,8.2l-4,10.5C257.1,174.1,253.4,175.8,250.2,174.5z"/>
				<path class="st11" d="M258.8,152.2l-3.8-1.5c-2.8-1.1-6,0-7.6,2.5c0.5,0.9,1.3,1.7,2.2,2.1c1.7,0.9,3.8,1,5.7,0.7
					c0.8-0.1,1.5-0.2,2.3-0.1c0.7,0.2,1.4,0.8,1.4,1.6c0,0.6-0.5,1.2-1,1.5c-0.3,0.2-0.7,0.4-0.9,0.7c-0.3,0.4-0.4,0.9-0.5,1.4
					c-0.2,1.6-0.2,3.3,0.6,4.7c0.4,0.8,1.1,1.4,1.8,1.9c0.1,0.1,0.2,0.2,0.4,0.3l3-7.8C263.6,157.2,262,153.5,258.8,152.2z"/>
				<path class="st5" d="M262.2,168.3c-0.4,1.1-1.6,1.6-2.6,1.2c-1.1-0.4-1.6-1.6-1.2-2.6c0.4-1.1,1.6-1.6,2.6-1.2
					C262.1,166.1,262.6,167.3,262.2,168.3z"/>
				<path class="st8" d="M267.6,179.3c-1.7-2.6-5.2-3.4-7.8-1.8c-2.6,1.7-3.4,5.2-1.8,7.8l6,9.5c1.9-0.7,6.9-2.8,10.1-5.3
					L267.6,179.3z"/>
				<path class="st5" d="M271.1,228.6c-0.3,0.6-0.6,1.3-1.2,1.7s-1.4,0.5-1.9,0c-0.2-0.3-0.4-0.7-0.7-0.8c-0.4-0.2-0.9,0.2-1.3,0.3
					c-0.8,0.2-1.7-0.4-2-1.1c-0.1-0.3-0.2-0.6-0.4-0.7c-0.5-0.3-1.3,0.3-1.8,0c-0.4-0.3-0.3-0.9-0.6-1.2c-0.2-0.2-0.5-0.1-0.7-0.2
					c-0.4-0.2-0.6-0.6-0.6-1.1c0-0.4,0.2-0.8,0.4-1.2c0.3-0.6,0.6-1.2,0.9-1.8c0.2-0.4,0.3-0.7,0.6-1c0.6-0.6,1.6-0.5,2.4-0.4
					c1.6,0.2,3.2,0.6,4.6,1.3c1.2,0.6,2.3,1.6,2.9,2.8C272.4,226.2,271.6,227.6,271.1,228.6z"/>
			</g>
			<g>
				<path class="st3" d="M69.9,228.6H38V190c0-4.4,3.6-8.1,8.1-8.1h15.8c4.4,0,8.1,3.6,8.1,8.1L69.9,228.6L69.9,228.6z"/>
				<g>
					<g>
						<path class="st5" d="M70.2,181.9c2.8-1.4,6.2-0.2,7.6,2.6l8.8,18.2l20.7-7.7c1.1,7,4,10.1,4,10.1l-25.5,10.1
							c-1.3,0.5-2.7,0.5-4,0c-1.4-0.5-2.5-1.5-3.2-2.9l-11.1-22.9C66.2,186.7,67.4,183.3,70.2,181.9z"/>
						<path class="st12" d="M81.8,215.3c1.2,0.4,2.6,0.5,4,0l9.4-3.7c-3.8-3-6.2-6.5-7.7-9.1l-0.9,0.3l-3.4-7.1
							c-3.3-1.2-9.3-1.3-13.2-1.3l8.7,18C79.3,213.8,80.5,214.8,81.8,215.3z"/>
						<path class="st13" d="M71.5,197.7l5.1,6.5l8.4-4.7l-7.2-14.9c-1.2-2.4-3.8-3.6-6.3-3.1l-0.3,0.1L71.5,197.7z"/>
						<path class="st5" d="M113,192.9c0.5-0.1,0.9-0.2,1.4-0.1c0.4,0.1,0.8,0.6,0.7,1c-0.1,0.7-1.1,0.8-1.6,1.3
							c-0.4,0.4-0.4,1-0.2,1.5c0.2,0.5,0.4,1,0.7,1.5c1.1,2.3,0.1,5.4-2,6.7c-0.4,0.3-0.9,0.5-1.4,0.4c-0.6-0.1-1-0.7-1.3-1.2
							c-0.8-1.4-1.7-2.8-2.2-4.4c-0.5-1.4-1-3.8,0.5-4.7S111.2,193.4,113,192.9z"/>
						<path class="st12" d="M110,202.9c0.1,0,0.2,0.1,0.3,0.1c0.1,0,0.2-0.1,0.2-0.2c0-0.1-0.1-0.2-0.2-0.2c-0.3,0-0.5-0.2-0.6-0.4
							c-0.2-0.4,0.1-1,0.2-1.2c0,0,0-0.1,0-0.2c0-0.1-0.1-0.1-0.1-0.1c-0.4-0.2-0.6-0.4-0.7-0.6c-0.1-0.4,0.3-0.7,0.3-0.7
							c0.1,0,0.1-0.1,0.1-0.2c0-0.1-0.1-0.1-0.2-0.1c-0.3,0-0.5-0.1-0.6-0.3s-0.1-0.4-0.1-0.4c0.4-1.9,4.5-1.5,4.5-1.5
							c0.1,0,0.2-0.1,0.2-0.2c0-0.1-0.1-0.2-0.2-0.2c-0.2,0-4.4-0.4-4.9,1.8c0,0-0.1,0.3,0.1,0.7c0.1,0.2,0.3,0.3,0.6,0.4
							c-0.1,0.2-0.3,0.5-0.2,0.8c0.1,0.3,0.3,0.6,0.7,0.8c-0.1,0.3-0.3,0.9-0.1,1.4C109.5,202.7,109.7,202.8,110,202.9z"/>
						<path class="st12" d="M109.3,199.5L109.3,199.5c0.1,0,3.7-0.9,4.8-0.8c0.1,0,0.2-0.1,0.2-0.2c0-0.1-0.1-0.2-0.2-0.2
							c-1.2-0.1-4.7,0.8-4.8,0.8c-0.1,0-0.2,0.1-0.1,0.2C109.2,199.4,109.3,199.5,109.3,199.5z"/>
						<path class="st12" d="M109.7,201.2L109.7,201.2c0.1,0,3.7-0.8,4.7-0.7c0.1,0,0.2-0.1,0.2-0.2c0-0.1-0.1-0.2-0.2-0.2
							c-1.1-0.1-4.6,0.6-4.7,0.7c-0.1,0-0.2,0.1-0.1,0.2C109.6,201.1,109.7,201.1,109.7,201.2z"/>
						<path class="st12" d="M110.3,203L110.3,203c0.1,0,2.1-0.8,3.8-0.7c0.1,0,0.2-0.1,0.2-0.2c0-0.1-0.1-0.2-0.2-0.2
							c-1.8,0-3.7,0.7-3.8,0.7c-0.1,0-0.1,0.1-0.1,0.2S110.2,203,110.3,203z"/>
						<path class="st12" d="M109,197.7c0.1,0,0.1,0,0.2,0c0.2-0.2,0.3-0.4,0.3-0.7c0.6,0,1.1,0,1.6-0.1c0.6-0.1,1.1-0.3,1.5-0.7
							c0.2-0.2,0.3-0.4,0.4-0.6c0.1-0.3-0.1-0.7-0.3-1c-0.3-0.2-0.6-0.3-0.9-0.4c-0.8-0.2-1.7-0.3-2.5-0.2c-0.1,0-0.2,0.1-0.2,0.2
							c0,0.1,0.1,0.2,0.2,0.2c0.8-0.1,1.6-0.1,2.4,0.2c0.2,0.1,0.5,0.2,0.7,0.3c0.2,0.2,0.3,0.4,0.2,0.6c0,0.1-0.1,0.3-0.3,0.4
							c-0.3,0.3-0.8,0.5-1.3,0.6s-1,0.1-1.5,0.1c-0.1,0-0.2,0-0.3,0.1c-0.1,0.1-0.1,0.2-0.1,0.3c0,0.2-0.1,0.3-0.2,0.4
							C108.8,197.4,108.8,197.5,109,197.7C108.9,197.6,108.9,197.6,109,197.7z"/>
					</g>
					<path class="st14" d="M79.8,190.2L77,226c0,0-8.1,4.4-19.5,3.1c-11.4-1.3-13.9-6.4-13.9-6.4s2-35.1,2.3-35.4
						c0.3-0.3,1.7-11.9,18.2-9.5C80.6,180.1,79.8,190.2,79.8,190.2z"/>
					<g>
						<polygon class="st5" points="60.3,167.5 60.3,177.4 66.2,182.2 69.3,178.9 69.3,172.9 						"/>
					</g>
					<path class="st12" d="M61.5,172.7l7.8,2.6v3.2C65,177.9,61.5,172.7,61.5,172.7z"/>
					<path class="st5" d="M67.7,176.7h2.1c4,0,7.4-3.3,7.4-7.4V160c0-4-3.3-7.4-7.4-7.4h-2.1c-4,0-7.4,3.3-7.4,7.4v9.4
						C60.3,173.4,63.6,176.7,67.7,176.7z"/>
					<path class="st15" d="M60.6,166c0.3,0.7,1.2,1.2,1.7,0.7c0.2-0.2,0.3-0.4,0.3-0.7c0.3-1.4,0.4-2.9,0.2-4.3
						c-0.3-1.7-0.9-3.6,0.1-5c0.6-0.9,1.9-1.3,3-1c0.5,0.2,1,0.6,1.6,0.7c1.1,0.4,2.3-0.1,3.4-0.3c2.1-0.3,4.4,0.5,6.3-0.4
						c1.1-0.5,1.8-1.6,2-2.8c0-0.3,0-0.7-0.1-1c-0.2-0.6-0.9-1-1.5-1.1c-1.5-0.3-3,0.4-4.4,0.1c-0.9-0.2-1.7-0.9-2.6-1
						c-1.3-0.2-2.5,0.6-3.8,0.9c-1.3,0.3-2.6,0.1-3.9,0.4c-2.7,0.6-4.5,3.2-5,6c-0.5,2.7,0.1,5.5,0.6,8.2c0.2,1,0.4,1.9,0.6,2.9
						c0.2,0.8,0.4,1.7,1.1,2.1c0.1,0.1,0.2,0.1,0.4,0.1c0.4,0,0.5-0.5,0.5-0.9c0-1.8-0.3-3.5-0.7-5.3C60.4,165,60.4,165.5,60.6,166z
						"/>
					<path class="st5" d="M58.3,166.6c0,1.1,0.9,2.1,2.1,2.1c1.1,0,2.1-0.9,2.1-2.1s-0.9-2.1-2.1-2.1
						C59.3,164.5,58.3,165.4,58.3,166.6z"/>
					<g>
						<path class="st5" d="M85.7,215.1c0.1-0.1,0.3-0.1,0.4-0.1c0.1,0.1,0.1,0.2,0.2,0.3c0.3,0.7,0.9,1.3,1.6,1.4s1.6-0.6,1.5-1.3
							c0-0.5-0.4-0.9-0.7-1.3c0.7,0.8,1.4,1.6,2.5,1.7c0.1,0,0.2,0,0.4-0.1c0.1-0.1,0.2-0.2,0.2-0.3c0.2-0.6,0.1-1.3-0.2-1.9
							c0.3,0.3,0.6,0.5,0.9,0.7c0.4,0.1,0.8,0.1,1.1-0.1c0.4-0.4,0.2-1.2,0-1.7c-0.3-0.6-0.5-1.2-0.8-1.8c-0.3-0.7-0.6-1.4-1.1-2
							c-0.8-1-2-1.7-3.2-2.1c-2.5-1-5.3-1.3-8-1c-0.2,0-0.4,0.1-0.5,0.1c-0.3,0.2-0.5,0.6-0.5,1c-0.7,2.9-0.7,6,0.1,8.8
							c0.3,1.1,0.7,1.5,2,1.4C83,216.5,84.3,215.8,85.7,215.1z"/>
						<g>
							<path class="st5" d="M52.8,180c3.1-0.3,5.9,2,6.2,5.1l1.8,20.2l22.1-0.2c-1.4,6.9-1.5,11.5-1.5,11.5l-25.7,0.1
								c-1.4,0-2.7-0.5-3.7-1.3c-1.1-0.9-1.8-2.3-2-3.8l-2.3-25.4C47.3,183.1,49.6,180.3,52.8,180z"/>
						</g>
						<path class="st16" d="M88.9,214.4c0,0-1.2-2.7-2-3.7s-1.9-0.9-1.9-0.9"/>
						<path class="st16" d="M91.5,213.5l-1.8-3.9c0,0-0.8-1.5-2.3-1.7"/>
						<path class="st14" d="M59.1,184.9c-0.3-3.2-3.2-5.6-6.4-5.3s-5.6,3.2-5.3,6.4l1.5,16.8l11.7-1.5L59.1,184.9z"/>
						<path class="st17" d="M47.6,188.2l1.3,14.6c0,0,8.9-1.1,11.7-1.5l-1.4-15.8"/>
					</g>
					<path class="st17" d="M58,177.9l4,7.9l4.3-3.3l4.1,3c0,0,1.5-3.4,1.5-5.1"/>
					<polyline class="st17" points="65.7,183 65.4,195.8 68.2,195.8 					"/>
				</g>
			</g>
			<g>
				<path class="st3" d="M168.8,225.5l-31.6,4.4l-5.3-38.2c-0.6-4.4,2.5-8.5,6.9-9.1l15.6-2.2c4.4-0.6,8.5,2.5,9.1,6.9L168.8,225.5z
					"/>
				<g>
					<path class="st18" d="M168.1,152.8c-1.5-0.6-3-0.9-4.6-1c-1.5,0-3.1-0.2-4.6,0.2c-2.1,0.6-3.7,2.4-4.6,4.4
						c-0.7,1.4-1,3-1.3,4.5s-0.6,2.9-0.8,4.4c-0.4,3.2-0.4,6.4-0.9,9.6c-0.9,5.8-3.5,11.3-5.2,16.9c-1.7,5.6-2.6,11.9-0.2,17.3
						c0.2,0.5,0.4,0.9,0.8,1.2c0.4,0.3,0.8,0.4,1.3,0.4c2.8,0.5,5.7,0.7,8.5,0.7c1,0,2.1-0.1,3-0.5c0.8-0.4,1.5-1,2.1-1.7
						c2.3-2.6,3.2-6.1,4.1-9.4c0.8-3.2,1.7-6.4,2.5-9.6c2.4-8.9,4.7-18,5-27.2c0.1-3.2-0.2-6.7-2.5-8.8
						C170,153.7,169,153.2,168.1,152.8z"/>
					<g>
						<path class="st19" d="M202.1,195.2c-23.2,3.4-30.1-13.2-30.4-13.9c-0.9-2.4-3.6-3.6-6-2.7c-2.4,0.9-3.6,3.6-2.7,6
							c0.2,0.6,2.6,6.4,8.7,11.8c5.5,4.8,15.3,10,30.5,8.2c0.4-0.1,0.9-0.1,1.3-0.2C203.7,199.5,202.1,195.2,202.1,195.2z"/>
						<path class="st19" d="M206.4,193.1c0.6-0.2,1.3-0.5,1.9-0.3c0.6,0.1,1.2,0.9,0.9,1.4c-0.2,0.5-1,0.9-0.8,1.4
							c0.1,0.2,0.2,0.3,0.3,0.4c1.7,1.3,4,1.6,6,2.4c0.9,0.4,1.8,1,2.1,1.9c0.2,0.7-0.1,1.5-0.6,2.1s-1.2,0.9-1.8,1.3
							c-3.6,1.7-7.8,1.9-11.5,0.6c-0.4-0.1-0.8-0.3-1.1-0.6s-0.5-0.7-0.6-1.1c-0.3-0.8-0.7-1.6-0.8-2.4c-0.3-1.7,0.4-3.5,1.6-4.8
							C203.2,193.8,204.7,193.7,206.4,193.1z"/>
						<path class="st20" d="M176.1,187.8c-3.1-3.2-4.3-6.2-4.5-6.5c-0.9-2.4-3.6-3.6-6-2.7c-2.4,0.9-3.6,3.6-2.7,6
							c0.2,0.6,2,5,6.4,9.6C170.7,193.2,173.7,190.9,176.1,187.8z"/>
						<path class="st21" d="M169.4,194.4h-0.1c-4.5-4.7-6.3-9.2-6.5-9.7c0-0.1,0-0.2,0.1-0.2s0.2,0,0.2,0.1c0.2,0.5,1.9,4.9,6.3,9.5
							c1.3-0.9,4.2-3.2,6.5-6.2c-3.1-3.3-4.4-6.3-4.4-6.5c0-0.1,0-0.2,0.1-0.2s0.2,0,0.2,0.1c0.1,0.1,1.3,3.2,4.4,6.5
							c0.1,0.1,0.1,0.1,0,0.2C173.8,191.1,170.7,193.5,169.4,194.4C169.5,194.4,169.4,194.4,169.4,194.4z"/>
					</g>
					<path class="st20" d="M173.8,186.9c0.5,3.1,0.2,6.3,0.1,9.5c-0.2,7,0.1,14.2,2.4,20.8c0.8,2.2,1.5,4.3-0.3,6.2
						c-3.5,3.9-11.9,4.8-16.7,5c-3.1,0.1-13.4-0.1-14.8-4.4c-0.4-1.4,1.1-4.6,1.4-6.1c0.6-3.2,0.3-6.9,0.3-10.2
						c0-4.3-0.1-8.9-1.1-13.1c-0.9-3.9-0.8-7.8,0.9-11.5c0.9-1.9,2.2-3.8,4.1-4.8c2.5-1.3,5.5-1.7,8.3-1.8c3.3,0,7.5,0.2,10.5,1.7
						c2.8,1.5,4.3,5.1,4.8,8C173.7,186.4,173.7,186.6,173.8,186.9z"/>
					<g>
						<g>
							<path class="st22" d="M163.8,172.9l0.2,6c0,0,0,2.9-4.4,2.8c-4.4,0-4.7-4-4.7-4l-0.3-10L163.8,172.9z"/>
							<path class="st23" d="M156,172.7l7.9,2.4l0.1,3.2C159.6,177.8,156,172.7,156,172.7z"/>
							<path class="st22" d="M161.2,176.6l4.3-0.1c3.5-0.1,6.2-3,6.1-6.5l-0.3-11.5c-0.1-3.5-3-6.2-6.5-6.1l-4.3,0.1
								c-3.5,0.1-6.2,3-6.1,6.5l0.3,11.5C154.8,173.9,157.7,176.7,161.2,176.6z"/>
							<path class="st22" d="M152.6,166.6c0,1.1,1,2,2.1,2s2-1,2-2.1s-1-2-2.1-2S152.6,165.4,152.6,166.6z"/>
						</g>
						<path class="st18" d="M171.7,155.5c0,0-7.1,9.7-17.8,9c0,0-2.4-12.8,8-13.2C161.9,151.3,167.3,150.6,171.7,155.5z"/>
					</g>
					<g>
						<path class="st22" d="M177.8,209.2c-22.4-6.9-21.6-24.8-21.5-25.6c0.2-2.6-1.7-4.8-4.3-5s-4.8,1.7-5,4.3
							c-0.1,0.7-0.4,6.9,2.8,14.4c2.9,6.7,9.5,15.6,24,20.5c0.4,0.1,0.8,0.3,1.2,0.4C177.3,213.8,177.8,209.2,177.8,209.2z"/>
						<path class="st20" d="M157.5,191.4c-1.4-4.2-1.3-7.5-1.2-7.8c0.2-2.6-1.7-4.8-4.3-5s-4.8,1.7-5,4.3c0,0.6-0.3,5.4,1.7,11.5
							C150.3,194,154,193.2,157.5,191.4z"/>
						<path class="st21" d="M148.6,194.5C148.6,194.5,148.5,194.4,148.6,194.5c-2.2-6.3-1.8-11.1-1.8-11.6c0-0.1,0.1-0.1,0.2-0.1
							c0.1,0,0.1,0.1,0.1,0.2c0,0.5-0.3,5.2,1.6,11.3c1.5-0.3,5.1-1.1,8.5-2.8c-1.4-4.3-1.2-7.6-1.2-7.7c0-0.1,0.1-0.2,0.2-0.1
							c0.1,0,0.2,0.1,0.1,0.2c0,0.1-0.2,3.5,1.2,7.7c0,0.1,0,0.2-0.1,0.2C154,193.4,150.2,194.2,148.6,194.5
							C148.7,194.5,148.6,194.5,148.6,194.5z"/>
						<path class="st22" d="M182.5,209.3c0.6,0.1,1.3,0.1,1.8,0.5s0.7,1.3,0.2,1.7c-0.4,0.4-1.2,0.4-1.3,0.9c0,0.2,0.1,0.3,0.1,0.5
							c1,1.9,2.9,3.1,4.4,4.8c0.6,0.7,1.2,1.7,1,2.6c-0.2,0.7-0.7,1.3-1.4,1.6s-1.4,0.4-2.2,0.4c-3.9,0-7.9-1.6-10.7-4.4
							c-0.3-0.3-0.6-0.6-0.8-1.1c-0.1-0.4-0.1-0.8-0.1-1.3c0-0.9,0.1-1.7,0.3-2.5c0.5-1.7,1.9-3,3.5-3.6
							C179.3,208.6,180.6,209.1,182.5,209.3z"/>
					</g>
				</g>
			</g>
			<g>
				<path class="st3" d="M391.5,227h-31.9v-38.6c0-4.4,3.6-8.1,8.1-8.1h15.8c4.4,0,8.1,3.6,8.1,8.1V227H391.5z"/>
				<path class="st22" d="M355.9,182.8c-2.2-2.2-5.7-2.3-7.9-0.1l-14.3,14l-16.9-13.9c-3.3,6.1-7,8.1-7,8.1l20.5,17.7
					c1.1,0.9,2.4,1.4,3.7,1.4c1.4,0,2.8-0.5,3.9-1.6l18-17.7C358,188.5,358.1,185,355.9,182.8z"/>
				<path class="st24" d="M355.9,182.8c-2.2-2.2-5.7-2.3-7.9-0.1L334.4,196c1.1,2.7,3.2,7.2,6.1,9.8l15.3-15
					C358,188.5,358.1,185,355.9,182.8z"/>
				<path class="st22" d="M312.1,178.9c-0.4-0.3-0.8-0.5-1.2-0.6c-0.5,0-1,0.2-1,0.7c-0.1,0.7,0.8,1.1,1.1,1.8
					c0.2,0.5,0,1.1-0.3,1.5s-0.7,0.8-1.1,1.1c-1.8,1.8-1.9,5-0.3,7c0.3,0.4,0.7,0.7,1.2,0.8c0.6,0.1,1.1-0.3,1.6-0.7
					c1.3-1,2.5-2.1,3.5-3.3c0.9-1.2,2.2-3.2,1.1-4.5C315.4,181.2,313.6,179.9,312.1,178.9z"/>
				<path class="st25" d="M311.8,189c-0.1,0-0.2,0-0.3,0c-0.1,0-0.2-0.1-0.1-0.2c0-0.1,0.1-0.2,0.2-0.1c0.3,0.1,0.5,0,0.7-0.1
					c0.3-0.3,0.3-0.9,0.2-1.2c0-0.1,0-0.1,0-0.1l0.1-0.1c0.4,0,0.7-0.2,0.8-0.4c0.2-0.3,0-0.8,0-0.8c0-0.1,0-0.1,0-0.2
					c0-0.1,0.1-0.1,0.2-0.1c0.3,0.1,0.5,0,0.7-0.1s0.2-0.3,0.2-0.3c0.2-1.9-3.7-2.9-3.7-2.9c-0.1,0-0.2-0.1-0.1-0.2
					c0-0.1,0.1-0.2,0.2-0.1c0.2,0,4.2,1.1,4,3.3c0,0,0,0.4-0.3,0.6c-0.2,0.1-0.4,0.2-0.7,0.2c0.1,0.2,0.1,0.5-0.1,0.8
					s-0.5,0.5-0.9,0.6c0,0.3,0,0.9-0.4,1.3C312.3,188.9,312.1,189,311.8,189z"/>
				<path class="st25" d="M313.5,186h-0.1c0,0-3-2-4.1-2.3c-0.1,0-0.2-0.1-0.1-0.2c0-0.1,0.1-0.2,0.2-0.1c1.1,0.3,4.1,2.3,4.2,2.3
					c0.1,0.1,0.1,0.2,0.1,0.3C313.7,186,313.6,186,313.5,186z"/>
				<path class="st25" d="M312.6,187.5h-0.1c0,0-3.1-1.9-4-2.2c-0.1,0-0.2-0.1-0.1-0.2c0-0.1,0.1-0.2,0.2-0.1c1.1,0.2,4,2.1,4.2,2.2
					c0.1,0.1,0.1,0.2,0.1,0.3C312.7,187.4,312.7,187.5,312.6,187.5z"/>
				<path class="st25" d="M311.5,189h-0.1c0,0-1.6-1.4-3.2-1.9c-0.1,0-0.2-0.1-0.1-0.2c0-0.1,0.1-0.2,0.2-0.1c1.7,0.6,3.3,1.9,3.3,2
					c0.1,0.1,0.1,0.2,0,0.3C311.6,189,311.5,189,311.5,189z"/>
				<path class="st25" d="M314.5,184.4c-0.1,0-0.1,0-0.2-0.1c-0.1-0.2-0.2-0.5-0.1-0.8c-0.5-0.2-1-0.4-1.4-0.6
					c-0.5-0.3-0.9-0.7-1.2-1.1c-0.1-0.2-0.2-0.5-0.2-0.7c0-0.3,0.3-0.6,0.6-0.8c0.3-0.1,0.7-0.1,0.9-0.1c0.9,0.1,1.7,0.3,2.4,0.7
					c0.1,0.1,0.1,0.2,0.1,0.3c-0.1,0.1-0.2,0.1-0.3,0.1c-0.7-0.4-1.5-0.6-2.3-0.6c-0.2,0-0.5,0-0.8,0.1c-0.2,0.1-0.4,0.3-0.4,0.5
					c0,0.1,0,0.3,0.1,0.4c0.2,0.4,0.6,0.7,1,1c0.4,0.2,0.9,0.4,1.4,0.6c0.1,0,0.2,0.1,0.2,0.2c0,0.1,0,0.2,0,0.3
					c-0.1,0.2,0,0.3,0,0.5C314.7,184.3,314.7,184.4,314.5,184.4L314.5,184.4z"/>
				<path class="st26" d="M343.6,190.6l2.7,35.4c0,0,8,4.4,19.3,3c11.3-1.3,13.8-6.3,13.8-6.3s-2-34.8-2.3-35.1
					c-0.3-0.3-1.7-11.8-18-9.4C342.8,180.6,343.6,190.6,343.6,190.6z"/>
				<rect x="28.8" y="222.2" class="st27" width="370.7" height="8.8"/>
				<g>
					<g>
						<path class="st28" d="M60.9,223.9h48.9c0.3,0,0.5-0.2,0.5-0.5V222c0-0.3-0.2-0.5-0.5-0.5H60.9c-0.3,0-0.5,0.2-0.5,0.5v1.4
							C60.4,223.7,60.6,223.9,60.9,223.9z"/>
						<path class="st29" d="M86.8,223.9h40.7c1.7,0,3.2-1.4,3.5-3l3.5-22.2c0.3-1.7-0.9-3-2.5-3H91.2c-1.7,0-3.2,1.4-3.5,3
							l-3.5,22.2C84,222.5,85.1,223.9,86.8,223.9z"/>
					</g>
					<circle class="st2" cx="110.3" cy="209.7" r="3.8"/>
				</g>
				<path class="st30" d="M375.3,193c0,0,2.5,29.9-4.8,30.5s-19.7,0-19.7,0s14.9-2.9,16.6-11.2C369,204.1,375.3,193,375.3,193z"/>
				<path class="st22" d="M359.2,186.9c5.7-0.8,6.5-5.9,6.5-8.8c-1.9-0.2-4.1-0.2-6.6,0.2c-3,0.4-5.4,1.1-7.3,1.9
					C352,182.6,353.1,187.7,359.2,186.9z"/>
				<g>
					<polygon class="st22" points="362.9,168.3 362.9,178.1 358.4,182.2 354,179.6 354,173.7 					"/>
				</g>
				<path class="st31" d="M361.7,173.2l-7.7,2.6v3.1C358.3,178.4,361.7,173.2,361.7,173.2z"/>
				<path class="st22" d="M356.6,177.3h-4.1c-3.5,0-6.3-2.8-6.3-6.3v-11.2c0-3.5,2.8-6.3,6.3-6.3h4.1c3.5,0,6.3,2.8,6.3,6.3V171
					C362.9,174.4,360.1,177.3,356.6,177.3z"/>
				<path class="st32" d="M345.1,155.8c-0.4,0.5-0.8,1.2-0.5,1.8c0.1,0.3,0.4,0.5,0.7,0.7c1,0.6,2.3,0.7,3.4,0.2
					c-0.3,0.3-0.3,0.9,0,1.3c0.3,0.4,0.8,0.6,1.2,0.6c1.4,0.2,2.9-0.5,4-1.5c0,0.9,0.8,1.8,1.7,1.8c0.8,0,1.6-0.5,2.4-0.4
					c0.2,0.4-0.1,1.1,0.2,1.3c0.1,0.1,0.2,0.1,0.3,0.1c0.8,0.1,1.7-0.1,2.2,0.5s0.2,1.4,0,2.1c-0.2,0.7-0.3,1.4,0.1,2
					s1.3,0.8,1.7,0.2c0.1-0.2,0.1-0.4,0.2-0.5c0.1-0.2,0.3-0.3,0.5-0.2c0.1,0.1,0.1,0.2,0.1,0.4c0,0.9-0.6,1.6-0.9,2.4
					c-0.3,0.8-0.3,1.9,0.5,2.3c0.2,0.1,0.5,0.2,0.7,0.2c0.8,0.1,1.7,0.1,2.3-0.4c0.6-0.5,0.9-1.3,1.1-2c0.1-0.3,0.2-0.6,0.1-0.9
					c0-0.3-0.2-0.6-0.5-0.6c-0.4-1,0.7-2.2,0.1-3.1c-0.1-0.2-0.3-0.3-0.5-0.5c-0.5-0.4-0.8-1.1-0.9-1.8s0-1.3,0-2
					c0-1.3-0.1-2.6-0.4-3.9c-0.1-0.5-0.3-1.1-0.6-1.5c-0.3-0.4-0.9-0.7-1.4-0.7c-0.2-1-0.8-1.9-1.6-2.5c-0.8-0.5-2.1-0.6-2.8,0.1
					c-0.2,0.1-0.3,0.3-0.6,0.4c-0.2,0-0.4,0-0.5-0.1c-1.6-0.6-3.3-1.2-4.8-0.4c-0.2,0.1-0.4,0.3-0.7,0.3c-0.3,0-0.5-0.1-0.7-0.1
					c-0.6-0.2-1.3-0.2-1.8,0.2s-0.3,0.9-0.4,1.4c-0.1,0.6-0.4,0.6-1,0.8C347.1,154.4,345.9,154.9,345.1,155.8z"/>
				<path class="st22" d="M365.6,167.2c0,1.1-0.9,2-2,2s-2-0.9-2-2s0.9-2,2-2C364.7,165.1,365.6,166,365.6,167.2z"/>
				<g>
					<g>
						<path class="st22" d="M370.4,181c-3.1-0.3-5.9,2-6.1,5.1l-2.1,24.3l-22.8,1.5c0,0-0.7,6,0.7,11.3l27.7-1.8
							c2.8-0.2,5-2.4,5.3-5.2l2.6-29.2C375.9,184.1,373.5,181.3,370.4,181z"/>
						<path class="st22" d="M337,223.4c-0.7-0.1-1.4-0.2-2-0.6c-0.6-0.4-0.9-1.2-0.6-1.8c0.2-0.3,0.5-0.6,0.5-0.9
							c0-0.5-0.5-0.7-0.7-1.1c-0.5-0.7-0.2-1.7,0.4-2.2c0.2-0.2,0.5-0.3,0.5-0.6c0.2-0.6-0.7-1.1-0.6-1.7c0.1-0.4,0.8-0.6,0.9-1
							c0.1-0.2,0-0.5,0-0.8c0-0.4,0.4-0.8,0.8-0.9c0.4-0.1,0.8-0.1,1.3,0c0.7,0.1,1.3,0.1,2,0.2c0.4,0,0.8,0.1,1.1,0.3
							c0.7,0.4,1,1.3,1.2,2.1c0.3,1.6,0.6,3.2,0.3,4.8c-0.2,1.3-0.7,2.7-1.6,3.6C339.7,223.8,338.1,223.5,337,223.4z"/>
					</g>
					<path class="st26" d="M370.5,180.7c-3.2-0.3-6,2.1-6.3,5.3l-1.8,20.4c2,0.9,6.7,2.8,11.3,3.1l2-22.5
						C376,183.8,373.6,181,370.5,180.7z"/>
					<path class="st33" d="M364,187.6l-1.7,18.8c0,0,7,3,11.3,3.1l1.9-19.4"/>
				</g>
				<g>
					<g>
						<path class="st28" d="M359.2,223.9h-48.9c-0.3,0-0.5-0.2-0.5-0.5V222c0-0.3,0.2-0.5,0.5-0.5h48.9c0.3,0,0.5,0.2,0.5,0.5v1.4
							C359.7,223.7,359.4,223.9,359.2,223.9z"/>
						<path class="st34" d="M333.3,223.9h-40.7c-1.7,0-3.2-1.4-3.5-3l-3.5-22.2c-0.3-1.7,0.9-3,2.5-3h40.7c1.7,0,3.2,1.4,3.5,3
							l3.5,22.2C336.1,222.5,334.9,223.9,333.3,223.9z"/>
					</g>
					<g>
						<path class="st2" d="M307.6,210.3c-0.2,0.4-0.4,0.7-0.6,1.1c-0.1,0.4-0.1,0.9,0.1,1.2c0.1,0.1,0.3,0.3,0.5,0.3
							c1,0.4,2.1,0,2.8-0.8c0.7-0.8,1-1.8,1-2.9c0-0.8-0.2-1.7-0.9-2.2c-0.2-0.1-0.5-0.2-0.7-0.3c-0.4-0.1-0.8-0.1-1.2,0.2
							c-0.5,0.3-0.5,0.9-0.6,1.4C308,209.1,307.9,209.7,307.6,210.3z"/>
						<path class="st2" d="M309.3,205.9c0-0.2,0-0.4,0-0.6c0.1-0.2,0.2-0.4,0.4-0.4c0.1,0,0.1,0,0.2,0c0.2,0,0.4,0,0.5,0.1
							s0.1,0.2,0.1,0.4c0,0.1-0.1,0.3-0.1,0.4c-0.1,0.3-0.4,0.5-0.7,0.6C309.4,206.5,309.3,206.3,309.3,205.9z"/>
					</g>
				</g>
			</g>
			<g>
				<path class="st35" d="M86.5,113.6c0-12-9.7-21.7-21.7-21.7s-21.7,9.7-21.7,21.7c0,11.6,9.1,21.1,20.6,21.7l3.2,7.7l3.8-8.5
					C79.8,132,86.5,123.6,86.5,113.6z"/>
				<path class="st36" d="M72.5,109.8v-5.1h-5.1c0-2.1-1.7-3.8-3.8-3.8s-3.8,1.7-3.8,3.8h-5.1v17.9h5.1c0-2.1,1.7-3.8,3.8-3.8
					c2.1,0,3.8,1.7,3.8,3.8h5.1v-5.1c2.1,0,3.8-1.7,3.8-3.8C76.3,111.5,74.6,109.8,72.5,109.8z"/>
			</g>
			<g>
				<path class="st35" d="M399.1,126c5-10.9,0.3-23.8-10.6-28.8s-23.8-0.3-28.8,10.6c-4.9,10.5-0.6,23,9.5,28.3l-0.4,8.3l7-6.1
					C385.2,139.9,394.9,135.1,399.1,126z"/>
				<path class="st36" d="M388.8,112.9c-0.3,0-0.6,0.1-0.9,0.1v-5.2h-5.1c0,2.1-1.7,3.8-3.8,3.8c-2.1,0-3.8-1.7-3.8-3.8H370v5.1
					c-2.1,0-3.8,1.7-3.8,3.8c0,2.1,1.7,3.8,3.8,3.8v5.1h5.2c0-2.1,1.7-3.8,3.8-3.8c2.1,0,3.8,1.7,3.8,3.8h5v-5.2
					c0.3,0.1,0.6,0.1,0.9,0.1c2.1,0,3.8-1.7,3.8-3.8C392.7,114.7,390.9,112.9,388.8,112.9z"/>
			</g>
			<g>
				<path class="st35" d="M127.2,127.6c-5-10.9-0.3-23.8,10.6-28.8s23.8-0.3,28.8,10.6c4.9,10.5,0.6,23-9.5,28.3l0.4,8.3l-7-6.1
					C141,141.4,131.4,136.6,127.2,127.6z"/>
				<path class="st36" d="M150.8,110.3c0-2.1-1.7-3.8-3.8-3.8s-3.8,1.7-3.8,3.8h-5.1v17.9h5.1c0-2.1,1.7-3.8,3.8-3.8
					s3.8,1.7,3.8,3.8h5.1v-17.9C155.9,110.3,150.8,110.3,150.8,110.3z"/>
			</g>
			<g>
				<path class="st35" d="M308.4,139.2c9.2-7.7,10.3-21.4,2.6-30.6c-7.7-9.2-21.4-10.3-30.6-2.6c-8.9,7.5-10.2,20.6-3.3,29.7
					l-3.9,7.4l8.9-2.6C290,145.9,300.8,145.7,308.4,139.2z"/>
				<path class="st36" d="M303,119.4v-5.1h-5.1c0-2.1-1.7-3.8-3.8-3.8c-2.1,0-3.8,1.7-3.8,3.8h-5.1v5.1c2.1,0,3.8,1.7,3.8,3.8
					c0,2.1-1.7,3.8-3.8,3.8v5.1h5.1c0-2.1,1.7-3.8,3.8-3.8c2.1,0,3.8,1.7,3.8,3.8h5.1V127c2.1,0,3.8-1.7,3.8-3.8
					C306.9,121.1,305.2,119.4,303,119.4z"/>
			</g>
		</g>
		<g>
			<g>
				<g>
					<path class="st29" d="M200.9,121.7c0,0-0.2,6.1,13.4,6.1s12.9-6.1,12.9-6.1H200.9z"/>
					<path class="st3" d="M227.9,123.4h-27.3c-1.8,0-3.3-1.5-3.3-3.3V109c0-1.8,1.5-3.3,3.3-3.3h27.3c1.8,0,3.3,1.5,3.3,3.3v11.1
						C231.1,121.9,229.7,123.4,227.9,123.4z"/>
					<path class="st37" d="M256.7,40.6c-0.9-13.2-9.1-39-40.9-40.6l0,0c-0.5,0-1,0-1.5,0s-1,0-1.5,0v0.1
						c-31.8,1.5-39.9,27.3-40.9,40.6c-1,13.6,6.1,24.3,12,34.9s8.1,24.8,9,30c0.9,5.2,5.6,5,5.6,5h14.3l0,0h1.5h1.5l0,0h14.3
						c0,0,4.7,0.2,5.6-5c0.9-5.2,3.1-19.4,9-30C250.5,64.9,257.6,54.3,256.7,40.6z"/>
				</g>
				<path class="st38" d="M203.5,111.8c3.7-11.4,5.5-23.4,5.3-35.3c-0.1-4.7-0.4-9.5-2.3-13.9c-0.3-0.8-0.9-1.7-1.8-1.6
					c-0.7,0.1-1.2,0.8-1.5,1.6c-0.9,2.6-0.5,5.7,1,8c1.5,2.4,4.1,4,6.9,4.3c0.7,0.1,1.5,0.1,2.2-0.2c1.4-0.5,2.3-2,2.9-3.4
					c1.2-3.1,1.4-6.6,0.6-9.9c-0.2-0.8-0.7-1.8-1.5-1.7c-0.6,0-1,0.6-1.3,1.1c-1.4,2.8-1.3,6.2-0.3,9.2c0.4,1.3,1,2.6,2,3.6
					c2.4,2.4,6.7,1.8,9.2-0.6c2.4-2.3,3.4-5.9,3.6-9.3c0.1-1.6-0.3-3.8-1.9-4c-1.7-0.2-2.6,1.8-3,3.4c-3.2,14.2-4,28.9-2.1,43.3
					c0.3,2.7,0.8,5.5,2.5,7.7"/>
				<path class="st39" d="M184,17.4c-1.2,1.4-2.3,2.9-2.9,4.6c-0.6,1.7-0.5,3.8,0.7,5.2c1.7,2,4.9,2,7.1,0.7
					c2.3-1.2,3.9-3.4,5.6-5.3c2.7-3.1,5.9-5.8,9.8-7.1c1.5-0.5,3-0.7,4.5-1.3c1.4-0.6,2.8-1.5,3.4-3c0.8-1.9-0.2-4.3-1.9-5.5
					c-4.1-2.9-9.4-0.2-13.3,1.5C191.8,9.6,187.7,13.1,184,17.4z"/>
			</g>
			<path class="st0" d="M183.7,41.9v-3.5h-3.5c0-1.5-1.2-2.7-2.7-2.7s-2.7,1.2-2.7,2.7h-3.5v12.4h3.5c0-1.5,1.2-2.7,2.7-2.7
				s2.7,1.2,2.7,2.7h3.5v-3.5c1.5,0,2.7-1.2,2.7-2.7S185.1,41.9,183.7,41.9z"/>
			<path class="st0" d="M255.2,37.3c-0.2,0-0.4,0-0.7,0.1v-3.6H251c0,1.5-1.2,2.7-2.7,2.7s-2.7-1.2-2.7-2.7h-3.5v3.5
				c-1.5,0-2.7,1.2-2.7,2.7s1.2,2.7,2.7,2.7v3.5h3.6c0-1.5,1.2-2.7,2.7-2.7s2.7,1.2,2.7,2.7h3.5v-3.6c0.2,0.1,0.4,0.1,0.7,0.1
				c1.5,0,2.7-1.2,2.7-2.7S256.7,37.3,255.2,37.3z"/>
			<path class="st0" d="M196.2,83.9c0-1.5-1.2-2.7-2.7-2.7s-2.7,1.2-2.7,2.7h-3.5v12.4h3.5c0-1.5,1.2-2.7,2.7-2.7s2.7,1.2,2.7,2.7
				h3.5V83.9H196.2z"/>
			<path class="st0" d="M239.9,82.3v-3.5h-3.5c0-1.5-1.2-2.7-2.7-2.7s-2.7,1.2-2.7,2.7h-3.5v3.5c1.5,0,2.7,1.2,2.7,2.7
				s-1.2,2.7-2.7,2.7v3.5h3.5c0-1.5,1.2-2.7,2.7-2.7s2.7,1.2,2.7,2.7h3.5v-3.5c1.5,0,2.7-1.2,2.7-2.7
				C242.5,83.5,241.3,82.3,239.9,82.3z"/>
		</g>
	</g>
</g>
<g id="Designed_by_freepik">
</g>
</svg>
