<svg xmlns="http://www.w3.org/2000/svg" width="973" height="657" viewBox="0 0 973 657">
  <g id="Grupo_29591" data-name="Grupo 29591" transform="translate(-573.167 -223.167)">
    <path id="Trazado_24125" data-name="Trazado 24125" d="M573.167,312.167h253v70h-253Z" fill="#7d58bd"/>
    <path id="Trazado_24126" data-name="Trazado 24126" d="M573.167,395.167h253v70h-253Z" fill="#7d58bd"/>
    <path id="Trazado_24127" data-name="Trazado 24127" d="M573.167,478.167h253v70h-253Z" fill="#7d58bd"/>
    <path id="Trazado_24128" data-name="Trazado 24128" d="M573.167,561.167h253v70h-253Z" fill="#7d58bd"/>
    <path id="Trazado_24129" data-name="Trazado 24129" d="M573.167,644.167h253v70h-253Z" fill="#7d58bd"/>
    <path id="Trazado_24130" data-name="Trazado 24130" d="M649.752,343.634h-5.234v3.2h4.639v2.549h-4.639v3.193h5.234v2.591h-8.185V341.056h8.184Zm8.574,1.3a3.911,3.911,0,0,1,2.773.9,3.352,3.352,0,0,1,.967,2.573v6.76h-2.822v-6.152a1.748,1.748,0,0,0-.5-1.387,1.9,1.9,0,0,0-1.294-.439,2.6,2.6,0,0,0-.84.127,2.15,2.15,0,0,0-.7.4,1.742,1.742,0,0,0-.5.757,3.475,3.475,0,0,0-.19,1.162v5.532H652.4V345.128h2.813v1.113a3.864,3.864,0,0,1,3.115-1.308Zm13.379.2h2.676v9.287a7.525,7.525,0,0,1-.376,2.5,4.135,4.135,0,0,1-1.089,1.714,4.56,4.56,0,0,1-1.67.962,7.075,7.075,0,0,1-2.187.313q-3.975,0-5.176-3.115l2.334-1a3.4,3.4,0,0,0,1.084,1.455,2.77,2.77,0,0,0,1.65.469q2.607,0,2.607-3.1v-1.171a3.174,3.174,0,0,1-1.265.991,4.214,4.214,0,0,1-1.782.376,4.5,4.5,0,0,1-3.222-1.348,4.637,4.637,0,0,1-.991-1.577,5.821,5.821,0,0,1,0-4.067,4.436,4.436,0,0,1,1-1.558,4.566,4.566,0,0,1,1.465-.977,4.509,4.509,0,0,1,1.772-.352,4.077,4.077,0,0,1,1.86.415,2.964,2.964,0,0,1,1.245,1.108Zm-4.311,6.633a2.576,2.576,0,0,0,3.643.034l.044-.044a2.807,2.807,0,0,0,0-3.818,2.6,2.6,0,0,0-3.677-.038l-.023.023a2.855,2.855,0,0,0,.013,3.843Zm18.14.674a9.359,9.359,0,0,0,.244,2.451v.275h-2.627l-.225-1.094a3.27,3.27,0,0,1-1.406.967,5.192,5.192,0,0,1-1.816.322,4.818,4.818,0,0,1-.937-.088,3.2,3.2,0,0,1-.845-.3,2.565,2.565,0,0,1-.7-.522,2.277,2.277,0,0,1-.469-.8,3.154,3.154,0,0,1-.176-1.089,2.991,2.991,0,0,1,.186-1.089,2.525,2.525,0,0,1,.488-.815,2.955,2.955,0,0,1,.791-.6,6.017,6.017,0,0,1,1-.43,11.649,11.649,0,0,1,1.191-.312l1.65-.371a1.83,1.83,0,0,0,.747-.317.634.634,0,0,0,.22-.5,1.036,1.036,0,0,0-.493-.967,2.29,2.29,0,0,0-1.2-.293,1.72,1.72,0,0,0-1.953,1.452c0,.027-.008.054-.01.081l-2.49-.449a3.368,3.368,0,0,1,1.455-2.29,5.781,5.781,0,0,1,3.154-.737q4.218,0,4.219,3.623Zm-4.951,1.016a2.265,2.265,0,0,0,1.738-.728,3.068,3.068,0,0,0,.674-2.153l-2.383.674a2.792,2.792,0,0,0-1,.41.84.84,0,0,0-.347.723.933.933,0,0,0,.371.8,1.54,1.54,0,0,0,.946.275Zm14.375-8.33h2.676v9.287a7.525,7.525,0,0,1-.376,2.5,4.132,4.132,0,0,1-1.091,1.715,4.56,4.56,0,0,1-1.67.962,7.075,7.075,0,0,1-2.187.313q-3.975,0-5.176-3.115l2.334-1a3.4,3.4,0,0,0,1.084,1.455,2.77,2.77,0,0,0,1.65.469q2.607,0,2.607-3.1v-1.165a3.174,3.174,0,0,1-1.265.991,4.213,4.213,0,0,1-1.782.376,4.5,4.5,0,0,1-3.223-1.353,4.637,4.637,0,0,1-.991-1.577,5.821,5.821,0,0,1,0-4.067,4.436,4.436,0,0,1,1-1.558,4.566,4.566,0,0,1,1.465-.977,4.509,4.509,0,0,1,1.772-.352,4.077,4.077,0,0,1,1.86.415,2.964,2.964,0,0,1,1.245,1.108Zm-4.312,6.64a2.576,2.576,0,0,0,3.643.034l.044-.044a2.807,2.807,0,0,0,0-3.818,2.6,2.6,0,0,0-3.677-.038l-.023.023a2.855,2.855,0,0,0,.013,3.843ZM710,350l-.029.674h-7.441a2.6,2.6,0,0,0,.8,1.836,2.559,2.559,0,0,0,1.768.635,2.472,2.472,0,0,0,1.323-.347,2.142,2.142,0,0,0,.845-1.011l2.578.381a4.388,4.388,0,0,1-1.758,2.354,5.233,5.233,0,0,1-2.969.84,5.439,5.439,0,0,1-3.911-1.382,5.784,5.784,0,0,1,.005-7.666,5.268,5.268,0,0,1,3.818-1.4A4.6,4.6,0,0,1,710,350Zm-4.951-3.1a2.221,2.221,0,0,0-2.441,1.934h4.609a2.117,2.117,0,0,0-.693-1.436,2.194,2.194,0,0,0-1.476-.492Zm18.984-1.973a3.834,3.834,0,0,1,2.588.815,2.917,2.917,0,0,1,.947,2.339v7.087h-2.812v-6.279a1.68,1.68,0,0,0-.449-1.27,1.571,1.571,0,0,0-1.133-.43,1.812,1.812,0,0,0-1.367.547,2.483,2.483,0,0,0-.527,1.768v5.664h-2.842v-6.25a1.724,1.724,0,0,0-.449-1.294,1.594,1.594,0,0,0-1.162-.435,1.753,1.753,0,0,0-1.357.576,2.745,2.745,0,0,0-.527,1.885v5.518h-2.8V345.128h2.8v1.182a3.412,3.412,0,0,1,2.91-1.377,4.277,4.277,0,0,1,1.89.386,2.572,2.572,0,0,1,1.187,1.118,3.548,3.548,0,0,1,3.1-1.5Zm15.713,5.068-.029.674h-7.447a2.6,2.6,0,0,0,.8,1.836,2.559,2.559,0,0,0,1.768.635,2.472,2.472,0,0,0,1.332-.34,2.142,2.142,0,0,0,.845-1.011l2.578.381a4.388,4.388,0,0,1-1.758,2.354,5.233,5.233,0,0,1-2.969.84,5.439,5.439,0,0,1-3.911-1.382,5.784,5.784,0,0,1,0-7.666,5.268,5.268,0,0,1,3.818-1.4A4.594,4.594,0,0,1,739.742,350Zm-4.951-3.1a2.221,2.221,0,0,0-2.441,1.934h4.609a2.118,2.118,0,0,0-.693-1.436,2.2,2.2,0,0,0-1.476-.487Zm13.018-1.973a3.911,3.911,0,0,1,2.773.9,3.352,3.352,0,0,1,.967,2.573v6.773h-2.823v-6.152a1.747,1.747,0,0,0-.5-1.387,1.9,1.9,0,0,0-1.294-.439,2.6,2.6,0,0,0-.84.127,2.149,2.149,0,0,0-.7.4,1.741,1.741,0,0,0-.5.757,3.474,3.474,0,0,0-.19,1.162v5.532h-2.812V345.128H744.7v1.113a3.863,3.863,0,0,1,3.105-1.308Zm10.2,10.246a3.033,3.033,0,0,1-2.266-.815,3.169,3.169,0,0,1-.8-2.319v-4.747h-1.973v-2.158h.635a1.658,1.658,0,0,0,1.25-.42,2.165,2.165,0,0,0,.4-1.494v-1.328H757.8v3.242h2.07v2.158H757.8v4.443q0,1.3,1.162,1.3h.908v2.138Z" fill="#fff"/>
    <path id="Trazado_24131" data-name="Trazado 24131" d="M676.935,426.634H671.7v3.2h4.639v2.549H671.7v3.193h5.234v2.591h-8.183V424.056h8.184Zm9.765-3.467h2.813v15h-2.666l-.068-1.309A2.868,2.868,0,0,1,685.505,438a4.3,4.3,0,0,1-1.88.4,4.9,4.9,0,0,1-1.875-.361,4.516,4.516,0,0,1-2.583-2.673,6.1,6.1,0,0,1-.381-2.2,5.7,5.7,0,0,1,.664-2.8,4.538,4.538,0,0,1,1.753-1.821,4.81,4.81,0,0,1,2.417-.615,4.387,4.387,0,0,1,1.821.366,2.836,2.836,0,0,1,1.255,1.04Zm-2.433,12.9a2.5,2.5,0,0,0,1.9-.8,3.291,3.291,0,0,0,0-4.2,2.5,2.5,0,0,0-1.9-.806,2.527,2.527,0,0,0-1.909.791,3.32,3.32,0,0,0,0,4.224A2.533,2.533,0,0,0,684.267,436.067Zm14.8-7.939h2.813v10.039h-2.666l-.068-1.211a3.839,3.839,0,0,1-3.193,1.406,3.915,3.915,0,0,1-2.773-.9,3.348,3.348,0,0,1-.967-2.573v-6.761h2.822v6.152a1.734,1.734,0,0,0,.5,1.377,1.91,1.91,0,0,0,1.3.439,2.271,2.271,0,0,0,1.6-.571,2.459,2.459,0,0,0,.63-1.86Zm10.27,10.225a5.367,5.367,0,0,1-3.877-1.445,5.488,5.488,0,0,1,0-7.54,5.959,5.959,0,0,1,7.134-.469,4.318,4.318,0,0,1,1.68,2.725l-2.6.283a2.226,2.226,0,0,0-.84-1.318,2.557,2.557,0,0,0-1.523-.439,2.3,2.3,0,0,0-1.836.82,3.7,3.7,0,0,0,0,4.331,2.3,2.3,0,0,0,1.836.825,2.543,2.543,0,0,0,1.519-.439,2.281,2.281,0,0,0,.837-1.32l2.6.283a4.332,4.332,0,0,1-1.694,2.725A5.332,5.332,0,0,1,709.337,438.353Zm15.166-2.91a9.359,9.359,0,0,0,.244,2.451v.273H722.12l-.225-1.094a3.27,3.27,0,0,1-1.406.967,5.192,5.192,0,0,1-1.816.322,4.818,4.818,0,0,1-.937-.088,3.2,3.2,0,0,1-.845-.3,2.567,2.567,0,0,1-.7-.522,2.277,2.277,0,0,1-.469-.8,3.154,3.154,0,0,1-.176-1.089,2.993,2.993,0,0,1,.186-1.089,2.525,2.525,0,0,1,.488-.815,2.956,2.956,0,0,1,.791-.6,6.017,6.017,0,0,1,1-.43,11.646,11.646,0,0,1,1.191-.312l1.65-.371a1.83,1.83,0,0,0,.747-.317.634.634,0,0,0,.22-.5,1.036,1.036,0,0,0-.493-.967,2.29,2.29,0,0,0-1.2-.293,1.72,1.72,0,0,0-1.949,1.457c0,.028-.008.055-.01.083l-2.49-.449a3.368,3.368,0,0,1,1.455-2.29,5.78,5.78,0,0,1,3.154-.737q4.218,0,4.219,3.623Zm-4.951,1.016a2.265,2.265,0,0,0,1.738-.728,3.067,3.067,0,0,0,.674-2.153l-2.383.674a2.792,2.792,0,0,0-1,.41.84.84,0,0,0-.347.723.933.933,0,0,0,.371.8,1.543,1.543,0,0,0,.947.273Zm10.381-6.738a3.254,3.254,0,0,1,1.318-1.206,4.008,4.008,0,0,1,1.963-.5v2.51a3.8,3.8,0,0,0-2.4.605,2.638,2.638,0,0,0-.742,2.148v4.889h-2.835V428.128h2.7Z" fill="#fff"/>
    <path id="Trazado_24132" data-name="Trazado 24132" d="M613.419,509.634h-5.234v3.2h4.639v2.549h-4.639v3.193h5.234v2.591h-8.184V507.056h8.184Zm8.574,1.3a3.911,3.911,0,0,1,2.773.9,3.352,3.352,0,0,1,.967,2.573v6.76h-2.822v-6.152a1.748,1.748,0,0,0-.5-1.387,1.894,1.894,0,0,0-1.294-.439,2.6,2.6,0,0,0-.84.127,2.149,2.149,0,0,0-.7.4,1.741,1.741,0,0,0-.5.757,3.472,3.472,0,0,0-.19,1.162v5.532h-2.82V511.128h2.813v1.113a3.865,3.865,0,0,1,3.113-1.308ZM632.2,521.167a3.033,3.033,0,0,1-2.266-.815,3.173,3.173,0,0,1-.8-2.319v-4.747h-1.973v-2.158h.635a1.657,1.657,0,0,0,1.25-.42,2.165,2.165,0,0,0,.4-1.494v-1.328h2.539v3.242h2.07v2.158h-2.07v4.443q0,1.3,1.162,1.3h.908v2.138Zm6.729-8.447a3.254,3.254,0,0,1,1.318-1.206,4.009,4.009,0,0,1,1.963-.5v2.51a3.8,3.8,0,0,0-2.4.605,2.638,2.638,0,0,0-.742,2.148v4.89h-2.835V511.128h2.7ZM653.243,516l-.029.674h-7.442a2.6,2.6,0,0,0,.8,1.836,2.558,2.558,0,0,0,1.768.635,2.472,2.472,0,0,0,1.323-.347,2.141,2.141,0,0,0,.845-1.011l2.579.379a4.388,4.388,0,0,1-1.758,2.354,5.233,5.233,0,0,1-2.969.84,5.439,5.439,0,0,1-3.911-1.382,5.784,5.784,0,0,1,.005-7.666,5.268,5.268,0,0,1,3.818-1.4A4.6,4.6,0,0,1,653.243,516Zm-4.951-3.1a2.221,2.221,0,0,0-2.441,1.934h4.609a2.118,2.118,0,0,0-.693-1.436,2.2,2.2,0,0,0-1.475-.494Zm10.83,8.266a3.033,3.033,0,0,1-2.266-.815,3.172,3.172,0,0,1-.8-2.319v-4.747h-1.973v-2.158h.635a1.657,1.657,0,0,0,1.25-.42,2.165,2.165,0,0,0,.4-1.494v-1.328h2.539v3.242h2.07v2.158h-2.07v4.443q0,1.3,1.162,1.3h.908v2.138ZM672.56,516l-.029.674h-7.442a2.6,2.6,0,0,0,.8,1.836,2.558,2.558,0,0,0,1.768.635,2.472,2.472,0,0,0,1.323-.347,2.142,2.142,0,0,0,.845-1.011l2.578.379a4.388,4.388,0,0,1-1.758,2.354,5.234,5.234,0,0,1-2.969.84,5.438,5.438,0,0,1-3.909-1.381,5.791,5.791,0,0,1,0-7.666,5.268,5.268,0,0,1,3.818-1.4A4.6,4.6,0,0,1,672.56,516Zm-4.951-3.1a2.221,2.221,0,0,0-2.442,1.938h4.609a2.117,2.117,0,0,0-.693-1.436,2.193,2.193,0,0,0-1.475-.5Zm13.018-1.973a3.912,3.912,0,0,1,2.773.9,3.352,3.352,0,0,1,.967,2.573v6.766h-2.822v-6.152a1.747,1.747,0,0,0-.5-1.387,1.894,1.894,0,0,0-1.294-.439,2.6,2.6,0,0,0-.84.127,2.149,2.149,0,0,0-.7.4,1.741,1.741,0,0,0-.5.757,3.474,3.474,0,0,0-.19,1.162v5.532h-2.812V511.128h2.813v1.113a3.865,3.865,0,0,1,3.1-1.308ZM696.535,516l-.029.674h-7.439a2.6,2.6,0,0,0,.8,1.836,2.558,2.558,0,0,0,1.768.635,2.472,2.472,0,0,0,1.323-.347,2.141,2.141,0,0,0,.845-1.011l2.578.381a4.388,4.388,0,0,1-1.758,2.354,5.233,5.233,0,0,1-2.969.84,5.439,5.439,0,0,1-3.911-1.382,5.784,5.784,0,0,1,.005-7.666,5.268,5.268,0,0,1,3.818-1.4A4.6,4.6,0,0,1,696.534,516Zm-4.951-3.1a2.221,2.221,0,0,0-2.441,1.934h4.609a2.118,2.118,0,0,0-.693-1.436,2.2,2.2,0,0,0-1.476-.489Zm9.785-.186a3.253,3.253,0,0,1,1.318-1.206,4.009,4.009,0,0,1,1.963-.5v2.51a3.8,3.8,0,0,0-2.4.605,2.638,2.638,0,0,0-.742,2.148v4.9h-2.832V511.128h2.7Zm10.1,4.424V514.79h7v2.354Zm15.446,4.033V507.056h5.107a7.961,7.961,0,0,1,2.945.511,5.43,5.43,0,0,1,2.109,1.44,6.268,6.268,0,0,1,1.25,2.222,10.011,10.011,0,0,1,0,5.772,6.286,6.286,0,0,1-1.25,2.222,5.441,5.441,0,0,1-2.109,1.44,7.977,7.977,0,0,1-2.944.508Zm2.93-2.588h2.031a3.468,3.468,0,0,0,2.852-1.147,6.365,6.365,0,0,0,0-6.65,3.465,3.465,0,0,0-2.852-1.147h-2.031Zm12.715-8.955a1.58,1.58,0,0,1-1.152-.474,1.551,1.551,0,0,1-.479-1.147,1.53,1.53,0,0,1,.483-1.138,1.58,1.58,0,0,1,1.147-.474,1.617,1.617,0,0,1,0,3.233Zm-1.436,11.543V511.128h2.832v10.039ZM753.4,511.128h2.979L752.1,521.167H749.66l-4.229-10.039h2.959l2.5,6.865ZM766.9,516l-.029.674h-7.441a2.6,2.6,0,0,0,.8,1.836,2.558,2.558,0,0,0,1.768.635,2.472,2.472,0,0,0,1.323-.347,2.141,2.141,0,0,0,.845-1.011l2.578.381a4.388,4.388,0,0,1-1.758,2.354,5.233,5.233,0,0,1-2.969.84,5.439,5.439,0,0,1-3.911-1.382,5.784,5.784,0,0,1,.005-7.666,5.268,5.268,0,0,1,3.818-1.4A4.6,4.6,0,0,1,766.9,516Zm-4.951-3.1a2.221,2.221,0,0,0-2.441,1.934h4.609a2.118,2.118,0,0,0-.693-1.436,2.2,2.2,0,0,0-1.479-.494Zm9.785-.186a3.254,3.254,0,0,1,1.318-1.206,4.009,4.009,0,0,1,1.963-.5v2.51a3.8,3.8,0,0,0-2.4.605,2.638,2.638,0,0,0-.742,2.148v4.9H769.04V511.128h2.7Zm9.245,8.452a3.033,3.033,0,0,1-2.266-.815,3.169,3.169,0,0,1-.8-2.319v-4.747h-1.973v-2.158h.635a1.658,1.658,0,0,0,1.25-.42,2.165,2.165,0,0,0,.4-1.494v-1.328h2.543v3.242h2.07v2.158h-2.07v4.443q0,1.3,1.162,1.3h.908v2.138Zm5.469-11.543a1.58,1.58,0,0,1-1.152-.474,1.551,1.551,0,0,1-.479-1.147,1.53,1.53,0,0,1,.483-1.138,1.58,1.58,0,0,1,1.147-.474,1.616,1.616,0,0,1,0,3.232Zm-1.436,11.543V511.128h2.832v10.039Zm8.438-8.447a3.254,3.254,0,0,1,1.318-1.206,4.009,4.009,0,0,1,1.963-.5v2.51a3.8,3.8,0,0,0-2.4.605,2.638,2.638,0,0,0-.742,2.148v4.89h-2.832V511.128h2.7Z" fill="#fff"/>
    <path id="Trazado_24133" data-name="Trazado 24133" d="M676.349,590.056h3.118l-5.218,14.111h-3.223l-5.185-14.111h3.1l3.7,10.693ZM689.66,599l-.029.674H682.19a2.6,2.6,0,0,0,.8,1.836,2.558,2.558,0,0,0,1.768.635,2.472,2.472,0,0,0,1.323-.347,2.142,2.142,0,0,0,.845-1.011l2.578.381a4.388,4.388,0,0,1-1.758,2.354,5.233,5.233,0,0,1-2.969.84,5.438,5.438,0,0,1-3.911-1.382,5.784,5.784,0,0,1,0-7.666,5.268,5.268,0,0,1,3.818-1.4,4.6,4.6,0,0,1,4.97,5.086Zm-4.951-3.1a2.221,2.221,0,0,0-2.441,1.934h4.609a2.118,2.118,0,0,0-.693-1.436,2.2,2.2,0,0,0-1.476-.494Zm13.018-1.973a3.912,3.912,0,0,1,2.773.9,3.352,3.352,0,0,1,.967,2.573v6.766h-2.822v-6.152a1.748,1.748,0,0,0-.5-1.387,1.894,1.894,0,0,0-1.294-.439,2.6,2.6,0,0,0-.84.127,2.15,2.15,0,0,0-.7.4,1.742,1.742,0,0,0-.5.757,3.475,3.475,0,0,0-.19,1.162v5.532h-2.812V594.128h2.813v1.113a3.865,3.865,0,0,1,3.1-1.308Zm13.583-4.761h2.813v15h-2.666l-.068-1.309A2.867,2.867,0,0,1,710.115,604a4.3,4.3,0,0,1-1.88.405,4.9,4.9,0,0,1-1.875-.361,4.515,4.515,0,0,1-2.578-2.676,6.1,6.1,0,0,1-.381-2.2,5.7,5.7,0,0,1,.664-2.8,4.538,4.538,0,0,1,1.753-1.821,4.811,4.811,0,0,1,2.417-.615,4.388,4.388,0,0,1,1.821.366,2.836,2.836,0,0,1,1.255,1.04Zm-2.432,12.9a2.5,2.5,0,0,0,1.9-.8,3.283,3.283,0,0,0-.005-4.2,2.5,2.5,0,0,0-1.9-.806,2.527,2.527,0,0,0-1.909.791,3.325,3.325,0,0,0,0,4.224A2.53,2.53,0,0,0,708.878,602.067Zm17.6-3.066-.029.674h-7.441a2.6,2.6,0,0,0,.8,1.836,2.558,2.558,0,0,0,1.768.635,2.472,2.472,0,0,0,1.323-.347,2.142,2.142,0,0,0,.845-1.011l2.578.381a4.388,4.388,0,0,1-1.758,2.354,5.234,5.234,0,0,1-2.969.84,5.438,5.438,0,0,1-3.911-1.382,5.784,5.784,0,0,1,.005-7.666,5.268,5.268,0,0,1,3.818-1.4A4.6,4.6,0,0,1,726.476,599Zm-4.951-3.1a2.221,2.221,0,0,0-2.441,1.934H723.7A2.118,2.118,0,0,0,723,596.4a2.194,2.194,0,0,0-1.478-.494Zm9.785-.186a3.254,3.254,0,0,1,1.318-1.206,4.009,4.009,0,0,1,1.963-.5v2.51a3.8,3.8,0,0,0-2.4.605,2.638,2.638,0,0,0-.742,2.148v4.9h-2.832V594.128h2.7Z" fill="#fff"/>
    <path id="Trazado_24134" data-name="Trazado 24134" d="M655.074,687.367a7.892,7.892,0,0,1-2.876-.518,6.772,6.772,0,0,1-2.29-1.445,6.515,6.515,0,0,1-1.5-2.295,8,8,0,0,1-.547-3,7.63,7.63,0,0,1,.938-3.833,6.379,6.379,0,0,1,2.568-2.537,7.7,7.7,0,0,1,3.706-.879A7.48,7.48,0,0,1,659.214,674a6.255,6.255,0,0,1,2.53,3.144l-2.734,1a3.871,3.871,0,0,0-1.514-1.9,4.32,4.32,0,0,0-2.422-.684,4.139,4.139,0,0,0-3.086,1.23,5.155,5.155,0,0,0,.005,6.645,4.141,4.141,0,0,0,3.081,1.229,4.313,4.313,0,0,0,2.417-.688,3.893,3.893,0,0,0,1.519-1.912l2.734,1a6.292,6.292,0,0,1-2.529,3.149A7.474,7.474,0,0,1,655.074,687.367Zm13.379,0a6.313,6.313,0,0,1-2.842-.615,4.6,4.6,0,0,1-1.944-1.812,5.377,5.377,0,0,1-.708-2.8,4.908,4.908,0,0,1,1.523-3.809,6.368,6.368,0,0,1,7.959,0,5.542,5.542,0,0,1,0,7.632A5.656,5.656,0,0,1,668.453,687.367Zm-.029-2.236a2.581,2.581,0,0,0,1.987-.82,3.492,3.492,0,0,0,0-4.341,2.577,2.577,0,0,0-1.987-.82,2.478,2.478,0,0,0-1.929.825,3.505,3.505,0,0,0,0,4.326,2.487,2.487,0,0,0,1.93.825Zm19.521-8.193a3.835,3.835,0,0,1,2.588.815,2.917,2.917,0,0,1,.947,2.339v7.075h-2.813v-6.279a1.68,1.68,0,0,0-.449-1.27,1.571,1.571,0,0,0-1.133-.43,1.812,1.812,0,0,0-1.367.547,2.483,2.483,0,0,0-.527,1.768v5.664h-2.842v-6.25a1.725,1.725,0,0,0-.449-1.294,1.594,1.594,0,0,0-1.162-.435,1.753,1.753,0,0,0-1.357.576,2.746,2.746,0,0,0-.527,1.885v5.518h-2.8V677.128h2.8v1.182a3.412,3.412,0,0,1,2.91-1.377,4.278,4.278,0,0,1,1.89.386,2.572,2.572,0,0,1,1.187,1.118,3.549,3.549,0,0,1,3.1-1.5Zm12.92.2h2.813v10.029h-2.666l-.068-1.211a3.839,3.839,0,0,1-3.193,1.406,3.915,3.915,0,0,1-2.773-.9,3.348,3.348,0,0,1-.967-2.573v-6.761h2.822v6.152a1.734,1.734,0,0,0,.5,1.377,1.91,1.91,0,0,0,1.3.439,2.271,2.271,0,0,0,1.6-.571,2.459,2.459,0,0,0,.63-1.86Zm11.65-.2a3.912,3.912,0,0,1,2.773.9,3.352,3.352,0,0,1,.967,2.573v6.756h-2.822v-6.152a1.747,1.747,0,0,0-.5-1.387,1.9,1.9,0,0,0-1.294-.439,2.6,2.6,0,0,0-.84.127,2.149,2.149,0,0,0-.7.4,1.741,1.741,0,0,0-.5.757,3.474,3.474,0,0,0-.19,1.162v5.532H706.6V677.128h2.813v1.113a3.866,3.866,0,0,1,3.106-1.308Zm7.9-1.309a1.58,1.58,0,0,1-1.152-.474,1.551,1.551,0,0,1-.479-1.147,1.531,1.531,0,0,1,.483-1.141,1.58,1.58,0,0,1,1.147-.474,1.616,1.616,0,0,1,0,3.232Zm-1.435,11.538V677.128h2.832v10.039Zm10.283.186a5.367,5.367,0,0,1-3.877-1.445,5.488,5.488,0,0,1,0-7.54,5.959,5.959,0,0,1,7.134-.469,4.318,4.318,0,0,1,1.68,2.725l-2.6.283a2.226,2.226,0,0,0-.84-1.318,2.556,2.556,0,0,0-1.523-.439,2.3,2.3,0,0,0-1.836.82,3.7,3.7,0,0,0,0,4.331,2.3,2.3,0,0,0,1.836.825,2.542,2.542,0,0,0,1.519-.439,2.282,2.282,0,0,0,.845-1.318l2.6.283a4.332,4.332,0,0,1-1.694,2.725,5.338,5.338,0,0,1-3.24.976Zm15.166-2.91a9.359,9.359,0,0,0,.244,2.451v.273h-2.626l-.225-1.094a3.27,3.27,0,0,1-1.406.967,5.192,5.192,0,0,1-1.816.322,4.822,4.822,0,0,1-.937-.088,3.2,3.2,0,0,1-.845-.3,2.566,2.566,0,0,1-.7-.522,2.278,2.278,0,0,1-.469-.8,3.154,3.154,0,0,1-.176-1.089,2.993,2.993,0,0,1,.186-1.089,2.525,2.525,0,0,1,.488-.815,2.956,2.956,0,0,1,.791-.6,6.012,6.012,0,0,1,1-.43,11.646,11.646,0,0,1,1.191-.312l1.65-.371a1.83,1.83,0,0,0,.747-.317.634.634,0,0,0,.22-.5,1.036,1.036,0,0,0-.493-.967,2.29,2.29,0,0,0-1.2-.293,1.72,1.72,0,0,0-1.953,1.452c0,.027-.008.054-.01.081l-2.49-.449a3.368,3.368,0,0,1,1.457-2.286,5.78,5.78,0,0,1,3.154-.737q4.218,0,4.219,3.623Zm-4.951,1.016a2.265,2.265,0,0,0,1.738-.728,3.068,3.068,0,0,0,.674-2.153l-2.383.674a2.792,2.792,0,0,0-1,.41.841.841,0,0,0-.347.723.933.933,0,0,0,.371.8,1.544,1.544,0,0,0,.948.273Zm10.381-6.738a3.253,3.253,0,0,1,1.318-1.206,4.008,4.008,0,0,1,1.963-.5v2.51a3.8,3.8,0,0,0-2.4.6,2.638,2.638,0,0,0-.742,2.148v4.889h-2.831V677.128h2.7Z" fill="#fff"/>
    <path id="Trazado_24076" data-name="Trazado 24076" d="M1292.167,312.167h253v70h-253Z" fill="#c16ccc"/>
    <path id="Trazado_24077" data-name="Trazado 24077" d="M1292.167,395.167h253v70h-253Z" fill="#c16ccc"/>
    <path id="Trazado_24078" data-name="Trazado 24078" d="M1292.167,478.167h253v70h-253Z" fill="#c16ccc"/>
    <path id="Trazado_24079" data-name="Trazado 24079" d="M1292.167,561.167h253v70h-253Z" fill="#c16ccc"/>
    <path id="Trazado_24080" data-name="Trazado 24080" d="M1292.167,644.167h253v70h-253Z" fill="#c16ccc"/>
    <path id="Trazado_24081" data-name="Trazado 24081" d="M1292.167,727.167h253v70h-253Z" fill="#c16ccc"/>
    <path id="Trazado_24082" data-name="Trazado 24082" d="M1381.628,343.634h-5.234v3.2h4.639v2.549h-4.639v3.193h5.234v2.591h-8.184V341.056h8.184Zm9.766-3.467h2.813v15h-2.667l-.073-1.309a2.868,2.868,0,0,1-1.274,1.138,4.3,4.3,0,0,1-1.88.4,4.9,4.9,0,0,1-1.875-.361,4.513,4.513,0,0,1-2.571-2.673,6.1,6.1,0,0,1-.381-2.2,5.7,5.7,0,0,1,.664-2.8,4.538,4.538,0,0,1,1.753-1.821,4.811,4.811,0,0,1,2.417-.615,4.387,4.387,0,0,1,1.821.366,2.836,2.836,0,0,1,1.255,1.04Zm-2.432,12.9a2.5,2.5,0,0,0,1.9-.8,3.283,3.283,0,0,0-.005-4.2,2.5,2.5,0,0,0-1.9-.806,2.527,2.527,0,0,0-1.909.791,3.325,3.325,0,0,0,0,4.224A2.53,2.53,0,0,0,1388.962,353.067Zm14.8-7.939h2.813v10.039h-2.666l-.068-1.211a3.839,3.839,0,0,1-3.193,1.406,3.915,3.915,0,0,1-2.773-.9,3.348,3.348,0,0,1-.967-2.573v-6.761h2.822v6.152a1.735,1.735,0,0,0,.5,1.377,1.91,1.91,0,0,0,1.3.439,2.271,2.271,0,0,0,1.6-.571,2.459,2.459,0,0,0,.63-1.86Zm10.264,10.225a5.367,5.367,0,0,1-3.877-1.445,5.488,5.488,0,0,1,0-7.54,5.959,5.959,0,0,1,7.134-.469,4.318,4.318,0,0,1,1.68,2.725l-2.6.283a2.226,2.226,0,0,0-.84-1.318,2.556,2.556,0,0,0-1.523-.439,2.3,2.3,0,0,0-1.833.817,3.7,3.7,0,0,0,0,4.331,2.3,2.3,0,0,0,1.836.825,2.542,2.542,0,0,0,1.519-.439,2.284,2.284,0,0,0,.845-1.317l2.6.283a4.332,4.332,0,0,1-1.694,2.725,5.333,5.333,0,0,1-3.243.978Zm15.166-2.91a9.357,9.357,0,0,0,.244,2.451v.273h-2.627l-.225-1.094a3.27,3.27,0,0,1-1.406.967,5.192,5.192,0,0,1-1.816.322,4.818,4.818,0,0,1-.937-.088,3.2,3.2,0,0,1-.845-.3,2.566,2.566,0,0,1-.7-.522,2.277,2.277,0,0,1-.469-.8,3.154,3.154,0,0,1-.176-1.089,2.993,2.993,0,0,1,.186-1.089,2.524,2.524,0,0,1,.488-.815,2.954,2.954,0,0,1,.791-.6,6.022,6.022,0,0,1,1-.43,11.65,11.65,0,0,1,1.191-.312l1.65-.371a1.829,1.829,0,0,0,.747-.317.635.635,0,0,0,.22-.5,1.037,1.037,0,0,0-.493-.967,2.29,2.29,0,0,0-1.2-.293,1.72,1.72,0,0,0-1.953,1.452c0,.027-.008.054-.01.081l-2.49-.449a3.368,3.368,0,0,1,1.455-2.29,5.78,5.78,0,0,1,3.154-.737q4.218,0,4.219,3.623Zm-4.951,1.016a2.265,2.265,0,0,0,1.738-.728,3.068,3.068,0,0,0,.674-2.153l-2.383.674a2.792,2.792,0,0,0-1,.41.841.841,0,0,0-.347.723.933.933,0,0,0,.371.8,1.54,1.54,0,0,0,.951.273Zm11.293,1.708a3.033,3.033,0,0,1-2.266-.815,3.169,3.169,0,0,1-.8-2.319v-4.747h-1.973v-2.158h.635a1.658,1.658,0,0,0,1.25-.42,2.166,2.166,0,0,0,.4-1.494v-1.328h2.539v3.242h2.07v2.158h-2.07v4.443q0,1.3,1.162,1.3h.908v2.138ZM1441,343.624a1.58,1.58,0,0,1-1.152-.474,1.551,1.551,0,0,1-.479-1.147,1.531,1.531,0,0,1,.483-1.138,1.58,1.58,0,0,1,1.147-.474,1.616,1.616,0,0,1,0,3.232Zm-1.436,11.543V345.128h2.832v10.039Zm12.276-10.039h2.979l-4.278,10.039H1448.1l-4.229-10.039h2.959l2.5,6.865Zm8.73,10.234a6.313,6.313,0,0,1-2.842-.615,4.6,4.6,0,0,1-1.948-1.807,5.378,5.378,0,0,1-.708-2.8,4.908,4.908,0,0,1,1.523-3.809,6.368,6.368,0,0,1,7.959,0,5.542,5.542,0,0,1,0,7.632,5.657,5.657,0,0,1-3.984,1.4Zm-.029-2.236a2.581,2.581,0,0,0,1.987-.82,3.483,3.483,0,0,0,0-4.336,2.578,2.578,0,0,0-1.987-.82,2.478,2.478,0,0,0-1.929.825,3.505,3.505,0,0,0,0,4.326,2.485,2.485,0,0,0,1.929.825Z" fill="#fff"/>
    <path id="Trazado_24083" data-name="Trazado 24083" d="M1385.485,424.056a4.247,4.247,0,0,1,3.252,1.311,4.574,4.574,0,0,1,1.23,3.249,4.459,4.459,0,0,1-1.221,3.228,4.328,4.328,0,0,1-3.262,1.265h-2.938v5.058h-2.93V424.056Zm-.488,6.6a2.157,2.157,0,0,0,1.611-.552,2.408,2.408,0,0,0,0-3.037,2.129,2.129,0,0,0-1.607-.56h-2.451v4.15ZM1401.159,433l-.029.674h-7.441a2.6,2.6,0,0,0,.8,1.836,2.558,2.558,0,0,0,1.768.635,2.471,2.471,0,0,0,1.323-.347,2.142,2.142,0,0,0,.845-1.011l2.578.381a4.389,4.389,0,0,1-1.758,2.354,5.233,5.233,0,0,1-2.969.84,5.439,5.439,0,0,1-3.911-1.382,5.784,5.784,0,0,1,.005-7.666,5.268,5.268,0,0,1,3.818-1.4,4.6,4.6,0,0,1,4.971,5.087Zm-4.951-3.1a2.221,2.221,0,0,0-2.441,1.934h4.609a2.117,2.117,0,0,0-.693-1.436,2.2,2.2,0,0,0-1.475-.493Zm9.785-.186a3.253,3.253,0,0,1,1.318-1.206,4.009,4.009,0,0,1,1.963-.5v2.51a3.8,3.8,0,0,0-2.4.6,2.638,2.638,0,0,0-.742,2.148v4.9H1403.3V428.128h2.7Zm8.467,8.643a5.609,5.609,0,0,1-2.93-.7,2.971,2.971,0,0,1-1.436-2.09l2.354-.664a1.892,1.892,0,0,0,2.012,1.494,2.088,2.088,0,0,0,1.025-.23.8.8,0,0,0,.4-.776.823.823,0,0,0-.166-.518,1.321,1.321,0,0,0-.513-.371,6.228,6.228,0,0,0-.684-.264q-.337-.108-.894-.259t-.928-.288a6.253,6.253,0,0,1-.884-.376,3.758,3.758,0,0,1-.732-.518,2.084,2.084,0,0,1-.547-.786,2.818,2.818,0,0,1-.19-1.074,2.561,2.561,0,0,1,1.089-2.246,4.855,4.855,0,0,1,2.847-.762,4.99,4.99,0,0,1,2.627.645,2.918,2.918,0,0,1,1.348,2.012l-2.178.488a1.706,1.706,0,0,0-1.787-1.27,1.953,1.953,0,0,0-.986.225.719.719,0,0,0-.391.664.756.756,0,0,0,.059.3.606.606,0,0,0,.205.244,3,3,0,0,0,.283.186,2.1,2.1,0,0,0,.4.161c.176.055.322.1.439.127l.513.132.522.137q.537.145.942.293a5.46,5.46,0,0,1,.864.41,3.1,3.1,0,0,1,.757.591,2.635,2.635,0,0,1,.493.83,3.093,3.093,0,0,1,.2,1.118,3.028,3.028,0,0,1-.337,1.455,2.545,2.545,0,0,1-.923.981,4.526,4.526,0,0,1-1.3.527,6.78,6.78,0,0,1-1.573.182Zm10.83,0a6.313,6.313,0,0,1-2.842-.615,4.6,4.6,0,0,1-1.948-1.807,5.376,5.376,0,0,1-.708-2.8,4.908,4.908,0,0,1,1.523-3.809,6.368,6.368,0,0,1,7.959,0,5.542,5.542,0,0,1,0,7.632,5.654,5.654,0,0,1-3.984,1.409Zm-.029-2.236a2.581,2.581,0,0,0,1.987-.82,3.483,3.483,0,0,0,0-4.336,2.578,2.578,0,0,0-1.987-.82,2.478,2.478,0,0,0-1.929.825,3.5,3.5,0,0,0,0,4.326,2.484,2.484,0,0,0,1.929.83Zm13.555-8.193a3.911,3.911,0,0,1,2.773.9,3.352,3.352,0,0,1,.967,2.573v6.766h-2.822v-6.152a1.747,1.747,0,0,0-.5-1.387,1.9,1.9,0,0,0-1.294-.439,2.6,2.6,0,0,0-.84.127,2.149,2.149,0,0,0-.7.4,1.74,1.74,0,0,0-.5.757,3.476,3.476,0,0,0-.19,1.162v5.532H1432.9V428.128h2.813v1.113a3.865,3.865,0,0,1,3.1-1.308Zm14.7,7.51a9.362,9.362,0,0,0,.244,2.451v.278h-2.627l-.225-1.094a3.27,3.27,0,0,1-1.406.967,5.191,5.191,0,0,1-1.816.322,4.818,4.818,0,0,1-.937-.088,3.2,3.2,0,0,1-.845-.3,2.565,2.565,0,0,1-.7-.522,2.277,2.277,0,0,1-.469-.8,3.157,3.157,0,0,1-.176-1.089,2.993,2.993,0,0,1,.186-1.089,2.524,2.524,0,0,1,.488-.815,2.955,2.955,0,0,1,.791-.6,6.013,6.013,0,0,1,1-.43,11.647,11.647,0,0,1,1.191-.312l1.65-.371a1.83,1.83,0,0,0,.747-.317.635.635,0,0,0,.22-.5,1.036,1.036,0,0,0-.493-.967,2.29,2.29,0,0,0-1.2-.293,1.72,1.72,0,0,0-1.953,1.452c0,.027-.008.054-.01.081l-2.49-.449a3.368,3.368,0,0,1,1.455-2.29,5.781,5.781,0,0,1,3.154-.737q4.218,0,4.219,3.623Zm-4.951,1.016a2.265,2.265,0,0,0,1.738-.728,3.068,3.068,0,0,0,.674-2.153l-2.383.674a2.792,2.792,0,0,0-1,.41.841.841,0,0,0-.347.723.933.933,0,0,0,.371.8,1.541,1.541,0,0,0,.944.278Zm7.682,1.713v-15h2.842v15Z" fill="#fff"/>
    <path id="Trazado_24084" data-name="Trazado 24084" d="M1379.055,509.634h-5.235v3.2h4.639v2.549h-4.639v3.193h5.234v2.591h-8.187V507.056h8.184Zm14.541,1.3a3.835,3.835,0,0,1,2.588.815,2.917,2.917,0,0,1,.947,2.339v7.079h-2.812v-6.279a1.68,1.68,0,0,0-.449-1.27,1.571,1.571,0,0,0-1.133-.43,1.812,1.812,0,0,0-1.367.547,2.483,2.483,0,0,0-.527,1.768v5.664H1388v-6.25a1.724,1.724,0,0,0-.449-1.294,1.594,1.594,0,0,0-1.162-.435,1.753,1.753,0,0,0-1.357.576,2.746,2.746,0,0,0-.527,1.885v5.518h-2.8V511.128h2.8v1.182a3.412,3.412,0,0,1,2.91-1.377,4.277,4.277,0,0,1,1.89.386,2.571,2.571,0,0,1,1.187,1.118,3.55,3.55,0,0,1,3.1-1.5Zm10.947,10.433a6.314,6.314,0,0,1-2.842-.615,4.6,4.6,0,0,1-1.948-1.807,5.376,5.376,0,0,1-.708-2.8,4.908,4.908,0,0,1,1.523-3.809,6.368,6.368,0,0,1,7.959,0,5.542,5.542,0,0,1,0,7.632A5.659,5.659,0,0,1,1404.543,521.367Zm-.029-2.236a2.581,2.581,0,0,0,1.987-.82,3.483,3.483,0,0,0,0-4.336,2.577,2.577,0,0,0-1.987-.82,2.478,2.478,0,0,0-1.929.825,3.505,3.505,0,0,0,0,4.326,2.486,2.486,0,0,0,1.929.82Zm12.168,2.227a5.367,5.367,0,0,1-3.877-1.445,5.488,5.488,0,0,1,0-7.54,5.959,5.959,0,0,1,7.134-.469,4.318,4.318,0,0,1,1.68,2.725l-2.6.283a2.226,2.226,0,0,0-.84-1.318,2.556,2.556,0,0,0-1.523-.439,2.3,2.3,0,0,0-1.836.82,3.7,3.7,0,0,0,0,4.331,2.3,2.3,0,0,0,1.836.825,2.535,2.535,0,0,0,1.511-.444,2.282,2.282,0,0,0,.845-1.318l2.6.283a4.332,4.332,0,0,1-1.694,2.725,5.331,5.331,0,0,1-3.236.976Zm8.369-11.729a1.58,1.58,0,0,1-1.152-.474,1.551,1.551,0,0,1-.479-1.147,1.53,1.53,0,0,1,.483-1.138,1.58,1.58,0,0,1,1.147-.474,1.614,1.614,0,0,1,.006,3.228Zm-1.436,11.538V511.128h2.832v10.039Zm10.42.2a6.314,6.314,0,0,1-2.842-.615,4.6,4.6,0,0,1-1.948-1.807,5.377,5.377,0,0,1-.708-2.8,4.908,4.908,0,0,1,1.523-3.809,6.368,6.368,0,0,1,7.959,0,5.542,5.542,0,0,1,0,7.632A5.661,5.661,0,0,1,1434.035,521.367Zm-.029-2.236a2.581,2.581,0,0,0,1.987-.82,3.483,3.483,0,0,0,0-4.336,2.578,2.578,0,0,0-1.987-.82,2.478,2.478,0,0,0-1.929.825,3.5,3.5,0,0,0,0,4.326,2.486,2.486,0,0,0,1.929.82Zm13.555-8.193a3.911,3.911,0,0,1,2.773.9,3.352,3.352,0,0,1,.967,2.573v6.756h-2.822v-6.152a1.747,1.747,0,0,0-.5-1.387,1.9,1.9,0,0,0-1.294-.439,2.6,2.6,0,0,0-.84.127,2.149,2.149,0,0,0-.7.4,1.74,1.74,0,0,0-.5.757,3.475,3.475,0,0,0-.19,1.162v5.532h-2.812V511.128h2.813v1.113a3.863,3.863,0,0,1,3.1-1.308Zm14.7,7.51a9.362,9.362,0,0,0,.244,2.451v.268h-2.627l-.225-1.094a3.27,3.27,0,0,1-1.406.967,5.19,5.19,0,0,1-1.816.322,4.822,4.822,0,0,1-.937-.088,3.2,3.2,0,0,1-.845-.3,2.566,2.566,0,0,1-.7-.522,2.277,2.277,0,0,1-.469-.8,3.157,3.157,0,0,1-.176-1.089,2.993,2.993,0,0,1,.186-1.089,2.524,2.524,0,0,1,.488-.815,2.955,2.955,0,0,1,.791-.6,6.008,6.008,0,0,1,1-.43,11.647,11.647,0,0,1,1.191-.312l1.65-.371a1.83,1.83,0,0,0,.747-.317.635.635,0,0,0,.22-.5,1.036,1.036,0,0,0-.493-.967,2.29,2.29,0,0,0-1.2-.293,1.72,1.72,0,0,0-1.953,1.452c0,.027-.008.054-.01.081l-2.49-.449a3.368,3.368,0,0,1,1.455-2.29,5.781,5.781,0,0,1,3.154-.737q4.218,0,4.219,3.623Zm-4.951,1.016a2.265,2.265,0,0,0,1.738-.728,3.068,3.068,0,0,0,.674-2.153l-2.383.674a2.793,2.793,0,0,0-1,.41.841.841,0,0,0-.347.723.933.933,0,0,0,.371.8,1.538,1.538,0,0,0,.944.268Zm7.682,1.7v-15h2.842v15Z" fill="#fff"/>
    <path id="Trazado_24085" data-name="Trazado 24085" d="M1389.206,590.056h2.93v14.111h-2.93v-5.8h-5.967v5.8h-2.93V590.056h2.93v5.761h5.967Zm10.83,14.311a6.314,6.314,0,0,1-2.842-.615,4.6,4.6,0,0,1-1.948-1.807,5.378,5.378,0,0,1-.708-2.8,4.908,4.908,0,0,1,1.523-3.809,6.368,6.368,0,0,1,7.959,0,5.542,5.542,0,0,1,0,7.632A5.659,5.659,0,0,1,1400.036,604.367Zm-.029-2.236a2.581,2.581,0,0,0,1.987-.82,3.483,3.483,0,0,0,0-4.336,2.578,2.578,0,0,0-1.987-.82,2.478,2.478,0,0,0-1.929.825,3.505,3.505,0,0,0,0,4.326,2.486,2.486,0,0,0,1.929.82Zm13.555-8.193a3.911,3.911,0,0,1,2.773.9,3.352,3.352,0,0,1,.967,2.573v6.756h-2.822v-6.152a1.747,1.747,0,0,0-.5-1.387,1.894,1.894,0,0,0-1.294-.439,2.6,2.6,0,0,0-.84.127,2.15,2.15,0,0,0-.7.4,1.742,1.742,0,0,0-.5.757,3.472,3.472,0,0,0-.19,1.162v5.532h-2.812V594.128h2.813v1.113a3.863,3.863,0,0,1,3.1-1.308ZM1429.467,599l-.029.674H1422a2.6,2.6,0,0,0,.8,1.836,2.558,2.558,0,0,0,1.768.635,2.471,2.471,0,0,0,1.323-.347,2.142,2.142,0,0,0,.845-1.011l2.578.381a4.389,4.389,0,0,1-1.758,2.354,5.233,5.233,0,0,1-2.969.84,5.439,5.439,0,0,1-3.911-1.382,5.784,5.784,0,0,1,.005-7.666,5.268,5.268,0,0,1,3.818-1.4,4.6,4.6,0,0,1,4.971,5.086Zm-4.951-3.1a2.221,2.221,0,0,0-2.441,1.934h4.609a2.117,2.117,0,0,0-.693-1.436,2.2,2.2,0,0,0-1.472-.494Zm10.628,8.466a5.609,5.609,0,0,1-2.93-.7,2.972,2.972,0,0,1-1.436-2.09l2.354-.664a1.892,1.892,0,0,0,2.012,1.494,2.081,2.081,0,0,0,1.023-.24.8.8,0,0,0,.4-.776.823.823,0,0,0-.166-.518,1.32,1.32,0,0,0-.513-.371,6.223,6.223,0,0,0-.684-.264q-.337-.108-.894-.259t-.928-.288a6.249,6.249,0,0,1-.884-.376,3.758,3.758,0,0,1-.732-.518,2.084,2.084,0,0,1-.547-.786,2.818,2.818,0,0,1-.19-1.074,2.561,2.561,0,0,1,1.089-2.246,4.855,4.855,0,0,1,2.847-.762,4.989,4.989,0,0,1,2.627.645,2.918,2.918,0,0,1,1.348,2.012l-2.178.488a1.706,1.706,0,0,0-1.787-1.27,1.953,1.953,0,0,0-.986.225.719.719,0,0,0-.391.664.753.753,0,0,0,.059.3.606.606,0,0,0,.205.244,2.979,2.979,0,0,0,.283.186,2.1,2.1,0,0,0,.4.161c.176.055.322.1.439.127l.513.132.522.137q.537.146.942.293a5.459,5.459,0,0,1,.864.41,3.1,3.1,0,0,1,.757.591,2.635,2.635,0,0,1,.493.83,3.094,3.094,0,0,1,.2,1.118,3.028,3.028,0,0,1-.337,1.455,2.545,2.545,0,0,1-.923.981,4.526,4.526,0,0,1-1.3.527A6.759,6.759,0,0,1,1435.144,604.367Zm9.893-.2a3.033,3.033,0,0,1-2.266-.815,3.169,3.169,0,0,1-.8-2.319v-4.747H1440v-2.158h.635a1.657,1.657,0,0,0,1.25-.42,2.165,2.165,0,0,0,.4-1.494v-1.328h2.539v3.242h2.07v2.158h-2.07v4.443q0,1.3,1.162,1.3h.908v2.138Zm8.672.2a6.314,6.314,0,0,1-2.842-.615,4.6,4.6,0,0,1-1.948-1.807,5.377,5.377,0,0,1-.708-2.8,4.907,4.907,0,0,1,1.523-3.809,6.368,6.368,0,0,1,7.959,0,5.542,5.542,0,0,1,0,7.632,5.657,5.657,0,0,1-3.985,1.4Zm-.029-2.236a2.581,2.581,0,0,0,1.987-.82,3.495,3.495,0,0,0,0-4.344,2.578,2.578,0,0,0-1.987-.82,2.478,2.478,0,0,0-1.929.825,3.505,3.505,0,0,0,0,4.326,2.484,2.484,0,0,0,1.928.828Z" fill="#fff"/>
    <path id="Trazado_24086" data-name="Trazado 24086" d="M1385.515,687.167V673.056h5.107a7.959,7.959,0,0,1,2.945.511,5.43,5.43,0,0,1,2.109,1.44,6.269,6.269,0,0,1,1.25,2.222,10.013,10.013,0,0,1,0,5.772,6.287,6.287,0,0,1-1.25,2.222,5.441,5.441,0,0,1-2.109,1.44,7.979,7.979,0,0,1-2.945.5Zm2.93-2.588h2.031a3.468,3.468,0,0,0,2.852-1.147,6.365,6.365,0,0,0,0-6.65,3.465,3.465,0,0,0-2.852-1.147h-2.033Zm12.715-8.955a1.58,1.58,0,0,1-1.152-.474,1.551,1.551,0,0,1-.479-1.147,1.53,1.53,0,0,1,.483-1.138,1.58,1.58,0,0,1,1.147-.474,1.617,1.617,0,0,1,0,3.233Zm-1.436,11.543V677.128h2.832v10.039Zm8.438-8.447a3.254,3.254,0,0,1,1.318-1.206,4.01,4.01,0,0,1,1.963-.5v2.51a3.8,3.8,0,0,0-2.4.605,2.638,2.638,0,0,0-.742,2.148v4.89h-2.834V677.128h2.7ZM1422.478,682l-.029.674h-7.442a2.6,2.6,0,0,0,.8,1.836,2.558,2.558,0,0,0,1.768.635,2.471,2.471,0,0,0,1.323-.347,2.142,2.142,0,0,0,.845-1.011l2.578.381a4.389,4.389,0,0,1-1.758,2.354,5.233,5.233,0,0,1-2.969.84,5.439,5.439,0,0,1-3.911-1.382,5.784,5.784,0,0,1,.005-7.666,5.268,5.268,0,0,1,3.818-1.4,4.6,4.6,0,0,1,4.972,5.086Zm-4.951-3.1a2.221,2.221,0,0,0-2.441,1.934h4.609A2.117,2.117,0,0,0,1419,679.4a2.2,2.2,0,0,0-1.476-.494Zm11.631,8.447a5.367,5.367,0,0,1-3.877-1.445,5.488,5.488,0,0,1,0-7.54,5.959,5.959,0,0,1,7.134-.469,4.318,4.318,0,0,1,1.68,2.725l-2.6.283a2.226,2.226,0,0,0-.84-1.318,2.557,2.557,0,0,0-1.523-.439,2.3,2.3,0,0,0-1.836.82,3.7,3.7,0,0,0,0,4.331,2.3,2.3,0,0,0,1.836.825,2.542,2.542,0,0,0,1.519-.439,2.282,2.282,0,0,0,.845-1.318l2.6.283a4.332,4.332,0,0,1-1.694,2.725,5.333,5.333,0,0,1-3.245.981Zm10.673-.181a3.033,3.033,0,0,1-2.266-.815,3.169,3.169,0,0,1-.8-2.319v-4.747h-1.973v-2.158h.635a1.658,1.658,0,0,0,1.25-.42,2.166,2.166,0,0,0,.4-1.494v-1.328h2.539v3.242h2.07v2.158h-2.07v4.443q0,1.3,1.162,1.3h.908v2.138Zm8.672.2a6.314,6.314,0,0,1-2.842-.615,4.6,4.6,0,0,1-1.948-1.807,5.376,5.376,0,0,1-.708-2.8,4.908,4.908,0,0,1,1.523-3.809,6.368,6.368,0,0,1,7.959,0,5.542,5.542,0,0,1,0,7.632A5.661,5.661,0,0,1,1448.5,687.367Zm-.029-2.236a2.581,2.581,0,0,0,1.987-.82,3.483,3.483,0,0,0,0-4.336,2.578,2.578,0,0,0-1.987-.82,2.478,2.478,0,0,0-1.929.825,3.5,3.5,0,0,0,0,4.326,2.486,2.486,0,0,0,1.929.82Z" fill="#fff"/>
    <path id="Trazado_24087" data-name="Trazado 24087" d="M1376.167,758.634h-5.232v3.2h4.639v2.549h-4.639v3.193h5.232v2.591h-8.182V756.056h8.182Zm1.271,11.533,4.121-5.029-4.121-5.01h3.516l2.3,3.164,2.324-3.164h3.489l-4.131,5.02,4.131,5.019h-3.484l-2.3-3.145-2.316,3.145Zm19.063-10.234a4.862,4.862,0,0,1,1.875.361,4.7,4.7,0,0,1,1.538,1.016,4.592,4.592,0,0,1,1.04,1.655,6.542,6.542,0,0,1,0,4.4,4.61,4.61,0,0,1-1.04,1.655,4.712,4.712,0,0,1-1.538,1.016,4.9,4.9,0,0,1-1.875.361,4.361,4.361,0,0,1-1.816-.371,2.842,2.842,0,0,1-1.26-1.055v6.074h-2.813V760.128h2.666l.078,1.348a2.743,2.743,0,0,1,1.255-1.138A4.3,4.3,0,0,1,1396.5,759.933Zm-.634,8.134a2.531,2.531,0,0,0,1.9-.786,3.334,3.334,0,0,0,0-4.228,2.688,2.688,0,0,0-3.8,0l-.011.012a3.274,3.274,0,0,0,0,4.2A2.534,2.534,0,0,0,1395.867,768.067Zm7.588,2.1v-15h2.842v15Zm7.188-11.543a1.58,1.58,0,0,1-1.152-.474,1.551,1.551,0,0,1-.479-1.147,1.531,1.531,0,0,1,.483-1.138,1.58,1.58,0,0,1,1.147-.474,1.616,1.616,0,0,1,0,3.232Zm-1.437,11.543V760.128h2.832v10.039Zm10.283.186a5.367,5.367,0,0,1-3.877-1.445,5.488,5.488,0,0,1,0-7.54,5.959,5.959,0,0,1,7.134-.469,4.318,4.318,0,0,1,1.68,2.725l-2.6.283a2.226,2.226,0,0,0-.84-1.318,2.556,2.556,0,0,0-1.523-.439,2.3,2.3,0,0,0-1.836.82,3.7,3.7,0,0,0,0,4.331,2.3,2.3,0,0,0,1.836.825,2.542,2.542,0,0,0,1.519-.439,2.283,2.283,0,0,0,.845-1.318l2.6.283a4.332,4.332,0,0,1-1.694,2.725A5.337,5.337,0,0,1,1419.489,770.353Zm15.166-2.91a9.356,9.356,0,0,0,.244,2.451v.273h-2.627l-.225-1.094a3.27,3.27,0,0,1-1.406.967,5.192,5.192,0,0,1-1.816.322,4.824,4.824,0,0,1-.937-.088,3.2,3.2,0,0,1-.845-.3,2.565,2.565,0,0,1-.7-.522,2.277,2.277,0,0,1-.469-.8,3.154,3.154,0,0,1-.176-1.089,2.993,2.993,0,0,1,.186-1.089,2.526,2.526,0,0,1,.488-.815,2.955,2.955,0,0,1,.791-.6,6.016,6.016,0,0,1,1-.43,11.65,11.65,0,0,1,1.191-.312l1.65-.371a1.83,1.83,0,0,0,.747-.317.634.634,0,0,0,.22-.5,1.036,1.036,0,0,0-.494-.962,2.29,2.29,0,0,0-1.2-.293,1.72,1.72,0,0,0-1.953,1.452c0,.027-.008.054-.01.081l-2.49-.449a3.368,3.368,0,0,1,1.455-2.29,5.78,5.78,0,0,1,3.154-.737q4.218,0,4.219,3.623Zm-4.951,1.016a2.265,2.265,0,0,0,1.738-.728,3.068,3.068,0,0,0,.674-2.153l-2.383.674a2.792,2.792,0,0,0-1,.41.84.84,0,0,0-.347.723.933.933,0,0,0,.371.8,1.543,1.543,0,0,0,.947.273Zm11.289,1.708a3.033,3.033,0,0,1-2.266-.815,3.168,3.168,0,0,1-.8-2.319v-4.747h-1.973v-2.158h.635a1.658,1.658,0,0,0,1.25-.42,2.166,2.166,0,0,0,.4-1.494v-1.328h2.539v3.242h2.07v2.158h-2.07v4.443q0,1.3,1.162,1.3h.908v2.138Zm5.469-11.543a1.58,1.58,0,0,1-1.152-.474,1.551,1.551,0,0,1-.479-1.147,1.53,1.53,0,0,1,.483-1.138,1.58,1.58,0,0,1,1.147-.474,1.616,1.616,0,0,1,0,3.232Zm-1.436,11.543V760.128h2.832v10.039Zm12.276-10.039h2.979L1456,770.167h-2.441l-4.229-10.039h2.959l2.5,6.865Zm8.73,10.234a6.314,6.314,0,0,1-2.842-.615,4.6,4.6,0,0,1-1.948-1.807,5.377,5.377,0,0,1-.708-2.8,4.908,4.908,0,0,1,1.523-3.809,6.368,6.368,0,0,1,7.959,0,5.542,5.542,0,0,1,0,7.632,5.657,5.657,0,0,1-3.984,1.4Zm-.029-2.236a2.581,2.581,0,0,0,1.987-.82,3.483,3.483,0,0,0,0-4.336,2.577,2.577,0,0,0-1.987-.82,2.478,2.478,0,0,0-1.929.825,3.505,3.505,0,0,0,0,4.326,2.485,2.485,0,0,0,1.929.825Z" fill="#fff"/>
    <path id="Trazado_24088" data-name="Trazado 24088" d="M943.167,312.167h253v70h-253Z" fill="#9f69c3"/>
    <path id="Trazado_24089" data-name="Trazado 24089" d="M943.167,395.167h253v70h-253Z" fill="#9f69c3"/>
    <path id="Trazado_24090" data-name="Trazado 24090" d="M943.167,478.167h253v70h-253Z" fill="#9f69c3"/>
    <path id="Trazado_24091" data-name="Trazado 24091" d="M943.167,561.167h253v70h-253Z" fill="#9f69c3"/>
    <path id="Trazado_24092" data-name="Trazado 24092" d="M943.167,644.167h253v70h-253Z" fill="#9f69c3"/>
    <path id="Trazado_24093" data-name="Trazado 24093" d="M943.167,727.167h253v70h-253Z" fill="#9f69c3"/>
    <path id="Trazado_24094" data-name="Trazado 24094" d="M943.167,810.167h253v70h-253Z" fill="#9f69c3"/>
    <path id="Trazado_24095" data-name="Trazado 24095" d="M1020.685,355.367a7.891,7.891,0,0,1-2.876-.518,6.773,6.773,0,0,1-2.29-1.445,6.516,6.516,0,0,1-1.5-2.295,8,8,0,0,1-.547-3,7.632,7.632,0,0,1,.938-3.833,6.378,6.378,0,0,1,2.573-2.534,7.7,7.7,0,0,1,3.706-.879,7.479,7.479,0,0,1,4.141,1.143,6.251,6.251,0,0,1,2.525,3.141l-2.734,1a3.87,3.87,0,0,0-1.514-1.9,4.32,4.32,0,0,0-2.422-.684,4.139,4.139,0,0,0-3.086,1.23,5.155,5.155,0,0,0,.005,6.645,4.141,4.141,0,0,0,3.081,1.229,4.313,4.313,0,0,0,2.417-.688,3.891,3.891,0,0,0,1.518-1.912l2.734,1a6.292,6.292,0,0,1-2.529,3.149A7.47,7.47,0,0,1,1020.685,355.367Zm13.379,0a6.314,6.314,0,0,1-2.842-.615,4.6,4.6,0,0,1-1.948-1.807,5.376,5.376,0,0,1-.708-2.8,4.908,4.908,0,0,1,1.523-3.809,6.368,6.368,0,0,1,7.959,0,5.538,5.538,0,0,1,0,7.625,5.655,5.655,0,0,1-3.977,1.406Zm-.029-2.236a2.581,2.581,0,0,0,1.987-.82,3.483,3.483,0,0,0,0-4.336,2.578,2.578,0,0,0-1.987-.82,2.478,2.478,0,0,0-1.929.825,3.505,3.505,0,0,0,0,4.326,2.486,2.486,0,0,0,1.928.82Zm10.322-6.406a3.253,3.253,0,0,1,1.318-1.206,4.008,4.008,0,0,1,1.963-.5v2.51a3.8,3.8,0,0,0-2.4.605,2.638,2.638,0,0,0-.742,2.148v4.885h-2.835V345.128h2.7Zm10.82-1.787a4.862,4.862,0,0,1,1.875.361,4.7,4.7,0,0,1,1.538,1.016,4.593,4.593,0,0,1,1.04,1.655,6.542,6.542,0,0,1,0,4.4,4.609,4.609,0,0,1-1.04,1.655,4.711,4.711,0,0,1-1.538,1.016,4.9,4.9,0,0,1-1.875.361,4.363,4.363,0,0,1-1.816-.371,2.842,2.842,0,0,1-1.26-1.055v6.074h-2.812V345.128h2.666l.078,1.348a2.743,2.743,0,0,1,1.255-1.138,4.307,4.307,0,0,1,1.889-.4Zm-.635,8.135a2.53,2.53,0,0,0,1.9-.786,3.34,3.34,0,0,0,0-4.234,2.688,2.688,0,0,0-3.8,0l-.011.012a3.275,3.275,0,0,0,0,4.2,2.535,2.535,0,0,0,1.913.8Zm12.266,2.294a6.314,6.314,0,0,1-2.842-.615,4.6,4.6,0,0,1-1.948-1.807,5.377,5.377,0,0,1-.708-2.8,4.908,4.908,0,0,1,1.523-3.809,6.368,6.368,0,0,1,7.959,0,5.542,5.542,0,0,1,0,7.632A5.661,5.661,0,0,1,1066.808,355.367Zm-.029-2.236a2.581,2.581,0,0,0,1.987-.82,3.5,3.5,0,0,0,0-4.344,2.578,2.578,0,0,0-1.987-.82,2.478,2.478,0,0,0-1.929.825,3.505,3.505,0,0,0,0,4.326,2.483,2.483,0,0,0,1.927.828Zm10.322-6.406a3.254,3.254,0,0,1,1.318-1.206,4.009,4.009,0,0,1,1.963-.5v2.51a3.8,3.8,0,0,0-2.4.605,2.638,2.638,0,0,0-.742,2.148v4.885h-2.832V345.128h2.7Zm13.105,5.723a9.356,9.356,0,0,0,.244,2.451v.268h-2.627l-.225-1.094a3.27,3.27,0,0,1-1.406.967,5.192,5.192,0,0,1-1.816.322,4.819,4.819,0,0,1-.937-.088,3.2,3.2,0,0,1-.845-.3,2.565,2.565,0,0,1-.7-.522,2.275,2.275,0,0,1-.469-.8,3.154,3.154,0,0,1-.176-1.089,2.993,2.993,0,0,1,.186-1.089,2.524,2.524,0,0,1,.488-.815,2.955,2.955,0,0,1,.791-.6,6.017,6.017,0,0,1,1-.43,11.65,11.65,0,0,1,1.191-.312l1.65-.371a1.83,1.83,0,0,0,.747-.317.634.634,0,0,0,.22-.5,1.036,1.036,0,0,0-.495-.962,2.29,2.29,0,0,0-1.2-.293,1.72,1.72,0,0,0-1.953,1.452c0,.027-.008.054-.01.081l-2.49-.449a3.368,3.368,0,0,1,1.455-2.29,5.781,5.781,0,0,1,3.154-.737q4.218,0,4.219,3.623Zm-4.951,1.016a2.265,2.265,0,0,0,1.738-.728,3.068,3.068,0,0,0,.674-2.153l-2.383.674a2.792,2.792,0,0,0-1,.41.84.84,0,0,0-.347.723.933.933,0,0,0,.371.8,1.539,1.539,0,0,0,.947.268Zm11.289,1.7a3.033,3.033,0,0,1-2.266-.815,3.169,3.169,0,0,1-.8-2.319v-4.747h-1.973v-2.158h.635a1.658,1.658,0,0,0,1.25-.42,2.166,2.166,0,0,0,.4-1.494v-1.328h2.539v3.242h2.07v2.158h-2.07v4.443q0,1.3,1.162,1.3h.908v2.138Zm5.469-11.543a1.58,1.58,0,0,1-1.152-.474,1.551,1.551,0,0,1-.479-1.147,1.532,1.532,0,0,1,.485-1.136,1.58,1.58,0,0,1,1.147-.474,1.616,1.616,0,0,1,0,3.232Zm-1.436,11.543V345.128h2.832v10.039Zm12.276-10.039h2.979l-4.278,10.039h-2.441l-4.229-10.039h2.959l2.5,6.865Zm8.73,10.234a6.313,6.313,0,0,1-2.842-.615,4.6,4.6,0,0,1-1.948-1.807,5.378,5.378,0,0,1-.708-2.8,4.908,4.908,0,0,1,1.523-3.809,6.368,6.368,0,0,1,7.959,0,5.542,5.542,0,0,1,0,7.632,5.657,5.657,0,0,1-3.984,1.4Zm-.029-2.236a2.581,2.581,0,0,0,1.987-.82,3.483,3.483,0,0,0,0-4.336,2.578,2.578,0,0,0-1.987-.82,2.478,2.478,0,0,0-1.929.825,3.505,3.505,0,0,0,0,4.326A2.485,2.485,0,0,0,1121.554,353.126Z" fill="#fff"/>
    <path id="Trazado_24096" data-name="Trazado 24096" d="M1031.51,438.167V424.056h2.93v14.111Zm12.129-10.234a3.911,3.911,0,0,1,2.773.9,3.352,3.352,0,0,1,.967,2.573v6.761h-2.822v-6.152a1.747,1.747,0,0,0-.5-1.387,1.9,1.9,0,0,0-1.294-.439,2.6,2.6,0,0,0-.84.127,2.149,2.149,0,0,0-.7.4,1.74,1.74,0,0,0-.5.757,3.476,3.476,0,0,0-.19,1.162v5.532h-2.822V428.128h2.813v1.113A3.864,3.864,0,0,1,1043.639,427.933Zm12.128-2.52h-.474a3.213,3.213,0,0,0-.4.034,1.594,1.594,0,0,0-.4.088,1.948,1.948,0,0,0-.337.181.892.892,0,0,0-.293.293,1.731,1.731,0,0,0-.176.435,2.241,2.241,0,0,0-.073.605v1.079h2.158v2.158h-2.158v7.881h-2.8v-7.881h-1.963v-2.158h1.963v-1.084a5.843,5.843,0,0,1,.127-1.279,3.848,3.848,0,0,1,.342-.972,2.248,2.248,0,0,1,.571-.7,3.334,3.334,0,0,1,.742-.469,4.249,4.249,0,0,1,.923-.283,8.028,8.028,0,0,1,1.06-.142q.519-.033,1.193-.032Zm6.23,12.949a6.313,6.313,0,0,1-2.842-.615,4.6,4.6,0,0,1-1.948-1.807,5.376,5.376,0,0,1-.708-2.8,4.908,4.908,0,0,1,1.523-3.809,6.368,6.368,0,0,1,7.959,0,5.542,5.542,0,0,1,0,7.632,5.654,5.654,0,0,1-3.983,1.4Zm-.029-2.236a2.581,2.581,0,0,0,1.987-.82,3.483,3.483,0,0,0,0-4.336,2.578,2.578,0,0,0-1.987-.82,2.478,2.478,0,0,0-1.929.825,3.505,3.505,0,0,0,0,4.326,2.484,2.484,0,0,0,1.928.825Zm10.322-6.406a3.253,3.253,0,0,1,1.318-1.206,4.009,4.009,0,0,1,1.963-.5v2.51a3.8,3.8,0,0,0-2.4.605,2.638,2.638,0,0,0-.742,2.148v4.89H1069.6V428.128h2.7Zm16.827-1.787a3.835,3.835,0,0,1,2.588.815,2.917,2.917,0,0,1,.947,2.339v7.08h-2.812v-6.279a1.68,1.68,0,0,0-.449-1.27,1.571,1.571,0,0,0-1.133-.43,1.812,1.812,0,0,0-1.367.547,2.483,2.483,0,0,0-.527,1.768v5.664h-2.842v-6.25a1.724,1.724,0,0,0-.449-1.294,1.594,1.594,0,0,0-1.162-.435,1.753,1.753,0,0,0-1.357.576,2.745,2.745,0,0,0-.527,1.885v5.518h-2.8V428.128h2.8v1.182a3.412,3.412,0,0,1,2.91-1.377,4.277,4.277,0,0,1,1.89.386,2.572,2.572,0,0,1,1.187,1.118A3.547,3.547,0,0,1,1089.117,427.933Zm14.5,7.51a9.362,9.362,0,0,0,.244,2.451v.273h-2.627l-.225-1.094a3.27,3.27,0,0,1-1.406.967,5.192,5.192,0,0,1-1.816.322,4.819,4.819,0,0,1-.937-.088,3.2,3.2,0,0,1-.845-.3,2.565,2.565,0,0,1-.7-.522,2.275,2.275,0,0,1-.469-.8,3.155,3.155,0,0,1-.169-1.085,2.993,2.993,0,0,1,.186-1.089,2.526,2.526,0,0,1,.488-.815,2.957,2.957,0,0,1,.791-.6,6.024,6.024,0,0,1,1-.43,11.642,11.642,0,0,1,1.191-.312l1.65-.371a1.83,1.83,0,0,0,.747-.317.634.634,0,0,0,.22-.5,1.036,1.036,0,0,0-.493-.967,2.29,2.29,0,0,0-1.2-.293,1.72,1.72,0,0,0-1.953,1.452c0,.027-.008.054-.01.081l-2.49-.449a3.369,3.369,0,0,1,1.455-2.29,5.78,5.78,0,0,1,3.154-.737q4.218,0,4.219,3.623Zm-4.95,1.015a2.265,2.265,0,0,0,1.738-.728,3.068,3.068,0,0,0,.674-2.153l-2.383.674a2.792,2.792,0,0,0-1,.41.84.84,0,0,0-.347.723.933.933,0,0,0,.371.8A1.535,1.535,0,0,0,1098.667,436.458Zm7.687,1.709v-15h2.842v15Z" fill="#fff"/>
    <path id="Trazado_24097" data-name="Trazado 24097" d="M1037.452,521.367a7.892,7.892,0,0,1-2.876-.518,6.773,6.773,0,0,1-2.29-1.445,6.515,6.515,0,0,1-1.5-2.295,8,8,0,0,1-.547-3,7.631,7.631,0,0,1,.938-3.833,6.378,6.378,0,0,1,2.573-2.534,7.694,7.694,0,0,1,3.706-.879,7.479,7.479,0,0,1,4.141,1.143,6.259,6.259,0,0,1,2.529,3.145l-2.734,1a3.87,3.87,0,0,0-1.514-1.9,4.32,4.32,0,0,0-2.422-.684,4.143,4.143,0,0,0-3.089,1.219,5.165,5.165,0,0,0,0,6.646,4.141,4.141,0,0,0,3.085,1.235,4.313,4.313,0,0,0,2.417-.688,3.893,3.893,0,0,0,1.519-1.912l2.734,1a6.291,6.291,0,0,1-2.529,3.149A7.474,7.474,0,0,1,1037.452,521.367Zm18.145-5.361-.029.674h-7.441a2.6,2.6,0,0,0,.8,1.836,2.559,2.559,0,0,0,1.768.635,2.471,2.471,0,0,0,1.323-.347,2.142,2.142,0,0,0,.845-1.011l2.578.381a4.389,4.389,0,0,1-1.758,2.354,5.233,5.233,0,0,1-2.969.84,5.439,5.439,0,0,1-3.911-1.382,5.784,5.784,0,0,1,.005-7.666,5.268,5.268,0,0,1,3.818-1.4A4.6,4.6,0,0,1,1055.6,516Zm-4.951-3.1a2.221,2.221,0,0,0-2.441,1.934h4.609a2.117,2.117,0,0,0-.693-1.436,2.2,2.2,0,0,0-1.475-.5Zm9.785-.186a3.254,3.254,0,0,1,1.318-1.206,4.009,4.009,0,0,1,1.963-.5v2.51a3.8,3.8,0,0,0-2.4.605,2.638,2.638,0,0,0-.742,2.148v4.89h-2.832V511.128h2.7Zm9.414,8.633a5.366,5.366,0,0,1-3.878-1.446,5.488,5.488,0,0,1,0-7.54,5.959,5.959,0,0,1,7.134-.469,4.318,4.318,0,0,1,1.68,2.725l-2.6.283a2.226,2.226,0,0,0-.84-1.318,2.556,2.556,0,0,0-1.523-.439,2.3,2.3,0,0,0-1.836.82,3.7,3.7,0,0,0,0,4.331,2.3,2.3,0,0,0,1.836.825,2.542,2.542,0,0,0,1.519-.439,2.282,2.282,0,0,0,.845-1.318l2.6.283a4.332,4.332,0,0,1-1.694,2.725A5.339,5.339,0,0,1,1069.845,521.353Zm15.166-2.91a9.361,9.361,0,0,0,.244,2.451v.273h-2.627l-.225-1.094a3.27,3.27,0,0,1-1.406.967,5.19,5.19,0,0,1-1.816.322,4.822,4.822,0,0,1-.937-.088,3.2,3.2,0,0,1-.845-.3,2.566,2.566,0,0,1-.7-.522,2.277,2.277,0,0,1-.469-.8,3.157,3.157,0,0,1-.176-1.089,2.993,2.993,0,0,1,.186-1.089,2.524,2.524,0,0,1,.488-.815,2.955,2.955,0,0,1,.791-.6,6.008,6.008,0,0,1,1-.43,11.647,11.647,0,0,1,1.191-.312l1.65-.371a1.83,1.83,0,0,0,.747-.317.635.635,0,0,0,.22-.5,1.036,1.036,0,0,0-.493-.967,2.29,2.29,0,0,0-1.2-.293,1.72,1.72,0,0,0-1.953,1.452c0,.027-.008.054-.01.081l-2.49-.449a3.368,3.368,0,0,1,1.455-2.29,5.781,5.781,0,0,1,3.154-.737q4.218,0,4.219,3.623Zm-4.951,1.016a2.265,2.265,0,0,0,1.738-.728,3.068,3.068,0,0,0,.674-2.153l-2.383.674a2.793,2.793,0,0,0-1,.41.841.841,0,0,0-.347.723.933.933,0,0,0,.371.8,1.542,1.542,0,0,0,.947.273Zm13.613-8.525a3.912,3.912,0,0,1,2.773.9,3.352,3.352,0,0,1,.967,2.573v6.76h-2.822v-6.152a1.747,1.747,0,0,0-.5-1.387,1.894,1.894,0,0,0-1.294-.439,2.6,2.6,0,0,0-.84.127,2.149,2.149,0,0,0-.7.4,1.742,1.742,0,0,0-.5.757,3.475,3.475,0,0,0-.19,1.162v5.532h-2.812V511.128h2.813v1.113a3.863,3.863,0,0,1,3.1-1.308Zm11.142,10.433a6.314,6.314,0,0,1-2.842-.615,4.6,4.6,0,0,1-1.948-1.807,5.376,5.376,0,0,1-.708-2.8,4.908,4.908,0,0,1,1.523-3.809,6.368,6.368,0,0,1,7.959,0,5.542,5.542,0,0,1,0,7.632A5.66,5.66,0,0,1,1104.815,521.367Zm-.029-2.236a2.581,2.581,0,0,0,1.987-.82,3.483,3.483,0,0,0,0-4.336,2.577,2.577,0,0,0-1.987-.82,2.477,2.477,0,0,0-1.929.825,3.5,3.5,0,0,0,0,4.326,2.486,2.486,0,0,0,1.929.82Z" fill="#fff"/>
    <path id="Trazado_24098" data-name="Trazado 24098" d="M1021.583,590.056h2.93v14.111h-2.93v-5.8h-5.967v5.8h-2.929V590.056h2.93v5.761h5.967Zm12.861,4.072h2.813v10.039h-2.666l-.068-1.211a3.835,3.835,0,0,1-3.194,1.411,3.914,3.914,0,0,1-2.773-.9,3.348,3.348,0,0,1-.967-2.573v-6.766h2.822v6.152a1.734,1.734,0,0,0,.5,1.377,1.91,1.91,0,0,0,1.3.439,2.271,2.271,0,0,0,1.6-.571,2.459,2.459,0,0,0,.63-1.86Zm17.617-.2a3.835,3.835,0,0,1,2.588.815,2.917,2.917,0,0,1,.947,2.339v7.085h-2.812v-6.279a1.68,1.68,0,0,0-.449-1.27,1.571,1.571,0,0,0-1.133-.43,1.812,1.812,0,0,0-1.367.547,2.483,2.483,0,0,0-.527,1.768v5.664h-2.841v-6.25a1.725,1.725,0,0,0-.449-1.294,1.594,1.594,0,0,0-1.162-.435,1.753,1.753,0,0,0-1.357.576,2.746,2.746,0,0,0-.527,1.885v5.518h-2.805V594.128h2.8v1.182a3.412,3.412,0,0,1,2.91-1.377,4.278,4.278,0,0,1,1.89.386,2.572,2.572,0,0,1,1.187,1.118,3.546,3.546,0,0,1,3.108-1.5Zm10.948,10.439a6.318,6.318,0,0,1-2.842-.62,4.6,4.6,0,0,1-1.948-1.807,5.378,5.378,0,0,1-.708-2.8,4.908,4.908,0,0,1,1.523-3.809,6.368,6.368,0,0,1,7.959,0,5.542,5.542,0,0,1,0,7.632A5.657,5.657,0,0,1,1063.009,604.367Zm-.029-2.236a2.581,2.581,0,0,0,1.987-.82,3.495,3.495,0,0,0,0-4.344,2.578,2.578,0,0,0-1.987-.82,2.478,2.478,0,0,0-1.929.825,3.5,3.5,0,0,0,0,4.326,2.487,2.487,0,0,0,1.929.828Zm10.322-6.406a3.254,3.254,0,0,1,1.318-1.206,4.009,4.009,0,0,1,1.963-.5v2.51a3.8,3.8,0,0,0-2.4.6,2.638,2.638,0,0,0-.742,2.148v4.885h-2.832V594.128h2.7Zm5.488-2.969,2.559-3.594,1.387.977-2.217,2.617Zm-.557,11.411V594.128h2.834v10.039Zm9.277.2a5.609,5.609,0,0,1-2.93-.7,2.971,2.971,0,0,1-1.436-2.09l2.354-.664a1.892,1.892,0,0,0,2.012,1.494,2.092,2.092,0,0,0,1.026-.24.8.8,0,0,0,.4-.776.823.823,0,0,0-.166-.518,1.321,1.321,0,0,0-.513-.371,6.223,6.223,0,0,0-.684-.264q-.337-.108-.894-.259t-.928-.288a6.257,6.257,0,0,1-.884-.376,3.761,3.761,0,0,1-.732-.518,2.084,2.084,0,0,1-.547-.786,2.818,2.818,0,0,1-.19-1.074,2.561,2.561,0,0,1,1.089-2.246,4.855,4.855,0,0,1,2.847-.762,4.99,4.99,0,0,1,2.627.645,2.918,2.918,0,0,1,1.348,2.012l-2.178.488a1.706,1.706,0,0,0-1.787-1.27,1.953,1.953,0,0,0-.986.225.719.719,0,0,0-.391.664.751.751,0,0,0,.059.3.606.606,0,0,0,.2.244,3,3,0,0,0,.283.186,2.1,2.1,0,0,0,.4.161c.176.055.322.1.439.127l.513.132.522.137q.537.146.942.293a5.456,5.456,0,0,1,.864.41,3.1,3.1,0,0,1,.757.591,2.635,2.635,0,0,1,.493.83,3.094,3.094,0,0,1,.2,1.118,3.029,3.029,0,0,1-.337,1.455,2.545,2.545,0,0,1-.923.981,4.528,4.528,0,0,1-1.3.527,6.782,6.782,0,0,1-1.573.182Zm9.893-.2a3.033,3.033,0,0,1-2.266-.815,3.168,3.168,0,0,1-.8-2.319v-4.747h-1.97v-2.158H1093a1.657,1.657,0,0,0,1.25-.42,2.165,2.165,0,0,0,.4-1.494v-1.328h2.539v3.242h2.07v2.158h-2.07v4.443q0,1.3,1.162,1.3h.908v2.138Zm5.469-11.543a1.58,1.58,0,0,1-1.152-.474,1.551,1.551,0,0,1-.479-1.147,1.531,1.531,0,0,1,.483-1.138,1.58,1.58,0,0,1,1.147-.474,1.616,1.616,0,0,1,0,3.232Zm-1.435,11.543V594.128h2.83v10.039Zm10.283.186a5.367,5.367,0,0,1-3.877-1.445,5.488,5.488,0,0,1,0-7.54,5.959,5.959,0,0,1,7.134-.469,4.318,4.318,0,0,1,1.68,2.725l-2.6.283a2.227,2.227,0,0,0-.84-1.318,2.556,2.556,0,0,0-1.523-.439,2.3,2.3,0,0,0-1.836.82,3.7,3.7,0,0,0,0,4.331,2.3,2.3,0,0,0,1.836.825,2.542,2.542,0,0,0,1.519-.439,2.282,2.282,0,0,0,.845-1.318l2.6.283a4.332,4.332,0,0,1-1.694,2.725,5.336,5.336,0,0,1-3.244.976Zm11.611.01a6.312,6.312,0,0,1-2.842-.615,4.6,4.6,0,0,1-1.948-1.807,5.376,5.376,0,0,1-.708-2.8,4.908,4.908,0,0,1,1.523-3.809,6.368,6.368,0,0,1,7.959,0,5.542,5.542,0,0,1,0,7.632,5.66,5.66,0,0,1-3.984,1.4Zm-.029-2.236a2.581,2.581,0,0,0,1.987-.82,3.483,3.483,0,0,0,0-4.336,2.578,2.578,0,0,0-1.987-.82,2.478,2.478,0,0,0-1.929.825,3.5,3.5,0,0,0,0,4.326,2.485,2.485,0,0,0,1.929.824Z" fill="#fff"/>
    <path id="Trazado_24099" data-name="Trazado 24099" d="M1007.574,687.167V673.056h5.107a7.956,7.956,0,0,1,2.944.508,5.429,5.429,0,0,1,2.109,1.44,6.269,6.269,0,0,1,1.25,2.222,10.011,10.011,0,0,1,0,5.772,6.286,6.286,0,0,1-1.25,2.222,5.439,5.439,0,0,1-2.109,1.44,7.97,7.97,0,0,1-2.943.507Zm2.93-2.588h2.031a3.468,3.468,0,0,0,2.852-1.147,6.365,6.365,0,0,0,0-6.65,3.465,3.465,0,0,0-2.852-1.147H1010.5ZM1031.227,682l-.029.674h-7.442a2.6,2.6,0,0,0,.8,1.836,2.558,2.558,0,0,0,1.768.635,2.472,2.472,0,0,0,1.323-.347,2.141,2.141,0,0,0,.845-1.011l2.575.379a4.388,4.388,0,0,1-1.758,2.354,5.233,5.233,0,0,1-2.969.84,5.439,5.439,0,0,1-3.911-1.382,5.784,5.784,0,0,1,.005-7.666,5.267,5.267,0,0,1,3.818-1.4,4.6,4.6,0,0,1,4.975,5.088Zm-4.951-3.1a2.221,2.221,0,0,0-2.441,1.934h4.609a2.117,2.117,0,0,0-.693-1.436,2.2,2.2,0,0,0-1.476-.494Zm18.984-1.973a3.835,3.835,0,0,1,2.588.815,2.918,2.918,0,0,1,.947,2.339v7.085h-2.812v-6.279a1.681,1.681,0,0,0-.449-1.27,1.571,1.571,0,0,0-1.133-.43,1.811,1.811,0,0,0-1.367.547,2.482,2.482,0,0,0-.527,1.768v5.664h-2.84v-6.25a1.724,1.724,0,0,0-.449-1.294,1.594,1.594,0,0,0-1.162-.435,1.753,1.753,0,0,0-1.357.576,2.747,2.747,0,0,0-.532,1.885v5.518h-2.8V677.128h2.8v1.182a3.412,3.412,0,0,1,2.91-1.377,4.278,4.278,0,0,1,1.89.386,2.572,2.572,0,0,1,1.187,1.118,3.547,3.547,0,0,1,3.106-1.5Zm10.947,10.439a6.314,6.314,0,0,1-2.842-.615,4.6,4.6,0,0,1-1.948-1.807,5.378,5.378,0,0,1-.708-2.8,4.908,4.908,0,0,1,1.523-3.809,6.368,6.368,0,0,1,7.959,0,5.542,5.542,0,0,1,0,7.632A5.659,5.659,0,0,1,1056.207,687.367Zm-.029-2.236a2.581,2.581,0,0,0,1.987-.82,3.5,3.5,0,0,0,0-4.344,2.578,2.578,0,0,0-1.987-.82,2.478,2.478,0,0,0-1.929.825,3.505,3.505,0,0,0,0,4.326,2.483,2.483,0,0,0,1.927.828Zm11.162,2.236a5.609,5.609,0,0,1-2.93-.7,2.971,2.971,0,0,1-1.436-2.09l2.354-.664a1.892,1.892,0,0,0,2.012,1.494,2.085,2.085,0,0,0,1.027-.24.8.8,0,0,0,.4-.776.823.823,0,0,0-.166-.518,1.32,1.32,0,0,0-.513-.371,6.242,6.242,0,0,0-.684-.264q-.338-.108-.894-.259t-.928-.288a6.251,6.251,0,0,1-.884-.376,3.758,3.758,0,0,1-.732-.518,2.084,2.084,0,0,1-.547-.786,2.82,2.82,0,0,1-.19-1.074,2.561,2.561,0,0,1,1.089-2.246,4.858,4.858,0,0,1,2.849-.758,4.989,4.989,0,0,1,2.627.645,2.918,2.918,0,0,1,1.348,2.012l-2.178.488a1.706,1.706,0,0,0-1.787-1.27,1.953,1.953,0,0,0-.986.225.719.719,0,0,0-.391.664.752.752,0,0,0,.059.3.607.607,0,0,0,.2.244,3.02,3.02,0,0,0,.283.186,2.106,2.106,0,0,0,.4.161c.176.055.322.1.439.127l.513.132.522.137q.537.145.942.293a5.461,5.461,0,0,1,.864.41,3.1,3.1,0,0,1,.757.591,2.634,2.634,0,0,1,.493.83,3.094,3.094,0,0,1,.2,1.118,3.03,3.03,0,0,1-.337,1.455,2.545,2.545,0,0,1-.923.981,4.529,4.529,0,0,1-1.3.527A6.812,6.812,0,0,1,1067.34,687.367Zm9.893-.2a3.033,3.033,0,0,1-2.266-.815,3.168,3.168,0,0,1-.8-2.319v-4.747h-1.973v-2.158h.635a1.658,1.658,0,0,0,1.25-.42,2.165,2.165,0,0,0,.4-1.494v-1.328h2.539v3.242h2.07v2.158h-2.07v4.443q0,1.3,1.162,1.3h.908v2.138Zm6.729-8.447a3.254,3.254,0,0,1,1.318-1.206,4.009,4.009,0,0,1,1.963-.5v2.51a3.8,3.8,0,0,0-2.4.605,2.638,2.638,0,0,0-.742,2.148v4.89h-2.834V677.128h2.7Zm13.1,5.722a9.357,9.357,0,0,0,.244,2.451v.274h-2.627l-.225-1.094a3.27,3.27,0,0,1-1.406.967,5.191,5.191,0,0,1-1.816.322,4.822,4.822,0,0,1-.937-.088,3.2,3.2,0,0,1-.845-.3,2.567,2.567,0,0,1-.7-.522,2.277,2.277,0,0,1-.469-.8,3.154,3.154,0,0,1-.176-1.089,2.993,2.993,0,0,1,.186-1.089,2.524,2.524,0,0,1,.488-.815,2.954,2.954,0,0,1,.791-.6,6.016,6.016,0,0,1,1-.43,11.65,11.65,0,0,1,1.191-.312l1.65-.371a1.829,1.829,0,0,0,.747-.317.635.635,0,0,0,.22-.5,1.037,1.037,0,0,0-.493-.967,2.29,2.29,0,0,0-1.2-.293,1.72,1.72,0,0,0-1.953,1.452c0,.027-.008.054-.01.081l-2.49-.449a3.368,3.368,0,0,1,1.455-2.29,5.78,5.78,0,0,1,3.154-.737q4.218,0,4.219,3.623Zm-4.951,1.016a2.265,2.265,0,0,0,1.738-.728,3.068,3.068,0,0,0,.674-2.153l-2.383.674a2.792,2.792,0,0,0-1,.41.84.84,0,0,0-.347.723.933.933,0,0,0,.371.8,1.539,1.539,0,0,0,.946.274Zm11.288,1.709a3.033,3.033,0,0,1-2.266-.815,3.169,3.169,0,0,1-.8-2.319v-4.747h-1.971v-2.158H1099a1.657,1.657,0,0,0,1.25-.42,2.165,2.165,0,0,0,.4-1.494v-1.328h2.539v3.242h2.07v2.158h-2.07v4.443q0,1.3,1.162,1.3h.908v2.138Zm5.469-11.543a1.58,1.58,0,0,1-1.152-.474,1.551,1.551,0,0,1-.479-1.147,1.531,1.531,0,0,1,.483-1.138,1.58,1.58,0,0,1,1.147-.474,1.616,1.616,0,0,1,0,3.232Zm-1.435,11.543V677.128h2.829v10.039Zm12.275-10.039h2.979l-4.278,10.039h-2.441l-4.229-10.039h2.959l2.5,6.865Zm8.73,10.234a6.314,6.314,0,0,1-2.842-.615,4.6,4.6,0,0,1-1.948-1.807,5.378,5.378,0,0,1-.708-2.8,4.908,4.908,0,0,1,1.523-3.809,6.368,6.368,0,0,1,7.959,0,5.542,5.542,0,0,1,0,7.632,5.657,5.657,0,0,1-3.984,1.4Zm-.029-2.236a2.581,2.581,0,0,0,1.987-.82,3.483,3.483,0,0,0,0-4.336,2.578,2.578,0,0,0-1.987-.82,2.478,2.478,0,0,0-1.929.825,3.505,3.505,0,0,0,0,4.326A2.485,2.485,0,0,0,1128.414,685.126Z" fill="#fff"/>
    <path id="Trazado_24100" data-name="Trazado 24100" d="M1025.738,756.056v2.578h-3.35v11.533h-2.9V758.634h-3.369v-2.578Zm9.688,8.945-.029.674h-7.442a2.6,2.6,0,0,0,.8,1.836,2.558,2.558,0,0,0,1.768.635,2.471,2.471,0,0,0,1.323-.347,2.142,2.142,0,0,0,.845-1.011l2.576.379a4.388,4.388,0,0,1-1.758,2.354,5.234,5.234,0,0,1-2.969.84,5.439,5.439,0,0,1-3.911-1.382,5.783,5.783,0,0,1,.005-7.666,5.267,5.267,0,0,1,3.818-1.4,4.6,4.6,0,0,1,4.974,5.088Zm-4.951-3.1a2.221,2.221,0,0,0-2.441,1.934h4.609a2.117,2.117,0,0,0-.693-1.436,2.2,2.2,0,0,0-1.475-.494Zm10.625,8.466a5.609,5.609,0,0,1-2.93-.7,2.971,2.971,0,0,1-1.436-2.09l2.354-.664a1.892,1.892,0,0,0,2.012,1.494,2.091,2.091,0,0,0,1.025-.24.8.8,0,0,0,.4-.776.823.823,0,0,0-.166-.518,1.321,1.321,0,0,0-.513-.371,6.4,6.4,0,0,0-.679-.261q-.337-.108-.894-.259t-.928-.288a6.249,6.249,0,0,1-.884-.376,3.758,3.758,0,0,1-.732-.518,2.084,2.084,0,0,1-.547-.786,2.818,2.818,0,0,1-.19-1.074,2.562,2.562,0,0,1,1.085-2.246,4.855,4.855,0,0,1,2.847-.762,4.989,4.989,0,0,1,2.627.645,2.918,2.918,0,0,1,1.348,2.012l-2.178.488a1.706,1.706,0,0,0-1.787-1.27,1.953,1.953,0,0,0-.986.225.719.719,0,0,0-.391.664.755.755,0,0,0,.059.3.607.607,0,0,0,.205.244,2.991,2.991,0,0,0,.283.186,2.1,2.1,0,0,0,.4.161c.176.055.322.1.439.127l.513.132.522.137q.537.146.942.293a5.466,5.466,0,0,1,.864.41,3.1,3.1,0,0,1,.757.591,2.638,2.638,0,0,1,.493.83,3.093,3.093,0,0,1,.2,1.118,3.028,3.028,0,0,1-.337,1.455,2.545,2.545,0,0,1-.923.981,4.526,4.526,0,0,1-1.3.527A6.777,6.777,0,0,1,1041.1,770.367Zm9.893-.2a3.033,3.033,0,0,1-2.266-.815,3.173,3.173,0,0,1-.8-2.319v-4.747h-1.973v-2.158h.635a1.657,1.657,0,0,0,1.25-.42,2.166,2.166,0,0,0,.4-1.494v-1.328h2.539v3.242h2.07v2.158h-2.07v4.443q0,1.3,1.162,1.3h.908v2.138Zm5.469-11.543a1.58,1.58,0,0,1-1.152-.474,1.551,1.551,0,0,1-.479-1.147,1.53,1.53,0,0,1,.483-1.138,1.58,1.58,0,0,1,1.147-.474,1.616,1.616,0,0,1,0,3.232Zm-1.437,11.543V760.128h2.832v10.039Zm17.642-10.234a3.835,3.835,0,0,1,2.588.815,2.917,2.917,0,0,1,.947,2.339v7.08h-2.812v-6.279a1.681,1.681,0,0,0-.449-1.27,1.571,1.571,0,0,0-1.133-.43,1.812,1.812,0,0,0-1.367.547,2.483,2.483,0,0,0-.527,1.768v5.664h-2.847v-6.25a1.725,1.725,0,0,0-.449-1.294,1.594,1.594,0,0,0-1.162-.435,1.753,1.753,0,0,0-1.357.576,2.746,2.746,0,0,0-.527,1.885v5.518h-2.8V760.128h2.8v1.182a3.412,3.412,0,0,1,2.91-1.377,4.277,4.277,0,0,1,1.89.386,2.571,2.571,0,0,1,1.187,1.118A3.546,3.546,0,0,1,1072.667,759.933Zm10.942,10.434a6.314,6.314,0,0,1-2.842-.615,4.6,4.6,0,0,1-1.948-1.807,5.378,5.378,0,0,1-.708-2.8,4.908,4.908,0,0,1,1.523-3.809,6.368,6.368,0,0,1,7.959,0,5.542,5.542,0,0,1,0,7.632A5.661,5.661,0,0,1,1083.609,770.367Zm-.029-2.236a2.581,2.581,0,0,0,1.987-.82,3.495,3.495,0,0,0,0-4.344,2.578,2.578,0,0,0-1.987-.82,2.478,2.478,0,0,0-1.929.825,3.505,3.505,0,0,0,0,4.326,2.487,2.487,0,0,0,1.929.828Zm13.555-8.193a3.911,3.911,0,0,1,2.773.9,3.352,3.352,0,0,1,.967,2.573v6.756h-2.822v-6.152a1.747,1.747,0,0,0-.5-1.387,1.9,1.9,0,0,0-1.294-.439,2.6,2.6,0,0,0-.84.127,2.15,2.15,0,0,0-.7.4,1.742,1.742,0,0,0-.5.757,3.472,3.472,0,0,0-.19,1.162v5.532h-2.822V760.128h2.813v1.113a3.864,3.864,0,0,1,3.115-1.308Zm7.9-1.309a1.58,1.58,0,0,1-1.152-.474,1.551,1.551,0,0,1-.479-1.147,1.53,1.53,0,0,1,.483-1.138,1.58,1.58,0,0,1,1.147-.474,1.616,1.616,0,0,1,0,3.232Zm-1.435,11.538V760.128h2.832v10.039Zm13.975-2.725a9.362,9.362,0,0,0,.244,2.451v.274h-2.627l-.225-1.094a3.27,3.27,0,0,1-1.406.967,5.192,5.192,0,0,1-1.816.322,4.823,4.823,0,0,1-.937-.088,3.2,3.2,0,0,1-.845-.3,2.568,2.568,0,0,1-.7-.522,2.279,2.279,0,0,1-.469-.8,3.157,3.157,0,0,1-.176-1.089,3,3,0,0,1,.186-1.089,2.524,2.524,0,0,1,.488-.815,2.955,2.955,0,0,1,.791-.6,6.012,6.012,0,0,1,1-.43,11.641,11.641,0,0,1,1.191-.312l1.65-.371a1.83,1.83,0,0,0,.747-.317.634.634,0,0,0,.22-.5,1.036,1.036,0,0,0-.493-.967,2.29,2.29,0,0,0-1.2-.293,1.72,1.72,0,0,0-1.953,1.452c0,.027-.008.054-.01.081l-2.49-.449a3.368,3.368,0,0,1,1.455-2.29,5.781,5.781,0,0,1,3.154-.737q4.218,0,4.219,3.623Zm-4.951,1.016a2.265,2.265,0,0,0,1.738-.728,3.068,3.068,0,0,0,.674-2.153l-2.383.674a2.794,2.794,0,0,0-1,.41.84.84,0,0,0-.347.723.933.933,0,0,0,.371.8,1.539,1.539,0,0,0,.946.274Zm7.685,1.709v-15h2.842v15Z" fill="#fff"/>
    <path id="Trazado_24101" data-name="Trazado 24101" d="M1016.267,853.167V839.056h2.93v14.111Zm12.128-10.234a3.911,3.911,0,0,1,2.773.9,3.352,3.352,0,0,1,.967,2.573v6.761h-2.822v-6.152a1.747,1.747,0,0,0-.5-1.387,1.894,1.894,0,0,0-1.294-.439,2.6,2.6,0,0,0-.84.127,2.15,2.15,0,0,0-.7.4,1.742,1.742,0,0,0-.5.757,3.475,3.475,0,0,0-.19,1.162v5.532h-2.822V843.128h2.813v1.113A3.864,3.864,0,0,1,1028.4,842.933Zm12.129-2.52h-.472a3.207,3.207,0,0,0-.4.034,1.591,1.591,0,0,0-.405.088,1.954,1.954,0,0,0-.337.181.892.892,0,0,0-.293.293,1.733,1.733,0,0,0-.176.435,2.241,2.241,0,0,0-.073.605v1.079h2.158v2.158h-2.159v7.881h-2.8v-7.881H1033.6v-2.158h1.967v-1.084a5.827,5.827,0,0,1,.122-1.277,3.853,3.853,0,0,1,.342-.972,2.247,2.247,0,0,1,.571-.7,3.358,3.358,0,0,1,.742-.469,4.248,4.248,0,0,1,.923-.283,8.023,8.023,0,0,1,1.06-.142q.522-.035,1.2-.034Zm6.23,12.949a6.314,6.314,0,0,1-2.842-.615,4.6,4.6,0,0,1-1.945-1.807,5.376,5.376,0,0,1-.708-2.8,4.908,4.908,0,0,1,1.523-3.809,6.368,6.368,0,0,1,7.959,0,5.542,5.542,0,0,1,0,7.632,5.655,5.655,0,0,1-3.987,1.4Zm-.029-2.236a2.581,2.581,0,0,0,1.987-.82,3.483,3.483,0,0,0,0-4.336,2.578,2.578,0,0,0-1.987-.82,2.478,2.478,0,0,0-1.929.825,3.5,3.5,0,0,0,0,4.326A2.485,2.485,0,0,0,1046.725,851.126Zm10.322-6.406a3.252,3.252,0,0,1,1.32-1.206,4.01,4.01,0,0,1,1.963-.5v2.51a3.8,3.8,0,0,0-2.4.605,2.638,2.638,0,0,0-.742,2.148v4.89h-2.832V843.128h2.7Zm16.826-1.787a3.835,3.835,0,0,1,2.588.815,2.917,2.917,0,0,1,.947,2.339v7.08H1074.6v-6.279a1.68,1.68,0,0,0-.449-1.27,1.571,1.571,0,0,0-1.133-.43,1.812,1.812,0,0,0-1.367.547,2.483,2.483,0,0,0-.527,1.768v5.664h-2.843v-6.25a1.724,1.724,0,0,0-.449-1.294,1.594,1.594,0,0,0-1.162-.435,1.753,1.753,0,0,0-1.357.576,2.746,2.746,0,0,0-.527,1.885v5.518h-2.8V843.128h2.8v1.182a3.412,3.412,0,0,1,2.91-1.377,4.278,4.278,0,0,1,1.89.386,2.572,2.572,0,0,1,1.185,1.118A3.547,3.547,0,0,1,1073.873,842.933Zm14.5,7.51a9.356,9.356,0,0,0,.244,2.451v.273h-2.627l-.225-1.094a3.27,3.27,0,0,1-1.406.967,5.192,5.192,0,0,1-1.816.322,4.823,4.823,0,0,1-.937-.088,3.2,3.2,0,0,1-.845-.3,2.565,2.565,0,0,1-.7-.522,2.275,2.275,0,0,1-.469-.8,3.154,3.154,0,0,1-.176-1.089,2.993,2.993,0,0,1,.186-1.089,2.524,2.524,0,0,1,.488-.815,2.955,2.955,0,0,1,.791-.6,6.012,6.012,0,0,1,1-.43,11.65,11.65,0,0,1,1.191-.312l1.65-.371a1.83,1.83,0,0,0,.747-.317.634.634,0,0,0,.22-.5,1.036,1.036,0,0,0-.493-.967,2.29,2.29,0,0,0-1.2-.293,1.72,1.72,0,0,0-1.953,1.452c0,.027-.008.054-.01.081l-2.49-.449a3.368,3.368,0,0,1,1.455-2.29,5.78,5.78,0,0,1,3.154-.737q4.218,0,4.219,3.623Zm-4.951,1.016a2.265,2.265,0,0,0,1.745-.729,3.068,3.068,0,0,0,.674-2.153l-2.383.674a2.792,2.792,0,0,0-1,.41.841.841,0,0,0-.347.723.934.934,0,0,0,.371.8,1.534,1.534,0,0,0,.942.274Zm11.291,1.708a3.033,3.033,0,0,1-2.266-.815,3.168,3.168,0,0,1-.8-2.319v-4.747h-1.973v-2.158h.635a1.658,1.658,0,0,0,1.25-.42,2.165,2.165,0,0,0,.4-1.494v-1.328h2.539v3.242h2.07v2.158h-2.07v4.443q0,1.3,1.162,1.3h.908v2.138Zm5.469-11.543a1.58,1.58,0,0,1-1.152-.474,1.551,1.551,0,0,1-.479-1.147,1.53,1.53,0,0,1,.483-1.138,1.58,1.58,0,0,1,1.147-.474,1.616,1.616,0,0,1,0,3.232Zm-1.436,11.543V843.128h2.832v10.039Zm12.275-10.039H1114l-4.277,10.039h-2.441l-4.229-10.039h2.959l2.5,6.865Zm8.73,10.234a6.313,6.313,0,0,1-2.842-.615,4.6,4.6,0,0,1-1.948-1.807,5.376,5.376,0,0,1-.708-2.8,4.908,4.908,0,0,1,1.523-3.809,6.368,6.368,0,0,1,7.959,0,5.542,5.542,0,0,1,0,7.632,5.655,5.655,0,0,1-3.983,1.4Zm-.029-2.236a2.581,2.581,0,0,0,1.987-.82,3.483,3.483,0,0,0,0-4.336,2.577,2.577,0,0,0-1.987-.82,2.478,2.478,0,0,0-1.929.825,3.505,3.505,0,0,0,0,4.326,2.487,2.487,0,0,0,1.93.825Z" fill="#fff"/>
    <path id="Trazado_24123" data-name="Trazado 24123" d="M573.167,223.167h973v70h-973Z" fill="#901ba1"/>
    <path id="Trazado_24124" data-name="Trazado 24124" d="M846.351,247.233a5.1,5.1,0,0,1,3.9,1.576,5.487,5.487,0,0,1,1.477,3.9,5.354,5.354,0,0,1-1.465,3.873,5.192,5.192,0,0,1-3.914,1.518h-3.527v6.067h-3.516V247.233Zm-.586,7.922a2.588,2.588,0,0,0,1.934-.662,2.888,2.888,0,0,0-.005-3.645,2.557,2.557,0,0,0-1.928-.674h-2.941v4.98Zm11.7-1.125a3.9,3.9,0,0,1,1.582-1.447,4.822,4.822,0,0,1,2.355-.6v3.012a4.554,4.554,0,0,0-2.883.727,3.17,3.17,0,0,0-.891,2.578v5.867h-3.4V252.12h3.237ZM868.928,264.4a7.581,7.581,0,0,1-3.41-.738,5.517,5.517,0,0,1-2.338-2.168,6.455,6.455,0,0,1-.85-3.363,5.889,5.889,0,0,1,1.837-4.57,7.641,7.641,0,0,1,9.551,0,6.649,6.649,0,0,1,0,9.158,6.786,6.786,0,0,1-4.785,1.681Zm-.035-2.684a3.093,3.093,0,0,0,2.385-.984,4.177,4.177,0,0,0,0-5.2,3.09,3.09,0,0,0-2.385-.984,2.977,2.977,0,0,0-2.314.99,4.206,4.206,0,0,0,0,5.2,2.98,2.98,0,0,0,2.318.979Zm16.219-9.832a5.844,5.844,0,0,1,2.25.434,5.619,5.619,0,0,1,1.846,1.219,5.526,5.526,0,0,1,1.248,1.986,7.839,7.839,0,0,1,0,5.286,5.526,5.526,0,0,1-1.248,1.986,5.65,5.65,0,0,1-1.846,1.219,5.863,5.863,0,0,1-2.25.434,5.238,5.238,0,0,1-2.18-.445,3.418,3.418,0,0,1-1.512-1.266v7.289h-3.375V252.12h3.2l.094,1.617a3.3,3.3,0,0,1,1.506-1.365,5.158,5.158,0,0,1,2.267-.486Zm-.762,9.762a3.036,3.036,0,0,0,2.279-.943,3.99,3.99,0,0,0,0-5.074,3.225,3.225,0,0,0-4.561,0l-.015.016a3.931,3.931,0,0,0,0,5.04,3.037,3.037,0,0,0,2.3.959Zm13.68-11.167,3.071-4.313,1.666,1.172-2.66,3.141Zm1.043,13.922a7.58,7.58,0,0,1-3.41-.738,5.517,5.517,0,0,1-2.338-2.168,6.455,6.455,0,0,1-.85-3.363,5.89,5.89,0,0,1,1.828-4.57,7.641,7.641,0,0,1,9.551,0,6.649,6.649,0,0,1,0,9.158,6.791,6.791,0,0,1-4.781,1.68Zm-.035-2.684a3.093,3.093,0,0,0,2.385-.984,4.176,4.176,0,0,0,0-5.2,3.09,3.09,0,0,0-2.385-.984,2.977,2.977,0,0,0-2.314.99,4.205,4.205,0,0,0,0,5.2A2.979,2.979,0,0,0,899.038,261.718Zm13.395,2.684a6.744,6.744,0,0,1-3.516-.844,3.568,3.568,0,0,1-1.723-2.508l2.824-.8a2.269,2.269,0,0,0,2.414,1.793,2.5,2.5,0,0,0,1.23-.275.961.961,0,0,0,.48-.932.985.985,0,0,0-.2-.621,1.582,1.582,0,0,0-.615-.445,7.539,7.539,0,0,0-.82-.316q-.4-.129-1.072-.311t-1.113-.346a7.506,7.506,0,0,1-1.061-.451,4.546,4.546,0,0,1-.879-.621,2.492,2.492,0,0,1-.656-.943,3.4,3.4,0,0,1-.229-1.289,3.076,3.076,0,0,1,1.307-2.7,5.831,5.831,0,0,1,3.416-.914,5.985,5.985,0,0,1,3.152.773,3.5,3.5,0,0,1,1.617,2.414l-2.613.586a2.047,2.047,0,0,0-2.145-1.523,2.333,2.333,0,0,0-1.184.27.865.865,0,0,0-.469.8.905.905,0,0,0,.07.363.721.721,0,0,0,.246.293,3.687,3.687,0,0,0,.34.223,2.59,2.59,0,0,0,.48.193q.315.1.527.152t.615.158l.627.164q.645.176,1.131.352a6.557,6.557,0,0,1,1.037.492,3.716,3.716,0,0,1,.908.709,3.174,3.174,0,0,1,.592,1,3.681,3.681,0,0,1,.234,1.342,3.628,3.628,0,0,1-.4,1.746,3.05,3.05,0,0,1-1.107,1.178,5.428,5.428,0,0,1-1.564.633,8.151,8.151,0,0,1-1.881.2Zm9.105-14.086a1.9,1.9,0,0,1-1.383-.568,1.863,1.863,0,0,1-.574-1.377,1.839,1.839,0,0,1,.58-1.365,1.9,1.9,0,0,1,1.377-.568,1.937,1.937,0,0,1-.005,3.874Zm-1.723,13.851V252.12h3.4v12.047Zm11.379,0a3.64,3.64,0,0,1-2.719-.979,3.806,3.806,0,0,1-.961-2.783v-5.7h-2.367v-2.59h.762a1.989,1.989,0,0,0,1.5-.5,2.6,2.6,0,0,0,.48-1.793V248.23h3.047v3.891h2.484v2.59h-2.483v5.332q0,1.559,1.395,1.559h1.09v2.565Zm10.406.234a7.581,7.581,0,0,1-3.41-.738,5.517,5.517,0,0,1-2.338-2.168,6.455,6.455,0,0,1-.85-3.363,5.889,5.889,0,0,1,1.828-4.57,7.641,7.641,0,0,1,9.551,0,6.649,6.649,0,0,1,0,9.158,6.789,6.789,0,0,1-4.78,1.681Zm-.035-2.684a3.093,3.093,0,0,0,2.385-.984,4.177,4.177,0,0,0,0-5.2,3.09,3.09,0,0,0-2.385-.984,2.977,2.977,0,0,0-2.314.99,4.206,4.206,0,0,0,0,5.2,2.979,2.979,0,0,0,2.316.979ZM989,254.627v-2.565h10.348v2.566Zm0,5.145v-2.566h10.348v2.566Zm61.9-12.539v3.094h-4.02v13.84h-3.48v-13.84h-4.043v-3.094Zm5.906,17.168a7.58,7.58,0,0,1-3.41-.738,5.516,5.516,0,0,1-2.338-2.168,6.453,6.453,0,0,1-.85-3.363,5.889,5.889,0,0,1,1.828-4.57,7.641,7.641,0,0,1,9.551,0,6.649,6.649,0,0,1,0,9.158,6.788,6.788,0,0,1-4.782,1.681Zm-.035-2.684a3.093,3.093,0,0,0,2.385-.984,4.177,4.177,0,0,0,0-5.2,3.09,3.09,0,0,0-2.385-.984,2.977,2.977,0,0,0-2.314.99,4.206,4.206,0,0,0,0,5.2,2.978,2.978,0,0,0,2.312.979Zm16.266-9.832a4.7,4.7,0,0,1,3.327,1.082,4.022,4.022,0,0,1,1.16,3.088v8.112h-3.387v-7.383a2.1,2.1,0,0,0-.6-1.664,2.271,2.271,0,0,0-1.553-.527,3.161,3.161,0,0,0-1.008.152,2.59,2.59,0,0,0-.844.475,2.084,2.084,0,0,0-.6.908,4.184,4.184,0,0,0-.229,1.4v6.644h-3.375V252.12h3.375v1.336a4.639,4.639,0,0,1,3.732-1.57Zm13.371,12.516a7.581,7.581,0,0,1-3.41-.738,5.518,5.518,0,0,1-2.338-2.168,6.456,6.456,0,0,1-.85-3.363,5.89,5.89,0,0,1,1.828-4.57,7.641,7.641,0,0,1,9.551,0,6.649,6.649,0,0,1,0,9.158,6.787,6.787,0,0,1-4.783,1.681Zm-.035-2.684a3.093,3.093,0,0,0,2.385-.984,4.177,4.177,0,0,0,0-5.2,3.09,3.09,0,0,0-2.385-.984,2.977,2.977,0,0,0-2.314.99,4.205,4.205,0,0,0,0,5.2,2.978,2.978,0,0,0,2.312.979Zm50.543.047v-4.523H1132.4v-2.566h4.523v-4.508h2.548v4.512h4.512v2.566h-4.512v4.522Zm55.371,2.637a9.459,9.459,0,0,1-3.451-.621,8.112,8.112,0,0,1-2.748-1.734,7.8,7.8,0,0,1-1.8-2.754,9.573,9.573,0,0,1-.656-3.6,9.162,9.162,0,0,1,1.125-4.6,7.654,7.654,0,0,1,3.088-3.041A9.234,9.234,0,0,1,1192.3,247a8.985,8.985,0,0,1,4.962,1.371,7.507,7.507,0,0,1,3.035,3.773l-3.281,1.2a4.637,4.637,0,0,0-1.816-2.285,5.183,5.183,0,0,0-2.906-.82,4.968,4.968,0,0,0-3.7,1.477,6.187,6.187,0,0,0,.006,7.974,4.971,4.971,0,0,0,3.7,1.482,5.173,5.173,0,0,0,2.9-.826,4.668,4.668,0,0,0,1.822-2.291l3.281,1.2a7.539,7.539,0,0,1-3.035,3.779,8.958,8.958,0,0,1-4.975,1.371Zm20.32-3.5a11.243,11.243,0,0,0,.293,2.941v.325h-3.152l-.27-1.312a3.93,3.93,0,0,1-1.687,1.16,6.238,6.238,0,0,1-2.18.387,5.733,5.733,0,0,1-1.125-.105,3.836,3.836,0,0,1-1.014-.357,3.087,3.087,0,0,1-.838-.627,2.731,2.731,0,0,1-.562-.955,3.78,3.78,0,0,1-.211-1.307,3.616,3.616,0,0,1,.223-1.307,3.049,3.049,0,0,1,.586-.979,3.533,3.533,0,0,1,.949-.715,7.155,7.155,0,0,1,1.2-.516,14.05,14.05,0,0,1,1.43-.375l1.98-.445a2.2,2.2,0,0,0,.9-.381.762.762,0,0,0,.264-.6,1.243,1.243,0,0,0-.592-1.16,2.754,2.754,0,0,0-1.436-.352,2.066,2.066,0,0,0-2.344,1.745c0,.031-.008.063-.011.1l-2.988-.539a4.041,4.041,0,0,1,1.746-2.748,6.929,6.929,0,0,1,3.785-.885q5.063,0,5.063,4.348Zm-5.943,1.215a2.719,2.719,0,0,0,2.086-.873,3.685,3.685,0,0,0,.809-2.584l-2.859.809a3.375,3.375,0,0,0-1.2.492,1.009,1.009,0,0,0-.416.867,1.122,1.122,0,0,0,.445.955A1.845,1.845,0,0,0,1206.667,262.116Zm12.457-8.086a3.9,3.9,0,0,1,1.582-1.447,4.822,4.822,0,0,1,2.355-.6v3.012a4.553,4.553,0,0,0-2.883.727,3.167,3.167,0,0,0-.891,2.578v5.867h-3.4V252.12h3.234Zm14.414-6.7-2.66,3.137H1228.8l3.07-4.312Zm1.313,13.57a11.238,11.238,0,0,0,.293,2.941v.326h-3.152l-.27-1.312a3.932,3.932,0,0,1-1.687,1.16,6.239,6.239,0,0,1-2.18.387,5.734,5.734,0,0,1-1.125-.105,3.838,3.838,0,0,1-1.014-.357,3.085,3.085,0,0,1-.838-.627,2.729,2.729,0,0,1-.562-.955,3.777,3.777,0,0,1-.211-1.307,3.616,3.616,0,0,1,.223-1.307,3.051,3.051,0,0,1,.586-.979,3.534,3.534,0,0,1,.949-.715,7.149,7.149,0,0,1,1.2-.516,14.111,14.111,0,0,1,1.43-.375l1.98-.445a2.2,2.2,0,0,0,.9-.381.762.762,0,0,0,.264-.6,1.244,1.244,0,0,0-.592-1.16,2.755,2.755,0,0,0-1.436-.352,2.066,2.066,0,0,0-2.344,1.745c0,.031-.008.063-.011.1l-2.988-.539a4.041,4.041,0,0,1,1.746-2.748,6.929,6.929,0,0,1,3.785-.885q5.063,0,5.063,4.348Zm-5.941,1.219a2.719,2.719,0,0,0,2.086-.873,3.685,3.685,0,0,0,.809-2.584l-2.859.809a3.374,3.374,0,0,0-1.2.492,1.009,1.009,0,0,0-.416.867,1.122,1.122,0,0,0,.445.955,1.848,1.848,0,0,0,1.134.331Zm14.4,2.273a6.437,6.437,0,0,1-4.652-1.734,6.583,6.583,0,0,1,0-9.046,7.152,7.152,0,0,1,8.561-.562,5.18,5.18,0,0,1,2.016,3.27l-3.117.34a2.673,2.673,0,0,0-1.008-1.582,3.058,3.058,0,0,0-1.828-.527,2.76,2.76,0,0,0-2.2.984,4.427,4.427,0,0,0,0,5.2,2.758,2.758,0,0,0,2.2.99,3.045,3.045,0,0,0,1.822-.527,2.74,2.74,0,0,0,1.014-1.582l3.117.34a5.2,5.2,0,0,1-2.033,3.27,6.4,6.4,0,0,1-3.89,1.164Zm12.81-.225a3.64,3.64,0,0,1-2.719-.979,3.806,3.806,0,0,1-.961-2.783v-5.7h-2.367v-2.59h.762a1.989,1.989,0,0,0,1.5-.5,2.6,2.6,0,0,0,.48-1.793V248.23h3.052v3.891h2.484v2.59h-2.484v5.332q0,1.559,1.4,1.559h1.09v2.565Zm16.125-6.2-.035.809h-8.93a3.12,3.12,0,0,0,.961,2.2,3.079,3.079,0,0,0,2.121.762,2.973,2.973,0,0,0,1.588-.416,2.565,2.565,0,0,0,1.014-1.213l3.094.457a5.263,5.263,0,0,1-2.109,2.824,6.28,6.28,0,0,1-3.562,1.008,6.525,6.525,0,0,1-4.693-1.658,6.942,6.942,0,0,1,.006-9.2,6.326,6.326,0,0,1,4.582-1.682,5.513,5.513,0,0,1,5.963,6.109Zm-5.941-3.715a2.667,2.667,0,0,0-2.93,2.32h5.531a2.539,2.539,0,0,0-.832-1.723,2.636,2.636,0,0,0-1.769-.6Zm11.742-.223a3.9,3.9,0,0,1,1.582-1.447,4.822,4.822,0,0,1,2.355-.6v3.012a4.554,4.554,0,0,0-2.883.727,3.167,3.167,0,0,0-.891,2.578v5.868h-3.4V252.12h3.234Z" fill="#fff"/>
    <g id="Grupo_29556" data-name="Grupo 29556">
      <path id="Trazado_24135" data-name="Trazado 24135" d="M921.083,418.72c-33.067-11.664-86.873-65.527-89.146-67.814l2.126-2.115c.553.555,55.6,55.664,88.018,67.1Z" fill="#ff8f00"/>
      <g id="Grupo_29555" data-name="Grupo 29555">
        <path id="Trazado_24136" data-name="Trazado 24136" d="M914.347,420.322l6.394-3.3-3.3-6.392,4.114,1.312,3.3,6.391-6.391,3.3Z" fill="#ff8f00"/>
      </g>
    </g>
    <g id="Grupo_29558" data-name="Grupo 29558">
      <path id="Trazado_24137" data-name="Trazado 24137" d="M929.469,496.968c-56.326-41.215-97.458-145.526-97.866-146.575l2.794-1.09c.406,1.041,41.226,104.547,96.844,145.244Z" fill="#ff8f00"/>
      <g id="Grupo_29557" data-name="Grupo 29557">
        <path id="Trazado_24138" data-name="Trazado 24138" d="M922.554,496.3l7.109-1.106-1.11-7.108,3.488,2.547,1.108,7.107-7.107,1.108Z" fill="#ff8f00"/>
      </g>
    </g>
    <g id="Grupo_29560" data-name="Grupo 29560">
      <path id="Trazado_24139" data-name="Trazado 24139" d="M929.371,517.2c-37.827-16.942-91.707-83.277-93.982-86.093l2.333-1.885c.553.684,55.7,68.592,92.875,85.24Z" fill="#ff8f00"/>
      <g id="Grupo_29559" data-name="Grupo 29559">
        <path id="Trazado_24140" data-name="Trazado 24140" d="M922.509,518.2l6.659-2.724-2.728-6.657,3.983,1.669,2.725,6.656-6.656,2.725Z" fill="#ff8f00"/>
      </g>
    </g>
    <g id="Grupo_29562" data-name="Grupo 29562">
      <path id="Trazado_24141" data-name="Trazado 24141" d="M930.04,844.012c-41.951-67.151-65.541-176.1-77.944-255.68-13.428-86.148-17-157.383-17.038-158.093l3-.145c.034.708,3.6,71.81,17.01,157.8,12.36,79.289,35.842,187.81,77.52,254.523Z" fill="#ff8f00"/>
      <g id="Grupo_29561" data-name="Grupo 29561">
        <path id="Trazado_24142" data-name="Trazado 24142" d="M923.93,840.7l6.985,1.723,1.719-6.986,2.235,3.7-1.72,6.984-6.984-1.72Z" fill="#ff8f00"/>
      </g>
    </g>
    <g id="Grupo_29564" data-name="Grupo 29564">
      <path id="Trazado_24143" data-name="Trazado 24143" d="M929.509,864.154c-51.3-42.969-92.657-182.2-94.392-188.107l2.878-.846c.422,1.438,42.839,144.268,93.441,186.654Z" fill="#ff8f00"/>
      <g id="Grupo_29563" data-name="Grupo 29563">
        <path id="Trazado_24144" data-name="Trazado 24144" d="M922.665,863.046l7.165-.657-.661-7.164,3.32,2.761.659,7.162-7.162.659Z" fill="#ff8f00"/>
      </g>
    </g>
    <g id="Grupo_29566" data-name="Grupo 29566">
      <rect id="Rectngulo_4568" data-name="Rectngulo 4568" width="169.071" height="3" transform="matrix(0.56, -0.829, 0.829, 0.56, 835.314, 674.785)" fill="#ff8f00"/>
      <g id="Grupo_29565" data-name="Grupo 29565">
        <path id="Trazado_24145" data-name="Trazado 24145" d="M923.668,537.648l7.063-1.368,1.364,7.064,2.418-3.578-1.366-7.062-7.062,1.366Z" fill="#ff8f00"/>
      </g>
    </g>
    <g id="Grupo_29568" data-name="Grupo 29568">
      <path id="Trazado_24146" data-name="Trazado 24146" d="M838.056,675.624h-3c0-98.248,82.077-281.355,91.436-301.911l2.73,1.244C919.891,395.451,838.056,578.009,838.056,675.624Z" fill="#ff8f00"/>
      <g id="Grupo_29567" data-name="Grupo 29567">
        <path id="Trazado_24147" data-name="Trazado 24147" d="M920.833,377.771l6.708-2.6,2.6,6.71,1.744-3.951-2.6-6.707-6.707,2.6Z" fill="#ff8f00"/>
      </g>
    </g>
    <g id="Grupo_29570" data-name="Grupo 29570">
      <rect id="Rectngulo_4569" data-name="Rectngulo 4569" width="3.001" height="114.231" transform="translate(835.632 595.092) rotate(-52.009)" fill="#ff8f00"/>
      <g id="Grupo_29569" data-name="Grupo 29569">
        <path id="Trazado_24148" data-name="Trazado 24148" d="M918.742,664.553l7.141-.876-.88-7.141,3.4,2.658.878,7.139-7.139.878Z" fill="#ff8f00"/>
      </g>
    </g>
    <g id="Grupo_29573" data-name="Grupo 29573">
      <path id="Trazado_24149" data-name="Trazado 24149" d="M925.839,761.633C911.67,746.3,840.7,666.177,835.06,594.026c-2.783-35.6,10.734-88.05,40.177-155.9a1184.411,1184.411,0,0,1,55.168-110.012l2.6,1.492a1181.347,1181.347,0,0,0-55.018,109.713c-29.246,67.4-42.683,119.373-39.938,154.476,5.564,71.163,75.94,150.6,89.991,165.8Z" fill="#ff8f00"/>
      <g id="Grupo_29571" data-name="Grupo 29571">
        <path id="Trazado_24150" data-name="Trazado 24150" d="M926.6,752.762l-.256,7.19-7.19-.26,2.942,3.161,7.188.258.258-7.188Z" fill="#ff8f00"/>
      </g>
      <g id="Grupo_29572" data-name="Grupo 29572">
        <path id="Trazado_24151" data-name="Trazado 24151" d="M933.169,336.577l-1.889-6.942-6.941,1.893,2.144-3.749,6.94-1.891,1.891,6.94Z" fill="#ff8f00"/>
      </g>
    </g>
    <g id="Grupo_29576" data-name="Grupo 29576">
      <path id="Trazado_24152" data-name="Trazado 24152" d="M1278.7,582.645c-8.265-20.636-50.515-129.3-70.608-242.216l-.349-1.959,67.39,6.946-.307,2.984-63.43-6.537c20.179,111.923,61.891,219.2,70.089,239.666Z" fill="#ff8f00"/>
      <g id="Grupo_29574" data-name="Grupo 29574">
        <path id="Trazado_24153" data-name="Trazado 24153" d="M1282.7,574.651l-2.886,6.591-6.589-2.89,1.571,4.023,6.588,2.887,2.887-6.588Z" fill="#ff8f00"/>
      </g>
      <g id="Grupo_29575" data-name="Grupo 29575">
        <path id="Trazado_24154" data-name="Trazado 24154" d="M1268.519,351.355l5.583-4.537-4.541-5.581,4.3.443,4.538,5.581-5.58,4.538Z" fill="#ff8f00"/>
      </g>
    </g>
    <g id="Grupo_29579" data-name="Grupo 29579">
      <path id="Trazado_24155" data-name="Trazado 24155" d="M1278.738,658.226c-33.986-47.027-50.707-106.6-58.749-148.3-8.707-45.145-9.4-79.668-9.407-80.011l-.026-1.526h68v3h-64.929a531.263,531.263,0,0,0,9.321,78.027c7.986,41.384,24.57,100.488,58.224,147.054Z" fill="#ff8f00"/>
      <g id="Grupo_29577" data-name="Grupo 29577">
        <path id="Trazado_24156" data-name="Trazado 24156" d="M1272.578,424.8l5.089,5.086-5.089,5.086h4.318l5.086-5.086L1276.9,424.8Z" fill="#ff8f00"/>
      </g>
      <g id="Grupo_29578" data-name="Grupo 29578">
        <path id="Trazado_24157" data-name="Trazado 24157" d="M1272.388,655.395l7.094,1.2,1.2-7.095,2.5,3.519-1.2,7.092-7.092-1.2Z" fill="#ff8f00"/>
      </g>
    </g>
    <g id="Grupo_29581" data-name="Grupo 29581">
      <rect id="Rectngulo_4570" data-name="Rectngulo 4570" width="67.639" height="3" transform="translate(1207.328 517.089)" fill="#ff8f00"/>
      <g id="Grupo_29580" data-name="Grupo 29580">
        <path id="Trazado_24158" data-name="Trazado 24158" d="M1268.991,523.675l5.089-5.086-5.089-5.086h4.318l5.086,5.086-5.086,5.086Z" fill="#ff8f00"/>
      </g>
    </g>
    <g id="Grupo_29584" data-name="Grupo 29584">
      <path id="Trazado_24159" data-name="Trazado 24159" d="M1278.6,677.3,1207.455,596l70.96-62.169,1.977,2.257-68.7,60.193,69.166,79.034Z" fill="#ff8f00"/>
      <g id="Grupo_29582" data-name="Grupo 29582">
        <path id="Trazado_24160" data-name="Trazado 24160" d="M1271.557,535.076l7.179.472-.476,7.179,3.248-2.846.474-7.177-7.177-.474Z" fill="#ff8f00"/>
      </g>
      <g id="Grupo_29583" data-name="Grupo 29583">
        <path id="Trazado_24161" data-name="Trazado 24161" d="M1271.962,675.16l7.179.48.476-7.179,2.844,3.25-.478,7.177-7.177-.478Z" fill="#ff8f00"/>
      </g>
    </g>
    <g id="Grupo_29587" data-name="Grupo 29587">
      <path id="Trazado_24162" data-name="Trazado 24162" d="M1274.91,749.416l-69.644-69.548,73.239-74.108,2.134,2.109L1209.5,679.854l67.53,67.438Z" fill="#ff8f00"/>
      <g id="Grupo_29585" data-name="Grupo 29585">
        <path id="Trazado_24163" data-name="Trazado 24163" d="M1271.755,607.49l7.195-.045.04,7.195,3.036-3.072-.042-7.192-7.193.042Z" fill="#ff8f00"/>
      </g>
      <g id="Grupo_29586" data-name="Grupo 29586">
        <path id="Trazado_24164" data-name="Trazado 24164" d="M1268.147,747.731l7.195,0-.007-7.195,3.056,3.052,0,7.193-7.193,0Z" fill="#ff8f00"/>
      </g>
    </g>
    <rect id="Rectngulo_4571" data-name="Rectngulo 4571" width="158.294" height="2.999" transform="matrix(0.475, -0.88, 0.88, 0.475, 1205.428, 763.114)" fill="#ff8f00"/>
    <g id="Grupo_29590" data-name="Grupo 29590">
      <path id="Trazado_24165" data-name="Trazado 24165" d="M1204.862,852.061l.407-4.162c.3-3.044,30.237-306.446,73.836-484.878l2.915.712c-40.757,166.8-69.578,443.066-73.347,480.285l72.4-72.271,2.119,2.123Z" fill="#ff8f00"/>
      <g id="Grupo_29588" data-name="Grupo 29588">
        <path id="Trazado_24166" data-name="Trazado 24166" d="M1274.307,773.431l7.195,0-.008,7.195,3.056-3.051.006-7.193-7.193-.006Z" fill="#ff8f00"/>
      </g>
      <g id="Grupo_29589" data-name="Grupo 29589">
        <path id="Trazado_24167" data-name="Trazado 24167" d="M1284.2,370.362l-3.8-6.109-6.107,3.8.979-4.206,6.106-3.8,3.8,6.106Z" fill="#ff8f00"/>
      </g>
    </g>
  </g>
</svg>
