<svg xmlns="http://www.w3.org/2000/svg" width="76.244" height="75.888" viewBox="0 0 76.244 75.888">
  <g id="Grupo_29869" data-name="Grupo 29869" transform="translate(-388 -7073)">
    <circle id="Elipse_1030" data-name="Elipse 1030" cx="33" cy="33" r="33" transform="translate(388 7073)" fill="#e6d8e8"/>
    <g id="view" transform="translate(407.113 7091.758)">
      <g id="Grupo_29836" data-name="Grupo 29836">
        <path id="Trazado_24666" data-name="Trazado 24666" d="M378.827,52.638h-.006a1.119,1.119,0,1,0,.006,0Z" transform="translate(-335.562 -46.765)" fill="#7d58bd"/>
        <path id="Trazado_24667" data-name="Trazado 24667" d="M432.8,52.638h-.006a1.119,1.119,0,1,0,.006,0Z" transform="translate(-383.511 -46.765)" fill="#7d58bd"/>
        <path id="Trazado_24668" data-name="Trazado 24668" d="M324.857,52.638h-.006a1.119,1.119,0,1,0,.006,0Z" transform="translate(-287.614 -46.765)" fill="#7d58bd"/>
        <path id="Trazado_24669" data-name="Trazado 24669" d="M78.145,52.638H61.379a1.116,1.116,0,1,0,0,2.232H78.145a1.116,1.116,0,0,0,0-2.232Z" transform="translate(-53.539 -46.765)" fill="#7d58bd"/>
        <path id="Trazado_24670" data-name="Trazado 24670" d="M53.551,0H3.58A3.584,3.584,0,0,0,0,3.58V44.9a3.584,3.584,0,0,0,3.58,3.58H9.555v4.5a4.163,4.163,0,0,0,4.159,4.159h29.7a4.163,4.163,0,0,0,4.159-4.159v-4.5h5.975a3.584,3.584,0,0,0,3.58-3.58V3.58A3.584,3.584,0,0,0,53.551,0ZM54.9,44.9a1.35,1.35,0,0,1-1.348,1.348H47.575V23.269a4.163,4.163,0,0,0-4.159-4.159H33.57a1.116,1.116,0,1,0,0,2.232h9.846a1.929,1.929,0,0,1,1.927,1.927v29.7A1.929,1.929,0,0,1,43.417,54.9h-29.7a1.929,1.929,0,0,1-1.927-1.927v-29.7a1.929,1.929,0,0,1,1.927-1.927h9.833a1.116,1.116,0,0,0,0-2.232H13.714a4.163,4.163,0,0,0-4.159,4.159V46.245H3.58A1.35,1.35,0,0,1,2.232,44.9V13.982H54.9Zm0-33.147H2.232V3.58A1.35,1.35,0,0,1,3.58,2.232H53.551A1.35,1.35,0,0,1,54.9,3.58Z" fill="#7d58bd"/>
        <path id="Trazado_24671" data-name="Trazado 24671" d="M130.147,221.861a1.116,1.116,0,0,0,1.116-1.116V216.9h3.85a1.116,1.116,0,1,0,0-2.232h-4.966a1.116,1.116,0,0,0-1.116,1.116v4.966A1.116,1.116,0,0,0,130.147,221.861Z" transform="translate(-114.633 -190.711)" fill="#7d58bd"/>
        <path id="Trazado_24672" data-name="Trazado 24672" d="M319.554,216.9h3.853v3.85a1.116,1.116,0,1,0,2.232,0V215.78a1.116,1.116,0,0,0-1.116-1.116h-4.969a1.116,1.116,0,0,0,0,2.232Z" transform="translate(-282.906 -190.711)" fill="#7d58bd"/>
        <path id="Trazado_24673" data-name="Trazado 24673" d="M135.113,409.04h-3.85v-3.853a1.116,1.116,0,1,0-2.232,0v4.969a1.116,1.116,0,0,0,1.116,1.116h4.966a1.116,1.116,0,1,0,0-2.232Z" transform="translate(-114.633 -358.984)" fill="#7d58bd"/>
        <path id="Trazado_24674" data-name="Trazado 24674" d="M324.523,404.071a1.116,1.116,0,0,0-1.116,1.116v3.853h-3.853a1.116,1.116,0,1,0,0,2.232h4.969a1.116,1.116,0,0,0,1.116-1.116v-4.969A1.116,1.116,0,0,0,324.523,404.071Z" transform="translate(-282.906 -358.984)" fill="#7d58bd"/>
        <path id="Trazado_24675" data-name="Trazado 24675" d="M220.418,310.02a3.97,3.97,0,1,0,3.969-3.969,3.975,3.975,0,0,0-3.969,3.969Zm5.709,0a1.739,1.739,0,1,1-1.74-1.737,1.742,1.742,0,0,1,1.74,1.737Z" transform="translate(-195.823 -271.901)" fill="#7d58bd"/>
        <path id="Trazado_24676" data-name="Trazado 24676" d="M133.335,268.173c-1.986,1.37-4.3,3.587-4.3,5.331s2.319,3.963,4.3,5.332a16.7,16.7,0,0,0,19.725,0c1.986-1.369,4.306-3.587,4.306-5.332s-2.32-3.961-4.306-5.331a16.7,16.7,0,0,0-19.725,0Zm-2.071,5.331c.055-.344.864-1.693,2.955-3.221a9.535,9.535,0,0,0,0,6.444C132.127,275.2,131.318,273.848,131.264,273.5Zm20.911-3.223c2.093,1.529,2.9,2.878,2.958,3.223-.055.344-.864,1.695-2.959,3.224a9.542,9.542,0,0,0,0-6.447ZM150.5,273.5a7.317,7.317,0,0,1-2.393,5.409,13.651,13.651,0,0,1-9.823,0,7.3,7.3,0,0,1,0-10.821,13.643,13.643,0,0,1,9.813,0A7.3,7.3,0,0,1,150.5,273.5Z" transform="translate(-114.633 -235.385)" fill="#7d58bd"/>
        <path id="Trazado_24677" data-name="Trazado 24677" d="M247.074,173.5h0a1.116,1.116,0,1,0-1.119-1.116,1.114,1.114,0,0,0,1.119,1.116Z" transform="translate(-218.513 -152.156)" fill="#7d58bd"/>
      </g>
    </g>
  </g>
</svg>
