<svg xmlns="http://www.w3.org/2000/svg" width="74.841" height="75" viewBox="0 0 74.841 75">
  <g id="Grupo_29863" data-name="Grupo 29863" transform="translate(-520 -7207)">
    <circle id="Elipse_1036" data-name="Elipse 1036" cx="33" cy="33" r="33" transform="translate(520 7207)" fill="#e6d8e8"/>
    <path id="superpoblacion" d="M55.841,27.42A26.42,26.42,0,1,0,4.82,37.068v3.107a2.736,2.736,0,0,0,2.733,2.733,2.7,2.7,0,0,0,.911-.168v8.367a2.733,2.733,0,1,0,5.466,0V47.463a.911.911,0,0,1,1.822,0V52.93a2.733,2.733,0,1,0,5.466,0V49.285a.911.911,0,0,1,1.822,0h0v5.466a2.733,2.733,0,0,0,5.466,0V51.107a.911.911,0,0,1,1.822,0v3.644a2.733,2.733,0,0,0,5.466,0V49.285a.911.911,0,0,1,1.822,0V52.93a2.733,2.733,0,1,0,5.466,0V47.463a.911.911,0,0,1,1.822,0v3.644a2.733,2.733,0,1,0,5.466,0V42.74a2.7,2.7,0,0,0,.911.168,2.736,2.736,0,0,0,2.733-2.733v-3.1a26.291,26.291,0,0,0,1.822-9.652Zm-2.212,4.361a5.471,5.471,0,0,0-5.076-3.45h-.494A5.447,5.447,0,0,0,49.379,25.6h4.564c.045.6.075,1.209.075,1.822A24.71,24.71,0,0,1,53.629,31.781ZM11.2,24.687a3.644,3.644,0,0,1,6.827-1.775,5.4,5.4,0,0,0-1.215,4.832A3.633,3.633,0,0,1,11.2,24.687Zm7.288,1.822a3.644,3.644,0,0,1,6.826-1.775A5.407,5.407,0,0,0,24.1,29.568a3.634,3.634,0,0,1-5.612-3.058Zm7.288,1.822a3.644,3.644,0,1,1,3.644,3.644,3.648,3.648,0,0,1-3.644-3.644Zm7.748-3.6a3.654,3.654,0,1,1,1.215,4.836,5.4,5.4,0,0,0-1.215-4.836Zm20.222-.957H49.379A5.47,5.47,0,0,0,44,19.221a5.4,5.4,0,0,0-1.82.326V18.31a.911.911,0,0,1,.911-.911,2.736,2.736,0,0,0,2.733-2.733v-.911a.911.911,0,0,1,.911-.911h2.489A24.471,24.471,0,0,1,53.747,23.776Zm-12.935-.864a3.654,3.654,0,1,1,1.215,4.833,5.405,5.405,0,0,0-1.215-4.833Zm6.923-11.891h-1A2.736,2.736,0,0,0,44,13.755v.911a.911.911,0,0,1-.911.911,2.736,2.736,0,0,0-2.733,2.733v2.318a5.468,5.468,0,0,0-.955,1.129,5.434,5.434,0,0,0-7.287,1.822,5.428,5.428,0,0,0-1.779-.631v-.485a.588.588,0,0,1,.169-.409.318.318,0,0,1,.22-.1h.006a2.276,2.276,0,0,0,2.337-2.277.457.457,0,0,1,.456-.456H35.8a2.736,2.736,0,0,0,2.733-2.733V4.579a24.691,24.691,0,0,1,9.2,6.443Zm-11.026-7.1V16.488a.911.911,0,0,1-.911.911H33.52a2.28,2.28,0,0,0-2.278,2.278.456.456,0,0,1-.456.456h-.013a2.234,2.234,0,0,0-1.546.619,2.408,2.408,0,0,0-.719,1.714v.485a5.406,5.406,0,0,0-1.78.632,5.481,5.481,0,0,0-4.6-2.537,5.422,5.422,0,0,0-2.691.714A5.48,5.48,0,0,0,17.9,20.164a1.545,1.545,0,0,1,.259-.032h6.71a2.733,2.733,0,0,0,.056-5.466.908.908,0,0,1-.967-.838V11a.911.911,0,0,0-.362-.727,3.608,3.608,0,0,1-1.46-2.9V3.924a24.645,24.645,0,0,1,14.577,0Zm-26.38,8.008h4.06a1.367,1.367,0,0,1,0,2.733H12.566a2.28,2.28,0,0,0-2.278,2.278.457.457,0,0,1-.456.456H6.965A24.619,24.619,0,0,1,10.328,11.933Zm-4.1,7.288h3.6a2.28,2.28,0,0,0,2.278-2.278.457.457,0,0,1,.456-.456h1.822a3.189,3.189,0,0,0,0-6.377H11.963A24.669,24.669,0,0,1,20.31,4.579v2.8a5.4,5.4,0,0,0,1.822,4.053v2.4a2.717,2.717,0,0,0,2.752,2.66.911.911,0,0,1-.019,1.822h-6.71a3.406,3.406,0,0,0-2.4.994,5.455,5.455,0,0,0-4.979,9.028h-.494a5.471,5.471,0,0,0-5.075,3.447,24.766,24.766,0,0,1-.389-4.358,24.483,24.483,0,0,1,1.41-8.2ZM14.842,44.73a2.736,2.736,0,0,0-2.733,2.733v3.644a.911.911,0,1,1-1.822,0V33.8H8.464v6.377a.911.911,0,1,1-1.822,0V33.8a3.648,3.648,0,0,1,3.644-3.644h4.557a5.45,5.45,0,0,0,2.68-.716,5.493,5.493,0,0,0,.545.716h-.494a5.472,5.472,0,0,0-5.466,5.466V42a2.736,2.736,0,0,0,2.733,2.733,2.7,2.7,0,0,0,.911-.168V44.9A2.681,2.681,0,0,0,14.842,44.73Zm7.288,1.822A2.736,2.736,0,0,0,19.4,49.285V52.93a.911.911,0,1,1-1.822,0V35.62H15.753V42a.911.911,0,1,1-1.822,0V35.62a3.648,3.648,0,0,1,3.644-3.644h4.557a5.452,5.452,0,0,0,2.68-.716,5.493,5.493,0,0,0,.545.716h-.492A5.472,5.472,0,0,0,19.4,37.442v6.377a2.736,2.736,0,0,0,2.733,2.733,2.7,2.7,0,0,0,.911-.168v.336a2.691,2.691,0,0,0-.913-.169Zm11.845,8.2a.911.911,0,0,1-1.822,0V51.107a2.733,2.733,0,0,0-5.466,0v3.644a.911.911,0,1,1-1.822,0V37.442H23.043v6.377a.911.911,0,1,1-1.822,0V37.442A3.648,3.648,0,0,1,24.865,33.8h9.11a3.648,3.648,0,0,1,3.644,3.644v6.377a.911.911,0,0,1-1.822,0V37.442H33.976v17.31Zm7.288-1.822a.911.911,0,1,1-1.822,0V49.285a2.736,2.736,0,0,0-2.733-2.733,2.7,2.7,0,0,0-.911.168v-.336a2.681,2.681,0,0,0,.911.169,2.736,2.736,0,0,0,2.733-2.733V37.442a5.472,5.472,0,0,0-5.466-5.466h-.492a5.484,5.484,0,0,0,.545-.715,5.454,5.454,0,0,0,2.678.715h4.557a3.648,3.648,0,0,1,3.644,3.644V42a.911.911,0,0,1-1.822,0V35.62H41.264V52.93ZM52.2,40.175a.911.911,0,0,1-1.822,0V33.8H48.552v17.31a.911.911,0,0,1-1.822,0V47.463A2.736,2.736,0,0,0,44,44.73a2.7,2.7,0,0,0-.911.168v-.336A2.681,2.681,0,0,0,44,44.73,2.736,2.736,0,0,0,46.73,42V35.62a5.472,5.472,0,0,0-5.466-5.466H40.77a5.413,5.413,0,0,0,.545-.716,5.452,5.452,0,0,0,2.68.716h4.557A3.648,3.648,0,0,1,52.2,33.8Z" transform="translate(539 7224.515)" fill="#7d58bd"/>
  </g>
</svg>
