<svg xmlns="http://www.w3.org/2000/svg" width="76.898" height="76.998" viewBox="0 0 76.898 76.998">
  <g id="Grupo_29190" data-name="Grupo 29190" transform="translate(-294 -1328)">
    <circle id="Elipse_1019" data-name="Elipse 1019" cx="33" cy="33" r="33" transform="translate(294 1328)" fill="#e6d8e8"/>
    <g id="data" transform="translate(308.647 1345.76)">
      <g id="Grupo_29147" data-name="Grupo 29147" transform="translate(4)">
        <g id="Grupo_29146" data-name="Grupo 29146" transform="translate(0)">
          <path id="Trazado_23342" data-name="Trazado 23342" d="M48.429,0H8.937A4.942,4.942,0,0,0,4,4.937V36.53a4.937,4.937,0,0,0,3.7,4.781L8.2,39.4A2.962,2.962,0,0,1,5.975,36.53V4.937A2.962,2.962,0,0,1,8.937,1.975H48.429a2.962,2.962,0,0,1,2.962,2.962v.987h1.975V4.937A4.942,4.942,0,0,0,48.429,0Z" transform="translate(-4)" fill="#7d58bd"/>
        </g>
      </g>
      <g id="Grupo_29149" data-name="Grupo 29149" transform="translate(8.488 3.59)">
        <g id="Grupo_29148" data-name="Grupo 29148" transform="translate(0 0)">
          <rect id="Rectángulo_4402" data-name="Rectángulo 4402" width="2" height="2" transform="translate(-0.135 -0.35)" fill="#7d58bd"/>
        </g>
      </g>
      <g id="Grupo_29151" data-name="Grupo 29151" transform="translate(12.078 3.59)">
        <g id="Grupo_29150" data-name="Grupo 29150" transform="translate(0 0)">
          <rect id="Rectángulo_4403" data-name="Rectángulo 4403" width="2" height="2" transform="translate(0.275 -0.35)" fill="#7d58bd"/>
        </g>
      </g>
      <g id="Grupo_29153" data-name="Grupo 29153" transform="translate(15.668 3.59)">
        <g id="Grupo_29152" data-name="Grupo 29152" transform="translate(0 0)">
          <rect id="Rectángulo_4404" data-name="Rectángulo 4404" width="3" height="2" transform="translate(-0.316 -0.35)" fill="#7d58bd"/>
        </g>
      </g>
      <g id="Grupo_29155" data-name="Grupo 29155" transform="translate(13.873 15.797)">
        <g id="Grupo_29154" data-name="Grupo 29154" transform="translate(0)">
          <path id="Trazado_23343" data-name="Trazado 23343" d="M132.089,166.794l-9.365-9.365a13.654,13.654,0,0,0,1.173-2.772h1.57v-1.975h-1.145a13.3,13.3,0,0,0-.829-7.075V135.9h-1.975v6.287a13.9,13.9,0,0,0-1.975-2.05v-8.187h-1.975v6.807a13.731,13.731,0,0,0-1.975-.943V128h-1.975v9.214a13.668,13.668,0,0,0-1.975-.277v-6.962H109.67v6.962a13.668,13.668,0,0,0-1.975.277v-3.29h-1.975v3.889a13.736,13.736,0,0,0-1.975.943v-5.819h-1.975v7.2a13.9,13.9,0,0,0-1.975,2.05v-7.274H97.822v10.7a13.3,13.3,0,0,0-.829,7.075H84v1.975H97.417a13.794,13.794,0,0,0,21.172,7.353l9.141,9.141a.987.987,0,0,0,1.4,0l2.962-2.962A.987.987,0,0,0,132.089,166.794Zm-21.431-4.239A11.848,11.848,0,1,1,122.5,150.708,11.86,11.86,0,0,1,110.657,162.556Zm17.772,6.5-8.305-8.305a13.987,13.987,0,0,0,1.486-1.646l8.385,8.385Z" transform="translate(-84 -128)" fill="#7d58bd"/>
        </g>
      </g>
      <g id="Grupo_29157" data-name="Grupo 29157" transform="translate(30.657 28.632)">
        <g id="Grupo_29156" data-name="Grupo 29156">
          <path id="Trazado_23344" data-name="Trazado 23344" d="M229.873,232a9.873,9.873,0,1,0,9.873,9.873A9.873,9.873,0,0,0,229.873,232Zm0,17.771a7.9,7.9,0,0,1-6.83-3.949H236.7A7.9,7.9,0,0,1,229.873,249.771Zm-7.639-5.924a7.826,7.826,0,0,1,2.7-8.13v6.156h1.975v-7.317a7.861,7.861,0,0,1,1.975-.513v7.83h1.975v-7.83a7.861,7.861,0,0,1,1.975.513v7.317h1.975v-6.156a7.826,7.826,0,0,1,2.7,8.13Z" transform="translate(-220 -232)" fill="#7d58bd"/>
        </g>
      </g>
      <g id="Grupo_29159" data-name="Grupo 29159" transform="translate(9.924 7.898)">
        <g id="Grupo_29158" data-name="Grupo 29158">
          <path id="Trazado_23345" data-name="Trazado 23345" d="M96.429,64H56.937A4.942,4.942,0,0,0,52,68.937V100.53a4.942,4.942,0,0,0,4.937,4.937H69.772v-1.975H56.937a2.962,2.962,0,0,1-2.962-2.962V68.937a2.962,2.962,0,0,1,2.962-2.962H96.429a2.962,2.962,0,0,1,2.962,2.962V100.53a2.962,2.962,0,0,1-.74,1.959l1.481,1.306a4.93,4.93,0,0,0,1.234-3.265V68.937A4.942,4.942,0,0,0,96.429,64Z" transform="translate(-52 -64)" fill="#7d58bd"/>
        </g>
      </g>
      <g id="Grupo_29161" data-name="Grupo 29161" transform="translate(13.873 11.668)">
        <g id="Grupo_29160" data-name="Grupo 29160" transform="translate(0 0)">
          <rect id="Rectángulo_4405" data-name="Rectángulo 4405" width="1" height="2" transform="translate(0.479 -0.429)" fill="#7d58bd"/>
        </g>
      </g>
      <g id="Grupo_29163" data-name="Grupo 29163" transform="translate(18.361 11.668)">
        <g id="Grupo_29162" data-name="Grupo 29162" transform="translate(0 0)">
          <rect id="Rectángulo_4406" data-name="Rectángulo 4406" width="2" height="2" transform="translate(-0.009 -0.429)" fill="#7d58bd"/>
        </g>
      </g>
      <g id="Grupo_29165" data-name="Grupo 29165" transform="translate(21.952 11.668)">
        <g id="Grupo_29164" data-name="Grupo 29164" transform="translate(0 0)">
          <rect id="Rectángulo_4407" data-name="Rectángulo 4407" width="1" height="2" transform="translate(0.401 -0.429)" fill="#7d58bd"/>
        </g>
      </g>
      <g id="Grupo_29167" data-name="Grupo 29167" transform="translate(15.668 32.313)">
        <g id="Grupo_29166" data-name="Grupo 29166" transform="translate(0 0)">
          <rect id="Rectángulo_4408" data-name="Rectángulo 4408" width="3" height="6" transform="translate(-0.316 -0.073)" fill="#7d58bd"/>
        </g>
      </g>
      <g id="Grupo_29169" data-name="Grupo 29169" transform="translate(20.156 26.927)">
        <g id="Grupo_29168" data-name="Grupo 29168" transform="translate(0 0)">
          <rect id="Rectángulo_4409" data-name="Rectángulo 4409" width="2" height="11" transform="translate(0.196 0.313)" fill="#7d58bd"/>
        </g>
      </g>
      <g id="Grupo_29171" data-name="Grupo 29171" transform="translate(23.747 29.62)">
        <g id="Grupo_29170" data-name="Grupo 29170" transform="translate(0 0)">
          <rect id="Rectángulo_4410" data-name="Rectángulo 4410" width="2" height="9" transform="translate(-0.394 -0.38)" fill="#7d58bd"/>
        </g>
      </g>
    </g>
  </g>
</svg>
