<svg xmlns="http://www.w3.org/2000/svg" width="77" height="77.027" viewBox="0 0 77 77.027">
  <g id="Grupo_29188" data-name="Grupo 29188" transform="translate(-490 -1328)">
    <circle id="Elipse_1018" data-name="Elipse 1018" cx="33" cy="33" r="33" transform="translate(490 1328)" fill="#e6d8e8"/>
    <g id="brainstorming" transform="translate(508.634 1346.671)">
      <g id="Grupo_29173" data-name="Grupo 29173" transform="translate(0.013 41.821)">
        <g id="Grupo_29172" data-name="Grupo 29172" transform="translate(0)">
          <path id="Trazado_23370" data-name="Trazado 23370" d="M1.958,344.013H.013c0,4.336,4.417,8.753,8.753,8.753v-1.945C5.521,350.821,1.958,347.258,1.958,344.013Z" transform="translate(-0.013 -344.013)" fill="#7d58bd"/>
        </g>
      </g>
      <g id="Grupo_29175" data-name="Grupo 29175" transform="translate(0.986 0)">
        <g id="Grupo_29174" data-name="Grupo 29174">
          <path id="Trazado_23371" data-name="Trazado 23371" d="M63.008,25.678a7.77,7.77,0,0,0-2.565-2.312,7.76,7.76,0,0,0-5.806-11.636,7.789,7.789,0,0,0-7.722-6.866c-.029,0-.057.006-.087.006A5.828,5.828,0,0,0,36.217,2.618,5.828,5.828,0,0,0,25.6,4.92a7.788,7.788,0,0,0-6.82,6.757c-.022,0-.045,0-.067,0a7.78,7.78,0,0,0-7.4,10.185,7.77,7.77,0,0,0,.685,13.137,7.76,7.76,0,0,0,5.8,11.631,7.789,7.789,0,0,0,7.722,6.866c.029,0,.057-.006.087-.006a5.828,5.828,0,0,0,10.611,2.252,5.827,5.827,0,0,0,10.618-2.3,7.788,7.788,0,0,0,6.82-6.752c.022,0,.045,0,.067,0a7.78,7.78,0,0,0,7.4-10.185A7.77,7.77,0,0,0,63.008,25.678ZM56.64,35.986v1.945a7.711,7.711,0,0,0,2.723-.5,5.815,5.815,0,0,1-5.641,7.31H53.66a7.735,7.735,0,0,0-3.633-5.652L49,40.74a5.835,5.835,0,0,1-2.187,10.735,5.835,5.835,0,0,0-1.848-3.3l-1.3,1.449a3.89,3.89,0,1,1-6.483,2.9V50.574H35.244v1.945a3.89,3.89,0,1,1-6.224-3.112l-1.167-1.556A5.782,5.782,0,0,0,25.61,51.54c-.03,0-.06.007-.09.007a5.835,5.835,0,0,1-5.759-4.939,7.794,7.794,0,0,0,1.174-.246L20.38,44.5a5.836,5.836,0,1,1,.832-10.867l.834-1.756A7.774,7.774,0,0,0,13.2,33.417,5.826,5.826,0,0,1,15.793,22.37V20.425a7.711,7.711,0,0,0-2.723.5,5.815,5.815,0,0,1,5.641-7.31h.062a7.735,7.735,0,0,0,3.633,5.652l1.022-1.653A5.835,5.835,0,0,1,25.616,6.881a5.835,5.835,0,0,0,1.848,3.3l1.3-1.449a3.89,3.89,0,1,1,6.483-2.9V7.782h1.945V5.837a3.89,3.89,0,1,1,6.224,3.112l1.167,1.556a5.782,5.782,0,0,0,2.243-3.689c.03,0,.06-.007.09-.007a5.835,5.835,0,0,1,5.759,4.939,7.8,7.8,0,0,0-1.174.246l.554,1.865a5.836,5.836,0,1,1-.832,10.867l-.834,1.756a7.774,7.774,0,0,0,8.845-1.544A5.826,5.826,0,0,1,56.64,35.986Z" transform="translate(-8.013 0)" fill="#7d58bd"/>
        </g>
      </g>
      <g id="Grupo_29177" data-name="Grupo 29177" transform="translate(20.436 16.061)">
        <g id="Grupo_29176" data-name="Grupo 29176">
          <path id="Trazado_23372" data-name="Trazado 23372" d="M173.848,132.117a8.767,8.767,0,0,0-5.835,8.254h1.945a6.822,6.822,0,0,1,4.538-6.419Z" transform="translate(-168.013 -132.117)" fill="#7d58bd"/>
        </g>
      </g>
      <g id="Grupo_29179" data-name="Grupo 29179" transform="translate(28.217 15.562)">
        <g id="Grupo_29178" data-name="Grupo 29178">
          <path id="Trazado_23373" data-name="Trazado 23373" d="M232.013,128.067l.213,1.933a6.926,6.926,0,0,1,1.517,0l.215-1.933A8.878,8.878,0,0,0,232.013,128.067Z" transform="translate(-232.013 -128.013)" fill="#7d58bd"/>
        </g>
      </g>
      <g id="Grupo_29181" data-name="Grupo 29181" transform="translate(16.545 11.66)">
        <g id="Grupo_29180" data-name="Grupo 29180">
          <path id="Trazado_23374" data-name="Trazado 23374" d="M159.3,101.746a12.643,12.643,0,1,0-17.462,17.462v2.179a2.89,2.89,0,0,0-1.187,4.684,2.905,2.905,0,0,0,2.159,4.863H154.48a2.9,2.9,0,0,0,2.159-4.863,2.89,2.89,0,0,0-1.187-4.684v-2.179A12.643,12.643,0,0,0,159.3,101.746Zm-4.818,27.242H142.809a.973.973,0,1,1,0-1.945H154.48a.973.973,0,1,1,0,1.945Zm0-3.89H142.809a.973.973,0,1,1,0-1.945H154.48a.973.973,0,1,1,0,1.945Zm-.486-7.278a.973.973,0,0,0-.486.841v2.546h-3.89v-5.433l3.605-3.605-1.375-1.375-3.2,3.2-3.2-3.2-1.375,1.375,3.605,3.605v5.433h-3.89v-2.546a.973.973,0,0,0-.486-.841,10.7,10.7,0,1,1,10.7,0Z" transform="translate(-136 -95.909)" fill="#7d58bd"/>
        </g>
      </g>
      <g id="Grupo_29183" data-name="Grupo 29183" transform="translate(0.013 37.931)">
        <g id="Grupo_29182" data-name="Grupo 29182">
          <rect id="Rect치ngulo_4414" data-name="Rect치ngulo 4414" width="1.945" height="1.945" fill="#7d58bd"/>
        </g>
      </g>
      <g id="Grupo_29185" data-name="Grupo 29185" transform="translate(49.613 7.782)">
        <g id="Grupo_29184" data-name="Grupo 29184">
          <path id="Trazado_23375" data-name="Trazado 23375" d="M408.013,64.013v1.945c3.245,0,6.808,3.562,6.808,6.808h1.945C416.766,68.43,412.349,64.013,408.013,64.013Z" transform="translate(-408.013 -64.013)" fill="#7d58bd"/>
        </g>
      </g>
      <g id="Grupo_29187" data-name="Grupo 29187" transform="translate(56.421 18.48)">
        <g id="Grupo_29186" data-name="Grupo 29186">
          <rect id="Rect치ngulo_4415" data-name="Rect치ngulo 4415" width="1.945" height="1.945" fill="#7d58bd"/>
        </g>
      </g>
    </g>
  </g>
</svg>
