<svg xmlns="http://www.w3.org/2000/svg" width="150" height="150" viewBox="0 0 150 150">
  <g id="Grupo_29516" data-name="Grupo 29516" transform="translate(-473 -1809)">
    <g id="Elipse_1022" data-name="Elipse 1022" transform="translate(473 1809)" fill="#fff" stroke="#b869c3" stroke-width="7">
      <circle cx="75" cy="75" r="75" stroke="none"/>
      <circle cx="75" cy="75" r="71.5" fill="none"/>
    </g>
    <g id="website" transform="translate(505 1837.702)">
      <g id="Grupo_29480" data-name="Grupo 29480" transform="translate(0 8.533)">
        <g id="Grupo_29479" data-name="Grupo 29479">
          <path id="Trazado_23896" data-name="Trazado 23896" d="M81.739,8.533H5.84A5.847,5.847,0,0,0,0,14.373V62.54A1.46,1.46,0,0,0,1.46,64h84.66a1.46,1.46,0,0,0,1.46-1.46V14.373A5.847,5.847,0,0,0,81.739,8.533ZM84.66,61.08H2.919V14.373A2.924,2.924,0,0,1,5.84,11.452h75.9a2.924,2.924,0,0,1,2.921,2.921Z" transform="translate(0 -8.533)" fill="#002b45"/>
        </g>
      </g>
      <g id="Grupo_29482" data-name="Grupo 29482" transform="translate(0 61.08)">
        <g id="Grupo_29481" data-name="Grupo 29481">
          <path id="Trazado_23897" data-name="Trazado 23897" d="M86.12,315.733H1.46A1.46,1.46,0,0,0,0,317.193v7.3a5.847,5.847,0,0,0,5.84,5.84h75.9a5.847,5.847,0,0,0,5.84-5.84v-7.3A1.46,1.46,0,0,0,86.12,315.733Zm-1.46,8.757a2.924,2.924,0,0,1-2.921,2.921H5.84a2.924,2.924,0,0,1-2.921-2.921v-5.837H84.66v5.837Z" transform="translate(0 -315.733)" fill="#002b45"/>
        </g>
      </g>
      <g id="Grupo_29484" data-name="Grupo 29484" transform="translate(37.951 66.919)">
        <g id="Grupo_29483" data-name="Grupo 29483">
          <path id="Trazado_23898" data-name="Trazado 23898" d="M232.085,349.867h-8.758a1.46,1.46,0,1,0,0,2.919h8.758a1.46,1.46,0,0,0,0-2.919Z" transform="translate(-221.867 -349.867)" fill="#002b45"/>
        </g>
      </g>
      <g id="Grupo_29486" data-name="Grupo 29486" transform="translate(5.839 14.372)">
        <g id="Grupo_29485" data-name="Grupo 29485">
          <path id="Trazado_23899" data-name="Trazado 23899" d="M108.576,42.667H35.594a1.46,1.46,0,0,0-1.46,1.46V90.836a1.46,1.46,0,0,0,1.46,1.46h72.983a1.46,1.46,0,0,0,1.46-1.46V44.127A1.46,1.46,0,0,0,108.576,42.667Zm-1.46,46.709H37.053V45.586h70.063Z" transform="translate(-34.134 -42.667)" fill="#002b45"/>
        </g>
      </g>
      <g id="Grupo_29488" data-name="Grupo 29488" transform="translate(20.435 84.435)">
        <g id="Grupo_29487" data-name="Grupo 29487">
          <path id="Trazado_23900" data-name="Trazado 23900" d="M161.8,452.267H123.846a4.379,4.379,0,0,0,0,8.758H161.8a4.379,4.379,0,1,0,0-8.758Zm0,5.839H123.846a1.46,1.46,0,1,1,0-2.919H161.8a1.46,1.46,0,1,1,0,2.919Z" transform="translate(-119.467 -452.267)" fill="#002b45"/>
        </g>
      </g>
      <g id="Grupo_29490" data-name="Grupo 29490" transform="translate(26.274 72.758)">
        <g id="Grupo_29489" data-name="Grupo 29489">
          <path id="Trazado_23901" data-name="Trazado 23901" d="M187.173,395.678c-4.843,0-7.3-3.437-7.3-10.217a1.46,1.46,0,0,0-1.46-1.46h-14.6a1.46,1.46,0,0,0-1.46,1.46c0,6.78-2.455,10.217-7.3,10.217a1.46,1.46,0,0,0,0,2.919h32.112a1.46,1.46,0,0,0,0-2.919Zm-25,0c1.8-1.991,2.855-4.956,3.068-8.758H177c.212,3.8,1.27,6.767,3.068,8.758Z" transform="translate(-153.601 -384.001)" fill="#002b45"/>
        </g>
      </g>
      <g id="Grupo_29492" data-name="Grupo 29492" transform="translate(51.097 39.185)">
        <g id="Grupo_29491" data-name="Grupo 29491">
          <path id="Trazado_23902" data-name="Trazado 23902" d="M317.374,200.086l-3.523-3.524,1.96-1.96a1.459,1.459,0,0,0-.612-2.43l-14.6-4.379a1.46,1.46,0,0,0-1.817,1.817l4.379,14.6a1.459,1.459,0,0,0,2.43.613l2.064-2.065,3.524,3.525a1.459,1.459,0,0,0,2.064,0l4.128-4.129A1.458,1.458,0,0,0,317.374,200.086Zm-5.16,3.1-3.208-3.21a1.908,1.908,0,0,0-2.694,0l-1.054,1.054-2.9-9.658,9.658,2.9-1.13,1.13a1.655,1.655,0,0,0,0,2.337l3.386,3.386Z" transform="translate(-298.723 -187.731)" fill="#002b45"/>
        </g>
      </g>
      <g id="Grupo_29494" data-name="Grupo 29494" transform="translate(18.976 20.21)">
        <g id="Grupo_29493" data-name="Grupo 29493">
          <path id="Trazado_23903" data-name="Trazado 23903" d="M153.264,76.8h-40.87a1.46,1.46,0,0,0-1.46,1.46v7.3a1.46,1.46,0,0,0,1.46,1.46h40.87a1.46,1.46,0,0,0,1.46-1.46v-7.3A1.46,1.46,0,0,0,153.264,76.8Zm-1.46,7.3H113.853V79.719H151.8Z" transform="translate(-110.934 -76.8)" fill="#002b45"/>
        </g>
      </g>
      <g id="Grupo_29496" data-name="Grupo 29496" transform="translate(24.814 36.266)">
        <g id="Grupo_29495" data-name="Grupo 29495">
          <path id="Trazado_23904" data-name="Trazado 23904" d="M158.2,170.667H146.527a1.46,1.46,0,0,0-1.46,1.46v5.839a1.46,1.46,0,0,0,1.46,1.46H158.2a1.46,1.46,0,0,0,1.46-1.46v-5.839A1.46,1.46,0,0,0,158.2,170.667Zm-1.46,5.839h-8.758v-2.919h8.758Z" transform="translate(-145.067 -170.667)" fill="#002b45"/>
        </g>
      </g>
      <g id="Grupo_29498" data-name="Grupo 29498" transform="translate(18.976 20.21)">
        <g id="Grupo_29497" data-name="Grupo 29497">
          <path id="Trazado_23905" data-name="Trazado 23905" d="M153.264,76.8h-40.87a1.46,1.46,0,0,0-1.46,1.46v27.733a1.46,1.46,0,0,0,1.46,1.46h34.749a1.461,1.461,0,0,0,1.4-1.88l-1.848-6.161,6.152,1.847a1.46,1.46,0,0,0,1.879-1.4V78.26A1.46,1.46,0,0,0,153.264,76.8ZM151.8,97.9l-6.871-2.061a1.461,1.461,0,0,0-1.817,1.819l2.064,6.878H113.853V79.719H151.8Z" transform="translate(-110.934 -76.8)" fill="#002b45"/>
        </g>
      </g>
    </g>
  </g>
</svg>
