<svg xmlns="http://www.w3.org/2000/svg" width="150" height="150" viewBox="0 0 150 150">
  <g id="Grupo_29515" data-name="Grupo 29515" transform="translate(-658 -1809)">
    <g id="Elipse_1023" data-name="Elipse 1023" transform="translate(658 1809)" fill="#fff" stroke="#b869c3" stroke-width="7">
      <circle cx="75" cy="75" r="75" stroke="none"/>
      <circle cx="75" cy="75" r="71.5" fill="none"/>
    </g>
    <g id="video-web" transform="translate(695.236 1846.235)">
      <g id="Grupo_29500" data-name="Grupo 29500" transform="translate(53.118 26.534)">
        <g id="Grupo_29499" data-name="Grupo 29499">
          <rect id="Rectángulo_4539" data-name="Rectángulo 4539" width="3.111" height="3.236" fill="#002b45"/>
        </g>
      </g>
      <g id="Grupo_29502" data-name="Grupo 29502" transform="translate(46.87 26.534)">
        <g id="Grupo_29501" data-name="Grupo 29501">
          <rect id="Rectángulo_4540" data-name="Rectángulo 4540" width="3.136" height="3.236" fill="#002b45"/>
        </g>
      </g>
      <g id="Grupo_29504" data-name="Grupo 29504">
        <g id="Grupo_29503" data-name="Grupo 29503">
          <path id="Trazado_23906" data-name="Trazado 23906" d="M12.5,0V21.854H0V75.022H62.527V53.168h12.5V0Zm46.8,71.787H3.236V34.45H59.291Zm0-40.573H3.236V25.09H59.291Zm12.5,18.718h-9.26V21.854h-46.8v-9.26H71.786V49.932Zm0-40.573H15.731V3.236H71.786V9.359Z" fill="#002b45"/>
        </g>
      </g>
      <g id="Grupo_29506" data-name="Grupo 29506" transform="translate(65.589 4.679)">
        <g id="Grupo_29505" data-name="Grupo 29505">
          <rect id="Rectángulo_4541" data-name="Rectángulo 4541" width="3.136" height="3.236" fill="#002b45"/>
        </g>
      </g>
      <g id="Grupo_29508" data-name="Grupo 29508" transform="translate(59.366 4.679)">
        <g id="Grupo_29507" data-name="Grupo 29507">
          <rect id="Rectángulo_4542" data-name="Rectángulo 4542" width="3.111" height="3.236" fill="#002b45"/>
        </g>
      </g>
      <g id="Grupo_29510" data-name="Grupo 29510" transform="translate(26.136 44.058)">
        <g id="Grupo_29509" data-name="Grupo 29509">
          <path id="Trazado_23907" data-name="Trazado 23907" d="M112,188.8v16.6l14.238-8.339Zm3.236,5.626,4.6,2.663-4.6,2.663Z" transform="translate(-112 -188.8)" fill="#002b45"/>
        </g>
      </g>
      <g id="Grupo_29512" data-name="Grupo 29512" transform="translate(12.496 39.005)">
        <g id="Grupo_29511" data-name="Grupo 29511">
          <path id="Trazado_23908" data-name="Trazado 23908" d="M53.547,167.147v26.634H91.108V167.147Zm34.325,23.4H56.783V170.383H87.872Z" transform="translate(-53.547 -167.147)" fill="#002b45"/>
        </g>
      </g>
    </g>
  </g>
</svg>
