<svg xmlns="http://www.w3.org/2000/svg" width="150" height="150" viewBox="0 0 150 150">
  <g id="Grupo_29911" data-name="Grupo 29911" transform="translate(-626 -7465)">
    <g id="Elipse_1037" data-name="Elipse 1037" transform="translate(626 7465)" fill="#fff" stroke="#b869c3" stroke-width="7">
      <circle cx="75" cy="75" r="75" stroke="none"/>
      <circle cx="75" cy="75" r="71.5" fill="none"/>
    </g>
    <g id="page-views" transform="translate(654 7499.902)">
      <path id="Trazado_24764" data-name="Trazado 24764" d="M281.848,249.713c-9.083,0-16.178-9.572-16.476-9.98a1.43,1.43,0,0,1,0-1.686c.3-.408,7.393-9.98,16.476-9.98s16.178,9.572,16.476,9.98a1.428,1.428,0,0,1,0,1.686C298.025,240.14,290.931,249.713,281.848,249.713Zm-13.49-10.823c1.855,2.2,7.295,7.964,13.49,7.964s11.634-5.759,13.49-7.964c-1.855-2.205-7.295-7.964-13.49-7.964S270.213,236.685,268.358,238.889Zm0,0" transform="translate(-210.917 -181.376)" fill="#002b45"/>
      <path id="Trazado_24765" data-name="Trazado 24765" d="M319.224,260.342a7.15,7.15,0,1,1,7.15-7.15A7.158,7.158,0,0,1,319.224,260.342Zm0-11.44a4.29,4.29,0,1,0,4.29,4.29A4.294,4.294,0,0,0,319.224,248.9Zm0,0" transform="translate(-248.293 -195.679)" fill="#002b45"/>
      <path id="Trazado_24766" data-name="Trazado 24766" d="M257.989,214.838a22.879,22.879,0,1,1,22.879-22.879A22.905,22.905,0,0,1,257.989,214.838Zm0-42.9a20.019,20.019,0,1,0,20.02,20.02A20.042,20.042,0,0,0,257.989,171.939Zm0,0" transform="translate(-187.059 -134.445)" fill="#002b45"/>
      <path id="Trazado_24767" data-name="Trazado 24767" d="M50.071,63.957H9.6a9.612,9.612,0,0,1-9.6-9.6V9.7A9.612,9.612,0,0,1,9.6.1H62.713a9.612,9.612,0,0,1,9.6,9.6V36.064a1.43,1.43,0,1,1-2.86,0V9.7a6.749,6.749,0,0,0-6.741-6.741H9.6A6.749,6.749,0,0,0,2.859,9.7V54.356A6.749,6.749,0,0,0,9.6,61.1h40.47a1.43,1.43,0,1,1,0,2.86Zm0,0" fill="#002b45"/>
      <path id="Trazado_24768" data-name="Trazado 24768" d="M70.884,84.262H1.43a1.43,1.43,0,0,1,0-2.86H70.884a1.43,1.43,0,1,1,0,2.86Zm0,0" transform="translate(0 -64.688)" fill="#002b45"/>
      <path id="Trazado_24769" data-name="Trazado 24769" d="M84.77,36.513a4,4,0,1,1,4-4A4,4,0,0,1,84.77,36.513Zm0-5.133a1.137,1.137,0,1,0,1.137,1.137A1.138,1.138,0,0,0,84.77,31.379Zm0,0" transform="translate(-64.265 -22.613)" fill="#002b45"/>
      <path id="Trazado_24770" data-name="Trazado 24770" d="M28.356,36.337a4,4,0,1,1,4-4A4,4,0,0,1,28.356,36.337Zm0-5.133a1.137,1.137,0,1,0,1.137,1.137A1.138,1.138,0,0,0,28.356,31.2Zm0,0" transform="translate(-19.381 -22.473)" fill="#002b45"/>
      <path id="Trazado_24771" data-name="Trazado 24771" d="M141.184,36.688a4,4,0,1,1,4-4A4,4,0,0,1,141.184,36.688Zm0-5.133a1.137,1.137,0,1,0,1.137,1.137A1.138,1.138,0,0,0,141.184,31.555Zm0,0" transform="translate(-109.149 -22.753)" fill="#002b45"/>
    </g>
  </g>
</svg>
