<svg xmlns="http://www.w3.org/2000/svg" width="150" height="150" viewBox="0 0 150 150">
  <g id="Grupo_29909" data-name="Grupo 29909" transform="translate(-788 -7465)">
    <g id="Elipse_1039" data-name="Elipse 1039" transform="translate(788 7465)" fill="#fff" stroke="#b869c3" stroke-width="7">
      <circle cx="75" cy="75" r="75" stroke="none"/>
      <circle cx="75" cy="75" r="71.5" fill="none"/>
    </g>
    <g id="hiring" transform="translate(826 7503)">
      <path id="Trazado_24838" data-name="Trazado 24838" d="M148.831,220.831A4.836,4.836,0,0,0,153.663,216h-2.416a2.416,2.416,0,0,1-4.831,0H144A4.836,4.836,0,0,0,148.831,220.831Zm0,0" transform="translate(-122.258 -183.388)" fill="#002b45"/>
      <path id="Trazado_24839" data-name="Trazado 24839" d="M130.416,161.208A1.208,1.208,0,1,1,129.208,160,1.208,1.208,0,0,1,130.416,161.208Zm0,0" transform="translate(-108.674 -135.843)" fill="#002b45"/>
      <path id="Trazado_24840" data-name="Trazado 24840" d="M210.416,161.208A1.208,1.208,0,1,1,209.208,160,1.208,1.208,0,0,1,210.416,161.208Zm0,0" transform="translate(-176.596 -135.843)" fill="#002b45"/>
      <path id="Trazado_24841" data-name="Trazado 24841" d="M41.067,36.236v9.6L35.028,43.82V40.437a13.307,13.307,0,0,0,4.335-6.689,6.026,6.026,0,0,0,5.328-5.967V18.118a18.118,18.118,0,0,0-36.236,0v9.663a6.026,6.026,0,0,0,5.328,5.967,13.307,13.307,0,0,0,4.335,6.689V43.82L5.781,47.934A8.442,8.442,0,0,0,0,55.953V67.64H41.067v7.247h33.82v-30.7l-7.955-7.955ZM67.64,40.36l3.123,3.123H67.64ZM36.05,46.707l-1.841,9.2-5.773-4.125,5.711-5.711ZM39.809,31.2c.025-.332.051-.663.051-1V24.38a3.6,3.6,0,0,1-.051,6.818ZM10.871,27.781a3.619,3.619,0,0,1,2.416-3.4V30.2c0,.338.025.669.051,1a3.618,3.618,0,0,1-2.466-3.417Zm2.648-5.94a5.975,5.975,0,0,0-2.648,1.14V18.118a15.7,15.7,0,0,1,31.4,0v4.863a5.975,5.975,0,0,0-2.648-1.14,6.635,6.635,0,0,0-10.4-3.6l-2.658,1.992L23.917,18.24a6.636,6.636,0,0,0-10.4,3.6ZM15.7,30.2V23.553a4.228,4.228,0,0,1,6.765-3.382l4.105,3.08,4.107-3.08a4.227,4.227,0,0,1,6.764,3.382V30.2a10.871,10.871,0,1,1-21.741,0ZM26.573,43.483a13.2,13.2,0,0,0,6.039-1.466v2.174L26.573,50.23l-6.039-6.039V42.017A13.2,13.2,0,0,0,26.573,43.483ZM19,46.073l5.711,5.711-5.773,4.125-1.841-9.2ZM12.079,65.225V57.977H9.663v7.247H2.416V55.953a6.031,6.031,0,0,1,4.13-5.729l8.242-2.747L17.3,60.046l9.272-6.624,9.274,6.624L38.36,47.478l2.707.9V65.224Zm31.4,7.247V38.652H65.225V45.9h7.247V72.472Zm0,0" fill="#002b45"/>
      <path id="Trazado_24842" data-name="Trazado 24842" d="M384,396.079h12.079V384H384Zm2.416-9.663h7.247v7.247h-7.247Zm0,0" transform="translate(-326.023 -326.023)" fill="#002b45"/>
      <path id="Trazado_24843" data-name="Trazado 24843" d="M304,448h9.663v2.416H304Zm0,0" transform="translate(-258.101 -380.36)" fill="#002b45"/>
      <path id="Trazado_24844" data-name="Trazado 24844" d="M304,416h9.663v2.416H304Zm0,0" transform="translate(-258.101 -353.191)" fill="#002b45"/>
      <path id="Trazado_24845" data-name="Trazado 24845" d="M304,384h9.663v2.416H304Zm0,0" transform="translate(-258.101 -326.023)" fill="#002b45"/>
      <path id="Trazado_24846" data-name="Trazado 24846" d="M304,272h2.416v2.416H304Zm0,0" transform="translate(-258.101 -230.933)" fill="#002b45"/>
      <path id="Trazado_24847" data-name="Trazado 24847" d="M336,272h12.079v2.416H336Zm0,0" transform="translate(-285.27 -230.933)" fill="#002b45"/>
      <path id="Trazado_24848" data-name="Trazado 24848" d="M304,304h16.91v2.416H304Zm0,0" transform="translate(-258.101 -258.101)" fill="#002b45"/>
      <path id="Trazado_24849" data-name="Trazado 24849" d="M448,336h2.416v2.416H448Zm0,0" transform="translate(-380.36 -285.27)" fill="#002b45"/>
      <path id="Trazado_24850" data-name="Trazado 24850" d="M304,336h19.326v2.416H304Zm0,0" transform="translate(-258.101 -285.27)" fill="#002b45"/>
      <path id="Trazado_24851" data-name="Trazado 24851" d="M333.286,74.573A13.265,13.265,0,0,0,344.1,53.589l2.159-2.357L344.474,49.6l-1.966,2.144a13.28,13.28,0,1,0-9.222,22.83Zm0-24.157a10.829,10.829,0,0,1,7.593,3.105l-8.929,9.74-5.158-4.125-1.51,1.886,6.921,5.537,10.215-11.144a10.86,10.86,0,1,1-9.133-5Zm0,0" transform="translate(-271.686 -40.753)" fill="#002b45"/>
    </g>
  </g>
</svg>
