<?xml version="1.0" encoding="utf-8"?>
<!-- Generator: Adobe Illustrator 24.3.0, SVG Export Plug-In . SVG Version: 6.00 Build 0)  -->
<svg version="1.1" id="Layer_1" xmlns="http://www.w3.org/2000/svg" xmlns:xlink="http://www.w3.org/1999/xlink" x="0px" y="0px"
	 viewBox="0 0 815.1 286.7" style="enable-background:new 0 0 815.1 286.7;" xml:space="preserve">
<style type="text/css">
	.st0{fill:#FFD200;}
	.st1{fill:#E9B300;}
	.st2{fill:#110239;}
	.st3{fill:#C4B6EF;}
	.st4{fill:#DEE2E0;}
	.st5{fill:#9047C9;}
	.st6{fill:#FEFEFE;}
	.st7{fill:#FFFFFF;}
	.st8{fill:#E5E6ED;}
	.st9{fill:#C2C3D4;}
	.st10{fill:#B76B54;}
	.st11{fill:#D28C73;}
	.st12{fill:#5C1099;}
	.st13{fill:#B0BDD4;}
	.st14{fill:#C1C3D4;}
	.st15{fill:#C298D8;}
	.st16{fill:#453964;}
	.st17{fill:#1E1EA4;}
</style>
<g>
	<g>
		<path class="st0" d="M189.9,53.3c0,0,9.5,2.1,20.5,11.7l-13.2,24.1c0,0-5-5.4-13.5-7.2L189.9,53.3z"/>
		<path class="st1" d="M192.2,68.6c1.2-4.3,2.1-8.7,3.2-13c-3.4-1.6-5.6-2.3-5.6-2.3l-6.2,28.6c3.5-3,4.4-1.9,5-2.2
			C189.7,76,191.2,72.3,192.2,68.6z"/>
		<path class="st0" d="M138.2,40.2c0,0,37.3-3.7,58.1,7l-7.6,32.5c0,0-18.3-9.8-48.7-5.6L138.2,40.2z"/>
		<rect x="138.2" y="37.3" class="st2" width="3" height="127.9"/>
		<rect x="135.9" y="161.4" class="st2" width="7.6" height="6"/>
		<rect x="132.9" y="166.1" class="st2" width="13.5" height="3"/>
	</g>
	<ellipse class="st3" cx="407.6" cy="254.7" rx="407.6" ry="31.9"/>
	<polygon class="st4" points="608.2,24.5 603.7,24.5 603.7,20.1 601.2,20.1 601.2,24.5 596.8,24.5 596.8,27 601.2,27 601.2,31.4 
		603.7,31.4 603.7,27 608.2,27 	"/>
	<polygon class="st4" points="342.7,4.4 338.3,4.4 338.3,0 335.8,0 335.8,4.4 331.3,4.4 331.3,6.9 335.8,6.9 335.8,11.4 338.3,11.4 
		338.3,6.9 342.7,6.9 	"/>
	<polygon class="st4" points="779.9,69.5 775.5,69.5 775.5,65 773,65 773,69.5 768.6,69.5 768.6,72 773,72 773,76.4 775.5,76.4 
		775.5,72 779.9,72 	"/>
	<polygon class="st4" points="251.6,50.7 247.2,50.7 247.2,46.3 244.7,46.3 244.7,50.7 240.3,50.7 240.3,53.2 244.7,53.2 
		244.7,57.7 247.2,57.7 247.2,53.2 251.6,53.2 	"/>
	<polygon class="st4" points="550.3,77.7 545.8,77.7 545.8,73.3 543.3,73.3 543.3,77.7 538.9,77.7 538.9,80.2 543.3,80.2 
		543.3,84.7 545.8,84.7 545.8,80.2 550.3,80.2 	"/>
	<polygon class="st4" points="397.1,22.2 392.7,22.2 392.7,17.7 390.2,17.7 390.2,22.2 385.8,22.2 385.8,24.7 390.2,24.7 
		390.2,29.1 392.7,29.1 392.7,24.7 397.1,24.7 	"/>
	<polygon class="st4" points="105.3,59.9 100.9,59.9 100.9,55.4 98.4,55.4 98.4,59.9 93.9,59.9 93.9,62.4 98.4,62.4 98.4,66.8 
		100.9,66.8 100.9,62.4 105.3,62.4 	"/>
	<polygon class="st4" points="45.1,84.1 40.6,84.1 40.6,79.6 38.1,79.6 38.1,84.1 33.7,84.1 33.7,86.6 38.1,86.6 38.1,91 40.6,91 
		40.6,86.6 45.1,86.6 	"/>
	<g>
		<circle class="st5" cx="722.4" cy="64" r="27.6"/>
		<ellipse class="st2" cx="722.4" cy="64" rx="23.5" ry="23.5"/>
		<g>
			<path class="st6" d="M722.4,64.6L722.4,64.6c-0.3,0-0.5-0.2-0.5-0.5V45.2c0-0.3,0.2-0.5,0.5-0.5l0,0c0.3,0,0.5,0.2,0.5,0.5v18.9
				C722.9,64.4,722.7,64.6,722.4,64.6z"/>
			<path class="st6" d="M722.8,64.4L722.8,64.4c-0.1,0.2-0.4,0.3-0.6,0.2l-11.2-6c-0.2-0.1-0.3-0.4-0.2-0.6l0,0
				c0.1-0.2,0.4-0.3,0.6-0.2l11.2,6C722.8,63.9,722.9,64.1,722.8,64.4z"/>
		</g>
	</g>
	<g>
		<path class="st5" d="M393.2,101.1c-6.2-10.6-28.8-28.9-18.4-40.5c8.7-9.7,34.6-0.8,34.9-14.9c0.2-8.3-0.5-15.7,7.3-22.6
			c8.3-7.4,24.1,3.4,32-3.1c6.6-5.5,3-18.9,14.1-20c9.6-0.9,17.9,11,17.7,18.7c-0.2,9.6-10.5,10.7-13.6,18.3
			c-2,4.8,2.4,8.2,4.3,12.6c1.8,4.2,3,9.9,2.2,14.2c-2.5,12.9-17.5,10.4-26.6,16.8c-8.6,6,2.6,14.3-1.3,22.4
			c-4.2,8.8-19.6,10.6-29.8,8.1C409,109.3,397,107.6,393.2,101.1z"/>
		<g>
			<path class="st7" d="M402.9,108.3c-0.1,0-0.1-0.1-0.2-0.1c-0.3-0.2-0.3-0.6-0.1-0.8c0.2-0.2,20-17,27-41.8
				c4.6-16.3,14.4-24.4,22.2-30.9c4.7-3.9,8.7-7.2,10.2-11.4c0.1-0.3,0.5-0.5,0.9-0.3s0.6,0.6,0.5,0.9c-1.6,4.5-5.7,7.9-10.5,11.9
				c-7.7,6.4-17.3,14.4-21.9,30.3c-7,24.9-27.1,41.9-27.3,42.1C403.5,108.4,403.2,108.4,402.9,108.3z"/>
		</g>
		<g>
			<path class="st7" d="M430.9,66c-0.3-0.2-0.5-0.5-0.4-0.8s0.5-0.5,0.9-0.3c5.8,2,14.4,1.1,18-3.5c0.4-0.6,0.9-1.2,1.3-1.8
				c2.2-3.1,5-7,9-7.5c1.9-0.2,3.9,0.4,6,1.8c0.3,0.2,0.4,0.6,0.2,0.9c-0.2,0.3-0.6,0.3-1,0.1c-1.7-1.2-3.3-1.7-4.9-1.5
				c-3.4,0.4-6,4-8.1,6.9c-0.5,0.7-0.9,1.3-1.4,1.9c-4.1,5.2-13.3,6.1-19.6,4C430.9,66,430.9,66,430.9,66z"/>
		</g>
		<g>
			<path class="st7" d="M426.8,64.1c-2.7-1.4-4.5-3.1-5.5-5.2c-1.6-3.3-0.9-7.5,1.9-11.9c0.3-0.4,0.6-0.9,1-1.5
				c2.1-3.1,5.4-7.9,4.3-11.4c-0.4-1.2-1.2-2.1-2.6-2.9c-0.4-0.2-0.5-0.7-0.3-1s0.7-0.4,1-0.2l0,0c1.7,1,2.8,2.3,3.3,3.8
				c1.3,4.1-2.1,9.1-4.4,12.4c-0.4,0.5-0.7,1-1,1.5c-2.6,4.1-3.3,7.9-1.9,10.8c1.2,2.5,3.9,4.5,7.9,5.9c0.4,0.1,0.6,0.5,0.5,0.8
				s-0.5,0.5-0.9,0.3C428.9,65.1,427.8,64.7,426.8,64.1z"/>
		</g>
		<g>
			<path class="st7" d="M413.6,102.2c-0.8-0.4-1.6-0.8-2.2-1.4c-0.3-0.3-0.3-0.6,0-0.8c0.3-0.2,0.8-0.2,1,0.1c3.2,3,11.3,2.1,15,0.8
				c1.5-0.5,3-1.7,4.7-3c2.9-2.3,5.8-4.6,9.4-3.8c0.4,0.1,0.6,0.4,0.5,0.7c-0.1,0.3-0.5,0.5-0.8,0.4c-2.8-0.6-5.5,1.5-8.1,3.5
				c-1.7,1.3-3.3,2.6-5,3.2C424.8,103.1,418,104.1,413.6,102.2z"/>
		</g>
		<g>
			<path class="st7" d="M407.7,99.4c-0.9-0.4-1.7-0.9-2.4-1.5c-4.2-3.5-5.5-10.2-5.4-13.8c0.1-2,1.3-4.3,2.6-6.7
				c2.1-3.9,4.3-7.9,1.8-10.7c-0.3-0.3-0.2-0.7,0.1-0.9c0.3-0.2,0.8-0.1,1.1,0.2c3,3.4,0.6,8-1.6,12c-1.3,2.3-2.5,4.5-2.5,6.2
				c-0.1,3.3,1.1,9.7,4.9,12.9c1.5,1.2,3.2,1.9,5.1,1.9c0.4,0,0.8,0.3,0.8,0.6c0,0.3-0.3,0.6-0.7,0.6
				C410.2,100.2,408.9,100,407.7,99.4z"/>
		</g>
	</g>
	<g>
		<path class="st3" d="M357.9,147.5c16.3-5.1,29.1-9.6,29.5-26.3c0.2-8.7-3.8-14.4-13.2-18.5c-7.6-3.3-11.5-4.4-13.3-11.9
			c-2.8-12.1,3.3-24.6-4.7-35.9c-8.9-12.6-28.9-5.1-38.1-16.4c-8.3-10.2-12.8-23.8-30.4-22.3C273,17.5,267,32.9,273.3,42.8
			c3.6,5.6,9.8,9.2,12.3,15.3c2.4,5.8-0.2,10.9-2.6,16.5c-5.2,12.4-6.5,24.9,7.7,31.8c8.5,4.1,15.1,7.8,12,17
			c-3.2,9.6-4.7,15.1,7.1,21.3c8.8,4.6,16.7,3.6,26.8,3.3c9.4-0.3,22,1.3,30.9-3.4L357.9,147.5z"/>
		<g>
			<path class="st7" d="M352.6,139.2c1.4-1.6,2.3-3.3,2.8-4.9c2-7.2-4.9-13.7-11.1-19.6c-3.1-3-6.1-5.8-7.5-8.3
				c-3.8-6.8-5-13.1-4.2-23.1c1-11.9-2.3-16.5-12.2-23.6c-8.4-6-16.6-12.6-19-19.7c-0.2-0.5-0.9-0.8-1.6-0.6s-1.2,0.9-1,1.4
				c2.5,7.5,11.1,14.3,19.7,20.5c9.6,6.8,12.6,11,11.7,22.3c-0.7,8.5-0.2,15.9,4.4,23.9c1.5,2.7,4.6,5.6,7.8,8.6
				c6,5.7,12.7,11.9,10.9,18.3c-0.7,2.5-2.5,4.8-5.7,7.2c-0.5,0.4-0.7,1-0.4,1.3c0.3,0.3,1,0.2,1.6-0.2
				C350.2,141.7,351.5,140.4,352.6,139.2z"/>
		</g>
		<g>
			<path class="st7" d="M332,94.4c0.2-0.2,0.3-0.4,0.3-0.6c0-0.5-0.5-0.9-1.2-0.7c-5.9,1.1-10.2-3.1-14.9-7.5
				c-4.1-3.9-8.5-8.1-14.5-8.9c-0.7-0.1-1.5,0.3-1.7,0.9c-0.3,0.6,0.1,1.1,0.7,1.2c5.2,0.7,9.4,4.6,13.3,8.3c4.9,4.6,9.8,9.2,16.9,8
				C331.4,94.9,331.8,94.7,332,94.4z"/>
		</g>
		<g>
			<path class="st7" d="M336.7,108.6c0.1-0.1,0.2-0.2,0.2-0.3c0.6-1.5,0.8-2.7,1-3.9c0.4-1.9,0.7-3.6,2.4-5.8
				c0.9-1.2,1.9-2.2,2.9-3.2c2.1-2.1,4.2-4.3,5.1-7.5c1.4-4.7,1.3-10.4-0.3-17c-0.2-0.9-0.7-2.2-1.3-3.6c-0.8-2-2.2-5.6-1.7-6.5
				c0.3-0.5,0.1-1.1-0.5-1.2c-0.6-0.1-1.3,0.1-1.6,0.6c-1,1.5-0.1,4.1,1.5,8.1c0.5,1.3,1,2.5,1.2,3.4c1,4.4,1.9,10.7,0.3,16.2
				c-0.8,2.8-2.5,4.5-4.5,6.6c-1,1.1-2.1,2.2-3.1,3.4c-2.1,2.6-2.5,4.7-2.9,6.7c-0.2,1.1-0.4,2.3-1,3.6c-0.2,0.5,0.1,1,0.8,1
				C335.9,109.2,336.4,109,336.7,108.6z"/>
		</g>
	</g>
	<g>
		<path class="st8" d="M289,232.8c-16-2.9-31-1.7-37.5-19.2c-5.1-13.9,6.8-27-5.2-36.5c-7.2-5.7-18.7-9.2-21.2-19
			c-2.6-10.2,10.4-16.7,8.1-26.5c-1.9-8.1-13.2-8.6-10.3-19.2c2.6-9.4,10.8-11.7,17.4-9.9c8.8,2.5,9.5,10.5,15.3,16.1
			c3.9,3.7,9.4,0,15.1-0.7s12.9-0.2,17.7,2.3c15.6,8.1,3.1,25.3,5.9,39.3c2.7,13.5,21.8,5.4,31.6,15.5c11.5,11.9,2.8,32.4-8.5,42.1
			C309.9,223.6,299.9,234.8,289,232.8z"/>
		<g>
			<path class="st7" d="M304.5,229.3c-0.1,0-0.2,0.1-0.3,0.1c-0.5,0.1-1.1-0.2-1.2-0.7c-0.1-0.4-10.5-35.2-35.9-58.2
				c-14.3-12.9-17.7-26.3-20.3-36.7c-1.5-6.1-2.9-11.3-5.9-14.1c-0.2-0.2-0.2-0.7,0.1-1c0.3-0.4,0.7-0.4,1-0.2
				c3.3,3,4.6,8.3,6.3,14.6c2.6,10.3,6,23.5,20.1,36.1c25.9,23.2,36.6,58.6,36.7,59C305,228.7,304.9,229.1,304.5,229.3z"/>
		</g>
		<g>
			<path class="st7" d="M268.2,169.5c-0.3,0.2-0.8,0.2-1,0c-0.3-0.3-0.2-0.8,0.1-1.1c5.1-5.1,8.5-14.8,5.1-21
				c-0.4-0.7-0.9-1.5-1.3-2.3c-2.3-3.8-5.1-8.5-3.6-13c0.7-2.2,2.4-4.2,5-6c0.4-0.3,0.9-0.2,1.1,0.1c0.2,0.4,0,0.8-0.4,1.1
				c-2.2,1.5-3.6,3.1-4.1,4.9c-1.2,3.9,1.4,8.2,3.5,11.8c0.5,0.8,1,1.6,1.4,2.3C277.7,153.4,273.9,163.9,268.2,169.5L268.2,169.5z"
				/>
		</g>
		<g>
			<path class="st7" d="M264.2,172.7c-2.7,1.9-5.3,2.8-7.9,2.6c-3.9-0.2-7.5-3-10.4-8c-0.3-0.5-0.6-1.1-0.9-1.7
				c-1.9-3.5-4.7-8.7-8.1-9.2c-1.1-0.2-2.2,0.2-3.4,1.1c-0.3,0.2-0.7,0.2-0.9-0.1s-0.1-0.8,0.3-1l0,0c1.4-1.1,2.9-1.6,4.4-1.4
				c4,0.5,7,6.1,9,9.8c0.3,0.6,0.6,1.2,0.9,1.7c2.7,4.6,5.9,7.2,9.4,7.4c3,0.2,6.3-1.4,9.7-4.8c0.3-0.3,0.8-0.4,1.1-0.1
				c0.3,0.3,0.2,0.8-0.1,1.1C266.3,171.1,265.3,172,264.2,172.7z"/>
		</g>
		<g>
			<path class="st7" d="M302.8,212.5c-1,0.6-2.1,1-3.3,1.2c-0.5,0.1-1-0.2-1.1-0.7s0.2-1,0.8-1c6.1-1.1,10.2-10.9,10.7-16.1
				c0.2-2.2-0.5-4.8-1.3-7.6c-1.4-5-2.8-10,0.7-13.7c0.4-0.4,1-0.5,1.4-0.2s0.4,0.9,0,1.3c-2.8,2.9-1.5,7.5-0.2,12
				c0.8,3,1.6,5.8,1.4,8.3C311.4,200.6,308.3,209.1,302.8,212.5z"/>
		</g>
		<g>
			<path class="st7" d="M295.5,216.4c-1,0.6-2.1,1-3.4,1.3c-6.8,1.5-15.5-2.4-19.6-5.3c-2.1-1.5-4-4.4-6-7.4
				c-3.1-4.7-6.2-9.4-10.1-8.8c-0.4,0.1-0.8-0.2-0.8-0.7c0-0.4,0.3-0.8,0.7-0.9c4.8-0.8,8.4,4.6,11.5,9.4c1.9,2.9,3.7,5.6,5.6,6.9
				c3.7,2.6,12,6.3,18.2,5c2.5-0.5,4.3-1.9,5.5-3.9c0.3-0.4,0.8-0.6,1.3-0.4c0.5,0.2,0.6,0.8,0.4,1.2
				C298,214.4,296.9,215.6,295.5,216.4z"/>
		</g>
	</g>
	<g>
		<path class="st3" d="M108.8,214c-15.3-5.6-30.3-7-33.7-25.4c-2.7-14.6,11.4-25.4,1.1-36.9c-6.2-6.9-16.8-12.2-17.6-22.3
			c-0.8-10.5,13.2-14.7,12.5-24.7c-0.5-8.3-11.5-10.8-6.8-20.7c4.2-8.8,12.7-9.7,18.8-6.7c8.2,4,7.5,12,12.3,18.5
			c3.2,4.3,9.2,1.6,15,1.9c5.7,0.3,12.8,2,17.1,5.3c14,10.7-1.3,25.5-0.9,39.8c0.4,13.8,20.6,9,28.5,20.7c9.3,13.7-2.8,32.4-15.6,40
			C131,208.5,119.1,217.7,108.8,214z"/>
		<g>
			<path class="st7" d="M124.6,213.1c-0.1,0-0.2,0.1-0.3,0.1c-0.5,0-1-0.4-1.1-0.9c0-0.4-4.3-36.5-25.4-63.5
				c-11.9-15.2-12.9-28.9-13.8-39.6c-0.5-6.3-0.9-11.6-3.4-14.9c-0.2-0.3-0.1-0.7,0.2-1c0.3-0.3,0.8-0.3,1,0c2.7,3.5,3.2,9,3.7,15.5
				c0.8,10.6,1.9,24.1,13.6,39c21.5,27.3,26,64,26,64.4C125.3,212.6,125,213,124.6,213.1z"/>
		</g>
		<g>
			<path class="st7" d="M99.1,148c-0.4,0.2-0.8,0.1-1-0.2s-0.1-0.8,0.3-1.1c5.9-4.1,10.9-13.2,8.6-19.8c-0.3-0.8-0.6-1.6-0.9-2.5
				c-1.6-4.1-3.5-9.2-1.3-13.4c1.1-2.1,3.1-3.8,5.9-5c0.4-0.2,0.9-0.1,1,0.3s-0.1,0.8-0.6,1c-2.4,1.1-4,2.4-4.9,4.1
				c-1.9,3.6,0,8.4,1.5,12.2c0.3,0.9,0.7,1.8,0.9,2.5c2.6,7.6-2.9,17.3-9.4,21.7C99.1,148,99.1,148,99.1,148z"/>
		</g>
		<g>
			<path class="st7" d="M94.6,150.5c-3,1.4-5.7,1.8-8.2,1.3c-3.8-0.9-6.9-4.3-8.8-9.7c-0.2-0.5-0.4-1.1-0.6-1.8
				c-1.3-3.8-3.1-9.4-6.4-10.5c-1.1-0.3-2.2-0.2-3.5,0.5c-0.4,0.2-0.7,0.1-0.9-0.3c-0.1-0.3,0.1-0.8,0.4-1l0,0
				c1.6-0.9,3.1-1.1,4.6-0.7c3.8,1.2,5.8,7.2,7.2,11.2c0.2,0.7,0.4,1.3,0.6,1.8c1.8,5,4.6,8.1,8,8.9c3,0.7,6.5-0.3,10.4-3.1
				c0.4-0.3,0.9-0.2,1.1,0.1s0.1,0.8-0.3,1.1C97,149.2,95.8,150,94.6,150.5z"/>
		</g>
		<g>
			<path class="st7" d="M125.8,196.2c-1.1,0.4-2.3,0.7-3.4,0.7c-0.5,0-0.9-0.4-1-0.9c0-0.5,0.4-0.9,0.9-0.9c6.2,0,11.9-9,13.3-14
				c0.6-2.1,0.3-4.8,0-7.7c-0.5-5.1-1-10.4,3.1-13.4c0.4-0.4,1.1-0.3,1.4,0.1c0.3,0.4,0.3,0.9-0.2,1.3c-3.2,2.4-2.8,7.2-2.3,11.8
				c0.3,3.1,0.6,6-0.1,8.4C136.3,186,131.8,193.9,125.8,196.2z"/>
		</g>
		<g>
			<path class="st7" d="M117.9,198.9c-1.1,0.4-2.3,0.7-3.5,0.7c-7,0.3-14.9-5-18.4-8.6c-1.8-1.9-3.2-5-4.6-8.3
				c-2.2-5.1-4.5-10.3-8.4-10.4c-0.4,0-0.7-0.4-0.7-0.8c0-0.4,0.4-0.8,0.8-0.8c4.9,0.1,7.4,6,9.8,11.3c1.4,3.1,2.7,6.2,4.3,7.8
				c3.2,3.2,10.7,8.3,17.1,8c2.5-0.1,4.6-1.1,6.1-2.9c0.3-0.4,0.9-0.4,1.3-0.1c0.4,0.3,0.5,0.9,0.2,1.3
				C120.8,197.4,119.5,198.3,117.9,198.9z"/>
		</g>
	</g>
	<g>
		<path class="st9" d="M669.9,237.9c-12.4-4.5-24.5-5.5-27.3-20.4c-2.2-11.7,9.1-20.6,0.8-29.8c-5-5.5-13.6-9.8-14.3-18
			c-0.7-8.5,10.6-11.9,10-20c-0.5-6.7-9.3-8.7-5.6-16.7c3.3-7.1,10.2-7.9,15.2-5.5c6.6,3.2,6.1,9.6,10,14.9
			c2.6,3.5,7.5,1.2,12.1,1.5c4.6,0.2,10.3,1.6,13.8,4.2c11.3,8.6-0.9,20.6-0.6,32.1c0.4,11.2,16.6,7.2,23.1,16.6
			c7.6,11-2.1,26.2-12.4,32.4C687.8,233.4,678.3,240.9,669.9,237.9z"/>
		<g>
			<path class="st7" d="M682.7,237.2c-0.1,0-0.1,0-0.2,0c-0.4,0-0.8-0.3-0.9-0.7c0-0.3-3.7-29.5-20.8-51.2
				c-9.6-12.2-10.6-23.3-11.3-32c-0.4-5.1-0.8-9.4-2.8-12c-0.2-0.2-0.1-0.6,0.2-0.8s0.6-0.2,0.8,0c2.2,2.8,2.6,7.3,3,12.5
				c0.7,8.6,1.6,19.5,11.2,31.5c17.5,22,21.2,51.6,21.3,51.9C683.2,236.7,683,237,682.7,237.2z"/>
		</g>
		<g>
			<path class="st7" d="M661.8,184.7c-0.3,0.2-0.6,0.1-0.8-0.2s-0.1-0.7,0.2-0.9c4.8-3.3,8.7-10.7,6.9-16c-0.2-0.6-0.5-1.3-0.8-2
				c-1.3-3.3-2.9-7.4-1.1-10.8c0.9-1.7,2.5-3,4.8-4.1c0.4-0.2,0.7,0,0.8,0.3s-0.1,0.7-0.5,0.8c-2,0.9-3.3,2-4,3.3
				c-1.5,2.9,0,6.8,1.2,9.9c0.3,0.7,0.6,1.4,0.8,2.1C671.5,173.1,667.1,181,661.8,184.7C661.8,184.6,661.8,184.7,661.8,184.7z"/>
		</g>
		<g>
			<path class="st7" d="M658.2,186.7c-2.4,1.2-4.6,1.5-6.6,1c-3.1-0.7-5.6-3.4-7.2-7.8c-0.2-0.4-0.3-0.9-0.5-1.5
				c-1-3.1-2.6-7.6-5.3-8.4c-0.9-0.3-1.8-0.1-2.8,0.4c-0.3,0.2-0.6,0.1-0.7-0.2c-0.1-0.3,0.1-0.6,0.3-0.8l0,0
				c1.3-0.7,2.5-0.9,3.7-0.5c3.1,1,4.8,5.8,5.9,9c0.2,0.5,0.4,1,0.5,1.4c1.5,4,3.7,6.5,6.5,7.2c2.4,0.5,5.2-0.3,8.4-2.6
				c0.3-0.2,0.7-0.2,0.9,0.1s0.1,0.7-0.2,0.9C660.1,185.7,659.1,186.2,658.2,186.7z"/>
		</g>
		<g>
			<path class="st7" d="M683.6,223.5c-0.9,0.4-1.8,0.5-2.8,0.5c-0.4,0-0.8-0.3-0.8-0.7s0.3-0.7,0.8-0.7c5,0,9.6-7.3,10.7-11.4
				c0.5-1.7,0.2-3.9,0-6.3c-0.4-4.1-0.9-8.4,2.4-10.8c0.3-0.3,0.9-0.2,1.1,0.1c0.3,0.3,0.2,0.8-0.1,1c-2.6,1.9-2.2,5.8-1.8,9.6
				c0.3,2.5,0.5,4.8,0,6.8C692,215.2,688.4,221.6,683.6,223.5z"/>
		</g>
		<g>
			<path class="st7" d="M677.2,225.7c-0.9,0.3-1.8,0.5-2.9,0.6c-5.6,0.3-12-4-14.9-6.9c-1.5-1.5-2.6-4-3.8-6.7
				c-1.8-4.1-3.7-8.3-6.9-8.4c-0.3,0-0.6-0.3-0.6-0.7s0.3-0.6,0.7-0.6c3.9,0.1,6,4.8,7.9,9.1c1.1,2.5,2.2,5,3.5,6.3
				c2.6,2.6,8.7,6.7,13.8,6.4c2-0.1,3.7-0.9,4.9-2.4c0.3-0.3,0.7-0.4,1.1-0.1c0.3,0.3,0.4,0.7,0.1,1
				C679.5,224.5,678.5,225.2,677.2,225.7z"/>
		</g>
	</g>
	<g>
		<path class="st9" d="M696.5,135.3c4.9-11.3,12.1-20.3,3.4-31.6c-7-9.1-21.1-6.8-22.4-18.8c-0.8-7.3,1.9-16.4-3.9-22.5
			c-6-6.4-16.5-0.5-22.5-6.6c-5-5.1-0.4-13.1-9.5-16.1c-8.2-2.7-13.7,1.9-15.3,7.3c-2.1,7.2,3.6,11.5,5.1,18.1c1,4.4-4.2,6.4-7.3,10
			s-6,8.7-6.2,13.1c-0.9,14.1,17.3,13.1,26.2,21c8.4,7.4-5.7,16.6-2.8,27.2c3.4,12.2,21.3,14.5,32.7,10.9
			C681.5,145,693.2,142.9,696.5,135.3z"/>
		<g>
			<path class="st7" d="M687.6,143.7c0.1,0,0.1-0.1,0.2-0.1c0.3-0.3,0.3-0.7,0.1-1c-0.2-0.2-19.2-20.6-24-46.7
				C661,80.8,653,72.6,646.6,66.1c-3.7-3.8-7-7.1-7.7-10.5c-0.1-0.3-0.4-0.5-0.8-0.4c-0.4,0-0.6,0.3-0.6,0.6c0.7,3.6,4.1,7,7.9,11
				c6.3,6.4,14.2,14.5,16.9,29.4c4.8,26.6,24.2,47.3,24.4,47.5C687,143.8,687.3,143.9,687.6,143.7z"/>
		</g>
		<g>
			<path class="st7" d="M662.6,96.1c0.3-0.1,0.5-0.4,0.4-0.7c-0.1-0.3-0.5-0.5-0.8-0.4c-5.8,1.2-14.3-0.7-17.2-5.6
				c-0.3-0.6-0.7-1.2-1.1-1.9c-1.7-3.2-3.9-7.1-7.9-8.2c-2-0.5-4.2-0.3-6.6,0.7c-0.4,0.2-0.5,0.5-0.4,0.8c0.2,0.3,0.6,0.4,1,0.2
				c2.1-0.8,3.9-1,5.5-0.6c3.4,0.9,5.4,4.6,7,7.6c0.4,0.7,0.7,1.4,1.1,1.9C646.9,95.5,656.1,97.5,662.6,96.1
				C662.6,96.1,662.6,96.1,662.6,96.1z"/>
		</g>
		<g>
			<path class="st7" d="M666.6,94.9c2.5-1,4.3-2.3,5.3-4.1c1.6-2.7,1.2-6.3-1-10.3c-0.2-0.4-0.5-0.9-0.8-1.4c-1.6-2.8-4.1-7-2.9-9.5
				c0.4-0.8,1.1-1.4,2.3-1.8c0.3-0.1,0.5-0.4,0.3-0.6c-0.1-0.3-0.5-0.4-0.8-0.3l0,0c-1.4,0.5-2.4,1.2-3,2.3
				c-1.4,2.9,1.2,7.4,2.9,10.3c0.3,0.5,0.5,0.9,0.8,1.3c2,3.8,2.4,7,1,9.4c-1.2,2.1-3.8,3.6-7.7,4.4c-0.4,0.1-0.6,0.4-0.5,0.7
				c0.1,0.3,0.5,0.5,0.8,0.4C664.5,95.5,665.6,95.2,666.6,94.9z"/>
		</g>
		<g>
			<path class="st7" d="M677.1,136.1c0.8-0.4,1.6-0.9,2.2-1.6c0.3-0.3,0.3-0.7,0-1c-0.3-0.2-0.7-0.2-1,0.1
				c-3.3,3.5-11.8,2.3-15.5,0.6c-1.6-0.7-3.1-2.3-4.7-3.9c-2.9-2.9-5.8-5.9-9.9-5.1c-0.5,0.1-0.8,0.5-0.7,0.8c0,0.4,0.4,0.6,0.9,0.5
				c3.3-0.6,5.9,2.1,8.5,4.7c1.7,1.7,3.3,3.4,5.1,4.2C665.4,137,672.5,138.4,677.1,136.1z"/>
		</g>
		<g>
			<path class="st7" d="M682.9,133c0.8-0.4,1.6-0.9,2.3-1.6c3.9-3.8,5-10.9,4.8-14.7c-0.1-2-1.2-4.4-2.4-6.8
				c-1.8-3.9-3.7-7.9-1.6-10.2c0.2-0.2,0.2-0.6-0.1-0.8c-0.3-0.2-0.7-0.2-0.9,0.1c-2.6,2.8-0.5,7.3,1.4,11.4
				c1.1,2.4,2.2,4.7,2.2,6.4c0.1,3.4-0.9,10.2-4.5,13.7c-1.4,1.4-3.1,2-5,2c-0.4,0-0.8,0.3-0.8,0.7s0.3,0.7,0.7,0.7
				C680.5,133.9,681.7,133.6,682.9,133z"/>
		</g>
	</g>
	<g>
		<path class="st8" d="M724.9,235.9c-8.5-9.6-33.6-22.6-27-37.6c5.6-12.7,32.5-11.1,29.3-26.5c-1.9-9.1-4.4-16.8,1.5-27.1
			c6.4-11.2,25.4-5.1,32-15.5c5.7-9-1.7-22.8,10-28.8c10.4-5.3,23,5.1,24.9,14.3c2.3,11.5-9,16.9-10.5,26.9
			c-0.9,6.4,4.9,8.6,8.2,13.1c3.2,4.3,6,10.4,6.3,15.7c0.6,15.9-16.8,18-25.1,28.1c-7.7,9.4,6.5,15.4,4.3,25.6
			c-2.3,11-17.9,17-28.9,16.8C742.2,240.7,730.1,241.9,724.9,235.9z"/>
		<g>
			<path class="st7" d="M736,241.2c-0.1,0-0.1,0-0.2-0.1c-0.4-0.2-0.5-0.6-0.3-0.9c0.2-0.2,15.7-23.6,16.6-53
				c0.6-19.6,8.7-32.2,15.4-42.4c4-6.2,7.6-11.6,8.1-17.1c0-0.4,0.5-0.8,0.9-0.8c0.5,0,0.8,0.4,0.8,0.8c-0.6,5.8-4.2,11.4-8.4,17.8
				c-6.6,10.1-14.6,22.5-15.2,41.7c-1,29.8-16.7,53.4-16.9,53.7C736.6,241.1,736.3,241.2,736,241.2z"/>
		</g>
		<g>
			<path class="st7" d="M753.5,187.3c-0.4-0.1-0.6-0.4-0.6-0.7c0-0.4,0.4-0.7,0.9-0.7c6.6,0.4,15.4-3.5,18.1-9.9
				c0.3-0.8,0.6-1.6,1-2.5c1.6-4.3,3.6-9.7,7.9-11.7c2.1-1,4.5-1,7.1,0c0.4,0.1,0.6,0.6,0.4,1c-0.2,0.4-0.6,0.6-1.1,0.4
				c-2.3-0.8-4.1-0.8-5.8,0c-3.6,1.7-5.5,6.7-7,10.7c-0.3,0.9-0.7,1.8-1,2.6c-3,7.3-12.6,11.3-19.7,10.9
				C753.5,187.3,753.5,187.3,753.5,187.3z"/>
		</g>
		<g>
			<path class="st7" d="M748.8,186.5c-3.1-0.7-5.4-2-6.9-4c-2.4-3.1-2.8-7.9-1.1-13.7c0.2-0.6,0.4-1.3,0.6-2
				c1.4-4.2,3.5-10.6,1.4-14.1c-0.7-1.2-1.8-1.9-3.3-2.3c-0.4-0.1-0.7-0.5-0.6-0.9c0.1-0.4,0.6-0.7,1-0.6l0,0c2,0.5,3.4,1.5,4.3,3.1
				c2.4,4.1,0.2,10.9-1.3,15.3c-0.2,0.7-0.5,1.4-0.6,1.9c-1.6,5.4-1.3,9.7,0.8,12.5c1.8,2.4,5.1,3.7,9.6,3.9c0.5,0,0.8,0.4,0.7,0.8
				c0,0.4-0.4,0.7-0.9,0.7C751.2,187,749.9,186.8,748.8,186.5z"/>
		</g>
		<g>
			<path class="st7" d="M745,231.9c-0.9-0.2-1.8-0.5-2.5-0.9c-0.3-0.2-0.4-0.6-0.2-0.9c0.2-0.3,0.7-0.4,1.1-0.2
				c3.9,2.4,12-0.7,15.4-3.1c1.4-1,2.7-2.7,4.1-4.6c2.4-3.3,5-6.8,8.9-6.9c0.4,0,0.8,0.3,0.7,0.6c0,0.4-0.4,0.7-0.8,0.7
				c-3.1,0.1-5.4,3.2-7.6,6.2c-1.4,2-2.8,3.8-4.4,4.9C756.6,229.9,749.9,232.8,745,231.9z"/>
		</g>
		<g>
			<path class="st7" d="M738.6,230.4c-0.9-0.2-1.8-0.5-2.7-1c-5-2.6-7.9-9.4-8.7-13.4c-0.4-2.1,0.2-4.9,0.9-7.9
				c1.1-4.8,2.2-9.7-0.9-12c-0.3-0.2-0.4-0.7-0.1-1c0.3-0.3,0.8-0.3,1.1-0.1c3.8,2.8,2.5,8.4,1.4,13.3c-0.7,2.8-1.3,5.5-0.9,7.4
				c0.7,3.6,3.5,10.1,8,12.5c1.8,0.9,3.6,1.2,5.5,0.7c0.4-0.1,0.8,0.1,0.9,0.4c0.1,0.3-0.1,0.7-0.5,0.8
				C741.2,230.6,739.9,230.7,738.6,230.4z"/>
		</g>
	</g>
	<g>
		<path class="st8" d="M72.8,237c-10.8,7.3-19.6,12.7-31.2,1.8c-5.9-5.5-8-11.7-6.8-20.3c0.9-6.9,1.9-10.1-2.4-15.8
			c-6.7-9-17-12.5-20.8-24c-4.2-12.5,8.2-20.9,4.8-32.9c-3-10.5-9.4-20.3-1.8-30.5c6.5-8.7,18.4-4.8,22.2,4.3c2.2,5.2,2,11.1,4.9,16
			c2.8,4.7,7.3,5.7,12,7.3c10.7,3.5,20,9.8,18.8,23.3c-0.7,8.1-0.9,14.8,7,18.3c8.5,3.8,13.3,6.3,12.7,18.2
			c-0.5,9-4.8,13.8-9.6,20.3c-4.4,6.1-8.9,15.6-16.2,18.4L72.8,237z"/>
		<g>
			<path class="st7" d="M74.1,232.6c-1.9-0.2-3.7-0.7-5.2-1.6c-6.5-3.7-8.2-13.2-9.8-21.7c-0.8-4.3-1.5-8.3-2.8-11
				c-3.3-7.2-7.4-12.1-15-18c-8.8-6.8-10.6-11.9-11.2-23c-0.5-9.3-1.5-18.9-5.3-24.5c-0.3-0.4-0.1-1.1,0.3-1.4
				c0.5-0.4,1.1-0.3,1.4,0.1c4,6,5,15.9,5.5,25.5c0.5,10.8,2.1,15.4,10.5,21.8c6.5,5,11.7,10.1,15.6,18.7c1.3,2.9,2.1,7,2.9,11.4
				c1.5,8.2,3.2,17.3,9,20.7c2.3,1.3,5,1.7,8.5,1.1c0.6-0.1,1.1,0.2,1.2,0.7s-0.3,0.9-0.9,1C77.2,232.7,75.6,232.8,74.1,232.6z"/>
		</g>
		<g>
			<path class="st7" d="M49.7,187.3c-0.2,0-0.4-0.1-0.6-0.2c-0.4-0.3-0.4-0.9,0-1.3c3.4-3.5,2.4-9.2,1.2-15.3
				c-1-5.4-2.1-11,0.1-15.7c0.2-0.5,0.9-0.8,1.4-0.7c0.5,0.2,0.8,0.7,0.5,1.2c-1.9,4.1-0.9,9.5,0.1,14.6c1.2,6.3,2.4,12.8-1.8,17
				C50.3,187.2,50,187.3,49.7,187.3z"/>
		</g>
		<g>
			<path class="st7" d="M58,200c-0.1,0-0.2,0-0.4-0.1c-1.4-0.6-2.4-1.2-3.4-1.8c-1.6-1-3-1.9-5.4-2.1c-1.3-0.1-2.5-0.1-3.6-0.1
				c-2.5,0.1-5,0.1-7.7-1.3c-3.9-2.1-7.9-5.8-11.8-11c-0.5-0.7-1.2-1.9-1.9-3.1c-1-1.7-2.9-5-3.7-5.2c-0.5-0.1-0.8-0.6-0.6-1.1
				c0.1-0.5,0.6-0.8,1.1-0.7c1.4,0.3,2.8,2.4,4.9,6c0.7,1.2,1.3,2.3,1.8,2.9c2.6,3.5,6.6,8.1,11.3,10.6c2.3,1.2,4.4,1.2,6.8,1.1
				c1.2,0,2.5-0.1,3.9,0.1c2.9,0.3,4.6,1.4,6.3,2.4c0.9,0.6,1.9,1.2,3.1,1.7c0.5,0.2,0.7,0.7,0.4,1.2C58.9,199.8,58.5,200,58,200z"
				/>
		</g>
	</g>
	<g>
		<path class="st10" d="M104.9,106.4c0.8,1.2,1.6,3.5,2.9,4.3c1.7,1,4.2,0.9,6,0.8c-1.1-2.4-1.4-7.8,1-9.9c-1.6-1-1.6,2.2-2.8,0.9
			c-0.4-0.5-3.7-5.6-4.1-6.2c-0.9,1.1-0.5,4.8-1.4,7.8C106,105.7,104.9,106.4,104.9,106.4C104.8,106.3,104.9,106.4,104.9,106.4z"/>
		<path class="st11" d="M112.6,88.6c0,0,8.4,0.9,8.8,3.2c0.4,2.3-1,5.1-1.1,6.6c0,1.5,1.2,3.6,1.2,4.2s-1.9,1-2.2,1.3
			c-0.4,0.3-2.9,4.2-4.6,4.6s-7.9-5.1-8.2-9.1c-0.1-0.8-1.1-2.3-0.9-3.2C106.4,92.5,110.6,88.8,112.6,88.6z"/>
		<path class="st2" d="M110.9,85.9c-3.5-0.5-1.4,1.4-5.2,2.9c-2.8,1.1-2.2,4.1-1.4,5.4c0.3,0.5,0.2,1.1-0.3,2c-0.3,1.9,3,6.1,4,4.9
			c0.2-0.3-0.7-2.3-0.6-3.1c-0.2-1.4,1-2.8,2.2-1.6c0.4,0.4,0.8,1,0.8,1.5c0,1.6,0.5,2.1,1.2,1.5c1.1-0.8-0.2-4.1,0.7-4.8
			c1.9-1.6,2.4-3.5,2.4-3.5C116.1,89.4,114.4,86.4,110.9,85.9z"/>
		<g>
			<rect x="60.4" y="146.7" class="st7" width="154.4" height="98.7"/>
			<g>
				<rect x="69.3" y="165.1" class="st2" width="7.4" height="61.9"/>
				<rect x="79.4" y="165.1" class="st2" width="3.6" height="61.9"/>
				<rect x="90" y="165.1" class="st2" width="7.5" height="61.9"/>
				<rect x="101.6" y="165.1" class="st2" width="2.8" height="61.9"/>
				<rect x="113.6" y="165.1" class="st2" width="2.4" height="61.9"/>
				<rect x="85.3" y="165.1" class="st2" width="2.4" height="61.9"/>
				<rect x="107.4" y="165.1" class="st2" width="3.6" height="61.9"/>
				<rect x="120.6" y="165.1" class="st2" width="5.7" height="61.9"/>
				<rect x="129" y="165.1" class="st2" width="3.6" height="61.9"/>
				<rect x="135.9" y="165.1" class="st2" width="1.8" height="61.9"/>
				<rect x="150.2" y="165.1" class="st2" width="1.3" height="61.9"/>
				<rect x="140.9" y="165.1" class="st2" width="3.1" height="61.9"/>
				<rect x="158.6" y="165.1" class="st2" width="1.5" height="61.9"/>
				<rect x="176.5" y="165.1" class="st2" width="2.1" height="61.9"/>
				<rect x="197" y="165.1" class="st2" width="2.1" height="61.9"/>
				<rect x="161.6" y="165.1" class="st2" width="1.2" height="61.9"/>
				<rect x="173.7" y="165.1" class="st2" width="0.9" height="61.9"/>
				<rect x="193.6" y="165.1" class="st2" width="1.4" height="61.9"/>
				<rect x="145.2" y="165.1" class="st2" width="3.1" height="61.9"/>
				<rect x="153.8" y="165.1" class="st2" width="3.3" height="61.9"/>
				<rect x="170.4" y="165.1" class="st2" width="2.6" height="61.9"/>
				<rect x="164.8" y="165.1" class="st2" width="4.1" height="61.9"/>
				<rect x="180.3" y="165.1" class="st2" width="5.7" height="61.9"/>
				<rect x="188.6" y="165.1" class="st2" width="3.4" height="61.9"/>
				<rect x="201.9" y="165.1" class="st2" width="4.5" height="61.9"/>
			</g>
		</g>
		<g>
			<g>
				<path class="st5" d="M121.3,115.9c0,0,0.6,0.5,1.2,3.2c2.1,8.9,4.1,21.1,5,23.7c1.1,3.1,8.9,19.2,8.9,19.2l-6.3,4.4
					c0,0-9.2-17.7-10.4-20.6c-1.2-3-7-18.1-7-18.1L121.3,115.9z"/>
				<path class="st12" d="M123.9,145.8c-3.1-5.6-5.5-15.2-6.6-21.6l-4.7,3.4c0,0,5.9,15.1,7,18.1c1.2,3,10.4,20.6,10.4,20.6l1.6-1.1
					C129,158.2,127.5,152.4,123.9,145.8z"/>
			</g>
		</g>
		<path class="st5" d="M91.7,125.5c-2.1,5.1-5.7,19-6.9,21.3h30.4c1.7-6.3,3.7-14.1,4.5-17.7c1.7-8.2,1.6-13.3,1.6-13.3
			s-4.5-3.9-8-6.3c0,0-3.8,3.6-8.2-3.3c0,0-10,2.7-12.2,3.5C91.9,110,94.1,119.8,91.7,125.5z"/>
		<path class="st12" d="M95.8,117.5c-1.5,2.7-3.4,5.7-4.7,8.2c-2.1,5.2-4.9,18.8-6.1,21h13.1c-0.1-1-0.5-2.7-0.5-3.9
			c0-3.3,0.2-6.4,1.5-9.5c1.2-2.8-0.3-12-0.9-12.7C97.4,119.6,96.6,118.6,95.8,117.5z"/>
		<g>
			<path class="st0" d="M206.4,143.6c-20.6,9.9-15.8,8.2-19.1,9.1c-3.3,0.9-23.1,2.1-23.1,2.1l-2.2,8.5c0,0,24.1-1.3,27.4-2.1
				c3.3-0.8,17.1-6,17.1-6L206.4,143.6z"/>
			<path class="st1" d="M173.1,155.4c0.6,1,1.7,1.8,3.2,1.8c3.3-0.1,6.6-0.2,9.8-0.7c1.8-0.1,3.7-0.5,5.5-1.1c3.2-1,6.5-2.1,9.5-3.5
				c1.6-0.8,3.5-1.1,5.2-1.7v5c0,0-13.8,5.2-17.1,6s-27.4,2.1-27.4,2.1l2.2-8.4C167.1,155.2,170.1,155.4,173.1,155.4z"/>
			<path class="st2" d="M209.2,243.5c0,0,0.9,2.6,0.9,4.5c0,2-0.1,4.1-0.7,4.6c-1.2,1-16.5,1.1-17.8-0.3c-1.2-1.4-0.4-3.7,2.8-4.5
				c3.5-0.8,4-0.5,6.2-1.3s1.7-3.3,1.7-3.3L209.2,243.5z"/>
			<path class="st2" d="M242.8,240.6c0,0,1.7,2.1,2.4,3.9c0.7,1.8,1.3,3.9,0.9,4.5c-0.8,1.4-15,6.9-16.7,6.1c-1.7-0.9-1.7-3.3,1-5.2
				c2.9-2,3.5-1.9,5.3-3.4c1.7-1.6,0.4-3.7,0.4-3.7L242.8,240.6z"/>
			<path class="st2" d="M209.3,178.4l20.6,2.3c0,0-18.5,29.5-19.9,34.2s0.5,30.5,0.5,30.5h-9.3c0,0-2-30.4-1.5-32.7
				C200.2,210.4,209.3,178.4,209.3,178.4z"/>
			<path class="st2" d="M210.1,179.9h23.6c0,0,2.8,7.2,1.5,12.7s-2.1,17.2-2,19.3s11.6,29.6,11.6,29.6l-8.6,3.2
				c0,0-11.8-26.2-13-29.2C222.1,212.5,210.1,179.9,210.1,179.9z"/>
			<path class="st11" d="M211.1,131.2c1.9,0.1,3.9-0.1,5.7-0.5c0.7-0.1,1.3-0.4,1.9-0.7c0.2,2.4,0.9,7.9,2.8,10c0,0-0.3,2.8-5.2,3.5
				s-5.9-2.9-5.9-2.9S211.4,134.7,211.1,131.2z"/>
			<path class="st10" d="M221.5,140.1c0,0,0,0.1-0.1,0.2l0,0c0,0.1-0.1,0.2-0.1,0.3l0,0c-0.1,0.1-0.1,0.2-0.2,0.4c0,0,0,0,0,0.1
				c-0.2,0.3-0.4,0.6-0.8,0.9c0,0,0,0-0.1,0.1c-0.2,0.1-0.4,0.3-0.6,0.4c0,0-0.1,0-0.1,0.1c-0.2,0.1-0.5,0.3-0.8,0.4
				c-0.3-1.2-0.9-2.4-1.9-3.3c-1.7-1.6-3.7-2.4-5.9-2.5c0.2-1.9,0.3-4.2,0.2-5.9c1.9,0.1,3.9-0.1,5.7-0.5c0.7-0.1,1.3-0.4,1.9-0.7
				C218.9,132.4,219.6,137.9,221.5,140.1C221.6,140,221.6,140,221.5,140.1L221.5,140.1z"/>
			<path class="st11" d="M219.1,117.1c0,0-8.2-2-9.4,0s-0.8,5.2-1.3,6.6s-2.4,3-2.6,3.5c-0.2,0.6,1.4,1.6,1.7,2
				c0.2,0.4,1.3,5,2.7,5.9s8.9-2.1,10.6-5.7C222.4,125.8,221.3,118.2,219.1,117.1z"/>
			<path class="st0" d="M210.5,139.7c0,0,5.8,2.9,10.4-0.6c0,0,8.9,1.6,10,2c0.9,0.4-1.5,13-0.4,19.4c1,6.4,5.2,21.8,5.2,21.8
				s-10.9,8.4-29.6,3.1c0,0-0.6-21.6-0.4-27.6c0.3-8.8,0.4-14,0.4-14S208.1,141.6,210.5,139.7z"/>
			<path class="st1" d="M224.1,174.7c0.8-3.3,1.4-6.6,0.8-10.1c-0.6-3.7,2.1-8.7,2.6-12.5c0.5-4.1,1-6.8,3.6-9.1
				c-0.2,3.8-1.4,12.5-0.6,17.5c1,6.4,5.2,21.8,5.2,21.8s-6.9,5.3-19.2,4.8C221.3,184.2,222.8,180.3,224.1,174.7z"/>
			<path class="st2" d="M215.5,118.2c0,0-0.2,2,1,4.1c0.5,0.9-1.8,3.6-1,4.8c0.5,0.8,1.1,0.5,1.7-1c0.2-0.5,0.7-0.9,1.3-1.2
				c1.9-0.9,2.5,2,0.8,3c-1.2,0.7-0.3,3.8-0.3,3.8c1.4,1,5.7-0.5,5.1-3.7c-0.4-2-0.6-2.8,0.1-3.3c1.3-1,2.8-3.5,0.6-5.6
				c-3.1-2.8-0.4-3.8-3.9-4.5C217.4,113.9,214.7,116.2,215.5,118.2z"/>
			<path class="st2" d="M221.5,116.2c-0.2-0.7-1.6-1.6-2.3-2.1c-1.1-0.7-2.3-1.1-3.6-1.4s-2.6-0.3-3.9,0c-1.1,0.3-2,0.8-3.1,1
				c-1,0.2-2.1,0.2-2.8-0.4c-0.2,0.7-0.1,2.1,0,2.6c0.2,1,0.9,1.9,1.6,2.7c1.8,2.4,6.3,3.5,9.4,2.1c1.5-0.7,2.8-1.3,3.5-2.7
				C220.6,117.3,220.9,116.9,221.5,116.2z"/>
			<g>
				<g>
					<path class="st7" d="M91.2,193.5c-0.7-0.1-1.3-0.4-2-0.7c-0.3-0.1-0.6-0.3-0.8-0.4c-1.2-0.5-2.3-1-3.2-2.1
						c-1.7-1.9-2.1-3.9-1.2-6.8c0.8-2.6,2.7-4.7,5.4-6c1.2-0.6,2.3-0.7,3.5-0.9h0.4c1.6-0.2,2.9-1.3,4.2-2.4l0.2-0.2
						c0.5-0.4,1-0.9,1.5-1.4c0.3-0.3,0.7-0.7,1-1c4.8-4.3,11.7-3.5,16.7-2.1l-0.3,1c-4.7-1.4-11.2-2.1-15.7,1.9
						c-0.4,0.3-0.7,0.6-1,1c-0.5,0.5-1,0.9-1.5,1.4l-0.2,0.2c-1.3,1.1-2.8,2.3-4.7,2.6h-0.4c-1.2,0.1-2.1,0.3-3.2,0.8
						c-2.4,1.1-4.1,3-4.8,5.3c-0.8,2.6-0.5,4.2,1,5.9c0.8,0.9,1.7,1.3,2.8,1.8c0.3,0.1,0.6,0.3,0.9,0.4c1.9,0.9,3.8,0.9,5.8,0.8
						c1.2,0,2.4-0.1,3.6,0.1c2.7,0.3,5.1-0.4,7.6-2.4l0.2-0.1c3.2-2.5,5.8-4.5,9.9-5.7l0.6-0.2c3-0.8,5-1.4,6.7-4.1
						c1.7-2.6,2.2-5.8,1.2-7.8c-0.7-1.4-1.9-2.2-3.7-2.3l0.1-1c2.7,0.3,4,1.7,4.5,2.9c1.3,2.7,0.3,6.5-1.2,8.8
						c-1.9,3-4.3,3.6-7.3,4.5l-0.6,0.2c-3.9,1.1-6.4,3-9.6,5.5l-0.2,0.1c-2.7,2.1-5.4,2.9-8.4,2.6c-1.2-0.1-2.3-0.1-3.5,0
						C94.1,193.7,92.6,193.8,91.2,193.5z"/>
				</g>
				<g>
					<path class="st5" d="M210.9,165.4L137,150.1c-2.2-0.4-4.4-0.2-6.4,0.7l-13.3,5.8c-3.2,1.4-5.5,4.2-6.2,7.6l-0.9,4.6
						c-0.7,3.4,0.3,6.9,2.7,9.5l9.9,10.6c1.5,1.6,3.5,2.7,5.6,3.2l73.9,15.3c5.8,1.2,11.4-2.5,12.6-8.3l4.3-21
						C220.4,172.3,216.7,166.6,210.9,165.4z M131,176c-7.2,2.7-12.5-5.4-7.2-10.9c0.4-0.4,0.8-0.7,1.3-0.9
						c7.2-2.7,12.5,5.4,7.2,10.9C131.9,175.5,131.5,175.8,131,176z"/>
					<g>
						<path class="st7" d="M142.3,182.1l5.5-17.1l4.4,0.9c0.6,0.1,1.2,0.3,1.7,0.5s0.9,0.4,1.3,0.7c0.4,0.3,0.7,0.6,0.9,1
							s0.3,0.9,0.3,1.4c0,0.3,0,0.7-0.1,1.1c-0.1,0.3-0.1,0.5-0.2,0.8c-0.7,2.1-1.9,3-3.7,2.9c1.7,0.7,2.4,2,2,4.1
							c-0.1,0.2-0.1,0.5-0.2,0.8c-0.5,1.7-1.4,2.8-2.5,3.5s-2.5,0.8-4.2,0.5L142.3,182.1z M146.5,180.5l1,0.2
							c0.9,0.2,1.6,0.1,2.1-0.2s0.9-1,1.2-1.9c0.1-0.2,0.1-0.5,0.2-0.7c0.1-0.7,0.1-1.2-0.1-1.6c-0.2-0.5-0.8-0.9-1.7-1.1l-0.9-0.2
							L146.5,180.5z M149,172.7l0.9,0.2c0.9,0.2,1.6,0.1,2-0.2s0.8-0.9,1.1-1.8c0-0.1,0.1-0.3,0.1-0.4c0.1-0.6,0.1-1.1-0.2-1.4
							c-0.3-0.4-1-0.7-1.9-0.9l-0.5-0.1L149,172.7z"/>
						<path class="st7" d="M154.6,184.7l5.5-17.1l4.4,0.9c0.7,0.2,1.4,0.3,1.9,0.5s1,0.5,1.4,0.8s0.7,0.7,0.9,1.1
							c0.2,0.4,0.3,0.9,0.3,1.4c0,0.3,0,0.7-0.1,1.1c-0.1,0.3-0.1,0.5-0.2,0.8c-0.3,1.1-0.8,1.9-1.4,2.5c-0.6,0.6-1.3,1-2.2,1.2
							l-0.1,8.9l-3.5-0.7l0.3-8.2l-1.3-0.3l-2.5,7.7L154.6,184.7z M161.2,175.6l0.9,0.2c0.9,0.2,1.6,0.1,2-0.2
							c0.5-0.3,0.9-0.9,1.2-1.8c0.1-0.2,0.1-0.4,0.2-0.6c0.1-0.6,0.1-1,0-1.4c-0.2-0.5-0.7-0.8-1.5-0.9l-1.1-0.2L161.2,175.6z"/>
						<path class="st7" d="M166,187.1l8.9-16.4l3.8,0.8l-2,17.8l-3.2-0.7l0.6-3.9l-2.8-0.6l-1.9,3.7L166,187.1z M172.2,182l2.1,0.4
							l1.1-7.1L172.2,182z"/>
						<path class="st7" d="M178.4,189.6l5.5-17.1l2.4,0.5l1.1,9.8l2.9-9l2.9,0.6l-5.5,17.1l-2.3-0.5l-0.9-10.4l-3.1,9.6L178.4,189.6
							z"/>
						<path class="st7" d="M190.3,192.1l5.5-17.1l4.2,0.9c1.1,0.2,2,0.5,2.6,0.9c0.7,0.4,1.1,0.8,1.4,1.3c0.3,0.5,0.4,1.2,0.4,1.8
							c0,0.4-0.1,0.7-0.2,1.2c-0.1,0.4-0.2,0.8-0.3,1.3l-2,6.2c-0.4,1.3-0.9,2.3-1.5,3.1c-0.6,0.7-1.4,1.2-2.3,1.4
							c-1,0.2-2.1,0.2-3.5-0.1L190.3,192.1z M194.5,190.4l0.8,0.2c0.3,0.1,0.5,0.1,0.8,0.1c0.2,0,0.4,0,0.6-0.1
							c0.2,0,0.3-0.1,0.5-0.2c0.1-0.1,0.3-0.2,0.4-0.4c0.1-0.1,0.2-0.3,0.3-0.5s0.2-0.4,0.3-0.6c0.1-0.2,0.2-0.4,0.3-0.8l2.2-6.7
							c0.1-0.4,0.2-0.7,0.3-1c0-0.2,0.1-0.4,0.1-0.5c0-0.4-0.1-0.7-0.3-1c-0.2-0.2-0.7-0.4-1.3-0.6l-0.7-0.2L194.5,190.4z"/>
					</g>
				</g>
				<g>
					<path class="st7" d="M126.6,173.9c-0.3,0.2-0.6,0.3-0.9,0.4c0.2,1.9-0.4,4.1-1.6,6c-0.7,1-2,2.2-3.3,2.9
						c-0.9,0.5-1.8,0.7-2.4,0.9c0.2,0.3,0.4,0.6,0.6,0.8c0.6-0.2,1.4-0.4,2.2-0.9c1.5-0.8,3-2,3.8-3.2
						C126.1,179,127,176.3,126.6,173.9z"/>
				</g>
			</g>
			<path class="st11" d="M158.2,153.8c1.2-1.5,3.7-1.5,5.2-0.8c1.2,0.5,1.3,1.9,1.5,3.9c0.1,1.3,0.2,2.6-0.2,3
				c-1.6,1.2-1.6-3.3-1.9-4.4c0,0,0.6,4.7-0.2,5.1c-1.6,0.7-1.5-3.6-1.7-4.7c0.3,1,0.3,2.9,0.1,3.2c0,0.8-0.7,0.7-0.8,0.6
				c-0.8-0.5-0.8-4-0.8-4c0,0.6,0.5,3-0.5,2.5c-0.7-0.3-0.7-1.3-0.8-1.9C157.9,155.2,157.9,154.2,158.2,153.8z"/>
			<path class="st11" d="M226,174.5c-1.6-0.1-3.6,0.2-5.3,0.2c-0.8,0-1.5-0.1-2.3-0.2c-0.5,0-1.4-0.2-1.7,0.3
				c-0.3,0.6,0.7,0.8,1,0.9c0.5,0.1,1.7,0,1.8,0.8c0.1,1.1-1.8,1.3-2.6,1.7c-0.7,0.3-2.6,1-1.4,1.7c0.8,0.5,2.6-0.6,3.3-0.9
				c-0.9,0.3-1.8,0.6-2.6,1.1c-0.5,0.3-1.4,0.7-1.4,1.2c0,0.8,1.8,0.3,2.2,0.1c1-0.5,1.3-0.6,2-1.1c-0.7,0.4-3.5,1.6-2.6,2.5
				c0.5,0.6,2.7-1,3.5-1.4c-0.5,0.4-1.9,0.7-1.8,1.6c0.1,0.5,0.9,0.1,1.2-0.1c0.5-0.3,1-0.7,1.6-1c0.4-0.2,0.7-0.5,1.2-0.8
				c1-0.7,1.8-0.9,2.7-1.7c0.8-0.8,1.5-1.7,2.3-2.4C225.7,176.5,227.2,175.4,226,174.5z"/>
			<path class="st0" d="M223.7,174.1l2.3,5.3c0,0,23.7-7.7,22.6-13.9c-1-5.5-14.8-23.7-17.8-24.4c-4-0.9-5.7,8.7-3.3,11.1
				c4.9,4.9,11.9,11.8,11.3,12.9C238.2,166.2,223.7,174.1,223.7,174.1z"/>
		</g>
		<path class="st11" d="M98,173c0.2,0.6,1.5,1.7,0.9,2.5c-0.3,0.4-1.4-0.6-1.7-1c-0.3-0.5-2.6-5-2.9-6.3c-0.2-1-0.4-1.9-0.7-2.8
			c1-0.5,2-1.1,2.9-1.9c1.3,0.8,2.7,1.8,4,2.6c0.7,0.4,1.5,0.7,2.2,1.1c0.4,0.2,1.4,0.6,1.4,1.2c0,0.7-1,0.4-1.4,0.3
			c-0.6-0.2-1.5-0.8-2-0.2c-0.7,0.9,1,2.2,1.5,2.9s2.3,2.7,0.8,2.7c-0.3,0-2.2-2-2.5-2.3c0.1,0.1,1.3,1.5,1.3,1.6
			c0.3,0.5,1.2,1.6,0.8,2c-0.8,1-2.7-2-3-2.4l0.7,1.2c0.6,0.9,1,1.6,0.4,1.8C100,176.1,98.6,173.7,98,173z"/>
		<path class="st5" d="M98.4,163.7l-5.5,3.4c0,0-12-20.9-12.3-26.9c-0.2-4.9,0.8-10.9,5.6-21.6c3-6.8,6.3-9.6,7.6-9
			c1,0.4,6.4,2.8,3.7,11.2c-0.9,2.9-7.1,15.4-7.2,16.6C90.4,138.5,98.4,163.7,98.4,163.7z"/>
		<path class="st11" d="M127.5,166.3c1.2,1.5,3.7,1.5,5.2,0.8c1.2-0.5,1.3-1.9,1.5-3.9c0.1-1.3,0.2-2.6-0.2-3
			c-1.6-1.2-1.6,3.3-1.9,4.4c0,0,0.6-4.7-0.2-5.1c-1.6-0.7-1.5,3.6-1.7,4.7c0.3-1,0.3-2.9,0.1-3.2c0-0.8-0.7-0.7-0.8-0.6
			c-0.8,0.5-0.8,4-0.8,4c0-0.6,0.5-3-0.5-2.5c-0.7,0.3-0.7,1.3-0.8,1.9C127.1,164.9,127.2,165.9,127.5,166.3z"/>
		<path class="st2" d="M124.9,88.2c0,0,2.4,3.4-3.1,5.7c-5.5,2.3-13.3-3.7-13.3-3.7s0.2-3,4.6-4.2c3.3-0.9,6.3-0.8,8,1.1
			C123.9,90.2,124.9,88.2,124.9,88.2z"/>
	</g>
	<g>
		<g>
			<rect x="624.5" y="208.7" class="st2" width="5.8" height="38.6"/>
			<rect x="619.7" y="243.2" class="st3" width="15.4" height="5.7"/>
			<rect x="700.7" y="208.7" class="st2" width="5.8" height="38.6"/>
			<rect x="695.9" y="243.2" class="st3" width="15.4" height="5.7"/>
		</g>
		<g>
			<path class="st3" d="M745.6,212.2H585.3c-4.4,0-8-3.2-8-7.2V83.3c0-4,3.6-7.2,8-7.2h160.3c4.4,0,8,3.2,8,7.2V205
				C753.6,209,750.1,212.2,745.6,212.2z"/>
			<rect x="585.3" y="84.7" class="st7" width="160.3" height="119"/>
		</g>
		<g>
			
				<ellipse transform="matrix(0.7071 -0.7071 0.7071 0.7071 93.6915 513.993)" class="st2" cx="667.3" cy="143.9" rx="52.6" ry="52.6"/>
			<path class="st0" d="M659.7,91.8c28.8-4.1,55.4,15.8,59.6,44.5c4.2,28.8-15.8,55.4-44.5,59.6L659.7,91.8z"/>
			<path class="st5" d="M663.6,196.5c-0.1,0-0.2,0-0.3,0L667,144l43.9-29.4c6.3,9.4,9.7,20.9,8.8,33
				C717.8,176.7,692.6,198.5,663.6,196.5z"/>
			<path class="st8" d="M660.3,196.1c3.1,0.4,6.1,0.5,9.1,0.4l-2.1-52.6l-52.2-7C611.3,165.7,631.5,192.2,660.3,196.1z"/>
		</g>
		<path class="st5" d="M667.3,163.3l-49.9-33.5c-2.7,4-5,8.5-6.7,13.2c-4.7,13.1-4.6,26.8-0.5,39.1L667.3,163.3z"/>
		<path class="st0" d="M666.2,160.7l53.5-24.1c1.1,2.3,2,4.7,2.7,7.1c3.1,10.3,3.3,20.9,0.9,30.9L666.2,160.7z"/>
		<g>
			<path class="st11" d="M621.7,129.6c-0.6-0.6-3.6-0.7-5.6-0.4c-1.1,0.2-3.3,0-4.9-0.2c-0.2,0.9-0.4,1.8-0.7,2.7
				c0,0,2.6,0.6,2.8,0.6c0.9,0.1,1.8-0.3,2.6,0.4c0.4,0.3,0.7,0.8,1,1.2c0.4,0.5,1.1,2.2,1.8,2.2c1,0,0-1.6,0-2
				c-0.1-0.5,0.4-1.3,0.9-0.8c0.8,0.6,1.9,2.3,3,2.3c1.4-0.1-1.9-2.7-2.3-3.4c0.8,1,3.7,3.4,4.2,2.9c1-0.9-2.3-3-3.1-3.9
				c0.8,0.9,1.9,1.7,2.6,1.8C625.4,133,622.3,130.2,621.7,129.6z"/>
			<path class="st11" d="M610.6,182.4c-0.8,0.2-3.5-1.2-5-2.4c-0.9-0.7-2.9-1.6-4.4-2.3c0.3-0.9,0.5-1.8,0.7-2.7
				c0,0,2.5,0.8,2.8,0.9c0.8,0.4,1.4,1.1,2.5,1c0.5-0.1,1-0.3,1.4-0.5c0.6-0.2,2-1.4,2.6-1c0.9,0.5-0.8,1.4-1,1.7
				c-0.3,0.4-0.3,1.3,0.4,1.2c1-0.1,2.8-1.1,3.8-0.5c1.2,0.8-3,1.5-3.7,1.8c1.2-0.4,4.9-1.1,5.1-0.4c0.4,1.3-3.5,1.5-4.6,1.9
				c1.2-0.4,2.5-0.6,3.1-0.3C615.5,181.3,611.4,182.2,610.6,182.4z"/>
			<g>
				<path class="st0" d="M564.1,140.7c1.7,3.2,5.5,4.5,8.8,3.3c5.5-1.9,15.7-5.5,18.9-6.3c4.5-1.2,23.5-4.3,23.5-4.3l-0.5-5.2
					c0,0-22.3,0.4-25.9,1.4c-3.5,1-22.9,3.8-25.1,7.3C563.3,138,563.5,139.4,564.1,140.7z"/>
				<path class="st1" d="M564.1,140.7c1.7,3.2,5.5,4.5,8.8,3.3c5.5-1.9,15.7-5.5,18.9-6.3c4.5-1.2,23.5-4.3,23.5-4.3l-0.5-5.2
					c0,0-22.3,0.4-25.9,1.4c-3.5,1-22.9,3.8-25.1,7.3C563.3,138,563.5,139.4,564.1,140.7z"/>
			</g>
			<path class="st11" d="M568.7,123.5c0.1,0.1,0.2,0.2,0.3,0.3c1,1,2.1,2.1,3.3,2.9c0.7,0.5,1.9,0.8,2.5,1.3
				c0.3,0.2,0.5,0.4,0.8,0.6c-0.4,2.1-1.3,7.5-1.1,9.6c0,0-6.6-0.5-8.9-3.1C565.5,135.1,568.2,127.7,568.7,123.5z"/>
			<path class="st10" d="M575.2,130.7c0.1-0.8,0.3-1.5,0.3-2c-0.3-0.2-0.5-0.4-0.8-0.6c-0.6-0.5-1.8-0.8-2.5-1.3
				c-1.2-0.8-2.3-1.8-3.3-2.9c-0.1-0.1-0.2-0.2-0.3-0.3c-0.5,4.2-3.2,11.6-3.2,11.6c0.9,1,2.3,1.6,3.7,2.1
				C569.7,134.1,571.7,131.4,575.2,130.7z"/>
			<path class="st2" d="M572.3,241.1c0,0,0.2,6.6,1.2,7.5s14,1.3,15.2,0.1c1.1-1.2,0.5-3.2-2.3-4c-3-0.8-4.5,0-6.3-0.8
				c-1.9-0.8-1.4-3.8-1.4-3.8L572.3,241.1z"/>
			<path class="st2" d="M540,240.9c0,0-1,6.4,0,7.3c1,0.9,14.2,2,15.4,0.8s0.6-3.2-2.2-4.1c-3-1-4.4-0.3-6.3-1
				c-1.5-0.5-0.5-3.6-0.5-3.6L540,240.9z"/>
			<g>
				<path class="st5" d="M549.7,204c-0.3-18.2,1.8-30.7,2.7-36.5c2.2,0.1,4.3,0.3,6.5,1.3c4,1.8,8,3.6,12,5.3
					c-3.2,6.7-10.3,28.7-11.2,33.3c-1.1,5.7-13,34.9-13,34.9l-7.2-0.9C539.6,236.7,549.7,205.6,549.7,204z"/>
				<path class="st12" d="M564.4,171.4c2.1,1,4.3,1.8,6.4,2.6c-3.2,6.6-9,24.9-10.3,29.7c-1-3.1-5.9-10.5-7.8-18.6
					c-1.3-5.4-1.5-11-0.6-16.5c0,0,0,0,0-0.1C556.2,168.8,560.2,169.3,564.4,171.4z"/>
				<path class="st5" d="M559.1,170.4c2.8,1,7.9,2.3,11.8,3.7c2.7,6.8,10.6,22.9,11,30.2c0.5,8-2.3,38.5-2.3,38.5h-8.2
					c0,0-0.8-34.3-1.9-36.5c-3.8-7.3-8-13-10.4-17.5c-4-7.6-5.4-12.5-6.1-16c-0.3-1.6-1.7-6.8,1-8.5
					C556.1,164.8,556.7,169.6,559.1,170.4z"/>
			</g>
			<g>
				<path class="st0" d="M573.8,175.7c0,0-6.9,2.8-13.7,2.2c-5-0.5-7.7-0.6-10.6-2.2c0,0,3.2-24.7,6.8-32.5s9.6-9.3,9.6-9.3
					s4.7,2.8,8.6,2.7c0,0-0.1,15.2-0.4,21.3C573.8,163.9,573.8,175.7,573.8,175.7z"/>
				<path class="st1" d="M574.2,155.6c0-0.7,0-1.4,0.1-2.1c0-0.1,0-0.2,0-0.3c0-0.7,0-1.5,0-2.2c0-0.1,0-0.3,0-0.4
					c0-0.8,0-1.7,0-2.6l0,0c-0.3,0-0.6,0-0.9-0.1c-2.4-0.5-4.5-1.8-6.6-3.1c-0.3-0.2-0.7-0.4-1.1-0.6c-0.4,3.2,1,7.2,1.7,9.8
					c1.7,7.1,2.7,16.2,1.2,23.1c3.1-0.7,5.3-1.5,5.3-1.5s-0.1-11.8,0.2-17.9c0-0.5,0-1.2,0.1-1.8
					C574.1,155.9,574.1,155.8,574.2,155.6z"/>
			</g>
			<path class="st0" d="M602.9,180.4l3.2-5.3c0,0-14.7-9.7-19.9-15s-10.9-16.1-14.9-16.8s-8,1.5-5.7,7.1s14.1,13,16.4,15.5
				C584.3,168.3,600.5,179.1,602.9,180.4z"/>
			<path class="st11" d="M566.7,112.3c0,0,10.6-1.2,11.3,0.6c0.7,1.8,0.9,6.8,1.6,7.9c0.7,1.1,1.9,2.3,1.5,3c-0.5,0.7-1,0.5-1.3,1.3
				s-0.2,5.1-1.6,5.8c-1.4,0.6-8.5,0.3-11.1-3.8C564.5,122.9,561.6,112.7,566.7,112.3z"/>
			<path class="st2" d="M564,113.3l7,3.3c0,0-0.2,4.1,1.8,7.7c0,0-0.6,1-1.3,0.4s-1.1-0.8-1.2-1.9c-0.2-1-0.8-3.8-2.6-2.4
				s0.1,3,1,3.4c0,0,1.5,5.4-1.3,5c0,0-2.6-1.7-4.9-8.1C560.3,114.2,562.3,112.1,564,113.3z"/>
			<path class="st2" d="M581.1,110.9c0,0,2.5,3.6-3.3,6.1c-5.8,2.4-14.2-4-14.2-4s0.2-3.2,4.9-4.5c3.5-1,6.7-0.9,8.5,1.2
				C579.9,113.1,581.1,110.9,581.1,110.9z"/>
		</g>
		<g>
			<g>
				<path class="st11" d="M717.2,133.8c0.7-0.2,3.1,1.1,4.5,2.3c0.8,0.7,2.5,1.5,3.9,2.1c-0.3,0.8-0.5,1.6-0.7,2.4
					c0,0-2.2-0.7-2.5-0.9c-0.7-0.4-1.3-1.1-2.2-1c-0.4,0-0.9,0.3-1.3,0.4c-0.5,0.2-1.8,1.2-2.4,0.9c-0.8-0.5,0.7-1.2,0.9-1.5
					c0.3-0.4,0.3-1.1-0.3-1.1c-0.9,0.1-2.5,0.9-3.4,0.4c-1.1-0.7,2.7-1.2,3.4-1.5c-1.1,0.4-4.4,0.9-4.6,0.3
					c-0.3-1.2,3.2-1.2,4.2-1.6c-1.1,0.3-2.3,0.4-2.8,0.2C712.8,134.7,716.5,134,717.2,133.8z"/>
				<path class="st5" d="M772.8,142.8c-0.7-3.3-3.9-5.6-7.3-5.4c-5.6,0.3-16,0.9-19.2,0.8c-4.4-0.1-22.9-2.2-22.9-2.2l-0.9,5
					c0,0,20.8,5.5,24.3,5.5s22.2,2.5,25.1-0.1C772.9,145.5,773.1,144.2,772.8,142.8z"/>
				<path class="st5" d="M772.8,142.8c-0.7-3.3-3.9-5.6-7.3-5.4c-5.6,0.3-16,0.9-19.2,0.8c-4.4-0.1-22.9-2.2-22.9-2.2l-0.9,5
					c0,0,20.8,5.5,24.3,5.5s22.2,2.5,25.1-0.1C772.9,145.5,773.1,144.2,772.8,142.8z"/>
			</g>
			<path class="st11" d="M765.6,126.8c-0.1,0.1-0.2,0.2-0.3,0.3c-0.9,1-1.9,2-3.1,2.8c-0.7,0.5-1.8,0.8-2.4,1.3
				c-0.2,0.2-0.5,0.4-0.7,0.6c0.4,2,1.4,7.1,1.4,9.2c0,0,6.3-0.6,8.5-3.3C769,137.8,766.2,130.8,765.6,126.8z"/>
			<path class="st10" d="M765.7,127.7c-0.1,0.1-0.2,0.2-0.3,0.3c-0.9,1-1.9,2-3.1,2.8c-0.7,0.5-1.8,0.8-2.4,1.3
				c-0.2,0.2-0.5,0.4-0.7,0.6c0.1,0.4,0.2,1,0.3,1.7h0.1c4.2,0,6.7,2.6,7.6,5.7c0.8-0.4,1.4-0.9,1.9-1.4
				C769.1,138.7,766.3,131.7,765.7,127.7z"/>
			<path class="st2" d="M756,240.6c0,0,0.3,6.3-0.6,7.2c-0.9,0.9-13.4,2.3-14.5,1.2c-1.2-1.1-0.7-3,1.9-4c2.8-1,4.3-0.4,6-1.2
				c1.7-0.9,1-3.7,1-3.7L756,240.6z"/>
			<path class="st2" d="M785.7,240.5c0,0,1.7,6,0.9,7s-13.4,3.6-14.6,2.7c-1.3-1-1-3,1.6-4.2c2.7-1.3,4.2-0.7,5.9-1.8
				c1.7-1,0.7-3.8,0.7-3.8L785.7,240.5z"/>
			<path class="st0" d="M784.7,204.1c0.7-17.4-0.9-29.4-1.7-35.1c-2.1,0-4.2,0.2-6.3,1c-3.9,1.6-7.8,3.2-11.6,4.8
				c3,6.5,9.2,27.8,9.9,32.2c0.9,5.5,4.7,35.7,4.7,35.7l7.1-0.2C786.8,238,784.6,205.6,784.7,204.1z"/>
			<path class="st1" d="M771.3,172.4c-2,0.9-4.1,1.6-6.3,2.4c2.9,6.4,9.1,27.5,9.9,32.1c1-2.9,5.2-13.3,7.2-21
				c1.3-5.2,1.7-10.5,1-15.8c0,0,0,0,0-0.1C779.2,170.2,775.5,170.5,771.3,172.4z"/>
			<path class="st0" d="M776.8,168.8c-2.7,0.9-7.7,2.1-11.4,3.3c-2.7,6.5-10,25.2-11.4,32.1c-1.9,9.5-5,37.6-5,37.6l8,1.1
				c0,0,8.1-37.8,9.2-39.9c3.8-6.9,7.9-12.3,10.3-16.6c5.8-10.4,6.1-15.4,6.9-19.1C781.3,167.8,779.1,168.1,776.8,168.8z"/>
			<g>
				<g>
					<g>
						<path class="st5" d="M762.1,177c0,0,6.4,0.9,13,0.1c4.8-0.6,9.3-2.4,10.3-4.2c0,0-3.6-20.2-7.3-27.5c-3.7-7.4-9.5-8.6-9.5-8.6
							s-4.5,2.8-8.2,2.8c0,0,0.5,14.6,1,20.4C761.8,165.6,762.1,177,762.1,177z"/>
					</g>
					<g>
						<path class="st12" d="M767.7,156.1c0.5-2.5,1.8-6.3,1.3-9.4c-0.3,0.2-0.7,0.4-1,0.6c-2,1.2-3.9,2.6-6.3,3.1
							c-0.3,0.1-0.6,0.1-0.9,0.1c0.2,3.5,0.3,7.1,0.5,9.4c0.5,5.8,0.7,17.1,0.7,17.1s1.8,0.3,4.5,0.4
							C764.9,170.8,766.2,163,767.7,156.1z"/>
					</g>
				</g>
			</g>
			<path class="st11" d="M768.5,120.1c0,0-2.9-5.5-6.5-5.1s-7.1,1.4-7.5,2.8s0.1,4.5-0.8,5.9c-0.9,1.4-2.6,3.5-2,4
				c0.5,0.5,1.5,1.2,1.6,1.5s1.4,4.9,2.2,5.3c0.8,0.5,7.5-2.5,8.5-4.6S768.9,123.7,768.5,120.1z"/>
			<path class="st2" d="M763,115.2c0,0-2.9,8-10,7.3c0,0-1.8-3.3,0-5.8C754.4,114.7,758.4,112.8,763,115.2z"/>
			<path class="st2" d="M785.4,144.3c-0.4-4-2.3-6.3-5.2-8.8c-3.4-3.1-5.7-6.2-6.9-10.7c-1.1-4.1-0.6-8-4.5-10.9
				c-2.9-2.1-7.6-0.9-9.5,0.6c0,0.2,0,0.3-0.1,0.4c0,0-2.6,2.5,1.6,6.1c1.5,1.3,2.2,3.3,2.3,3.7c0.4-0.7,0.7-0.8,0.9-1
				c0.4-0.3,1-0.5,1.5,0.1c0.8,0.9-0.4,2.4-1.2,2.6c-0.1,0-0.3,0.2-0.5,0.5c0.4,1.2,1.3,4.3,1.9,10.8c0.2,1.8,1,3.1,2.1,4.4
				c1.2,1.5,2.1,1.6,2.8,3.4c0.8,1.9-0.8,6.5,2.9,8.6c1.6,1,5.5,0.8,6.3,0.5C784.7,152.8,785.8,149.2,785.4,144.3z"/>
			<g>
				<path class="st11" d="M727.7,169.4c-1,0.3-1.9,0.6-2.9,0.4c-0.5-0.1-0.9-0.2-1.4-0.1c-0.5,0.1-1.1,0-1.6,0s-1.1-0.1-1.5,0.2
					c-0.6,0.3,0.2,0.7,0.7,1c0.6,0.2,2.4-0.2,2.7,0.3c0.3,0.6-2,1-2.4,1.1c-1.1,0.2-1.6-0.4-2.6-0.7c-0.6-0.2-0.9-0.1-0.7,0.5
					c0.2,0.5,0.7,0.7,1.1,0.9c0.9,0.4,1.9,0.6,2.9,0.5c-0.7,0.2-2,0-2.7-0.2c-0.5-0.1-2.5-1.1-2.8-0.3c-0.5,1.5,4.5,2.2,5.3,1.9
					c-0.9,0.2-1.8,0.1-2.7,0c-0.5-0.1-1.8-0.2-1.4,0.6c0.6,1.3,3.5,0.5,4.8,0.4c-0.8,0.4-1.6,0.4-2.5,0.5c-1.1,0.2-0.6,1,0.6,1
					c0.5,0,1.5-0.1,1.7-0.2c2.3-0.4,3.4-1.2,5-2.7c0.6-0.5,2.3-0.9,2.3-1.6C729.9,171.5,728.4,170.3,727.7,169.4z"/>
				<path class="st5" d="M727.9,174.7l-2.3-5.3c0,0,14.8-8.6,20.7-13.2c5.9-4.6,12.9-14.5,16.9-14.7c4.1-0.2,7.8,2.5,4.8,7.8
					c-3,5.2-15.6,11.1-18.3,13.2C747.1,164.6,730.4,173.7,727.9,174.7z"/>
			</g>
		</g>
	</g>
	<g>
		<g>
			<path class="st2" d="M317.4,39.4c0,0,28.4,35.9,60.8,0C345.9,3.5,317.4,39.4,317.4,39.4z"/>
			<path class="st7" d="M321.7,39.4c0,0,24.4,30.8,52.3,0C346.1,8.5,321.7,39.4,321.7,39.4z"/>
		</g>
		<ellipse class="st5" cx="347.8" cy="39.4" rx="13.5" ry="13.5"/>
		<path class="st2" d="M356.3,39.4c0,4.7-3.8,8.5-8.5,8.5s-8.5-3.8-8.5-8.5s3.8-8.5,8.5-8.5C352.5,30.8,356.3,34.7,356.3,39.4z"/>
		<path class="st7" d="M357.9,34c0,1.9-1.5,3.5-3.5,3.5c-1.9,0-3.5-1.5-3.5-3.5c0-1.9,1.5-3.5,3.5-3.5
			C356.3,30.5,357.9,32.1,357.9,34z"/>
	</g>
	<g>
		<g>
			<g>
				<rect x="302.9" y="198.2" class="st2" width="197.8" height="29"/>
				<path class="st2" d="M507.4,218.1H296.3c-6.7,0-12.1-5.4-12.1-12.1V72.4c0-6.7,5.4-12.1,12.1-12.1h211.1
					c6.7,0,12.1,5.4,12.1,12.1v133.5C519.5,212.6,514.1,218.1,507.4,218.1z"/>
				<rect x="295" y="70.7" class="st6" width="213.7" height="135.2"/>
				<g>
					<g>
						<path class="st2" d="M261.2,260.2v4.3c0,2.4,2.6,4.3,5.8,4.3h269.6c3.2,0,5.8-1.9,5.8-4.3v-4.3H261.2z"/>
						<path class="st2" d="M401.8,226.9H286.4c-0.4,0.4-18.5,16.7-24.1,28.7c-2.4,5.2-0.8,7.9,3.6,7.9h135.9h135.9
							c4.4,0,6-2.7,3.6-7.9c-5.5-12.1-23.7-28.3-24.1-28.7L401.8,226.9L401.8,226.9z"/>
						<polygon class="st13" points="527.8,257.3 281.9,257.3 298.9,232.1 510.8,232.1 						"/>
						<g>
							<g>
								<g>
									<g>
										<path class="st3" d="M524.8,252.9l-0.5-0.8h-16.4l-3.1-6.1h15.3l-0.5-0.8h-15.2l-3.1-6.1h14.1l-0.5-0.8h-14l-3.1-6.2h-1.4
											l3,6.2H482l-2.5-6.2h-1.4l2.4,6.2h-17.6l-1.8-6.2h-1.4l1.8,6.2h-17.6l-1.2-6.2h-1.4l1.2,6.2h-17.6l-0.6-6.2h-1.4l0.5,6.2
											h-16.7v-6.2h-1.6v6.2h-17.3l0.5-6.2H387l-0.6,6.2h-17.6l1.2-6.2h-1.4l-1.2,6.2h-17.6l1.8-6.2h-1.4l-1.8,6.2h-17.6l2.4-6.2
											h-1.4l-2.5,6.2h-17.6l3-6.2h-1.4l-3.1,6.2h-15.5l-0.5,0.8h15.6l-3.1,6.1H290l-0.5,0.8h16.9l-3.1,6.1h-17.9l-0.5,0.8H303
											l-2.2,4.4h1.6l2.2-4.4h18.9l-1.8,4.4h1.6l1.7-4.4h19l-1.3,4.4h1.6l1.3-4.4h18.9l-0.9,4.4h1.6l0.8-4.4h19l-0.4,4.4h1.6
											l0.4-4.4h18.5v4.4h1.6v-4.4h17.9l0.4,4.4h1.6l-0.4-4.4h18.9l0.8,4.4h1.6l-0.9-4.4h18.9l1.3,4.4h1.6l-1.3-4.4H486l1.7,4.4
											h1.6l-1.8-4.4h18.9l2.2,4.4h1.6l-2.2-4.4H524.8z M330.4,239.1H348l-1.8,6.1H328L330.4,239.1z M311.3,239.1H329l-2.4,6.1
											h-18.2L311.3,239.1z M323.8,252.1h-18.9l3-6.1h18.3L323.8,252.1z M344.2,252.1h-18.9l2.4-6.1H346L344.2,252.1z
											 M364.7,252.1h-18.9l1.8-6.1h18.3L364.7,252.1z M366,245.2h-18.2l1.8-6.1h17.6L366,245.2z M385.1,252.1h-18.9l1.1-6.1
											h18.3L385.1,252.1z M385.7,245.2h-18.2l1.1-6.1h17.6L385.7,245.2z M405.1,252.1h-18.5l0.5-6.1H405v6.1H405.1z
											 M405.1,245.2h-17.9l0.5-6.1h17.4V245.2z M406.7,239.1h16.7l0.5,6.1h-17.3L406.7,239.1L406.7,239.1z M406.7,252.1V246H424
											l0.5,6.1H406.7z M499.9,239.1l3,6.1h-18.2l-2.4-6.1H499.9z M480.8,239.1l2.4,6.1H465l-1.8-6.1H480.8z M424.9,239.1h17.6
											l1.1,6.1h-18.2L424.9,239.1z M426.1,252.1l-0.6-6.1h18.3l1.1,6.1H426.1z M444,239.1h17.6l1.8,6.1h-18.2L444,239.1z
											 M446.6,252.1l-1.2-6.1h18.3l1.8,6.1H446.6z M467,252.1l-1.8-6.1h18.3l2.4,6.1H467z M487.5,252.1L485,246h18.3l3,6.1
											H487.5z"/>
									</g>
								</g>
							</g>
						</g>
					</g>
					<path class="st2" d="M401.8,263.5h-11.9c0,0,0,1.1,0.6,1.7c0.2,0.2,0.6,0.3,0.9,0.3h10.4h10.4c0.3,0,0.7-0.1,0.9-0.3
						c0.6-0.6,0.6-1.6,0.6-1.7H401.8z"/>
				</g>
			</g>
			<rect x="295" y="70.7" class="st6" width="213.7" height="135.2"/>
			<polygon class="st5" points="405.8,139.7 386.5,148.3 362.1,123.9 295,175.1 295,206 508.7,206 508.7,47.1 419.4,155.1 			"/>
			<g>
				<rect x="344.8" y="164.7" class="st6" width="6.8" height="5.2"/>
				<rect x="354.4" y="164.7" class="st6" width="6.8" height="5.2"/>
				<rect x="364" y="164.7" class="st0" width="6.8" height="5.2"/>
				<rect x="373.6" y="164.7" class="st6" width="6.8" height="5.2"/>
				<rect x="383.2" y="164.7" class="st6" width="6.8" height="5.2"/>
				<rect x="392.8" y="164.7" class="st0" width="6.8" height="5.2"/>
				<rect x="344.8" y="173.5" class="st6" width="6.8" height="5.2"/>
				<rect x="354.4" y="173.5" class="st6" width="6.8" height="5.2"/>
				<rect x="364" y="173.5" class="st6" width="6.8" height="5.2"/>
				<rect x="373.6" y="173.5" class="st6" width="6.8" height="5.2"/>
				<rect x="383.2" y="173.5" class="st0" width="6.8" height="5.2"/>
				<rect x="392.8" y="173.5" class="st6" width="6.8" height="5.2"/>
				<rect x="344.8" y="182.4" class="st6" width="6.8" height="5.2"/>
				<rect x="354.4" y="182.4" class="st0" width="6.8" height="5.2"/>
				<rect x="364" y="182.4" class="st6" width="6.8" height="5.2"/>
				<rect x="373.6" y="182.4" class="st6" width="6.8" height="5.2"/>
				<rect x="383.2" y="182.4" class="st6" width="6.8" height="5.2"/>
				<rect x="392.8" y="182.4" class="st6" width="6.8" height="5.2"/>
				<rect x="344.8" y="191.2" class="st6" width="6.8" height="5.2"/>
				<rect x="354.4" y="191.2" class="st6" width="6.8" height="5.2"/>
				<rect x="364" y="191.2" class="st0" width="6.8" height="5.2"/>
				<rect x="373.6" y="191.2" class="st6" width="6.8" height="5.2"/>
			</g>
			<g>
				<g>
					<polygon class="st7" points="408.1,150.1 407.4,149.4 406.5,149.8 406,148.4 407.7,147.7 409,149 					"/>
				</g>
				<g>
					<path class="st7" d="M392.6,155.6l-0.5-1.3l2.3-1l0.5,1.3L392.6,155.6z M397.2,153.7l-0.5-1.3l2.3-1l0.5,1.3L397.2,153.7z
						 M401.9,151.7l-0.5-1.3l2.3-1l0.5,1.3L401.9,151.7z"/>
				</g>
				<g>
					<polygon class="st7" points="388.5,157.3 387.1,156.1 388,155 388.8,155.7 389.7,155.3 390.2,156.6 					"/>
				</g>
				<g>
					<path class="st7" d="M385,154.3l-2.1-1.8l0.9-1.1l2.1,1.8L385,154.3z M380.9,150.7l-2.1-1.8l0.9-1.1l2.1,1.8L380.9,150.7z
						 M376.8,147.1l-2.1-1.8l0.9-1.1l2.1,1.8L376.8,147.1z M372.6,143.5l-2.1-1.8l0.9-1.1l2.1,1.8L372.6,143.5z M368.5,139.8
						l-2.1-1.8l0.9-1.1l2.1,1.8L368.5,139.8z"/>
				</g>
				<g>
					<polygon class="st7" points="364.3,136.2 363.7,135.6 363,136.1 362.1,134.9 363.8,133.8 365.3,135.1 					"/>
				</g>
				<g>
					<path class="st7" d="M299.8,180.5l-0.8-1.2l2.5-1.7l0.8,1.2L299.8,180.5z M304.8,177l-0.8-1.2l2.5-1.7l0.8,1.2L304.8,177z
						 M309.7,173.6l-0.8-1.2l2.5-1.7l0.8,1.2L309.7,173.6z M314.6,170.1l-0.8-1.2l2.5-1.7l0.8,1.2L314.6,170.1z M319.5,166.6
						l-0.8-1.2l2.5-1.7l0.8,1.2L319.5,166.6z M324.4,163.2l-0.8-1.2l2.4-1.7l0.8,1.2L324.4,163.2z M329.3,159.8l-0.8-1.2l2.4-1.7
						l0.8,1.2L329.3,159.8z M334.2,156.4l-0.8-1.2l2.4-1.7l0.8,1.2L334.2,156.4z M339,153l-0.8-1.2l2.4-1.7l0.8,1.2L339,153z
						 M343.8,149.6l-0.8-1.2l2.4-1.7l0.8,1.2L343.8,149.6z M348.6,146.2l-0.8-1.2l2.4-1.7l0.8,1.2L348.6,146.2z M353.4,142.8
						l-0.8-1.2l2.4-1.7l0.8,1.2L353.4,142.8z M358.2,139.5l-0.8-1.2l2.4-1.7l0.8,1.2L358.2,139.5z"/>
				</g>
				<g>
					<path class="st7" d="M424.7,159.5l-1-1l1.8-2.1l1,1L424.7,159.5z M428.3,155.2l-1-1l1.8-2.1l1,1L428.3,155.2z M432,151l-1-1
						l1.8-2.1l1,1L432,151z M435.6,146.7l-1-1l1.8-2.1l1,1L435.6,146.7z M439.2,142.5l-1-1l1.8-2.1l1,1L439.2,142.5z M442.9,138.3
						l-1-1l1.8-2.1l1,1L442.9,138.3z M446.4,134.1l-1-1l1.8-2.1l1,1L446.4,134.1z M450,129.9l-1-1l1.8-2.1l1,1L450,129.9z
						 M453.6,125.8l-1-1l1.8-2.1l1,1L453.6,125.8z M457.2,121.6l-1-1l1.8-2.1l1,1L457.2,121.6z M460.7,117.5l-1-1l1.8-2.1l1,1
						L460.7,117.5z M464.2,113.4l-1-1l1.8-2.1l1,1L464.2,113.4z M467.8,109.3l-1-1l1.8-2l1,1L467.8,109.3z M471.3,105.2l-1-1l1.8-2
						l1,1L471.3,105.2z M474.8,101.1l-1-1l1.7-2l1,1L474.8,101.1z M478.3,97.1l-1-1l1.7-2l1,1L478.3,97.1z M481.7,93l-1-0.9l1.7-2
						l1,0.9L481.7,93z M485.2,89l-1-0.9l1.7-2l1,0.9L485.2,89z M488.7,85l-1-0.9l1.7-2l1,0.9L488.7,85z M492.1,81l-1-0.9l1.7-2
						l1,0.9L492.1,81z M495.5,77l-1-0.9l1.7-2l1,0.9L495.5,77z M498.9,73l-1-0.9l1.7-2l1,0.9L498.9,73z M502.1,69.2l-1-0.9l1.7-2
						l1,0.9L502.1,69.2z M505.3,65.4l-1-0.9l1.7-2l1,0.9L505.3,65.4z"/>
				</g>
				<g>
					<polygon class="st7" points="421.5,163.2 419.9,161.7 420.9,160.7 421.4,161.2 421.8,160.7 422.8,161.6 					"/>
				</g>
				<g>
					<path class="st7" d="M417.5,159.4l-2.4-2.3l1-1l2.4,2.3L417.5,159.4z M412.8,154.7l-2.4-2.3l1-1l2.4,2.3L412.8,154.7z"/>
				</g>
			</g>
			<g>
				<g>
					<g>
						<path class="st0" d="M503,31.3l-83.3,105.6l-13.5-16.3l-19.7,9.4l-25.1-26.7l-66.4,54v6.5l66.2-53.8l24.7,26.3l19.6-9.3
							l14.3,17.2l86.4-109.6C505,33.5,503.9,32.5,503,31.3z"/>
					</g>
					<polygon class="st0" points="515.9,21.7 496.2,28.4 509.2,41.4 					"/>
				</g>
			</g>
			<g>
				<g>
					<path class="st0" d="M320.7,88c4.4,0.3,8.5,2.2,8.5,6.7h-7.4c0-1.7-1.8-2-2.9-2c-0.7,0-2.9,0-2.9,1.4c0,3,13.6-0.2,13.7,8.4
						c0,5.2-4,7.1-9,7.5l0.4,5.5h-4.5l0.2-5.5c-4.6-0.5-8.9-2.6-8.9-7.2h7.4v0.2c0.1,2,2.3,2.4,3.5,2.4c1.1,0,3.3-0.1,3.3-1.6
						c0-3.2-13.6-0.2-13.7-8.5c0-4.8,3.7-6.7,8.3-7.1l-0.3-5.5h4.5L320.7,88z"/>
				</g>
			</g>
		</g>
		<g>
			<path class="st2" d="M433.6,236.7c0,0,0.3,6-0.6,6.9s-12.8,2.2-13.9,1.2s-0.7-2.9,1.9-3.8c2.7-1,4.1-0.3,5.8-1.2
				c1.7-0.9,1-3.5,1-3.5L433.6,236.7z"/>
			<path class="st2" d="M472.6,236.7c0,0-0.3,6,0.6,6.9s12.8,2.2,13.9,1.2s0.7-2.9-1.9-3.8c-2.7-1-4.1-0.3-5.8-1.2
				c-1.7-0.9-1-3.5-1-3.5L472.6,236.7z"/>
			<path class="st0" d="M473.3,201.9c-1.3-6.6-8.3-24.4-10.9-30.6c-1-0.4-2.2-0.7-3.3-1c0.3-1.4,0.5-2.6,0.7-3.6
				c-2,0.5-4.2,0.8-6.4,1.5c-0.3,0.1-0.6,0.2-1,0.3c-0.3-0.1-0.7-0.2-1-0.3c-2.2-0.7-4.3-0.9-6.4-1.5c0.2,1.1,0.4,2.3,0.7,3.6
				c-1.2,0.3-2.3,0.7-3.3,1c-2.6,6.2-9.6,24.1-10.9,30.6c-1.8,9.1-4.8,35.9-4.8,35.9l7.7,1c0,0,7.7-36.1,8.8-38.1
				c2-3.6,4-6.8,5.9-9.6c1.5-2.3,5-2.3,6.5,0c1.8,2.8,3.9,6,5.9,9.6c1.1,2,8.8,38.1,8.8,38.1l7.7-1
				C478.1,237.9,475.1,211,473.3,201.9z"/>
			<path class="st11" d="M475.4,90.2c-0.5-3.1-0.9-3.6-2-4.2c-0.5-0.3-1-0.5-1.3-1s-0.9-0.9-1.4-1.3s-1-0.8-1.2-1.4
				c-0.2-0.7,0.7-0.5,1.4-0.3c0.7,0.3,2,2.1,2.7,1.9c0.7-0.3-1-2.5-1.3-2.9c-0.8-1-1.8-0.9-2.9-1.4c-0.6-0.3-0.8-0.6-0.2-1
				c0.5-0.3,1.2-0.1,1.7,0.1c1.1,0.4,2.2,1,2.9,1.8c-0.5-0.7-1.8-1.6-2.6-2c-0.6-0.3-3.1-1.1-2.7-2c0.7-1.8,5.7,1.6,6.3,2.6
				c-0.6-0.9-1.6-1.5-2.5-2.2c-0.5-0.4-1.8-1.2-0.7-1.6c1.6-0.6,3.5,2.3,4.6,3.5c-0.5-1-1.1-1.6-1.9-2.5c-0.9-1.1,0.2-1.3,1.3-0.4
				c0.5,0.4,1.2,1.3,1.4,1.5c1.7,2.2,1.8,3.7,2.1,6.3c0.1,1,0.1,2.5,0.5,5.3C479.8,90.8,476.7,89.9,475.4,90.2z"/>
			<path class="st11" d="M400.8,133.7c-2.9-1.1-3.3-2.3-3.7-3.4c-0.2-0.5-0.3-1.1-0.7-1.5c-0.4-0.4-0.7-1.1-0.9-1.6
				c-0.3-0.5-0.5-1.2-1.1-1.5c-0.7-0.4-0.7,0.6-0.6,1.3c0.1,0.7,1.7,2.4,1.3,3c-0.4,0.7-2.2-1.5-2.6-1.9c-0.8-1-0.5-1.9-0.7-3.1
				c-0.1-0.7-0.4-1-1-0.4c-0.4,0.4-0.3,1.1-0.2,1.7c0.1,1.1,0.5,2.3,1.2,3.3c-0.6-0.7-1.2-2.1-1.4-2.9c-0.2-0.6-0.4-3.3-1.3-3.1
				c-1.9,0.3,0.4,5.9,1.2,6.7c-0.7-0.8-1.2-1.8-1.6-2.9c-0.3-0.6-0.8-2-1.5-1.1c-1,1.4,1.5,3.9,2.4,5.3c-0.9-0.7-1.3-1.4-2-2.3
				c-0.9-1.1-1.4-0.1-0.7,1.2c0.3,0.5,1,1.5,1.2,1.7c1.8,2.2,3.2,2.5,5.7,3.4c0.9,0.3,1.9,0.4,4.9,1.9
				C400.2,137.9,400.3,134.9,400.8,133.7z"/>
			<path class="st11" d="M456.3,127.9c-1.7,0.3-3.4,0.4-5,0.2c-0.6,0-1.2-0.2-1.8-0.4c0.1,2.1,0.1,6.9-1.4,8.9c0,0,0.5,2.3,4.8,2.4
				c4.3,0.1,4.8-2.4,4.8-2.4S456.1,133.2,456.3,127.9z"/>
			<path class="st10" d="M456.3,127.9c-1.7,0.3-3.4,0.4-5,0.2c-0.6,0-1.2-0.2-1.8-0.4c0.1,2.1,0.1,6.9-1.4,8.9c0,0,0.5,2.3,4.8,2.4
				c4.3,0.1,4.8-2.4,4.8-2.4S456.1,133.2,456.3,127.9z"/>
			<path class="st8" d="M472.7,139.7c-1.2-1.5-6.7-4.8-10.4-5.3c-6.1-1-12.3-1-18.3,0c-3.7,0.6-7.5,1.5-8.6,3
				c-1.5,1.9,2.9,12.3,3.6,21.9c0.6,7.9,1.7,14.1,1.7,14.1c2.4,4.4,21.1,4.5,23.5,0.1c0,0,0.5-6.8,1.7-14.2
				C467.6,149.6,474.2,141.5,472.7,139.7z"/>
			<path class="st14" d="M442.6,157c0.1-2.6,1-7.2,0-9.6c-1.4-3.4-4.4-4.6-7.3-6.2c0.8,4.3,3.1,11.3,3.6,17.9
				c0.6,7.9,1.7,14.1,1.7,14.1c0.4,0.8,1.5,1.5,2.8,2C440.8,170.2,442.4,162,442.6,157z"/>
			<path class="st11" d="M462,116.2c0,0-8.8-5.2-10.2-3.9c-1.3,1.3-3.4,5.6-4.5,6.3c-1,0.7-2.6,1.3-2.5,2.1c0.1,0.8,0.7,0.8,0.6,1.6
				c0,0.8-1.8,4.6-0.9,5.7c1,1.1,7.4,3.6,11.3,1C459.8,126.4,466.4,118.6,462,116.2z"/>
			<path class="st2" d="M464,118.1l-7.5,0.1c0,0-1.4,3.7-4.6,6.1c0,0,0.2,1.1,1,0.9s1.3-0.3,1.8-1.2c0.5-0.8,2.1-3,3.2-1.1
				s-1.2,2.6-2.2,2.5c0,0-3.4,4.1-0.8,4.9c0,0,2.9-0.4,7.4-5.2C466.9,120.4,466,117.8,464,118.1z"/>
			<path class="st2" d="M449.9,109.4c0,0-3.6,2.2,0.6,6.6s14.1,2.1,14.1,2.1s1-2.9-2.5-5.9c-2.7-2.3-5.6-3.4-7.9-2.3
				C450.1,111.8,449.9,109.4,449.9,109.4z"/>
			<path class="st8" d="M399.8,132.3l-3.2,5c0,0,8.2,7.8,17.5,14c5.5,3.6,24.1-2.2,27-3c4.1-1.2,7.2-10,0.3-13.2
				c-4-1.9-20.2,10.4-24.2,8.3C412.4,140.8,399.8,132.3,399.8,132.3z"/>
			<path class="st8" d="M474,88.9l6.3-1.1c0,0,4.2,18.2,3.9,24.7c-0.2,6.5-10.6,30.3-13,32.2c-2.9,2.2-10.8-4.2-5-11.2
				c5.7-7,9.4-21.3,9.6-21.9C475.9,111.1,474,88.9,474,88.9z"/>
		</g>
		<rect x="344" y="78.5" class="st3" width="50.7" height="4.6"/>
		<rect x="344" y="85.7" class="st3" width="50.7" height="4.6"/>
		<rect x="344" y="92.9" class="st3" width="38.4" height="4.6"/>
	</g>
	<g>
		<polygon class="st0" points="374.3,172.3 375.4,174.6 377.9,175 376.1,176.8 376.5,179.3 374.3,178.1 372,179.3 372.5,176.8 
			370.6,175 373.2,174.6 		"/>
		<g>
			<g>
				<g>
					<path class="st11" d="M380.6,142.9c-0.3-0.5-2.2,1-2.4,1.5c-0.4,0.6-1,1-1.4,1.8c-0.3,0.6-0.6,1.2-0.9,1.9
						c-0.2,0.3-0.1,0.8-0.3,1.1c-0.1,0.3-0.7,1.1-1,1.5c-0.1,0.1,0.1,0.2-0.2,0.4c0.7,0.6,0.8,1.2,1.2,2c0,0,0.6-0.6,0.9-0.8
						s2.2-0.9,2.5-1c1.1-0.5,1.6-0.9,1.8-1c0.2-0.2,1-0.4,0.9-0.7c-0.2-0.7-1.2-0.3-1.5-0.2c-0.5,0.1-1.2,0.5-2,0.4
						c-0.3,0-0.8-0.5-0.6-1.3c0.2-0.7,0.6-1.2,1.2-1.6c0.3-0.3,1.5-1.4,1.9-1.7c1-0.9,0.5-1.5-0.4-0.9c-0.2,0.1-1.6,1.3-1.7,1.3
						c0.1-0.2,0.3-0.3,0.4-0.4C379.5,144.6,380.9,143.5,380.6,142.9z"/>
				</g>
			</g>
			<path class="st11" d="M341.3,126.7c0.1,0.1,0.1,0.3,0.2,0.4c0.7,1.2,1.5,2.3,2.4,3.3c0.6,0.6,1.6,1.1,2,1.7
				c0.2,0.2,0.4,0.5,0.6,0.7c-0.8,1.8-2.7,6.6-3,8.6c0,0-6-1.8-7.6-4.7C335.9,136.7,340,130.5,341.3,126.7z"/>
			<path class="st10" d="M342.2,137.6c0-1.8-0.6-3.7-1.7-5.2c-0.4-0.5-0.8-1-1.2-1.4c0.8-1.5,1.5-3,2-4.3c0.1,0.1,0.1,0.3,0.2,0.4
				c0.7,1.2,1.5,2.3,2.4,3.3c0.6,0.6,1.6,1.1,2,1.7c0.2,0.2,0.4,0.5,0.6,0.7c-0.8,1.8-2.7,6.6-3,8.6c0,0-1-0.3-2.3-0.9
				C341.9,139.7,342.3,138.7,342.2,137.6z"/>
			<path class="st2" d="M319.2,236.6c0,0-0.9,6,0,6.9s13.5,1.8,14.6,0.7s0.5-3-2.1-3.8c-2.8-0.9-4.2-0.1-6-0.9
				c-1.8-0.8-1.2-3.6-1.2-3.6L319.2,236.6z"/>
			<path class="st2" d="M340.3,236.6c0,0-0.9,6,0,6.9s13.5,1.8,14.6,0.7s0.5-3-2.1-3.8c-2.8-0.9-4.2-0.1-6-0.9
				c-1.8-0.8-1.2-3.6-1.2-3.6L340.3,236.6z"/>
			<path class="st0" d="M317.2,202.6c-3-16.9-3-28.8-3-34.4c2-0.3,4.1-0.4,6.3,0.2c4,1.1,8,2.1,12,3.1c-2,6.8-5.3,28.3-5.4,32.7
				c-0.1,5.5-1.5,34.4-1.5,34.4l-7.3,0.2C317.7,234.4,317.4,204.1,317.2,202.6z"/>
			<path class="st1" d="M326,170c2.1,0.6,4.3,1.1,6.4,1.5c-2,6.6-5.2,28-5.4,32.6c-1.4-2.7-6.8-12.2-9.8-19.5
				c-2-4.9-3.1-10-3.1-15.3c0,0,0,0,0-0.1C317.9,168.9,321.7,168.7,326,170z"/>
			<path class="st0" d="M321.1,168.2c2.7,0.8,7.6,1.9,11.3,3c2.8,6.3,10.6,23.1,12.1,29.8c2.1,9.3,2.1,37,2.1,37l-7,0.1
				c0,0-4.8-31.4-5.7-33.6c-3.4-8.8-9.7-14.9-12.1-19.1c-5.9-10.1-6.4-15-7.2-18.6C316.6,167.3,318.8,167.5,321.1,168.2z"/>
			<path class="st3" d="M338.3,144.4c1.5-3,0.3-5.1,3.5-4.1c5.2,1.7,10.3,13,13.3,13.8c4.2,1,19.8-4.4,19.8-4.4l1.6,4
				c0,0-20.6,9-23.9,8.1c-3.4-0.9-12.2-10.5-14.4-13.7C337.5,146.9,337.7,145.6,338.3,144.4z"/>
			<path class="st15" d="M338.3,144.4c1.5-3,0.3-5.1,3.5-4.1c5.2,1.7,10.3,13,13.3,13.8c4.2,1,19.8-4.4,19.8-4.4l1.6,4
				c0,0-20.6,9-23.9,8.1c-3.4-0.9-12.2-10.5-14.4-13.7C337.5,146.9,337.7,145.6,338.3,144.4z"/>
			<g>
				<path class="st3" d="M335.2,175.8c0,0-6.4-0.3-12.5-2.4c-4.6-1.5-8.5-4.1-9.1-6c0,0,7.2-18.8,12.2-25.2s10.8-6.5,10.8-6.5
					s3.8,3.5,7.4,4.3c0,0-3.2,13.9-4.8,19.5C337.6,164.9,335.2,175.8,335.2,175.8z"/>
				<path class="st15" d="M333.7,154.6c0-2.5-0.6-6.5,0.5-9.4c0.3,0.2,0.6,0.5,0.9,0.7c1.7,1.6,3.3,3.2,5.5,4.2
					c0.3,0.1,0.6,0.2,0.8,0.3c-0.8,3.4-1.7,6.8-2.3,9c-1.5,5.5-3.9,16.4-3.9,16.4s-1.8-0.1-4.4-0.5
					C333.7,169.3,333.9,161.6,333.7,154.6z"/>
			</g>
			<path class="st11" d="M341.7,118.2c0,0,5-3.5,8-1.6s4.7,3.5,4.4,5c-0.3,1.4-1.4,5.1-1.3,6.7c0.1,1.7,0.9,4.2,0.6,4.7
				s-2.2-0.3-2.4-0.1c-0.2,0.2-3.4,3.6-4.3,3.7c-0.9,0.1-5.5-5.6-5.4-7.9C341.3,126.5,339.7,121.2,341.7,118.2z"/>
			<path class="st2" d="M347.8,122.1c0.4,1.1,2,2.9,6.1,3.3c4.1,0.3,6.9-7.9-0.3-11.2c-7.1-3.3-8.2-0.7-9.8-0.8
				c-1.6-0.2-2.9,0-4.3,1.1c-2.3,1.9-4,4.7-2.4,9.3c1.6,4.7,4.1,5.4,4.1,5.4c0.6-0.8,1.3-2.3,0.8-3.1c-0.2-0.3-0.6-0.6-0.8-1.2
				c-0.5-1.2,1-2.7,2.5-1.5c0.7,0.5,0.3,2.1,0.5,2.8c0.2,0.8,0.6,0.8,0.9,0.9c0.6,0.1,1.8-1.3,1.6-3.5
				C346.7,122.1,347.4,121.1,347.8,122.1z"/>
			<path class="st11" d="M371.9,181.7c-0.7,0.2-2.9-0.9-4.1-2c-0.7-0.6-2.3-1.3-3.6-1.8c0.2-0.7,0.4-1.5,0.5-2.2
				c0,0,2.1,0.6,2.3,0.7c0.7,0.3,1.2,0.9,2,0.8c0.4-0.1,0.8-0.3,1.2-0.4c0.5-0.2,1.6-1.1,2.1-0.8c0.7,0.4-0.6,1.1-0.8,1.4
				c-0.3,0.3-0.3,1,0.3,1c0.8-0.1,2.3-0.9,3.1-0.4c1,0.6-2.4,1.2-3,1.5c1-0.4,4-0.9,4.2-0.4c0.3,1.1-2.9,1.2-3.8,1.5
				c1-0.3,2.1-0.5,2.5-0.2C375.9,180.8,372.6,181.5,371.9,181.7z"/>
			<path class="st3" d="M366.1,180.1l3.3-4.4c0,0-11.8-11.2-16.2-16.7c-4.4-5.5-8.7-16.2-12.4-17.3c-3.7-1-7.7,0.6-6.1,6.1
				s11.9,13.6,13.9,16.2C350.6,166.6,364,178.7,366.1,180.1z"/>
		</g>
	</g>
	<g>
		<g>
			<path class="st8" d="M288,103.2h-42c-1.2,0-2.1-0.9-2.1-2.1V74c0-1.2,0.9-2.1,2.1-2.1h42c1.2,0,2.1,0.9,2.1,2.1v27.1
				C290.1,102.3,289.1,103.2,288,103.2z"/>
			<rect x="246" y="74.4" class="st0" width="42" height="26.3"/>
		</g>
		<polygon class="st2" points="258.9,79 258.9,96.9 276.3,87.9 		"/>
	</g>
	<g>
		<path class="st2" d="M671.5,193.2v9.3h2.3v-6.6c0-0.7,0.5-1.2,1.2-1.2h10c0.7,0,1.2,0.5,1.2,1.2v6.6h2.3v-9.3
			c0-0.7-0.5-1.2-1.2-1.2h-14.6C672.1,192,671.5,192.5,671.5,193.2z"/>
		<path class="st2" d="M714.1,248.4H646c-2.3,0-4.1-1.8-4.1-4.1v-40.8c0-2.3,1.8-4.1,4.1-4.1h68.1c2.3,0,4.1,1.8,4.1,4.1v40.8
			C718.2,246.5,716.3,248.4,714.1,248.4z"/>
		<path class="st16" d="M718.2,213v-9.6c0-2.3-1.8-4.1-4.1-4.1H646c-2.3,0-4.1,1.8-4.1,4.1v9.6c0,5.8,4.7,10.5,10.5,10.5h55.2
			C713.4,223.5,718.2,218.8,718.2,213z"/>
		<rect x="677.6" y="221.3" class="st3" width="4.8" height="5.5"/>
		<rect x="679.3" y="224" class="st2" width="1.6" height="1.4"/>
	</g>
	<g>
		<g>
			<circle class="st0" cx="71.7" cy="228.4" r="26.4"/>
			<circle class="st7" cx="71.7" cy="228.4" r="20"/>
			<ellipse class="st0" cx="71.7" cy="228.4" rx="14.3" ry="14.3"/>
			<ellipse class="st7" cx="71.7" cy="228.4" rx="9.8" ry="9.8"/>
			<path class="st0" d="M76.2,228.4c0,2.5-2,4.5-4.5,4.5s-4.5-2-4.5-4.5s2-4.5,4.5-4.5C74.2,223.8,76.2,225.9,76.2,228.4z"/>
		</g>
		<g>
			<path class="st0" d="M94.9,198.1c-0.6-0.2-2.3-1.2-3.8,2.2c-1.4,3.2-2.8,7.6-2.8,7.6s3.5-2.9,6.1-5.4
				C97,200,95.4,198.4,94.9,198.1z"/>
			<path class="st2" d="M91.9,200.7l-3.4,3.5c-1,1.1-2,2.2-2.8,3.4l-13.9,20.8l15.8-17.1c1.8-1.9,3.2-4.1,4.3-6.5l1.3-2.9
				C92.7,201.5,92.2,201.1,91.9,200.7z"/>
			<path class="st0" d="M87.8,208.1c0,0-2.3-6.4-0.1-10.5c2.1-4.1,5,3.7,5,3.7L87.8,208.1z"/>
			<path class="st0" d="M87.7,208.1c0,0,6.8,0,10-3.4s-5.2-3.4-5.2-3.4L87.7,208.1z"/>
		</g>
	</g>
	<g>
		<path class="st0" d="M560.3,59.3c0,0,0.8,0.7,1.2,1.4c0.1,0.2,0.2,0.8,0.3,1.6h8.6c0.1-0.8,0.2-1.4,0.3-1.6
			c0.7-0.6,9.3-6,7.1-14.2s-7.8-9.8-10.4-10.1c-2.6-0.3-11.8,1.6-13.4,10.4C552.8,54,559.1,57.8,560.3,59.3z"/>
		<g>
			<g>
				<path class="st3" d="M564.3,62.8c0,0,0-6.7-0.5-7.6c-0.5-1-2.7-4.3-3.1-5c-0.4-0.7,0.4-1.5,1-0.5c0.5,0.9,2.7,3.9,3.2,5.2
					c0.5,1.2,0.9,8.2,0.9,8.2L564.3,62.8z"/>
				<path class="st3" d="M568,62.8c0,0,0-6.7,0.5-7.6c0.5-1,2.7-4.3,3.1-5c0.4-0.7-0.4-1.5-1-0.5c-0.5,0.9-2.7,3.9-3.2,5.2
					c-0.5,1.2-0.9,8.2-0.9,8.2L568,62.8z"/>
				<g>
					<path class="st3" d="M571.2,50c-0.9,0.4-2.4,0.5-3.6,0.1l0,0c-0.9,0.7-2.2,0.4-3.2-0.3c-1.2,0.5-2.8,0.5-3.1,0.5v-0.6
						c0.7,0,1.7-0.1,2.5-0.4c-0.7-0.7-0.8-1.5-0.4-2c0.6-0.7,1.3-0.6,1.7-0.3c0.5,0.4,0.8,1.3,0.3,2c-0.1,0.2-0.3,0.3-0.4,0.4
						c0.6,0.4,1.3,0.5,1.9,0.3c-0.2-0.1-0.4-0.3-0.5-0.4c-0.2-0.2-0.4-0.8,0-1.4c0.3-0.5,0.8-0.7,1.2-0.6c0.4,0.1,0.7,0.4,0.8,0.9
						c0.1,0.4,0,0.9-0.3,1.3c0.9,0.2,2.1,0.2,2.8-0.2L571.2,50z M567.2,48.1c-0.1,0.1-0.1,0.1-0.2,0.2c-0.2,0.3-0.2,0.5-0.1,0.7
						c0.1,0.2,0.3,0.3,0.6,0.4c0.3-0.3,0.4-0.6,0.4-1c0-0.2-0.2-0.4-0.4-0.4C567.4,48,567.3,48.1,567.2,48.1z M564.5,49.2
						c0.2-0.1,0.4-0.2,0.5-0.4c0.3-0.4,0.1-0.9-0.2-1.2c-0.3-0.2-0.6-0.1-0.8,0.2c-0.3,0.3,0,0.8,0.4,1.2
						C564.4,49.1,564.4,49.1,564.5,49.2z"/>
				</g>
			</g>
		</g>
		<g>
			<path class="st17" d="M566.1,61.4c-2.4,0-4.5-0.6-4.8-0.8l0.1,0.1c0.3,0.7,0.7,6.2,1.6,8.3c0.2,0.4,0.3,0.6,0.5,0.8
				c0.5,0.3,1.5,0.7,2.6,0.6c1.1,0.1,2.1-0.3,2.6-0.6c0.2-0.1,0.4-0.4,0.5-0.8c0.9-2.1,1.3-7.7,1.6-8.3l0.1-0.1
				C570.6,60.7,568.5,61.4,566.1,61.4z"/>
			<path class="st2" d="M566.1,63.9c1.4,0,2.9-0.2,4.3-0.6c0.1-0.7,0.2-1.2,0.2-1.7c-2.9,1.1-6.2,1.1-9.1,0c0.1,0.5,0.2,1,0.2,1.7
				C563.2,63.7,564.7,63.9,566.1,63.9z"/>
			<path class="st2" d="M566.1,66.7c1.2,0,2.6-0.2,3.9-0.5c0.1-0.6,0.2-1.1,0.3-1.7c-2.7,0.9-5.6,0.9-8.2,0c0.1,0.6,0.2,1.1,0.3,1.7
				C563.5,66.5,564.9,66.7,566.1,66.7z"/>
			<path class="st2" d="M562.5,67.5c0.1,0.6,0.3,1.1,0.4,1.5c0,0.1,0.1,0.1,0.1,0.2c1,0.2,2.1,0.3,3.1,0.3s2-0.1,3.1-0.3
				c0-0.1,0.1-0.1,0.1-0.2c0.2-0.4,0.3-0.9,0.4-1.5C567.4,68.2,564.9,68.2,562.5,67.5z"/>
		</g>
		<ellipse class="st0" cx="566.1" cy="29.2" rx="1.2" ry="3"/>
		<g>
			<path class="st0" d="M547.5,47.3c1.6,0,3,0.5,3,1.2s-1.3,1.2-3,1.2c-1.6,0-3-0.5-3-1.2S545.9,47.3,547.5,47.3z"/>
			<path class="st0" d="M559.7,30.2c0.6,1.5,0.6,3,0,3.2s-1.6-0.8-2.1-2.4c-0.6-1.5-0.6-3,0-3.2S559.1,28.7,559.7,30.2z"/>
			<path class="st0" d="M553.3,33.5c1,1.3,1.5,2.6,1,3s-1.7-0.3-2.8-1.5c-1-1.3-1.5-2.6-1-3C551,31.5,552.3,32.2,553.3,33.5z"/>
			<path class="st0" d="M548.9,39.8c1.5,0.5,2.6,1.5,2.4,2.1c-0.2,0.6-1.6,0.7-3.2,0.2c-1.5-0.5-2.6-1.5-2.4-2.1
				C545.9,39.3,547.4,39.3,548.9,39.8z"/>
		</g>
		<g>
			<path class="st0" d="M584.8,47.3c-1.6,0-3,0.5-3,1.2s1.3,1.2,3,1.2c1.6,0,3-0.5,3-1.2S586.4,47.3,584.8,47.3z"/>
			<path class="st0" d="M572.6,30.2c-0.6,1.5-0.6,3,0,3.2s1.6-0.8,2.1-2.4c0.6-1.5,0.6-3,0-3.2S573.2,28.7,572.6,30.2z"/>
			<path class="st0" d="M579,33.5c-1,1.3-1.5,2.6-1,3s1.7-0.3,2.8-1.5c1-1.3,1.5-2.6,1-3C581.3,31.5,580,32.2,579,33.5z"/>
			<path class="st0" d="M583.4,39.8c-1.5,0.5-2.6,1.5-2.4,2.1c0.2,0.6,1.6,0.7,3.2,0.2c1.5-0.5,2.6-1.5,2.4-2.1
				C586.3,39.3,584.9,39.3,583.4,39.8z"/>
		</g>
	</g>
</g>
</svg>
