<svg xmlns="http://www.w3.org/2000/svg" width="168.492" height="169.696" viewBox="0 0 168.492 169.696">
  <g id="Grupo_29443" data-name="Grupo 29443" transform="translate(-154.932 -241.493)">
    <g id="document">
      <g id="Grupo_29374" data-name="Grupo 29374">
        <path id="Trazado_23646" data-name="Trazado 23646" d="M317.41,292.471l4.519-4.52H317.41Z" fill="#743fb2"/>
        <path id="Trazado_23647" data-name="Trazado 23647" d="M302.432,266.685v26.108h14.526V287.5h5.318V266.685Zm2.212,2.774h9.85v2.774h-9.85Zm10.6,16.623h-10.6v-1.9h10.6Zm4.819-3.372h-15.42v-1.9h15.42Zm0-3.372h-15.42v-1.9h15.42Zm0-3.371h-15.42v-1.9h15.42Z" fill="#9179b7"/>
      </g>
    </g>
    <g id="Grupo_29442" data-name="Grupo 29442">
      <g id="Grupo_29441" data-name="Grupo 29441">
        <g id="Grupo_29386" data-name="Grupo 29386">
          <g id="Grupo_29385" data-name="Grupo 29385">
            <path id="Trazado_23648" data-name="Trazado 23648" d="M254.874,334.961a2.292,2.292,0,0,0-2.34-2.222l-7.569.012-7.577.011a2.29,2.29,0,0,0-2.33,2.228l.051,31.361a2.285,2.285,0,0,0,2.338,2.221l7.567-.01,7.577-.014a2.287,2.287,0,0,0,2.329-2.228Z" fill="#1a222b"/>
            <path id="Trazado_23649" data-name="Trazado 23649" d="M252.184,334.961a2.293,2.293,0,0,0-2.34-2.222l-7.57.012-7.575.011a2.29,2.29,0,0,0-2.332,2.228l.051,31.361a2.285,2.285,0,0,0,2.338,2.221l7.57-.01,7.574-.014a2.287,2.287,0,0,0,2.33-2.228Z" fill="#2c3540"/>
            <path id="Trazado_23650" data-name="Trazado 23650" d="M251.251,337.191a.918.918,0,0,0-.933-.894l-8.039.014-8.043.014a.916.916,0,0,0-.933.891l.041,24.93a.92.92,0,0,0,.935.889l8.038-.014,8.041-.012a.913.913,0,0,0,.932-.891Z" fill="#f2f6fa"/>
            <g id="Grupo_29384" data-name="Grupo 29384">
              <path id="Trazado_23651" data-name="Trazado 23651" d="M245.007,337.622h-10.9V361.63h16.322V337.622Z" fill="#fff"/>
              <rect id="Rectángulo_4481" data-name="Rectángulo 4481" width="6.648" height="1.26" transform="translate(236.506 341.112)" fill="#2d4375"/>
              <rect id="Rectángulo_4482" data-name="Rectángulo 4482" width="6.648" height="1.256" transform="translate(236.506 353.543)" fill="#2d4375"/>
              <rect id="Rectángulo_4483" data-name="Rectángulo 4483" width="8.063" height="1.253" transform="translate(238.381 343.603)" fill="#2d4375"/>
              <rect id="Rectángulo_4484" data-name="Rectángulo 4484" width="9.295" height="1.26" transform="translate(238.381 346.084)" fill="#2d4375"/>
              <rect id="Rectángulo_4485" data-name="Rectángulo 4485" width="3.231" height="1.258" transform="translate(238.381 356.029)" fill="#2d4375"/>
              <rect id="Rectángulo_4486" data-name="Rectángulo 4486" width="9.634" height="1.258" transform="translate(238.381 358.514)" fill="#2d4375"/>
              <rect id="Rectángulo_4487" data-name="Rectángulo 4487" width="6.11" height="1.258" transform="translate(236.506 351.058)" fill="#2d4375"/>
              <rect id="Rectángulo_4488" data-name="Rectángulo 4488" width="11.523" height="1.26" transform="translate(236.492 348.571)" fill="#2d4375"/>
              <g id="Grupo_29375" data-name="Grupo 29375">
                <path id="Trazado_23652" data-name="Trazado 23652" d="M244.127,337.622h-10.02v1.892h16.322v-1.892Z" fill="#17283d"/>
                <rect id="Rectángulo_4489" data-name="Rectángulo 4489" width="0.953" height="0.892" transform="translate(248.743 338.122)" fill="#fff"/>
                <rect id="Rectángulo_4490" data-name="Rectángulo 4490" width="0.954" height="0.892" transform="translate(246.742 338.122)" fill="#fff"/>
              </g>
              <g id="Grupo_29376" data-name="Grupo 29376">
                <path id="Trazado_23653" data-name="Trazado 23653" d="M234.729,341.877l.515-.149-.515-.119v-.473l1.047.363v.474l-1.047.38Z" fill="#cc2221"/>
              </g>
              <g id="Grupo_29377" data-name="Grupo 29377">
                <path id="Trazado_23654" data-name="Trazado 23654" d="M234.729,349.334l.515-.148-.515-.119v-.478l1.047.365v.474l-1.047.382Z" fill="#cc2221"/>
              </g>
              <g id="Grupo_29378" data-name="Grupo 29378">
                <path id="Trazado_23655" data-name="Trazado 23655" d="M234.729,351.821l.515-.15-.515-.12v-.474l1.047.364v.473l-1.047.381Z" fill="#cc2221"/>
              </g>
              <g id="Grupo_29379" data-name="Grupo 29379">
                <path id="Trazado_23656" data-name="Trazado 23656" d="M236.506,344.364l.517-.149-.517-.121v-.474l1.048.365v.473l-1.048.38Z" fill="#cc2221"/>
              </g>
              <g id="Grupo_29380" data-name="Grupo 29380">
                <path id="Trazado_23657" data-name="Trazado 23657" d="M236.506,346.848l.517-.147-.517-.12V346.1l1.048.366v.473l-1.048.38Z" fill="#cc2221"/>
              </g>
              <g id="Grupo_29381" data-name="Grupo 29381">
                <path id="Trazado_23658" data-name="Trazado 23658" d="M234.729,354.306l.515-.15-.515-.117v-.475l1.047.362v.475l-1.047.38Z" fill="#cc2221"/>
              </g>
              <g id="Grupo_29382" data-name="Grupo 29382">
                <path id="Trazado_23659" data-name="Trazado 23659" d="M236.506,356.792l.517-.149-.517-.119v-.477l1.048.365v.475l-1.048.379Z" fill="#cc2221"/>
              </g>
              <g id="Grupo_29383" data-name="Grupo 29383">
                <path id="Trazado_23660" data-name="Trazado 23660" d="M236.506,359.276l.517-.148-.517-.122v-.471l1.048.363v.475l-1.048.379Z" fill="#cc2221"/>
              </g>
            </g>
            <path id="Trazado_23661" data-name="Trazado 23661" d="M244.321,364.917a1.348,1.348,0,0,0-.935-.371l-1.073,0h-1.075a1.35,1.35,0,0,0-.5.1,1.256,1.256,0,0,0-.82,1.168,1.3,1.3,0,0,0,1.327,1.258l1.075,0h1.073a1.348,1.348,0,0,0,.5-.1,1.264,1.264,0,0,0,.819-1.168A1.212,1.212,0,0,0,244.321,364.917Z" fill="#fff"/>
            <path id="Trazado_23662" data-name="Trazado 23662" d="M244.473,334.239l-2.2,0-2.206,0a.494.494,0,1,0,0,.987l2.206,0h2.206a.513.513,0,0,0,.516-.5A.507.507,0,0,0,244.473,334.239Z" fill="#fff"/>
          </g>
          <path id="Trazado_23663" data-name="Trazado 23663" d="M251.251,337.191s-.42-.894-.933-.894l-8.039.014-8.043.014a.916.916,0,0,0-.933.891l.041,24.93c0,.486.935.889.935.889Z" fill="#fff" opacity="0.3" style="mix-blend-mode: screen;isolation: isolate"/>
        </g>
        <g id="Grupo_29395" data-name="Grupo 29395">
          <g id="Grupo_29391" data-name="Grupo 29391">
            <g id="Grupo_29387" data-name="Grupo 29387">
              <path id="Rectángulo_4491" data-name="Rectángulo 4491" d="M1.236,0H53.891a1.233,1.233,0,0,1,1.233,1.233V35.211a1.236,1.236,0,0,1-1.236,1.236H1.235A1.235,1.235,0,0,1,0,35.212V1.236A1.236,1.236,0,0,1,1.236,0Z" transform="translate(268.3 348.764)" fill="#1a222b"/>
            </g>
            <g id="Grupo_29388" data-name="Grupo 29388">
              <path id="Rectángulo_4492" data-name="Rectángulo 4492" d="M1.237,0H53.89a1.233,1.233,0,0,1,1.233,1.233v33.98a1.234,1.234,0,0,1-1.234,1.234H1.235A1.235,1.235,0,0,1,0,35.212V1.237A1.237,1.237,0,0,1,1.237,0Z" transform="translate(265.975 348.764)" fill="#2c3540"/>
            </g>
            <g id="Grupo_29389" data-name="Grupo 29389">
              <path id="Rectángulo_4493" data-name="Rectángulo 4493" d="M1.221,0H49.9a1.219,1.219,0,0,1,1.219,1.219v30.23a1.22,1.22,0,0,1-1.22,1.22H1.221A1.221,1.221,0,0,1,0,31.448V1.221A1.221,1.221,0,0,1,1.221,0Z" transform="translate(267.978 350.655)" fill="#e4e8ed"/>
            </g>
            <ellipse id="Elipse_1020" data-name="Elipse 1020" cx="22.351" cy="11.385" rx="22.351" ry="11.385" transform="translate(270.858 356.394)" fill="#16405e"/>
            <g id="Grupo_29390" data-name="Grupo 29390">
              <path id="Trazado_23664" data-name="Trazado 23664" d="M279.457,364.929c0-2.035,1.208-2.63,2.781-2.653a15.59,15.59,0,0,1,3.973.407v1.545c-.9-.08-2.924-.141-3.432-.141-.86-.019-1.356.041-1.356,1v.5c0,.815.314.991,1.108.991h1.624c2.013,0,2.43,1.588,2.43,2.722v.686c0,2.333-1.455,2.766-2.844,2.766a13.662,13.662,0,0,1-3.966-.421v-1.545c.562.055,2.274.153,3.579.153.592,0,1.265-.1,1.265-.885V369.5c0-.584-.177-.959-.928-.959h-1.578a2.4,2.4,0,0,1-2.656-2.723Z" fill="#fff"/>
              <path id="Trazado_23665" data-name="Trazado 23665" d="M287.76,362.361h4.5c1.6,0,2.8.75,2.8,3.2,0,2.545-1.065,2.846-1.636,3.026l1.946,4.046h-2.212l-1.7-3.888-1.726-.2v4.085H287.76Zm4.3,4.646c.684,0,1.012-.2,1.012-1.443,0-1.166-.393-1.456-1.012-1.456h-2.329v2.9Z" fill="#fff"/>
              <path id="Trazado_23666" data-name="Trazado 23666" d="M297.052,362.361h2.73l1.71,7.02,1.7-7.02h2.721l.965,10.275H304.94l-.671-6.858-1.658,6.858h-2.2l-1.72-6.858-.608,6.858h-1.942Z" fill="#fff"/>
            </g>
          </g>
          <path id="Trazado_23667" data-name="Trazado 23667" d="M267.978,382.1V351.875a1.222,1.222,0,0,1,1.219-1.22h48.676Z" fill="#fff" opacity="0.3" style="mix-blend-mode: screen;isolation: isolate"/>
          <g id="Grupo_29394" data-name="Grupo 29394">
            <g id="Grupo_29392" data-name="Grupo 29392">
              <path id="Trazado_23668" data-name="Trazado 23668" d="M284.729,385.211H245.378v.714a5.417,5.417,0,0,0,5.417,5.414h67.212a5.416,5.416,0,0,0,5.417-5.414v-.714Z" fill="#1a222b"/>
            </g>
            <g id="Grupo_29393" data-name="Grupo 29393">
              <path id="Trazado_23669" data-name="Trazado 23669" d="M264.547,385.211H244.852v.714a5.416,5.416,0,0,0,5.417,5.414h47.556a5.416,5.416,0,0,0,5.417-5.414v-.714Z" fill="#1a222b"/>
            </g>
          </g>
        </g>
        <g id="Grupo_29397" data-name="Grupo 29397">
          <g id="Grupo_29396" data-name="Grupo 29396">
            <path id="Trazado_23670" data-name="Trazado 23670" d="M212.618,258.584a2.773,2.773,0,0,1-2.771-2.771v-5.63H198.378a2.716,2.716,0,0,0-2.708,2.708v10.023a2.717,2.717,0,0,0,2.708,2.711h3.231l-1.448,4.314c-.142.424.056.584.441.355l7.608-4.519a.765.765,0,0,0,.19-.15h5.968a2.717,2.717,0,0,0,2.709-2.711v-4.33Z" fill="#9179b7"/>
            <path id="Trazado_23671" data-name="Trazado 23671" d="M225.775,245.335H212.618a2.237,2.237,0,0,0-2.229,2.231v8.247a2.235,2.235,0,0,0,2.229,2.229h4.913a.592.592,0,0,0,.154.125l6.26,3.718c.317.188.48.056.363-.293l-1.191-3.55h2.658A2.235,2.235,0,0,0,228,255.813v-8.247A2.236,2.236,0,0,0,225.775,245.335Zm-10.939,8.125a1.421,1.421,0,1,1,1.421-1.419A1.42,1.42,0,0,1,214.836,253.46Zm4.361,0a1.421,1.421,0,1,1,1.42-1.419A1.421,1.421,0,0,1,219.2,253.46Zm4.36,0a1.421,1.421,0,1,1,1.421-1.419A1.421,1.421,0,0,1,223.557,253.46Z" fill="#743fb2"/>
          </g>
        </g>
        <g id="Grupo_29414" data-name="Grupo 29414">
          <rect id="Rectángulo_4494" data-name="Rectángulo 4494" width="22.112" height="2.799" transform="translate(161.256 312.599)" fill="#c5d5e6"/>
          <g id="Grupo_29413" data-name="Grupo 29413">
            <g id="Grupo_29405" data-name="Grupo 29405">
              <g id="Grupo_29404" data-name="Grupo 29404">
                <g id="Grupo_29403" data-name="Grupo 29403">
                  <path id="Trazado_23672" data-name="Trazado 23672" d="M198.764,331.429H181.616v3.33h34.3v-3.33Z" fill="#1a222b"/>
                  <path id="Trazado_23673" data-name="Trazado 23673" d="M196.4,308.517h-9.116v22.912h18.232V308.517Z" fill="#10151a"/>
                  <path id="Trazado_23674" data-name="Trazado 23674" d="M187.29,331.429H170.14v3.33h34.3v-3.33Z" fill="#2c3540"/>
                  <path id="Trazado_23675" data-name="Trazado 23675" d="M188.784,308.517h-9.116v22.912H197.9V308.517Z" fill="#1a222b"/>
                  <rect id="Rectángulo_4495" data-name="Rectángulo 4495" width="18.233" height="16.226" transform="translate(179.667 308.517)" fill="#2c3540" opacity="0.5" style="mix-blend-mode: multiply;isolation: isolate"/>
                  <g id="Grupo_29402" data-name="Grupo 29402">
                    <g id="Grupo_29398" data-name="Grupo 29398">
                      <path id="Rectángulo_4496" data-name="Rectángulo 4496" d="M1.572,0H68.589A1.571,1.571,0,0,1,70.16,1.571V44.817a1.574,1.574,0,0,1-1.574,1.574H1.572A1.572,1.572,0,0,1,0,44.819V1.572A1.572,1.572,0,0,1,1.572,0Z" transform="translate(157.891 274.584)" fill="#1a222b"/>
                    </g>
                    <g id="Grupo_29399" data-name="Grupo 29399">
                      <path id="Rectángulo_4497" data-name="Rectángulo 4497" d="M1.574,0H68.587A1.573,1.573,0,0,1,70.16,1.573V44.818a1.573,1.573,0,0,1-1.573,1.573H1.572A1.572,1.572,0,0,1,0,44.819V1.574A1.574,1.574,0,0,1,1.574,0Z" transform="translate(154.932 274.584)" fill="#2c3540"/>
                    </g>
                    <g id="Grupo_29400" data-name="Grupo 29400">
                      <path id="Trazado_23676" data-name="Trazado 23676" d="M222.542,317.015a1.561,1.561,0,0,1-1.551,1.557H159.034a1.559,1.559,0,0,1-1.554-1.557V278.539a1.553,1.553,0,0,1,1.554-1.547h61.957a1.555,1.555,0,0,1,1.551,1.547Z" fill="#e4e8ed"/>
                    </g>
                    <g id="Grupo_29401" data-name="Grupo 29401">
                      <path id="Trazado_23677" data-name="Trazado 23677" d="M172.78,292.56l-8.284,9.622a12.7,12.7,0,0,1,4.1-21.61Z" fill="#17c5cc"/>
                      <path id="Trazado_23678" data-name="Trazado 23678" d="M182.4,300.844l-9.623-8.284-8.284,9.622a12.618,12.618,0,0,0,5.92,2.851h0a12.754,12.754,0,0,0,6.554-.489h0l0,0A12.627,12.627,0,0,0,182.4,300.844Z" fill="#f4cd25"/>
                      <path id="Trazado_23679" data-name="Trazado 23679" d="M173.122,292.438l-.2.148-.145-.026Z" fill="#f62f48"/>
                      <path id="Trazado_23680" data-name="Trazado 23680" d="M172.781,292.56l9.621,8.284a12.67,12.67,0,0,0,2.856-5.921,12.809,12.809,0,0,0-.492-6.554,12.97,12.97,0,0,0-1.774-3.358,12.69,12.69,0,0,0-1.925-2.072.95.95,0,0,0-.089-.07h0a12.609,12.609,0,0,0-5.834-2.784,12.794,12.794,0,0,0-6.554.487l4.188,11.988.094-.035h0l.246-.084-.2.143Z" fill="#ff4140"/>
                    </g>
                  </g>
                </g>
              </g>
              <path id="Trazado_23681" data-name="Trazado 23681" d="M157.48,317.015V278.539a1.553,1.553,0,0,1,1.554-1.547h61.957Z" fill="#fff" opacity="0.3" style="mix-blend-mode: screen;isolation: isolate"/>
            </g>
            <g id="Grupo_29412" data-name="Grupo 29412">
              <g id="Grupo_29406" data-name="Grupo 29406">
                <rect id="Rectángulo_4498" data-name="Rectángulo 4498" width="4.589" height="10.614" transform="translate(190.633 303.281)" fill="#14b0bf"/>
              </g>
              <g id="Grupo_29407" data-name="Grupo 29407">
                <rect id="Rectángulo_4499" data-name="Rectángulo 4499" width="4.589" height="15.236" transform="translate(196.131 298.659)" fill="#14b0bf"/>
              </g>
              <g id="Grupo_29408" data-name="Grupo 29408">
                <rect id="Rectángulo_4500" data-name="Rectángulo 4500" width="4.59" height="20.28" transform="translate(201.627 293.615)" fill="#14b0bf"/>
              </g>
              <g id="Grupo_29409" data-name="Grupo 29409">
                <rect id="Rectángulo_4501" data-name="Rectángulo 4501" width="4.588" height="17.207" transform="translate(207.824 296.688)" fill="#14b0bf"/>
              </g>
              <g id="Grupo_29410" data-name="Grupo 29410">
                <rect id="Rectángulo_4502" data-name="Rectángulo 4502" width="4.59" height="9.372" transform="translate(213.321 304.523)" fill="#14b0bf"/>
              </g>
              <g id="Grupo_29411" data-name="Grupo 29411">
                <path id="Trazado_23682" data-name="Trazado 23682" d="M219.245,315.781h-31.2a.558.558,0,0,1-.558-.559V293.6a.559.559,0,0,1,1.117,0v21.061h30.643a.56.56,0,0,1,0,1.119Z" fill="#17283d"/>
              </g>
            </g>
            <rect id="Rectángulo_4503" data-name="Rectángulo 4503" width="22.112" height="2.795" transform="translate(161.256 307.843)" fill="#c5d5e6"/>
            <rect id="Rectángulo_4504" data-name="Rectángulo 4504" width="31.729" height="3.416" transform="translate(187.708 280.572)" fill="#c5d5e6"/>
            <rect id="Rectángulo_4505" data-name="Rectángulo 4505" width="31.729" height="3.418" transform="translate(187.708 286.384)" fill="#c5d5e6"/>
          </g>
        </g>
        <g id="Grupo_29425" data-name="Grupo 29425">
          <g id="Grupo_29424" data-name="Grupo 29424">
            <g id="Grupo_29423" data-name="Grupo 29423">
              <g id="Grupo_29422" data-name="Grupo 29422">
                <g id="Grupo_29421" data-name="Grupo 29421">
                  <path id="Trazado_23683" data-name="Trazado 23683" d="M219.867,349.491H168.942a4.115,4.115,0,0,0-4.1,4.1v35.448a4.114,4.114,0,0,0,4.1,4.1h49.486a4.115,4.115,0,0,0,4.1-4.1V353.6C222.532,351.338,222.129,349.491,219.867,349.491Z" fill="#1a222b"/>
                  <path id="Trazado_23684" data-name="Trazado 23684" d="M216.339,349.491H165.413a4.115,4.115,0,0,0-4.1,4.1v35.448a4.114,4.114,0,0,0,4.1,4.1H214.9a4.115,4.115,0,0,0,4.1-4.1V353.6C219,351.338,218.6,349.491,216.339,349.491Z" fill="#2c3540"/>
                  <path id="Trazado_23685" data-name="Trazado 23685" d="M216.493,352.646v37.341a1.04,1.04,0,0,1-1.031,1.025H164.846a1.036,1.036,0,0,1-1.028-1.025V352.646a1.036,1.036,0,0,1,1.028-1.022h50.616A1.04,1.04,0,0,1,216.493,352.646Z" fill="#e4e8ed"/>
                  <g id="Grupo_29415" data-name="Grupo 29415">
                    <path id="Trazado_23686" data-name="Trazado 23686" d="M179.32,354.209h5.047v1.543h-1.688v4.958h-1.725v-4.958H179.32Z" fill="#ff4140"/>
                    <path id="Trazado_23687" data-name="Trazado 23687" d="M184.715,355.718c0-1.339,1.025-1.509,1.652-1.509,0,0,1.865,0,2.906.14V355.8H186.9c-.462,0-.462.258-.462.5v.392l2.39.1v1.43l-2.39.079v.393c0,.471.292.462.55.462h2.284v1.439c-.915.123-2.817.15-2.817.15-.575.018-1.741-.1-1.741-1.457Z" fill="#ff4140"/>
                    <path id="Trazado_23688" data-name="Trazado 23688" d="M189.728,355.915a1.668,1.668,0,0,1,1.759-1.76,6.437,6.437,0,0,1,2.753.294v1.34c-.568-.062-1.545-.088-2.13-.088-.481,0-.659.017-.659.39v.1c0,.274.053.426.533.426h.834a1.685,1.685,0,0,1,1.662,1.884v.292c0,1.653-.923,1.989-1.8,1.989a6.44,6.44,0,0,1-2.745-.3v-1.341c.353.035,1.474.1,2.3.1.382,0,.523-.1.523-.363v-.143c0-.258-.079-.393-.471-.393h-.8a1.681,1.681,0,0,1-1.759-1.881Z" fill="#ff4140"/>
                    <path id="Trazado_23689" data-name="Trazado 23689" d="M194.607,354.209h5.047v1.543h-1.689v4.958h-1.724v-4.958h-1.634Z" fill="#ff4140"/>
                  </g>
                  <g id="Grupo_29420" data-name="Grupo 29420">
                    <g id="Grupo_29416" data-name="Grupo 29416">
                      <rect id="Rectángulo_4506" data-name="Rectángulo 4506" width="35.822" height="5.88" transform="translate(166.426 363.113)" fill="#2c3540"/>
                      <path id="Trazado_23690" data-name="Trazado 23690" d="M212.524,369.417h-6.976V362.69h6.976Zm-6.13-.846h5.285v-5.036h-5.285Z" fill="#2c3540"/>
                    </g>
                    <g id="Grupo_29417" data-name="Grupo 29417">
                      <rect id="Rectángulo_4507" data-name="Rectángulo 4507" width="35.822" height="5.883" transform="translate(166.426 372.85)" fill="#2c3540"/>
                      <path id="Trazado_23691" data-name="Trazado 23691" d="M212.524,379.155h-6.976v-6.726h6.976Zm-6.13-.846h5.285v-5.035h-5.285Z" fill="#2c3540"/>
                    </g>
                    <g id="Grupo_29418" data-name="Grupo 29418">
                      <rect id="Rectángulo_4508" data-name="Rectángulo 4508" width="35.822" height="5.879" transform="translate(166.426 382.59)" fill="#2c3540"/>
                      <path id="Trazado_23692" data-name="Trazado 23692" d="M212.524,388.892h-6.976v-6.724h6.976Zm-6.13-.845h5.285v-5.035h-5.285Z" fill="#2c3540"/>
                    </g>
                    <g id="Grupo_29419" data-name="Grupo 29419">
                      <path id="Trazado_23693" data-name="Trazado 23693" d="M209.282,369.7a.728.728,0,0,1-.626-.353l-2.4-3.984a.73.73,0,0,1,1.25-.753l1.676,2.781,2.569-5.8a.731.731,0,1,1,1.336.593l-3.137,7.08a.729.729,0,0,1-.623.432Z" fill="#ff4140"/>
                    </g>
                  </g>
                </g>
              </g>
              <path id="Trazado_23694" data-name="Trazado 23694" d="M185.23,351.627l-21.412,21.414V366.3l14.672-14.673Z" fill="#fff" opacity="0.2" style="mix-blend-mode: screen;isolation: isolate"/>
              <path id="Trazado_23695" data-name="Trazado 23695" d="M209.141,351.627l-39.385,39.385h-4.912a1.036,1.036,0,0,1-1.026-1.027V378.446l26.817-26.819Z" fill="#fff" opacity="0.2" style="mix-blend-mode: screen;isolation: isolate"/>
            </g>
          </g>
        </g>
        <g id="Grupo_29433" data-name="Grupo 29433">
          <g id="Grupo_29432" data-name="Grupo 29432">
            <g id="Grupo_29430" data-name="Grupo 29430">
              <path id="Trazado_23696" data-name="Trazado 23696" d="M286.8,241.493H247.12a4.607,4.607,0,0,0-4.594,4.594v47.481a4.609,4.609,0,0,0,4.594,4.6H286.8c2.527,0,4.594-.453,4.594-2.982V246.087A4.606,4.606,0,0,0,286.8,241.493Z" fill="#1a222b"/>
              <path id="Trazado_23697" data-name="Trazado 23697" d="M283.151,241.493H243.475a4.608,4.608,0,0,0-4.6,4.594v47.481a4.61,4.61,0,0,0,4.6,4.6h39.676c2.525,0,4.593-.453,4.593-2.982V246.087A4.606,4.606,0,0,0,283.151,241.493Z" fill="#2c3540"/>
              <path id="Trazado_23698" data-name="Trazado 23698" d="M265.153,293.383h-3.68a1.805,1.805,0,1,0,0,3.611h3.68a1.805,1.805,0,1,0,0-3.611Z" fill="#fefefe"/>
              <path id="Trazado_23699" data-name="Trazado 23699" d="M284.213,244.127h-41.8a1.165,1.165,0,0,0-1.15,1.15v45.831a1.168,1.168,0,0,0,1.15,1.149h41.8a1.166,1.166,0,0,0,1.147-1.149V245.277A1.163,1.163,0,0,0,284.213,244.127Z" fill="#f2f6fa"/>
              <g id="Grupo_29426" data-name="Grupo 29426">
                <path id="Trazado_23700" data-name="Trazado 23700" d="M248.811,247.1H251.3c.99,0,1.707.4,1.707,1.791,0,1.326-.435,1.523-.823,1.676l.961,2.11h-1.685l-.717-1.972-.455-.108v2.08h-1.48Zm2.3,2.386c.388,0,.412-.2.412-.6,0-.335-.075-.534-.412-.534H250.3v1.129Z" fill="#ff4140"/>
                <path id="Trazado_23701" data-name="Trazado 23701" d="M255.132,247.1h1.744l1.692,5.577h-1.517l-.327-.974h-1.5l-.319.974h-1.517Zm1.3,3.345-.4-1.493-.465,1.493Z" fill="#ff4140"/>
                <path id="Trazado_23702" data-name="Trazado 23702" d="M258.045,247.1h4.328v1.326h-1.446v4.251h-1.479v-4.251h-1.4Z" fill="#ff4140"/>
                <path id="Trazado_23703" data-name="Trazado 23703" d="M262.674,248.4c0-1.149.879-1.3,1.416-1.3a24.6,24.6,0,0,1,2.492.122v1.242h-2.033c-.4,0-.4.221-.4.427v.335l2.05.084v1.227l-2.05.068v.336c0,.4.252.4.473.4h1.957v1.235c-.784.105-2.415.129-2.415.129-.493.016-1.493-.084-1.493-1.249Z" fill="#ff4140"/>
                <path id="Trazado_23704" data-name="Trazado 23704" d="M268.942,247.1h1.478v3.14c0,.715.016,1.151.739,1.151.678,0,.7-.466.7-1.151V247.1h1.484v3.14c0,2.461-1.257,2.477-2.179,2.477-1.037,0-2.217.06-2.217-2.477Z" fill="#ff4140"/>
                <path id="Trazado_23705" data-name="Trazado 23705" d="M273.875,248.568a1.433,1.433,0,0,1,1.51-1.509,5.524,5.524,0,0,1,2.36.252v1.15c-.488-.052-1.325-.076-1.828-.076-.412,0-.564.016-.564.335v.084c0,.237.046.365.458.365h.716a1.444,1.444,0,0,1,1.424,1.616v.252c0,1.418-.792,1.707-1.545,1.707a5.517,5.517,0,0,1-2.356-.259v-1.15c.306.03,1.265.083,1.975.083.328,0,.448-.083.448-.313v-.121c0-.221-.067-.335-.4-.335h-.685a1.445,1.445,0,0,1-1.51-1.617Z" fill="#ff4140"/>
                <path id="Trazado_23706" data-name="Trazado 23706" d="M279.891,247.113l-.161,4.076h-1.112l-.13-4.076Zm-1.343,4.5a.172.172,0,0,1,.185-.19h.877a.171.171,0,0,1,.174.19v.891a.16.16,0,0,1-.174.175h-.877a.171.171,0,0,1-.185-.175Z" fill="#ff4140"/>
              </g>
              <g id="Grupo_29427" data-name="Grupo 29427">
                <path id="Trazado_23707" data-name="Trazado 23707" d="M250.538,255.3l1.438,3.926,4.177.154-3.287,2.58,1.143,4.021-3.47-2.331-3.47,2.331,1.144-4.021-3.288-2.58,4.177-.154Z" fill="#f4cd25"/>
                <path id="Trazado_23708" data-name="Trazado 23708" d="M263.314,255.3l1.438,3.926,4.176.154-3.287,2.58,1.142,4.021-3.468-2.331-3.471,2.331,1.145-4.021-3.289-2.58,4.177-.154Z" fill="#f4cd25"/>
                <path id="Trazado_23709" data-name="Trazado 23709" d="M276.087,255.3l1.438,3.926,4.176.154-3.287,2.58,1.143,4.021-3.469-2.331-3.471,2.331,1.145-4.021-3.288-2.58,4.177-.154Z" fill="#f4cd25"/>
              </g>
              <g id="Grupo_29428" data-name="Grupo 29428">
                <path id="Trazado_23710" data-name="Trazado 23710" d="M250.538,267.663l1.438,3.924,4.177.155-3.287,2.58,1.143,4.02-3.47-2.33-3.47,2.33,1.144-4.02-3.288-2.58,4.177-.155Z" fill="#f4cd25"/>
                <path id="Trazado_23711" data-name="Trazado 23711" d="M263.314,267.663l1.438,3.924,4.176.155-3.287,2.58,1.142,4.02-3.468-2.33-3.471,2.33,1.145-4.02-3.289-2.58,4.177-.155Z" fill="#f4cd25"/>
              </g>
              <g id="Grupo_29429" data-name="Grupo 29429">
                <path id="Trazado_23712" data-name="Trazado 23712" d="M250.538,279.272l1.438,3.926,4.177.154-3.287,2.579,1.143,4.021-3.47-2.329-3.47,2.329,1.144-4.021-3.288-2.579,4.177-.154Z" fill="#f4cd25"/>
              </g>
            </g>
            <g id="Grupo_29431" data-name="Grupo 29431" opacity="0.5" style="mix-blend-mode: screen;isolation: isolate">
              <path id="Trazado_23713" data-name="Trazado 23713" d="M247.7,244.127l-6.437,6.436v10.679l17.118-17.115Z" fill="#fff"/>
              <path id="Trazado_23714" data-name="Trazado 23714" d="M284.213,244.127H265.127l-23.862,23.86v21.007l44.03-44.03A1.148,1.148,0,0,0,284.213,244.127Z" fill="#fff"/>
            </g>
          </g>
        </g>
        <g id="Grupo_29435" data-name="Grupo 29435">
          <path id="Rectángulo_4509" data-name="Rectángulo 4509" d="M2.191,0H38.6a2.192,2.192,0,0,1,2.192,2.192v8.746A2.193,2.193,0,0,1,38.6,13.132H2.193A2.193,2.193,0,0,1,0,10.938V2.191A2.191,2.191,0,0,1,2.191,0Z" transform="translate(232.318 398.057)" fill="#cc2221"/>
          <path id="Rectángulo_4510" data-name="Rectángulo 4510" d="M2.191,0H38.6a2.191,2.191,0,0,1,2.191,2.191v8.747A2.193,2.193,0,0,1,38.6,13.132H2.193A2.193,2.193,0,0,1,0,10.939V2.191A2.191,2.191,0,0,1,2.191,0Z" transform="translate(229.395 398.057)" fill="#ff4140"/>
          <g id="Grupo_29434" data-name="Grupo 29434">
            <path id="Trazado_23715" data-name="Trazado 23715" d="M234.314,402.843a5.093,5.093,0,0,1,1.541.2v.663c-.006,0-.749-.084-1.342-.084-.619,0-.857.142-.857,1.48,0,.991.164,1.469.861,1.469.634,0,1.338-.049,1.338-.049v.662a5.084,5.084,0,0,1-1.541.166c-1.118-.01-1.5-.857-1.5-2.26S233.112,402.843,234.314,402.843Z" fill="#fff"/>
            <path id="Trazado_23716" data-name="Trazado 23716" d="M237.963,402.862c1.045,0,1.773.2,1.773,2.271,0,1.952-.685,2.206-1.773,2.206s-1.78-.193-1.78-2.206C236.183,403.061,236.947,402.862,237.963,402.862Zm0,3.7c.71,0,.927-.234.927-1.427,0-1.378-.255-1.492-.927-1.492-.655,0-.934.085-.934,1.492C237.029,406.341,237.207,406.56,237.963,406.56Z" fill="#fff"/>
            <path id="Trazado_23717" data-name="Trazado 23717" d="M240.3,402.892h.858l1.755,2.858v-2.858h.846v4.423h-.846l-1.762-2.825v2.825H240.3Z" fill="#fff"/>
            <path id="Trazado_23718" data-name="Trazado 23718" d="M244.218,402.892h3.269v.779h-1.229v3.644h-.847v-3.644h-1.193Z" fill="#fff"/>
            <path id="Trazado_23719" data-name="Trazado 23719" d="M248.613,402.892h.962l1.437,4.423h-.9l-.314-.98h-1.449l-.319.98h-.909Zm.983,2.693-.5-1.579-.531,1.579Z" fill="#fff"/>
            <path id="Trazado_23720" data-name="Trazado 23720" d="M252.669,402.843a5.1,5.1,0,0,1,1.541.2v.663c-.006,0-.749-.084-1.342-.084-.619,0-.857.142-.857,1.48,0,.991.164,1.469.861,1.469.634,0,1.338-.049,1.338-.049v.662a5.088,5.088,0,0,1-1.541.166c-1.118-.01-1.5-.857-1.5-2.26S251.467,402.843,252.669,402.843Z" fill="#fff"/>
            <path id="Trazado_23721" data-name="Trazado 23721" d="M254.548,402.892h3.269v.779h-1.229v3.644h-.847v-3.644h-1.193Z" fill="#fff"/>
            <path id="Trazado_23722" data-name="Trazado 23722" d="M259.816,402.892h.846v2.489c0,1.011.225,1.185.858,1.185.565,0,.822-.208.822-1.185v-2.489h.852v2.489c0,1.953-.943,1.964-1.674,1.964-.822,0-1.7.048-1.7-1.964Z" fill="#fff"/>
            <path id="Trazado_23723" data-name="Trazado 23723" d="M263.758,404c0-.876.519-1.132,1.2-1.142a6.657,6.657,0,0,1,1.71.175v.665c-.387-.034-1.258-.061-1.478-.061-.369-.008-.583.018-.583.429v.216c0,.35.135.427.477.427h.7c.866,0,1.045.682,1.045,1.171v.3c0,1-.625,1.19-1.224,1.19a5.88,5.88,0,0,1-1.707-.181v-.665c.243.025.979.067,1.541.067.254,0,.544-.042.544-.381v-.239c0-.251-.076-.412-.4-.412h-.68a1.033,1.033,0,0,1-1.141-1.173Z" fill="#fff"/>
          </g>
        </g>
        <g id="Grupo_29440" data-name="Grupo 29440">
          <g id="Grupo_29437" data-name="Grupo 29437">
            <path id="Trazado_23724" data-name="Trazado 23724" d="M317.4,303.8H298.6a3.2,3.2,0,0,0-3.187,3.187v11.785a3.2,3.2,0,0,0,3.187,3.185h7.018a.789.789,0,0,0,.22.178l6.538,5.424s2.807.046,2.9-.031.111-.247.027-.5l-.6-1.786h0l-1.1-3.288h3.8a3.2,3.2,0,0,0,3.187-3.185V306.99A3.2,3.2,0,0,0,317.4,303.8Z" fill="#d9a60f"/>
            <g id="Grupo_29436" data-name="Grupo 29436">
              <path id="Trazado_23725" data-name="Trazado 23725" d="M304.089,313.613a1.892,1.892,0,1,1-1.89-1.893A1.892,1.892,0,0,1,304.089,313.613Z" fill="#d9a60f"/>
              <path id="Trazado_23726" data-name="Trazado 23726" d="M309.9,313.613A1.892,1.892,0,1,1,308,311.72,1.894,1.894,0,0,1,309.9,313.613Z" fill="#d9a60f"/>
              <path id="Trazado_23727" data-name="Trazado 23727" d="M315.7,313.613a1.893,1.893,0,1,1-1.891-1.893A1.893,1.893,0,0,1,315.7,313.613Z" fill="#d9a60f"/>
            </g>
          </g>
          <g id="Grupo_29439" data-name="Grupo 29439">
            <path id="Trazado_23728" data-name="Trazado 23728" d="M303.961,309.309H280.105a4.051,4.051,0,0,0-4.041,4.042V328.3a4.053,4.053,0,0,0,4.041,4.043h4.819l-1.844,5.493-2.7,1.624,11.657-5.262,2.742-1.629a1.1,1.1,0,0,0,.279-.226h8.906A4.053,4.053,0,0,0,308,328.3V313.351A4.051,4.051,0,0,0,303.961,309.309Z" fill="#cc2221"/>
            <path id="Trazado_23729" data-name="Trazado 23729" d="M301.291,309.309H277.434a4.052,4.052,0,0,0-4.041,4.042V328.3a4.053,4.053,0,0,0,4.041,4.043h4.819l-1.843,5.493-.317.945a1.658,1.658,0,0,0-.041.161c-.08.367.048.559.325.518a1.044,1.044,0,0,0,.374-.149l8.612-5.113,2.743-1.629a1.09,1.09,0,0,0,.278-.226h8.907a4.052,4.052,0,0,0,4.041-4.043V313.351A4.051,4.051,0,0,0,301.291,309.309Z" fill="#ff4140"/>
            <path id="Trazado_23730" data-name="Trazado 23730" d="M314.733,303.8h-18.8a3.2,3.2,0,0,0-3.186,3.187v11.785a3.2,3.2,0,0,0,3.186,3.185h7.019a.837.837,0,0,0,.22.178l2.161,1.283,6.787,4.034c.227.132.4.153.491.076s.111-.247.027-.5l-.6-1.786h0l-1.1-3.288h3.8a3.2,3.2,0,0,0,3.186-3.185V306.99A3.2,3.2,0,0,0,314.733,303.8Z" fill="#f4cd25"/>
            <g id="Grupo_29438" data-name="Grupo 29438">
              <path id="Trazado_23731" data-name="Trazado 23731" d="M301.419,313.613a1.893,1.893,0,1,1-1.891-1.893A1.893,1.893,0,0,1,301.419,313.613Z" fill="#fff"/>
              <path id="Trazado_23732" data-name="Trazado 23732" d="M307.226,313.613a1.892,1.892,0,1,1-1.894-1.893A1.893,1.893,0,0,1,307.226,313.613Z" fill="#fff"/>
              <path id="Trazado_23733" data-name="Trazado 23733" d="M313.033,313.613a1.893,1.893,0,1,1-1.893-1.893A1.894,1.894,0,0,1,313.033,313.613Z" fill="#fff"/>
            </g>
          </g>
        </g>
      </g>
    </g>
  </g>
</svg>
