<svg xmlns="http://www.w3.org/2000/svg" xmlns:xlink="http://www.w3.org/1999/xlink" width="295.242" height="263.604" viewBox="0 0 295.242 263.604">
  <defs>
    <radialGradient id="radial-gradient" cx="0.5" cy="0.5" r="0.387" gradientTransform="translate(-0.185) scale(1.371 1)" gradientUnits="objectBoundingBox">
      <stop offset="0.343" stop-color="#fff"/>
      <stop offset="0.607" stop-color="#92a3b0"/>
      <stop offset="1" stop-color="#fff"/>
    </radialGradient>
    <radialGradient id="radial-gradient-2" cx="0.828" cy="0.498" r="0.396" gradientTransform="translate(-0.491) scale(1.982 1)" gradientUnits="objectBoundingBox">
      <stop offset="0.263" stop-color="#fff"/>
      <stop offset="0.713" stop-color="#92a3b0"/>
      <stop offset="1" stop-color="#fff"/>
    </radialGradient>
    <linearGradient id="linear-gradient" x1="0.173" y1="0.509" x2="1.298" y2="0.475" gradientUnits="objectBoundingBox">
      <stop offset="0.056" stop-color="#92a3b0"/>
      <stop offset="1" stop-color="#fff"/>
    </linearGradient>
    <clipPath id="clip-path">
      <path id="Trazado_24638" data-name="Trazado 24638" d="M323.527,802.329l19.75,11.25,2-1.25.75-46.25,21.5,8.75.75,28,3.75-1,20,11.25.5,55.75-69-37.5Z" fill="none"/>
    </clipPath>
    <radialGradient id="radial-gradient-3" cx="0.5" cy="0.5" r="0.382" gradientTransform="matrix(1.213, 0.714, -1.229, 0.696, 28.08, 12.967)" gradientUnits="objectBoundingBox">
      <stop offset="0.263" stop-color="#fff"/>
      <stop offset="0.333" stop-color="#f7f8f9"/>
      <stop offset="0.436" stop-color="#e4e8eb"/>
      <stop offset="0.56" stop-color="#c3ccd3"/>
      <stop offset="0.699" stop-color="#96a6b3"/>
      <stop offset="0.713" stop-color="#92a3b0"/>
      <stop offset="1" stop-color="#fff"/>
    </radialGradient>
  </defs>
  <g id="Grupo_29828" data-name="Grupo 29828" transform="translate(-300.819 -668.477)">
    <path id="Trazado_24455" data-name="Trazado 24455" d="M451.588,725.145c-.014-2.621-3.706-4.753-8.246-4.761s-8.209,2.11-8.2,4.731c.013,2.4,3.109,4.382,7.114,4.709l.007,1.329c-.759.116-1.319.511-1.317.987l.025,4.535c0,.568.8,1.03,1.786,1.031l1.348,0c.983,0,1.778-.457,1.775-1.025l-.025-4.536c0-.475-.567-.873-1.327-.991l-.007-1.329C448.527,729.516,451.6,727.544,451.588,725.145Z" fill="#fff"/>
    <g id="Grupo_29779" data-name="Grupo 29779">
      <path id="Trazado_24456" data-name="Trazado 24456" d="M551.1,910.71,408.365,828.252c-5.526-3.191-10.006-11.75-10.006-19.118V679.286c0-7.368,4.48-10.755,10.006-7.565L551.1,754.18c5.526,3.19,10.006,11.75,10.006,19.118V903.146C561.109,910.514,556.629,913.9,551.1,910.71Z" fill="#d1ebff"/>
      <path id="Trazado_24457" data-name="Trazado 24457" d="M555.059,752.136,412.321,669.677a6.763,6.763,0,0,0-5.855-.859c-.209.081-4.12,2.1-4.316,2.21l-.01.006c1.7-.828,3.868-.674,6.225.687L551.1,754.18c5.526,3.19,10.006,11.75,10.006,19.118V903.146c0,4.6-1.746,7.645-4.4,8.511a1.655,1.655,0,0,0,.877-.3c.126-.073,4.275-2.319,4.4-2.4,1.9-1.331,3.084-4.066,3.084-7.853V771.254C565.065,763.886,560.585,755.326,555.059,752.136Z" fill="#3f92d1"/>
      <path id="Trazado_24458" data-name="Trazado 24458" d="M553.939,752.673,411.2,670.215a6.762,6.762,0,0,0-5.855-.859c-.209.081-3,1.563-3.2,1.672l-.01.006c1.7-.828,3.868-.674,6.225.687L551.1,754.18Z" fill="#4f9fdb"/>
      <path id="Trazado_24459" data-name="Trazado 24459" d="M551.583,753.94,408.845,671.481c-2.266-1.308-4.349-1.494-6.027-.77a7.388,7.388,0,0,1,4.826,1.131L550.382,754.3c5.527,3.19,10.006,11.75,10.006,19.118V903.266c0,4.347-1.566,7.292-3.979,8.334,3.087-.489,5.18-3.66,5.18-8.694V773.058C561.589,765.69,557.109,757.13,551.583,753.94Z" fill="#fff" style="mix-blend-mode: screen;isolation: isolate"/>
      <path id="Trazado_24460" data-name="Trazado 24460" d="M403.979,690.83v118.3c0,5.779,2.75,11.427,7.2,14.253l141.215,81.569.234.134a1.915,1.915,0,0,0,2.864-1.662V778.356Z" fill="#03336e"/>
      <path id="Trazado_24461" data-name="Trazado 24461" d="M555.287,904.024l-.234-.134L413.838,822.321c-4.447-2.826-7.2-8.473-7.2-14.252v-115.7l-2.661-1.538v118.3c0,5.779,2.75,11.427,7.2,14.253l141.215,81.569.234.134a1.911,1.911,0,0,0,2.747-1.031C555.344,904.044,555.315,904.04,555.287,904.024Z" fill="#001a46"/>
      <g id="Grupo_29778" data-name="Grupo 29778">
        <path id="Trazado_24462" data-name="Trazado 24462" d="M547.54,764.151a6.068,6.068,0,0,0,2.754,4.75c1.521.878,2.754.175,2.754-1.57a6.068,6.068,0,0,0-2.754-4.75C548.773,761.7,547.54,762.406,547.54,764.151Z" fill="#fc0"/>
        <path id="Trazado_24463" data-name="Trazado 24463" d="M540.437,760.025a6.068,6.068,0,0,0,2.754,4.75c1.521.878,2.754.175,2.754-1.57a6.068,6.068,0,0,0-2.754-4.75C541.67,757.577,540.437,758.28,540.437,760.025Z" fill="#eb4680"/>
        <path id="Trazado_24464" data-name="Trazado 24464" d="M533.335,755.9a6.07,6.07,0,0,0,2.753,4.75c1.521.878,2.754.175,2.754-1.57a6.068,6.068,0,0,0-2.754-4.75C534.568,753.451,533.335,754.154,533.335,755.9Z" fill="#0fbab8"/>
      </g>
    </g>
    <g id="Grupo_29780" data-name="Grupo 29780">
      <path id="Trazado_24465" data-name="Trazado 24465" d="M423.1,726.205l-8.37-4.832c-.846-.488-1.531-.1-1.531.873a3.373,3.373,0,0,0,1.531,2.641l8.37,4.832c.845.488,1.531.1,1.531-.873A3.377,3.377,0,0,0,423.1,726.205Z" fill="#72b5e8"/>
      <path id="Trazado_24466" data-name="Trazado 24466" d="M436.881,734.161l-8.37-4.832c-.845-.489-1.531-.1-1.531.873a3.374,3.374,0,0,0,1.531,2.64l8.37,4.833c.845.488,1.531.1,1.531-.873A3.375,3.375,0,0,0,436.881,734.161Z" fill="#3f92d1"/>
      <path id="Trazado_24467" data-name="Trazado 24467" d="M450.66,742.116l-8.369-4.832c-.846-.488-1.532-.1-1.532.873a3.374,3.374,0,0,0,1.532,2.641l8.369,4.832c.846.488,1.531.1,1.531-.873A3.374,3.374,0,0,0,450.66,742.116Z" fill="#3f92d1"/>
      <path id="Trazado_24468" data-name="Trazado 24468" d="M464.44,750.072l-8.37-4.832c-.846-.488-1.531-.1-1.531.873a3.371,3.371,0,0,0,1.531,2.64l8.37,4.833c.845.488,1.531.1,1.531-.873A3.375,3.375,0,0,0,464.44,750.072Z" fill="#3f92d1"/>
      <path id="Trazado_24469" data-name="Trazado 24469" d="M478.27,758.145l-8.37-4.832c-.846-.489-1.531-.1-1.531.872a3.371,3.371,0,0,0,1.531,2.641l8.37,4.833c.845.488,1.531.1,1.531-.873A3.374,3.374,0,0,0,478.27,758.145Zm13.779,7.955-8.37-4.832c-.845-.488-1.531-.1-1.531.873a3.376,3.376,0,0,0,1.531,2.641l8.37,4.832c.846.488,1.531.1,1.531-.873A3.375,3.375,0,0,0,492.049,766.1Zm13.78,7.956-8.37-4.832c-.846-.489-1.531-.1-1.531.873a3.371,3.371,0,0,0,1.531,2.64l8.37,4.833c.845.488,1.531.1,1.531-.873A3.375,3.375,0,0,0,505.829,774.056Zm13.779,7.955-8.37-4.832c-.845-.488-1.531-.1-1.531.873a3.374,3.374,0,0,0,1.531,2.641l8.37,4.832c.845.488,1.531.1,1.531-.873A3.377,3.377,0,0,0,519.608,782.011Z" fill="#3f92d1"/>
    </g>
    <g id="Grupo_29785" data-name="Grupo 29785">
      <g id="Grupo_29781" data-name="Grupo 29781">
        <path id="Trazado_24470" data-name="Trazado 24470" d="M452.026,777.258v-1.793l-13.763-7.793v1.793Z" fill="#72b5e8"/>
        <path id="Trazado_24471" data-name="Trazado 24471" d="M413.379,733.358v1.793l43.343,24.688v-1.793Z" fill="#3f92d1"/>
        <path id="Trazado_24472" data-name="Trazado 24472" d="M442.881,765.212l-29.5-16.952v1.793l29.5,16.952Z" fill="#fff"/>
        <path id="Trazado_24473" data-name="Trazado 24473" d="M460.137,764.6l-46.758-26.821v3.306l46.758,26.821Z" fill="#0fbab8"/>
        <path id="Trazado_24474" data-name="Trazado 24474" d="M435.837,757.42l-22.457-12.885v1.793l22.457,12.885Z" fill="#fff"/>
        <path id="Trazado_24475" data-name="Trazado 24475" d="M437.6,758.439v1.793l40.345,22.931V781.37Z" fill="#fff"/>
        <path id="Trazado_24476" data-name="Trazado 24476" d="M444.646,766.231v1.793l20.408,11.689V777.92Z" fill="#fff"/>
        <path id="Trazado_24477" data-name="Trazado 24477" d="M461.9,768.929l30.845,17.479V783.1L461.9,765.624Z" fill="#0fbab8"/>
        <path id="Trazado_24478" data-name="Trazado 24478" d="M479.712,784.182l13.036,7.464v-1.793l-13.036-7.465Z" fill="#fff"/>
        <path id="Trazado_24479" data-name="Trazado 24479" d="M466.819,780.732l25.929,14.64v-1.793l-25.929-14.64Z" fill="#fff"/>
        <path id="Trazado_24480" data-name="Trazado 24480" d="M436.5,766.653l-23.119-13.267v1.793L436.5,768.445Z" fill="#72b5e8"/>
        <path id="Trazado_24481" data-name="Trazado 24481" d="M453.791,778.277l14.089,8.037v-1.793l-14.089-8.037Z" fill="#72b5e8"/>
      </g>
      <g id="Grupo_29783" data-name="Grupo 29783">
        <path id="Trazado_24482" data-name="Trazado 24482" d="M452.026,807.7v-1.793l-13.763-7.793v1.793Z" fill="#72b5e8"/>
        <path id="Trazado_24483" data-name="Trazado 24483" d="M413.379,763.8V765.6l43.343,24.688v-1.793Z" fill="#3f92d1"/>
        <path id="Trazado_24484" data-name="Trazado 24484" d="M442.881,795.659l-29.5-16.952V780.5l29.5,16.952Z" fill="#fff"/>
        <path id="Trazado_24485" data-name="Trazado 24485" d="M440.2,783.714,413.379,768.23v3.306L440.2,787.02Z" fill="#0fbab8"/>
        <path id="Trazado_24486" data-name="Trazado 24486" d="M430.417,784.827l-17.038-9.846v1.793l17.038,9.846Z" fill="#fff"/>
        <path id="Trazado_24487" data-name="Trazado 24487" d="M432.183,785.846v1.793l45.764,25.97v-1.793Z" fill="#fff"/>
        <path id="Trazado_24488" data-name="Trazado 24488" d="M444.646,796.678v1.793l14.716,8.51v-1.793Z" fill="#fff"/>
        <path id="Trazado_24489" data-name="Trazado 24489" d="M479.712,814.628l13.036,7.464V820.3l-13.036-7.464Z" fill="#fff"/>
        <path id="Trazado_24490" data-name="Trazado 24490" d="M461.127,808l20.86,11.677v-1.793l-20.86-11.677Z" fill="#fff"/>
        <path id="Trazado_24491" data-name="Trazado 24491" d="M436.5,797.1l-23.119-13.267v1.793L436.5,798.892Z" fill="#72b5e8"/>
        <path id="Trazado_24492" data-name="Trazado 24492" d="M453.791,808.723l14.089,8.037v-1.793l-14.089-8.037Z" fill="#72b5e8"/>
        <g id="Grupo_29782" data-name="Grupo 29782">
          <path id="Trazado_24493" data-name="Trazado 24493" d="M471.207,801.326l-29.244-16.593v3.306l29.244,16.593Z" fill="#0fbab8"/>
          <path id="Trazado_24494" data-name="Trazado 24494" d="M473,802.346v3.306l19.744,11.2v-3.306Z" fill="#0fbab8"/>
        </g>
      </g>
      <g id="Grupo_29784" data-name="Grupo 29784">
        <path id="Trazado_24495" data-name="Trazado 24495" d="M452.026,837.394V835.6l-13.763-7.793V829.6Z" fill="#72b5e8"/>
        <path id="Trazado_24496" data-name="Trazado 24496" d="M413.379,793.494v1.793l43.343,24.688v-1.793Z" fill="#3f92d1"/>
        <path id="Trazado_24497" data-name="Trazado 24497" d="M442.881,825.349l-29.5-16.952v1.793l29.5,16.952Z" fill="#fff"/>
        <path id="Trazado_24498" data-name="Trazado 24498" d="M460.137,824.741,413.379,797.92v3.306l46.758,26.821Z" fill="#0fbab8"/>
        <path id="Trazado_24499" data-name="Trazado 24499" d="M435.837,817.556l-22.457-12.885v1.793l22.457,12.885Z" fill="#fff"/>
        <path id="Trazado_24500" data-name="Trazado 24500" d="M437.6,818.575v1.793L477.947,843.3v-1.793Z" fill="#fff"/>
        <path id="Trazado_24501" data-name="Trazado 24501" d="M444.646,826.368v1.793l20.408,11.689v-1.793Z" fill="#fff"/>
        <path id="Trazado_24502" data-name="Trazado 24502" d="M461.9,829.066l30.845,17.479v-3.306L461.9,825.76Z" fill="#0fbab8"/>
        <path id="Trazado_24503" data-name="Trazado 24503" d="M479.712,844.318l13.036,7.464V849.99l-13.036-7.464Z" fill="#fff"/>
        <path id="Trazado_24504" data-name="Trazado 24504" d="M466.819,840.868l25.929,14.64v-1.793l-25.929-14.64Z" fill="#fff"/>
        <path id="Trazado_24505" data-name="Trazado 24505" d="M436.5,826.789l-23.119-13.267v1.793L436.5,828.582Z" fill="#72b5e8"/>
        <path id="Trazado_24506" data-name="Trazado 24506" d="M453.791,838.413l14.089,8.037v-1.793l-14.089-8.037Z" fill="#72b5e8"/>
      </g>
    </g>
    <g id="Grupo_29786" data-name="Grupo 29786">
      <path id="Trazado_24507" data-name="Trazado 24507" d="M519.813,776.293l-63.48-36.771c-2.114-1.22-3.827-4.494-3.827-7.312V731.6c0-2.818,1.713-4.113,3.827-2.893l63.48,36.771c2.113,1.22,3.827,4.494,3.827,7.312v.607C523.64,776.218,521.926,777.514,519.813,776.293Z" fill="#72b5e8"/>
      <path id="Trazado_24508" data-name="Trazado 24508" d="M521.209,775.882l-63.479-36.77c-2.114-1.221-3.827-4.494-3.827-7.313v-.607a3.632,3.632,0,0,1,1.084-2.928c-1.448-.11-2.481,1.154-2.481,3.339v.607c0,2.818,1.713,6.092,3.827,7.312l63.48,36.771a2.343,2.343,0,0,0,2.742.036A3.188,3.188,0,0,1,521.209,775.882Z" fill="#3f92d1"/>
      <path id="Trazado_24509" data-name="Trazado 24509" d="M418.943,716.318h0a3.682,3.682,0,0,1-1.83-.546,7.926,7.926,0,0,1-3.644-6.288c0-1.815,1.013-3.034,2.52-3.034a3.671,3.671,0,0,1,1.829.546,7.924,7.924,0,0,1,3.645,6.288,3.4,3.4,0,0,1-.659,2.159A2.331,2.331,0,0,1,418.943,716.318Zm-2.954-8.458c-1,0-1.11,1.135-1.11,1.624a6.581,6.581,0,0,0,2.939,5.066c.8.465,1.509.482,1.887.011a2.041,2.041,0,0,0,.348-1.277,6.582,6.582,0,0,0-2.94-5.067A2.333,2.333,0,0,0,415.989,707.86Z" fill="#72b5e8"/>
      <path id="Trazado_24510" data-name="Trazado 24510" d="M427.99,721.723h0a3.674,3.674,0,0,1-1.83-.547,7.923,7.923,0,0,1-3.644-6.288c0-1.815,1.012-3.034,2.519-3.034a3.682,3.682,0,0,1,1.83.546,7.926,7.926,0,0,1,3.645,6.289,3.405,3.405,0,0,1-.659,2.159A2.335,2.335,0,0,1,427.99,721.723Zm-2.955-8.459c-1,0-1.109,1.136-1.109,1.624a6.583,6.583,0,0,0,2.939,5.067c.805.465,1.509.482,1.886.011a2.043,2.043,0,0,0,.349-1.277,6.583,6.583,0,0,0-2.94-5.068A2.334,2.334,0,0,0,425.035,713.264Z" fill="#eb4680"/>
      <path id="Trazado_24511" data-name="Trazado 24511" d="M437.154,727.127h0a3.668,3.668,0,0,1-1.829-.546,7.924,7.924,0,0,1-3.645-6.288c0-1.815,1.013-3.034,2.52-3.034a3.678,3.678,0,0,1,1.829.546,7.924,7.924,0,0,1,3.645,6.288,3.4,3.4,0,0,1-.659,2.159A2.331,2.331,0,0,1,437.154,727.127Zm-2.954-8.458c-1,0-1.11,1.136-1.11,1.624a6.585,6.585,0,0,0,2.939,5.067c.805.464,1.51.481,1.887.011a2.046,2.046,0,0,0,.348-1.278,6.583,6.583,0,0,0-2.939-5.067A2.34,2.34,0,0,0,434.2,718.669Z" fill="#ffd70f"/>
      <path id="Trazado_24512" data-name="Trazado 24512" d="M446.2,732.532h0a3.673,3.673,0,0,1-1.83-.547,7.923,7.923,0,0,1-3.644-6.288c0-1.814,1.013-3.034,2.519-3.034a3.682,3.682,0,0,1,1.83.546,7.926,7.926,0,0,1,3.645,6.289,3.4,3.4,0,0,1-.659,2.159A2.334,2.334,0,0,1,446.2,732.532Zm-2.955-8.459c-1,0-1.109,1.136-1.109,1.624a6.583,6.583,0,0,0,2.939,5.067c.805.465,1.509.482,1.887.011a2.047,2.047,0,0,0,.348-1.277,6.58,6.58,0,0,0-2.94-5.067A2.336,2.336,0,0,0,443.246,724.073Z" fill="#0fbab8"/>
    </g>
    <g id="Grupo_29800" data-name="Grupo 29800">
      <path id="Trazado_24513" data-name="Trazado 24513" d="M569.773,926.28l-29.127-16.689a2.9,2.9,0,0,0-1.689-2.194l-25.1-14.05a7.7,7.7,0,0,0-6.928-.287l-3.992,2.389c-1.776,1.025-1.553,2.816.5,4l25.1,14.05a7.862,7.862,0,0,0,3.323.948l29.377,16.832a6.308,6.308,0,0,0,5.676.235l3.271-1.957C571.636,928.717,571.453,927.25,569.773,926.28Z" fill="#92b4d1" opacity="0.2"/>
      <g id="Grupo_29787" data-name="Grupo 29787">
        <path id="Trazado_24514" data-name="Trazado 24514" d="M578.648,844.832a.5.5,0,0,1-.03-1,17.321,17.321,0,0,0,1.93-.224.5.5,0,0,1,.17.987,19.062,19.062,0,0,1-2.039.235Zm-2.995-.038-.043,0c-.666-.056-1.346-.143-2.024-.258a.5.5,0,0,1-.409-.577.506.506,0,0,1,.577-.409c.649.111,1.3.194,1.94.248a.5.5,0,0,1-.041,1Zm-4.908-.925a.517.517,0,0,1-.139-.019q-.954-.276-1.932-.625a.5.5,0,1,1,.338-.942q.945.339,1.872.606a.5.5,0,0,1-.139.98Zm12.78-.032a.5.5,0,0,1-.171-.97,15.5,15.5,0,0,0,1.773-.775.5.5,0,1,1,.457.888,16.318,16.318,0,0,1-1.888.827A.509.509,0,0,1,583.525,843.837Zm4.346-2.424a.5.5,0,0,1-.31-.893A15.6,15.6,0,0,0,589,839.229a.5.5,0,0,1,.711.7,16.894,16.894,0,0,1-1.534,1.373A.5.5,0,0,1,587.871,841.413Zm3.4-3.638a.5.5,0,0,1-.411-.785,19.126,19.126,0,0,0,1.028-1.653.5.5,0,0,1,.875.484c-.335.6-.7,1.189-1.08,1.739A.5.5,0,0,1,591.269,837.775Zm2.32-4.412a.5.5,0,0,1-.466-.68c.229-.593.443-1.216.635-1.855a.5.5,0,1,1,.957.287c-.2.663-.42,1.313-.66,1.929A.5.5,0,0,1,593.589,833.363Zm1.357-4.8a.508.508,0,0,1-.094-.009.5.5,0,0,1-.4-.584q.179-.948.307-1.946a.5.5,0,0,1,.992.127q-.13,1.027-.317,2A.5.5,0,0,1,594.946,828.56Zm.569-4.962h-.024a.5.5,0,0,1-.475-.523q.045-.967.045-1.975a.5.5,0,0,1,1,0q0,1.031-.047,2.022A.5.5,0,0,1,595.515,823.6Z" fill="#f76195"/>
      </g>
      <g id="Grupo_29788" data-name="Grupo 29788">
        <path id="Trazado_24515" data-name="Trazado 24515" d="M590.8,799.277a.5.5,0,0,1-.463-.311q-.375-.921-.773-1.834a.5.5,0,0,1,.916-.4q.405.927.783,1.858a.5.5,0,0,1-.275.651A.481.481,0,0,1,590.8,799.277Zm-2.031-4.572a.5.5,0,0,1-.451-.283q-.43-.9-.886-1.779a.5.5,0,1,1,.888-.458q.462.9.9,1.8a.5.5,0,0,1-.234.667A.491.491,0,0,1,588.769,794.705Zm-2.314-4.434a.5.5,0,0,1-.436-.255q-.488-.865-1-1.72a.5.5,0,1,1,.86-.512q.515.864,1.008,1.742a.5.5,0,0,1-.191.68A.491.491,0,0,1,586.455,790.271Zm-2.585-4.28a.5.5,0,0,1-.42-.228q-.54-.836-1.1-1.655a.5.5,0,0,1,.826-.564q.567.829,1.114,1.676a.5.5,0,0,1-.42.771Zm-2.845-4.11a.5.5,0,0,1-.4-.2q-.6-.8-1.2-1.581a.5.5,0,0,1,.789-.616q.617.79,1.218,1.6a.5.5,0,0,1-.1.7A.494.494,0,0,1,581.025,781.881Zm-3.105-3.916a.5.5,0,0,1-.381-.176q-.645-.761-1.3-1.5a.5.5,0,1,1,.744-.668q.67.747,1.323,1.517a.5.5,0,0,1-.381.824Zm-3.362-3.7a.5.5,0,0,1-.358-.15q-.7-.714-1.409-1.4a.5.5,0,1,1,.693-.721q.724.7,1.431,1.419a.5.5,0,0,1-.008.707A.493.493,0,0,1,574.558,774.27Zm-3.631-3.437a.5.5,0,0,1-.329-.124q-.75-.657-1.515-1.28a.5.5,0,1,1,.633-.774c.517.423,1.032.857,1.54,1.3a.5.5,0,0,1-.329.876Z" fill="#f76195"/>
      </g>
      <g id="Grupo_29790" data-name="Grupo 29790">
        <path id="Trazado_24516" data-name="Trazado 24516" d="M560.19,883.778a1.122,1.122,0,0,0,.212-.657V854.227l-.249-.319c.005-.092.011-.182.016-.274l.233-.03V826.609a1.125,1.125,0,0,0-.8-1.076l-6.628-2a1.112,1.112,0,0,1-.657-.54q-1.185-2.215-2.52-4.35a1.11,1.11,0,0,1-.14-.845l2.149-9.053a1.122,1.122,0,0,0-.217-.962l-2.09-2.608a84.582,84.582,0,0,0-10.1-10.633l-5.476-4.811a1.123,1.123,0,0,0-1.63.157l-3.861,5-2.391-.325-4.465-10.935a1.122,1.122,0,0,0-.741-.658l-3.242-.894a34.7,34.7,0,0,0-9.225-1.3c-.932,0-1.865.044-2.774.128l-7.47.7a1.124,1.124,0,0,0-1,1.325l.829,4.447a1.122,1.122,0,0,1-1.832,1.06l-3.459-2.946a1.122,1.122,0,0,0-1.639.2l-4.343,6.013a32.837,32.837,0,0,0-5.041,10.93l-.865,3.28a1.126,1.126,0,0,0,.2.978l7.273,9.32c-.385.933-.478,1.158-.862,2.091l-6.35.8a1.124,1.124,0,0,0-.96,1.337l1.457,7.222a83.678,83.678,0,0,0,4.193,14.021l1.215,3.083a1.124,1.124,0,0,0,.72.664l8.979,2.717a1.107,1.107,0,0,1,.656.54q1.186,2.213,2.521,4.346a1.111,1.111,0,0,1,.14.847l-2.149,9.05a1.12,1.12,0,0,0,.216.961l2.088,2.608a84.229,84.229,0,0,0,10.1,10.639l5.476,4.809a1.124,1.124,0,0,0,1.63-.157l3.859-4.993,2.39.325,4.467,10.933a1.123,1.123,0,0,0,.741.657l3.242.9a34.682,34.682,0,0,0,9.214,1.3c.939,0,1.877-.043,2.792-.131l7.46-.7a1.124,1.124,0,0,0,1-1.324l-.828-4.44a1.123,1.123,0,0,1,1.833-1.06l3.463,2.951a1.124,1.124,0,0,0,1.64-.2Zm-25.818-29.452a11.473,11.473,0,0,1-5.313-1.777c-8.914-5.146-16.732-18.619-16.732-28.831,0-2.5.448-6.687,3.45-6.687a11.452,11.452,0,0,1,5.314,1.777c8.913,5.147,16.731,18.619,16.731,28.831C537.822,850.137,537.374,854.326,534.372,854.326Z" fill="url(#radial-gradient)" style="mix-blend-mode: multiply;isolation: isolate"/>
        <path id="Trazado_24517" data-name="Trazado 24517" d="M552.638,850.479a39.817,39.817,0,0,0-.345-4.9l8.162-1.033a73.873,73.873,0,0,0-3.7-12.355l-9.3-2.813a65.433,65.433,0,0,0-5.788-9.984l2.228-9.384a74.6,74.6,0,0,0-8.906-9.387l-5.007,6.475a40.456,40.456,0,0,0-4.091-2.758,31.429,31.429,0,0,0-4.092-1.966l-5.006-12.256a24.791,24.791,0,0,0-8.907-.9l2.229,11.958a12.769,12.769,0,0,0-5.788,3.3l-9.3-7.926a24.267,24.267,0,0,0-3.7,8.085L499.49,815.1a30.887,30.887,0,0,0-.345,4.5,39.8,39.8,0,0,0,.345,4.894l-8.161,1.033a73.722,73.722,0,0,0,3.7,12.356l9.3,2.812a65.386,65.386,0,0,0,5.789,9.984l-2.229,9.385a74.45,74.45,0,0,0,8.907,9.386l5.006-6.475a40.427,40.427,0,0,0,4.092,2.759,31.545,31.545,0,0,0,4.091,1.966l5.007,12.255a24.737,24.737,0,0,0,8.906.9l-2.228-11.958a12.772,12.772,0,0,0,5.788-3.3l9.3,7.926a24.326,24.326,0,0,0,3.7-8.085l-8.162-10.457A30.875,30.875,0,0,0,552.638,850.479Zm-26.489,7.582c-11.151-6.438-20.191-22.031-20.191-34.827s9.04-17.949,20.191-11.511,20.191,22.03,20.191,34.826S537.3,864.5,526.149,858.061Z" fill="#03336e" opacity="0.5" style="mix-blend-mode: multiply;isolation: isolate"/>
        <path id="Trazado_24518" data-name="Trazado 24518" d="M524.6,859.064c-11.151-6.438-20.191-22.03-20.191-34.826,0-4.747,1.257-8.419,3.394-10.853-6.12.443-10.259,5.566-10.259,14.213,0,12.795,9.039,28.388,20.191,34.826,7.005,4.044,13.157,3.489,16.772-.644A17.532,17.532,0,0,1,524.6,859.064Z" fill="#72b5e8"/>
        <path id="Trazado_24519" data-name="Trazado 24519" d="M544.226,854.842a39.817,39.817,0,0,0-.345-4.895l8.161-1.033a73.776,73.776,0,0,0-3.7-12.355l-9.3-2.812a65.259,65.259,0,0,0-5.789-9.984l2.229-9.385a74.531,74.531,0,0,0-8.907-9.387l-5.006,6.476a40.3,40.3,0,0,0-4.091-2.759,31.49,31.49,0,0,0-4.092-1.966l-5.006-12.256a24.79,24.79,0,0,0-8.907-.9l2.228,11.958a12.765,12.765,0,0,0-5.787,3.3l-9.3-7.926a24.269,24.269,0,0,0-3.7,8.085l8.161,10.456a30.889,30.889,0,0,0-.345,4.5,39.788,39.788,0,0,0,.345,4.894l-8.161,1.033a73.728,73.728,0,0,0,3.7,12.356l9.3,2.813a65.371,65.371,0,0,0,5.788,9.983l-2.228,9.385a74.529,74.529,0,0,0,8.907,9.387l5.006-6.475a40.468,40.468,0,0,0,4.092,2.758,31.558,31.558,0,0,0,4.091,1.966l5.006,12.256a24.791,24.791,0,0,0,8.907.9l-2.229-11.958a12.78,12.78,0,0,0,5.789-3.3l9.3,7.926a24.3,24.3,0,0,0,3.7-8.085l-8.161-10.457A30.874,30.874,0,0,0,544.226,854.842Zm-26.489,7.582c-11.152-6.438-20.191-22.031-20.191-34.826s9.039-17.95,20.191-11.512,20.191,22.03,20.191,34.826S528.888,868.862,517.737,862.424Z" fill="#a8cff0"/>
        <path id="Trazado_24520" data-name="Trazado 24520" d="M521.209,802.249,516.2,789.994l-7.822,4.493,5.006,12.256Z" fill="#72b5e8"/>
        <path id="Trazado_24521" data-name="Trazado 24521" d="M513.388,806.742a31.49,31.49,0,0,1,4.092,1.966,40.414,40.414,0,0,1,4.091,2.759l5.006-6.475h0s-.846-.531-1.274-.778a31.549,31.549,0,0,0-4.092-1.966Z" fill="#d1ebff"/>
        <path id="Trazado_24522" data-name="Trazado 24522" d="M516.2,789.994a24.82,24.82,0,0,0-8.908-.9l-7.821,4.493a24.79,24.79,0,0,1,8.907.9Z" fill="#d1ebff"/>
        <path id="Trazado_24523" data-name="Trazado 24523" d="M543.3,809.885A74.586,74.586,0,0,0,534.4,800.5l-7.821,4.493a74.519,74.519,0,0,1,8.906,9.386Z" fill="#d1ebff"/>
        <path id="Trazado_24524" data-name="Trazado 24524" d="M535.484,814.378l-2.228,9.385,7.822-4.493,2.228-9.385Z" fill="#72b5e8"/>
        <path id="Trazado_24525" data-name="Trazado 24525" d="M533.255,823.762a65.315,65.315,0,0,1,5.789,9.985l7.821-4.493a65.38,65.38,0,0,0-5.788-9.984Z" fill="#72b5e8"/>
        <path id="Trazado_24526" data-name="Trazado 24526" d="M539.044,833.747l9.3,2.812,7.822-4.493-9.3-2.812Z" fill="#d1ebff"/>
        <path id="Trazado_24527" data-name="Trazado 24527" d="M548.344,836.559a73.776,73.776,0,0,1,3.7,12.355l7.822-4.492a73.821,73.821,0,0,0-3.7-12.356Z" fill="#72b5e8"/>
        <path id="Trazado_24528" data-name="Trazado 24528" d="M501.7,805.546l-.648-3.478-6.618-5.64-7.821,4.492,9.3,7.926A12.773,12.773,0,0,1,501.7,805.546Z" fill="#72b5e8"/>
        <path id="Trazado_24529" data-name="Trazado 24529" d="M552.042,869.794a24.306,24.306,0,0,1-3.7,8.085l7.821-4.493a24.288,24.288,0,0,0,3.7-8.085Z" fill="#72b5e8"/>
        <path id="Trazado_24530" data-name="Trazado 24530" d="M551.7,854.845a30.9,30.9,0,0,0,.346-4.5c0-.471-.031-.95-.057-1.428l-8.11,1.026a39.817,39.817,0,0,1,.345,4.895,30.874,30.874,0,0,1-.345,4.495Z" fill="#72b5e8"/>
        <path id="Trazado_24531" data-name="Trazado 24531" d="M543.881,859.337l8.161,10.456,7.821-4.493L551.7,854.845Z" fill="#d1ebff"/>
        <path id="Trazado_24532" data-name="Trazado 24532" d="M539.044,869.953a12.78,12.78,0,0,1-5.789,3.3l2.229,11.958,7.821-4.493-1.58-8.48Z" fill="#72b5e8"/>
        <path id="Trazado_24533" data-name="Trazado 24533" d="M490.784,825.266l-7.867,4.618,8.161-1.033C490.927,827.644,490.835,826.45,490.784,825.266Z" fill="#d1ebff"/>
        <path id="Trazado_24534" data-name="Trazado 24534" d="M513.388,867.332l-5.006,6.475,7.879-4.484C515.291,868.7,514.331,868.044,513.388,867.332Z" fill="#72b5e8"/>
        <g id="Grupo_29789" data-name="Grupo 29789" style="mix-blend-mode: color-dodge;isolation: isolate">
          <path id="Trazado_24535" data-name="Trazado 24535" d="M491.194,828.745l-7.884,1.1c.026.132.062.264.09.4l6.726-.851C490.109,829.257,491.21,828.879,491.194,828.745Z" fill="#fff"/>
          <path id="Trazado_24536" data-name="Trazado 24536" d="M535.046,814.888l-2.229,9.385a65.31,65.31,0,0,1,5.789,9.984l9.3,2.812c1.559,3.962,4.038,11.926,4.038,11.926a72.863,72.863,0,0,0-3.207-12.473l-9.3-2.812a65.381,65.381,0,0,0-5.788-9.984l2.228-9.385a76.743,76.743,0,0,0-9.266-9.346S532.445,811.641,535.046,814.888Z" fill="#fff"/>
          <path id="Trazado_24537" data-name="Trazado 24537" d="M517.8,862.269c-11.151-6.438-20.191-22.03-20.191-34.826,0-5.652,1.773-9.794,4.707-12.117-3.389,2.182-5.474,6.536-5.474,12.665,0,12.8,9.04,28.388,20.191,34.826,5.63,3.25,10.717,3.538,14.379,1.387-.27.083-.555.137-.835.2C527.1,865.666,522.656,865.07,517.8,862.269Z" fill="#fff"/>
          <path id="Trazado_24538" data-name="Trazado 24538" d="M534.757,872.847a12.689,12.689,0,0,0,3.679-2.061l-.344-.293A12.758,12.758,0,0,1,534.757,872.847Z" fill="#fff"/>
          <path id="Trazado_24539" data-name="Trazado 24539" d="M495.621,809.058c-.339.014,0-.265.344-.542l-8.956-7.633c-.254.352-.483.736-.061.782Z" fill="#fff"/>
          <path id="Trazado_24540" data-name="Trazado 24540" d="M533.034,873.793l2.133,11.443c-.247-.012.24-.018.71-.062l-2.205-11.837C533.226,873.508,532.774,873.668,533.034,873.793Z" fill="#fff" style="mix-blend-mode: color-dodge;isolation: isolate"/>
          <path id="Trazado_24541" data-name="Trazado 24541" d="M544.619,854.8a38.545,38.545,0,0,0-.3-4.493l-.812.061a39.8,39.8,0,0,1,.345,4.894,30.877,30.877,0,0,1-.345,4.5l8.161,10.456a24.928,24.928,0,0,1-2.98,6.975l.053.648a24.287,24.287,0,0,0,3.7-8.085L544.274,859.3A30.9,30.9,0,0,0,544.619,854.8Z" fill="#fff"/>
          <path id="Trazado_24542" data-name="Trazado 24542" d="M508.041,794.811l5.006,12.256a31.49,31.49,0,0,1,4.092,1.966,40.559,40.559,0,0,1,4.091,2.758l.157-.777a38.322,38.322,0,0,0-3.514-2.343,31.56,31.56,0,0,0-4.092-1.966l-5.005-12.255a24.82,24.82,0,0,0-8.908-.9l.1.514A29.176,29.176,0,0,1,508.041,794.811Z" fill="#fff"/>
          <path id="Trazado_24543" data-name="Trazado 24543" d="M512.436,867.872l-4.186,5.415c.177.158.348.328.526.484l4.238-5.483C512.822,868.147,512.627,868.017,512.436,867.872Z" fill="#fff"/>
        </g>
      </g>
      <g id="Grupo_29791" data-name="Grupo 29791">
        <path id="Trazado_24544" data-name="Trazado 24544" d="M580.471,834.635l-.5-.869c4.841-2.76,7.507-8.65,7.507-16.583,0-12.22-6.365-26.82-16.216-37.2l.724-.688c10.019,10.55,16.492,25.42,16.492,37.883C588.482,825.491,585.637,831.688,580.471,834.635Z" fill="#f76195"/>
      </g>
      <path id="Trazado_24545" data-name="Trazado 24545" d="M570.306,778.772c.038-.815.6-1.171,1.251-.795a2.564,2.564,0,0,1,1.111,2.159c-.039.816-.6,1.172-1.251.8A2.561,2.561,0,0,1,570.306,778.772Z" fill="#eb4680"/>
      <g id="Grupo_29792" data-name="Grupo 29792">
        <path id="Trazado_24546" data-name="Trazado 24546" d="M579.56,835.088a.5.5,0,0,1-.432-.752l1.462-2.507a.5.5,0,1,1,.863.5l-.94,1.613,2.388-.341a.509.509,0,0,1,.566.425.5.5,0,0,1-.425.566l-3.412.487A.564.564,0,0,1,579.56,835.088Z" fill="#eb4680"/>
      </g>
      <path id="Trazado_24547" data-name="Trazado 24547" d="M525.792,850.95l-9.359-8.281-2.477-12.16,6.82-3.934,9.359,8.281,2.508,12.188Z" fill="#3ecfcd"/>
      <path id="Trazado_24548" data-name="Trazado 24548" d="M525.792,850.95l-9.359-8.281,13.7-7.813,2.508,12.188Z" fill="#0ba19f"/>
      <path id="Trazado_24549" data-name="Trazado 24549" d="M571.126,907.227l-24.034-41.456-7.413-29.205a10.634,10.634,0,0,0-3.2-5.295l-9.453-8.49a3.444,3.444,0,0,0-4.008-.429l-2.876,1.6,1.168.963a3.421,3.421,0,0,0,1.131,3.013l6.974,6.171,3.641,17.7-9.949,5.673L509.515,845.44l-1.873-9.1a3.46,3.46,0,0,0-5.1-2.308l-2.876,1.6,1.142,1.292a3.462,3.462,0,0,0,.064.84l2.628,12.3a10.628,10.628,0,0,0,3,5.416l21.729,21.054,24.035,41.456c4.359,7.52,10.985,12.158,16.084,11.732l-.093.758,2.875-1.6h0C576.336,925.906,576.336,916.213,571.126,907.227ZM565.6,919.343c-2.137,1.218-5.6-.782-7.738-4.468s-2.137-7.661,0-8.88,5.6.782,7.738,4.468S567.736,918.124,565.6,919.343Z" fill="#084c94"/>
      <path id="Trazado_24550" data-name="Trazado 24550" d="M520.141,823.949h0a3.446,3.446,0,0,0-.577,5.574l6.974,6.17,3.642,17.7-9.949,5.672L506.64,847.038l-1.874-9.105a3.46,3.46,0,0,0-5.1-2.309h0a3.461,3.461,0,0,0-1.67,3.729l2.628,12.3a10.636,10.636,0,0,0,3,5.416l21.73,21.054,24.034,41.455c5.21,8.987,13.657,13.863,18.867,10.893h0c5.209-2.97,5.209-12.663,0-21.649l-24.035-41.456L536.8,838.164a10.631,10.631,0,0,0-3.2-5.295l-9.452-8.49A3.446,3.446,0,0,0,520.141,823.949Zm42.582,96.991c-2.137,1.219-5.6-.782-7.738-4.467s-2.137-7.662,0-8.88,5.6.782,7.738,4.468S564.86,919.722,562.723,920.94Z" fill="#2672ab"/>
      <g id="Grupo_29797" data-name="Grupo 29797">
        <g id="Grupo_29796" data-name="Grupo 29796">
          <g id="Grupo_29793" data-name="Grupo 29793">
            <path id="Trazado_24551" data-name="Trazado 24551" d="M555.518,907.487c.015-.009.032-.014.047-.022a2.6,2.6,0,0,0-.58.235c-2.137,1.218-2.137,5.193,0,8.879,2.122,3.66,5.551,5.654,7.691,4.49-2.144.619-5.205-1.333-7.158-4.7C553.381,912.68,553.381,908.705,555.518,907.487Z" fill="#1568bf"/>
          </g>
          <g id="Grupo_29794" data-name="Grupo 29794">
            <path id="Trazado_24552" data-name="Trazado 24552" d="M504.766,838.04l1.874,9.1,13.59,12.026.471-.268-13.529-11.97-1.873-9.1a3.457,3.457,0,0,0-4.907-2.406A3.461,3.461,0,0,1,504.766,838.04Z" fill="#3f92d1"/>
          </g>
          <g id="Grupo_29795" data-name="Grupo 29795">
            <path id="Trazado_24553" data-name="Trazado 24553" d="M568.783,908.718l-24.034-41.456-7.413-29.205a10.641,10.641,0,0,0-3.2-5.295l-9.453-8.49a3.439,3.439,0,0,0-3.84-.508,3.437,3.437,0,0,1,3.308.722l9.452,8.489a10.634,10.634,0,0,1,3.2,5.3l7.412,29.205,24.035,41.455c5.209,8.986,5.209,18.679,0,21.65h0c-.172.1-.347.185-.525.266a6.434,6.434,0,0,0,1.057-.479h0C573.993,927.4,573.993,917.7,568.783,908.718Z" fill="#3f92d1"/>
          </g>
        </g>
      </g>
      <path id="Trazado_24554" data-name="Trazado 24554" d="M518.97,854.856l-9.359-8.281L507.1,834.387l6.852-3.906,9.359,8.281,2.508,12.188Z" fill="#0fbab8"/>
      <path id="Trazado_24555" data-name="Trazado 24555" d="M548.777,829.829l-2.407,1.306,9.49,1.111Z" fill="#92b4d1" opacity="0.5" style="mix-blend-mode: multiply;isolation: isolate"/>
      <path id="Trazado_24556" data-name="Trazado 24556" d="M532.357,810.811l4.67,2.518.833,8.083,2.775,3.679,2.558-4.1-2.117-1.726.867-4.108-3.583-3.5Z" fill="#92b4d1" opacity="0.5" style="mix-blend-mode: multiply;isolation: isolate"/>
      <g id="Grupo_29799" data-name="Grupo 29799">
        <path id="Trazado_24557" data-name="Trazado 24557" d="M565.027,815.857a1.719,1.719,0,0,1-.466.068,7.191,7.191,0,0,1-3.334-1.116c-5.594-3.229-10.5-11.683-10.5-18.092,0-1.567.281-4.2,2.165-4.2a7.2,7.2,0,0,1,3.335,1.115c3.592,2.075,6.893,6.3,8.8,10.764V776.042l-1.308-1.15-1.3,1.685-4.056-.551-1.957-4.792-2.368-.653a21.792,21.792,0,0,0-5.789-.819c-.585,0-1.17.028-1.74.08l-5.457.508,1.027,5.507-4.266-3.636-3.173,4.393a20.6,20.6,0,0,0-3.163,6.858l-.632,2.4,5.582,7.152-.05.12-6.031.762,1.064,5.275a52.52,52.52,0,0,0,2.631,8.8l.888,2.252,6.237,1.888q.871,1.65,1.873,3.229l-1.5,6.3,1.526,1.906a52.906,52.906,0,0,0,6.338,6.675l4,3.513,3.629-4.694.289.04,3.4,8.312,2.368.654c.65.18,1.3.319,1.94.44Z" fill="url(#radial-gradient-2)" style="mix-blend-mode: multiply;isolation: isolate"/>
        <path id="Trazado_24558" data-name="Trazado 24558" d="M565.027,822.85a10.591,10.591,0,0,1-7.31-1.637c-7.179-4.145-13-14.184-13-22.422s5.82-11.556,13-7.411a24.76,24.76,0,0,1,7.31,6.8V785.739c-.531-.517-1.07-1.02-1.618-1.5l-3.223,4.169a25.94,25.94,0,0,0-2.635-1.777,20.345,20.345,0,0,0-2.634-1.265l-3.223-7.891a15.96,15.96,0,0,0-5.734-.578l1.434,7.7a8.222,8.222,0,0,0-3.726,2.125l-5.987-5.1a15.632,15.632,0,0,0-2.382,5.2l5.255,6.732a19.824,19.824,0,0,0-.223,2.894,25.543,25.543,0,0,0,.223,3.151l-5.255.665a47.5,47.5,0,0,0,2.382,7.955l5.987,1.811a42.12,42.12,0,0,0,3.726,6.427L545.96,822.5a47.893,47.893,0,0,0,5.734,6.044l3.223-4.169a26.044,26.044,0,0,0,2.634,1.776,20.365,20.365,0,0,0,2.635,1.266l3.223,7.89c.548.152,1.087.271,1.618.367Z" fill="#03336e" opacity="0.5" style="mix-blend-mode: multiply;isolation: isolate"/>
        <path id="Trazado_24559" data-name="Trazado 24559" d="M556.813,821.643c-7.179-4.145-13-14.184-13-22.422A10.391,10.391,0,0,1,546,792.234c-3.94.285-6.605,3.583-6.605,9.15,0,8.238,5.82,18.277,13,22.422,4.511,2.6,8.471,2.246,10.8-.415A11.29,11.29,0,0,1,556.813,821.643Z" fill="#72b5e8"/>
        <path id="Trazado_24560" data-name="Trazado 24560" d="M569.448,818.924a25.569,25.569,0,0,0-.223-3.151l5.255-.665a47.5,47.5,0,0,0-2.382-7.955l-5.987-1.81a42.106,42.106,0,0,0-3.727-6.428l1.435-6.042a47.954,47.954,0,0,0-5.734-6.043L554.862,791a25.878,25.878,0,0,0-2.634-1.776,20.243,20.243,0,0,0-2.635-1.266l-3.222-7.891a15.971,15.971,0,0,0-5.735-.578l1.435,7.7a8.221,8.221,0,0,0-3.727,2.125l-5.987-5.1a15.633,15.633,0,0,0-2.382,5.205l5.255,6.732a19.828,19.828,0,0,0-.222,2.894,25.538,25.538,0,0,0,.222,3.151l-5.255.665a47.5,47.5,0,0,0,2.382,7.955l5.987,1.811a42.048,42.048,0,0,0,3.727,6.427l-1.435,6.043a47.883,47.883,0,0,0,5.735,6.043l3.222-4.169a26.049,26.049,0,0,0,2.635,1.776,20.224,20.224,0,0,0,2.634,1.266l3.223,7.89a15.917,15.917,0,0,0,5.734.578l-1.435-7.7a8.231,8.231,0,0,0,3.727-2.125l5.987,5.1a15.633,15.633,0,0,0,2.382-5.2l-5.255-6.732A19.825,19.825,0,0,0,569.448,818.924Zm-17.055,4.882c-7.179-4.145-13-14.184-13-22.422s5.82-11.556,13-7.411,13,14.183,13,22.421S559.572,827.951,552.393,823.806Z" fill="#a8cff0"/>
        <path id="Trazado_24561" data-name="Trazado 24561" d="M554.629,785.064l-3.223-7.89-5.036,2.892,3.223,7.89Z" fill="#72b5e8"/>
        <path id="Trazado_24562" data-name="Trazado 24562" d="M549.593,787.957a20.367,20.367,0,0,1,2.635,1.265A26.062,26.062,0,0,1,554.862,791l3.222-4.169h0s-.544-.342-.82-.5a20.224,20.224,0,0,0-2.634-1.266Z" fill="#d1ebff"/>
        <path id="Trazado_24563" data-name="Trazado 24563" d="M551.406,777.174a15.961,15.961,0,0,0-5.734-.578l-5.036,2.892a15.971,15.971,0,0,1,5.735.578Z" fill="#d1ebff"/>
        <path id="Trazado_24564" data-name="Trazado 24564" d="M568.855,789.98a48.154,48.154,0,0,0-5.734-6.043l-5.036,2.893a47.954,47.954,0,0,1,5.734,6.043Z" fill="#d1ebff"/>
        <path id="Trazado_24565" data-name="Trazado 24565" d="M563.819,792.873l-1.435,6.042,5.036-2.892,1.435-6.042Z" fill="#72b5e8"/>
        <path id="Trazado_24566" data-name="Trazado 24566" d="M562.384,798.915a42.106,42.106,0,0,1,3.727,6.428l5.036-2.892a42,42,0,0,0-3.727-6.428Z" fill="#72b5e8"/>
        <path id="Trazado_24567" data-name="Trazado 24567" d="M566.111,805.343l5.987,1.811,5.036-2.892-5.987-1.81Z" fill="#d1ebff"/>
        <path id="Trazado_24568" data-name="Trazado 24568" d="M572.1,807.153a47.5,47.5,0,0,1,2.382,7.955l5.035-2.892a47.493,47.493,0,0,0-2.381-7.955Z" fill="#72b5e8"/>
        <path id="Trazado_24569" data-name="Trazado 24569" d="M542.071,787.187l-.418-2.239-4.26-3.632-5.036,2.893,5.987,5.1A8.221,8.221,0,0,1,542.071,787.187Z" fill="#72b5e8"/>
        <path id="Trazado_24570" data-name="Trazado 24570" d="M574.48,828.551a15.633,15.633,0,0,1-2.382,5.2l5.036-2.892a15.646,15.646,0,0,0,2.381-5.206Z" fill="#72b5e8"/>
        <path id="Trazado_24571" data-name="Trazado 24571" d="M574.261,818.926a19.828,19.828,0,0,0,.222-2.894c0-.3-.02-.612-.036-.92l-5.222.661a25.569,25.569,0,0,1,.223,3.151,19.825,19.825,0,0,1-.223,2.895Z" fill="#72b5e8"/>
        <path id="Trazado_24572" data-name="Trazado 24572" d="M569.225,821.819l5.254,6.732,5.036-2.892-5.254-6.732Z" fill="#d1ebff"/>
        <path id="Trazado_24573" data-name="Trazado 24573" d="M566.111,828.653a8.231,8.231,0,0,1-3.727,2.125l1.435,7.7,5.036-2.892-1.018-5.459Z" fill="#72b5e8"/>
        <path id="Trazado_24574" data-name="Trazado 24574" d="M535.041,799.883l-5.066,2.973,5.255-.665C535.133,801.414,535.073,800.645,535.041,799.883Z" fill="#d1ebff"/>
        <path id="Trazado_24575" data-name="Trazado 24575" d="M549.593,826.966l-3.222,4.169,5.072-2.887C550.819,827.848,550.2,827.424,549.593,826.966Z" fill="#72b5e8"/>
        <g id="Grupo_29798" data-name="Grupo 29798" style="mix-blend-mode: color-dodge;isolation: isolate">
          <path id="Trazado_24576" data-name="Trazado 24576" d="M563.537,793.2l-1.434,6.042a42.12,42.12,0,0,1,3.726,6.427l5.988,1.811a47.646,47.646,0,0,1,2.323,7.7l.593-.1a47.5,47.5,0,0,0-2.381-7.955l-5.987-1.811a42.043,42.043,0,0,0-3.727-6.427l1.434-6.043a48.016,48.016,0,0,0-5.734-6.043l-.2.664A48.245,48.245,0,0,1,563.537,793.2Z" fill="#fff"/>
          <path id="Trazado_24577" data-name="Trazado 24577" d="M552.437,823.707c-7.179-4.146-13-14.184-13-22.422,0-3.639,1.141-6.306,3.03-7.8-2.182,1.4-3.524,4.207-3.524,8.153,0,8.239,5.82,18.277,13,22.422,3.624,2.093,6.9,2.278,9.257.893-.174.053-.357.088-.538.128C558.422,825.893,555.56,825.509,552.437,823.707Z" fill="#fff"/>
          <path id="Trazado_24578" data-name="Trazado 24578" d="M563.351,830.516a8.167,8.167,0,0,0,2.369-1.326L565.5,829A8.189,8.189,0,0,1,563.351,830.516Z" fill="#fff"/>
          <path id="Trazado_24579" data-name="Trazado 24579" d="M538.155,789.448c-.219.009,0-.171.221-.349l-5.766-4.914c-.163.226-.311.473-.039.5Z" fill="#fff"/>
          <path id="Trazado_24580" data-name="Trazado 24580" d="M562.242,831.125l1.373,7.368c-.159-.008.154-.012.457-.04l-1.42-7.621C562.365,830.942,562.074,831.045,562.242,831.125Z" fill="#fff" style="mix-blend-mode: color-dodge;isolation: isolate"/>
          <path id="Trazado_24581" data-name="Trazado 24581" d="M569.7,818.9a24.872,24.872,0,0,0-.2-2.893l-.523.039a25.759,25.759,0,0,1,.222,3.151,19.968,19.968,0,0,1-.222,2.9l5.254,6.732a16.069,16.069,0,0,1-1.918,4.49l.034.417a15.632,15.632,0,0,0,2.381-5.205l-5.254-6.732A19.964,19.964,0,0,0,569.7,818.9Z" fill="#fff"/>
          <path id="Trazado_24582" data-name="Trazado 24582" d="M546.151,780.276l3.223,7.89a20.232,20.232,0,0,1,2.634,1.266,26.044,26.044,0,0,1,2.634,1.776l.1-.5a24.575,24.575,0,0,0-2.262-1.509,20.236,20.236,0,0,0-2.634-1.266l-3.223-7.89a15.989,15.989,0,0,0-5.735-.579l.062.332A18.75,18.75,0,0,1,546.151,780.276Z" fill="#fff"/>
          <path id="Trazado_24583" data-name="Trazado 24583" d="M548.981,827.314l-2.7,3.486c.113.1.224.211.338.311l2.729-3.53C549.229,827.49,549.1,827.407,548.981,827.314Z" fill="#fff"/>
        </g>
        <path id="Trazado_24584" data-name="Trazado 24584" d="M529.975,802.856l5.254-.665-.036-.342Z" fill="#fff"/>
      </g>
    </g>
    <g id="Grupo_29803" data-name="Grupo 29803">
      <path id="Trazado_24585" data-name="Trazado 24585" d="M430.282,733.608l-39.921-23.063v89.583l39.921,23.063c3.57,2.061,6.465-.127,6.465-4.888V745.959C436.747,741.2,433.852,735.669,430.282,733.608Z" fill="url(#linear-gradient)" style="mix-blend-mode: multiply;isolation: isolate"/>
      <path id="Trazado_24586" data-name="Trazado 24586" d="M414.12,734.521l-23.426-13.533v79.475l23.426,13.532c2.1,1.21,3.793-.074,3.793-2.867V741.769C417.913,738.975,416.215,735.73,414.12,734.521Z" fill="#03336e" opacity="0.5" style="mix-blend-mode: multiply;isolation: isolate"/>
      <path id="Trazado_24587" data-name="Trazado 24587" d="M407.781,811.142l-77.562-44.806c-3-1.734-5.437-6.385-5.437-10.389V695.1c0-4,2.435-5.844,5.437-4.11L407.781,735.8c3,1.733,5.437,6.384,5.437,10.388v60.846C413.218,811.036,410.784,812.876,407.781,811.142Z" fill="#3f92d1"/>
      <path id="Trazado_24588" data-name="Trazado 24588" d="M409.322,734.979,331.76,690.172a3.675,3.675,0,0,0-3.181-.467c-.114.044-1.63.85-1.737.909l-.005,0a3.555,3.555,0,0,1,3.382.374L407.781,735.8c3,1.733,5.437,6.384,5.437,10.388v60.846c0,2.5-.948,4.154-2.391,4.625a.913.913,0,0,0,.477-.162c.068-.04,1.714-.968,1.779-1.014,1.033-.724,1.676-2.21,1.676-4.268V745.368C414.759,741.364,412.325,736.713,409.322,734.979Z" fill="#2672ab"/>
      <path id="Trazado_24589" data-name="Trazado 24589" d="M408.042,735.667,330.48,690.86a3.607,3.607,0,0,0-3.275-.418,4.019,4.019,0,0,1,2.623.614l77.562,44.807c3,1.734,5.437,6.385,5.437,10.389V807.1c0,2.362-.851,3.962-2.162,4.529,1.677-.266,2.814-1.989,2.814-4.725V746.056C413.479,742.052,411.045,737.4,408.042,735.667Z" fill="#3f92d1" style="mix-blend-mode: screen;isolation: isolate"/>
      <path id="Trazado_24590" data-name="Trazado 24590" d="M326.675,695.963v60.206a9.485,9.485,0,0,0,4.012,7.945l78.724,45.473.131.075a1.067,1.067,0,0,0,1.6-.926V746.155a13.324,13.324,0,0,0-.089-1.475Z" fill="#03336e"/>
      <path id="Trazado_24591" data-name="Trazado 24591" d="M410.407,809.415l-.131-.075-78.724-45.473a9.483,9.483,0,0,1-4.013-7.945v-59.46l-.864-.5v60.206a9.485,9.485,0,0,0,4.012,7.945l78.724,45.473.131.075a1.058,1.058,0,0,0,1.226-.127A1.031,1.031,0,0,1,410.407,809.415Z" fill="#a8cff0"/>
      <g id="Grupo_29802" data-name="Grupo 29802">
        <path id="Trazado_24592" data-name="Trazado 24592" d="M365.317,739.167l-3.2-1.9v38.71l3.2,1.9Z" fill="#ffd70f"/>
        <path id="Trazado_24593" data-name="Trazado 24593" d="M371.233,744.26l-3.2-1.9v36.982l3.2,1.905Z" fill="#ffd70f"/>
        <path id="Trazado_24594" data-name="Trazado 24594" d="M377.323,740.783l-3.2-1.905v43.939l3.2,1.9Z" fill="#ffd70f"/>
        <path id="Trazado_24595" data-name="Trazado 24595" d="M349.937,743.446v25.363l3.2,1.905V745.351Z" fill="#ffd70f"/>
        <path id="Trazado_24596" data-name="Trazado 24596" d="M359.226,743.514l-3.2-1.9v30.68l3.2,1.905Z" fill="#ffd70f"/>
        <path id="Trazado_24597" data-name="Trazado 24597" d="M383.3,752.571l-3.2-1.905V786.3l3.2,1.9Z" fill="#ffd70f"/>
        <path id="Trazado_24598" data-name="Trazado 24598" d="M389.156,759l-3.2-1.905v32.628l3.2,1.905Z" fill="#ffd70f"/>
        <path id="Trazado_24599" data-name="Trazado 24599" d="M347.044,738.583l-3.2-1.905v28.459l3.2,1.905Z" fill="#ffd70f"/>
        <path id="Trazado_24600" data-name="Trazado 24600" d="M331.664,740.73v17.243l3.2,1.905V742.635Z" fill="#ffd70f"/>
        <path id="Trazado_24601" data-name="Trazado 24601" d="M340.953,733.5l-3.2-1.905v29.858l3.2,1.9Z" fill="#ffd70f"/>
        <path id="Trazado_24602" data-name="Trazado 24602" d="M365.317,757.676l-3.2-1.905v20.2l3.2,1.9Z" fill="#0fbab8"/>
        <path id="Trazado_24603" data-name="Trazado 24603" d="M371.233,750.973l-3.2-1.905v30.269l3.2,1.905Z" fill="#0fbab8"/>
        <path id="Trazado_24604" data-name="Trazado 24604" d="M377.323,755.858l-3.2-1.905v28.864l3.2,1.9Z" fill="#0fbab8"/>
        <path id="Trazado_24605" data-name="Trazado 24605" d="M349.937,757.53v11.279l3.2,1.905V759.435Z" fill="#0fbab8"/>
        <path id="Trazado_24606" data-name="Trazado 24606" d="M359.226,756.31l-3.2-1.905v17.884l3.2,1.905Z" fill="#0fbab8"/>
        <path id="Trazado_24607" data-name="Trazado 24607" d="M347.044,748.833l-3.2-1.905v18.209l3.2,1.905Z" fill="#0fbab8"/>
        <path id="Trazado_24608" data-name="Trazado 24608" d="M331.664,752.979v4.994l3.2,1.905v-4.994Z" fill="#0fbab8"/>
        <path id="Trazado_24609" data-name="Trazado 24609" d="M340.953,752.522l-3.2-1.905v10.836l3.2,1.9Z" fill="#0fbab8"/>
        <path id="Trazado_24610" data-name="Trazado 24610" d="M383.3,767.124l-3.2-1.905V786.3l3.2,1.9Z" fill="#0fbab8"/>
        <path id="Trazado_24611" data-name="Trazado 24611" d="M389.156,778.8l-3.2-1.905v12.888l3.2,1.905Z" fill="#0fbab8"/>
        <g id="Grupo_29801" data-name="Grupo 29801">
          <path id="Trazado_24612" data-name="Trazado 24612" d="M394.939,750.411l-3.2-1.905v44.522l3.2,1.905Z" fill="#ffd70f"/>
          <path id="Trazado_24613" data-name="Trazado 24613" d="M400.856,747.3l-3.2-1.905v50.992l3.2,1.9Z" fill="#ffd70f"/>
          <path id="Trazado_24614" data-name="Trazado 24614" d="M406.946,744.736l-3.2-1.905v57.041l3.2,1.905Z" fill="#ffd70f"/>
          <path id="Trazado_24615" data-name="Trazado 24615" d="M394.939,768.664l-3.2-1.905v26.268l3.2,1.905Z" fill="#0fbab8"/>
          <path id="Trazado_24616" data-name="Trazado 24616" d="M400.856,761.944l-3.2-1.905v36.352l3.2,1.9Z" fill="#0fbab8"/>
          <path id="Trazado_24617" data-name="Trazado 24617" d="M406.946,752.953l-3.2-1.905v48.823l3.2,1.905Z" fill="#0fbab8"/>
        </g>
      </g>
    </g>
    <g id="Grupo_29812" data-name="Grupo 29812">
      <path id="Trazado_24618" data-name="Trazado 24618" d="M371.939,789.866l14.148,8.168L361.995,748.2,337.9,770.216l14.148,8.168Z" fill="#03336e" opacity="0.5" style="mix-blend-mode: multiply;isolation: isolate"/>
      <g id="Grupo_29805" data-name="Grupo 29805">
        <path id="Trazado_24619" data-name="Trazado 24619" d="M306.752,803.945l-4.977,2.814,19.813,11.263,4.977-2.814Z" fill="#72b5e8"/>
        <g id="Grupo_29804" data-name="Grupo 29804">
          <path id="Trazado_24620" data-name="Trazado 24620" d="M301.764,818.912l19.82,11.264V818.018l-19.82-11.264Z" fill="#3f92d1"/>
          <path id="Trazado_24621" data-name="Trazado 24621" d="M321.581,830.176l4.985-2.809V815.209l-4.985,2.809Z" fill="#2672ab"/>
        </g>
      </g>
      <path id="Trazado_24622" data-name="Trazado 24622" d="M321.587,817.3,301.775,806.76l19.813,11.263,4.977-2.814Z" fill="#fff"/>
      <g id="Grupo_29807" data-name="Grupo 29807">
        <path id="Trazado_24623" data-name="Trazado 24623" d="M328.51,799.465l-4.977,2.814,19.813,11.263,4.977-2.814Z" fill="#72b5e8"/>
        <g id="Grupo_29806" data-name="Grupo 29806">
          <path id="Trazado_24624" data-name="Trazado 24624" d="M323.522,831.089l19.82,11.264V813.538l-19.82-11.264Z" fill="#3f92d1"/>
          <path id="Trazado_24625" data-name="Trazado 24625" d="M343.339,842.353l4.985-2.809V810.729l-4.985,2.809Z" fill="#2672ab"/>
        </g>
      </g>
      <path id="Trazado_24626" data-name="Trazado 24626" d="M343.345,812.818,323.533,802.28l19.813,11.263,4.977-2.814Z" fill="#fff"/>
      <path id="Trazado_24627" data-name="Trazado 24627" d="M379.587,802.034l4.649-2.263-24.092-49.836-4.707,2.6Z" fill="#2672ab"/>
      <path id="Trazado_24628" data-name="Trazado 24628" d="M365.439,854.067l4.649-2.263V791.6l-4.649,2.263Z" fill="#2672ab"/>
      <path id="Trazado_24629" data-name="Trazado 24629" d="M345.551,782.384v60.2l19.888,11.482v-60.2l14.148,8.168L355.495,752.2,331.4,774.216Z" fill="#3f92d1"/>
      <g id="Grupo_29809" data-name="Grupo 29809">
        <path id="Trazado_24630" data-name="Trazado 24630" d="M372.426,801.572l-4.977,2.814,19.813,11.264,4.977-2.814Z" fill="#72b5e8"/>
        <g id="Grupo_29808" data-name="Grupo 29808">
          <path id="Trazado_24631" data-name="Trazado 24631" d="M367.439,855.232,387.258,866.5V815.645l-19.819-11.264Z" fill="#3f92d1"/>
          <path id="Trazado_24632" data-name="Trazado 24632" d="M387.255,866.5l4.985-2.809V812.836l-4.985,2.809Z" fill="#2672ab"/>
        </g>
      </g>
      <path id="Trazado_24633" data-name="Trazado 24633" d="M387.3,814.971l-19.812-10.538L387.3,815.7l4.977-2.814Z" fill="#fff"/>
      <g id="Grupo_29811" data-name="Grupo 29811">
        <path id="Trazado_24634" data-name="Trazado 24634" d="M395.181,835.8l-4.977,2.814,19.813,11.263,4.977-2.814Z" fill="#72b5e8"/>
        <g id="Grupo_29810" data-name="Grupo 29810">
          <path id="Trazado_24635" data-name="Trazado 24635" d="M390.194,867.419l19.82,11.264V849.868L390.194,838.6Z" fill="#3f92d1"/>
          <path id="Trazado_24636" data-name="Trazado 24636" d="M410.01,878.683,415,875.873V847.059l-4.985,2.809Z" fill="#2672ab"/>
        </g>
      </g>
      <path id="Trazado_24637" data-name="Trazado 24637" d="M410.016,849.148,390.2,838.609l19.813,11.263,4.977-2.814Z" fill="#fff"/>
    </g>
    <g id="Grupo_29817" data-name="Grupo 29817">
      <g id="Grupo_29814" data-name="Grupo 29814" opacity="0.7">
        <g id="Grupo_29813" data-name="Grupo 29813" clip-path="url(#clip-path)">
          <ellipse id="Elipse_1026" data-name="Elipse 1026" cx="27.163" cy="47.05" rx="27.163" ry="47.05" transform="translate(312.88 795.237) rotate(-30.311)" fill="url(#radial-gradient-3)" style="mix-blend-mode: multiply;isolation: isolate"/>
        </g>
      </g>
      <path id="Trazado_24639" data-name="Trazado 24639" d="M393.069,888.244l-19.011-10.673c1.642-1.2,2.6-2.636,2.6-4.177,0-4.252-7.257-7.7-16.21-7.7s-16.21,3.448-16.21,7.7,7.257,7.7,16.21,7.7a32.618,32.618,0,0,0,5.318-.433l20.471,11.5a5.728,5.728,0,0,0,5.156-.214C393.089,891.085,395.1,889.441,393.069,888.244Z" fill="#92b4d1" opacity="0.2"/>
      <g id="Grupo_29815" data-name="Grupo 29815">
        <path id="Trazado_24640" data-name="Trazado 24640" d="M393,886.145a4.35,4.35,0,1,1-5.894-1.767A4.351,4.351,0,0,1,393,886.145Z" fill="#001a46"/>
        <path id="Trazado_24641" data-name="Trazado 24641" d="M379.235,858.785l-9.42,5.076,14.052,25.922h0c.007.013.012.026.019.039.816,1.515,3.587,1.606,6.188.205s4.048-3.766,3.232-5.281c-.007-.013-.015-.024-.022-.037h0Z" fill="#084c94"/>
        <path id="Trazado_24642" data-name="Trazado 24642" d="M379.245,858.8c.817,1.515-.63,3.879-3.232,5.281s-5.371,1.31-6.187-.205.63-3.879,3.232-5.281S378.429,857.289,379.245,858.8Z" fill="#2672ab"/>
        <path id="Trazado_24643" data-name="Trazado 24643" d="M373.067,851.908l-5.6,3.019,3.984,7.394h0l.011.023c.486.9,2.134.956,3.681.122s2.408-2.24,1.922-3.141l-.013-.022h0Z" fill="#001a46"/>
      </g>
      <g id="Grupo_29816" data-name="Grupo 29816">
        <path id="Trazado_24644" data-name="Trazado 24644" d="M357.249,792.476c-6.976-4.027-13.3-4.489-17.931-1.982-.129.07-6.772,3.777-6.982,4.1,4.711-3.554,11.684-3.5,19.466.993,14.186,8.191,25.687,28.027,25.687,44.3,0,8.306-3,14.079-7.813,16.655a5.761,5.761,0,0,0,1.254-.551c.137-.076,4.667-2.821,4.8-2.9,4.461-2.727,7.2-8.359,7.2-16.31C382.935,820.5,371.435,800.667,357.249,792.476Z" fill="#72b5e8"/>
      </g>
      <path id="Trazado_24645" data-name="Trazado 24645" d="M351.8,795.585c-14.186-8.19-25.686-1.633-25.686,14.645s11.5,36.115,25.686,44.3,25.687,1.633,25.687-14.645S365.988,803.776,351.8,795.585Zm-.385,55.063c-12.038-6.951-21.8-23.783-21.8-37.6s9.759-19.378,21.8-12.427,21.8,23.782,21.8,37.6S363.455,857.6,351.417,850.648Z" fill="#d1ebff"/>
      <path id="Trazado_24646" data-name="Trazado 24646" d="M355.929,848.126c-12.039-6.95-21.8-23.782-21.8-37.6,0-5.635,1.625-9.9,4.366-12.5-5.383,1.447-8.877,6.754-8.877,15.017,0,13.814,9.759,30.646,21.8,37.6,7.127,4.115,13.455,3.842,17.432.068C365.233,851.688,360.766,850.919,355.929,848.126Z" fill="#72b5e8"/>
      <path id="Trazado_24647" data-name="Trazado 24647" d="M353.035,794.969c-6.8-3.926-12.979-4.455-17.574-2.158,4.283-1.2,10.584-.549,16.341,2.774,14.186,8.191,25.687,28.027,25.687,44.3,0,8.475-4.108,14.554-9.1,17.049,6.271-1.754,10.331-7.993,10.331-17.665C378.721,822.995,367.221,803.16,353.035,794.969Z" fill="#fff" style="mix-blend-mode: screen;isolation: isolate"/>
    </g>
    <g id="Grupo_29819" data-name="Grupo 29819">
      <g id="Grupo_29818" data-name="Grupo 29818">
        <path id="Trazado_24648" data-name="Trazado 24648" d="M376.672,717.944l22.741,13.437,4.776,10.379,1.771-.684v-28.4l-29.288-17.216-1.842.774Z" fill="#fc0"/>
        <path id="Trazado_24649" data-name="Trazado 24649" d="M403.815,713.68l-28.082-16.52-.4-1.249,29.288,17.216v28.4l-.8-2.23Z" fill="#fff"/>
        <path id="Trazado_24650" data-name="Trazado 24650" d="M374.829,718.6l22.741,13.437,6.547,9.695v-28.4l-29.288-17.216Z" fill="#ffde17"/>
      </g>
    </g>
    <g id="Grupo_29820" data-name="Grupo 29820">
      <path id="Trazado_24651" data-name="Trazado 24651" d="M382.081,707.223l-1.922-1.11V704.2l5.682,3.281v1.918l-1.922-1.11v11.507l-1.838-1.061Z" fill="#001a46"/>
      <path id="Trazado_24652" data-name="Trazado 24652" d="M387.245,721.021a5.9,5.9,0,0,1-.718-2.908v-7.058q0-1.611.718-2.078t2.073.314a5.388,5.388,0,0,1,2.072,2.079,5.9,5.9,0,0,1,.719,2.908v7.058q0,1.611-.719,2.078t-2.072-.314A5.391,5.391,0,0,1,387.245,721.021Zm3.026-.612v-7.326a1.986,1.986,0,0,0-.953-1.874q-.952-.549-.953.774v7.326a1.984,1.984,0,0,0,.953,1.873Q390.271,721.733,390.271,720.409Z" fill="#001a46"/>
      <path id="Trazado_24653" data-name="Trazado 24653" d="M393.346,711.808l2.708,1.564a5.307,5.307,0,0,1,2.055,2.031,5.832,5.832,0,0,1,.686,2.87V719.6q0,1.63-.686,2.078t-2.055-.343l-.87-.5V726.3l-1.838-1.062Zm2.708,7.605c.3.174.526.208.676.1s.226-.387.226-.847v-1.592a2.332,2.332,0,0,0-.226-1.109,1.727,1.727,0,0,0-.676-.678l-.87-.5v4.123Z" fill="#001a46"/>
    </g>
    <g id="Grupo_29823" data-name="Grupo 29823">
      <g id="Grupo_29821" data-name="Grupo 29821">
        <path id="Trazado_24654" data-name="Trazado 24654" d="M352.924,816.68l-6.075-6.561,1.813-1.034s.867.264,1.97.545a3.191,3.191,0,0,0,2.641-.24,5.415,5.415,0,0,0,1.741-2.558l4.294,2.479v34.833l-6.384-3.687Z" fill="#f76195"/>
      </g>
      <g id="Grupo_29822" data-name="Grupo 29822">
        <path id="Trazado_24655" data-name="Trazado 24655" d="M351.078,817.728l-4.262-2.4v-5.194s.867.264,1.97.545a3.188,3.188,0,0,0,2.64-.24,5.407,5.407,0,0,0,1.741-2.558l4.3,2.479v34.833l-6.384-3.687Z" fill="#eb4680"/>
      </g>
      <path id="Trazado_24656" data-name="Trazado 24656" d="M357.462,845.192l1.846-1.048V809.311l-1.846,1.048Z" fill="#d62d69"/>
      <path id="Trazado_24657" data-name="Trazado 24657" d="M355.014,806.832l-1.847,1.048,4.295,2.48,1.846-1.048Z" fill="#f76195"/>
      <path id="Trazado_24658" data-name="Trazado 24658" d="M357.462,810.119l-4.295-2.239,4.295,2.48,1.846-1.048Z" fill="#fff" opacity="0.5"/>
    </g>
    <path id="Trazado_24659" data-name="Trazado 24659" d="M521.247,774.132l-1.636-2.822a.789.789,0,0,0-.633-.459l-.479-.827c.718-.674.648-2.271-.218-3.764-.945-1.631-2.479-2.516-3.424-1.977s-.946,2.3,0,3.93c.865,1.492,2.221,2.357,3.17,2.08l.48.827a.774.774,0,0,0,.081.773l1.636,2.822c.205.353.537.545.742.428l.281-.16C521.452,774.866,521.452,774.485,521.247,774.132Zm-3.55-4.95c-.623.355-1.633-.228-2.256-1.3s-.623-2.234,0-2.589,1.633.228,2.256,1.3S518.32,768.827,517.7,769.182Z" fill="#fff"/>
    <g id="Grupo_29827" data-name="Grupo 29827">
      <g id="Grupo_29824" data-name="Grupo 29824">
        <path id="Trazado_24660" data-name="Trazado 24660" d="M315.467,801.543a.5.5,0,0,1-.5-.5v-2a.5.5,0,0,1,1,0v2A.5.5,0,0,1,315.467,801.543Zm0-5a.5.5,0,0,1-.5-.5v-2a.5.5,0,0,1,1,0v2A.5.5,0,0,1,315.467,796.543Zm0-5a.5.5,0,0,1-.5-.5v-2a.5.5,0,0,1,1,0v2A.5.5,0,0,1,315.467,791.542Zm0-5a.5.5,0,0,1-.5-.5v-2a.5.5,0,0,1,1,0v2A.5.5,0,0,1,315.467,786.542Zm0-5a.5.5,0,0,1-.5-.5v-2a.5.5,0,0,1,1,0v2A.5.5,0,0,1,315.467,781.542Zm0-5a.5.5,0,0,1-.5-.5v-2a.5.5,0,0,1,1,0v2A.5.5,0,0,1,315.467,776.542Zm0-5a.5.5,0,0,1-.5-.5v-2a.5.5,0,0,1,1,0v2A.5.5,0,0,1,315.467,771.542Zm0-5a.5.5,0,0,1-.5-.5v-2a.5.5,0,0,1,1,0v2A.5.5,0,0,1,315.467,766.542Zm0-5a.5.5,0,0,1-.5-.5v-2a.5.5,0,0,1,1,0v2A.5.5,0,0,1,315.467,761.542Zm0-5a.5.5,0,0,1-.5-.5v-2a.5.5,0,0,1,1,0v2A.5.5,0,0,1,315.467,756.542Zm0-5a.5.5,0,0,1-.5-.5v-2a.5.5,0,0,1,1,0v2A.5.5,0,0,1,315.467,751.542Zm0-5a.5.5,0,0,1-.5-.5v-2a.5.5,0,0,1,1,0v2A.5.5,0,0,1,315.467,746.542Zm-1.305-4.246a.5.5,0,0,1-.249-.067l-1.733-1a.5.5,0,0,1,.5-.866l1.733,1a.5.5,0,0,1-.251.933Zm-4.33-2.5a.5.5,0,0,1-.25-.067l-1.732-1a.5.5,0,0,1,.5-.866l1.732,1a.5.5,0,0,1-.25.933Zm-4.331-2.5a.5.5,0,0,1-.249-.067l-1.732-1a.5.5,0,0,1,.5-.866l1.732,1a.5.5,0,0,1-.251.933Zm-4.057-2.531a.5.5,0,0,1-.342-.866l1.462-1.364a.5.5,0,0,1,.683.731l-1.462,1.364A.5.5,0,0,1,301.444,734.765Zm3.655-3.412a.5.5,0,0,1-.341-.865l1.462-1.365a.5.5,0,1,1,.682.731l-1.462,1.365A.5.5,0,0,1,305.1,731.353Zm3.655-3.411a.5.5,0,0,1-.341-.866l1.462-1.365a.5.5,0,0,1,.683.732l-1.462,1.365A.5.5,0,0,1,308.754,727.942Zm3.656-3.412a.5.5,0,0,1-.342-.866l1.463-1.364a.5.5,0,1,1,.682.731l-1.462,1.365A.5.5,0,0,1,312.41,724.53Zm3.655-3.411a.5.5,0,0,1-.341-.866l1.462-1.364a.5.5,0,0,1,.683.731l-1.463,1.364A.5.5,0,0,1,316.065,721.119Zm3.656-3.412a.5.5,0,0,1-.342-.865l1.462-1.365a.5.5,0,1,1,.683.731l-1.462,1.365A.5.5,0,0,1,319.721,717.707Z" fill="#eb4680"/>
      </g>
      <g id="Grupo_29825" data-name="Grupo 29825">
        <path id="Trazado_24661" data-name="Trazado 24661" d="M301.319,734.881a.494.494,0,0,1-.365-.159.5.5,0,0,1,.024-.707l19.863-18.538a.5.5,0,1,1,.683.731l-19.863,18.539A.506.506,0,0,1,301.319,734.881Z" fill="#eb4680"/>
      </g>
      <path id="Trazado_24662" data-name="Trazado 24662" d="M314.379,801.543c.039-.816.6-1.172,1.251-.8a2.565,2.565,0,0,1,1.112,2.16c-.039.815-.6,1.171-1.252.8A2.564,2.564,0,0,1,314.379,801.543Z" fill="#eb4680"/>
      <g id="Grupo_29826" data-name="Grupo 29826">
        <path id="Trazado_24663" data-name="Trazado 24663" d="M320.913,718.373a.489.489,0,0,1-.2-.04.5.5,0,0,1-.262-.656l.748-1.747-2.318.818a.5.5,0,1,1-.333-.943l3.393-1.2a.5.5,0,0,1,.626.669l-1.2,2.794A.5.5,0,0,1,320.913,718.373Z" fill="#eb4680"/>
      </g>
    </g>
  </g>
</svg>
