<svg xmlns="http://www.w3.org/2000/svg" width="75.105" height="76" viewBox="0 0 75.105 76">
  <g id="Grupo_29866" data-name="Grupo 29866" transform="translate(-697 -7073)">
    <circle id="Elipse_1033" data-name="Elipse 1033" cx="33" cy="33" r="33" transform="translate(697 7073)" fill="#e6d8e8"/>
    <g id="click" transform="translate(712.869 7089.767)">
      <g id="Grupo_29837" data-name="Grupo 29837">
        <path id="Trazado_24723" data-name="Trazado 24723" d="M20.979,41.959H3.7a3.707,3.707,0,0,1-3.7-3.7V3.7A3.707,3.707,0,0,1,3.7,0H40.725a3.707,3.707,0,0,1,3.7,3.7V25.916a1.234,1.234,0,0,1-2.468,0V3.7a1.236,1.236,0,0,0-1.234-1.234H3.7A1.236,1.236,0,0,0,2.468,3.7V38.257A1.236,1.236,0,0,0,3.7,39.491H20.979a1.234,1.234,0,1,1,0,2.468Z" fill="#7d58bd"/>
      </g>
      <g id="Grupo_29838" data-name="Grupo 29838" transform="translate(9.873 12.341)">
        <path id="Trazado_24724" data-name="Trazado 24724" d="M12.639,19.809A1.235,1.235,0,0,1,11.4,18.575V9.936a2.468,2.468,0,0,0-4.936,0v8.639a1.234,1.234,0,1,1-2.468,0V9.936a4.936,4.936,0,0,1,9.873,0v8.639A1.235,1.235,0,0,1,12.639,19.809Z" transform="translate(-4 -5)" fill="#7d58bd"/>
      </g>
      <g id="Grupo_29839" data-name="Grupo 29839" transform="translate(9.873 19.745)">
        <path id="Trazado_24725" data-name="Trazado 24725" d="M12.639,10.468h-7.4A1.234,1.234,0,1,1,5.234,8h7.4a1.234,1.234,0,1,1,0,2.468Z" transform="translate(-4 -8)" fill="#7d58bd"/>
      </g>
      <g id="Grupo_29840" data-name="Grupo 29840" transform="translate(24.682 12.341)">
        <path id="Trazado_24726" data-name="Trazado 24726" d="M13.7,19.809H11.234A1.235,1.235,0,0,1,10,18.575V6.234A1.235,1.235,0,0,1,11.234,5H13.7a6.177,6.177,0,0,1,6.17,6.17v2.468A6.177,6.177,0,0,1,13.7,19.809Zm-1.234-2.468H13.7a3.707,3.707,0,0,0,3.7-3.7V11.17a3.707,3.707,0,0,0-3.7-3.7H12.468Z" transform="translate(-10 -5)" fill="#7d58bd"/>
      </g>
      <g id="Grupo_29841" data-name="Grupo 29841" transform="translate(33.957 34.442)">
        <path id="Trazado_24727" data-name="Trazado 24727" d="M24.44,22.377a1.24,1.24,0,0,1-.874-.36l-5.235-5.235a1.236,1.236,0,0,0-1.747,1.747,1.233,1.233,0,1,1-1.745,1.743,3.7,3.7,0,0,1,5.237-5.233l5.235,5.235a1.23,1.23,0,0,1-.871,2.1Z" transform="translate(-13.758 -13.955)" fill="#7d58bd"/>
      </g>
      <g id="Grupo_29842" data-name="Grupo 29842" transform="translate(39.193 32.696)">
        <path id="Trazado_24728" data-name="Trazado 24728" d="M24.816,19.925a1.24,1.24,0,0,1-.874-.36l-3.49-3.49a1.234,1.234,0,0,0-1.745,1.745,1.234,1.234,0,1,1-1.745,1.745A3.7,3.7,0,1,1,22.2,14.33l3.49,3.49a1.233,1.233,0,0,1-.871,2.105Z" transform="translate(-15.879 -13.247)" fill="#7d58bd"/>
      </g>
      <g id="Grupo_29843" data-name="Grupo 29843" transform="translate(25.227 30.948)">
        <path id="Trazado_24729" data-name="Trazado 24729" d="M30.095,40.824a11.034,11.034,0,0,1-2.725-.341l-8.6-2.194A1.242,1.242,0,0,1,18,37.717a4.434,4.434,0,0,1,.718-5.329,4.732,4.732,0,0,1,3.11-1.254L11.3,20.607a3.7,3.7,0,0,1,5.235-5.237L27.012,25.842a1.234,1.234,0,0,1-1.745,1.745L14.795,17.115A1.234,1.234,0,1,0,13.05,18.86L26.141,31.949a1.234,1.234,0,0,1-1.261,2.044c-1.051-.348-3.515-.768-4.413.138a1.874,1.874,0,0,0-.5,1.915l8.019,2.046a8.676,8.676,0,0,0,8.241-2.263l3.006-3.006a8.64,8.64,0,0,0,0-12.22L34,15.365a1.237,1.237,0,0,0-1.745,0,1.23,1.23,0,0,0,0,1.745,1.235,1.235,0,1,1-1.745,1.747,3.7,3.7,0,0,1,5.235-5.237l5.235,5.237a11.107,11.107,0,0,1,0,15.707l-3.006,3.006a11.152,11.152,0,0,1-7.876,3.253Z" transform="translate(-10.221 -12.539)" fill="#7d58bd"/>
      </g>
    </g>
  </g>
</svg>
