<svg xmlns="http://www.w3.org/2000/svg" width="74.282" height="74.41" viewBox="0 0 74.282 74.41">
  <g id="Grupo_29865" data-name="Grupo 29865" transform="translate(-304 -7207)">
    <circle id="Elipse_1034" data-name="Elipse 1034" cx="33" cy="33" r="33" transform="translate(304 7207)" fill="#e6d8e8"/>
    <g id="subasta" transform="translate(316.566 7219.767)">
      <g id="Grupo_29852" data-name="Grupo 29852" transform="translate(25.778 4.107)">
        <g id="Grupo_29851" data-name="Grupo 29851">
          <path id="Trazado_24737" data-name="Trazado 24737" d="M210.234,46.365a5.137,5.137,0,0,0-5.04-4.115,3.082,3.082,0,1,1,3.082-3.082h2.055a5.146,5.146,0,0,0-4.11-5.034V31.976h-2.055v2.158a5.137,5.137,0,0,0,1.027,10.172,3.082,3.082,0,1,1-3.082,3.082h-2.055a5.146,5.146,0,0,0,4.11,5.034V54.58h2.055V52.422A5.137,5.137,0,0,0,210.234,46.365Z" transform="translate(-200.051 -31.976)" fill="#7d58bd"/>
        </g>
      </g>
      <g id="Grupo_29854" data-name="Grupo 29854" transform="translate(15.51)">
        <g id="Grupo_29853" data-name="Grupo 29853">
          <path id="Trazado_24738" data-name="Trazado 24738" d="M150.921,15.409a15.412,15.412,0,1,0-18.494,15.1V41.094H131.4a1.028,1.028,0,0,0-.682.26l-9.247,8.22a1.028,1.028,0,0,0-.345.767V60.616a1.027,1.027,0,0,0,1.027,1.027h19.521a3.069,3.069,0,0,0,2.281-5.137,3.035,3.035,0,0,0,0-4.11,3.035,3.035,0,0,0,0-4.11,3.069,3.069,0,0,0-2.281-5.137h-1.216a3.082,3.082,0,0,0-1.866-1.866V30.512A15.437,15.437,0,0,0,150.921,15.409ZM135.51,49.828V47.259h-2.055v2.569a3.589,3.589,0,0,0,1.535,2.937,3.043,3.043,0,0,0,.294,3.741,2.988,2.988,0,0,0-.616,3.082H123.18V50.8l8.61-7.653h5.774a1.027,1.027,0,0,1,1.027,1.027v5.651a1.541,1.541,0,0,1-3.082,0Zm-1.027-8.733V30.768c.341.023.68.052,1.027.052s.686-.03,1.027-.052V41.094Zm7.192,18.494h-4.11a1.027,1.027,0,0,1,0-2.055h4.11a1.027,1.027,0,1,1,0,2.055ZM140.647,45.2h1.027a1.027,1.027,0,1,1,0,2.055h-1.027Zm0,4.623v-.514h1.027a1.027,1.027,0,1,1,0,2.055h-1.388A3.557,3.557,0,0,0,140.647,49.828Zm1.027,3.6a1.027,1.027,0,1,1,0,2.055h-4.11a1.027,1.027,0,0,1,0-2.055ZM135.51,28.765a13.357,13.357,0,1,1,13.357-13.357A13.372,13.372,0,0,1,135.51,28.765Z" transform="translate(-120.098 0)" fill="#7d58bd"/>
        </g>
      </g>
      <g id="Grupo_29856" data-name="Grupo 29856" transform="translate(6.263 34.93)">
        <g id="Grupo_29855" data-name="Grupo 29855">
          <path id="Trazado_24739" data-name="Trazado 24739" d="M51.18,277.112a1.027,1.027,0,1,1,1.027-1.027h2.055a3.082,3.082,0,0,0-2.055-2.893v-1.216H50.153v1.216a3.075,3.075,0,0,0,1.027,5.976,1.027,1.027,0,1,1-1.027,1.027H48.1a3.082,3.082,0,0,0,2.055,2.893V284.3h2.055v-1.216a3.075,3.075,0,0,0-1.027-5.976Z" transform="translate(-48.098 -271.975)" fill="#7d58bd"/>
        </g>
      </g>
      <g id="Grupo_29858" data-name="Grupo 29858" transform="translate(0.098 31.844)">
        <g id="Grupo_29857" data-name="Grupo 29857" transform="translate(0)">
          <path id="Trazado_24740" data-name="Trazado 24740" d="M9.348,247.949a9.247,9.247,0,0,0-1.031,18.437v11.362h2.055V266.386a9.247,9.247,0,0,0-1.024-18.437Zm0,16.442a7.192,7.192,0,1,1,7.192-7.192A7.192,7.192,0,0,1,9.345,264.391Z" transform="translate(-0.098 -247.949)" fill="#7d58bd"/>
        </g>
      </g>
      <g id="Grupo_29860" data-name="Grupo 29860" transform="translate(49.415 34.93)">
        <g id="Grupo_29859" data-name="Grupo 29859">
          <path id="Trazado_24741" data-name="Trazado 24741" d="M387.18,277.112a1.027,1.027,0,1,1,1.027-1.027h2.055a3.082,3.082,0,0,0-2.055-2.893v-1.216h-2.055v1.216a3.075,3.075,0,0,0,1.027,5.976,1.027,1.027,0,1,1-1.027,1.027H384.1a3.082,3.082,0,0,0,2.055,2.893V284.3h2.055v-1.216a3.075,3.075,0,0,0-1.027-5.976Z" transform="translate(-384.098 -271.975)" fill="#7d58bd"/>
        </g>
      </g>
      <g id="Grupo_29862" data-name="Grupo 29862" transform="translate(43.28 31.848)">
        <g id="Grupo_29861" data-name="Grupo 29861">
          <path id="Trazado_24742" data-name="Trazado 24742" d="M354.7,256.166a9.219,9.219,0,1,0-10.185,10.243v11.362h2.055V266.409A9.247,9.247,0,0,0,354.7,256.166Zm-9.157,8.249a7.192,7.192,0,1,1,7.192-7.192A7.192,7.192,0,0,1,345.543,264.415Z" transform="translate(-336.326 -247.976)" fill="#7d58bd"/>
        </g>
      </g>
    </g>
  </g>
</svg>
