<svg xmlns="http://www.w3.org/2000/svg" width="68.333" height="77.027" viewBox="0 0 68.333 77.027">
  <g id="Grupo_29870" data-name="Grupo 29870" transform="translate(-294 -7073)">
    <circle id="Elipse_1019" data-name="Elipse 1019" cx="33" cy="33" r="33" transform="translate(294 7073)" fill="#e6d8e8"/>
    <g id="geography" transform="translate(270.577 7091)">
      <g id="Grupo_29833" data-name="Grupo 29833" transform="translate(42.536)">
        <g id="Grupo_29832" data-name="Grupo 29832">
          <path id="Trazado_24664" data-name="Trazado 24664" d="M87.352,39.6l-.036.035L85.274,37.6A22,22,0,1,0,54.2,6.443l-2.06-2.06A1.153,1.153,0,0,0,50.5,2.755a27.215,27.215,0,0,0-3.1,34.777,1.153,1.153,0,0,0,1.891-1.319A24.852,24.852,0,0,1,50.582,6.088l2.07,2.07a22,22,0,0,0,30.9,30.98l2.051,2.051a24.918,24.918,0,0,1-29.821,1.434,1.153,1.153,0,1,0-1.294,1.908,27.05,27.05,0,0,0,14.1,4.646V52.11H64.44a5.771,5.771,0,0,0-5.764,5.764,1.153,1.153,0,0,0,1.153,1.153H79.658a1.153,1.153,0,0,0,1.153-1.153,5.771,5.771,0,0,0-5.764-5.764H70.9V49.175a27.2,27.2,0,0,0,18.086-7.942,1.153,1.153,0,0,0-1.63-1.631ZM69.414,5.335l2.334-2.928A19.756,19.756,0,0,1,88.707,16.646l-.275.245a2.56,2.56,0,0,0-.61.817l-.231-.636a2.42,2.42,0,0,0-.436-.747l-1.041-1.218a2.425,2.425,0,0,0-1.846-.851H82.994A1.532,1.532,0,0,0,81.7,16.6a9.064,9.064,0,0,1-2.235,1.328L77.878,14.9v-.671a1.153,1.153,0,0,0-.357-.834l-1.572-1.5a1.153,1.153,0,0,0-.414-.254l-4.565-1.6a1.154,1.154,0,0,0-.382-.065H66.617a4.163,4.163,0,0,0-3.272,1.6l-.908-1.271,1.122-2.72L68.894,5.7A1.154,1.154,0,0,0,69.414,5.335Zm5.748,24.313c.257.828.257.828-.091,1.207l-.172.184A3.769,3.769,0,0,0,73.878,32.7a1.033,1.033,0,0,1-.281.426,4.027,4.027,0,0,0-.508.675,3.043,3.043,0,0,0-.342.992c-.047.235-.065.3-.113.361a3.942,3.942,0,0,1-1.4,1.088,8.018,8.018,0,0,1-.753-1.751c-.127-.376-.3-.755-.465-1.121a3.606,3.606,0,0,1-.538-1.95l.063-.193a3.991,3.991,0,0,0,.048-3.139,3.341,3.341,0,0,0-.672-.965,2.451,2.451,0,0,1-.254-.307,1.786,1.786,0,0,1-.016-.339,2.393,2.393,0,0,0-.753-1.956,3.018,3.018,0,0,0-3.031-.5,5.084,5.084,0,0,1-.578.122,2.735,2.735,0,0,1-2.621-1.1,3.036,3.036,0,0,1-.234-3.07,6.2,6.2,0,0,1,1.045-1.411c.1-.111.2-.224.3-.339.175-.2.361-.465.557-.744a7.045,7.045,0,0,1,.755-.962,5.866,5.866,0,0,1,1.734-.218c.247-.009.482-.017.7-.034a1.153,1.153,0,0,0,.609,1.015c.145.078.36.221.587.372a5.073,5.073,0,0,0,2.263,1.035,1.711,1.711,0,0,0,1.387-.57l.022-.022a1.211,1.211,0,0,0,.15-.15l.212.058a6.5,6.5,0,0,1,1.5.527,5.923,5.923,0,0,1,.832,1.667c.123.319.251.649.39.946.057.122.113.247.17.375a5.6,5.6,0,0,0,1.881,2.6,3.145,3.145,0,0,0,1.176.418c-.208.223-.45.448-.7.681C75.944,26.189,74.506,27.529,75.162,29.648ZM56.7,33.113l-.6,3.112a19.679,19.679,0,0,1-5.827-11.119l1.769-.575L55.4,27.082a1.152,1.152,0,0,0,.477.214l2.1.41a.63.63,0,0,1,.478.815,2.917,2.917,0,0,0,0,1.822l.268.823a.631.631,0,0,1-.4.794l-.839.273A1.153,1.153,0,0,0,56.7,33.113Zm13.04,8.605a19.6,19.6,0,0,1-11.613-3.8l.71-3.706.191-.062a2.939,2.939,0,0,0,1.885-3.7l-.268-.823a.626.626,0,0,1,0-.391,2.936,2.936,0,0,0-2.227-3.8l-1.836-.359L52.965,22.33a1.154,1.154,0,0,0-1.054-.179l-1.858.6c-.009-.247-.015-.494-.015-.743A19.73,19.73,0,0,1,68.864,2.326L67.818,3.638,62.308,5.57a1.153,1.153,0,0,0-.684.648L60.062,10a1.153,1.153,0,0,0,.127,1.11L62.6,14.49a1.162,1.162,0,0,0,.136.155,6.443,6.443,0,0,0-1.29,1.5c-.155.22-.315.447-.414.561s-.188.214-.281.319a8.145,8.145,0,0,0-1.406,1.958,5.342,5.342,0,0,0,.446,5.4,5.045,5.045,0,0,0,4.763,2.047,6.937,6.937,0,0,0,.863-.173c.664-.164.789-.159.9-.054l.019.019c.006.052.005.159,0,.239a3.592,3.592,0,0,0,.084.912,2.963,2.963,0,0,0,.785,1.3,2.332,2.332,0,0,1,.25.3c.21.5.145.751-.111,1.532l-.066.2a5.046,5.046,0,0,0,.633,3.612c.149.329.29.639.379.9.8,2.366,1.433,2.925,1.95,3.16a2.1,2.1,0,0,0,.878.189c1.674,0,3.222-1.873,3.3-1.966a2.9,2.9,0,0,0,.586-1.364,1.462,1.462,0,0,1,.072-.283,1.961,1.961,0,0,1,.241-.307,3.241,3.241,0,0,0,.754-1.259,1.559,1.559,0,0,1,.5-.782l.189-.2a2.992,2.992,0,0,0,.6-3.45c-.2-.639.094-1.035,1.2-2.066A9.355,9.355,0,0,0,79.951,25.4a2.1,2.1,0,0,0,.387-1.989A2.212,2.212,0,0,0,78.4,22.309a3.417,3.417,0,0,1-.623-.13,3.849,3.849,0,0,1-1.032-1.608c-.062-.139-.124-.276-.186-.409-.105-.225-.213-.5-.327-.8a7.31,7.31,0,0,0-1.312-2.426,5.584,5.584,0,0,0-2.568-1.163c-.291-.079-.566-.153-.739-.217a1.154,1.154,0,0,0-.663-.041,2.465,2.465,0,0,0-1.022.432,1.308,1.308,0,0,0-.225.233c-.184-.107-.387-.238-.555-.349a1.5,1.5,0,0,0-.137-.8c-.559-1.182-2.307-1.1-2.652-1.069-.168.014-.386.022-.617.03-.331.012-.693.025-1.058.059l.2-.554a1.851,1.851,0,0,1,1.738-1.223h3.775l4.145,1.457,1.036.989v.46a1.154,1.154,0,0,0,.131.534L77.89,19.9a1.153,1.153,0,0,0,1.421.548l.636-.235a11.363,11.363,0,0,0,4.075-2.608,1.153,1.153,0,0,0,.32-1.018.12.12,0,0,1,.019.018L85.4,17.823a.123.123,0,0,1,.022.038l1.148,3.158a1.153,1.153,0,0,0,1.9.421l.547-.547a2.877,2.877,0,0,0,.369-.454q.062.778.063,1.572A19.729,19.729,0,0,1,69.743,41.718Zm5.3,12.7a3.465,3.465,0,0,1,3.261,2.306H61.179a3.465,3.465,0,0,1,3.261-2.306Z" transform="translate(-42.536 0)" fill="#7d58bd"/>
        </g>
      </g>
      <g id="Grupo_29835" data-name="Grupo 29835" transform="translate(50.167 39.081)">
        <g id="Grupo_29834" data-name="Grupo 29834">
          <path id="Trazado_24665" data-name="Trazado 24665" d="M109.879,338.989a1.153,1.153,0,0,0-1.153,1.153v.184a1.153,1.153,0,1,0,2.306,0v-.184A1.153,1.153,0,0,0,109.879,338.989Z" transform="translate(-108.726 -338.989)" fill="#7d58bd"/>
        </g>
      </g>
    </g>
  </g>
</svg>
