<svg xmlns="http://www.w3.org/2000/svg" width="72" height="74" viewBox="0 0 72 74">
  <g id="Grupo_29864" data-name="Grupo 29864" transform="translate(-413 -7207)">
    <circle id="Elipse_1035" data-name="Elipse 1035" cx="33" cy="33" r="33" transform="translate(413 7207)" fill="#e6d8e8"/>
    <g id="calendario" transform="translate(425.678 7208.99)">
      <path id="Trazado_24743" data-name="Trazado 24743" d="M54.355,25.656H51.044v-.828A.828.828,0,0,0,50.216,24H46.905a.828.828,0,0,0-.828.828v.828H43.594v-.828A.828.828,0,0,0,42.766,24H39.455a.828.828,0,0,0-.828.828v.828H36.144v-.828A.828.828,0,0,0,35.316,24H32.005a.828.828,0,0,0-.828.828v.828H28.694v-.828A.828.828,0,0,0,27.866,24H24.555a.828.828,0,0,0-.828.828v.828H21.244v-.828A.828.828,0,0,0,20.417,24H17.105a.828.828,0,0,0-.828.828v.828H12.967A4.972,4.972,0,0,0,8,30.622V67.044a4.972,4.972,0,0,0,4.967,4.967H54.355a4.972,4.972,0,0,0,4.967-4.967V30.622a4.972,4.972,0,0,0-4.967-4.967Zm-6.622,0h1.656v1.656H47.733Zm-7.45,0h1.656v1.656H40.283Zm-7.45,0h1.656v1.656H32.833Zm-7.45,0h1.656v1.656H25.383Zm-7.45,0h1.656v1.656H17.933ZM57.666,67.044a3.315,3.315,0,0,1-3.311,3.311H12.967a3.315,3.315,0,0,1-3.311-3.311V65.775a4.946,4.946,0,0,0,3.311,1.269H47.733a.826.826,0,0,0,.583-.24l9.351-9.261Zm-9.105-2.812V56.283h8.025Zm9.105-9.6H47.733a.828.828,0,0,0-.828.828v9.933H12.967a3.315,3.315,0,0,1-3.311-3.311V33.105h48.01Zm0-23.177H9.656v-.828a3.315,3.315,0,0,1,3.311-3.311h3.311v.828a.828.828,0,0,0,.828.828h3.311a.828.828,0,0,0,.828-.828v-.828h2.483v.828a.828.828,0,0,0,.828.828h3.311a.828.828,0,0,0,.828-.828v-.828h2.483v.828a.828.828,0,0,0,.828.828h3.311a.828.828,0,0,0,.828-.828v-.828h2.483v.828a.828.828,0,0,0,.828.828h3.311a.828.828,0,0,0,.828-.828v-.828h2.483v.828a.828.828,0,0,0,.828.828h3.311a.828.828,0,0,0,.828-.828v-.828h3.311a3.315,3.315,0,0,1,3.311,3.311Z" fill="#7d58bd"/>
      <path id="Trazado_24744" data-name="Trazado 24744" d="M216.828,136.278h6.622a.828.828,0,0,0,.828-.828v-6.622a.828.828,0,0,0-.828-.828h-6.622a.828.828,0,0,0-.828.828v6.622A.828.828,0,0,0,216.828,136.278Zm.828-6.622h4.967v4.967h-4.967Z" transform="translate(-186.478 -93.239)" fill="#7d58bd"/>
      <path id="Trazado_24745" data-name="Trazado 24745" d="M128.828,136.278h6.622a.828.828,0,0,0,.828-.828v-6.622a.828.828,0,0,0-.828-.828h-6.622a.828.828,0,0,0-.828.828v6.622A.828.828,0,0,0,128.828,136.278Zm.828-6.622h4.967v4.967h-4.967Z" transform="translate(-107.583 -93.239)" fill="#7d58bd"/>
      <path id="Trazado_24746" data-name="Trazado 24746" d="M392.828,136.278h6.622a.828.828,0,0,0,.828-.828v-6.622a.828.828,0,0,0-.828-.828h-6.622a.828.828,0,0,0-.828.828v6.622A.828.828,0,0,0,392.828,136.278Zm.828-6.622h4.967v4.967h-4.967Z" transform="translate(-344.267 -93.239)" fill="#7d58bd"/>
      <path id="Trazado_24747" data-name="Trazado 24747" d="M304.828,136.278h6.622a.828.828,0,0,0,.828-.828v-6.622a.828.828,0,0,0-.828-.828h-6.622a.828.828,0,0,0-.828.828v6.622A.828.828,0,0,0,304.828,136.278Zm.828-6.622h4.967v4.967h-4.967Z" transform="translate(-265.373 -93.239)" fill="#7d58bd"/>
      <path id="Trazado_24748" data-name="Trazado 24748" d="M40.828,136.278H47.45a.828.828,0,0,0,.828-.828v-6.622A.828.828,0,0,0,47.45,128H40.828a.828.828,0,0,0-.828.828v6.622A.828.828,0,0,0,40.828,136.278Zm.828-6.622h4.967v4.967H41.656Z" transform="translate(-28.689 -93.239)" fill="#7d58bd"/>
      <path id="Trazado_24749" data-name="Trazado 24749" d="M216.828,224.278h6.622a.828.828,0,0,0,.828-.828v-6.622a.828.828,0,0,0-.828-.828h-6.622a.828.828,0,0,0-.828.828v6.622A.828.828,0,0,0,216.828,224.278Zm.828-6.622h4.967v4.967h-4.967Z" transform="translate(-186.478 -172.134)" fill="#7d58bd"/>
      <path id="Trazado_24750" data-name="Trazado 24750" d="M128.828,224.278h6.622a.828.828,0,0,0,.828-.828v-6.622a.828.828,0,0,0-.828-.828h-6.622a.828.828,0,0,0-.828.828v6.622A.828.828,0,0,0,128.828,224.278Zm.828-6.622h4.967v4.967h-4.967Z" transform="translate(-107.583 -172.134)" fill="#7d58bd"/>
      <path id="Trazado_24751" data-name="Trazado 24751" d="M392.828,224.278h6.622a.828.828,0,0,0,.828-.828v-6.622a.828.828,0,0,0-.828-.828h-6.622a.828.828,0,0,0-.828.828v6.622A.828.828,0,0,0,392.828,224.278Zm.828-6.622h4.967v4.967h-4.967Z" transform="translate(-344.267 -172.134)" fill="#7d58bd"/>
      <path id="Trazado_24752" data-name="Trazado 24752" d="M304.828,224.278h6.622a.828.828,0,0,0,.828-.828v-6.622a.828.828,0,0,0-.828-.828h-6.622a.828.828,0,0,0-.828.828v6.622A.828.828,0,0,0,304.828,224.278Zm.828-6.622h4.967v4.967h-4.967Z" transform="translate(-265.373 -172.134)" fill="#7d58bd"/>
      <path id="Trazado_24753" data-name="Trazado 24753" d="M40.828,224.278H47.45a.828.828,0,0,0,.828-.828v-6.622A.828.828,0,0,0,47.45,216H40.828a.828.828,0,0,0-.828.828v6.622A.828.828,0,0,0,40.828,224.278Zm.828-6.622h4.967v4.967H41.656Z" transform="translate(-28.689 -172.134)" fill="#7d58bd"/>
      <path id="Trazado_24754" data-name="Trazado 24754" d="M216.828,312.277h6.622a.828.828,0,0,0,.828-.828v-3.831l2.964-2.117a.828.828,0,0,0-.962-1.347l-2,1.43v-.757a.828.828,0,0,0-.828-.828h-6.622a.828.828,0,0,0-.828.828v6.622A.828.828,0,0,0,216.828,312.277Zm.828-6.622h4.967v1.111l-1.566,1.119-1.16-1.16a.828.828,0,0,0-1.171,1.171l1.656,1.656a.828.828,0,0,0,1.066.088l1.174-.839v1.821h-4.967Z" transform="translate(-186.478 -251.027)" fill="#7d58bd"/>
      <path id="Trazado_24755" data-name="Trazado 24755" d="M128.828,312.278h6.622a.828.828,0,0,0,.828-.828v-6.622a.828.828,0,0,0-.828-.828h-6.622a.828.828,0,0,0-.828.828v6.622A.828.828,0,0,0,128.828,312.278Zm.828-6.622h4.967v4.967h-4.967Z" transform="translate(-107.583 -251.028)" fill="#7d58bd"/>
      <path id="Trazado_24756" data-name="Trazado 24756" d="M40.828,312.278H47.45a.828.828,0,0,0,.828-.828v-6.622A.828.828,0,0,0,47.45,304H40.828a.828.828,0,0,0-.828.828v6.622A.828.828,0,0,0,40.828,312.278Zm.828-6.622h4.967v4.967H41.656Z" transform="translate(-28.689 -251.028)" fill="#7d58bd"/>
    </g>
  </g>
</svg>
