<svg xmlns="http://www.w3.org/2000/svg" width="77.014" height="77.015" viewBox="0 0 77.014 77.015">
  <g id="Grupo_29189" data-name="Grupo 29189" transform="translate(-392 -1328)">
    <circle id="Elipse_1017" data-name="Elipse 1017" cx="33" cy="33" r="33" transform="translate(392 1328)" fill="#e6d8e8"/>
    <g id="target" transform="translate(405.255 1342.268)">
      <path id="Trazado_23346" data-name="Trazado 23346" d="M41.331,46.392H39.643l-3.374-2.531V42.5a10.142,10.142,0,0,0,6.022-8.259h.052a3.037,3.037,0,0,0,3.037-3.037V30.2a3.037,3.037,0,0,0-3.037-3.037v-.281a7.086,7.086,0,0,0,3.037-5.792V15.012A1.012,1.012,0,0,0,44.367,14H26.147a7.094,7.094,0,0,0-7.086,7.086v3.037a4.049,4.049,0,0,0,1.755,3.33A3.037,3.037,0,0,0,19.061,30.2v1.012A3.037,3.037,0,0,0,22.1,34.245h.052A10.142,10.142,0,0,0,28.171,42.5v1.357L24.8,46.392H23.11A9.121,9.121,0,0,0,14,55.5v6.073a1.012,1.012,0,0,0,1.012,1.012H49.429a1.012,1.012,0,0,0,1.012-1.012V55.5a9.121,9.121,0,0,0-9.11-9.11Zm2.024-16.2v1.012a1.012,1.012,0,0,1-1.012,1.012V29.184A1.012,1.012,0,0,1,43.355,30.2Zm-22.269-9.11a5.067,5.067,0,0,1,5.061-5.061H43.355v5.061a5.053,5.053,0,0,1-1.3,3.362,1,1,0,0,0-.462-.29L35.888,22.6a1.012,1.012,0,0,0-1.132.45,4.489,4.489,0,0,1-1.131,1.285,5.542,5.542,0,0,1-2.311,1,7.288,7.288,0,0,0,.906-3.148,1.012,1.012,0,0,0-1.012-1.1H30.2a1,1,0,0,0-.4.082L22.711,24.2a1.012,1.012,0,0,0-.613.93v.731a2.017,2.017,0,0,1-1.012-1.743Zm0,10.122V30.2A1.012,1.012,0,0,1,22.1,29.184V32.22A1.012,1.012,0,0,1,21.086,31.208Zm3.037,2.024V25.8l5.871-2.513a2.751,2.751,0,0,1-.534,1.157,4.089,4.089,0,0,1-.522.458,1.424,1.424,0,0,0-.709,1.552,1.341,1.341,0,0,0,.963.861,7.251,7.251,0,0,0,5.662-1.372,6.18,6.18,0,0,0,1.194-1.2l4.272,1.163v7.325a8.1,8.1,0,1,1-16.2,0Zm5.669,11.945a1.012,1.012,0,0,0,.4-.81V43.153a10.122,10.122,0,0,0,4.049,0v1.215a1.012,1.012,0,0,0,.4.81l2.817,2.113-5.246,3-5.246-3Zm8.087,4.209-1.426,7.128H27.989l-1.426-7.128,5.155,2.946a1.012,1.012,0,0,0,1,0ZM48.416,60.563H16.024V55.5a7.094,7.094,0,0,1,7.086-7.086H24.3l1.863,9.313a1.012,1.012,0,0,0,.992.81H37.282a1.012,1.012,0,0,0,.992-.81l1.863-9.312h1.194A7.094,7.094,0,0,1,48.416,55.5Z" transform="translate(0.159 0.159)" fill="#7d58bd"/>
      <path id="Trazado_23347" data-name="Trazado 23347" d="M31.037,8.954v2.168h2.024V8.954a4.049,4.049,0,1,0-2.024,0Zm1.012-5.93a2.024,2.024,0,1,1-2.024,2.024A2.024,2.024,0,0,1,32.049,3.025Z" transform="translate(0.331)" fill="#7d58bd"/>
      <path id="Trazado_23348" data-name="Trazado 23348" d="M8.954,33.061h5.2V31.037h-5.2a4.049,4.049,0,1,0,0,2.024ZM5.049,34.073a2.024,2.024,0,1,1,2.024-2.024A2.024,2.024,0,0,1,5.049,34.073Z" transform="translate(0 0.331)" fill="#7d58bd"/>
      <path id="Trazado_23349" data-name="Trazado 23349" d="M59.11,28A4.049,4.049,0,0,0,55.2,31.037H50v2.024h5.2A4.042,4.042,0,1,0,59.11,28Zm0,6.073a2.024,2.024,0,1,1,2.025-2.024A2.024,2.024,0,0,1,59.11,34.073Z" transform="translate(0.6 0.331)" fill="#7d58bd"/>
      <path id="Trazado_23350" data-name="Trazado 23350" d="M0,0H2.024V1.832H0Z" transform="translate(40.758 9.701) rotate(-67.155)" fill="#7d58bd"/>
      <path id="Trazado_23351" data-name="Trazado 23351" d="M0,0H2.024V1.833H0Z" transform="matrix(0.389, -0.921, 0.921, 0.389, 37.415, 8.279)" fill="#7d58bd"/>
      <path id="Trazado_23352" data-name="Trazado 23352" d="M0,0H2.024V1.832H0Z" transform="translate(44.132 11.126) rotate(-67.155)" fill="#7d58bd"/>
      <path id="Trazado_23353" data-name="Trazado 23353" d="M0,0H1.832V2.024H0Z" transform="matrix(0.389, -0.921, 0.921, 0.389, 55.791, 39.124)" fill="#7d58bd"/>
      <path id="Trazado_23354" data-name="Trazado 23354" d="M0,0H1.833V2.024H0Z" transform="matrix(0.389, -0.921, 0.921, 0.389, 52.94, 45.879)" fill="#7d58bd"/>
      <path id="Trazado_23355" data-name="Trazado 23355" d="M0,0H1.832V2.024H0Z" transform="matrix(0.389, -0.921, 0.921, 0.389, 54.365, 42.501)" fill="#7d58bd"/>
      <path id="Trazado_23356" data-name="Trazado 23356" d="M0,0H1.832V2.024H0Z" transform="matrix(0.389, -0.921, 0.921, 0.389, 9.239, 19.827)" fill="#7d58bd"/>
      <path id="Trazado_23357" data-name="Trazado 23357" d="M0,0H1.832V2.024H0Z" transform="matrix(0.389, -0.921, 0.921, 0.389, 7.814, 23.204)" fill="#7d58bd"/>
      <path id="Trazado_23358" data-name="Trazado 23358" d="M0,0H1.833V2.024H0Z" transform="matrix(0.389, -0.921, 0.921, 0.389, 6.388, 26.582)" fill="#7d58bd"/>
      <path id="Trazado_23359" data-name="Trazado 23359" d="M0,0H2.024V1.832H0Z" transform="translate(9.219 44.926) rotate(-22.845)" fill="#7d58bd"/>
      <path id="Trazado_23360" data-name="Trazado 23360" d="M0,0H2.024V1.833H0Z" transform="matrix(0.921, -0.389, 0.389, 0.921, 6.405, 38.171)" fill="#7d58bd"/>
      <path id="Trazado_23361" data-name="Trazado 23361" d="M0,0H2.024V1.832H0Z" transform="matrix(0.921, -0.389, 0.389, 0.921, 7.83, 41.547)" fill="#7d58bd"/>
      <path id="Trazado_23362" data-name="Trazado 23362" d="M0,0H2.024V1.832H0Z" transform="matrix(0.921, -0.389, 0.389, 0.921, 55.773, 25.641)" fill="#7d58bd"/>
      <path id="Trazado_23363" data-name="Trazado 23363" d="M0,0H2.024V1.832H0Z" transform="matrix(0.921, -0.389, 0.389, 0.921, 54.349, 22.266)" fill="#7d58bd"/>
      <path id="Trazado_23364" data-name="Trazado 23364" d="M0,0H2.024V1.833H0Z" transform="matrix(0.921, -0.389, 0.389, 0.921, 52.924, 18.885)" fill="#7d58bd"/>
      <path id="Trazado_23365" data-name="Trazado 23365" d="M0,0H1.832V2.024H0Z" transform="matrix(0.921, -0.389, 0.389, 0.921, 21.501, 8.522)" fill="#7d58bd"/>
      <path id="Trazado_23366" data-name="Trazado 23366" d="M0,0H1.832V2.024H0Z" transform="matrix(0.921, -0.389, 0.389, 0.921, 18.124, 9.945)" fill="#7d58bd"/>
      <path id="Trazado_23367" data-name="Trazado 23367" d="M0,0H1.832V2.024H0Z" transform="matrix(0.921, -0.389, 0.389, 0.921, 24.875, 7.098)" fill="#7d58bd"/>
      <path id="Trazado_23368" data-name="Trazado 23368" d="M46.021,16.658l1.431,1.431,1.565-1.565a4,4,0,0,0,2.044.574,4.049,4.049,0,1,0-4.049-4.049,4,4,0,0,0,.574,2.044Zm5.04-5.633a2.024,2.024,0,1,1-2.024,2.024A2.025,2.025,0,0,1,51.061,11.024Z" transform="translate(0.552 0.098)" fill="#7d58bd"/>
      <path id="Trazado_23369" data-name="Trazado 23369" d="M13.049,17.1a4,4,0,0,0,2.044-.574l1.565,1.565,1.431-1.431-1.565-1.565a4,4,0,0,0,.574-2.044A4.049,4.049,0,1,0,13.049,17.1Zm0-6.073a2.024,2.024,0,1,1-2.024,2.024A2.024,2.024,0,0,1,13.049,11.024Z" transform="translate(0.098 0.098)" fill="#7d58bd"/>
    </g>
  </g>
</svg>
