<svg xmlns="http://www.w3.org/2000/svg" width="150" height="150" viewBox="0 0 150 150">
  <g id="Grupo_30143" data-name="Grupo 30143" transform="translate(-3962 -903)">
    <g id="Grupo_30139" data-name="Grupo 30139" transform="translate(-157 7)">
      <g id="Elipse_1041" data-name="Elipse 1041" transform="translate(4119 896)" fill="#fff" stroke="#b869c3" stroke-width="7">
        <circle cx="75" cy="75" r="75" stroke="none"/>
        <circle cx="75" cy="75" r="71.5" fill="none"/>
      </g>
      <g id="digital-marketing" transform="translate(4153 930)">
        <path id="Trazado_25374" data-name="Trazado 25374" d="M81.9,54.2s0,0,0-.006V11.8a6.507,6.507,0,0,0-6.5-6.5H71.3V3.759A3.764,3.764,0,0,0,67.545,0H14.36A3.764,3.764,0,0,0,10.6,3.759V5.3H6.5A6.507,6.507,0,0,0,0,11.8V54.2s0,0,0,0a.045.045,0,0,0,0,0v5.3A6.507,6.507,0,0,0,6.5,66h6.349a1.2,1.2,0,1,0,0-2.4H6.5a4.105,4.105,0,0,1-4.1-4.1V55.4H79.505v4.1a4.1,4.1,0,0,1-4.1,4.1H17.648a1.2,1.2,0,1,0,0,2.4H29.655l-1.025,8.2H22.4a1.2,1.2,0,0,0-1.2,1.2v5.3a1.2,1.2,0,0,0,1.2,1.2H59.5a1.2,1.2,0,0,0,1.2-1.2v-5.3a1.2,1.2,0,0,0-1.2-1.2H53.275L52.25,66H75.4a6.507,6.507,0,0,0,6.5-6.5V54.21s0,0,0-.006ZM39.5,66h2.9v2.9H39.5Zm18.8,13.5H23.6V76.6H58.3Zm-7.447-5.3H31.048L32.073,66H37.1v4.1a1.2,1.2,0,0,0,1.2,1.2h5.3a1.2,1.2,0,0,0,1.2-1.2V66h5.029ZM74.205,53H71.3V13H74.08a.125.125,0,0,1,.125.125ZM13,3.759A1.361,1.361,0,0,1,14.36,2.4H67.545a1.361,1.361,0,0,1,1.36,1.36V53H13ZM2.4,11.8A4.1,4.1,0,0,1,6.5,7.7h4.1v2.9H7.825A2.528,2.528,0,0,0,5.3,13.126v3.068a1.2,1.2,0,1,0,2.4,0V13.126A.125.125,0,0,1,7.825,13H10.6V53H7.7V20.993a1.2,1.2,0,0,0-2.4,0V53H2.4ZM76.6,53V13.126A2.528,2.528,0,0,0,74.08,10.6H71.3V7.7h4.1a4.105,4.105,0,0,1,4.1,4.1V53H76.6Z" fill="#002b45"/>
        <path id="Trazado_25375" data-name="Trazado 25375" d="M238.433,366.866a1.2,1.2,0,1,0,0-2.4h-5.3a1.2,1.2,0,1,0,0,2.4Z" transform="translate(-194.831 -306.162)" fill="#002b45"/>
        <path id="Trazado_25376" data-name="Trazado 25376" d="M179.292,143.217h1.325a1.2,1.2,0,1,0,0-2.4h-1.325a1.2,1.2,0,1,0,0,2.4Z" transform="translate(-149.603 -118.29)" fill="#002b45"/>
        <path id="Trazado_25377" data-name="Trazado 25377" d="M119.726,60.3a3.764,3.764,0,0,0-3.759,3.759v2.831a3.764,3.764,0,0,0,3.759,3.759h1.708a3.776,3.776,0,0,0,2.483,2.483V81.5h-.171a2.482,2.482,0,0,0-2.48,2.48v2.741a2.482,2.482,0,0,0,2.48,2.48h8.041a2.482,2.482,0,0,0,2.48-2.48V83.982a2.482,2.482,0,0,0-2.48-2.48h-.171V73.3h1.256l14.9,4.965v.506a2.482,2.482,0,0,0,2.48,2.48h2.741a2.482,2.482,0,0,0,2.48-2.48V73.188a6.5,6.5,0,0,0,0-12.775V52.18a2.482,2.482,0,0,0-2.48-2.48h-2.741a2.482,2.482,0,0,0-2.48,2.48v.506l-14.9,4.965h-7.846a3.766,3.766,0,0,0-3.592,2.65h-1.708Zm-1.36,6.591V64.06a1.361,1.361,0,0,1,1.36-1.36h1.541v5.551h-1.541A1.361,1.361,0,0,1,118.367,66.892Zm13.5,17.09v2.741a.08.08,0,0,1-.08.08h-8.041a.08.08,0,0,1-.08-.08V83.982a.08.08,0,0,1,.08-.08h8.041A.08.08,0,0,1,131.868,83.982Zm-2.65-2.48h-2.9V73.3h2.9ZM158.37,66.8a4.108,4.108,0,0,1-2.9,3.921V62.88A4.108,4.108,0,0,1,158.37,66.8Zm-8.2-14.621a.08.08,0,0,1,.08-.08h2.741a.08.08,0,0,1,.08.08V78.772a.08.08,0,0,1-.08.08h-2.741a.08.08,0,0,1-.08-.08V52.18Zm-2.4,23.557-13.5-4.5V59.715l13.5-4.5Zm-24.1-14.327a1.361,1.361,0,0,1,1.36-1.36h6.841V70.9h-6.841a1.361,1.361,0,0,1-1.36-1.36V61.41Z" transform="translate(-97.416 -41.749)" fill="#002b45"/>
        <path id="Trazado_25378" data-name="Trazado 25378" d="M369.516,266.266a1.2,1.2,0,0,0-2.4,0v1.45h-1.45a1.2,1.2,0,1,0,0,2.4h1.45v1.45a1.2,1.2,0,1,0,2.4,0v-1.45h1.45a1.2,1.2,0,0,0,0-2.4h-1.45Z" transform="translate(-306.162 -222.663)" fill="#002b45"/>
        <path id="Trazado_25379" data-name="Trazado 25379" d="M100.6,38.184h1.45v1.45a1.2,1.2,0,1,0,2.4,0v-1.45h1.45a1.2,1.2,0,1,0,0-2.4h-1.45v-1.45a1.2,1.2,0,1,0-2.4,0v1.45H100.6a1.2,1.2,0,0,0,0,2.4Z" transform="translate(-83.499 -27.834)" fill="#002b45"/>
      </g>
    </g>
  </g>
</svg>
