<svg xmlns="http://www.w3.org/2000/svg" width="150" height="150" viewBox="0 0 150 150">
  <g id="Grupo_30144" data-name="Grupo 30144" transform="translate(-3962 -1075)">
    <g id="Grupo_30136" data-name="Grupo 30136" transform="translate(3612 -6578)">
      <g id="Elipse_1041" data-name="Elipse 1041" transform="translate(350 7653)" fill="#fff" stroke="#b869c3" stroke-width="7">
        <circle cx="75" cy="75" r="75" stroke="none"/>
        <circle cx="75" cy="75" r="71.5" fill="none"/>
      </g>
      <g id="email-marketing" transform="translate(345.099 7682)">
        <path id="Trazado_24791" data-name="Trazado 24791" d="M117.011,71.586a1.339,1.339,0,0,0,1.339-1.339V48.3a3.34,3.34,0,0,0-4.2-3.228L100.017,32.6,90.5,2.549h0L89.991.935a1.339,1.339,0,0,0-2.553.808l.241.762-7,5.908-.015-.047a1.339,1.339,0,1,0-2.553.809l.351,1.109L73.105,14.8l-15.318,4.85a4.109,4.109,0,0,0-2.677,5.158l.139.438-1.766.559-.053-.169a1.339,1.339,0,0,0-2.553.808l.086.272a6.96,6.96,0,0,0,1.348,12.871L46.1,45.073A3.34,3.34,0,0,0,41.9,48.3V88.069a3.345,3.345,0,0,0,3.341,3.341h69.767a3.345,3.345,0,0,0,3.341-3.341V75.6a1.339,1.339,0,1,0-2.678,0V88.069a.664.664,0,0,1-.663.663h-3.677L92.833,62.3,114.641,47.75a.663.663,0,0,1,1.031.551V70.247A1.339,1.339,0,0,0,117.011,71.586Zm-5.3-25.1L90.9,60.369a6.379,6.379,0,0,0-3.441-1.012H72.8a6.381,6.381,0,0,0-3.441,1.011L48.544,46.488l6.841-6.038a1.339,1.339,0,0,0,2.356-1.2l-.053-.168,1.766-.559.139.438a4.114,4.114,0,0,0,5.158,2.677l.445-.141,1.411,4.458a1.339,1.339,0,0,0,2.553-.809l-1.411-4.458,6.774-2.145,1.386,4.376a.258.258,0,0,1-.071.266L74.155,44.74a2.946,2.946,0,0,0-.808,3.043l1.867,5.9a1.166,1.166,0,0,1-.759,1.462l-.827.262a1.164,1.164,0,0,1-1.462-.759l-1.38-4.36a1.339,1.339,0,1,0-2.553.808l1.38,4.36a3.835,3.835,0,0,0,4.824,2.5l.827-.262a3.848,3.848,0,0,0,2.5-4.824l-1.867-5.9a.258.258,0,0,1,.071-.266l1.681-1.55a2.946,2.946,0,0,0,.808-3.043l-1.386-4.376,2.992-.947,6.981.613.351,1.109a1.339,1.339,0,0,0,2.553-.809l-.015-.047,9.126.8.241.762a1.339,1.339,0,0,0,2.553-.808l-.271-.857ZM88.555,5.271l9.633,30.423-9.126-.8L81.554,11.179ZM86.173,34.639l-5.248-.461-2.807-8.865-2.807-8.865,4.026-3.4ZM68.482,21.293a1.141,1.141,0,0,1-.743,1.431L64.182,23.85a1.141,1.141,0,0,1-1.431-.743l-.638-2.014L65.5,20.019l2.34-.741ZM57.758,22.912a1.422,1.422,0,0,1,.838-.705l.964-.305.638,2.014A3.817,3.817,0,0,0,64.99,26.4l3.558-1.127a3.822,3.822,0,0,0,2.487-4.792L70.4,18.47l2.494-.79,5.345,16.881-14.3,4.527a1.432,1.432,0,0,1-1.8-.932L57.663,24a1.424,1.424,0,0,1,.094-1.091Zm-1.7,4.891L58.1,34.254l.544,1.718-1.766.559-2.587-8.17ZM50.1,34.182a4.292,4.292,0,0,1,1.688-4.844l2.481,7.834A4.292,4.292,0,0,1,50.1,34.182Zm2.082,54.55,3.164-4.521a1.339,1.339,0,0,0-2.194-1.535l-4.238,6.057H45.242a.664.664,0,0,1-.663-.663V48.3a.663.663,0,0,1,1.031-.551L67.418,62.3,56.229,78.286a1.339,1.339,0,0,0,2.194,1.535l11.34-16.205a3.706,3.706,0,0,1,3.035-1.58H87.454a3.707,3.707,0,0,1,3.035,1.58l17.576,25.117Z" transform="translate(0 0)" fill="#002b45"/>
        <path id="Trazado_24792" data-name="Trazado 24792" d="M382.24,77.446a1.338,1.338,0,0,0,1.594,1.022l5.592-1.225a1.339,1.339,0,0,0-.573-2.616l-5.592,1.225A1.339,1.339,0,0,0,382.24,77.446Z" transform="translate(-279.551 -61.278)" fill="#002b45"/>
        <path id="Trazado_24793" data-name="Trazado 24793" d="M351.59,24.137a1.339,1.339,0,0,0,1.85-.405l3.088-4.82a1.339,1.339,0,1,0-2.255-1.445l-3.088,4.82a1.339,1.339,0,0,0,.405,1.85Z" transform="translate(-253.892 -13.842)" fill="#002b45"/>
        <path id="Trazado_24794" data-name="Trazado 24794" d="M379.765,130.347a1.339,1.339,0,1,0-1.445,2.255l4.82,3.088a1.339,1.339,0,1,0,1.445-2.255Z" transform="translate(-275.85 -106.902)" fill="#002b45"/>
      </g>
    </g>
  </g>
</svg>
