<svg xmlns="http://www.w3.org/2000/svg" width="124.369" height="107.449" viewBox="0 0 124.369 107.449">
  <g id="marketing_4_" data-name="marketing (4)" transform="translate(0 -14.682)">
    <path id="Trazado_25366" data-name="Trazado 25366" d="M0,59.5Z" transform="translate(3 11.025)" fill="#91e0e8"/>
    <path id="Trazado_25336" data-name="Trazado 25336" d="M37.787,330.8a.9.9,0,0,1-.9.9H.9a.9.9,0,0,1-.9-.9V306.685a.9.9,0,0,1,.9-.9H36.887a.9.9,0,0,1,.9.9V330.8Z" transform="translate(0 -223.179)" fill="#52bbef"/>
    <path id="Trazado_25337" data-name="Trazado 25337" d="M29.156,347.548a.735.735,0,0,0-1.16,0L23.32,353.1a.735.735,0,0,1-1.16,0l-8.829-10.474a.734.734,0,0,0-1.16,0L0,357.063v1.408a.9.9,0,0,0,.9.9H36.887a.9.9,0,0,0,.9-.9v-.685Z" transform="translate(0 -250.854)" fill="#02af8e"/>
    <path id="Trazado_25338" data-name="Trazado 25338" d="M4.82,358.471v-1.408l10.341-12.268-1.83-2.171a.734.734,0,0,0-1.16,0L0,357.063v1.408a.9.9,0,0,0,.9.9H5.72A.9.9,0,0,1,4.82,358.471Z" transform="translate(0 -250.854)" fill="#0f9390"/>
    <circle id="Elipse_1068" data-name="Elipse 1068" cx="2.699" cy="2.699" r="2.699" transform="translate(2.373 84.626)" fill="#fff"/>
    <path id="Trazado_25339" data-name="Trazado 25339" d="M12,316.8a2.7,2.7,0,0,1,1.585-2.456,2.7,2.7,0,1,0,0,4.912A2.7,2.7,0,0,1,12,316.8Z" transform="translate(-7.395 -229.474)" fill="#d9eafc"/>
    <path id="Trazado_25340" data-name="Trazado 25340" d="M386.384,326.318a1.218,1.218,0,0,1-1.215,1.215h-26.5a1.218,1.218,0,0,1-1.215-1.215V307.354a1.218,1.218,0,0,1,1.215-1.215h26.5a1.218,1.218,0,0,1,1.215,1.215Z" transform="translate(-270.628 -223.447)" fill="#fe3745"/>
    <path id="Trazado_25341" data-name="Trazado 25341" d="M362.277,326.318V307.354a1.218,1.218,0,0,1,1.215-1.215h-4.82a1.218,1.218,0,0,0-1.215,1.215v18.965a1.218,1.218,0,0,0,1.215,1.215h4.82A1.218,1.218,0,0,1,362.277,326.318Z" transform="translate(-270.628 -223.447)" fill="#b7092b"/>
    <path id="Trazado_25342" data-name="Trazado 25342" d="M397.552,330.038c0-1.336.947-1.883,2.1-1.215l6.506,3.756a1.284,1.284,0,0,1,0,2.429l-6.506,3.756c-1.157.668-2.1.121-2.1-1.215Z" transform="translate(-300.983 -240.405)" fill="#fff"/>
    <path id="Trazado_25343" data-name="Trazado 25343" d="M440.78,224.146H419.05a.485.485,0,0,0-.483.485v13.943a.485.485,0,0,0,.483.485h21.73a.485.485,0,0,0,.483-.485V224.631A.486.486,0,0,0,440.78,224.146Z" transform="translate(-316.893 -161.371)" fill="#ffaf10"/>
    <path id="Trazado_25344" data-name="Trazado 25344" d="M423.386,238.575V224.632a.485.485,0,0,1,.483-.485h-4.82a.485.485,0,0,0-.483.485v13.943a.485.485,0,0,0,.483.485h4.82A.485.485,0,0,1,423.386,238.575Z" transform="translate(-316.893 -161.372)" fill="#ef9614"/>
    <path id="Trazado_25345" data-name="Trazado 25345" d="M441.142,224.146h-21.73a.479.479,0,0,0-.367.173l10.849,8.385a.661.661,0,0,0,.765,0l10.849-8.385A.479.479,0,0,0,441.142,224.146Z" transform="translate(-317.256 -161.371)" fill="#ffd00d"/>
    <path id="Trazado_25346" data-name="Trazado 25346" d="M59.8,26.156H38.069a.485.485,0,0,0-.483.485V40.584a.485.485,0,0,0,.483.485H59.8a.485.485,0,0,0,.483-.485V26.641A.485.485,0,0,0,59.8,26.156Z" transform="translate(-28.456 -11.474)" fill="#ffaf10"/>
    <path id="Trazado_25347" data-name="Trazado 25347" d="M42.406,40.585V26.642a.485.485,0,0,1,.483-.485h-4.82a.485.485,0,0,0-.483.485V40.585a.485.485,0,0,0,.483.485h4.82A.485.485,0,0,1,42.406,40.585Z" transform="translate(-28.456 -11.475)" fill="#ef9614"/>
    <g id="Grupo_30133" data-name="Grupo 30133" transform="translate(9.246 14.682)">
      <path id="Trazado_25348" data-name="Trazado 25348" d="M60.161,26.156H38.432a.479.479,0,0,0-.367.173l10.849,8.385a.661.661,0,0,0,.765,0l10.849-8.385A.48.48,0,0,0,60.161,26.156Z" transform="translate(-38.065 -26.156)" fill="#ffd00d"/>
      <path id="Trazado_25349" data-name="Trazado 25349" d="M149.7,43.5a33.958,33.958,0,0,0-18.6,62.369,2.5,2.5,0,0,1,.952,1.168l3.734,9.424h27.82l3.735-9.424a2.5,2.5,0,0,1,.952-1.168A33.958,33.958,0,0,0,149.7,43.5Z" transform="translate(-96.874 -39.287)" fill="#ffd00d"/>
    </g>
    <path id="Trazado_25350" data-name="Trazado 25350" d="M135.921,105.869a33.958,33.958,0,0,1,16.187-62.283c-.8-.056-1.6-.086-2.41-.086a33.958,33.958,0,0,0-18.6,62.369,2.5,2.5,0,0,1,.952,1.168l3.734,9.424h4.82l-3.734-9.424A2.5,2.5,0,0,0,135.921,105.869Z" transform="translate(-87.628 -24.605)" fill="#ffaf10"/>
    <path id="Trazado_25351" data-name="Trazado 25351" d="M251.672,304.925V292.431c-.6.041-1.209.064-1.822.064s-1.22-.023-1.822-.064v12.494Z" transform="translate(-187.78 -213.069)" fill="#1a2b63"/>
    <path id="Trazado_25352" data-name="Trazado 25352" d="M171.941,126.517A26.819,26.819,0,1,1,198.759,99.7,26.849,26.849,0,0,1,171.941,126.517Z" transform="translate(-109.871 -46.849)" fill="#b7092b"/>
    <path id="Trazado_25353" data-name="Trazado 25353" d="M192.573,140.53a20.2,20.2,0,1,1,20.2-20.2A20.222,20.222,0,0,1,192.573,140.53Z" transform="translate(-130.503 -67.481)" fill="#fff"/>
    <path id="Trazado_25354" data-name="Trazado 25354" d="M175.979,120.33a20.224,20.224,0,0,1,18.4-20.115c-.594-.053-1.195-.085-1.8-.085a20.2,20.2,0,0,0,0,40.4c.608,0,1.208-.032,1.8-.085A20.223,20.223,0,0,1,175.979,120.33Z" transform="translate(-130.503 -67.48)" fill="#d9eafc"/>
    <circle id="Elipse_1069" data-name="Elipse 1069" cx="13.58" cy="13.58" r="13.58" transform="translate(48.491 39.271)" fill="#b7092b"/>
    <path id="Trazado_25355" data-name="Trazado 25355" d="M236.548,170.4a6.089,6.089,0,1,1,6.089-6.089A6.1,6.1,0,0,1,236.548,170.4Z" transform="translate(-174.478 -111.457)" fill="#fff"/>
    <path id="Trazado_25356" data-name="Trazado 25356" d="M234.307,164.307a6.1,6.1,0,0,1,4.165-5.776,6.089,6.089,0,1,0,0,11.552A6.1,6.1,0,0,1,234.307,164.307Z" transform="translate(-174.478 -111.457)" fill="#d9eafc"/>
    <path id="Trazado_25357" data-name="Trazado 25357" d="M217.97,438.054v4.967a2.436,2.436,0,0,0,2.429,2.429h13.388a2.436,2.436,0,0,0,2.429-2.429v-4.966Z" transform="translate(-165.023 -323.319)" fill="#293d7c"/>
    <path id="Trazado_25358" data-name="Trazado 25358" d="M222.79,443.021v-4.966h-4.82v4.966a2.436,2.436,0,0,0,2.429,2.429h4.82A2.436,2.436,0,0,1,222.79,443.021Z" transform="translate(-165.023 -323.319)" fill="#1a2b63"/>
    <path id="Trazado_25359" data-name="Trazado 25359" d="M217.677,365.016a1.218,1.218,0,0,1-1.215,1.215H183.129a1.218,1.218,0,0,1-1.215-1.215V344.08a1.218,1.218,0,0,1,1.215-1.215h33.334a1.218,1.218,0,0,1,1.215,1.215Z" transform="translate(-137.725 -251.252)" fill="#445ea0"/>
    <path id="Trazado_25360" data-name="Trazado 25360" d="M186.734,365.016V344.08a1.218,1.218,0,0,1,1.215-1.215h-4.82a1.218,1.218,0,0,0-1.215,1.215v20.936a1.218,1.218,0,0,0,1.215,1.215h4.82A1.218,1.218,0,0,1,186.734,365.016Z" transform="translate(-137.725 -251.252)" fill="#293d7c"/>
    <g id="Grupo_30134" data-name="Grupo 30134" transform="translate(31.183 51.346)">
      <path id="Trazado_25361" data-name="Trazado 25361" d="M210.992,371.072H174.278a1.822,1.822,0,1,1,0-3.644h36.714a1.822,1.822,0,1,1,0,3.644Z" transform="translate(-161.748 -321.194)" fill="#1a2b63"/>
      <path id="Trazado_25362" data-name="Trazado 25362" d="M210.992,403.134H174.278a1.822,1.822,0,1,1,0-3.644h36.714a1.822,1.822,0,1,1,0,3.644Z" transform="translate(-161.748 -345.468)" fill="#1a2b63"/>
      <path id="Trazado_25363" data-name="Trazado 25363" d="M159.26,177.1H128.373l1.2,1.288a.8.8,0,0,1,0,1.068l-1.2,1.288H159.26a1.822,1.822,0,1,0,0-3.644Z" transform="translate(-128.373 -177.095)" fill="#1a2b63"/>
    </g>
    <path id="Trazado_25364" data-name="Trazado 25364" d="M66.076,171.287c-.4,0-.5-.234-.218-.52l5.162-5.249a.745.745,0,0,0,0-1.039l-5.162-5.248c-.281-.286-.183-.52.218-.52H76.292a1.917,1.917,0,0,1,1.225.534l4.845,5.219a.8.8,0,0,1,0,1.068l-4.845,5.219a1.916,1.916,0,0,1-1.225.534Z" transform="translate(-49.739 -111.831)" fill="#fe3745"/>
    <path id="Trazado_25365" data-name="Trazado 25365" d="M70.193,170.768l5.162-5.249a.745.745,0,0,0,0-1.039l-5.162-5.248c-.281-.286-.183-.52.218-.52H66.076c-.4,0-.5.234-.218.52l5.162,5.248a.745.745,0,0,1,0,1.039l-5.162,5.249c-.281.286-.183.52.218.52H70.41C70.009,171.288,69.912,171.054,70.193,170.768Z" transform="translate(-49.739 -111.832)" fill="#b7092b"/>
  </g>
</svg>
