<svg xmlns="http://www.w3.org/2000/svg" width="711.775" height="426.885" viewBox="0 0 711.775 426.885">
  <g id="Grupo_30311" data-name="Grupo 30311" transform="translate(-51.965 -17.295)">
    <path id="Trazado_25405" data-name="Trazado 25405" d="M252.964,18.073c109.4-6.327,224.107,26.628,207.246,74.4s90.141-16.969,132.842.255c30.4,12.263,18.248,49.592,32.956,64.633,33.721,34.488,68.209-8.941,111.127,17.116s25.072,269.738,7.6,269.7L82.887,442.973l-7.92.256s-48.538-70-4.6-110.873,13.77-59.564,8.43-75.362c-6.131-18.138-20.437-49.816,41.9-73.063s46.239-73.83,44.706-84.3S143.562,24.4,252.964,18.073Z" fill="#eafcfc"/>
    <path id="Trazado_25406" data-name="Trazado 25406" d="M295.037,336.267l-62.8-37.024-29.394,17.082L193.622,311,160.58,330.2l9.219,5.323L140.866,352.55l11.212,6.774-28.5,16.3,5.075,2.909,1.108-.648,30.011,17.2-1.239.724,5.031,2.883L192.1,382.427l11.573,7.149,29.058-16.953,13.539,7.568,38.576-22.032-13.605-7.607Zm-132.161,57-30.01-17.2,24.271-13.829,29.9,17.26Z" fill="#8fbcc8"/>
    <g id="Grupo_30306" data-name="Grupo 30306">
      <g id="Grupo_30299" data-name="Grupo 30299">
        <g id="Grupo_30164" data-name="Grupo 30164">
          <g id="Grupo_30159" data-name="Grupo 30159">
            <g id="Grupo_30158" data-name="Grupo 30158" style="isolation: isolate">
              <g id="Grupo_30155" data-name="Grupo 30155">
                <path id="Trazado_25407" data-name="Trazado 25407" d="M174.268,405.394v3.945l-4.761,2.736v-3.947Z" fill="#d03623"/>
              </g>
              <g id="Grupo_30156" data-name="Grupo 30156">
                <path id="Trazado_25408" data-name="Trazado 25408" d="M169.507,408.127v3.947l-4.822-2.736v-3.945Z" fill="#c12d2d"/>
              </g>
              <g id="Grupo_30157" data-name="Grupo 30157">
                <path id="Trazado_25409" data-name="Trazado 25409" d="M174.268,405.394l-4.761,2.734-4.822-2.734,4.844-2.734Z" fill="#de3f18"/>
              </g>
            </g>
          </g>
          <g id="Grupo_30163" data-name="Grupo 30163">
            <g id="Grupo_30162" data-name="Grupo 30162" style="isolation: isolate">
              <g id="Grupo_30160" data-name="Grupo 30160">
                <path id="Trazado_25410" data-name="Trazado 25410" d="M172.426,378.688v26.054l-2.929,1.685V380.373Z" fill="#ffbf37"/>
              </g>
              <g id="Grupo_30161" data-name="Grupo 30161">
                <path id="Trazado_25411" data-name="Trazado 25411" d="M169.5,380.373v26.054l-2.968-1.685V378.688Z" fill="#fca306"/>
              </g>
            </g>
          </g>
        </g>
        <g id="Grupo_30174" data-name="Grupo 30174">
          <g id="Grupo_30169" data-name="Grupo 30169">
            <g id="Grupo_30168" data-name="Grupo 30168" style="isolation: isolate">
              <g id="Grupo_30165" data-name="Grupo 30165">
                <path id="Trazado_25412" data-name="Trazado 25412" d="M138.44,384.671v3.936l-4.766,2.736V387.4Z" fill="#d03623"/>
              </g>
              <g id="Grupo_30166" data-name="Grupo 30166">
                <path id="Trazado_25413" data-name="Trazado 25413" d="M133.674,387.4v3.945l-4.822-2.736v-3.936Z" fill="#c12d2d"/>
              </g>
              <g id="Grupo_30167" data-name="Grupo 30167">
                <path id="Trazado_25414" data-name="Trazado 25414" d="M138.44,384.671l-4.766,2.727-4.822-2.727,4.852-2.743Z" fill="#de3f18"/>
              </g>
            </g>
          </g>
          <g id="Grupo_30173" data-name="Grupo 30173">
            <g id="Grupo_30172" data-name="Grupo 30172" style="isolation: isolate">
              <g id="Grupo_30170" data-name="Grupo 30170">
                <path id="Trazado_25415" data-name="Trazado 25415" d="M136.6,357.958v26.058l-2.931,1.69V359.641Z" fill="#ffbf37"/>
              </g>
              <g id="Grupo_30171" data-name="Grupo 30171">
                <path id="Trazado_25416" data-name="Trazado 25416" d="M133.665,359.641v26.065l-2.968-1.69V357.958Z" fill="#fca306"/>
              </g>
            </g>
          </g>
        </g>
        <g id="Grupo_30179" data-name="Grupo 30179">
          <g id="Grupo_30178" data-name="Grupo 30178" style="isolation: isolate">
            <g id="Grupo_30175" data-name="Grupo 30175">
              <path id="Trazado_25417" data-name="Trazado 25417" d="M209.907,349.762l35.648,20.814a1.378,1.378,0,0,0-1.4.134L208.506,349.9A1.392,1.392,0,0,1,209.907,349.762Z" fill="#444"/>
            </g>
            <g id="Grupo_30176" data-name="Grupo 30176">
              <path id="Trazado_25418" data-name="Trazado 25418" d="M242.77,375.364l-35.65-20.81a1.378,1.378,0,0,1-.575-1.258,4.352,4.352,0,0,1,1.961-3.4l35.649,20.81a4.349,4.349,0,0,0-1.961,3.4A1.372,1.372,0,0,0,242.77,375.364Z" fill="#444"/>
            </g>
            <g id="Grupo_30177" data-name="Grupo 30177">
              <path id="Trazado_25419" data-name="Trazado 25419" d="M244.155,370.71c1.087-.63,1.971-.114,1.974,1.124a4.316,4.316,0,0,1-1.96,3.393c-1.083.628-1.974.128-1.975-1.122A4.349,4.349,0,0,1,244.155,370.71Z" fill="#444"/>
            </g>
          </g>
        </g>
        <g id="Grupo_30181" data-name="Grupo 30181">
          <g id="Grupo_30180" data-name="Grupo 30180">
            <path id="Trazado_25420" data-name="Trazado 25420" d="M292.8,324.768l-74.85-43.137v9.01l74.85,43.137Z" fill="#c12d2d"/>
          </g>
        </g>
        <g id="Grupo_30183" data-name="Grupo 30183">
          <g id="Grupo_30182" data-name="Grupo 30182">
            <path id="Trazado_25421" data-name="Trazado 25421" d="M116.135,340.622v9.012L217.951,290.5v-9.015Z" fill="#d03623"/>
          </g>
        </g>
        <g id="Grupo_30199" data-name="Grupo 30199">
          <g id="Grupo_30184" data-name="Grupo 30184">
            <path id="Trazado_25422" data-name="Trazado 25422" d="M190.871,315.534l-71.635-41.681.209,76.114,71.426,41.575Z" fill="#fca306"/>
          </g>
          <g id="Grupo_30185" data-name="Grupo 30185">
            <path id="Trazado_25423" data-name="Trazado 25423" d="M292.7,256.58l-74.307-42.928L116.028,272.5l74.843,43.034Z" fill="#de3f18"/>
          </g>
          <g id="Grupo_30186" data-name="Grupo 30186">
            <path id="Trazado_25424" data-name="Trazado 25424" d="M190.851,302.533,138.613,272.5l45.7-26.275,52.077,29.947ZM145.065,272.5l45.779,26.323,39.115-22.637L184.31,249.933Z" fill="#c12d2d"/>
          </g>
          <g id="Grupo_30188" data-name="Grupo 30188">
            <g id="Grupo_30187" data-name="Grupo 30187">
              <path id="Trazado_25425" data-name="Trazado 25425" d="M190.871,315.534v76.008l98.838-56.991-.219-76.1Z" fill="#ffbf37"/>
            </g>
          </g>
          <g id="Grupo_30193" data-name="Grupo 30193">
            <g id="Grupo_30190" data-name="Grupo 30190">
              <g id="Grupo_30189" data-name="Grupo 30189">
                <path id="Trazado_25426" data-name="Trazado 25426" d="M190.871,383.822l-74.736-43.135v9.008l74.736,43.14Z" fill="#c12d2d"/>
              </g>
            </g>
            <g id="Grupo_30192" data-name="Grupo 30192">
              <g id="Grupo_30191" data-name="Grupo 30191">
                <path id="Trazado_25427" data-name="Trazado 25427" d="M190.871,383.822v9.012L292.8,333.7v-9.01Z" fill="#d03623"/>
              </g>
            </g>
          </g>
          <g id="Grupo_30198" data-name="Grupo 30198">
            <g id="Grupo_30195" data-name="Grupo 30195">
              <g id="Grupo_30194" data-name="Grupo 30194">
                <path id="Trazado_25428" data-name="Trazado 25428" d="M190.871,315.534l-74.843-43v9.015l74.843,43.135Z" fill="#c12d2d"/>
              </g>
            </g>
            <g id="Grupo_30197" data-name="Grupo 30197">
              <g id="Grupo_30196" data-name="Grupo 30196">
                <path id="Trazado_25429" data-name="Trazado 25429" d="M190.871,315.534v9.153L292.7,265.56v-9.01Z" fill="#d03623"/>
              </g>
            </g>
          </g>
        </g>
        <g id="Grupo_30202" data-name="Grupo 30202">
          <g id="Grupo_30201" data-name="Grupo 30201" style="isolation: isolate">
            <path id="Trazado_25430" data-name="Trazado 25430" d="M194.108,241.057l-.185,66.16a1.557,1.557,0,0,1-.913,1.276,4.878,4.878,0,0,1-4.45,0,1.565,1.565,0,0,1-.928-1.3l.189-66.153a1.592,1.592,0,0,0,.928,1.3,4.9,4.9,0,0,0,4.447,0A1.575,1.575,0,0,0,194.108,241.057Z" fill="#ffbf37"/>
            <g id="Grupo_30200" data-name="Grupo 30200">
              <path id="Trazado_25431" data-name="Trazado 25431" d="M187.636,305.708c.146.75,4.023.52,5.7-1.851a3.124,3.124,0,0,0,.6-1.8l-.007,2.181c-.125,2.934-3.879,4.353-5.781,3.966a1.339,1.339,0,0,1-.518-1.006l0-1.486Z" fill="#de3f18"/>
              <path id="Trazado_25432" data-name="Trazado 25432" d="M187.711,279.866c.143.759,4.022.529,5.7-1.852a3.132,3.132,0,0,0,.593-1.793L194,278.4c-.164,3.832-5.715,4.449-6.259,3.743a.156.156,0,0,1-.039-.094l.007-2.184Z" fill="#de3f18"/>
              <path id="Trazado_25433" data-name="Trazado 25433" d="M187.657,297.091c.148.752,4.032.531,5.706-1.85a3.085,3.085,0,0,0,.6-1.8l-.01,2.175c-.16,3.833-5.71,4.466-6.257,3.753a.157.157,0,0,1-.04-.1l0-2.182Z" fill="#de3f18"/>
              <path id="Trazado_25434" data-name="Trazado 25434" d="M187.688,288.481c.14.752,4.022.525,5.7-1.857a3.093,3.093,0,0,0,.6-1.8l-.007,2.189c-.162,3.826-5.712,4.452-6.26,3.748a.19.19,0,0,1-.039-.1l.01-2.177Z" fill="#de3f18"/>
              <path id="Trazado_25435" data-name="Trazado 25435" d="M187.732,271.249c.145.762,4.024.532,5.706-1.841a3.137,3.137,0,0,0,.6-1.8l-.006,2.182c-.16,3.83-5.714,4.446-6.264,3.74a.131.131,0,0,1-.036-.093l0-2.184Z" fill="#de3f18"/>
              <path id="Trazado_25436" data-name="Trazado 25436" d="M187.76,262.641c.145.76,4.022.532,5.7-1.849a3.131,3.131,0,0,0,.593-1.8l0,2.177c-.163,3.831-5.718,4.457-6.266,3.751a.189.189,0,0,1-.035-.1l.007-2.175Z" fill="#de3f18"/>
              <path id="Trazado_25437" data-name="Trazado 25437" d="M187.782,254.033c.148.75,4.024.523,5.705-1.858a3.1,3.1,0,0,0,.6-1.8l-.007,2.187c-.163,3.827-5.718,4.453-6.262,3.738a.149.149,0,0,1-.035-.093l0-2.176Z" fill="#de3f18"/>
              <path id="Trazado_25438" data-name="Trazado 25438" d="M187.8,245.416c.147.751,4.026.523,5.7-1.851a3.09,3.09,0,0,0,.6-1.794l-.009,2.176c-.161,3.838-5.717,4.453-6.261,3.748a.167.167,0,0,1-.036-.1l0-2.184Z" fill="#de3f18"/>
            </g>
          </g>
        </g>
        <g id="Grupo_30205" data-name="Grupo 30205">
          <g id="Grupo_30204" data-name="Grupo 30204" style="isolation: isolate">
            <path id="Trazado_25439" data-name="Trazado 25439" d="M285.318,190.571l-.186,66.161a1.576,1.576,0,0,1-.92,1.282,4.9,4.9,0,0,1-4.447,0,1.58,1.58,0,0,1-.923-1.3l.184-66.154a1.591,1.591,0,0,0,.931,1.3,4.946,4.946,0,0,0,4.447,0A1.585,1.585,0,0,0,285.318,190.571Z" fill="#ffbf37"/>
            <g id="Grupo_30203" data-name="Grupo 30203">
              <path id="Trazado_25440" data-name="Trazado 25440" d="M278.844,255.222c.144.759,4.02.527,5.706-1.854a3.132,3.132,0,0,0,.6-1.8l-.009,2.181c-.122,2.934-3.879,4.352-5.781,3.971a1.359,1.359,0,0,1-.513-1l0-1.494Z" fill="#de3f18"/>
              <path id="Trazado_25441" data-name="Trazado 25441" d="M278.918,229.389c.142.748,4.02.52,5.7-1.86a3.126,3.126,0,0,0,.6-1.8l-.012,2.184c-.165,3.829-5.712,4.453-6.26,3.744a.182.182,0,0,1-.035-.1l.005-2.175Z" fill="#de3f18"/>
              <path id="Trazado_25442" data-name="Trazado 25442" d="M278.872,246.611c.14.753,4.021.521,5.7-1.851a3.075,3.075,0,0,0,.594-1.795v2.174c-.169,3.831-5.718,4.457-6.266,3.744a.158.158,0,0,1-.035-.1l.008-2.176Z" fill="#de3f18"/>
              <path id="Trazado_25443" data-name="Trazado 25443" d="M278.892,237.994c.145.754,4.023.532,5.7-1.851a3.108,3.108,0,0,0,.6-1.8l0,2.176c-.168,3.837-5.716,4.456-6.262,3.752a.164.164,0,0,1-.034-.1v-2.179Z" fill="#de3f18"/>
              <path id="Trazado_25444" data-name="Trazado 25444" d="M278.942,220.772c.141.751,4.023.523,5.7-1.853a3.131,3.131,0,0,0,.6-1.8l-.007,2.177c-.169,3.826-5.715,4.452-6.265,3.75a.2.2,0,0,1-.037-.1l.008-2.182Z" fill="#de3f18"/>
              <path id="Trazado_25445" data-name="Trazado 25445" d="M278.966,212.162c.145.753,4.024.521,5.7-1.849a3.146,3.146,0,0,0,.6-1.807l-.007,2.184c-.163,3.831-5.713,4.447-6.259,3.744a.157.157,0,0,1-.037-.094l0-2.178Z" fill="#de3f18"/>
              <path id="Trazado_25446" data-name="Trazado 25446" d="M278.989,203.548c.145.75,4.026.528,5.7-1.852a3.126,3.126,0,0,0,.6-1.8l-.008,2.174c-.165,3.838-5.713,4.459-6.257,3.744a.108.108,0,0,1-.04-.089l0-2.18Z" fill="#de3f18"/>
              <path id="Trazado_25447" data-name="Trazado 25447" d="M279.016,194.93c.142.76,4.023.533,5.7-1.85a3.108,3.108,0,0,0,.6-1.8l-.009,2.176c-.161,3.837-5.717,4.458-6.26,3.752a.163.163,0,0,1-.039-.1l.009-2.183Z" fill="#de3f18"/>
            </g>
          </g>
        </g>
        <g id="Grupo_30208" data-name="Grupo 30208">
          <g id="Grupo_30207" data-name="Grupo 30207" style="isolation: isolate">
            <path id="Trazado_25448" data-name="Trazado 25448" d="M130.827,204.964l-.185,66.16a1.568,1.568,0,0,1-.916,1.273,4.872,4.872,0,0,1-4.447,0,1.565,1.565,0,0,1-.928-1.288l.189-66.163a1.548,1.548,0,0,0,.933,1.3,4.88,4.88,0,0,0,4.442,0A1.552,1.552,0,0,0,130.827,204.964Z" fill="#ffbf37"/>
            <g id="Grupo_30206" data-name="Grupo 30206">
              <path id="Trazado_25449" data-name="Trazado 25449" d="M124.355,269.614c.142.747,4.023.521,5.7-1.854a3.144,3.144,0,0,0,.6-1.8l-.006,2.175c-.123,2.935-3.877,4.353-5.782,3.972a1.358,1.358,0,0,1-.515-1l0-1.495Z" fill="#de3f18"/>
              <path id="Trazado_25450" data-name="Trazado 25450" d="M124.429,243.771c.141.759,4.021.531,5.7-1.853a3.1,3.1,0,0,0,.6-1.795l-.01,2.185c-.159,3.828-5.718,4.446-6.262,3.743a.187.187,0,0,1-.036-.094l.007-2.186Z" fill="#de3f18"/>
              <path id="Trazado_25451" data-name="Trazado 25451" d="M124.38,261c.141.747,4.024.526,5.7-1.855a3.041,3.041,0,0,0,.593-1.8l0,2.176c-.164,3.838-5.714,4.463-6.266,3.751a.18.18,0,0,1-.035-.094L124.38,261Z" fill="#de3f18"/>
              <path id="Trazado_25452" data-name="Trazado 25452" d="M124.407,252.388c.14.752,4.019.52,5.7-1.861a3.093,3.093,0,0,0,.6-1.8l-.007,2.184c-.162,3.831-5.716,4.457-6.26,3.752a.157.157,0,0,1-.035-.105l.006-2.174Z" fill="#de3f18"/>
              <path id="Trazado_25453" data-name="Trazado 25453" d="M124.45,235.165c.146.749,4.029.521,5.706-1.853a3.139,3.139,0,0,0,.6-1.8l-.006,2.184c-.163,3.828-5.714,4.449-6.265,3.744a.191.191,0,0,1-.035-.094l0-2.176Z" fill="#de3f18"/>
              <path id="Trazado_25454" data-name="Trazado 25454" d="M124.478,226.548c.144.759,4.023.527,5.7-1.854a3.1,3.1,0,0,0,.6-1.8l-.007,2.176c-.162,3.839-5.713,4.453-6.257,3.752a.147.147,0,0,1-.043-.1l.01-2.176Z" fill="#de3f18"/>
              <path id="Trazado_25455" data-name="Trazado 25455" d="M124.5,217.938c.143.753,4.023.52,5.7-1.86a3.05,3.05,0,0,0,.6-1.8l-.014,2.184c-.163,3.831-5.71,4.456-6.258,3.743a.122.122,0,0,1-.038-.093l.006-2.178Z" fill="#de3f18"/>
              <path id="Trazado_25456" data-name="Trazado 25456" d="M124.527,209.323c.141.758,4.026.519,5.7-1.851a3.141,3.141,0,0,0,.6-1.8l-.014,2.185c-.155,3.828-5.709,4.448-6.257,3.743a.178.178,0,0,1-.038-.1l.009-2.181Z" fill="#de3f18"/>
            </g>
          </g>
        </g>
        <g id="Grupo_30266" data-name="Grupo 30266">
          <g id="Grupo_30246" data-name="Grupo 30246">
            <g id="Grupo_30222" data-name="Grupo 30222">
              <g id="Grupo_30209" data-name="Grupo 30209">
                <path id="Trazado_25457" data-name="Trazado 25457" d="M103.429,222.236c.016,5.411-3.77,11.978-8.47,14.685-4.681,2.7-8.486.535-8.507-4.874Z" fill="#e5f4f9"/>
              </g>
              <path id="Trazado_25458" data-name="Trazado 25458" d="M276.979,135.551,260,145.371l-37.442,8.095,16.973-9.813Z" fill="#fff"/>
              <g id="Grupo_30210" data-name="Grupo 30210">
                <path id="Trazado_25459" data-name="Trazado 25459" d="M205.608,163.261l37.442-8.105L260,145.371l-37.442,8.095Z" fill="#fe6867"/>
              </g>
              <g id="Grupo_30211" data-name="Grupo 30211">
                <path id="Trazado_25460" data-name="Trazado 25460" d="M171.488,182.942l37.446-8.1,17.141-9.89-37.441,8.095Z" fill="#fe6867"/>
              </g>
              <g id="Grupo_30213" data-name="Grupo 30213">
                <g id="Grupo_30212" data-name="Grupo 30212">
                  <path id="Trazado_25461" data-name="Trazado 25461" d="M188.634,173.046l37.441-8.095,16.975-9.8-37.442,8.105Z" fill="#fff"/>
                </g>
              </g>
              <g id="Grupo_30215" data-name="Grupo 30215">
                <g id="Grupo_30214" data-name="Grupo 30214">
                  <path id="Trazado_25462" data-name="Trazado 25462" d="M154.315,192.858l37.452-8.094,17.168-9.924-37.446,8.1Z" fill="#fff"/>
                </g>
              </g>
              <g id="Grupo_30217" data-name="Grupo 30217">
                <g id="Grupo_30216" data-name="Grupo 30216">
                  <path id="Trazado_25463" data-name="Trazado 25463" d="M120.387,212.455l37.449-8.11,16.973-9.794-37.441,8.094Z" fill="#fff"/>
                </g>
              </g>
              <g id="Grupo_30218" data-name="Grupo 30218">
                <path id="Trazado_25464" data-name="Trazado 25464" d="M137.366,202.646l37.441-8.094,16.958-9.787-37.452,8.094Z" fill="#fe6867"/>
              </g>
              <g id="Grupo_30219" data-name="Grupo 30219">
                <path id="Trazado_25465" data-name="Trazado 25465" d="M103.429,222.236l37.452-8.1,16.955-9.794-37.449,8.11Z" fill="#fe6867"/>
              </g>
              <g id="Grupo_30221" data-name="Grupo 30221">
                <g id="Grupo_30220" data-name="Grupo 30220">
                  <path id="Trazado_25466" data-name="Trazado 25466" d="M86.452,232.047l37.395-8.117,17.033-9.791-37.452,8.1Z" fill="#fff"/>
                </g>
              </g>
            </g>
            <g id="Grupo_30245" data-name="Grupo 30245">
              <path id="Trazado_25467" data-name="Trazado 25467" d="M276.979,135.551,260,145.371l44.059,57.275,16.967-9.814Z" fill="#fff"/>
              <g id="Grupo_30223" data-name="Grupo 30223">
                <path id="Trazado_25468" data-name="Trazado 25468" d="M321.031,192.832c0,5.413-3.766,11.967-8.439,14.669-4.707,2.716-8.528.541-8.528-4.855Z" fill="#e5f4f9"/>
              </g>
              <g id="Grupo_30224" data-name="Grupo 30224">
                <path id="Trazado_25469" data-name="Trazado 25469" d="M287.11,212.433,243.05,155.155,260,145.371l44.059,57.275Z" fill="#fe6867"/>
              </g>
              <g id="Grupo_30225" data-name="Grupo 30225">
                <path id="Trazado_25470" data-name="Trazado 25470" d="M304.064,202.646c0,5.4-3.791,11.963-8.466,14.667-4.672,2.685-8.475.515-8.488-4.88Z" fill="#ee5440"/>
              </g>
              <g id="Grupo_30226" data-name="Grupo 30226">
                <path id="Trazado_25471" data-name="Trazado 25471" d="M252.989,232.125l-44.055-57.284,17.141-9.89,44.057,57.277Z" fill="#fe6867"/>
              </g>
              <g id="Grupo_30228" data-name="Grupo 30228">
                <g id="Grupo_30227" data-name="Grupo 30227">
                  <path id="Trazado_25472" data-name="Trazado 25472" d="M270.132,222.228l-44.057-57.277,16.975-9.8,44.059,57.277Z" fill="#fff"/>
                </g>
              </g>
              <g id="Grupo_30229" data-name="Grupo 30229">
                <path id="Trazado_25473" data-name="Trazado 25473" d="M287.11,212.433c.013,5.4-3.77,11.962-8.467,14.669s-8.511.528-8.511-4.874Z" fill="#e5f4f9"/>
              </g>
              <g id="Grupo_30230" data-name="Grupo 30230">
                <path id="Trazado_25474" data-name="Trazado 25474" d="M270.132,222.228c0,5.4-3.787,11.963-8.458,14.669s-8.679.631-8.685-4.772Z" fill="#ee5440"/>
              </g>
              <g id="Grupo_30232" data-name="Grupo 30232">
                <g id="Grupo_30231" data-name="Grupo 30231">
                  <path id="Trazado_25475" data-name="Trazado 25475" d="M235.815,242.03l-44.049-57.266,17.168-9.924,44.055,57.284Z" fill="#fff"/>
                </g>
              </g>
              <g id="Grupo_30233" data-name="Grupo 30233">
                <path id="Trazado_25476" data-name="Trazado 25476" d="M252.989,232.125c.006,5.4-3.969,12.072-8.663,14.8-4.68,2.7-8.484.52-8.511-4.892Z" fill="#e5f4f9"/>
              </g>
              <g id="Grupo_30235" data-name="Grupo 30235">
                <g id="Grupo_30234" data-name="Grupo 30234">
                  <path id="Trazado_25477" data-name="Trazado 25477" d="M201.887,261.627l-44.052-57.282,16.973-9.794,44.06,57.266Z" fill="#fff"/>
                </g>
              </g>
              <g id="Grupo_30236" data-name="Grupo 30236">
                <path id="Trazado_25478" data-name="Trazado 25478" d="M235.815,242.03c.027,5.412-3.77,11.979-8.451,14.677s-8.479.525-8.5-4.889Z" fill="#ee5440"/>
              </g>
              <g id="Grupo_30237" data-name="Grupo 30237">
                <path id="Trazado_25479" data-name="Trazado 25479" d="M218.868,251.818l-44.06-57.266,16.958-9.787,44.049,57.266Z" fill="#fe6867"/>
              </g>
              <g id="Grupo_30238" data-name="Grupo 30238">
                <path id="Trazado_25480" data-name="Trazado 25480" d="M218.868,251.818c.017,5.414-3.777,11.971-8.482,14.682-4.665,2.7-8.485.539-8.5-4.873Z" fill="#e5f4f9"/>
              </g>
              <g id="Grupo_30240" data-name="Grupo 30240">
                <g id="Grupo_30239" data-name="Grupo 30239">
                  <path id="Trazado_25481" data-name="Trazado 25481" d="M184.929,271.415,140.88,214.139l16.955-9.794,44.052,57.282Z" fill="#fe6867"/>
                </g>
              </g>
              <g id="Grupo_30241" data-name="Grupo 30241">
                <path id="Trazado_25482" data-name="Trazado 25482" d="M201.887,261.627c.014,5.412-3.772,11.963-8.449,14.666s-8.492.535-8.509-4.878Z" fill="#ee5440"/>
              </g>
              <g id="Grupo_30243" data-name="Grupo 30243">
                <g id="Grupo_30242" data-name="Grupo 30242">
                  <path id="Trazado_25483" data-name="Trazado 25483" d="M167.953,281.226l-44.107-57.3,17.033-9.791,44.049,57.276Z" fill="#fff"/>
                </g>
              </g>
              <g id="Grupo_30244" data-name="Grupo 30244">
                <path id="Trazado_25484" data-name="Trazado 25484" d="M184.929,271.415c.017,5.413-3.769,11.97-8.473,14.684-4.674,2.7-8.482.539-8.5-4.873Z" fill="#e5f4f9"/>
              </g>
            </g>
          </g>
          <g id="Grupo_30265" data-name="Grupo 30265">
            <g id="Grupo_30247" data-name="Grupo 30247">
              <path id="Trazado_25485" data-name="Trazado 25485" d="M273.753,95.272c-3.45-2.01-8.219-1.727-13.49,1.312a34.1,34.1,0,0,0-8.419,7.161l4.264,2.475a34.187,34.187,0,0,1,8.426-7.15c5.266-3.049,10.038-3.325,13.484-1.322Z" fill="#de3f18"/>
              <path id="Trazado_25486" data-name="Trazado 25486" d="M233.373,97.692c-6.559,3.782-12.344,10.975-15.73,18.745-2.829-.31-6.137.475-9.676,2.515-5.666,3.267-10.718,9.058-14.188,15.594l-.264-.158c-3.439-1.993-8.205-1.742-13.463,1.3a34.811,34.811,0,0,0-9.343,8.277l-2.6-1.506c-3.45-2-8.225-1.715-13.5,1.33-8.951,5.166-16.391,16.59-18.379,27.32a17.449,17.449,0,0,0-8.434,2.579c-10.479,6.053-18.939,20.723-18.9,32.763.015,5.984,2.127,10.191,5.53,12.17l4.268,2.486c-3.4-1.981-5.511-6.189-5.528-12.17-.036-12.043,8.423-26.713,18.9-32.765a17.367,17.367,0,0,1,8.434-2.578c1.987-10.735,9.428-22.153,18.379-27.319,4.4-2.547,8.443-3.141,11.668-2.122-.051.072-.1.117-.156.183l4.271,2.482a35.1,35.1,0,0,1,9.658-8.645c5.232-3.024,9.975-3.294,13.4-1.329l.32.187c3.469-6.533,8.525-12.326,14.19-15.6a16.234,16.234,0,0,1,9.678-2.515c3.384-7.764,9.172-14.952,15.726-18.734,5.266-3.04,10.023-3.317,13.468-1.323l-4.265-2.475C243.4,94.386,238.637,94.653,233.373,97.692Z" fill="#de3f18"/>
            </g>
            <g id="Grupo_30248" data-name="Grupo 30248">
              <path id="Trazado_25487" data-name="Trazado 25487" d="M237.638,100.178c8.952-5.166,16.435-2.351,18.47,6.042a34.187,34.187,0,0,1,8.426-7.15c10.479-6.056,18.99-1.172,19.027,10.861s-8.428,26.7-18.908,32.748l-132.464,77.1c-10.48,6.054-18.995,1.2-19.024-10.841s8.423-26.713,18.9-32.765a17.367,17.367,0,0,1,8.434-2.578c1.987-10.735,9.428-22.153,18.379-27.319,6.574-3.8,12.363-3.317,15.783.543a35.1,35.1,0,0,1,9.658-8.645c5.4-3.117,10.272-3.309,13.725-1.142,3.469-6.533,8.525-12.326,14.19-15.6a16.234,16.234,0,0,1,9.678-2.515C225.3,111.148,231.084,103.96,237.638,100.178Z" fill="#d03623"/>
            </g>
            <g id="Grupo_30251" data-name="Grupo 30251">
              <g id="Grupo_30250" data-name="Grupo 30250">
                <g id="Grupo_30249" data-name="Grupo 30249">
                  <path id="Trazado_25488" data-name="Trazado 25488" d="M167.4,146.692a14.493,14.493,0,0,0-7.013,2.206c-7.941,4.583-15.056,15.2-16.909,25.239l-.454,2.452-2.49.035a14.418,14.418,0,0,0-6.96,2.166c-9.453,5.458-17.417,19.263-17.385,30.138.02,6.524,2.814,10.428,7.483,10.428a14.443,14.443,0,0,0,7-2.2l132.459-77.1c9.632-5.56,17.427-19.077,17.4-30.12-.017-6.543-2.822-10.444-7.5-10.444a14.484,14.484,0,0,0-6.987,2.19,30.987,30.987,0,0,0-7.654,6.528l-3.845,4.4-1.38-5.682c-.577-2.364-2.251-6.322-7.043-6.322a14.415,14.415,0,0,0-6.972,2.182c-5.781,3.339-11.19,9.822-14.47,17.331l-.885,2.032-2.211-.231a13.352,13.352,0,0,0-7.84,2.131c-4.94,2.846-9.688,8.092-13.026,14.392l-1.53,2.88-2.758-1.734c-2.586-1.622-6.493-1.179-10.6,1.2a32.082,32.082,0,0,0-8.792,7.9l-2.244,2.835-2.4-2.7A6.386,6.386,0,0,0,167.4,146.692Z" fill="#ffbf37"/>
                </g>
              </g>
            </g>
            <path id="Trazado_25489" data-name="Trazado 25489" d="M277.506,109.947c-.01-2.768-.6-7.42-4.471-7.42a11.6,11.6,0,0,0-5.474,1.788,27.952,27.952,0,0,0-6.892,5.886l-7.682,8.805-2.762-11.362c-.978-4.01-3.323-4.01-4.1-4.01a11.593,11.593,0,0,0-5.46,1.787c-5.239,3.024-10.175,8.973-13.206,15.911l-1.781,4.075-4.413-.476a10.842,10.842,0,0,0-6.008,1.743c-4.454,2.576-8.78,7.383-11.862,13.191l-3.05,5.758-5.518-3.465c-1.547-.964-4.492-.475-7.482,1.257a28.969,28.969,0,0,0-7.935,7.154l-4.485,5.671-4.8-5.41a3.4,3.4,0,0,0-2.727-1.108,11.7,11.7,0,0,0-5.5,1.794c-7.127,4.114-13.77,14.078-15.447,23.175l-.9,4.9-4.981.054a11.536,11.536,0,0,0-5.48,1.773c-8.486,4.9-15.9,17.747-15.873,27.5.006,2.77.6,7.409,4.456,7.409a11.613,11.613,0,0,0,5.486-1.8l132.447-77.087C270.256,132.451,277.532,119.861,277.506,109.947Z" fill="#ffda8a"/>
            <path id="Trazado_25490" data-name="Trazado 25490" d="M143.173,192.469a1.875,1.875,0,0,0-.322-.679v-.633a1.99,1.99,0,0,0-1-1.725,2.3,2.3,0,0,0-.358-.16v-.085a2,2,0,0,0-2.993-1.734l-.071.04a1.727,1.727,0,0,0-.317-.222,2.021,2.021,0,0,0-2,0l-.535.316a.139.139,0,0,0-.049.034,2.042,2.042,0,0,0-1.879.958l-.166.265a1.756,1.756,0,0,0-.378.168l-.515.292a2.013,2.013,0,0,0-.99,1.743v.639a1.888,1.888,0,0,0-.883.27l-.514.3a1.982,1.982,0,0,0-1,1.73l.005.593a2.038,2.038,0,0,0,.207.889s-.009,0-.023.013l-.538.308a2.016,2.016,0,0,0-1,1.743l0,.582a2,2,0,0,0,.042.4l-.151.277a2.006,2.006,0,0,0,.115,2.106v.679a2.017,2.017,0,0,0,1.007,1.724,1.812,1.812,0,0,0,.355.159v.063a2,2,0,0,0,1,1.725,2.026,2.026,0,0,0,2,0l.092-.056a2.412,2.412,0,0,0,.316.222,1.983,1.983,0,0,0,1.991,0l.507-.293c.017-.006.035-.022.053-.022a2.045,2.045,0,0,0,.756-.074,1.994,1.994,0,0,0,1.2-.955l.124-.224a1.4,1.4,0,0,0,.345-.158l.538-.307a2,2,0,0,0,1-1.733v-.634a1.936,1.936,0,0,0,.853-.261l.515-.294a1.984,1.984,0,0,0,1-1.739l0-.587a2.062,2.062,0,0,0-.2-.869l.042-.022.508-.293a2,2,0,0,0,1-1.733l0-.616a2,2,0,0,0-.036-.38l.129-.217A1.96,1.96,0,0,0,143.173,192.469Z" fill="#fff"/>
            <g id="Grupo_30252" data-name="Grupo 30252">
              <path id="Trazado_25491" data-name="Trazado 25491" d="M135.352,189.616l.362.2v1.028l.863-1.526.534-.311,0,.617-1.244,2.131-.153.26.009,3.108,3.254-5.638.512-.294,0,.585-3.23,5.623,2.677-1.541.153-.259,1.248-2.131.508-.3v.586l-.859,1.5.865-.5.382.223-.378.63-.87.5.87.5,0,.61-.514.3-1.251-.72-.154-.084-2.678,1.55,3.252,1.883v.583l-.511.293-3.278-1.834.01,3.077.15.085,1.255.714.006.586-.536.317-.867-.5v1l-.359.641-.385-.215,0-1-.86,1.494-.511.292,0-.585,1.221-2.144.15-.259,0-3.08-3.26,5.608-.508.3v-.586l3.254-5.643-2.707,1.562-.153.267-1.218,2.145-.537.307v-.616l.889-1.509-.892.513-.358-.205.358-.648.889-.516-.9-.477,0-.585.538-.317,1.228.706.156.085,2.7-1.565-3.276-1.86,0-.584.511-.3,3.276,1.87-.01-3.1-.149-.1-1.23-.692v-.619l.5-.293.875.522,0-1.023Z" fill="#fe6867"/>
            </g>
            <g id="Grupo_30253" data-name="Grupo 30253">
              <path id="Trazado_25492" data-name="Trazado 25492" d="M188.251,166.661l-1.442-.864a2.194,2.194,0,0,0-.815-.292c0-.072.007-.141.007-.212a5.174,5.174,0,0,0-.479-2.214,3.472,3.472,0,0,0-1.648-1.649,3.7,3.7,0,0,0-1.642-.372c-.108,0-.512.032-.616.049a5.384,5.384,0,0,0-1.974.721,7.7,7.7,0,0,0-1.9,1.5,10.641,10.641,0,0,0-1.421,1.861c-.244.4-.439.841-.648,1.274a3.768,3.768,0,0,0-.446-.284,4.072,4.072,0,0,0-2.238-.205,5.976,5.976,0,0,0-2.032.775,8.386,8.386,0,0,0-1.9,1.524,11.105,11.105,0,0,0-.71.936c.042-.255.075-.46.124-.726.1-.526.2-1.085.309-1.688a8.8,8.8,0,0,0,1.444-1,5.64,5.64,0,0,0,1.137-1.219,1.988,1.988,0,0,0,.2-.358l.291-.664a2.357,2.357,0,0,0,.176-.649l.069-.593a2.352,2.352,0,0,0-.017-.649l-.089-.507a2.125,2.125,0,0,0-.107-.4,2.758,2.758,0,0,0-2.511-1.739,4.947,4.947,0,0,0-1.756.377,16.092,16.092,0,0,0-2.036,1.029A26.565,26.565,0,0,0,163.115,162c-.722.531-1.33,1.012-1.866,1.495a16.152,16.152,0,0,0-1.406,1.427,9.88,9.88,0,0,0-.932,1.247,6.145,6.145,0,0,0-.724,1.482l-.12.489a2.314,2.314,0,0,0-.062.548c0,.569.019,1.02.04,1.319.129,2.3,1.719,2.547,2.26,2.564l-.5,2.326c-.224,1.134-.446,2.34-.675,3.64-.2,1.233-.426,2.466-.657,3.695l-.575,2.9-.282.215c-.433.321-.847.67-1.209.986a11.269,11.269,0,0,0-1.085,1.079,2.963,2.963,0,0,0-.856,1.723l-.534.942a2.28,2.28,0,0,0,1.97,3.418,2.551,2.551,0,0,0,1.2-.323c.036-.022.258-.134.3-.161.2-.111.481-.276.921-.513l8.047-4.643a2.364,2.364,0,0,0,.606-.515,4.779,4.779,0,0,0,1.312-2.84,4.488,4.488,0,0,0,1.392.212h.061a5.947,5.947,0,0,0,2.942-.915,8.624,8.624,0,0,0,1.567-1.189,12.672,12.672,0,0,0,1.3-1.391,16.908,16.908,0,0,0,1.164-1.562c.049-.078.094-.149.149-.234a4.124,4.124,0,0,0,1.456.262.806.806,0,0,1,.156,0,5.838,5.838,0,0,0,2.891-.9,13.122,13.122,0,0,0,1.651-1.171,19.028,19.028,0,0,0,1.45-1.382c.459-.483.873-.992,1.311-1.537.369-.474.725-.952,1.1-1.456.774-1.117,1.492-2.279,2.2-3.515A2.268,2.268,0,0,0,188.251,166.661Z" fill="#fff"/>
              <path id="Trazado_25493" data-name="Trazado 25493" d="M266.573,122.645a2.277,2.277,0,0,0-1.808-2.072,2.317,2.317,0,0,0-1.317.127c0-.015,0-.032,0-.04.056-.635.078-1.282.073-1.946a2.764,2.764,0,0,0-1.933-2.832,4.076,4.076,0,0,0-.926-.142,3.559,3.559,0,0,0-1.814.52,4.405,4.405,0,0,0-1.581,1.617c-.1.166-.2.338-.3.52a3.061,3.061,0,0,0-2.464.371,4.834,4.834,0,0,0-1.651,1.607c-.084.127-.166.27-.252.414a2.188,2.188,0,0,0-.832-.049l-.363.055a2.361,2.361,0,0,0-.645.182c-.193.1-.485.228-.843.443a4.488,4.488,0,0,0-.849.6,1.636,1.636,0,0,0-.221.228l-.295.348a2.253,2.253,0,0,0-.322.505l-.34.775a8.357,8.357,0,0,0-.233.869c-.053.193-.1.453-.158.714a3.286,3.286,0,0,0-1.2-.437,2.268,2.268,0,0,0-1.207.192l-.322.15c-.035.017-.065.033-.089.046a1.766,1.766,0,0,0-.271-.069,2.918,2.918,0,0,0-1.964.388,8.157,8.157,0,0,0-2.047,1.678,15.362,15.362,0,0,0-1.639,2.127c-.367.547-.7,1.179-1.029,1.805a4.153,4.153,0,0,0-.732-.515,3.868,3.868,0,0,0-1.537-.309c-.111,0-.518.032-.625.049a5.4,5.4,0,0,0-1.98.72,8.045,8.045,0,0,0-1.9,1.525,11.359,11.359,0,0,0-1.4,1.837c-.232.381-.388.765-.582,1.147l-.035-.033a2.275,2.275,0,0,0-1.42-.639l-.361-.033a2.314,2.314,0,0,0-.984.151l-.411.159a1.749,1.749,0,0,0-.323.157,5.616,5.616,0,0,0-1.8,1.645c-.041.064-.078.12-.12.175-.107-.015-.219-.039-.326-.048a2.384,2.384,0,0,0-.992.142,6.613,6.613,0,0,0-.842.437l-.288.172a8.282,8.282,0,0,0,.112-.924,7.105,7.105,0,0,0-.706-3.333,4.783,4.783,0,0,0-2.163-2.056,4.688,4.688,0,0,0-2.809-.3,7.245,7.245,0,0,0-2.353.876,13.737,13.737,0,0,0-2.842,2.2,22.863,22.863,0,0,0-2.443,2.833,33.5,33.5,0,0,0-2.089,3.284c-.629,1.13-1.225,2.332-1.776,3.56-.521,1.219-1,2.444-1.406,3.638q-.651,1.887-1.082,3.634a33.678,33.678,0,0,0-.667,3.345,20.435,20.435,0,0,0-.241,3.017,10.637,10.637,0,0,0,.608,3.738,6.331,6.331,0,0,0,2.065,3,5.434,5.434,0,0,0,3.413,1.156.509.509,0,0,0,.116-.009,7.993,7.993,0,0,0,3.8-1.18,26.487,26.487,0,0,0,2.728-1.817,24.993,24.993,0,0,0,2.275-1.933q1.006-1,1.844-1.976c.549-.664,1.061-1.307,1.535-1.954.326-.477.64-.958.953-1.451.118.042.206.127.327.16a3.852,3.852,0,0,0,.618.062,3.544,3.544,0,0,0,1.772-.522,2.151,2.151,0,0,0,.274-.188l.356-.277a2.4,2.4,0,0,0,.5-.547l.4-.649a7.808,7.808,0,0,0,.454-1.067c.089-.3.206-.672.319-1.115l.761-2.889a2.357,2.357,0,0,0,.33.087,4.24,4.24,0,0,0,.549.049,4.558,4.558,0,0,0,2.059-.586c.073.062.119.156.194.228a4.15,4.15,0,0,0,2.693.964h.151a5.839,5.839,0,0,0,2.895-.893,11.678,11.678,0,0,0,1.674-1.195,18.125,18.125,0,0,0,1.425-1.358c.228-.238.433-.515.648-.763a3.454,3.454,0,0,0,.659.088c.045,0,.276-.016.321-.016a4.626,4.626,0,0,0,2.049-.655,8.366,8.366,0,0,0,1.481-1.124c.373-.37.748-.774,1.083-1.179.111-.133.212-.261.316-.4a3.707,3.707,0,0,0,2.695-.482,6.844,6.844,0,0,0,1.788-1.512c.137-.14.242-.321.369-.481.1.009.206.021.28.021a3.492,3.492,0,0,0,1.766-.51,4.5,4.5,0,0,0,1.24-1.039,4.91,4.91,0,0,0,.847-1.441,3.066,3.066,0,0,0,2.611-.228,6.3,6.3,0,0,0,1.391-1.123,6.167,6.167,0,0,0,1-1.662,3.02,3.02,0,0,0,2.749-.189,9.932,9.932,0,0,0,1.914-1.417,14.887,14.887,0,0,0,1.4-1.56c.4-.512.777-1.036,1.139-1.6l.95-1.44a2.247,2.247,0,0,0,.38-1.417Zm-59.882,40.837v-1.6h.011Zm6.088-21.568a14.063,14.063,0,0,1,1.064-1.457,7.886,7.886,0,0,1-.725,1.574,7.66,7.66,0,0,1-.982,1.346c-.129.143-.261.266-.382.377C212.083,143.09,212.431,142.468,212.779,141.914Zm-1.125,6.746,0,.049c.1-.017.409-.063.5-.088l.544-.134a1.2,1.2,0,0,1,.06.365l-2.271.007Zm4.355.775-1.729,2.447c-.549.759-1.094,1.488-1.692,2.192a18.285,18.285,0,0,1-1.737,1.827,10.407,10.407,0,0,1-1.8,1.335,3.044,3.044,0,0,1-.552.262,5.491,5.491,0,0,1-.144-1.368,13.092,13.092,0,0,1,.147-1.851c.094-.72.233-1.505.431-2.359.064-.309.13-.615.207-.923a3.244,3.244,0,0,0,1.91.751,5.316,5.316,0,0,0,2.616-.873,9.753,9.753,0,0,0,2-1.589,17.043,17.043,0,0,0,1.7-2.017,17.5,17.5,0,0,0,.95-1.512c-.012.133-.047.284-.062.421l-.04.3c-.133.172-.277.338-.4.5C217.2,147.79,216.591,148.6,216.009,149.435Z" fill="#fff"/>
            </g>
            <g id="Grupo_30264" data-name="Grupo 30264">
              <g id="Grupo_30254" data-name="Grupo 30254">
                <path id="Trazado_25494" data-name="Trazado 25494" d="M166.716,162.4a13.793,13.793,0,0,1,1.714-.879,2.824,2.824,0,0,1,.944-.228.415.415,0,0,1,.381.252l.087.507-.067.594-.293.657a3.432,3.432,0,0,1-.7.743,8.043,8.043,0,0,1-1.286.88c-.236.139-.48.261-.733.387-.209,1.021-.375,1.951-.529,2.793s-.29,1.606-.406,2.326c-.131.7-.255,1.367-.353,1.976-.12.626-.221,1.258-.342,1.894s-.234,1.278-.355,1.983c-.117.679-.254,1.434-.4,2.247-.169.809-.339,1.716-.524,2.707-.2,1.006-.424,2.16-.678,3.457l.309-.167a5.817,5.817,0,0,1,.552-.228c.225-.071.426-.149.667-.214a3.007,3.007,0,0,1,.652-.118,1.009,1.009,0,0,1,.482.08l.192.337a2.815,2.815,0,0,1-.808,1.512l-.753.435c-.341.2-.756.436-1.218.705l-1.527.879c-.534.307-1.079.626-1.609.931-.551.315-1.078.626-1.593.919-.5.294-.948.549-1.339.777-.394.205-.7.387-.926.514-.241.116-.364.187-.364.165l.1-.172.242-.382.252-.5a2.123,2.123,0,0,0,.155-.624,1.475,1.475,0,0,1,.4-.645,8.074,8.074,0,0,1,.855-.846c.321-.283.683-.591,1.061-.869a10.167,10.167,0,0,1,.993-.709c.255-1.276.493-2.538.746-3.793.235-1.26.473-2.525.675-3.784.221-1.246.44-2.444.661-3.56.238-1.1.46-2.16.681-3.156q.3-1.472.558-2.7c.15-.824.322-1.551.49-2.186-.273.205-.514.358-.72.515s-.4.309-.565.443l-.463.41-.444.436c-.152.151-.329.326-.514.515-.173.173-.395.4-.632.642l-.052.045c-.019.01-.037-.133-.052-.425s-.04-.688-.04-1.2l.121-.488a4.153,4.153,0,0,1,.41-.769,9.636,9.636,0,0,1,.766-1.035,14.644,14.644,0,0,1,1.2-1.2,20.566,20.566,0,0,1,1.683-1.347A24.9,24.9,0,0,1,166.716,162.4Z" fill="#fe6867"/>
              </g>
              <g id="Grupo_30255" data-name="Grupo 30255">
                <path id="Trazado_25495" data-name="Trazado 25495" d="M172.094,168.716a3.854,3.854,0,0,1,1.254-.5,1.837,1.837,0,0,1,1,.055,1.291,1.291,0,0,1,.633.565,2.173,2.173,0,0,1,.223,1.052,4.378,4.378,0,0,1-.094.925,7.191,7.191,0,0,1-.428,1.234,5.085,5.085,0,0,1-.6,1.108,2.588,2.588,0,0,1-.668.61c-.377.213-.615.227-.739.1a.905.905,0,0,1-.173-.783c.036-.157.081-.5.2-1.086a2.716,2.716,0,0,0,.013-.466,1.207,1.207,0,0,0-.065-.475l-.24-.055a2.541,2.541,0,0,0-.772.69,4.376,4.376,0,0,0-.549.965,11.6,11.6,0,0,0-.463,1.407c-.132.569-.23,1.045-.3,1.416a7.255,7.255,0,0,0-.117,1.036c-.016.3-.016.563-.016.76a5.807,5.807,0,0,0,.068.929,1.682,1.682,0,0,0,.294.759.858.858,0,0,0,.57.362,1.286,1.286,0,0,0,.876-.236,4.668,4.668,0,0,0,1.181-1.051,17.488,17.488,0,0,0,1.3-1.719c.443-.635.856-1.3,1.248-1.986.107-.19.209-.373.309-.554a6.488,6.488,0,0,0,.265,1.923c.012.049.032.094.044.143-.2.389-.413.759-.629,1.124-.27.471-.579.949-.9,1.429a14.375,14.375,0,0,1-1.007,1.346,10.248,10.248,0,0,1-1.116,1.2,6.179,6.179,0,0,1-1.147.887,3.839,3.839,0,0,1-1.822.614,2.1,2.1,0,0,1-1.321-.394,2.729,2.729,0,0,1-.792-1.251,5.467,5.467,0,0,1-.285-1.843,10.078,10.078,0,0,1,.22-1.9c.156-.8.306-1.478.491-2.1a15.854,15.854,0,0,1,.649-1.868,12.008,12.008,0,0,1,.889-1.758,8.81,8.81,0,0,1,1.127-1.48A6.161,6.161,0,0,1,172.094,168.716Z" fill="#fe6867"/>
              </g>
              <g id="Grupo_30256" data-name="Grupo 30256">
                <path id="Trazado_25496" data-name="Trazado 25496" d="M185.645,167.747l1.443.859c-.667,1.179-1.352,2.287-2.088,3.339-.323.444-.667.9-1.022,1.362-.379.475-.757.933-1.17,1.362a13.263,13.263,0,0,1-1.263,1.208,9.08,9.08,0,0,1-1.323.94,3.6,3.6,0,0,1-1.816.6,1.864,1.864,0,0,1-1.309-.427,2.674,2.674,0,0,1-.746-1.139c-.012-.049-.032-.094-.044-.143a6.488,6.488,0,0,1-.265-1.923,8.372,8.372,0,0,1,.235-1.826c.152-.747.306-1.425.475-2.021a14.319,14.319,0,0,1,.613-1.812,12.276,12.276,0,0,1,.886-1.732,8.248,8.248,0,0,1,1.133-1.486,5.841,5.841,0,0,1,1.388-1.116,3.229,3.229,0,0,1,1.166-.434,1.511,1.511,0,0,1,.925.118,1.283,1.283,0,0,1,.639.632,3.034,3.034,0,0,1,.228,1.194,6.12,6.12,0,0,1-.46,2,13.533,13.533,0,0,1-1.058,2.27,16.12,16.12,0,0,1-1.421,2.066,17.272,17.272,0,0,1-1.813,1.873,2.609,2.609,0,0,0,.325.38l.345.156.345-.012.411-.207a6.934,6.934,0,0,0,1.4-1.109,18.347,18.347,0,0,0,1.441-1.573c.478-.6.906-1.163,1.339-1.756C184.994,168.8,185.352,168.251,185.645,167.747Zm-6.9,3.13c-.015.27-.032.514-.032.7a4.04,4.04,0,0,0,.892-.759,10.467,10.467,0,0,0,.873-1.092,9.441,9.441,0,0,0,.806-1.45,3.694,3.694,0,0,0,.39-1.234,1.4,1.4,0,0,0-.195-.814.3.3,0,0,0-.462-.112,3.947,3.947,0,0,0-.822.675,4.542,4.542,0,0,0-.563.853,5.077,5.077,0,0,0-.359.942c-.1.316-.2.73-.325,1.2a4.429,4.429,0,0,0-.2,1.1Z" fill="#fe6867"/>
              </g>
              <g id="Grupo_30257" data-name="Grupo 30257">
                <path id="Trazado_25497" data-name="Trazado 25497" d="M214.282,134.316a4.943,4.943,0,0,1,1.632-.609,2.238,2.238,0,0,1,2.579,1.235,4.976,4.976,0,0,1,.42,2.222,9.445,9.445,0,0,1-.249,2.065,15.872,15.872,0,0,1-.716,2.265,20.057,20.057,0,0,1-1.08,2.3,17.473,17.473,0,0,1-1.332,2.128,16.133,16.133,0,0,1-1.47,1.765,8.039,8.039,0,0,1-1.542,1.218,3.313,3.313,0,0,1-1.527.57c-.331-.033-.5-.231-.5-.619v-.238l-.022-.284.035-.515.082-.508.19-.442.362-.323.22-.088.225-.032.312-.079a3.8,3.8,0,0,0,.423-.205,6.793,6.793,0,0,0,1.458-1.2,10.667,10.667,0,0,0,2.253-3.886,6.652,6.652,0,0,0,.379-2.205,3.276,3.276,0,0,0-.143-1.023,1.154,1.154,0,0,0-.432-.665,1.218,1.218,0,0,0-.771-.183,2.883,2.883,0,0,0-1.172.436,6.6,6.6,0,0,0-1.559,1.314,14.481,14.481,0,0,0-1.47,1.955,24.949,24.949,0,0,0-1.316,2.413c-.429.886-.817,1.795-1.175,2.737-.344.924-.666,1.883-.956,2.841s-.525,1.883-.717,2.785c-.2.886-.353,1.739-.453,2.524a14.829,14.829,0,0,0-.166,2.153,7.233,7.233,0,0,0,.3,2.216,2.336,2.336,0,0,0,.813,1.235,1.64,1.64,0,0,0,1.29.249,4.76,4.76,0,0,0,1.7-.637,12.31,12.31,0,0,0,2.211-1.633,20.431,20.431,0,0,0,1.954-2.055c.612-.73,1.192-1.5,1.776-2.313s1.146-1.629,1.731-2.437c.579-.83,1.161-1.622,1.76-2.4.253-.332.509-.654.772-.97-.036.305-.07.609-.1.9-.068.583-.12,1.154-.154,1.662-.017.355-.036.671-.039.958-.225.331-.445.677-.673,1.052-.342.559-.7,1.137-1.08,1.772-.374.609-.784,1.224-1.216,1.827s-.906,1.193-1.42,1.8a23.9,23.9,0,0,1-1.7,1.832,24.781,24.781,0,0,1-2.054,1.739,24.021,24.021,0,0,1-2.484,1.655,5.866,5.866,0,0,1-2.732.886,3.194,3.194,0,0,1-2.057-.665,4.23,4.23,0,0,1-1.33-1.98,8.6,8.6,0,0,1-.471-2.98,17.452,17.452,0,0,1,.214-2.675,31.39,31.39,0,0,1,.624-3.144c.271-1.108.614-2.245,1.024-3.434.387-1.152.851-2.325,1.346-3.479.514-1.15,1.075-2.28,1.674-3.355a30.6,30.6,0,0,1,1.949-3.062,20.355,20.355,0,0,1,2.192-2.548A11.69,11.69,0,0,1,214.282,134.316Z" fill="#fe6867"/>
              </g>
              <g id="Grupo_30258" data-name="Grupo 30258">
                <path id="Trazado_25498" data-name="Trazado 25498" d="M226.572,137.522l.414-.158.361.021.24.238.09.459a5.954,5.954,0,0,1-.052.642c-.049.294-.1.654-.185,1.141-.082.455-.135.821-.17,1.121s-.064.53-.064.706a2.578,2.578,0,0,0,.086.727.725.725,0,0,0,.21.371l.29.1.341-.12a5.237,5.237,0,0,0,1.033-.848c.1-.116.206-.227.3-.339a8.432,8.432,0,0,0-.194,1.662,6.937,6.937,0,0,0,.1,1.234q-.33.357-.66.665a4.819,4.819,0,0,1-.929.713,2.127,2.127,0,0,1-1.357.388,1.248,1.248,0,0,1-.813-.563,3.219,3.219,0,0,1-.443-1.179,11.117,11.117,0,0,1-.245-1.456l-.172.1-1.987,7.563c-.106.4-.2.73-.291,1a5.264,5.264,0,0,1-.293.706l-.305.472-.36.287a1.15,1.15,0,0,1-.737.206.688.688,0,0,1-.448-.348,2.573,2.573,0,0,1-.188-.76,7.883,7.883,0,0,1-.057-.958c0-.127,0-.253.006-.393,0-.287.022-.6.039-.958.034-.508.086-1.079.154-1.662.03-.293.064-.6.1-.9s.072-.609.117-.925c.085-.635.183-1.317.32-2.036s.251-1.352.34-1.834c.1-.5.2-.935.286-1.258l.188-.563.2-.371.292-.311.43-.259a2.782,2.782,0,0,1,.447-.245l.24.023.1.294c0,.159.017.365.017.624,0,.31-.031.783-.066,1.379s-.043,1.129-.027,1.557l.12-.072c.156-.419.341-.98.562-1.662a16.286,16.286,0,0,1,.7-1.811,10.423,10.423,0,0,1,.841-1.407A3.345,3.345,0,0,1,226.572,137.522Z" fill="#fe6867"/>
              </g>
              <g id="Grupo_30259" data-name="Grupo 30259">
                <path id="Trazado_25499" data-name="Trazado 25499" d="M260,118.225a1.076,1.076,0,0,1,.894-.182c.239.054.36.3.36.68,0,.594-.013,1.17-.066,1.733s-.135,1.2-.232,1.913-.183,1.344-.237,1.908-.063,1.147-.063,1.74a2.815,2.815,0,0,0,.158,1.052c.1.238.224.3.38.214l.5-.4c.172-.182.341-.38.512-.593.192-.231.361-.469.532-.72l.477-.793c.375-.607.736-1.271,1.1-1.976l.2,2.926c-.321.481-.65.974-.973,1.472s-.667.981-1.023,1.44a13.6,13.6,0,0,1-1.2,1.329,7.67,7.67,0,0,1-1.458,1.075.664.664,0,0,1-.672.088,1.017,1.017,0,0,1-.445-.571,4.8,4.8,0,0,1-.243-1.1,12.832,12.832,0,0,1-.071-1.521c0-.554.011-1.131.047-1.763s.061-1.26.131-1.908l-.177.094-2.239,7.89a3.835,3.835,0,0,1-.654,1.107,3.353,3.353,0,0,1-.823.648.54.54,0,0,1-.893-.253,1.949,1.949,0,0,1-.158-.678,5.757,5.757,0,0,1-.051-.752c-.005-.121.017-.294.032-.5s.036-.466.053-.736c.029-.3.063-.593.1-.908s.08-.643.116-.959c.085-.736.165-1.511.286-2.374l-.158.087a4.4,4.4,0,0,0-.305.752c-.119.323-.274.789-.494,1.431-.2.609-.459,1.411-.779,2.391s-.735,2.2-1.249,3.655a3.07,3.07,0,0,1-.531,1,2.4,2.4,0,0,1-.649.554,1.187,1.187,0,0,1-.736.206.576.576,0,0,1-.431-.339,1.631,1.631,0,0,1-.192-.7,9.033,9.033,0,0,1-.055-.957c0-.355.014-.775.049-1.29.03-.443.075-.925.115-1.433.008-.055.009-.111.018-.166.067-.578.148-1.235.268-1.994.1-.727.2-1.4.287-1.962.085-.537.173-1.058.254-1.544.1-.47.168-.868.255-1.169a6.619,6.619,0,0,1,.2-.792l.239-.514.291-.349a2.684,2.684,0,0,1,.465-.322c.292-.166.514-.276.667-.348l.358-.05.141.272c.016.149.016.369.016.624l-.012.522c-.019.2-.019.4-.052.641a6.809,6.809,0,0,1-.066.688,6.385,6.385,0,0,1-.084.72c-.1.647-.205,1.377-.321,2.159l.126.089c.013-.033.115-.325.3-.871.171-.53.374-1.062.581-1.615.225-.545.443-1.125.685-1.717s.473-1.147.693-1.622a10.136,10.136,0,0,1,.689-1.29,2.636,2.636,0,0,1,.874-.86.933.933,0,0,1,.808-.126c.219.071.326.321.326.7a9.481,9.481,0,0,1-.047,1c-.05.428-.087.72-.14.966s-.1.553-.167.93c-.047.3-.153.776-.285,1.388l-.07.417v.1l.12.089c.02-.034.12-.327.308-.848.185-.544.406-1.108.629-1.646s.461-1.13.719-1.755c.256-.6.495-1.157.715-1.638a13.651,13.651,0,0,1,.65-1.252A2.111,2.111,0,0,1,260,118.225Z" fill="#fe6867"/>
              </g>
              <g id="Grupo_30262" data-name="Grupo 30262" style="isolation: isolate">
                <g id="Grupo_30260" data-name="Grupo 30260">
                  <path id="Trazado_25500" data-name="Trazado 25500" d="M248.6,134.926a8.3,8.3,0,0,0,.055.935c-.145.267-.3.511-.463.759a12.681,12.681,0,0,1-1.146,1.511,4.822,4.822,0,0,1-1.235,1.065,1.318,1.318,0,0,1-1.237.182,2.077,2.077,0,0,1-.857-1.08,11.4,11.4,0,0,1-.653,1.108,14.492,14.492,0,0,1-.874,1.169c-.309.381-.631.72-.957,1.052a5.646,5.646,0,0,1-1.015.759,2.324,2.324,0,0,1-1.04.348,1.5,1.5,0,0,1-.916-.181,1.611,1.611,0,0,1-.485-.538c-.047-.089-.091-.173-.131-.268a3.555,3.555,0,0,1-.245-1.4,8.964,8.964,0,0,1,.062-1.011c.038-.35.1-.705.17-1.079a18.386,18.386,0,0,1,.734-2.61,22.082,22.082,0,0,1,1.041-2.658,18.764,18.764,0,0,1,1.244-2.2,13.931,13.931,0,0,1,1.421-1.843,6.425,6.425,0,0,1,1.5-1.25.715.715,0,0,1,.416-.118l.242.118.186.188.227.082.272-.072.293-.15.24-.143.259-.166.322-.151.259.031.173.253a2.559,2.559,0,0,1,.056.6,11.137,11.137,0,0,1-.1,1.423c-.08.56-.169,1.124-.25,1.684-.1.587-.2,1.245-.322,1.977a11.306,11.306,0,0,0-.183,1.805,3.4,3.4,0,0,0,.087.863c.072.19.207.217.411.1l.5-.426a5.363,5.363,0,0,0,.514-.632c.171-.254.362-.525.531-.8s.342-.57.5-.86c.189-.342.375-.707.563-1.094-.04.508-.085.99-.115,1.433C248.619,134.151,248.6,134.571,248.6,134.926Zm-5.549-.293L243.87,130a3.382,3.382,0,0,0-.895.769,7.964,7.964,0,0,0-.8,1.179,12,12,0,0,0-.718,1.44,18.647,18.647,0,0,0-.632,1.762,16.713,16.713,0,0,0-.44,1.733,7.968,7.968,0,0,0-.121,1.147v.127c0,.215.024.42.037.61a1.42,1.42,0,0,0,.14.475l.276.253a.574.574,0,0,0,.431-.11,2.086,2.086,0,0,0,.734-.84,6.992,6.992,0,0,0,.578-1.319,12.507,12.507,0,0,0,.412-1.441c.083-.469.153-.856.184-1.156Z" fill="#fe6867"/>
                </g>
                <g id="Grupo_30261" data-name="Grupo 30261">
                  <path id="Trazado_25501" data-name="Trazado 25501" d="M240.264,138.034l.055.033a.593.593,0,0,1-.055.094h0Z" fill="#fe6867"/>
                </g>
              </g>
              <g id="Grupo_30263" data-name="Grupo 30263">
                <path id="Trazado_25502" data-name="Trazado 25502" d="M237.406,140.346a3.555,3.555,0,0,0,.245,1.4c.04.1.084.179.131.268-.183.244-.376.5-.577.752-.375.476-.751.931-1.166,1.368a16.089,16.089,0,0,1-1.246,1.2,9.1,9.1,0,0,1-1.341.948,3.6,3.6,0,0,1-1.818.593,1.967,1.967,0,0,1-1.308-.428,3.049,3.049,0,0,1-.791-1.279,5.139,5.139,0,0,1-.163-.682,6.937,6.937,0,0,1-.1-1.234,8.432,8.432,0,0,1,.194-1.662c.012-.061.026-.117.035-.171.157-.745.309-1.428.477-2.01a14.954,14.954,0,0,1,.63-1.828,11.119,11.119,0,0,1,.871-1.726,9.784,9.784,0,0,1,1.131-1.49A6.274,6.274,0,0,1,234,133.249a3.216,3.216,0,0,1,1.167-.436,1.82,1.82,0,0,1,.941.1,1.465,1.465,0,0,1,.625.648,2.67,2.67,0,0,1,.225,1.2,6.25,6.25,0,0,1-.453,2,14.039,14.039,0,0,1-1.046,2.263,18.223,18.223,0,0,1-1.436,2.073,16.858,16.858,0,0,1-1.8,1.86,1.543,1.543,0,0,0,.325.387l.332.167.361-.033.389-.188a6.881,6.881,0,0,0,1.407-1.108,21.025,21.025,0,0,0,1.458-1.59c.334-.421.66-.837.972-1.256A8.964,8.964,0,0,0,237.406,140.346Zm-5.432-.01c-.016.272-.013.509-.013.683a4.2,4.2,0,0,0,.877-.738,8.791,8.791,0,0,0,.868-1.1,9.015,9.015,0,0,0,.8-1.45,3.529,3.529,0,0,0,.394-1.235,1.41,1.41,0,0,0-.192-.813.3.3,0,0,0-.447-.118,3.422,3.422,0,0,0-.822.67,4.275,4.275,0,0,0-.583.864,6.3,6.3,0,0,0-.36.941c-.1.316-.2.728-.319,1.2a7.026,7.026,0,0,0-.207,1.1Z" fill="#fe6867"/>
              </g>
            </g>
          </g>
        </g>
        <g id="Grupo_30278" data-name="Grupo 30278">
          <g id="Grupo_30277" data-name="Grupo 30277" style="isolation: isolate">
            <g id="Grupo_30267" data-name="Grupo 30267">
              <path id="Trazado_25503" data-name="Trazado 25503" d="M234.319,404.109l-5.485-3.192c4.133,2.407,9.854,2.076,16.161-1.565l5.479,3.187C244.171,406.183,238.451,406.516,234.319,404.109Z" fill="#444"/>
            </g>
            <g id="Grupo_30268" data-name="Grupo 30268">
              <path id="Trazado_25504" data-name="Trazado 25504" d="M261,345.566c1.463.847,2.921,1.7,4.386,2.548.083.047.2.11.276.159.275.165.546.317.823.483,4.078,2.374,6.62,7.407,6.637,14.567.042,14.383-10.122,31.986-22.644,39.216l-5.479-3.187c12.518-7.229,22.678-24.835,22.638-39.217C267.615,352.983,265.078,347.933,261,345.566Z" fill="#444"/>
            </g>
            <path id="Trazado_25505" data-name="Trazado 25505" d="M263.965,353.074c-.268-.156-.546-.315-.817-.483-.085-.042-.2-.109-.272-.154-.738-.429-1.464-.847-2.2-1.274s-1.464-.858-2.192-1.278c3.449,2,5.585,6.263,5.6,12.3.036,12.135-8.533,26.99-19.108,33.088-5.321,3.075-10.149,3.361-13.638,1.327l5.481,3.19c3.49,2.025,8.323,1.75,13.645-1.33,10.573-6.1,19.143-20.953,19.107-33.086C269.555,359.326,267.415,355.077,263.965,353.074Z" fill="#edece6"/>
            <g id="Grupo_30269" data-name="Grupo 30269">
              <path id="Trazado_25506" data-name="Trazado 25506" d="M244.926,349.373l.182-.1.07,23.028,7.437-25.672a2.35,2.35,0,0,1,.351-.058L245.5,372.328l14.155-24.515.266.134L245.8,372.42l18.422-19.645a1.369,1.369,0,0,1,.149.3l-18.464,19.7,20.076-11.6.015.2-.008.23-20.036,11.563,18.6-2.1c-.043.168-.084.32-.128.477l-18.651,2.116,14.248,8.116-.266.456-14.213-8.1,7.888,16.679c-.1.109-.221.237-.342.364l-7.9-16.724.061,23.088-.175.114-.193.1-.066-23.021L237.365,400.4c-.113.005-.232.038-.349.052l7.466-25.759L230.326,399.22l-.268-.152,14.127-24.453L225.76,394.256c-.053-.1-.1-.21-.151-.315l18.464-19.686L224,385.847l-.014-.206.014-.223,20.047-11.567-18.613,2.092c.053-.161.09-.311.128-.47l18.651-2.11-14.245-8.118.263-.443,14.218,8.1-7.894-16.681c.112-.134.234-.253.341-.371L244.8,372.57l-.067-23.072Z" fill="#444"/>
            </g>
            <path id="Trazado_25507" data-name="Trazado 25507" d="M247.621,368.591a2.671,2.671,0,0,0-2.718.259,8.389,8.389,0,0,0-3.815,6.594,2.69,2.69,0,0,0,1.12,2.461l2.741,1.587a2.675,2.675,0,0,1-1.115-2.452,8.384,8.384,0,0,1,3.815-6.594,2.7,2.7,0,0,1,2.715-.266Z" fill="#edece6"/>
            <g id="Grupo_30270" data-name="Grupo 30270">
              <path id="Trazado_25508" data-name="Trazado 25508" d="M228.834,400.917c-4.08-2.372-6.61-7.41-6.637-14.556,1.835,1.06,3.657,2.13,5.491,3.187.02,7.155,2.55,12.185,6.631,14.561C232.676,403.161,230.48,401.876,228.834,400.917Z" fill="#fff"/>
            </g>
            <g id="Grupo_30271" data-name="Grupo 30271">
              <path id="Trazado_25509" data-name="Trazado 25509" d="M244.845,347.133c6.3-3.639,12.017-3.972,16.151-1.567l5.485,3.19c-4.137-2.4-9.855-2.072-16.152,1.564C248.682,349.364,246.491,348.09,244.845,347.133Z" fill="#fff"/>
            </g>
            <g id="Grupo_30272" data-name="Grupo 30272">
              <path id="Trazado_25510" data-name="Trazado 25510" d="M222.2,386.361c-.037-14.4,10.111-31.986,22.648-39.228l5.484,3.187c-12.537,7.234-22.688,24.831-22.641,39.228C225.854,388.491,224.032,387.421,222.2,386.361Z" fill="#fff"/>
            </g>
            <g id="Grupo_30273" data-name="Grupo 30273">
              <path id="Trazado_25511" data-name="Trazado 25511" d="M250.309,342.808c16.127-9.314,29.3-1.806,29.344,16.739s-13.029,41.186-29.156,50.5-29.306,1.81-29.361-16.72S234.169,352.127,250.309,342.808Zm.165,59.731c12.522-7.23,22.686-24.833,22.644-39.216-.038-14.4-10.265-20.231-22.789-13s-22.688,24.831-22.641,39.228,10.257,20.225,22.786,12.991Z" fill="#444"/>
            </g>
            <g id="Grupo_30274" data-name="Grupo 30274">
              <path id="Trazado_25512" data-name="Trazado 25512" d="M250.329,350.32c12.524-7.228,22.751-1.4,22.789,13,.042,14.383-10.122,31.986-22.644,39.216s-22.748,1.4-22.786-12.991S237.792,357.554,250.329,350.32Zm.136,48.138c10.573-6.1,19.143-20.953,19.107-33.086-.036-12.155-8.661-17.083-19.234-10.975s-19.152,20.958-19.114,33.113c.036,12.135,8.665,17.057,19.241,10.948Z" fill="#fff"/>
            </g>
            <g id="Grupo_30275" data-name="Grupo 30275">
              <path id="Trazado_25513" data-name="Trazado 25513" d="M247.568,370.417a8.392,8.392,0,0,0-3.81,6.592c0,2.439,1.719,3.409,3.84,2.19a8.4,8.4,0,0,0,3.8-6.593C251.39,370.18,249.679,369.2,247.568,370.417Z" fill="#fff"/>
            </g>
            <g id="Grupo_30276" data-name="Grupo 30276">
              <path id="Trazado_25514" data-name="Trazado 25514" d="M247.571,373.019a3.436,3.436,0,0,0-1.548,2.691c0,.99.7,1.386,1.563.888a3.391,3.391,0,0,0,1.545-2.692C249.131,372.918,248.435,372.523,247.571,373.019Z" fill="#444"/>
            </g>
            <path id="Trazado_25515" data-name="Trazado 25515" d="M265.624,337.6c-5.32-3.092-12.687-2.664-20.806,2.019-16.133,9.322-29.217,31.98-29.167,50.526.028,9.209,3.291,15.691,8.541,18.744l5.49,3.188c-5.258-3.056-8.519-9.536-8.546-18.745-.052-18.543,13.033-41.2,29.173-50.522,8.108-4.684,15.479-5.112,20.8-2.023Z" fill="#2d2d2d"/>
          </g>
        </g>
        <g id="Grupo_30294" data-name="Grupo 30294">
          <g id="Grupo_30283" data-name="Grupo 30283">
            <g id="Grupo_30282" data-name="Grupo 30282" style="isolation: isolate">
              <g id="Grupo_30279" data-name="Grupo 30279">
                <path id="Trazado_25516" data-name="Trazado 25516" d="M104.594,295.23l-3.265-1.889c11.513-6.654,22.5-10.277,32.081-10.718l3.265,1.9C127.1,284.963,116.107,288.585,104.594,295.23Z" fill="#de3f18"/>
              </g>
              <g id="Grupo_30280" data-name="Grupo 30280">
                <path id="Trazado_25517" data-name="Trazado 25517" d="M102.689,301.631l-3.264-1.889a1.9,1.9,0,0,1-.793-1.732,5.945,5.945,0,0,1,2.7-4.669l3.265,1.889a5.955,5.955,0,0,0-2.7,4.669A1.879,1.879,0,0,0,102.689,301.631Z" fill="#de3f18"/>
              </g>
              <g id="Grupo_30281" data-name="Grupo 30281">
                <path id="Trazado_25518" data-name="Trazado 25518" d="M104.594,295.23c11.513-6.645,22.5-10.267,32.081-10.71l.023,8.488c-9.4-.608-20.6,1.8-32.088,8.442-1.491.863-2.71.165-2.713-1.551A5.955,5.955,0,0,1,104.594,295.23Z" fill="#d03623"/>
              </g>
            </g>
          </g>
          <g id="Grupo_30288" data-name="Grupo 30288">
            <g id="Grupo_30287" data-name="Grupo 30287" style="isolation: isolate">
              <g id="Grupo_30284" data-name="Grupo 30284">
                <path id="Trazado_25519" data-name="Trazado 25519" d="M106.828,295.364l35.648,20.809a1.381,1.381,0,0,0-1.4.137L105.431,295.5A1.391,1.391,0,0,1,106.828,295.364Z" fill="#444"/>
              </g>
              <g id="Grupo_30285" data-name="Grupo 30285">
                <path id="Trazado_25520" data-name="Trazado 25520" d="M139.694,320.969,104.047,300.16a1.385,1.385,0,0,1-.577-1.265,4.345,4.345,0,0,1,1.961-3.395l35.647,20.81a4.333,4.333,0,0,0-1.96,3.395A1.387,1.387,0,0,0,139.694,320.969Z" fill="#444"/>
              </g>
              <g id="Grupo_30286" data-name="Grupo 30286">
                <path id="Trazado_25521" data-name="Trazado 25521" d="M141.078,316.31c1.092-.626,1.968-.121,1.975,1.122a4.335,4.335,0,0,1-1.961,3.4c-1.082.613-1.967.118-1.974-1.13A4.333,4.333,0,0,1,141.078,316.31Z" fill="#444"/>
              </g>
            </g>
          </g>
          <g id="Grupo_30293" data-name="Grupo 30293">
            <g id="Grupo_30292" data-name="Grupo 30292" style="isolation: isolate">
              <g id="Grupo_30289" data-name="Grupo 30289">
                <path id="Trazado_25522" data-name="Trazado 25522" d="M143.4,317.347l-3.264-1.9c11.514-6.64,22.506-10.268,32.083-10.711l3.264,1.9C165.908,307.074,154.92,310.7,143.4,317.347Z" fill="#de3f18"/>
              </g>
              <g id="Grupo_30290" data-name="Grupo 30290">
                <path id="Trazado_25523" data-name="Trazado 25523" d="M141.495,323.754l-3.257-1.9a1.888,1.888,0,0,1-.792-1.733,5.964,5.964,0,0,1,2.7-4.678l3.264,1.9a5.923,5.923,0,0,0-2.695,4.673A1.9,1.9,0,0,0,141.495,323.754Z" fill="#de3f18"/>
              </g>
              <g id="Grupo_30291" data-name="Grupo 30291">
                <path id="Trazado_25524" data-name="Trazado 25524" d="M143.4,317.347c11.515-6.646,22.5-10.273,32.083-10.716l.024,8.489c-9.406-.609-20.608,1.813-32.087,8.447-1.5.862-2.711.165-2.715-1.547A5.923,5.923,0,0,1,143.4,317.347Z" fill="#d03623"/>
              </g>
            </g>
          </g>
        </g>
        <g id="Grupo_30298" data-name="Grupo 30298">
          <g id="Grupo_30297" data-name="Grupo 30297" style="isolation: isolate">
            <g id="Grupo_30295" data-name="Grupo 30295">
              <path id="Trazado_25525" data-name="Trazado 25525" d="M262.952,328.515l13.58,7.9a17.906,17.906,0,0,1,5.547,5.094l-13.58-7.886A17.979,17.979,0,0,0,262.952,328.515Z" fill="#c12d2d"/>
            </g>
            <path id="Trazado_25526" data-name="Trazado 25526" d="M265.7,323.754c-7.408-4.3-17.588-3.467-28.285,2.713-14.093,8.132-27.249,24.486-34.32,42.661l13.576,7.89c7.074-18.175,20.226-34.527,34.319-42.659,10.7-6.183,20.875-7.023,28.285-2.717Z" fill="#de3f18"/>
            <g id="Grupo_30296" data-name="Grupo 30296">
              <path id="Trazado_25527" data-name="Trazado 25527" d="M250.994,334.359c14.108-8.145,27.312-7.014,34.45,2.965l-3.365,4.183c-6.451-8.979-18.348-9.99-31.071-2.649-12.7,7.334-24.573,22.073-30.952,38.459l-3.381-.3C223.749,358.843,236.9,342.491,250.994,334.359Z" fill="#d03623"/>
            </g>
          </g>
        </g>
      </g>
      <g id="Grupo_30305" data-name="Grupo 30305">
        <path id="Trazado_25528" data-name="Trazado 25528" d="M211.738,88.529c0,13.349-11.7,48.525-17.633,48.525-5.847,0-17.64-35.176-17.64-48.525,0-11.336,7.9-20.529,17.64-20.529S211.738,77.193,211.738,88.529Z" fill="#ffbf37"/>
        <g id="Grupo_30300" data-name="Grupo 30300">
          <path id="Trazado_25529" data-name="Trazado 25529" d="M193.946,137.037l-.069-.013.014-.026.142.049-.087-.01Zm.426.01h-.018l.145-.056.007.033a1.255,1.255,0,0,0-.134.023Zm-.544-.033-.117-.023c-.061-.022-.147-.039-.206-.064l-.231-.111a.487.487,0,0,1-.11-.427,3.476,3.476,0,0,0,.668.58c0,.012,0,.029,0,.045Zm.472.033c-.041,0-.1.007-.139.007l-.072-.007a.851.851,0,0,1-.186-.071c.1-.15.121-.2.3-.451.214.317.228.339.287.444a.488.488,0,0,1-.187.078Zm.587-.127-.029.007a2.568,2.568,0,0,1-.264.081l-.033.006a.169.169,0,0,0,0-.055,3.764,3.764,0,0,0,.674-.587c-.016.32-.016.327-.12.43l-.228.118Zm-1.716-.167a5.994,5.994,0,0,1-.994-.846,1.864,1.864,0,0,1-.172-.838c.644.775.679.821,1.052,1.208.009.343.015.349.114.476Zm.671.183a5.289,5.289,0,0,1-.671-.625,3.438,3.438,0,0,1,.273-.855c.231.323.465.65.693.972-.214.358-.234.381-.295.508Zm.71-.009c-.1-.19-.121-.223-.293-.5.233-.322.463-.656.7-.98a3.22,3.22,0,0,1,.27.857,4.327,4.327,0,0,1-.674.622Zm.667-.181a.626.626,0,0,0,.124-.474c.509-.57.59-.659,1.053-1.235a1.748,1.748,0,0,1-.18.837,5.6,5.6,0,0,1-1,.872Zm-3.179-.989a18.667,18.667,0,0,1-1.316-1.584,3.721,3.721,0,0,1-.26-1.162c.831,1.155.863,1.2,1.389,1.866a1.89,1.89,0,0,0,.187.88Zm1.024.443c-.526-.593-.594-.674-1.056-1.258a4.853,4.853,0,0,1,.228-1.173q.551.774,1.1,1.528a3.265,3.265,0,0,0-.269.9Zm1.136.143c-.284-.421-.348-.524-.7-1.023a13.164,13.164,0,0,1,.7-1.3,13.581,13.581,0,0,1,.69,1.29c-.417.608-.486.7-.694,1.029Zm1.134-.159a3.636,3.636,0,0,0-.264-.892c.364-.516.732-1.03,1.095-1.545a4.5,4.5,0,0,1,.231,1.172c-.647.8-.685.845-1.062,1.265Zm1.025-.461a2.006,2.006,0,0,0,.189-.868c.705-.926.811-1.068,1.387-1.9a3.352,3.352,0,0,1-.267,1.163,16.164,16.164,0,0,1-1.309,1.605Zm-5.808-1.794c-.781-1.123-.9-1.3-1.508-2.3a5.333,5.333,0,0,1-.409-1.424c.963,1.545.982,1.574,1.64,2.541a3.783,3.783,0,0,0,.277,1.186Zm1.306.821c-.713-.925-.82-1.066-1.4-1.9a5.089,5.089,0,0,1,.167-1.4c.869,1.269.869,1.269,1.455,2.09a4.629,4.629,0,0,0-.222,1.2Zm1.534.414c-.363-.525-.732-1.036-1.1-1.559a12.381,12.381,0,0,1,.678-1.527c.665,1.02.753,1.148,1.121,1.758a13.424,13.424,0,0,0-.7,1.328Zm1.613-.01a12.362,12.362,0,0,0-.69-1.318c.559-.913.593-.969,1.12-1.773a11.622,11.622,0,0,1,.675,1.518c-1.033,1.488-1.033,1.488-1.1,1.573Zm1.544-.434a4.717,4.717,0,0,0-.224-1.194c.606-.87.882-1.258,1.459-2.112a5.214,5.214,0,0,1,.163,1.392c-.834,1.179-.867,1.224-1.4,1.914Zm1.293-.839a3.676,3.676,0,0,0,.287-1.193c.854-1.29.985-1.488,1.632-2.563a5.76,5.76,0,0,1-.426,1.43c-.853,1.4-.9,1.489-1.493,2.326Zm-8.99-2.578c-.851-1.527-.962-1.719-1.577-2.976a8.744,8.744,0,0,1-.586-1.635c.969,1.848,1.025,1.951,1.729,3.155a6.068,6.068,0,0,0,.434,1.456Zm1.42,1.28c-.841-1.25-1.013-1.5-1.662-2.563a5.674,5.674,0,0,1,.067-1.534c1.025,1.606,1.045,1.639,1.744,2.674a5.214,5.214,0,0,0-.149,1.423Zm1.862.8c-.689-.981-.894-1.28-1.464-2.11a9.853,9.853,0,0,1,.632-1.662c.5.742,1.006,1.484,1.5,2.23a11.606,11.606,0,0,0-.672,1.542Zm2.071.26c-.568-.914-.6-.97-1.125-1.771.554-.987.6-1.069,1.125-1.9.661,1.069.746,1.205,1.12,1.886-.665,1.027-.753,1.163-1.12,1.785Zm2.064-.283a10.241,10.241,0,0,0-.674-1.534c.5-.753,1.007-1.506,1.508-2.248a9.506,9.506,0,0,1,.632,1.645c-.869,1.283-.869,1.283-1.466,2.137Zm1.866-.83a5.17,5.17,0,0,0-.153-1.418c.893-1.352,1.056-1.6,1.744-2.7a4.811,4.811,0,0,1,.058,1.534c-.961,1.567-.981,1.59-1.649,2.587Zm1.388-1.3a5.8,5.8,0,0,0,.444-1.465c.912-1.607,1.048-1.858,1.713-3.18a9.259,9.259,0,0,1-.6,1.654c-.876,1.763-.925,1.874-1.561,2.991Zm-12.463-3.372-.876-1.931c-.362-.86-.854-2.017-1.2-2.9l-.181-.473c.9,2.105.973,2.278,1.678,3.7a9.012,9.012,0,0,0,.583,1.6Zm1.337,1.8c-.93-1.6-1.073-1.859-1.754-3.171a5.519,5.519,0,0,1-.114-1.633c1.094,1.925,1.122,1.965,1.919,3.261a5.651,5.651,0,0,0-.051,1.543Zm2.071,1.314c-.9-1.352-1.062-1.6-1.756-2.691a8.628,8.628,0,0,1,.559-1.694c1.037,1.561,1.037,1.561,1.819,2.713a10.106,10.106,0,0,0-.622,1.672Zm2.449.648c-.743-1.107-.743-1.107-1.511-2.238a22.109,22.109,0,0,1,1.1-1.938c.9,1.3,1.013,1.47,1.535,2.27-.665,1.075-.749,1.218-1.121,1.906Zm2.574-.017c-.561-.987-.6-1.066-1.124-1.889.811-1.234.825-1.257,1.53-2.286a20,20,0,0,1,1.1,1.922c-.54.8-1.045,1.55-1.507,2.253Zm2.443-.687a10.206,10.206,0,0,0-.623-1.654c.922-1.385,1.143-1.707,1.821-2.743a8.286,8.286,0,0,1,.558,1.684c-1.049,1.652-1.049,1.652-1.756,2.713Zm2.062-1.338a4.932,4.932,0,0,0-.039-1.541c1.013-1.694,1.169-1.955,1.9-3.294a5.761,5.761,0,0,1-.128,1.638c-.969,1.868-1.029,1.978-1.732,3.2Zm2-3.362-.665,1.489a8.7,8.7,0,0,0,.56-1.551c.913-1.939,1.03-2.193,1.653-3.72l-.154.42c-.414,1-.954,2.365-1.394,3.362Zm-17.269-3.828-.524-1.361.4,1.035.121.326Zm1.708,3.673c-.938-1.95-1.062-2.195-1.705-3.722a6.883,6.883,0,0,1-.318-1.667c1.015,2.12,1.1,2.292,1.882,3.748a5.493,5.493,0,0,0,.141,1.641Zm2.051,1.856c-.977-1.6-1.208-1.977-1.934-3.258a6.408,6.408,0,0,1,.449-1.646c1.177,1.891,1.2,1.929,2.029,3.212a8.618,8.618,0,0,0-.544,1.692Zm2.714,1.163c-1.052-1.551-1.159-1.718-1.827-2.714a15.492,15.492,0,0,1,1.049-1.89q.938,1.329,1.872,2.665a20.371,20.371,0,0,0-1.094,1.939Zm3.008.38c-.818-1.235-.835-1.257-1.542-2.27.811-1.218.843-1.274,1.538-2.237.87,1.217,1,1.407,1.535,2.22-.877,1.274-1.012,1.473-1.531,2.287Zm3-.419c-.543-1.019-.586-1.1-1.1-1.922.625-.894,1.246-1.8,1.872-2.692a15.511,15.511,0,0,1,1.054,1.877c-1.03,1.55-1.03,1.55-1.829,2.737Zm2.714-1.21a8.5,8.5,0,0,0-.548-1.677c1.033-1.623,1.249-1.954,2.026-3.244a5.618,5.618,0,0,1,.44,1.628c-1.107,1.972-1.107,1.972-1.918,3.293Zm2.017-1.876a5.9,5.9,0,0,0,.153-1.645c1.019-1.987,1.15-2.238,1.854-3.776a6.825,6.825,0,0,1-.333,1.687c-.919,2.161-.974,2.288-1.674,3.734Zm2.068-4.717-.369.968.1-.261.323-.84-.049.133Zm-17.7,2.984c-1.048-1.976-1.178-2.221-1.9-3.759a4.573,4.573,0,0,1,.244-1.557c1.179,2.144,1.2,2.183,2.1,3.677a6.01,6.01,0,0,0-.438,1.639Zm2.822,1.783c-1.088-1.671-1.254-1.933-2.043-3.2a10.992,10.992,0,0,1,.974-1.745c1.211,1.778,1.211,1.778,2.109,3.061a15.365,15.365,0,0,0-1.04,1.884Zm3.326.885q-.94-1.328-1.88-2.658c.782-1.15.827-1.212,1.509-2.1.918,1.209,1.261,1.662,1.9,2.532-.869,1.225-1,1.407-1.53,2.231Zm3.491-.026c-.778-1.163-.839-1.257-1.537-2.205.955-1.3,1.013-1.384,1.9-2.558.88,1.158.994,1.307,1.515,2.081-.626.894-1.255,1.79-1.877,2.682Zm3.331-.932a15.219,15.219,0,0,0-1.047-1.86c1.012-1.478,1.323-1.922,2.1-3.1a11.7,11.7,0,0,1,.978,1.734c-1.132,1.826-1.2,1.938-2.036,3.227Zm5.107-5.713-.577,1.512a7.019,7.019,0,0,0,.355-1.684c.932-2.2,1.052-2.476,1.662-4.164-.065.26-.147.6-.229.847-.358,1.052-.829,2.46-1.211,3.489Zm-19.852,1.632-.661-1.711c-.345-.957-.8-2.238-1.137-3.2-.075-.267-.181-.627-.241-.9.9,2.326.97,2.525,1.695,4.146a6.793,6.793,0,0,0,.344,1.672Zm17.538,2.26a5.4,5.4,0,0,0-.413-1.638c1.114-1.921,1.29-2.223,2.068-3.711a4.576,4.576,0,0,1,.225,1.577c-1.006,2.128-1.091,2.3-1.88,3.772Zm-15.241-1.733c-1.086-1.811-1.335-2.247-2.111-3.661a7.19,7.19,0,0,1,.859-1.512c1.268,2.027,1.29,2.066,2.212,3.449a11.335,11.335,0,0,0-.96,1.724Zm3.5,1.5c-1.026-1.457-1.333-1.89-2.117-3.046.736-1,.795-1.091,1.456-1.873.72.947,1.44,1.9,2.162,2.837-.869,1.157-.983,1.307-1.5,2.082Zm7.746-.046c-.784-1.123-.829-1.189-1.508-2.059q1.08-1.437,2.158-2.87a21.84,21.84,0,0,1,1.461,1.858c-1.2,1.772-1.2,1.772-2.111,3.071Zm7.779-7.88-.028.1c.055-.205.147-.476.185-.692.249-.748.577-1.745.8-2.515-.281.937-.656,2.183-.96,3.112Zm-23.346.3-.2-.609c-.263-.863-.632-2-.889-2.864.26.821.61,1.921.889,2.73.059.223.13.521.2.743Zm1.674,3.733c-.967-2.183-1.087-2.466-1.722-4.137a4.383,4.383,0,0,1,.018-1.446c1.023,2.26,1.1,2.443,1.919,4.026a4.508,4.508,0,0,0-.215,1.557Zm10.021,4.385c-1.01-1.346-1.027-1.368-1.91-2.515,1.049-1.317,1.049-1.317,1.9-2.336,1.07,1.28,1.235,1.473,1.905,2.319-.941,1.235-1.26,1.652-1.9,2.532Zm7.369-2.1a11.556,11.556,0,0,0-.964-1.7c1.13-1.749,1.368-2.111,2.2-3.489a5.906,5.906,0,0,1,.854,1.5c-1.192,2.177-1.192,2.177-2.094,3.687Zm2.6-2.419a4.412,4.412,0,0,0-.2-1.558c1.053-2.147,1.19-2.424,1.882-4.044a4.043,4.043,0,0,1,.008,1.449c-.892,2.331-.968,2.524-1.688,4.153Zm-21.9-4.536c-.352-1.019-.806-2.4-1.125-3.439l-.334-1.18a6.553,6.553,0,0,1-.135-1.045c.821,2.359.89,2.557,1.587,4.242a3.862,3.862,0,0,0,.007,1.422Zm2.195,2.93c-1.085-2.121-1.222-2.4-1.945-4.01a3.4,3.4,0,0,1,.642-1.268c1.2,2.2,1.222,2.238,2.146,3.789a6.322,6.322,0,0,0-.843,1.489Zm3.475,2.193c-1.165-1.756-1.377-2.076-2.221-3.418a15.061,15.061,0,0,1,1.384-1.567c1.323,1.844,1.323,1.844,2.29,3.141a21.344,21.344,0,0,0-1.453,1.844Zm4.1,1.09c-.723-.935-1.449-1.866-2.173-2.808,1.011-1.124,1.046-1.163,1.88-2.033.867,1,1.554,1.8,2.188,2.538-1.045,1.241-1.234,1.462-1.9,2.3Zm4.307-.022c-1.052-1.29-1.052-1.29-1.9-2.281q1.087-1.281,2.188-2.564c1.052,1.084,1.212,1.251,1.876,2-.82,1.091-.969,1.289-2.159,2.841Zm4.1-1.157A23.077,23.077,0,0,0,199,118.531c1.18-1.612,1.423-1.945,2.28-3.174a14.434,14.434,0,0,1,1.4,1.546c-1.275,2.025-1.3,2.064-2.219,3.449Zm3.454-2.248a5.425,5.425,0,0,0-.829-1.472c1.16-2,1.334-2.3,2.119-3.822a3.343,3.343,0,0,1,.615,1.275c-1.013,2.256-1.092,2.436-1.9,4.019Zm3.542-7.492-.371,1.323c-.3.98-.709,2.276-1.031,3.233a4,4,0,0,0,.019-1.429c.887-2.274,1-2.563,1.551-4.251a7.012,7.012,0,0,1-.132,1l-.036.128Zm-26.824-.586c-.372-1.44-.848-3.369-1.18-4.825l-.068-.326-.009-.045a43.338,43.338,0,0,0,1.134,4.3,6.586,6.586,0,0,0,.123.9Zm1.674,3.7c-.923-2.248-1.043-2.533-1.616-4.21a1.884,1.884,0,0,1,.413-.99c.945,2.2,1.023,2.382,1.818,3.957a3.205,3.205,0,0,0-.615,1.243Zm3.143,2.85c-1.146-1.916-1.384-2.313-2.162-3.753a8.776,8.776,0,0,1,1.276-1.163c1.264,1.948,1.31,2.026,2.262,3.395a13.1,13.1,0,0,0-1.376,1.521Zm4.15,1.779c-1.186-1.574-1.433-1.9-2.294-3.1.962-.9,1.022-.951,1.829-1.63,1.292,1.527,1.316,1.559,2.341,2.743-1.049,1.079-1.211,1.246-1.876,1.989Zm4.6.576c-.726-.838-1.456-1.668-2.192-2.5,1.189-1.2,1.189-1.2,2.188-2.176,1.3,1.256,1.437,1.391,2.192,2.15-.729.84-1.458,1.677-2.188,2.524Zm4.6-.639c-.983-1.068-1.043-1.124-1.875-1.955,1.14-1.344,1.484-1.748,2.335-2.778,1.029.864,1.189,1,1.837,1.6-1.3,1.806-1.326,1.837-2.3,3.128Zm4.157-1.844a14.058,14.058,0,0,0-1.378-1.5c1.218-1.805,1.4-2.081,2.251-3.436a7.03,7.03,0,0,1,1.267,1.139c-1.18,2.186-1.2,2.225-2.14,3.792Zm3.088-2.879a3.239,3.239,0,0,0-.594-1.245c1.015-2.119,1.144-2.4,1.781-3.97a1.913,1.913,0,0,1,.393.989c-.818,2.35-.883,2.548-1.58,4.226Zm2.688-8.112c-.3,1.314-.72,3.057-1.053,4.359a7.841,7.841,0,0,0,.119-.86c.686-2.424.742-2.613,1.1-4.306l0,.016-.161.791ZM180.514,109c-.719-2.391-.778-2.59-1.159-4.264.016-.42.019-.443.2-.651a39.742,39.742,0,0,0,1.347,3.958,1.731,1.731,0,0,0-.384.957Zm2.515,3.346c-1.094-2.182-1.182-2.366-1.846-3.916a3.339,3.339,0,0,1,1.061-.752c1.1,2.01,1.143,2.088,2.045,3.56a8.2,8.2,0,0,0-1.26,1.108Zm3.985,2.515c-1.2-1.717-1.414-2.023-2.267-3.339.922-.64.977-.678,1.762-1.154,1.3,1.652,1.345,1.717,2.328,2.912-1.023.848-1.18.982-1.823,1.581Zm4.7,1.251c-1.238-1.409-1.5-1.707-2.342-2.691,1.215-.98,1.215-.98,2.166-1.718.785.76,1.573,1.523,2.361,2.281-1.234,1.2-1.427,1.374-2.185,2.128Zm4.941-.023c-1.179-1.147-1.2-1.172-2.193-2.1.789-.769,1.578-1.534,2.359-2.309,1.205.915,1.394,1.059,2.173,1.683-1.3,1.535-1.3,1.535-2.339,2.731Zm4.7-1.323c-.981-.869-1.017-.908-1.827-1.557,1.234-1.527,1.456-1.805,2.322-2.945,1,.593,1.146.691,1.769,1.124-1.237,1.909-1.316,2.026-2.264,3.378Zm3.964-2.577a6.087,6.087,0,0,0-1.243-1.094c1.143-1.929,1.289-2.183,2.016-3.591a3.209,3.209,0,0,1,1.033.75c-.985,2.27-1.021,2.369-1.806,3.935Zm2.45-3.364a1.718,1.718,0,0,0-.366-.948c.821-2.281.87-2.421,1.308-3.972.192.316.205.333.178.639-.558,2.414-.594,2.557-1.12,4.281Zm-28.532-4.614-.154-.791c-.147-.9-.346-2.1-.463-3.014l-.055-.491a.5.5,0,0,1,.036-.078.067.067,0,0,0,.035-.007,29.726,29.726,0,0,0,.776,3.781c-.192.284-.2.3-.175.6Zm1.741,3.737a40.041,40.041,0,0,1-1.374-3.919,1.865,1.865,0,0,1,.841-.316,35.043,35.043,0,0,0,1.563,3.521,2.977,2.977,0,0,0-1.03.714Zm3.493,3.156c-1.108-1.8-1.338-2.176-2.065-3.515.883-.344.883-.344,1.667-.592,1.16,1.687,1.229,1.788,2.15,3.006a20.21,20.21,0,0,0-1.752,1.1Zm4.609,1.971c-1.244-1.482-1.466-1.749-2.338-2.85,1.111-.632,1.2-.687,2.123-1.169,1.284,1.3,1.363,1.375,2.375,2.365-1.123.836-1.391,1.042-2.16,1.654Zm5.1.638c-.791-.735-1.576-1.478-2.364-2.221.781-.593,1.569-1.189,2.358-1.771.789.575,1.577,1.153,2.365,1.745q-1.182,1.128-2.359,2.247Zm5.1-.7c-1.121-.863-1.213-.931-2.167-1.622,1.293-1.3,1.492-1.5,2.365-2.4,1.176.609,1.359.7,2.135,1.147-1.294,1.638-1.346,1.7-2.333,2.879Zm4.61-2.049c-.9-.576-.978-.632-1.756-1.068,1.169-1.607,1.347-1.85,2.137-3.04a11.506,11.506,0,0,1,1.658.57c-1.105,2.027-1.128,2.066-2.039,3.538Zm3.431-3.195a3.167,3.167,0,0,0-1.005-.7,35.892,35.892,0,0,0,1.521-3.532c.558.136.591.143.814.32a40.976,40.976,0,0,1-1.33,3.915Zm2.228-7.131c-.13.847-.291,1.98-.442,2.824l-.107.57c0-.394,0-.418-.157-.609a30.248,30.248,0,0,0,.743-3.782c.021.016.044.043.061.056v.026l-.1.915Zm-31.029-1.2c-.044-.7-.111-1.645-.119-2.359.011-.521.021-1.225.054-1.745l.028-.137a27.945,27.945,0,0,0,.094,4.195.5.5,0,0,1-.057.029v.017Zm.954,4.124a28.919,28.919,0,0,1-.795-3.727,1.813,1.813,0,0,1,.687-.635,26.846,26.846,0,0,0,.922,4.1c-.557.1-.592.111-.814.26Zm2.707,3.607a36.406,36.406,0,0,1-1.594-3.473,14.456,14.456,0,0,1,1.5-.863,29.637,29.637,0,0,0,1.743,3.8,12.385,12.385,0,0,0-1.652.532Zm4.284,2.706c-1.179-1.56-1.363-1.8-2.155-2.945,1.552-1,1.552-1,2.092-1.374,1.063,1.676,1.063,1.676,2.183,3.211-1.2.6-1.356.681-2.12,1.108Zm5.058,1.346c-1.185-1.133-1.505-1.44-2.378-2.3,1.47-1.218,1.708-1.433,2.348-2.009,1.1,1.266,1.1,1.266,2.386,2.6-.785.57-1.573,1.138-2.356,1.717Zm5.311-.033q-1.182-.855-2.369-1.684c.978-1.029,1.426-1.5,2.375-2.628.883.768.883.768,2.361,1.979-1.351,1.343-1.351,1.343-2.367,2.333Zm5.059-1.417c-1.119-.583-1.213-.632-2.128-1.075.967-1.352,1.3-1.812,2.167-3.245.7.46,1.4.9,2.1,1.346-1.159,1.671-1.231,1.766-2.142,2.974Zm4.257-2.776a11.152,11.152,0,0,0-1.636-.514,28.287,28.287,0,0,0,1.705-3.821,9.188,9.188,0,0,1,1.481.862,37.58,37.58,0,0,1-1.55,3.473Zm2.631-3.615a1.549,1.549,0,0,0-.795-.262,26.911,26.911,0,0,0,.889-4.1c.477.332.513.361.674.622a29.7,29.7,0,0,1-.768,3.737Zm1.014-6.418c-.022.688-.05,1.6-.1,2.287-.013-.016-.035-.049-.056-.049A25.245,25.245,0,0,0,209.706,95l.03.121c.019.554.072,1.286.064,1.834Zm-31.175,2.436a25.779,25.779,0,0,1-.1-4.312,2.182,2.182,0,0,1,.7-.86,28.04,28.04,0,0,0,.081,4.43c-.475.394-.5.42-.684.742Zm1.808,3.887a26.922,26.922,0,0,1-.931-4.209,15.469,15.469,0,0,1,1.469-1.124,25.916,25.916,0,0,0,.957,4.349,15.922,15.922,0,0,0-1.495.984Zm3.639,3.29a31.016,31.016,0,0,1-1.749-3.908c1.3-.926,1.3-.926,2.137-1.559a30.83,30.83,0,0,0,1.7,3.978c-.85.626-.85.626-2.091,1.489Zm4.8,2.059a37.626,37.626,0,0,1-2.182-3.327c.983-.869,1.312-1.176,2.375-2.221a35.8,35.8,0,0,0,2.153,3.434c-1.151,1.074-1.151,1.074-2.346,2.114Zm5.31.664c-1.016-1.094-1.358-1.456-2.388-2.707.962-1.09,1.287-1.463,2.372-2.863,1.023,1.29,1.205,1.524,2.384,2.831-1.127,1.377-1.2,1.455-2.368,2.739Zm5.307-.735c-1-.848-1.394-1.189-2.356-2.082a34.713,34.713,0,0,0,2.131-3.459c1.072,1.028,1.234,1.179,2.394,2.192a36.493,36.493,0,0,1-2.169,3.349Zm4.8-2.138c-1.265-.846-1.428-.958-2.106-1.439a32.705,32.705,0,0,0,1.692-4.014c.706.508,1.42,1.013,2.126,1.521a27.974,27.974,0,0,1-1.712,3.932Zm3.573-3.322a13.943,13.943,0,0,0-1.47-.974,26.582,26.582,0,0,0,.909-4.352,15.944,15.944,0,0,1,1.45,1.117,27.407,27.407,0,0,1-.889,4.209Zm1.749-3.893a1.939,1.939,0,0,0-.674-.743,25.028,25.028,0,0,0,.045-4.424,2.214,2.214,0,0,1,.7.863,26.537,26.537,0,0,1-.067,4.3Zm-30.164-.681a25.567,25.567,0,0,1-.079-4.414,14.39,14.39,0,0,1,1.45-.958,26.5,26.5,0,0,0,.088,4.264,14.946,14.946,0,0,0-1.459,1.108Zm2.709,3.6a26.591,26.591,0,0,1-.964-4.334l2.081-1.374a26.033,26.033,0,0,0,1.019,4.185c-.533.387-.533.387-2.136,1.523Zm4.29,2.718a32.148,32.148,0,0,1-1.7-3.958c.957-.76,1.283-1.013,2.414-2.01a29.886,29.886,0,0,0,1.668,3.759c-1.062,1.029-1.225,1.186-2.382,2.209Zm5.069,1.342a36.869,36.869,0,0,1-2.146-3.408c.987-1.052,1.29-1.37,2.381-2.683a35.485,35.485,0,0,0,2.137,3.243c-1.02,1.3-1.2,1.535-2.372,2.848Zm5.32-.028c-1-1.1-1.293-1.435-2.387-2.82a38.316,38.316,0,0,0,2.119-3.273c1.023,1.209,1.213,1.425,2.4,2.658a38.35,38.35,0,0,1-2.129,3.435Zm5.066-1.419c-.99-.854-1.323-1.146-2.4-2.176a29.543,29.543,0,0,0,1.647-3.781c1.068.9,1.263,1.067,2.434,1.97a31.334,31.334,0,0,1-1.684,3.987Zm4.266-2.784c-.706-.5-1.417-1-2.124-1.5a24.769,24.769,0,0,0,.974-4.185c1.457.946,1.5.979,2.065,1.357a26.081,26.081,0,0,1-.915,4.33Zm2.64-3.616a13.692,13.692,0,0,0-1.448-1.1,23.346,23.346,0,0,0,.045-4.255,13.61,13.61,0,0,1,1.443.941,26.071,26.071,0,0,1-.04,4.415Zm-27.68-1.076a23.8,23.8,0,0,1-.095-4.241c.678-.4,1.353-.785,2.029-1.173a23.066,23.066,0,0,0,.137,4.06c-.69.452-1.377.895-2.071,1.354Zm3.45,3.119a26.856,26.856,0,0,1-1.02-4.148c1.28-.869,1.567-1.074,2.437-1.733a25,25,0,0,0,1,3.893c-1.059.918-1.251,1.085-2.417,1.988Zm4.554,1.954a29.954,29.954,0,0,1-1.672-3.744c1-.95,1.3-1.234,2.4-2.436a27.288,27.288,0,0,0,1.652,3.522c-1,1.176-1.206,1.422-2.381,2.658Zm5.036.625a35.386,35.386,0,0,1-2.137-3.222,33.964,33.964,0,0,0,2.11-3.038,35.348,35.348,0,0,0,2.141,3.016,35.437,35.437,0,0,1-2.114,3.244Zm5.036-.69c-1-1.03-1.3-1.335-2.4-2.627a28.613,28.613,0,0,0,1.626-3.537c1.016,1.075,1.225,1.3,2.423,2.4a30.228,30.228,0,0,1-1.648,3.766Zm4.55-2.027c-.989-.75-1.286-.97-2.435-1.944a25.376,25.376,0,0,0,.976-3.916c1.157.837,1.157.837,2.443,1.69a24.665,24.665,0,0,1-.984,4.17Zm3.387-3.155q-1.024-.677-2.054-1.336a21.383,21.383,0,0,0,.088-4.043c.674.377,1.345.758,2.02,1.146a24.248,24.248,0,0,1-.054,4.233Zm-23.654-1.369a19.79,19.79,0,0,1-.147-4.027c1.166-.687,1.472-.88,2.378-1.456a20.879,20.879,0,0,0,.2,3.789c-1.153.846-1.153.846-2.433,1.694Zm3.807,2.407a25.642,25.642,0,0,1-1-3.864c1-.821,1.31-1.075,2.426-2.127a21.112,21.112,0,0,0,.978,3.584c-1.01,1.074-1.219,1.3-2.408,2.407Zm4.5,1.192a27.307,27.307,0,0,1-1.648-3.479,31.939,31.939,0,0,0,2.128-2.762,24.925,24.925,0,0,0,1.638,3.235,33.982,33.982,0,0,1-2.118,3.006Zm4.724-.024a35.65,35.65,0,0,1-2.141-2.982,25.5,25.5,0,0,0,1.619-3.259,30.6,30.6,0,0,0,2.147,2.73,28.024,28.024,0,0,1-1.625,3.511Zm4.5-1.257c-1.01-.924-1.309-1.2-2.427-2.374a22.014,22.014,0,0,0,.955-3.6,31.606,31.606,0,0,0,2.445,2.087,24.869,24.869,0,0,1-.973,3.886Zm3.789-2.469c-1.365-.9-1.591-1.059-2.437-1.66a17.994,17.994,0,0,0,.164-3.79c1.113.694,1.2.75,2.373,1.431a21.2,21.2,0,0,1-.1,4.019ZM186.219,93.8a19.542,19.542,0,0,1-.2-3.759c1.065-.719,1.385-.941,2.446-1.773a17.619,17.619,0,0,0,.186,3.435c-1.02.941-1.235,1.133-2.43,2.1Zm3.759,1.606A22.335,22.335,0,0,1,189,91.851a26.894,26.894,0,0,0,2.14-2.437,18.764,18.764,0,0,0,.958,3.262,29.012,29.012,0,0,1-2.124,2.729Zm4.159.522a25.038,25.038,0,0,1-1.635-3.2,21.778,21.778,0,0,0,1.613-2.929,22.215,22.215,0,0,0,1.638,2.912,24.251,24.251,0,0,1-1.616,3.219Zm4.16-.577a29.628,29.628,0,0,1-2.143-2.7,19.161,19.161,0,0,0,.932-3.268,27.663,27.663,0,0,0,2.163,2.4,20.954,20.954,0,0,1-.952,3.567Zm3.763-1.67c-1.046-.815-1.323-1.037-2.45-2.057a16.61,16.61,0,0,0,.16-3.433c1.089.815,1.2.9,2.449,1.733a17.826,17.826,0,0,1-.159,3.757Zm-13.127-2.255a16.045,16.045,0,0,1-.184-3.4,23.886,23.886,0,0,0,2.167-2.064,14.12,14.12,0,0,0,.156,3.056,26.879,26.879,0,0,1-2.139,2.4Zm3.4.9a18.457,18.457,0,0,1-.954-3.219,19.469,19.469,0,0,0,1.623-2.589,15.245,15.245,0,0,0,.947,2.912,21.6,21.6,0,0,1-1.616,2.9Zm3.581-.017a21.227,21.227,0,0,1-1.642-2.886A15.5,15.5,0,0,0,195.2,86.5a17.823,17.823,0,0,0,1.649,2.561,18.359,18.359,0,0,1-.928,3.244Zm3.4-.956a27.349,27.349,0,0,1-2.165-2.366,12.975,12.975,0,0,0,.132-3.069,22.89,22.89,0,0,0,2.193,2.033,16.076,16.076,0,0,1-.16,3.4Zm-8.007-2.633a12.366,12.366,0,0,1-.153-3.023,15.778,15.778,0,0,0,1.645-2.209,10.6,10.6,0,0,0,.133,2.684,18.354,18.354,0,0,1-1.625,2.548Zm2.8.345a14.9,14.9,0,0,1-.948-2.87,12.284,12.284,0,0,0,.925-2.54,11.933,11.933,0,0,0,.945,2.531,15.185,15.185,0,0,1-.922,2.879Zm2.8-.387a18.145,18.145,0,0,1-1.65-2.522,9.8,9.8,0,0,0,.106-2.675,16.065,16.065,0,0,0,1.675,2.177,12.5,12.5,0,0,1-.131,3.02ZM193.1,85.855a9.354,9.354,0,0,1-.131-2.632,9.261,9.261,0,0,0,.932-2.154,7.657,7.657,0,0,0,.12,2.286,11.71,11.71,0,0,1-.921,2.5Zm2.006-.007a11.618,11.618,0,0,1-.951-2.493,6.982,6.982,0,0,0,.091-2.286,9.422,9.422,0,0,0,.961,2.136,9.5,9.5,0,0,1-.1,2.643Zm-1.019-2.792a6.536,6.536,0,0,1-.117-2.231l.1-.54.1.54a6.462,6.462,0,0,1-.091,2.231Zm15.581,11.392a27.7,27.7,0,0,0-.688-4.02l-.042-.085a27.165,27.165,0,0,1,.694,4,2.4,2.4,0,0,0-.7-.846,24.449,24.449,0,0,0-.7-3.837l-.132-.089a25.321,25.321,0,0,1,.7,3.822,15.54,15.54,0,0,0-1.436-.919,22.328,22.328,0,0,0-.7-3.639l-.215-.1a22.506,22.506,0,0,1,.693,3.616c-.671-.37-1.339-.742-2.014-1.113a18.4,18.4,0,0,0-.676-3.4l-.272-.127a18.247,18.247,0,0,1,.675,3.369c-1.163-.665-1.463-.845-2.365-1.407a14.705,14.705,0,0,0-.648-3.109l-.3-.166a14.651,14.651,0,0,1,.64,3.09c-1.106-.725-1.439-.956-2.447-1.7a11.77,11.77,0,0,0-.624-2.808l-.286-.192a11.7,11.7,0,0,1,.615,2.772,24.089,24.089,0,0,1-2.2-1.988,9.082,9.082,0,0,0-.642-2.436l-.244-.221a8.9,8.9,0,0,1,.644,2.4,17.676,17.676,0,0,1-1.677-2.137,6.41,6.41,0,0,0-.678-2.057l-.169-.221a6.083,6.083,0,0,1,.681,2.017,10.1,10.1,0,0,1-.964-2.1l-.131-.529.063.285-.063-.285-.064.285.064-.285-.131.529A9.908,9.908,0,0,1,193,82.92a6.308,6.308,0,0,1,.655-2.018l-.166.222a6.542,6.542,0,0,0-.652,2.066,17.667,17.667,0,0,1-1.649,2.16,8.855,8.855,0,0,1,.62-2.4l-.244.222a8.909,8.909,0,0,0-.614,2.436,23.257,23.257,0,0,1-2.172,2.026,12.067,12.067,0,0,1,.587-2.779l-.29.192a12.024,12.024,0,0,0-.587,2.816c-1.075.824-1.19.911-2.44,1.742a14.437,14.437,0,0,1,.6-3.111l-.3.166a14.694,14.694,0,0,0-.613,3.134c-1.071.663-1.2.743-2.371,1.423a18.642,18.642,0,0,1,.635-3.384l-.266.123a18.347,18.347,0,0,0-.641,3.421q-1.017.569-2.028,1.137a21.494,21.494,0,0,1,.665-3.622l-.214.1a22.17,22.17,0,0,0-.668,3.645,16.8,16.8,0,0,0-1.447.935,24.712,24.712,0,0,1,.672-3.83l-.137.081a25.386,25.386,0,0,0-.669,3.859,2.472,2.472,0,0,0-.71.848,26.687,26.687,0,0,1,.665-4.013l-.039.088a26.851,26.851,0,0,0-.661,4.025l-.029.16c-.037.682-.089,1.6-.093,2.277.04,1.007.122,2.337.222,3.332.388,2.692.411,2.857.818,4.8.73,3.163.74,3.228,1.258,5.118.974,3.388.993,3.449,1.6,5.326,1.159,3.427,1.183,3.488,1.856,5.283,1.282,3.293,1.308,3.349,2.024,5,.416.912.967,2.12,1.4,3.022.886,1.727.886,1.727,1.349,2.526.1.181.221.436.326.615l.225.382c-.111-.2-.257-.467-.362-.681.841,1.352.9,1.456,1.492,2.27.123.232.3.521.439.736l.164.2a7.57,7.57,0,0,1-.426-.7,14.746,14.746,0,0,0,1.3,1.543,2.706,2.706,0,0,0,.331.411l.135.111a2.59,2.59,0,0,1-.323-.382,4.511,4.511,0,0,0,.984.8l.056.04.071.032-.03-.016.112.056.015.005c.085.024.195.066.277.088s.163.023.235.046l.215.017c.129-.017.305-.025.433-.046.078-.027.185-.049.264-.081l.124-.047.1-.049-.033.011.072-.033.058-.032a5.181,5.181,0,0,0,.989-.816,2.853,2.853,0,0,1-.281.344l.132-.11a4.1,4.1,0,0,0,.291-.383,15.871,15.871,0,0,0,1.293-1.56,7.49,7.49,0,0,1-.418.681l.155-.195c.139-.21.322-.493.439-.721.762-1.118.883-1.289,1.476-2.287-.1.189-.224.45-.336.632l.222-.381.3-.575c.385-.7.88-1.63,1.239-2.344.4-.847.928-1.976,1.309-2.84,1.3-3.086,1.321-3.14,2.013-4.978,1.222-3.378,1.248-3.44,1.846-5.29,1.081-3.46,1.1-3.521,1.6-5.342.865-3.307.9-3.44,1.269-5.151.575-2.95.62-3.188.835-4.827a27.518,27.518,0,0,0,.246-3.678c-.022-.714-.054-1.662-.112-2.365l-.024-.143Z" fill="#fca306"/>
        </g>
        <path id="Trazado_25530" data-name="Trazado 25530" d="M212.588,86.49c-.048,6.153-8.277,10.639-18.493,10.639S175.654,91.861,175.6,86.49a18.493,18.493,0,0,1,36.985,0Z" fill="#fe6867"/>
        <g id="Grupo_30301" data-name="Grupo 30301">
          <path id="Trazado_25531" data-name="Trazado 25531" d="M183.811,90.151c1.173.514,2.153-.293,2.262-1.795.472-6.638,2-14.021,4.159-18.1a12.111,12.111,0,0,0-1.952,1.606c-3.276,3.293-5.7,8.988-6.4,14.646A3.7,3.7,0,0,0,183.811,90.151Z" fill="#fbb"/>
        </g>
        <g id="Grupo_30303" data-name="Grupo 30303">
          <path id="Trazado_25532" data-name="Trazado 25532" d="M175.622,85.46a11.768,11.768,0,0,0,5,5.007c7.521,4.345,19.666,4.345,27.135,0a11.711,11.711,0,0,0,4.852-4.8l-.044,15.855c-.2,5.824-2.492,6.877-3.452,5.785a4.8,4.8,0,0,1-.451-2.225c-.166-1.928-1.048-1.723-3.14-1-3.606,1.244-3.592-2.105-3.589-3.711-.457-4.01-5.743-2.807-7.22-.958-.693.873-.693,4.281-.715,12.392-.473,3.789-4.783,3.871-6.8,1.629-1.107-1.225-1.107-7.365-1.094-12.177-.414-3.948-5.013-5.837-6.213-4.547-.485.515-.485-1.528-.508,7.5-.248,2.731-1.8,1.939-2.341,1.346-1.48-1.638-1.48.412-1.421-20.1Z" fill="#fe6867"/>
          <g id="Grupo_30302" data-name="Grupo 30302">
            <path id="Trazado_25533" data-name="Trazado 25533" d="M179.384,103.85c-.248,2.005-1.8,1.422-2.341.986-.871-.711-1.229-.719-1.366-3.671.137,3.737.495,3.427,1.366,4.391.54.593,2.093,1.385,2.341-1.346,0-.514,0-.987,0-1.43C179.388,103.112,179.384,103.458,179.384,103.85Z" fill="#fbb"/>
            <path id="Trazado_25534" data-name="Trazado 25534" d="M209.117,106.125c-.463-.392-.451-1.638-.451-1.638-.166-1.429-1.048-1.273-3.14-.742-2.117.547-2.984-.089-3.34-.942.356,1.157,1.223,2.01,3.34,1.281,2.092-.727,2.974-.932,3.14,1a4.8,4.8,0,0,0,.451,2.225c.881,1,2.9.183,3.36-4.5C212.016,106.26,210,106.87,209.117,106.125Z" fill="#fbb"/>
            <path id="Trazado_25535" data-name="Trazado 25535" d="M186.518,111.342c-.009-.017-.012-.043-.022-.049a4.666,4.666,0,0,0,.7,2.143c2.02,2.242,6.33,2.16,6.8-1.629v-1C193.529,113.612,188.821,114.57,186.518,111.342Z" fill="#fbb"/>
          </g>
        </g>
        <g id="Grupo_30304" data-name="Grupo 30304">
          <path id="Trazado_25536" data-name="Trazado 25536" d="M209.947,93.318c-.873-7.131-3.939-14.314-8.066-18.478a15.113,15.113,0,0,0-2.455-2.006c2.713,5.134,4.644,14.437,5.24,22.8.134,1.9,1.368,2.912,2.847,2.27A4.672,4.672,0,0,0,209.947,93.318Z" fill="#fbb"/>
        </g>
        <path id="Trazado_25537" data-name="Trazado 25537" d="M209.263,94.109c.139,1.273-.415,2.372-1.234,2.46s-1.594-.871-1.734-2.138.414-2.371,1.232-2.459S209.121,92.835,209.263,94.109Z" fill="#ffe3e3"/>
        <path id="Trazado_25538" data-name="Trazado 25538" d="M185.535,87.193c-.094,1.273-.834,2.254-1.658,2.2s-1.411-1.147-1.317-2.421.834-2.254,1.652-2.2S185.626,85.919,185.535,87.193Z" fill="#ffe3e3"/>
      </g>
    </g>
    <g id="Grupo_30308" data-name="Grupo 30308">
      <path id="Trazado_25539" data-name="Trazado 25539" d="M661.044,344.835V386.8a4.752,4.752,0,1,0,9.5,0V344.835c15.9-1.882,27.29-12.992,26.16-25.106q-2.379-30.429-4.784-60.85c-1.251-13.308-12.941-23.138-26.128-23.174-13.186.036-24.876,9.866-26.125,23.174q-2.38,30.432-4.777,60.85C633.756,331.842,645.15,342.951,661.044,344.835Z" fill="#8fbcc8"/>
      <path id="Trazado_25540" data-name="Trazado 25540" d="M658.077,376.406a4.765,4.765,0,0,1-4.751,4.759h0a4.766,4.766,0,0,1-4.752-4.759V316.94a4.762,4.762,0,0,1,4.752-4.749h0a4.762,4.762,0,0,1,4.751,4.749Z" fill="#c4b0ad"/>
      <path id="Trazado_25541" data-name="Trazado 25541" d="M684.237,309.337c1.24,13.294-12.574,25.417-30.911,25.417h0c-18.326,0-32.151-12.123-30.9-25.417q2.381-30.429,4.777-60.85c1.249-13.308,12.939-23.137,26.126-23.174h0c13.186.037,24.876,9.866,26.127,23.174Q681.831,278.919,684.237,309.337Z" fill="#b8e0a4"/>
      <path id="Trazado_25542" data-name="Trazado 25542" d="M682.651,289.264H624.01q-.783,10.05-1.587,20.073c-1.248,13.294,12.577,25.417,30.9,25.417s32.151-12.123,30.911-25.417Q683.41,299.327,682.651,289.264Z" fill="#f7e854"/>
      <g id="Grupo_30307" data-name="Grupo 30307">
        <path id="Trazado_25543" data-name="Trazado 25543" d="M672.211,254.665a19.033,19.033,0,0,0-9.048-14.312,22.573,22.573,0,0,1,5.273,13.312c.913,15.987,1.815,38.124,2.764,54.111a18.833,18.833,0,0,1-7.737,16.253c7.8-3.216,12.824-9.953,12.213-17.192C674.525,291.515,673.335,270.024,672.211,254.665Z" fill="#fff"/>
        <path id="Trazado_25544" data-name="Trazado 25544" d="M635.451,307.776c.913-15.95,1.851-38.124,2.774-54.111a22.471,22.471,0,0,1,5.271-13.312,18.993,18.993,0,0,0-9.048,14.312c-1.132,15.359-2.322,36.874-3.473,52.172-.639,7.239,4.415,13.976,12.213,17.192A18.752,18.752,0,0,1,635.451,307.776Z" fill="#fff"/>
      </g>
    </g>
    <g id="Grupo_30309" data-name="Grupo 30309">
      <path id="Trazado_25545" data-name="Trazado 25545" d="M580.91,275.929a42.207,42.207,0,0,0-84.362,0h-.08l.067.2c-.012.453-.067.893-.067,1.348v50.257a7.043,7.043,0,1,0,14.086,0V317.713l.3.9,6.68,19.819.2.583h0l4.724,14.014.961,2.85h0l.515,1.528h0l.5,1.488h0l6.2,18.394h0l.339,1c.059.16.122.31.185.464l.01-.01c3.231,8.064,11.43,7.926,14.467-.454l.351-1.015.211-.611h0l6.312-18.279h0l.144-.418.373-1.082,0,0,1.051-3.042,0,0,5.257-15.218h0l.511-1.48,0,0,6.314-18.278h0l.514-1.48,0,0,.231-.67v11.021a7.043,7.043,0,1,0,14.086,0V277.478c0-.457-.055-.9-.07-1.352l.07-.2Z" fill="#8fbcc8"/>
      <path id="Trazado_25546" data-name="Trazado 25546" d="M518.506,367.9c3.1,8.543,11.567,8.543,14.662,0L568.52,265.538H484Z" fill="#edc2b7"/>
      <path id="Trazado_25547" data-name="Trazado 25547" d="M485.155,268.978l1.228-1.226,12.3,12.295-7.323,7.321.5,1.49,7.814-7.816,12.3,12.3-12.3,12.3-3.259-3.26,1.012,3.006,1.253,1.248-.621.621.5,1.49,1.112-1.112,12.3,12.3-7.208,7.207.5,1.49,7.7-7.7,12.3,12.3-12.3,12.3-3.032-3.03,1.013,3.006,1.021,1.021-.506.507.5,1.488,1-1,12.3,12.3-7.1,7.1.339,1c.059.16.122.311.185.465l7.568-7.569,6.957,6.96.514-1.482-6.474-6.474,12.3-12.3.491.492.512-1.482-.005-.006.013-.014,1.051-3.043-2.062,2.06-12.3-12.3,12.3-12.3,7.317,7.316.511-1.479-6.832-6.83,12.3-12.3.846.846.514-1.479-.366-.366.747-.745,1.052-3.042-2.793,2.793-12.3-12.3,12.3-12.3,7.672,7.674.511-1.484-7.189-7.185,12.3-12.295,1.2,1.2.51-1.481-.721-.719,1.212-1.217h-1.989l-.217.221-.222-.221h-1.991l1.216,1.217-12.3,12.294-12.3-12.294,1.212-1.217H539.77l-.219.221-.219-.221h-1.991l1.215,1.217-12.3,12.294-12.295-12.294,1.213-1.217h-1.991l-.217.221-.219-.221h-1.993l1.214,1.217-12.3,12.294-12.3-12.294,1.215-1.217H486.6l-.219.221-.217-.221h-1.993l1.214,1.217-.731.733Zm15.517,37.651,12.3-12.293,12.3,12.3-12.3,12.293Zm37.884,39.878-12.3,12.3-12.295-12.3,12.295-12.3Zm-12.3-14.289-12.295-12.293,12.295-12.3,12.3,12.3Zm25.589-25.589-12.3,12.3-12.3-12.293,12.3-12.3Zm-12.3-38.877,12.3,12.295-12.3,12.3-12.3-12.3Zm-.995,25.587-12.3,12.3-12.295-12.3,12.295-12.3Zm-25.587-25.587,12.3,12.295-12.3,12.3-12.3-12.3Z" fill="#c38370"/>
      <path id="Trazado_25548" data-name="Trazado 25548" d="M526.259,227.862A42.261,42.261,0,0,0,484,270.123v47.221a7.043,7.043,0,0,0,14.086,0V296.453a7.044,7.044,0,1,1,14.087,0v9.395a7.044,7.044,0,0,0,14.088,0V281.294a7.044,7.044,0,1,1,14.088,0V291.48a7.042,7.042,0,0,0,7.042,7.043,7.046,7.046,0,0,1,7.045,7.043v11.778a7.043,7.043,0,0,0,14.086,0V270.123A42.262,42.262,0,0,0,526.259,227.862Z" fill="#dd4a4a"/>
      <path id="Trazado_25549" data-name="Trazado 25549" d="M526.259,224.826A42.261,42.261,0,0,0,484,267.086v47.223a7.043,7.043,0,1,0,14.086,0V293.418a7.044,7.044,0,0,1,14.087,0v9.393a7.044,7.044,0,1,0,14.088,0V278.257a7.044,7.044,0,1,1,14.088,0v10.187a7.043,7.043,0,0,0,7.042,7.044,7.044,7.044,0,0,1,7.045,7.043v11.778a7.043,7.043,0,1,0,14.086,0V267.086A42.262,42.262,0,0,0,526.259,224.826Z" fill="#f26b68"/>
      <path id="Trazado_25550" data-name="Trazado 25550" d="M514.629,245.089a4.659,4.659,0,1,1-4.658-4.658A4.658,4.658,0,0,1,514.629,245.089Z" fill="#fff"/>
      <path id="Trazado_25551" data-name="Trazado 25551" d="M501.554,257.707a.973.973,0,0,1-.267,1.35l-3.818,2.545a.975.975,0,0,1-1.35-.268h0a.976.976,0,0,1,.27-1.351l3.818-2.546a.968.968,0,0,1,1.347.27Z" fill="#ffe885"/>
      <path id="Trazado_25552" data-name="Trazado 25552" d="M507.032,276.154a.973.973,0,0,1-1.25-.574l-1.589-4.3a.976.976,0,0,1,.574-1.252h0a.976.976,0,0,1,1.253.576l1.587,4.3a.968.968,0,0,1-.575,1.25Z" fill="#66ff71"/>
      <path id="Trazado_25553" data-name="Trazado 25553" d="M515.646,272.17a.972.972,0,0,1,.29-1.345l3.855-2.491a.969.969,0,0,1,1.343.291h0a.969.969,0,0,1-.288,1.343l-3.854,2.491a.973.973,0,0,1-1.346-.289Z" fill="#579cff"/>
      <path id="Trazado_25554" data-name="Trazado 25554" d="M526.817,260.037a.969.969,0,0,1-1.114.808l-4.53-.728a.972.972,0,0,1-.806-1.117h0a.972.972,0,0,1,1.116-.806l4.528.729a.973.973,0,0,1,.806,1.114Z" fill="#ffc0c0"/>
      <path id="Trazado_25555" data-name="Trazado 25555" d="M508.9,263.167a.974.974,0,0,1,.034,1.374l-3.152,3.333a.974.974,0,0,1-1.376.038h0a.974.974,0,0,1-.038-1.378l3.154-3.33a.977.977,0,0,1,1.378-.037Z" fill="#a6dae8"/>
      <path id="Trazado_25556" data-name="Trazado 25556" d="M563.22,280.234a.969.969,0,0,1-.473,1.291l-4.162,1.93a.973.973,0,0,1-1.291-.475h0a.972.972,0,0,1,.473-1.293l4.162-1.928a.97.97,0,0,1,1.291.475Z" fill="#ffe885"/>
      <path id="Trazado_25557" data-name="Trazado 25557" d="M518.847,239.747a.973.973,0,0,1-1.279.516l-4.221-1.794a.974.974,0,0,1-.514-1.277h0a.977.977,0,0,1,1.277-.518l4.221,1.8a.969.969,0,0,1,.516,1.274Z" fill="#66ff71"/>
      <path id="Trazado_25558" data-name="Trazado 25558" d="M529.46,238.459a.971.971,0,0,1-1.109-.814l-.7-4.534a.972.972,0,0,1,.814-1.111h0a.972.972,0,0,1,1.108.814l.705,4.534a.979.979,0,0,1-.816,1.111Z" fill="#579cff"/>
      <path id="Trazado_25559" data-name="Trazado 25559" d="M554.672,254.137a.972.972,0,0,1-.62-1.23l1.427-4.357a.975.975,0,0,1,1.23-.623h0a.971.971,0,0,1,.619,1.23l-1.429,4.357a.972.972,0,0,1-1.227.623Z" fill="#ffc0c0"/>
      <path id="Trazado_25560" data-name="Trazado 25560" d="M522.19,240.73a.969.969,0,0,1,1.043.9l.357,4.572a.978.978,0,0,1-.9,1.048h0a.977.977,0,0,1-1.045-.9l-.351-4.575a.965.965,0,0,1,.893-1.043Z" fill="#a6dae8"/>
      <path id="Trazado_25561" data-name="Trazado 25561" d="M539.912,244.111a.976.976,0,0,1-1.163.737l-4.479-1a.975.975,0,0,1-.739-1.163h0a.976.976,0,0,1,1.163-.737l4.479,1a.975.975,0,0,1,.739,1.163Z" fill="#ffe885"/>
      <path id="Trazado_25562" data-name="Trazado 25562" d="M538.355,260.182a.979.979,0,0,1-.381-1.324l2.214-4.019a.974.974,0,0,1,1.322-.383h0a.974.974,0,0,1,.385,1.323l-2.214,4.019a.978.978,0,0,1-1.326.384Z" fill="#66ff71"/>
      <path id="Trazado_25563" data-name="Trazado 25563" d="M488.947,284.387a.974.974,0,0,1-.317-1.342l2.411-3.9a.973.973,0,0,1,1.34-.315h0a.973.973,0,0,1,.316,1.338l-2.413,3.9a.971.971,0,0,1-1.337.317Z" fill="#579cff"/>
      <path id="Trazado_25564" data-name="Trazado 25564" d="M502.064,247.634a.974.974,0,0,1-1.116.806l-4.53-.728a.976.976,0,0,1-.806-1.117h0a.972.972,0,0,1,1.116-.805l4.528.728a.975.975,0,0,1,.808,1.116Z" fill="#ffc0c0"/>
      <path id="Trazado_25565" data-name="Trazado 25565" d="M551.552,268.592a.977.977,0,0,1-1.261-.562l-1.629-4.289a.975.975,0,0,1,.562-1.256h0a.975.975,0,0,1,1.258.564l1.632,4.289a.972.972,0,0,1-.562,1.254Z" fill="#a6dae8"/>
    </g>
    <g id="Grupo_30310" data-name="Grupo 30310">
      <path id="Trazado_25566" data-name="Trazado 25566" d="M351.4,296.263a3.845,3.845,0,0,1,2.258.755l.053.158h0l1.949,5.778V314.4c0,2.689,1.915,4.871,4.282,4.871a3.768,3.768,0,0,0,1.153-.2l2.32,6.882,0,0,.873,2.59v0l.542,1.609h0l.171.5,5.622,16.679.416,1.236h0l5.38,15.959.394,1.172h0l5.342,15.85h0l.292.865c.051.138.106.268.161.4l.008-.008c2.787,6.947,9.85,6.827,12.466-.394l5.924-17.153h0l.053-.153.394-1.138,0,0,.9-2.622,0,0,4.735-13.713.235-.677h0l5.44-15.749h0l.442-1.277h0l.329-.954h0l.9-2.622h0l1.153-3.341a3.791,3.791,0,0,0,1.429.3,4.606,4.606,0,0,0,4.284-4.871V306.475l3.219-9.321,0,0,.3-.868a9.121,9.121,0,0,0-.837-17.912,36.019,36.019,0,1,0-68.986,0,9.177,9.177,0,0,0-7.869,9.024C347.1,291.985,349.047,296.263,351.4,296.263Z" fill="#8fbcc8"/>
      <path id="Trazado_25567" data-name="Trazado 25567" d="M369.979,372.025c2.668,7.362,9.967,7.362,12.634,0l30.464-88.206H340.243Z" fill="#ffbf37"/>
      <path id="Trazado_25568" data-name="Trazado 25568" d="M341.241,286.785l1.058-1.058,10.6,10.6-6.312,6.306.435,1.285,6.734-6.736,10.594,10.6-10.594,10.6-2.809-2.809.873,2.59,1.079,1.077-.535.534.434,1.283.958-.96,10.594,10.6-6.21,6.213.432,1.285,6.639-6.639,10.6,10.594-10.6,10.6-2.612-2.612.873,2.59.878.878-.434.441.43,1.281.865-.863,10.6,10.6-6.116,6.116.293.864c.05.138.105.268.16.4l6.519-6.523,6,6,.441-1.275-5.578-5.58,10.6-10.6.424.424.441-1.276,0-.007.012-.01.9-2.622-1.778,1.776-10.6-10.6,10.6-10.594,6.3,6.3.443-1.277-5.888-5.886,10.6-10.6.731.732.442-1.276-.316-.313.645-.643.9-2.623-2.407,2.408-10.594-10.6,10.594-10.6,6.613,6.612.438-1.277-6.194-6.19,10.6-10.6,1.039,1.037.439-1.276-.621-.619,1.045-1.05H411.21l-.187.191-.191-.191h-1.716l1.047,1.05-10.6,10.592-10.594-10.592,1.043-1.05H388.3l-.191.191-.189-.191h-1.715l1.048,1.05-10.6,10.592-10.6-10.592,1.048-1.05h-1.717l-.187.191-.189-.191H363.3l1.045,1.05-10.594,10.592-10.6-10.592,1.048-1.05h-1.715l-.189.191-.189-.191h-1.717l1.045,1.05-.629.629ZM354.61,319.23l10.6-10.594,10.6,10.594-10.6,10.6Zm32.647,34.359-10.6,10.6-10.6-10.6,10.6-10.594Zm-10.6-12.311-10.6-10.6,10.6-10.6,10.6,10.6ZM398.71,319.23l-10.6,10.6-10.6-10.6,10.6-10.594Zm-10.6-33.5,10.6,10.6-10.6,10.593-10.6-10.593Zm-.856,22.048-10.6,10.6-10.6-10.6,10.6-10.6Zm-22.05-22.048,10.6,10.6-10.6,10.593-10.6-10.593Z" fill="#fca306"/>
      <path id="Trazado_25569" data-name="Trazado 25569" d="M410,272.235a36.019,36.019,0,1,0-65.93,0Z" fill="#e2a3d6"/>
      <path id="Trazado_25570" data-name="Trazado 25570" d="M363.632,261.191q-.1-1.707-.106-3.466c0-11.4,3.177-24.347,8.131-33.339-9.267,5.379-15.8,18.275-15.8,33.339,0,1.171.043,2.328.12,3.471a3.989,3.989,0,0,0,4.013,3.452h.3A3.225,3.225,0,0,0,363.632,261.191Z" fill="#ffe1fb"/>
      <path id="Trazado_25571" data-name="Trazado 25571" d="M419.391,277.008a9.153,9.153,0,0,0-9.151-9.153H343.823a9.187,9.187,0,0,0-9.154,9.153c-.04,4.585,1.908,8.863,4.261,8.863s4.26,2.18,4.26,4.872v13.269c0,2.689,1.916,4.871,4.282,4.871s4.283-2.182,4.283-4.871v-7.647c0-2.69,1.895-4.872,4.233-4.872s4.234,1.435,4.234,3.2,1.92,3.2,4.285,3.2,4.282-2.182,4.282-4.871v-6.87H398.6a5.581,5.581,0,0,1,1.673,4v17.891c0,2.689,1.917,4.871,4.282,4.871a4.606,4.606,0,0,0,4.284-4.871V290.16a5.6,5.6,0,0,1,1.675-4.014A9.149,9.149,0,0,0,419.391,277.008Z" fill="#e2a3d6"/>
    </g>
  </g>
</svg>
