<svg xmlns="http://www.w3.org/2000/svg" xmlns:xlink="http://www.w3.org/1999/xlink" width="757.562" height="472.973" viewBox="0 0 757.562 472.973">
  <defs>
    <clipPath id="clip-path">
      <path id="Trazado_25268" data-name="Trazado 25268" d="M351.8,363.188a31.474,31.474,0,1,0,31.474,31.474A31.474,31.474,0,0,0,351.8,363.188Zm0,48.147a16.673,16.673,0,1,1,16.673-16.673A16.673,16.673,0,0,1,351.8,411.335Z" transform="translate(-320.327 -363.188)" fill="none"/>
    </clipPath>
  </defs>
  <g id="Grupo_30128" data-name="Grupo 30128" transform="translate(-288.219 -181.274)">
    <path id="Trazado_25137" data-name="Trazado 25137" d="M373.636,284.057c114.1-42.358,230.063-4.91,308.712,76.654s243.708-56.3,331.246,25.134c59.741,55.572,32.377,198.451-49.538,260.335C852.714,730.295,437.919,732.82,369.1,703.956c-117.606-49.324-.751-140.663-55.648-228.22C248.682,372.438,323.214,302.775,373.636,284.057Z" transform="translate(0 -66.337)" fill="#e7f3fe"/>
    <path id="Trazado_25138" data-name="Trazado 25138" d="M1090.917,2108.183c-57.113-2.792-251.4,1.938-310.494,3.782s-127.68-2.433-163.308-8.723-241.576.535-232.23,17.446,91.759,7.565,185.217,14.362,303.647-.85,351.059,0,90.888-1.7,151.988-5.1S1124.022,2109.8,1090.917,2108.183Z" transform="translate(-75.035 -1494.881)" fill="#cce2ff"/>
    <g id="Grupo_30090" data-name="Grupo 30090" transform="translate(782.854 181.274)">
      <path id="Trazado_25139" data-name="Trazado 25139" d="M2632.725,241.074a55.317,55.317,0,0,0,.345-6.147c0-1.1-.036-2.185-.1-3.266l-10.158-3.287a44.645,44.645,0,0,0-3.6-12.171l6.736-8.288a54.9,54.9,0,0,0-5.336-7.756l-10.159,3.315a45.146,45.146,0,0,0-10.057-7.731l.578-10.674a54.322,54.322,0,0,0-8.868-3.143l-6.273,8.657a45.174,45.174,0,0,0-12.682-.332l-5.808-8.977a54.358,54.358,0,0,0-9.023,2.666l.013,10.69a45.063,45.063,0,0,0-10.452,7.19l-9.967-3.846a54.994,54.994,0,0,0-5.74,7.463l6.29,8.635a44.656,44.656,0,0,0-4.24,11.963l-10.316,2.745a55.255,55.255,0,0,0-.346,6.147c0,1.1.036,2.185.1,3.266l10.158,3.287a44.654,44.654,0,0,0,3.6,12.171l-6.736,8.288a54.883,54.883,0,0,0,5.336,7.756l10.159-3.315a45.14,45.14,0,0,0,10.057,7.731l-.578,10.674a54.326,54.326,0,0,0,8.868,3.143l6.273-8.657a45.161,45.161,0,0,0,12.682.332l5.808,8.977a54.339,54.339,0,0,0,9.023-2.667l-.013-10.689a45.052,45.052,0,0,0,10.452-7.19l9.967,3.846a55.017,55.017,0,0,0,5.74-7.463l-6.29-8.634a44.659,44.659,0,0,0,4.24-11.963ZM2578.318,256.4a21.475,21.475,0,1,1,21.475-21.475A21.475,21.475,0,0,1,2578.318,256.4Z" transform="translate(-2523.565 -181.274)" fill="#9ec8ff" opacity="0.5"/>
      <g id="Grupo_30087" data-name="Grupo 30087" transform="translate(82.937 40.467)">
        <path id="Trazado_25140" data-name="Trazado 25140" d="M2899.478,402.134a1.106,1.106,0,0,1-.85-1.814,36.027,36.027,0,0,0,6.348-34.7,1.106,1.106,0,0,1,2.092-.721,38.241,38.241,0,0,1-6.738,36.836A1.1,1.1,0,0,1,2899.478,402.134Z" transform="translate(-2898.372 -364.152)" fill="#fff"/>
      </g>
      <g id="Grupo_30088" data-name="Grupo 30088" transform="translate(67.064 17.685)">
        <path id="Trazado_25141" data-name="Trazado 25141" d="M2840.509,271.274a1.1,1.1,0,0,1-.758-.3,35.763,35.763,0,0,0-12.382-7.629,1.106,1.106,0,1,1,.754-2.08,37.957,37.957,0,0,1,13.144,8.1,1.106,1.106,0,0,1-.759,1.912Z" transform="translate(-2826.64 -261.197)" fill="#fff"/>
      </g>
      <g id="Grupo_30089" data-name="Grupo 30089" transform="translate(45.317 15.473)">
        <path id="Trazado_25142" data-name="Trazado 25142" d="M2729.466,254.538a1.107,1.107,0,0,1-.27-2.179,38.326,38.326,0,0,1,9.372-1.159,1.106,1.106,0,1,1,0,2.213,36.1,36.1,0,0,0-8.831,1.092A1.1,1.1,0,0,1,2729.466,254.538Z" transform="translate(-2728.361 -251.199)" fill="#fff"/>
      </g>
    </g>
    <rect id="Rectángulo_4658" data-name="Rectángulo 4658" width="342.198" height="205.541" transform="translate(462.293 181.43)" fill="#9ec8ff" opacity="0.5"/>
    <rect id="Rectángulo_4659" data-name="Rectángulo 4659" width="321.943" height="188.691" transform="translate(478.964 186.446)" fill="#fff"/>
    <g id="Grupo_30093" data-name="Grupo 30093" transform="translate(671.728 273.954)">
      <path id="Trazado_25143" data-name="Trazado 25143" d="M2339.719,610.12c15.342-14.6,41.564-14.273,41.01,7.966s1.283,24.329,7.6,35.995c21.906,40.479-26.111,38.1-46.137,39.425s-18.366-36.4-14.826-57.311S2335.229,614.393,2339.719,610.12Z" transform="translate(-2257.955 -600.11)" fill="#303c60"/>
      <path id="Trazado_25144" data-name="Trazado 25144" d="M2353.4,1221.577c-4.918,41.307-13.856,71.841-14.852,91.424s-4.979,96.686-4.979,96.686,10.953-.766,11.948-2.426,20.578-45.139,19.582-72.023,19.558-67.761,19.558-67.761l-4.955-40.107Z" transform="translate(-2264.489 -1084.059)" fill="#4476bd"/>
      <path id="Trazado_25145" data-name="Trazado 25145" d="M2394.777,1302.845l-7.692,3.219c-2.091,13.1-4.41,24.875-6.448,35.32,12.241,7.914,18.565,34.281,21.274,50.4,1.38-18.037,9.891-39.833,15.172-51.885Z" transform="translate(-2301.138 -1147.344)" fill="#3e6bab"/>
      <path id="Trazado_25146" data-name="Trazado 25146" d="M2489.542,1202.759s16.578,21.147,16.059,45.139c-.791,36.522-4.774,46.949,2.156,85.244,2.707,14.957-5.974,63.883-5.974,63.883s-7.416.581-11.4-1.4c.332-3.595-4.792-62.073-14.773-88.956-4.833-13.017-11.625-49.475-15.277-70.385s-4.315-25.224-2.987-25.224S2489.542,1202.759,2489.542,1202.759Z" transform="translate(-2360.383 -1069.406)" fill="#4476bd"/>
      <path id="Trazado_25147" data-name="Trazado 25147" d="M2136.341,864.664s.738-10.943-.443-14.323-11.359-6.33-11.359-6.33-.442,15.637.59,17.555,7.081,7.376,7.081,7.376Z" transform="translate(-2101.636 -790.041)" fill="#f09959"/>
      <path id="Trazado_25148" data-name="Trazado 25148" d="M2210.143,901.313c-23.306,25.085-30.913,35.641-32.683,35.641-5.532-9.765-23.907-30.418-23.907-30.418l-7.835,5.037s18.1,47.3,29.611,47.792,34.894-16.313,35.191-18.242S2210.143,901.313,2210.143,901.313Z" transform="translate(-2118.202 -834.663)" fill="#a2dff2"/>
      <path id="Trazado_25149" data-name="Trazado 25149" d="M2327.015,956.912c11.4-4.642,24.464-14.35,24.686-15.789.3-1.93-.378-39.81-.378-39.81-5.081,5.469-9.517,10.319-13.366,14.561C2333.781,931.422,2334.054,948.352,2327.015,956.912Z" transform="translate(-2259.381 -834.663)" fill="#96cfe0"/>
      <path id="Trazado_25150" data-name="Trazado 25150" d="M2416.235,826.678s22.3,11.179,27.17,30.968-9.537,44.236-11.307,57.283-42.483,15.342-42.483,1.376c0-13.388-10.2-41.808-9.625-49.047,1.351-16.985,26.18-37.793,26.18-37.793Z" transform="translate(-2300.615 -776.543)" fill="#a2dff2"/>
      <path id="Trazado_25151" data-name="Trazado 25151" d="M2450.727,710.826l9.575,29.525s-10.223,7.889-27.72,26.868c.679-12.629,11.26-26.4,11.26-26.4l-7.243-27.881Z" transform="translate(-2341.588 -686.327)" fill="#f09959"/>
      <path id="Trazado_25152" data-name="Trazado 25152" d="M2469.33,724.6l-4.466-13.771-14.128,2.116,7.243,27.881s-.707,1.127-1.749,2.9A34.031,34.031,0,0,0,2469.33,724.6Z" transform="translate(-2355.725 -686.327)" fill="#e38540"/>
      <path id="Trazado_25153" data-name="Trazado 25153" d="M2396.043,667.335c-2.582,9.4-12.583,14.568-19.688,12.615s-8.626-10.292-6.044-19.688,10.436-15.429,17.542-13.476S2398.626,657.939,2396.043,667.335Z" transform="translate(-2292.18 -636.172)" fill="#f09959"/>
      <path id="Trazado_25154" data-name="Trazado 25154" d="M2385.925,1101.284c3.1,19.646-8.411,61.679-8.411,61.679s6.865,1.559,27.444-.432,29.651-22.53,32.749-23.1,4.689,19.113,6.217,20.669,1.76-24.861-2.234-35.246c-7.081-18.409-5.695-26.218-3.048-37.372C2443.348,1067.647,2385.925,1101.284,2385.925,1101.284Z" transform="translate(-2298.706 -974.76)" fill="#a2dff2"/>
      <path id="Trazado_25155" data-name="Trazado 25155" d="M2257.139,2027.978c1.853,7.531-1.805,13.5-6.7,17.857-3.983,3.541-16.227,5.045-15.637,6.815s15.047,2.331,19.915,1.594,6.2-3.1,12.255-3.1c3.972,0,4.709-3.229,2.939-7.221s-2.389-6.2-.79-9.78S2257.139,2027.978,2257.139,2027.978Z" transform="translate(-2187.554 -1712.021)" fill="#4476bd"/>
      <path id="Trazado_25156" data-name="Trazado 25156" d="M2615.544,2008.7c-.3,7.818-1.2,13.643.715,17.267,7.407,6.2,13.563,13.233,11.212,13.719-11.212,2.315-15.49-4.4-21.833-6.314-7.785-2.344.738-12.126-2.312-24.672-1.7-6.976,11.754-5.3,11.754-5.3Z" transform="translate(-2473.717 -1692.74)" fill="#4476bd"/>
      <path id="Trazado_25157" data-name="Trazado 25157" d="M2490.619,975.093a36.847,36.847,0,0,0-1.673-6.409c-7.081-18.409-5.694-26.218-3.048-37.372a8.763,8.763,0,0,0,.268-2.328c.6-1.989,1.154-4,1.643-6.033l-2.4-21.695-17.328-20.579c-12.987,19.03-4.222,42.707-6.171,55.762s-23.709,29.7-23.709,29.7l.708,4.632a11.762,11.762,0,0,0,13.229,9.884c8.969-1.244,20.733-3.746,25.969-8.6C2483.169,967.353,2487.655,970.991,2490.619,975.093Z" transform="translate(-2345.961 -818.594)" fill="#96cfe0"/>
      <path id="Trazado_25158" data-name="Trazado 25158" d="M2403.44,1263.53s-9.607,2.688-10.755,3.289-1.783,3.776-1.783,3.776-5.5,4.775-3.392,6.466,5.868,5.971,10.842,3.98c3.053-1.222,5.418-12.439,7.42-12.529S2403.44,1263.53,2403.44,1263.53Z" transform="translate(-2306.115 -1116.729)" fill="#f09959"/>
      <path id="Trazado_25159" data-name="Trazado 25159" d="M2480.255,869.324c10.281.291,19.6,18.808,22.851,34.873s6.667,38.9,6.667,38.9-17.038,13.447-33.874,17.378c-14.686,3.428-22.184,4.769-22.184,4.769l-2.979-8.385,35.139-20.64s-12.921-24.341-14.205-42.707S2472.441,869.1,2480.255,869.324Z" transform="translate(-2355.725 -809.748)" fill="#a2dff2"/>
      <rect id="Rectángulo_4660" data-name="Rectángulo 4660" width="26.139" height="16.601" transform="translate(0 55.429) rotate(-11.346)" fill="#f5dc95"/>
      <path id="Trazado_25160" data-name="Trazado 25160" d="M2130.478,875.388c.354-6.732-2.982-15.913-4.9-15.9s.59,6.017-.443,10C2124.576,871.646,2130.478,875.388,2130.478,875.388Z" transform="translate(-2101.937 -802.093)" fill="#f09959"/>
      <path id="Trazado_25161" data-name="Trazado 25161" d="M2382.965,640.889c.569,18.44,22.107,17.026,28.008,15.889s-7.184,38.9,4.057,41.213c8.254,1.7,6.395-11.215,15.563-10.351,4.057.382,8.134,6.653,8.134,6.653a12.523,12.523,0,0,0-3.708-6.653c-3.1-2.79-11.22-19.9-13.355-32.146s-16.592-20.164-20.87-20.408-14.752,4.623-14.752,4.623Z" transform="translate(-2302.951 -627.339)" fill="#303c60"/>
      <g id="Grupo_30091" data-name="Grupo 30091" transform="translate(105.5 28.9)">
        <path id="Trazado_25162" data-name="Trazado 25162" d="M2504.527,776.64a4.245,4.245,0,0,1-.888-.095c-3.6-.766-5.342-4.547-5.49-11.9-.127-6.3.915-14.389,2.018-22.951.446-3.459.906-7.037,1.286-10.5a.539.539,0,0,1,1.072.117c-.381,3.474-.842,7.056-1.289,10.521-2.134,16.567-4.149,32.214,2.628,33.657a3.015,3.015,0,0,0,.63.067c3.892,0,7.4-7.586,9.441-14.975a.539.539,0,0,1,1.039.287C2513.624,765.746,2510,776.638,2504.527,776.64Z" transform="translate(-2498.138 -730.714)" fill="#303c60"/>
      </g>
      <g id="Grupo_30092" data-name="Grupo 30092" transform="translate(103.99 28.9)">
        <path id="Trazado_25163" data-name="Trazado 25163" d="M2497.772,780.925a4.25,4.25,0,0,1-3.186-1.417c-7.342-7.761-.083-46.7.23-48.356a.539.539,0,1,1,1.059.2c-.075.4-7.473,40.051-.506,47.415a3.216,3.216,0,0,0,2.93,1.044c3.813-.5,6.014-5.676,7.956-10.241,1.884-4.427,3.655-8.609,6.812-8.5a.539.539,0,1,1-.038,1.077h-.078c-2.366,0-3.988,3.812-5.7,7.845-2.055,4.829-4.384,10.3-8.807,10.887A5.106,5.106,0,0,1,2497.772,780.925Z" transform="translate(-2491.313 -730.714)" fill="#303c60"/>
      </g>
      <path id="Trazado_25164" data-name="Trazado 25164" d="M2490.9,727.857c-1.517,1.956-3.9,2.651-5.312,1.552s-1.334-3.575.184-5.531,3.9-2.651,5.312-1.552S2492.418,725.9,2490.9,727.857Z" transform="translate(-2382.078 -694.876)" fill="#f09959"/>
    </g>
    <g id="Grupo_30098" data-name="Grupo 30098" transform="translate(533.647 357.584)">
      <path id="Trazado_25165" data-name="Trazado 25165" d="M1620.243,1015.539c5.258,10.515.906,22.623-9.436,26.9-10.41,4.306-21.792,1.86-27.05-8.654s-1.353-23.123,8.722-28.161S1614.985,1005.024,1620.243,1015.539Z" transform="translate(-1540.688 -997.905)" fill="#303c60"/>
      <g id="Grupo_30094" data-name="Grupo 30094" transform="translate(39.614 17.014)">
        <path id="Trazado_25166" data-name="Trazado 25166" d="M1587.974,1083.725c-1.161,0-3.448-.41-6.356-2.991a16.247,16.247,0,0,1-4.824-9.14c-.915-4.767-.319-10.248,1.771-16.29a.539.539,0,0,1,1.019.352c-2.027,5.861-2.609,11.155-1.731,15.734a15.172,15.172,0,0,0,4.481,8.536c3.688,3.272,6.161,2.677,6.186,2.67a.539.539,0,0,1,.289,1.039A3.273,3.273,0,0,1,1587.974,1083.725Z" transform="translate(-1576.377 -1054.942)" fill="#303c60"/>
      </g>
      <g id="Grupo_30097" data-name="Grupo 30097" transform="translate(0 54.865)">
        <path id="Trazado_25167" data-name="Trazado 25167" d="M1690.569,1242.649c5.984,1.341,13.54,17.971,17.239,28.624,3.732,10.746,10.058,24.076,14.2,28.217s31.357,13.744,31.357,13.744-67.245.13-65.867,0S1690.569,1242.649,1690.569,1242.649Z" transform="translate(-1623.279 -1238.964)" fill="#a8ceff"/>
        <path id="Trazado_25168" data-name="Trazado 25168" d="M1735.74,1307.891c-3.682-.526-16.962,1.183-11.308-1.183s4.865-5.391,4.865-5.391-8.021,6.706-9.467.842c-1.247-5.056-1.724-22.907-6.458-40.8-3.911-8.871-9.028-17.747-13.333-18.711,0,0-.151,6.3-.4,15.132,1.651,19.547,4.454,48.265,5.165,55.5,8.913.014,23.83,0,36.31-.016l8.3-.4S1739.422,1308.417,1735.74,1307.891Z" transform="translate(-1632.75 -1238.964)" fill="#93bbf0"/>
        <path id="Trazado_25169" data-name="Trazado 25169" d="M1516.816,1226s-19.036,10.636-23.473,12.9,12.432,68.657,16.183,71.5,36.781.49,40.542-3.1-2.885-14.587.369-36.616-9.926-41.047-11.619-41-12.744-3.685-12.744-3.685Z" transform="translate(-1471.528 -1225.996)" fill="#a8ceff"/>
        <path id="Trazado_25170" data-name="Trazado 25170" d="M1509.736,1359.2c3.752,2.845,27.387,2.909,37.448-.221,1.136-.353,6.291-2.408,6.412-4.339-1.214-.228-6.035.351-7.992-.1-6.8-1.563-10.552-9.993-10.552-9.993s-3.747-1.348-12.129-4.9-4.931-14.3-5.128-19.032-8.284-20.216-23.47-31.95l-1.393.624C1491.849,1300.084,1506.265,1356.57,1509.736,1359.2Z" transform="translate(-1471.737 -1274.802)" fill="#93bbf0"/>
        <g id="Grupo_30096" data-name="Grupo 30096" transform="translate(74.121 32.118)">
          <path id="Trazado_25171" data-name="Trazado 25171" d="M1925.338,1372.006H1879.5l-20.876,44.425h50.489l18.9-40.214A2.954,2.954,0,0,0,1925.338,1372.006Z" transform="translate(-1830.677 -1371.815)" fill="#75a1de"/>
          <g id="Grupo_30095" data-name="Grupo 30095">
            <path id="Trazado_25172" data-name="Trazado 25172" d="M1763,1416.389h-27.582a3.1,3.1,0,0,1,0-6.2h25.605l17.312-37.258a3.1,3.1,0,1,1,5.619,2.611L1765.81,1414.6A3.1,3.1,0,0,1,1763,1416.389Z" transform="translate(-1732.321 -1371.142)" fill="#3e6bab"/>
          </g>
        </g>
        <path id="Trazado_25173" data-name="Trazado 25173" d="M1643.071,1532.736c11.965,2.235,14.908,4.982,21.43,6.034,7.394,1.192,6.514,2.826,1.023,2.826s-19.291.213-24.028-.839S1643.071,1532.736,1643.071,1532.736Z" transform="translate(-1586.1 -1464.861)" fill="#f09959"/>
        <path id="Trazado_25174" data-name="Trazado 25174" d="M1417.674,1285.858c-9.17,29.32-22.17,62.59-20.1,62.59s54.726,2.129,56.8.356,1.479-8.577,1.184-9.464-29.936-6.148-29.936-6.148,3.9-7.606,5.382-22.472S1419.413,1280.3,1417.674,1285.858Z" transform="translate(-1397.354 -1271.713)" fill="#a8ceff"/>
      </g>
      <path id="Trazado_25175" data-name="Trazado 25175" d="M1607.532,1110.857l-7.387,26.994s12.482,19.483,15.914,17.753-1.918-15.836-1.918-17.753,5.35-21.693,5.35-21.693Z" transform="translate(-1555.272 -1081.47)" fill="#f09959"/>
      <path id="Trazado_25176" data-name="Trazado 25176" d="M1631.791,1139.227a7.21,7.21,0,0,1-.256-1.376c0-1.917,5.35-21.693,5.35-21.693l-11.959-5.3-2.444,8.932A46.566,46.566,0,0,0,1631.791,1139.227Z" transform="translate(-1572.665 -1081.47)" fill="#e38540"/>
      <path id="Trazado_25177" data-name="Trazado 25177" d="M1664.892,1066.484c1.407,7.828.48,18.224-6.471,20.867s-15.324-2.414-18.7-11.295-.48-18.224,6.471-20.867S1663.211,1057.132,1664.892,1066.484Z" transform="translate(-1584.992 -1037.544)" fill="#f09959"/>
      <path id="Trazado_25178" data-name="Trazado 25178" d="M1624.986,1115.292c.974,2.737.128,5.537-1.89,6.256s-4.444-.917-5.418-3.654-.128-5.537,1.89-6.256S1624.012,1112.556,1624.986,1115.292Z" transform="translate(-1568.61 -1081.947)" fill="#f09959"/>
      <path id="Trazado_25179" data-name="Trazado 25179" d="M1646.85,1042.613c-2.367,18.369-24.683,16-24.683,16s-4.6-6.051-6.674-2.877,2.873-18.622,15.679-19.309C1635.379,1036.2,1646.85,1042.613,1646.85,1042.613Z" transform="translate(-1566.869 -1023.507)" fill="#303c60"/>
      <ellipse id="Elipse_1064" data-name="Elipse 1064" cx="12.087" cy="11.34" rx="12.087" ry="11.34" transform="translate(33.125)" fill="#303c60"/>
    </g>
    <g id="Grupo_30101" data-name="Grupo 30101" transform="translate(554.784 484.763)">
      <g id="Grupo_30100" data-name="Grupo 30100" transform="translate(0 5.142)">
        <path id="Trazado_25180" data-name="Trazado 25180" d="M1492.874,1884.926h2.764l17.848-82.693h-6.081Z" transform="translate(-1492.874 -1752.18)" fill="#2e5b9a"/>
        <path id="Trazado_25181" data-name="Trazado 25181" d="M1798.394,1874.639h-2.764l-20.771-85.616h6.081Z" transform="translate(-1712.461 -1741.893)" fill="#2e5b9a"/>
        <g id="Grupo_30099" data-name="Grupo 30099" transform="translate(1.56)">
          <path id="Trazado_25182" data-name="Trazado 25182" d="M1529.9,1629.185c-11.072,0-18.087-1.989-22.563-6.349-5.549-5.406-6.7-13.779-6.714-24.688-.013-8.586-.217-14.178-.683-18.7a3.1,3.1,0,1,1,6.164-.634c.488,4.738.7,10.517.715,19.323.017,11.057,1.419,16.926,4.841,20.26,3.51,3.419,9.858,4.83,20.574,4.562a121.763,121.763,0,0,0,23.2-2.867c7.529-1.53,12.969-2.636,19.419.447a3.1,3.1,0,0,1-2.671,5.59c-4.579-2.188-8.463-1.4-15.514.035a127.152,127.152,0,0,1-24.278,2.989Q1531.11,1629.185,1529.9,1629.185Z" transform="translate(-1499.922 -1576.034)" fill="#2e5b9a"/>
        </g>
      </g>
      <path id="Trazado_25183" data-name="Trazado 25183" d="M1521.706,1574.38l16.948.7-4.512,46.793s-12.633-8.064-12.436-16.742S1521.706,1574.38,1521.706,1574.38Z" transform="translate(-1515.324 -1569.604)" fill="#2e5b9a"/>
      <path id="Trazado_25184" data-name="Trazado 25184" d="M1891.491,1590.929c14.331-2.174,19.2-1.489,27.972,14.834s20.445,45.711,27.159,49.507c10.11,5.716,13.46,19.731,17.611,19.1s6.823,1.2,2.306,4.959-11.812,6.951-14.306,6.284-4.429-11.444-10.944-14.943-4.557-6.374-4.13-9.47-19.018-17.347-33.676-35.071c-8.957-10.83-13.569-17.979-14.253-24.458A17,17,0,0,1,1891.491,1590.929Z" transform="translate(-1801.446 -1581.793)" fill="#f09959"/>
      <path id="Trazado_25185" data-name="Trazado 25185" d="M1927.019,1650.117c-3.328-8.444-6.667-22.38-9.8-35.156-4.463-18.17-9.141-22.484-12.1-24.422-3.583-.9-7.828-.487-13.618.391a17,17,0,0,0-2.26,10.743c.684,6.479,5.3,13.627,14.253,24.458,7.718,9.333,16.762,17.7,23.535,23.987Z" transform="translate(-1801.446 -1581.795)" fill="#e38540"/>
      <path id="Trazado_25186" data-name="Trazado 25186" d="M1870.653,1605.3s-3.814,28.77-7.364,31.694c-2.539,2.092-4.339,2.231-6.114-6.349s2.761-40.606,2.761-40.606Z" transform="translate(-1776.242 -1581.794)" fill="#2e5b9a"/>
      <path id="Trazado_25187" data-name="Trazado 25187" d="M1781.611,1638.827l-35.289,5.93,19.923-28.567,15.163-3.088,9.092,2.091Z" transform="translate(-1690.239 -1599.757)" fill="#f09959"/>
      <path id="Trazado_25188" data-name="Trazado 25188" d="M2103.651,1911.651c-1.144,4.611-1.006,8.019.981,9.726s9.5,14.4,9.5,14.4l2.34-.355-5.417-11.612Z" transform="translate(-1967.937 -1832.244)" fill="#2e5b9a"/>
      <path id="Trazado_25189" data-name="Trazado 25189" d="M2119.122,1935.307c2.495.667,9.789-2.53,14.306-6.284s1.845-5.589-2.306-4.959a1.794,1.794,0,0,1-.7-.034c-2.073,4.631-8.892,8.105-11.093,3.213-2.181-4.848-11.524-14.5-15.288-16.563a.874.874,0,0,1,0,.215c-.428,3.1-2.386,5.97,4.129,9.47S2116.627,1934.641,2119.122,1935.307Z" transform="translate(-1968.335 -1831.487)" fill="#2e5b9a"/>
      <path id="Trazado_25190" data-name="Trazado 25190" d="M1553.08,1594.962c-12.521,22.469-3.968,36.749,11.249,38.2s39.24-1.323,53.243-12.96,25.5-23.94,23.892-25.776S1553.08,1594.962,1553.08,1594.962Z" transform="translate(-1535.062 -1584.675)" fill="#e38540"/>
      <path id="Trazado_25191" data-name="Trazado 25191" d="M1885.382,1626.824c2.564-7.692,5.519-13.593,11.242-13.7,6.016-.113,9.717,3.018,9.974,12.861.306,11.72.719,50.538.178,67.8-.41,13.065,3.4,17.249,3.076,30.869-.242,10.257,10.694,5.076,6.47,10.4-2.905,3.658-11.553,2.462-16.864,1.787-4.733-.6,2.45-14.785-4.1-18.578-5.621-3.254-5.731-8.537-2.181-12.536s.395-15.833-1.972-24.116-6.038-17.245-8.448-36.831C1882.068,1639.188,1883.816,1631.521,1885.382,1626.824Z" transform="translate(-1796.363 -1599.772)" fill="#f09959"/>
      <path id="Trazado_25192" data-name="Trazado 25192" d="M1941.338,2055.772a24.777,24.777,0,0,1-5.992,1.227c-3.945.131-5.128-4.208-5.391-10.1-.229-5.147-3.968-13.251-7.8-16.538-.071.094-.143.185-.22.271-3.55,4-3.44,9.283,2.181,12.536,6.551,3.793-.632,17.976,4.1,18.578,5.312.676,13.959,1.872,16.864-1.787C1947.826,2056.5,1944.418,2056.228,1941.338,2055.772Z" transform="translate(-1825.122 -1924.685)" fill="#2e5b9a"/>
      <path id="Trazado_25193" data-name="Trazado 25193" d="M1915.889,2024.963s-5.752,6.007-5.226,8.506,2.3,8.809,2.6,13.674.559,10.449.559,10.449,2.071,0,2.235-.588,1.315-19.774,1.315-19.774Z" transform="translate(-1818.188 -1920.482)" fill="#2e5b9a"/>
      <path id="Trazado_25194" data-name="Trazado 25194" d="M1537.234,1590.034s-7.427,31.517,1.956,40.252,48.345.878,57.522.354c6.213-.354,12.228,7.228,12.228,7.228s-4.339-17.584-1.381-31.784,7.733-15.155,7.733-15.155l-6.352-.9Z" transform="translate(-1525.246 -1581.794)" fill="#75a1de"/>
      <path id="Trazado_25195" data-name="Trazado 25195" d="M1533.784,1552.8c3.176,6.737-3.418,18.374-1.107,21.727s15.541.469,24.211-6.509,25.079-8.512,25.079-8.512Z" transform="translate(-1523.478 -1552.795)" fill="#a8ceff"/>
      <path id="Trazado_25196" data-name="Trazado 25196" d="M1566.947,1780.872c26.232.986,53.844.52,53.844-3.389s-1.183-6.67-21.5-5.092-34.12,3.748-40.234,2.367S1566.947,1780.872,1566.947,1780.872Z" transform="translate(-1543.21 -1723.447)" fill="#2e5b9a"/>
    </g>
    <rect id="Rectángulo_4661" data-name="Rectángulo 4661" width="375.296" height="7.141" rx="3.571" transform="translate(485.809 489.183)" fill="#2e5b9a"/>
    <g id="Grupo_30106" data-name="Grupo 30106" transform="translate(745.176 367.169)">
      <path id="Trazado_25197" data-name="Trazado 25197" d="M2996.157,1094.208c2.541,8.959-3.665,18.192-10.5,20.131s-11.716-4.148-14.257-13.107.941-17.794,7.778-19.733S2993.616,1085.249,2996.157,1094.208Z" transform="translate(-2833.976 -1067.897)" fill="#f09959"/>
      <path id="Trazado_25198" data-name="Trazado 25198" d="M2885.115,1924.823s17.523,27.216,19.889,28.4,8.283,1.479,6.064,5.916-3.106,21.891-5.177,22.779-19.82,2.958-17.158,0,4.3-1.479,5.643-6.8,3.231-15.383.717-17.453-17.9-20.708-17.9-20.708Z" transform="translate(-2761.268 -1724.907)" fill="#f09959"/>
      <path id="Trazado_25199" data-name="Trazado 25199" d="M2388.947,1977.643s-21.3,35.106-25.245,38.262-16.961,7.889-6.311,8.678,15.778-3.55,22.484-5.522,14.989-3.156,11.833-8.284-1.845-16.322,4.958-23.422S2388.947,1977.643,2388.947,1977.643Z" transform="translate(-2353.292 -1766.039)" fill="#f09959"/>
      <path id="Trazado_25200" data-name="Trazado 25200" d="M2591.287,1609.658s-52.729-1.379-73.635,15.778c-12.228,18.539-41.81,73.24-44.109,79.267,1.578,1.578,10.453,4.425,14.4,4.03,11.636-13.875,27.017-25.87,33.134-36.753,7.538-13.411,9.861-20.117,22.089-21.3s39.839-5.128,48.123-5.128S2591.287,1609.658,2591.287,1609.658Z" transform="translate(-2446.935 -1479.461)" fill="#6791c9"/>
      <path id="Trazado_25201" data-name="Trazado 25201" d="M3133.971,1899.187h-2.764l-19.82-82.693h6.081Z" transform="translate(-2943.636 -1640.549)" fill="#2e5b9a"/>
      <path id="Trazado_25202" data-name="Trazado 25202" d="M2839.274,1888.9h2.764l22.743-85.616H2858.7Z" transform="translate(-2731.737 -1630.261)" fill="#2e5b9a"/>
      <path id="Trazado_25203" data-name="Trazado 25203" d="M2776.555,1593.429l-30.656,5.291s-40.738.374-59.36,3.843c-16.942,3.156-19.438,22.405,0,48.912,11.042,15.057,20.378,27.068,39.47,40.611,4.856-3.566,6.715-4.915,8.057-13.494-1.382-1.895-4.959-13.753-6.069-16.073-10.56-22.075-24.656-30.1-24.851-32.274,2.367-3.846,62.688,20.046,74.682,5.992C2789.279,1622.819,2776.555,1593.429,2776.555,1593.429Z" transform="translate(-2602.162 -1466.843)" fill="#75a1de"/>
      <path id="Trazado_25204" data-name="Trazado 25204" d="M3009.5,1278.557a32.078,32.078,0,0,0-23.988,5.969c-6.72,6.85-14.324,18.147-13.858,36.781.592,23.666-3.662,25.186.775,31.694,18.507,7.642,50.16,40.479,42.706,5.276-5.4-25.49,11.837-44.49-2.066-72.764C3011.938,1283.212,3010.524,1280.98,3009.5,1278.557Z" transform="translate(-2833.835 -1221.374)" fill="#f37168"/>
      <path id="Trazado_25205" data-name="Trazado 25205" d="M2971.653,1351.021c-.36,12.338-2.1,15.973-.77,19.84,7.545.77,21.346,3.789,24.8,8.618,3.944,5.522,7.889,6.311,6.048,2.235s-6.706-9.861.789-29.715,11.045-33.265,3.682-47.071Z" transform="translate(-2833.838 -1242.182)" fill="#d54a41"/>
      <path id="Trazado_25206" data-name="Trazado 25206" d="M3062.741,1191.83c-4.972-11.769-6.193-24.993-6.193-24.993l-13.016,3.846s7.4,16.566.3,22.483a67.812,67.812,0,0,0-5.074,4.634A32.078,32.078,0,0,1,3062.741,1191.83Z" transform="translate(-2887.075 -1134.647)" fill="#f09959"/>
      <path id="Trazado_25207" data-name="Trazado 25207" d="M3073.828,1172.422c-.771-.686-1.736-1.542-2.749-2.438l-10.617,3.137-.022.057a43.362,43.362,0,0,1,3.317,12.967c3.164-1.92,6.628-5.05,10.588-10.516C3074.13,1174.416,3073.96,1173.334,3073.828,1172.422Z" transform="translate(-2903.962 -1137.098)" fill="#e38540"/>
      <path id="Trazado_25208" data-name="Trazado 25208" d="M2827.516,1295.2c-13.406,4.689-11.919,18.812-24.257,39.64-6.386,10.779-12.316,10.619-12.316,10.619a285.744,285.744,0,0,1-33.088-2.095c-11.342-1.387-12.062,1.99-4.174,4.81,15.909,5.688,32.42,11.811,45.732,10.332s36.08-35.444,37.254-44.286C2838.291,1301.995,2834.268,1292.841,2827.516,1295.2Z" transform="translate(-2661.001 -1234.318)" fill="#f09959"/>
      <g id="Grupo_30102" data-name="Grupo 30102" transform="translate(112.831 90.41)">
        <path id="Trazado_25209" data-name="Trazado 25209" d="M2909.977,1518.58q-1.247,0-2.557-.032a127.174,127.174,0,0,1-24.279-2.989c-7.051-1.433-10.935-2.222-15.513-.035a3.1,3.1,0,1,1-2.671-5.59c6.451-3.083,11.891-1.977,19.419-.447a121.734,121.734,0,0,0,23.2,2.867c11.654.288,18.784-1.459,22.426-5.5,3.253-3.607,4.211-9.62,3.015-18.924-.405-3.151-.81-5.771-1.168-8.082-1-6.486-1.666-10.771-.847-17.376.763-6.157,2.806-14.373,7.538-30.31a3.1,3.1,0,1,1,5.939,1.764c-8.852,29.812-8.4,32.723-6.507,44.976.363,2.348.774,5.009,1.19,8.239,1.444,11.23,0,18.813-4.558,23.863C2929.907,1516.209,2922.255,1518.58,2909.977,1518.58Z" transform="translate(-2863.194 -1429.946)" fill="#2e5b9a"/>
      </g>
      <path id="Trazado_25210" data-name="Trazado 25210" d="M2390.394,2111.357c-14.133,6.912-21.74,10.874-26.271,10.5-1.069-.089-1.956-.2-2.7-.314-5.04,2.979-13.085,6.5-4.033,7.17,10.65.789,15.778-3.55,22.484-5.522s14.989-3.156,11.833-8.283A10.8,10.8,0,0,1,2390.394,2111.357Z" transform="translate(-2353.291 -1870.165)" fill="#d54a41"/>
      <path id="Trazado_25211" data-name="Trazado 25211" d="M2946.191,2055.773c-.345,11.19-1.883,22.279-8.728,24.373a11.5,11.5,0,0,1-4.931.44c-1.077,1.331-2.39,1.346-4.153,3.3-2.662,2.958,15.087.887,17.158,0s2.958-18.341,5.177-22.779C2952.537,2057.467,2948.87,2056.616,2946.191,2055.773Z" transform="translate(-2800.913 -1826.88)" fill="#d54a41"/>
      <g id="Grupo_30103" data-name="Grupo 30103" transform="translate(24.694 77.398)">
        <path id="Trazado_25212" data-name="Trazado 25212" d="M2531.033,1416.388h-44.9a3.1,3.1,0,0,1-2.81-1.792l-18.145-39.051a3.1,3.1,0,0,1,5.619-2.611l17.312,37.258h42.924a3.1,3.1,0,0,1,0,6.2Z" transform="translate(-2464.889 -1371.141)" fill="#75a1de"/>
      </g>
      <path id="Trazado_25213" data-name="Trazado 25213" d="M2665.753,1498.95c-9.072-.131-18.07-5.539-22.54-4.75s-19.065,10.913-17.224,11.307,13.411-5.6,13.806-5.694,2.893,4.153,9.072,5.713.044-4.631,19.2,1.154C2680.522,1510.442,2665.753,1498.95,2665.753,1498.95Z" transform="translate(-2565.522 -1389.511)" fill="#f09959"/>
      <path id="Trazado_25214" data-name="Trazado 25214" d="M3033.05,1231.247l1.335,10.74s-11.74.7-17.582,3.986-14.463,12.784-14.463,12.784l7.043-12.127,1.014-7.758Z" transform="translate(-2858.719 -1184.805)" fill="#f2e5de"/>
      <path id="Trazado_25215" data-name="Trazado 25215" d="M2877.884,1289.91c-8.72-1.634-12.754,6.18-18.408,18.934s-15.305,28.244-17.224,30.241-32.345,0-32.345,0-.92,8.809,0,9.861,6.18.921,6.18.921,2.1,1.68,4.076,3.009,18.671,3.828,26.428,3.433,14.858-1.052,15.909-2.235,22.221-33.791,23.536-45.493S2882.334,1290.744,2877.884,1289.91Z" transform="translate(-2708.549 -1230.32)" fill="#f2e5de"/>
      <path id="Trazado_25216" data-name="Trazado 25216" d="M2952.885,1027.311c-16.492.789-13.906,25.6-13.906,25.6s4.283,1.322,13.257-.157c-.69-2.662-.394-9.467-.394-9.467a62.013,62.013,0,0,0,2.367,8.875c1.9.87,4.043.1,7.692-.783,1.874,7.883,7.168,11.214,10.793,12.354,4.006,1.259,8.245,2.761,12.979.394s2.13-26.559-.383-31.425c-3.773-7.3-10.043-13.839-20.891-10.387A80.586,80.586,0,0,0,2952.885,1027.311Z" transform="translate(-2809.264 -1021.366)" fill="#303c60"/>
      <path id="Trazado_25217" data-name="Trazado 25217" d="M3131.946,1175.147l6.743,9.848s-7.473,18.671,14.261,27.13c17.021,6.625,15.016,18.3,7.324,30.036s4.6,21.99,4.6,21.99,1.875-13,18.412-15.458c22.549-3.347,28.934-33.621,12.092-48.759-13.937-12.527-18.177-2.153-27.611-13.394s-27.243-3.648-27.243-3.648l-6.528-9.519Z" transform="translate(-2959.646 -1139.736)" fill="#303c60"/>
      <g id="Grupo_30104" data-name="Grupo 30104" transform="translate(180.34 38.928)">
        <path id="Trazado_25218" data-name="Trazado 25218" d="M3231.431,1248.994a.539.539,0,0,1-.473-.8c5.683-10.386,1.046-22.971-1.287-26.38-.246-.36-.48-.725-.727-1.111-2.293-3.579-5.146-8.032-20.355-10.771-3.643-.656-6.6-2.825-9.727-5.122-6.488-4.763-13.842-10.161-29.818-2.808a.539.539,0,0,1-.451-.979c16.554-7.618,24.179-2.021,30.907,2.918,3.025,2.221,5.882,4.318,9.28,4.93,15.672,2.821,18.666,7.495,21.072,11.25.243.379.472.737.709,1.084a29.2,29.2,0,0,1,3.852,11.184c.617,4.228.681,10.491-2.509,16.323A.54.54,0,0,1,3231.431,1248.994Z" transform="translate(-3168.279 -1197.288)" fill="#303c60"/>
      </g>
      <g id="Grupo_30105" data-name="Grupo 30105" transform="translate(151.139 22.105)">
        <path id="Trazado_25219" data-name="Trazado 25219" d="M3053.877,1144.6a23.673,23.673,0,0,1-3.493-.281c-5.748-.861-13.46-4.13-14.066-22.5a.539.539,0,0,1,.521-.556.531.531,0,0,1,.557.521c.25,7.6,1.761,13.231,4.488,16.726a12.636,12.636,0,0,0,8.66,4.742c5.367.8,8.926-.192,10.58-2.959a.539.539,0,0,1,.926.553C3060.557,1143.341,3057.815,1144.6,3053.877,1144.6Z" transform="translate(-3036.318 -1121.26)" fill="#303c60"/>
      </g>
    </g>
    <g id="Grupo_30110" data-name="Grupo 30110" transform="translate(358.272 368.907)">
      <path id="Trazado_25220" data-name="Trazado 25220" d="M645.709,1285.624c-19.142,10.945-45.766,56.443-40.145,63.868s35.795-12.1,35.795-12.1Z" transform="translate(-604.801 -1228.888)" fill="#96cfe0"/>
      <path id="Trazado_25221" data-name="Trazado 25221" d="M826.059,1033.2c-7.309-.2-4.6-5.631-13-3.462-4.419,1.14-1.157,2.958-6.9,2.367s-8.566-1.183-9.289,2.564-1.074,4.931-3.835,5.522-4.008,5.522,0,8.875,2.06,4.733,1.172,7.495,2.138,2.958,3.781,5.522-1.513,3.049.854,5.271a8.385,8.385,0,0,0,5.686,2.026l9.963-19.1Z" transform="translate(-749.39 -1029.224)" fill="#303c60"/>
      <path id="Trazado_25222" data-name="Trazado 25222" d="M1581.288,2055.01s10.65.3,18.932-2.958,13.9-8.283,12.425-2.367-8.283,16.067-14.2,17.056-7.987,7.5-11.241,7.5-7.987-7.5-16.27-11.244C1563.385,2059.578,1581.288,2055.01,1581.288,2055.01Z" transform="translate(-1355.703 -1821.745)" fill="#2e5b9a"/>
      <path id="Trazado_25223" data-name="Trazado 25223" d="M1198.119,2054.011a40.957,40.957,0,0,0,12.273,10.473c8.05,4.438,17.339,6.574,11.58,8.581s-14.179,3.567-22.392,1.182c-5.761-1.673-12.514-2.023-14.3-4.745s2.1-9.556.484-19.772C1184.471,2041.546,1198.119,2054.011,1198.119,2054.011Z" transform="translate(-1056.459 -1821.745)" fill="#2e5b9a"/>
      <path id="Trazado_25224" data-name="Trazado 25224" d="M965.105,1630.224s61.692,23.1,66.662,29.557,69.818,65.281,69.818,69.621-11.045,12.228-11.045,12.228-55.617-34.12-69.423-51.476-47.5-25.723-65.413-27.33S965.105,1630.224,965.105,1630.224Z" transform="translate(-873.315 -1497.235)" fill="#3e6bab"/>
      <path id="Trazado_25225" data-name="Trazado 25225" d="M852.554,1627.756s42.206-1.578,51.279,0,28.972,1.559,15.956,38.294c-10.2,28.793-13.569,65.246-13.569,65.246l-20.285,4.983s.8-65.549,10.484-83a325.346,325.346,0,0,0-37.919,8.557c-33.265,9.513-51.5,4.749-51.5,4.749l-4.953-17.356Z" transform="translate(-758.397 -1494.767)" fill="#4476bd"/>
      <path id="Trazado_25226" data-name="Trazado 25226" d="M834.739,1137.762l-10.313,30.47,13.029,8.579,7.383-26.328Z" transform="translate(-775.827 -1113.745)" fill="#a86b48"/>
      <path id="Trazado_25227" data-name="Trazado 25227" d="M861.636,1172.656l6.218-22.174-10.1-12.72-3.772,11.145C855.285,1158.973,858.43,1167.3,861.636,1172.656Z" transform="translate(-798.844 -1113.745)" fill="#7a4e34"/>
      <path id="Trazado_25228" data-name="Trazado 25228" d="M897.337,1106.31c.335,9.267-4.218,17.288-11.453,18s-13.838-6.189-14.748-15.418,4.218-17.288,11.453-18S896.809,1091.686,897.337,1106.31Z" transform="translate(-812.12 -1077.136)" fill="#a86b48"/>
      <path id="Trazado_25229" data-name="Trazado 25229" d="M740.588,1271.449c-31.655,21.378-11.967,55.925-5.016,81.17,5.921,21.5,5.728,34.5,6.615,34.5s22.658-3.254,35.083-14.5a190.381,190.381,0,0,0,20.824-22.13s-15.918-2.835-21.12-23.427c-2.641-10.454-1.44-16.13-7.461-32.7S740.588,1271.449,740.588,1271.449Z" transform="translate(-696.942 -1217.85)" fill="#a2dff2"/>
      <path id="Trazado_25230" data-name="Trazado 25230" d="M802.043,1242.255l3.39-8.3s10.749,7.1,15.039,10.453,6.936,4.142,6.936,4.142,1.55,11.892.543,10.813C815.264,1245.77,802.043,1242.255,802.043,1242.255Z" transform="translate(-758.397 -1188.655)" fill="#a2dff2"/>
      <g id="Grupo_30108" data-name="Grupo 30108" transform="translate(23.084 100.189)">
        <path id="Trazado_25231" data-name="Trazado 25231" d="M738.642,1899.187h2.764l19.82-82.693h-6.081Z" transform="translate(-732.11 -1742.476)" fill="#2e5b9a"/>
        <path id="Trazado_25232" data-name="Trazado 25232" d="M1023.049,1888.9h-2.764l-22.744-85.616h6.081Z" transform="translate(-933.721 -1732.189)" fill="#2e5b9a"/>
        <g id="Grupo_30107" data-name="Grupo 30107">
          <path id="Trazado_25233" data-name="Trazado 25233" d="M746.444,1559.109c-11.072,0-18.087-1.989-22.563-6.349-5.549-5.406-6.7-13.779-6.714-24.688-.035-22.935-1.3-27.677-7.76-41.682a3.1,3.1,0,0,1,5.627-2.594c6.825,14.8,8.293,20.245,8.329,44.267.017,11.057,1.419,16.927,4.841,20.26,3.51,3.419,9.856,4.829,20.574,4.562a121.736,121.736,0,0,0,23.2-2.867c7.529-1.53,12.968-2.636,19.419.447a3.1,3.1,0,1,1-2.671,5.59c-4.578-2.187-8.462-1.4-15.514.035a127.171,127.171,0,0,1-24.278,2.989Q747.655,1559.109,746.444,1559.109Z" transform="translate(-709.122 -1481.994)" fill="#2e5b9a"/>
        </g>
      </g>
      <g id="Grupo_30109" data-name="Grupo 30109" transform="translate(149.187 75.301)">
        <path id="Trazado_25234" data-name="Trazado 25234" d="M1327,1414.771h-44.9a3.1,3.1,0,0,1,0-6.2h42.923l17.312-37.258a3.1,3.1,0,1,1,5.619,2.611l-18.145,39.051A3.1,3.1,0,0,1,1327,1414.771Z" transform="translate(-1279.005 -1369.524)" fill="#3e6bab"/>
      </g>
      <path id="Trazado_25235" data-name="Trazado 25235" d="M807.34,1307.266s7.889,24.062,17.652,34.021,29.41,13.306,35.561,12.915c-4.9-1.972-14.243-7.582-18-22.448-2.641-10.454-1.44-16.13-7.461-32.7-4.469-12.3-18.24-18.965-25.042-21.586,8.489,6.1,19.1,16.138,22.364,23.778C836.036,1309.731,807.34,1307.266,807.34,1307.266Z" transform="translate(-762.522 -1222.54)" fill="#96cfe0"/>
      <path id="Trazado_25236" data-name="Trazado 25236" d="M1281.175,1487.626s13.608-6.212,15.087-5.62,16.566,9.7,16.566,11.211-13.312-5.625-13.312-5.625,1.479,3.944.592,5.835-11.121,1.891-20.351,1.3S1281.175,1487.626,1281.175,1487.626Z" transform="translate(-1127.472 -1381.783)" fill="#a86b48"/>
      <path id="Trazado_25237" data-name="Trazado 25237" d="M801.415,1323.119c-12.544,25.71,30.486,51.773,56.013,54.09s55.858-6.037,55.858-6.037l-3.42-8.346s-51.143-6.675-52.438-7.61S806.009,1313.7,801.415,1323.119Z" transform="translate(-756.162 -1256.983)" fill="#a2dff2"/>
      <path id="Trazado_25238" data-name="Trazado 25238" d="M852.962,1126.833c1.163,3.057.31,6.219-1.9,7.061s-4.952-.954-6.115-4.012-.31-6.219,1.9-7.061S851.8,1123.776,852.962,1126.833Z" transform="translate(-791.4 -1101.949)" fill="#a86b48"/>
      <path id="Trazado_25239" data-name="Trazado 25239" d="M890.09,1042.849c3.466-1.446,7.369-3,6.161,2.893-.526,2.564,0,1.841.921,4.207s-2.32,4.225-3.372,5.54,1.531,2.743-.573,4.321-4.877-.585-6.837,0c-5.851,1.746-5.128-2.856-8.415-3.813s-4.9-.809-5.522,1.294,2.3,9.027-.2,8.37-3.061,4.93-3.733,8.086-2.386-2.178-2.275-5.788c.17-5.536-1.2-7.862-3.244-9.411s-2.908-15.634,6.954-16.16,9.924-1.477,14.132-2.367S888.51,1043.508,890.09,1042.849Z" transform="translate(-804.855 -1037.539)" fill="#303c60"/>
    </g>
    <g id="Grupo_30111" data-name="Grupo 30111" transform="translate(952.448 509.886)">
      <path id="Trazado_25240" data-name="Trazado 25240" d="M3465.4,1780.1c6.288,5.741,3.554,11.482-1.094,22.143s-5.468,50.028-5.468,50.028l3.827-.547s-.547-40.46,4.648-51.395,7.381-16.4,12.028-12.849S3465.4,1780.1,3465.4,1780.1Z" transform="translate(-3421.473 -1754.926)" fill="#74b570"/>
      <path id="Trazado_25241" data-name="Trazado 25241" d="M3471.68,1684.074c.764-3.4,5.3-7.084,11.363-10.207-.9,5.018-3.792,13.223-.8,14.905,4.035,2.27.393-9.186,1.95-15.482a74.927,74.927,0,0,1,18.852-6.184c-.009.024-.016.045-.025.069-3.554,9.021-8.2,12.575-6.287,13.942,1.44,1.028,6.129-9.393,12.321-14.734,4.648-.248,8.58.383,10.906,2.224,3.6,2.846,6.009,5.372,2.393,14.039a16.249,16.249,0,0,1-7.851,2.845c-8.2.82-12.029,1.094-6.288,3.827,2.812,1.339,7.523-.076,11.344-.937-1.24,2.284-2.763,4.869-4.614,7.813a29.015,29.015,0,0,1-3.843,4.89c-2.643.506-4.948.512-6.168-.011-3.827-1.64-13.668-6.834-16.129-4.647-2.408,2.141,18.227,3.5,16.8,8.936-10,5.762-21.447,3.021-23.47-2.271C3479.414,1695.987,3469.382,1694.315,3471.68,1684.074Z" transform="translate(-3431.212 -1666.332)" fill="#9cd499"/>
      <path id="Trazado_25242" data-name="Trazado 25242" d="M3457.422,1909.863c-10.935-8.2-22.143-.547-27.885,8.2s-1.64,28.431-1.64,28.431,2.187,0,2.187-.82-6.014-23.237,8.2-33.352c8.893-6.328,15.309-3.281,16.129-.273s-3.554,8.474-3.554,8.474Z" transform="translate(-3396.277 -1853.25)" fill="#74b570"/>
      <path id="Trazado_25243" data-name="Trazado 25243" d="M3450.947,1845.989c10.935,0,14.49,16.949,11.482,26.791s-7.107,28.158-7.107,28.158l-2.734-2.734s10.388-25.7,7.928-37.179-8.474-13.4-9.568-13.4S3450.947,1845.989,3450.947,1845.989Z" transform="translate(-3414.952 -1806.235)" fill="#9cd499"/>
      <path id="Trazado_25244" data-name="Trazado 25244" d="M3484.447,1958.894a7.925,7.925,0,0,1,2.879-2.419,21.615,21.615,0,0,1-.568,2.343c-1.37,4.484-2.967,10.727-4.3,16.2l-.6-3.444c-.068-.393-.121-.82-.159-1.272A106,106,0,0,0,3484.447,1958.894Z" transform="translate(-3439.281 -1892.272)" fill="#74b570"/>
      <path id="Trazado_25245" data-name="Trazado 25245" d="M3487.719,1913.534c20.777-8.748,9.831-20.753,28.147-12.825a13.6,13.6,0,0,1,4.437,3.908,13.639,13.639,0,0,1-5.8.466c-5.468-.82-3.554,3.554,5.468,4.648a20.266,20.266,0,0,1,4.228.892c4.3,8.255,6.235,19.117-2.861,22.892a20.6,20.6,0,0,1-6.473,1.328c-2.806-2.231.685-15.139-3.642-13.357-4.154,1.71,1.3,11.065.554,13.422a59.913,59.913,0,0,1-12.979-1.819,6.459,6.459,0,0,1-3.431-3.948c-1.367-5.741,7.655-9.295,7.928-14.216.251-4.524-3.306,9.953-12.732,12.083C3482.035,1923.026,3478.008,1917.623,3487.719,1913.534Z" transform="translate(-3439.563 -1846.83)" fill="#9cd499"/>
      <path id="Trazado_25246" data-name="Trazado 25246" d="M3323.342,1828.133c2.187-4.647-3.554-5.741-3.281-2.187.242,3.149.269,10.8-2.96,12.888a50.667,50.667,0,0,1-18.877-6.269,2.322,2.322,0,0,1,.241-1.425c2.46-4.921,18.316-9.022,13.4-10.662-3.919-1.306-10.786,6.4-16.32,10.288-3.324-2.521-5.551-5.527-5.551-8.883,0-4.542,5.519-9.683,12.655-12.14,3.212.324,6.2,2.08,10.855,4.721,6.884,3.9,5.292-2.406-1.217-6.149a19.6,19.6,0,0,1,15.353,8.427s-.391,2.452,2.2,6.244c7.078,10.345-1.091,16.385-10.856,15.993C3319.537,1836.252,3321.831,1831.344,3323.342,1828.133Z" transform="translate(-3289.99 -1776.897)" fill="#9cd499"/>
      <path id="Trazado_25247" data-name="Trazado 25247" d="M3554.74,1919.837c5.346,4.131,11.285,8.961,18.575,12.242s5.832,13.974,5.832,13.974,1.094-9.235-4.982-12.394-10.085-6.926-14.7-7.655a66.831,66.831,0,0,1-7.168-1.458s1.458-2.916.607-4.01S3554.74,1919.837,3554.74,1919.837Z" transform="translate(-3494.252 -1863.687)" fill="#74b570"/>
      <path id="Trazado_25248" data-name="Trazado 25248" d="M3544.317,1700.848c-19.563,5.225-33.9,17.74-36.574,20.778s-2.673,3.888-2.673,3.888l2.066,3.888.972-.486s-1.58-3.281,2.552-7.533c7.124-7.334,15.8-13.123,21.75-15.674S3544.317,1700.848,3544.317,1700.848Z" transform="translate(-3457.477 -1693.21)" fill="#74b570"/>
      <path id="Rectángulo_4662" data-name="Rectángulo 4662" d="M13.36,0h0A13.36,13.36,0,0,1,26.72,13.36V26.8a0,0,0,0,1,0,0H0a0,0,0,0,1,0,0V13.36A13.36,13.36,0,0,1,13.36,0Z" transform="translate(49.937 115.921) rotate(180)" fill="#75a1de"/>
      <rect id="Rectángulo_4663" data-name="Rectángulo 4663" width="26.72" height="1.881" transform="translate(23.217 92.195)" fill="#fff"/>
      <rect id="Rectángulo_4664" data-name="Rectángulo 4664" width="26.72" height="1.106" transform="translate(23.217 95.625)" fill="#fff"/>
    </g>
    <g id="Grupo_30127" data-name="Grupo 30127" transform="translate(295.324 203.462)">
      <g id="Grupo_30114" data-name="Grupo 30114" transform="translate(299.066 0)">
        <path id="Trazado_25249" data-name="Trazado 25249" d="M1745.777,318.5a36.957,36.957,0,1,0-64.133,25.046,16.763,16.763,0,0,1,4.44,11.365v16.567a19.544,19.544,0,0,0,19.487,19.487h6.5a19.544,19.544,0,0,0,19.487-19.487V354.914a16.939,16.939,0,0,1,4.508-11.44A36.823,36.823,0,0,0,1745.777,318.5Z" transform="translate(-1671.862 -281.544)" fill="#f5dc95"/>
        <path id="Trazado_25250" data-name="Trazado 25250" d="M1758.784,347.88a31.795,31.795,0,1,0-55.174,21.547,14.423,14.423,0,0,1,3.82,9.777v14.252a16.814,16.814,0,0,0,16.765,16.765h5.589a16.814,16.814,0,0,0,16.764-16.765V379.205a14.575,14.575,0,0,1,3.878-9.842A31.676,31.676,0,0,0,1758.784,347.88Z" transform="translate(-1690.032 -308.442)" fill="#fff" opacity="0.5"/>
        <g id="Grupo_30112" data-name="Grupo 30112" transform="translate(15.829 46.653)">
          <path id="Trazado_25251" data-name="Trazado 25251" d="M1769.988,525.735h-12.17a1.106,1.106,0,0,1-1.1-1.005c-.022-.237-2.293-23.731-12.8-30.31a1.106,1.106,0,0,1,1.174-1.876c10.248,6.418,13.16,26.214,13.721,30.978h10.006a36.264,36.264,0,0,1,1-8.872,48.731,48.731,0,0,1,11.9-21.917,1.106,1.106,0,0,1,1.63,1.5c-13.813,15.038-12.277,30.123-12.26,30.273a1.107,1.107,0,0,1-1.1,1.231Z" transform="translate(-1743.398 -492.375)" fill="#94bdf2"/>
        </g>
        <g id="Grupo_30113" data-name="Grupo 30113" transform="translate(14.462 35.322)">
          <path id="Trazado_25252" data-name="Trazado 25252" d="M1774.289,456.06c-4.108,0-9.71-2.919-15.61-6.083-7.62,4.059-14.737,7.7-18.72,5.283-1.872-1.135-2.767-3.356-2.737-6.791.029-3.233.956-5.413,2.755-6.478,3.991-2.363,11.122,1.406,18.7,5.477,7.733-4.124,15.014-7.964,18.991-5.542,1.786,1.087,2.67,3.3,2.628,6.568-.044,3.4-1.022,5.693-2.908,6.8A6.006,6.006,0,0,1,1774.289,456.06Zm-13.259-7.336c6.075,3.229,12.433,6.321,15.239,4.667,1.174-.692,1.786-2.35,1.819-4.927.031-2.434-.5-4-1.566-4.65C1773.809,442.163,1767.221,445.44,1761.03,448.724Zm-18.063-5.262a3.616,3.616,0,0,0-1.862.432c-1.087.643-1.649,2.189-1.67,4.594-.023,2.551.539,4.193,1.67,4.879,2.73,1.655,9.107-1.421,15.225-4.649C1751.384,446.079,1746.193,443.462,1742.967,443.462Z" transform="translate(-1737.221 -441.171)" fill="#94bdf2"/>
        </g>
        <rect id="Rectángulo_4665" data-name="Rectángulo 4665" width="16.153" height="9.736" rx="4.868" transform="translate(29.254 104.943)" fill="#94bdf2"/>
        <path id="Trazado_25253" data-name="Trazado 25253" d="M1731.28,634.135v11.718a20.468,20.468,0,0,0,20.408,20.408h6.8a20.468,20.468,0,0,0,20.408-20.408V634.135Z" transform="translate(-1718.132 -556.114)" fill="#94bdf2"/>
        <rect id="Rectángulo_4666" data-name="Rectángulo 4666" width="51.927" height="5.606" rx="2.803" transform="translate(11.293 76.103)" fill="#9ec8ff"/>
        <path id="Trazado_25254" data-name="Trazado 25254" d="M1772.893,650.143l-46.265,5.715a2.663,2.663,0,0,1-2.961-2.31l-.036-.293a2.663,2.663,0,0,1,2.31-2.961l46.264-5.715a2.663,2.663,0,0,1,2.961,2.31l.036.293A2.663,2.663,0,0,1,1772.893,650.143Z" transform="translate(-1712.16 -564.232)" fill="#9ec8ff"/>
        <path id="Trazado_25255" data-name="Trazado 25255" d="M1772.893,686.735l-46.265,5.715a2.663,2.663,0,0,1-2.961-2.31l-.036-.293a2.663,2.663,0,0,1,2.31-2.961l46.264-5.715a2.663,2.663,0,0,1,2.961,2.31l.036.293A2.663,2.663,0,0,1,1772.893,686.735Z" transform="translate(-1712.16 -592.727)" fill="#9ec8ff"/>
        <path id="Trazado_25256" data-name="Trazado 25256" d="M1787.877,725.9l-38.532,4.76a2.444,2.444,0,0,1-2.717-2.12l-.09-.726a2.444,2.444,0,0,1,2.12-2.717l38.532-4.76a2.444,2.444,0,0,1,2.717,2.12l.09.726A2.444,2.444,0,0,1,1787.877,725.9Z" transform="translate(-1730 -623.226)" fill="#9ec8ff"/>
      </g>
      <g id="Grupo_30116" data-name="Grupo 30116" transform="translate(665.718 84.865)">
        <path id="Trazado_25257" data-name="Trazado 25257" d="M3353.662,705.614H3378.5a24.836,24.836,0,1,1-24.835-24.835Z" transform="translate(-3328.826 -677.302)" fill="#9ec8ff"/>
        <g id="Grupo_30115" data-name="Grupo 30115" transform="translate(4.159)">
          <path id="Trazado_25258" data-name="Trazado 25258" d="M3484.695,689.9a24.836,24.836,0,0,0-24.836-24.835V689.9Z" transform="translate(-3435.023 -665.064)" fill="#f39892"/>
          <path id="Trazado_25259" data-name="Trazado 25259" d="M3347.623,777.3a24.835,24.835,0,0,0,24.835,24.836A24.954,24.954,0,0,1,3347.623,777.3Z" transform="translate(-3347.623 -752.465)" fill="#f39892"/>
          <path id="Trazado_25260" data-name="Trazado 25260" d="M3372.458,665.064a24.835,24.835,0,0,0-24.835,24.835A24.954,24.954,0,0,1,3372.458,665.064Z" transform="translate(-3347.623 -665.064)" fill="#f39892"/>
          <path id="Trazado_25261" data-name="Trazado 25261" d="M3459.859,802.135a24.836,24.836,0,0,0,24.836-24.836A24.954,24.954,0,0,1,3459.859,802.135Z" transform="translate(-3435.023 -752.465)" fill="#f39892"/>
        </g>
      </g>
      <g id="Grupo_30117" data-name="Grupo 30117" transform="translate(204.488 75.723)">
        <rect id="Rectángulo_4667" data-name="Rectángulo 4667" width="5.424" height="15.695" transform="translate(0 21.027)" fill="#9ec8ff"/>
        <rect id="Rectángulo_4668" data-name="Rectángulo 4668" width="5.424" height="10.589" transform="translate(69.525 26.133)" fill="#9ec8ff"/>
        <rect id="Rectángulo_4669" data-name="Rectángulo 4669" width="5.424" height="36.722" transform="translate(22.988)" fill="#9ec8ff"/>
        <rect id="Rectángulo_4670" data-name="Rectángulo 4670" width="5.424" height="16.506" transform="translate(34.482 20.216)" fill="#9ec8ff"/>
        <rect id="Rectángulo_4671" data-name="Rectángulo 4671" width="5.424" height="21.178" transform="translate(45.975 15.544)" fill="#9ec8ff"/>
        <rect id="Rectángulo_4672" data-name="Rectángulo 4672" width="5.424" height="26.057" transform="translate(11.494 10.664)" fill="#9ec8ff"/>
        <rect id="Rectángulo_4673" data-name="Rectángulo 4673" width="5.424" height="32.094" transform="translate(57.508 4.628)" fill="#9ec8ff"/>
      </g>
      <g id="Grupo_30119" data-name="Grupo 30119" transform="translate(0 18.066)">
        <g id="Grupo_30118" data-name="Grupo 30118" clip-path="url(#clip-path)">
          <path id="Trazado_25262" data-name="Trazado 25262" d="M472.9,522.819l-28.446-17.4-5.146,32.945A33.381,33.381,0,0,0,472.9,522.819Z" transform="translate(-412.982 -473.95)" fill="#a2dff2"/>
          <path id="Trazado_25263" data-name="Trazado 25263" d="M491.04,467.321c.077-.125.177-.3.173-.292a33.346,33.346,0,0,0,.738-32.823c-10.067,5.274-4.072,2.07-29.388,15.759C491.057,467.389,486.632,464.7,491.04,467.321Z" transform="translate(-431.09 -418.491)" fill="#9cd499"/>
          <path id="Trazado_25264" data-name="Trazado 25264" d="M321.248,376.686l31.27,11.522,29.334-15.862C368.131,346.971,331.2,350.014,321.248,376.686Z" transform="translate(-321.044 -356.734)" fill="#9ec8ff"/>
          <path id="Trazado_25265" data-name="Trazado 25265" d="M339.995,497.82l5.146-32.945-31.27-11.522C306.434,473.288,319.632,494.61,339.995,497.82Z" transform="translate(-313.666 -433.401)" fill="#f39892"/>
          <path id="Trazado_25266" data-name="Trazado 25266" d="M309.875,422.452a3.208,3.208,0,0,1,1.58.409,31.874,31.874,0,0,1,1.135-4.437l16.979,6.256c0-.005,0-.01,0-.016a3.016,3.016,0,0,1,.738-2.071l-1.7-.626-15.243-5.617a32.666,32.666,0,0,1,4.911-8.259,3.3,3.3,0,0,1-1.7-1.423,34.922,34.922,0,0,0-5.291,8.918l-.018-.007-.385,1.032-.388,1.041.018.007a34.132,34.132,0,0,0-1.244,4.856A3.07,3.07,0,0,1,309.875,422.452Z" transform="translate(-311.717 -397.047)" fill="#fff"/>
          <path id="Trazado_25267" data-name="Trazado 25267" d="M372.131,368.908l.018-.01-.526-.973c-.011-.02-.022-.039-.033-.058l-.43-.8-.017.009A34.046,34.046,0,0,0,357.4,353.742a34.978,34.978,0,0,0-38.21,4.17,3.419,3.419,0,0,1,1.406,1.713,32.313,32.313,0,0,1,18.628-7.434,31.739,31.739,0,0,1,29.912,15.821l-8.663,4.685c-1.789.962-4.289,2.315-8.475,4.581l-10.379,5.615-.267.144-.871-.533-.048.3-6.1-2.248a3.051,3.051,0,0,1-.816,2.058l6.568,2.42-4.832,30.936a32.446,32.446,0,0,1-26.176-31.287,3.167,3.167,0,0,1-1.075.2,3.226,3.226,0,0,1-1.137-.207,34.653,34.653,0,0,0,28.047,33.484l0,.019,1.09.172,1.1.173,0-.019a34.48,34.48,0,0,0,33.049-15.339l.022.013.217-.355c.006,0,.353-.579.353-.579.054-.089.119-.2.156-.262l.023-.039.017-.03.351-.573-.016-.01A34.585,34.585,0,0,0,372.131,368.908Zm-34.694,47.41,4.716-30.2,12.273,7.506c4.948,3.027,7.779,4.758,9.561,5.845l4.237,2.591A32.109,32.109,0,0,1,337.437,416.318Zm31.963-16.17-.211-.124c-1.162-.688-1.667-.988-3.983-2.4l-21.672-13.253,17.991-9.728c2.642-1.422,3.725-1.988,6.408-3.391l2.3-1.2A32.367,32.367,0,0,1,369.4,400.149Z" transform="translate(-309.842 -352.839)" fill="#e7f3fe"/>
        </g>
      </g>
      <g id="Grupo_30121" data-name="Grupo 30121" transform="translate(120.347 12.546)">
        <path id="Rectángulo_4674" data-name="Rectángulo 4674" d="M8.169,0H87.18a8.17,8.17,0,0,1,8.17,8.17V34.921a8.17,8.17,0,0,1-8.17,8.17H8.169A8.169,8.169,0,0,1,0,34.921V8.169A8.169,8.169,0,0,1,8.169,0Z" fill="#9ec8ff"/>
        <rect id="Rectángulo_4675" data-name="Rectángulo 4675" width="90.136" height="29.747" rx="6.6" transform="translate(2.607 11.321)" fill="#fff"/>
        <g id="Grupo_30120" data-name="Grupo 30120" transform="translate(3.931 3.171)">
          <path id="Rectángulo_4676" data-name="Rectángulo 4676" d="M1.681,0h.374A1.681,1.681,0,0,1,3.735,1.681v0A1.681,1.681,0,0,1,2.055,3.362H1.681A1.681,1.681,0,0,1,0,1.681v0A1.681,1.681,0,0,1,1.681,0Z" fill="#fff"/>
          <path id="Rectángulo_4677" data-name="Rectángulo 4677" d="M1.681,0h.374A1.681,1.681,0,0,1,3.735,1.681v0A1.681,1.681,0,0,1,2.055,3.362H1.681A1.681,1.681,0,0,1,0,1.681v0A1.681,1.681,0,0,1,1.681,0Z" transform="translate(6.792)" fill="#fff"/>
          <path id="Rectángulo_4678" data-name="Rectángulo 4678" d="M1.681,0h.374A1.681,1.681,0,0,1,3.735,1.681v0A1.681,1.681,0,0,1,2.055,3.362H1.681A1.681,1.681,0,0,1,0,1.681v0A1.681,1.681,0,0,1,1.681,0Z" transform="translate(13.583)" fill="#fff"/>
        </g>
        <path id="Trazado_25269" data-name="Trazado 25269" d="M1093.94,408.833h-47.677a1.426,1.426,0,1,1,0-2.853h47.677a1.426,1.426,0,0,1,0,2.853Z" transform="translate(-1004.865 -390.991)" fill="#9ec8ff"/>
        <path id="Trazado_25270" data-name="Trazado 25270" d="M931.883,508.277H884.206a1.426,1.426,0,1,1,0-2.853h47.677a1.426,1.426,0,0,1,0,2.853Z" transform="translate(-878.668 -468.431)" fill="#9ec8ff"/>
        <rect id="Rectángulo_4679" data-name="Rectángulo 4679" width="5.909" height="2.853" rx="1.426" transform="translate(56.577 36.993)" fill="#9ec8ff"/>
        <rect id="Rectángulo_4680" data-name="Rectángulo 4680" width="5.909" height="2.853" rx="1.426" transform="translate(64.014 36.993)" fill="#9ec8ff"/>
        <path id="Trazado_25271" data-name="Trazado 25271" d="M987.561,440.143H908.609a.968.968,0,1,1,0-1.936h78.952a.968.968,0,1,1,0,1.936Z" transform="translate(-898.028 -416.087)" fill="#9ec8ff"/>
        <path id="Trazado_25272" data-name="Trazado 25272" d="M987.561,459.019H908.609a.968.968,0,1,1,0-1.936h78.952a.968.968,0,1,1,0,1.936Z" transform="translate(-898.028 -430.786)" fill="#9ec8ff"/>
      </g>
      <g id="Grupo_30122" data-name="Grupo 30122" transform="translate(407.354 4.468)">
        <path id="Trazado_25273" data-name="Trazado 25273" d="M2201.948,325.467h-40.715V301.736h30.62l10.1,10.1Z" transform="translate(-2161.233 -301.736)" fill="#ffb8b3"/>
        <path id="Trazado_25274" data-name="Trazado 25274" d="M2296.233,301.736V314.4h10.843v-2.434L2296.912,301.8Z" transform="translate(-2266.361 -301.736)" fill="#f39892"/>
        <path id="Trazado_25275" data-name="Trazado 25275" d="M2299.611,301.736v10.233h10.1Z" transform="translate(-2268.991 -301.736)" fill="#ffb8b3"/>
        <path id="Trazado_25276" data-name="Trazado 25276" d="M2197.6,336.918h-18.145a.719.719,0,1,1,0-1.438H2197.6a.719.719,0,1,1,0,1.438Z" transform="translate(-2174.861 -328.013)" fill="#fff"/>
        <path id="Trazado_25277" data-name="Trazado 25277" d="M2197.6,353.546h-18.145a.719.719,0,1,1,0-1.438H2197.6a.719.719,0,1,1,0,1.438Z" transform="translate(-2174.861 -340.962)" fill="#fff"/>
        <path id="Trazado_25278" data-name="Trazado 25278" d="M2197.6,371.046h-18.145a.719.719,0,1,1,0-1.438H2197.6a.719.719,0,1,1,0,1.438Z" transform="translate(-2174.861 -354.589)" fill="#fff"/>
      </g>
      <circle id="Elipse_1065" data-name="Elipse 1065" cx="1.217" cy="1.217" r="1.217" transform="translate(425.277 5.075)" fill="#3e6bab"/>
      <rect id="Rectángulo_4681" data-name="Rectángulo 4681" width="25.877" height="31.201" transform="translate(247.589 0.719) rotate(10.935)" fill="#fae8b6"/>
      <path id="Trazado_25279" data-name="Trazado 25279" d="M1480.454,353.042l-13.47-2.6a.664.664,0,1,1,.252-1.3l13.47,2.6a.664.664,0,1,1-.252,1.3Z" transform="translate(-1212.834 -334.17)" fill="#9ec8ff"/>
      <path id="Trazado_25280" data-name="Trazado 25280" d="M1477.514,368.26l-13.47-2.6a.664.664,0,1,1,.252-1.3l13.47,2.6a.664.664,0,0,1-.252,1.3Z" transform="translate(-1210.544 -346.02)" fill="#9ec8ff"/>
      <path id="Trazado_25281" data-name="Trazado 25281" d="M1474.493,383.9l-13.47-2.6a.664.664,0,0,1,.252-1.3l13.47,2.6a.664.664,0,0,1-.252,1.3Z" transform="translate(-1208.192 -358.197)" fill="#9ec8ff"/>
      <path id="Trazado_25282" data-name="Trazado 25282" d="M1480.826,298.728a1.106,1.106,0,1,1-.876-1.3A1.106,1.106,0,0,1,1480.826,298.728Z" transform="translate(-1222.324 -293.9)" fill="#3e6bab"/>
      <path id="Trazado_25283" data-name="Trazado 25283" d="M2291.777,457.717l-39.321-4.142,2.6-24.647,31.177,3.284,7.286,9Z" transform="translate(-1824.917 -396.315)" fill="#9ec8ff"/>
      <path id="Trazado_25284" data-name="Trazado 25284" d="M2291.854,440.868l-29.268-3.083-2.19,20.8,36.387,3.833,1.283-12.177-7.118-.75Z" transform="translate(-1831.099 -403.212)" fill="#fff"/>
      <path id="Trazado_25285" data-name="Trazado 25285" d="M2315.409,473.256l-18.959-2a.794.794,0,0,1,.166-1.58l18.959,2a.794.794,0,1,1-.166,1.579Z" transform="translate(-1858.621 -428.046)" fill="#9ec8ff"/>
      <path id="Trazado_25286" data-name="Trazado 25286" d="M2313.42,492.139l-18.959-2a.794.794,0,1,1,.166-1.58l18.959,2a.794.794,0,0,1-.167,1.58Z" transform="translate(-1857.072 -442.75)" fill="#9ec8ff"/>
      <path id="Trazado_25287" data-name="Trazado 25287" d="M2311.342,511.852l-18.959-2a.794.794,0,1,1,.166-1.58l18.959,2a.794.794,0,1,1-.167,1.58Z" transform="translate(-1855.455 -458.1)" fill="#9ec8ff"/>
      <circle id="Elipse_1066" data-name="Elipse 1066" cx="1.217" cy="1.217" r="1.217" transform="translate(443.633 37.087)" fill="#3e6bab"/>
      <g id="Grupo_30124" data-name="Grupo 30124" transform="translate(635.078 5.504)">
        <path id="Trazado_25288" data-name="Trazado 25288" d="M3217.509,319.994a13.575,13.575,0,1,1-13.575-13.575A13.575,13.575,0,0,1,3217.509,319.994Z" transform="translate(-3190.359 -306.419)" fill="#9cd499"/>
        <g id="Grupo_30123" data-name="Grupo 30123" transform="translate(7.877 9.184)">
          <path id="Trazado_25289" data-name="Trazado 25289" d="M3230.307,356.962h-.025a.664.664,0,0,1-.474-.225l-3.687-4.19a.664.664,0,0,1,1-.877l3.225,3.665,7.377-7.22a.664.664,0,0,1,.929.949l-7.877,7.71A.664.664,0,0,1,3230.307,356.962Z" transform="translate(-3225.956 -347.925)" fill="#fff"/>
        </g>
      </g>
      <g id="Grupo_30125" data-name="Grupo 30125" transform="translate(33.349 109.84)">
        <rect id="Rectángulo_4682" data-name="Rectángulo 4682" width="85.561" height="35.258" rx="16.483" transform="translate(85.561 35.258) rotate(180)" fill="#9ec8ff"/>
        <path id="Trazado_25290" data-name="Trazado 25290" d="M732.116,902.8v19.453L709.7,899.838S731.66,902.8,732.116,902.8Z" transform="translate(-656.889 -872.863)" fill="#9ec8ff"/>
        <rect id="Rectángulo_4683" data-name="Rectángulo 4683" width="76.71" height="28.267" rx="13.975" transform="translate(81.135 31.762) rotate(180)" fill="#fff"/>
        <path id="Trazado_25291" data-name="Trazado 25291" d="M643.571,814.624h34.65a1.52,1.52,0,0,0,0-3.04h-34.65a1.52,1.52,0,0,0,0,3.04Z" transform="translate(-604.21 -804.137)" fill="#9ec8ff"/>
        <rect id="Rectángulo_4684" data-name="Rectángulo 4684" width="65.956" height="1.707" rx="0.854" transform="translate(75.531 16.297) rotate(180)" fill="#9ec8ff"/>
        <rect id="Rectángulo_4685" data-name="Rectángulo 4685" width="65.956" height="1.707" rx="0.854" transform="translate(75.531 19.605) rotate(180)" fill="#9ec8ff"/>
      </g>
      <g id="Grupo_30126" data-name="Grupo 30126" transform="translate(587.965 113.949)">
        <rect id="Rectángulo_4686" data-name="Rectángulo 4686" width="7.239" height="6.515" rx="3.257" transform="translate(33.562 6.515) rotate(180)" fill="#9ec8ff"/>
        <path id="Rectángulo_4687" data-name="Rectángulo 4687" d="M3.257,0h.724A3.257,3.257,0,0,1,7.239,3.257v0A3.258,3.258,0,0,1,3.981,6.515H3.258A3.258,3.258,0,0,1,0,3.257v0A3.257,3.257,0,0,1,3.257,0Z" transform="translate(20.4 6.515) rotate(180)" fill="#9ec8ff"/>
        <rect id="Rectángulo_4688" data-name="Rectángulo 4688" width="7.239" height="6.515" rx="3.257" transform="translate(7.239 6.515) rotate(180)" fill="#9ec8ff"/>
      </g>
    </g>
  </g>
</svg>
