<svg xmlns="http://www.w3.org/2000/svg" width="77.406" height="76.467" viewBox="0 0 77.406 76.467">
  <g id="Grupo_30080" data-name="Grupo 30080" transform="translate(-615 -10219)">
    <circle id="Elipse_1057" data-name="Elipse 1057" cx="33" cy="33" r="33" transform="translate(615 10219)" fill="#e6d8e8"/>
    <g id="linea-del-grafico" transform="translate(622.781 10241.941)">
      <path id="Trazado_25058" data-name="Trazado 25058" d="M224,168.461h2.32V178.9H224Zm0,0" transform="translate(-191.526 -143.93)" fill="#7d58bd"/>
      <path id="Trazado_25059" data-name="Trazado 25059" d="M288,200.461h2.32v5.8H288Zm0,0" transform="translate(-246.247 -171.291)" fill="#7d58bd"/>
      <path id="Trazado_25060" data-name="Trazado 25060" d="M160,224.461h2.32v2.32H160Zm0,0" transform="translate(-136.804 -191.812)" fill="#7d58bd"/>
      <path id="Trazado_25061" data-name="Trazado 25061" d="M112,216.461h2.32v3.479H112Zm0,0" transform="translate(-95.763 -184.972)" fill="#7d58bd"/>
      <path id="Trazado_25062" data-name="Trazado 25062" d="M3.479,53.526H59.15a3.48,3.48,0,0,0,3.479-3.479V45.407a3.48,3.48,0,0,0-3.479-3.479H57.99V13l6.588-6.241A3.5,3.5,0,1,0,62.954,5.1L57.99,9.809V7.134a3.48,3.48,0,0,0-3.479-3.479H8.119A3.48,3.48,0,0,0,4.639,7.134V41.928H3.479A3.48,3.48,0,0,0,0,45.407v4.639a3.48,3.48,0,0,0,3.479,3.479ZM66.109,2.494a1.16,1.16,0,1,1-1.16,1.16A1.16,1.16,0,0,1,66.109,2.494ZM6.959,7.134a1.16,1.16,0,0,1,1.16-1.16H54.511a1.16,1.16,0,0,1,1.16,1.16V12l-2.32,2.2V9.453a1.16,1.16,0,0,0-1.16-1.16H10.438a1.16,1.16,0,0,0-1.16,1.16v29a1.16,1.16,0,0,0,1.16,1.16H52.191a1.16,1.16,0,0,0,1.16-1.16V17.4l2.32-2.2V41.928H6.959ZM17.4,22.211a3.479,3.479,0,1,0,2.409,5.98l4.032,2.023a1.16,1.16,0,0,0,1.385-.267l8.57-9.641,8.424,6.313a1.16,1.16,0,0,0,1.493-.086L51.031,19.6V37.288H11.6V10.613H51.031V16.4l-8.206,7.771L34.33,17.8a1.161,1.161,0,0,0-1.562.157L24.08,27.735l-3.248-1.624a3.281,3.281,0,0,0,.044-.421A3.48,3.48,0,0,0,17.4,22.211Zm1.16,3.479a1.16,1.16,0,1,1-1.16-1.16A1.16,1.16,0,0,1,18.557,25.69Zm6.959,18.557h11.6v1.16a1.16,1.16,0,0,1-1.16,1.16H26.675a1.16,1.16,0,0,1-1.16-1.16Zm-23.2,1.16a1.16,1.16,0,0,1,1.16-1.16H23.2v1.16a3.48,3.48,0,0,0,3.479,3.479h9.278a3.48,3.48,0,0,0,3.479-3.479v-1.16H59.15a1.16,1.16,0,0,1,1.16,1.16v4.639a1.16,1.16,0,0,1-1.16,1.16H3.479a1.16,1.16,0,0,1-1.16-1.16Zm0,0" fill="#7d58bd"/>
    </g>
  </g>
</svg>
