<svg xmlns="http://www.w3.org/2000/svg" width="77.374" height="78" viewBox="0 0 77.374 78">
  <g id="Grupo_30082" data-name="Grupo 30082" transform="translate(-294 -10495)">
    <circle id="Elipse_1063" data-name="Elipse 1063" cx="33" cy="33" r="33" transform="translate(294 10495)" fill="#e6d8e8"/>
    <g id="finanzas_1_" data-name="finanzas (1)" transform="translate(314.639 10515.697)">
      <path id="Trazado_25072" data-name="Trazado 25072" d="M41.724,14.081a.909.909,0,0,1-.908-.908H39A2.728,2.728,0,0,0,41.724,15.9v1.816h1.816V15.9h2.724V13.173a2.728,2.728,0,0,0-2.724-2.724H41.724a.909.909,0,0,1-.908-.908V8.632h2.724a.909.909,0,0,1,.908.908h1.816a2.728,2.728,0,0,0-2.724-2.724V5H41.724V6.816H39V9.541a2.728,2.728,0,0,0,2.724,2.724h1.816a.909.909,0,0,1,.908.908v.908Z" transform="translate(-3.492 -0.368)" fill="#7d58bd"/>
      <path id="Trazado_25073" data-name="Trazado 25073" d="M54.163,35.468l2.572-10.29L46.446,27.751l3.217,3.217L44.589,36.04l-2.724-2.724-8.173,8.173-2.348-2.348H20.979V36.792l.46.46,6.146,1.23-1.23-6.146-5.377-5.377V20.979a.909.909,0,0,1,.908-.908H31.5L32.626,21.2a2.724,2.724,0,0,0,1.066,5.231,5.449,5.449,0,0,0,10.9,0A2.724,2.724,0,0,0,45.656,21.2l1.191-1.191a10.82,10.82,0,0,0,3.192-7.7v-.4a10.9,10.9,0,1,0-21.795,0v.4a11.045,11.045,0,0,0,.1,1.413H19.411a7.262,7.262,0,1,0-9.325.217,8.112,8.112,0,0,0-1.595.542L6.935,12.916a3.477,3.477,0,0,0-4.917,4.917l1.976,1.976a8.187,8.187,0,0,0-.27,2.078v4.541a4.546,4.546,0,0,0,4.541,4.541v22.7a3.617,3.617,0,0,0,6.357,2.377A3.608,3.608,0,0,0,17.346,57.3H48.222V34.976l2.724-2.724ZM40.957,55.487H37.325V40.425l3.632-3.632ZM35.508,42.241V55.487H31.876V42.241l1.816,1.816ZM30.06,55.487H26.427V40.957H30.06Zm-5.449-14.53v14.53H20.474a3.6,3.6,0,0,0,.5-1.816V40.957ZM14.168,24.611h-2.8l-.908-.908,2.348-2.348,11.43,11.43-2.348,2.348-5.3-5.3a3.149,3.149,0,0,0,.762-2.041,3.182,3.182,0,0,0-3.178-3.178ZM11.521,20.07,9.173,22.419l-1.44-1.44,2.348-2.348ZM23.728,35.859l1.233-1.233.308,1.541Zm15.413-5.8a3.636,3.636,0,0,1-3.632-3.632h7.265A3.636,3.636,0,0,1,39.141,30.06Zm5.449-5.449h-10.9a.908.908,0,1,1,0-1.816h10.9a.908.908,0,1,1,0,1.816ZM30.06,11.9a9.081,9.081,0,0,1,18.162,0v.4a9.021,9.021,0,0,1-2.66,6.421L44.37,19.915a5.32,5.32,0,0,0-.794,1.063h-8.87a5.294,5.294,0,0,0-.794-1.063L32.72,18.722A9.021,9.021,0,0,1,30.06,12.3ZM9.173,8.265a5.449,5.449,0,1,1,5.449,5.449A5.454,5.454,0,0,1,9.173,8.265ZM11.9,15.53H28.73a10.76,10.76,0,0,0,1.285,2.724H21.887a2.728,2.728,0,0,0-2.724,2.724v4.165L9.888,15.869A6.363,6.363,0,0,1,11.9,15.53Zm-9.081-.155A1.66,1.66,0,0,1,5.65,14.2L8.8,17.346,6.449,19.694,3.3,16.549a1.652,1.652,0,0,1-.486-1.174ZM5.541,26.427V21.887c0-.165.027-.328.04-.492L8.8,24.611H7.357v1.816h6.811a1.362,1.362,0,0,1,0,2.724h-5.9A2.728,2.728,0,0,1,5.541,26.427ZM15.53,53.671V37.545a1.808,1.808,0,0,1,.532-1.285l1.018-1.018L15.8,33.958l-1.018,1.018a3.61,3.61,0,0,0-1.064,2.569V53.671a1.816,1.816,0,0,1-3.632,0v-22.7h4.087a3.129,3.129,0,0,0,.855-.132l4.14,4.14V53.671a1.816,1.816,0,0,1-3.632,0Zm30.876,1.816H42.773V36.792l1.816,1.816,1.816-1.816Zm7.833-27.811-1.061,4.24L50,28.736Z" transform="translate(0 0)" fill="#7d58bd"/>
    </g>
  </g>
</svg>
