<svg xmlns="http://www.w3.org/2000/svg" width="77" height="77" viewBox="0 0 77 77">
  <g id="Grupo_30081" data-name="Grupo 30081" transform="translate(-722 -10219)">
    <circle id="Elipse_1058" data-name="Elipse 1058" cx="33" cy="33" r="33" transform="translate(722 10219)" fill="#e6d8e8"/>
    <g id="finanzas" transform="translate(741.281 10238.28)">
      <path id="Trazado_25063" data-name="Trazado 25063" d="M18.489,22.922V21h-1.83v1.83H13V27.4a4.579,4.579,0,0,0,4.574,4.574,2.748,2.748,0,0,1,2.744,2.744v2.744H17.574a2.748,2.748,0,0,1-2.744-2.744V31.978H13v2.744A4.583,4.583,0,0,0,16.659,39.2v1.922h1.83V39.3h3.659V34.722a4.579,4.579,0,0,0-4.574-4.574A2.748,2.748,0,0,1,14.83,27.4V24.659h2.744A2.748,2.748,0,0,1,20.319,27.4v2.744h1.83V27.4a4.583,4.583,0,0,0-3.659-4.482Z" transform="translate(-1.022 -1.703)" fill="#7d58bd"/>
      <path id="Trazado_25064" data-name="Trazado 25064" d="M57.719,19.3H48.571V54.06H44.912V30.274H35.763V47.091L32.1,45.261V37.593h-.691a15.49,15.49,0,0,0,.691-4.574,18.972,18.972,0,0,0-.218-2.774A30.123,30.123,0,0,0,50.366,10.4l-1.76-.5a28.276,28.276,0,0,1-17.072,18.53A19.214,19.214,0,0,0,27.9,21.043l-6.777-8.471V9.511l.154-.231a9.952,9.952,0,0,0,1.676-5.536V3.366L22.688,3.1C22.474,2.883,20.425,1,14.722,1h-.915v.915c0,.309.009.619.027.928a4.194,4.194,0,0,0-3.59,2.322l-.2.41,1.938,3.875v3.122L5.2,21.043A19.239,19.239,0,0,0,1,33.019,15.566,15.566,0,0,0,6.535,44.912H5.574A4.579,4.579,0,0,0,1,49.486v3.659a4.579,4.579,0,0,0,4.574,4.574H31.405l3.659-1.83H57.719ZM39.11,50.81a.565.565,0,0,1,0,1.012l-7.006,3.5V47.307ZM11.978,46.741V55.89h-1.83V46.741Zm18.3-7.319v5.489H24.785V39.423Zm0,7.319V50.4H13.808V46.741ZM13.808,52.23H30.274V55.89H13.808ZM21.114,4.189a8.134,8.134,0,0,1-1.357,4.076l-.036.054h-2.6a14.648,14.648,0,0,1-1.457-5.47A11.045,11.045,0,0,1,21.114,4.189ZM19.3,10.148v1.83H13.808v-1.83ZM14.023,4.659h.019a16.528,16.528,0,0,0,1.069,3.659H13.458l-1.351-2.7a2.382,2.382,0,0,1,1.917-.957ZM2.83,33.019a17.408,17.408,0,0,1,3.8-10.833l6.7-8.378h6.439l6.7,8.378A17.389,17.389,0,0,1,29.8,29.031a27.668,27.668,0,0,1-5.782,1.147l-1.136.1.159,1.822,1.136-.1a29.468,29.468,0,0,0,5.948-1.162,17.354,17.354,0,0,1,.154,2.18,13.661,13.661,0,0,1-.8,4.574H22.956v7.319H9.713A13.737,13.737,0,0,1,2.83,33.019Zm0,20.126V49.486a2.748,2.748,0,0,1,2.744-2.744H8.319V55.89H5.574A2.748,2.748,0,0,1,2.83,53.145Zm37.1.313a2.4,2.4,0,0,0,0-4.285l-2.336-1.167V32.1h5.489V54.06H38.724Zm15.961.6H50.4V21.126H55.89Z" transform="translate(0 0)" fill="#7d58bd"/>
      <path id="Trazado_25065" data-name="Trazado 25065" d="M35,3h5.489V4.83H35Z" transform="translate(-2.896 -0.17)" fill="#7d58bd"/>
      <path id="Trazado_25066" data-name="Trazado 25066" d="M43,3h9.148V4.83H43Z" transform="translate(-3.577 -0.17)" fill="#7d58bd"/>
      <path id="Trazado_25067" data-name="Trazado 25067" d="M35,7H51.467V8.83H35Z" transform="translate(-2.896 -0.511)" fill="#7d58bd"/>
      <path id="Trazado_25068" data-name="Trazado 25068" d="M35,11h9.148v1.83H35Z" transform="translate(-2.896 -0.852)" fill="#7d58bd"/>
      <path id="Trazado_25069" data-name="Trazado 25069" d="M35,15h1.83v1.83H35Z" transform="translate(-2.896 -1.192)" fill="#7d58bd"/>
      <path id="Trazado_25070" data-name="Trazado 25070" d="M39,15h1.83v1.83H39Z" transform="translate(-3.237 -1.192)" fill="#7d58bd"/>
      <path id="Trazado_25071" data-name="Trazado 25071" d="M43,15h1.83v1.83H43Z" transform="translate(-3.577 -1.192)" fill="#7d58bd"/>
    </g>
  </g>
</svg>
