<svg xmlns="http://www.w3.org/2000/svg" width="150" height="150" viewBox="0 0 150 150">
  <g id="Grupo_30148" data-name="Grupo 30148" transform="translate(-3958 -1828)">
    <g id="Grupo_30141" data-name="Grupo 30141" transform="translate(3016 -5830)">
      <g id="Elipse_1044" data-name="Elipse 1044" transform="translate(942 7658)" fill="#fff" stroke="#b869c3" stroke-width="7">
        <circle cx="75" cy="75" r="75" stroke="none"/>
        <circle cx="75" cy="75" r="71.5" fill="none"/>
      </g>
      <g id="bullhorn" transform="translate(976.864 7691.695)">
        <path id="Trazado_24814" data-name="Trazado 24814" d="M48.825,61.433H46.15V48.322a1.338,1.338,0,1,0-2.676,0V61.433H8.689V34.676H19.82a1.338,1.338,0,1,0,0-2.676H7.351a1.338,1.338,0,0,0-1.338,1.338v28.1H3.338A1.338,1.338,0,0,0,2,62.771v2.676a6.689,6.689,0,0,0,6.689,6.689H43.474a6.689,6.689,0,0,0,6.689-6.689V62.771A1.338,1.338,0,0,0,48.825,61.433Zm-1.338,4.014a4.014,4.014,0,0,1-4.014,4.014H40.8V68.122a1.338,1.338,0,1,0-2.676,0V69.46H14.041V68.122a1.338,1.338,0,1,0-2.676,0V69.46H8.689a4.014,4.014,0,0,1-4.014-4.014V64.109H47.487Z" transform="translate(0 10.474)" fill="#002b45"/>
        <path id="Trazado_24815" data-name="Trazado 24815" d="M55.689,8.676h2.676a1.338,1.338,0,1,0,0-2.676H55.689a4.014,4.014,0,0,0-4.014,4.014v1.338H50.338a1.338,1.338,0,1,0,0,2.676h1.338v4.014a1.338,1.338,0,1,0,2.676,0V14.027h1.338a1.338,1.338,0,1,0,0-2.676H54.351V10.014A1.338,1.338,0,0,1,55.689,8.676Z" transform="translate(15.88 1.689)" fill="#002b45"/>
        <path id="Trazado_24816" data-name="Trazado 24816" d="M64.068,2H48.014A4.014,4.014,0,0,0,44,6.014V8.689a1.338,1.338,0,1,0,2.676,0V6.014a1.338,1.338,0,0,1,1.338-1.338H64.068a1.338,1.338,0,0,1,1.338,1.338V22.068a1.338,1.338,0,0,1-1.338,1.338H48.014a1.338,1.338,0,0,1-1.338-1.338V14.041a1.338,1.338,0,1,0-2.676,0v8.027a4.014,4.014,0,0,0,4.014,4.014H64.068a4.014,4.014,0,0,0,4.014-4.014V6.014A4.014,4.014,0,0,0,64.068,2Z" transform="translate(14.19 0.338)" fill="#002b45"/>
        <path id="Trazado_24817" data-name="Trazado 24817" d="M49,43.351A5.351,5.351,0,1,0,54.351,38,5.351,5.351,0,0,0,49,43.351Zm8.027,0a2.676,2.676,0,1,1-2.676-2.676A2.676,2.676,0,0,1,57.027,43.351Z" transform="translate(15.88 12.501)" fill="#002b45"/>
        <path id="Trazado_24818" data-name="Trazado 24818" d="M64.068,33H48.014A4.014,4.014,0,0,0,44,37.014V53.068a4.014,4.014,0,0,0,4.014,4.014H64.068a4.014,4.014,0,0,0,4.014-4.014V50.392a1.338,1.338,0,1,0-2.676,0v2.676a1.338,1.338,0,0,1-1.338,1.338H48.014a1.338,1.338,0,0,1-1.338-1.338V37.014a1.338,1.338,0,0,1,1.338-1.338H64.068a1.338,1.338,0,0,1,1.338,1.338v8.027a1.338,1.338,0,1,0,2.676,0V37.014A4.014,4.014,0,0,0,64.068,33Z" transform="translate(14.19 10.812)" fill="#002b45"/>
        <path id="Trazado_24819" data-name="Trazado 24819" d="M24.629,16.5a1.331,1.331,0,0,0,1.311.054l8.027-4.014a1.338,1.338,0,0,0,0-2.381L25.94,6.146A1.338,1.338,0,0,0,24,7.337v8.027A1.338,1.338,0,0,0,24.629,16.5Zm2.047-7,3.693,1.846L26.676,13.2Z" transform="translate(7.433 1.69)" fill="#002b45"/>
        <path id="Trazado_24820" data-name="Trazado 24820" d="M30.041,25.082A12.041,12.041,0,1,0,18,13.041,12.041,12.041,0,0,0,30.041,25.082Zm0-21.406a9.365,9.365,0,1,1-9.365,9.365,9.365,9.365,0,0,1,9.365-9.365Z" transform="translate(5.406)" fill="#002b45"/>
        <path id="Trazado_24821" data-name="Trazado 24821" d="M37.338,25.027a1.338,1.338,0,0,0,1.07-.535l4.014-5.351a1.338,1.338,0,1,0-2.141-1.605l-4.014,5.351a1.338,1.338,0,0,0,1.07,2.141Z" transform="translate(11.487 5.406)" fill="#002b45"/>
        <path id="Trazado_24822" data-name="Trazado 24822" d="M39.268,28.154a1.338,1.338,0,0,0,1.873.268l5.351-4.014a1.338,1.338,0,1,0-1.605-2.141l-5.351,4.014a1.338,1.338,0,0,0-.268,1.873Z" transform="translate(12.501 7.095)" fill="#002b45"/>
        <path id="Trazado_24823" data-name="Trazado 24823" d="M51.4,29.078a1.338,1.338,0,0,0-1.605-1.07l-6.689,1.338a1.345,1.345,0,0,0,.268,2.676h.268l6.689-1.338a1.338,1.338,0,0,0,1.07-1.605Z" transform="translate(13.479 9.114)" fill="#002b45"/>
        <path id="Trazado_24824" data-name="Trazado 24824" d="M3.338,35.082H19.392a1.338,1.338,0,0,0,1.338-1.338V12.338A1.338,1.338,0,0,0,19.392,11H3.338A1.338,1.338,0,0,0,2,12.338V33.744A1.338,1.338,0,0,0,3.338,35.082ZM4.676,13.676H18.054v18.73H4.676Z" transform="translate(0 3.379)" fill="#002b45"/>
        <path id="Trazado_24825" data-name="Trazado 24825" d="M12.014,15H9.338a1.338,1.338,0,1,0,0,2.676h2.676a1.338,1.338,0,1,0,0-2.676Z" transform="translate(2.027 4.73)" fill="#002b45"/>
        <path id="Trazado_24826" data-name="Trazado 24826" d="M12.689,19H7.338a1.338,1.338,0,0,0,0,2.676h5.351a1.338,1.338,0,0,0,0-2.676Z" transform="translate(1.351 6.082)" fill="#002b45"/>
        <path id="Trazado_24827" data-name="Trazado 24827" d="M12.689,23H7.338a1.338,1.338,0,1,0,0,2.676h5.351a1.338,1.338,0,1,0,0-2.676Z" transform="translate(1.351 7.433)" fill="#002b45"/>
        <path id="Trazado_24828" data-name="Trazado 24828" d="M45.271,30.625a1.342,1.342,0,1,0-2.328,1.338l5.9,10.208L27.438,50.2h-.2L23.759,52.2l-2.315,1.338a2.671,2.671,0,0,1-3.652-.977l-2.676-4.629a2.676,2.676,0,0,1,1-3.532l4.629-2.676,3.345,5.793a1.342,1.342,0,1,0,2.328-1.338l-3.452-5.967,16.79-13.847.549.95a1.342,1.342,0,0,0,2.328-1.338L41.3,23.668a1.356,1.356,0,0,0-2.02-.361L20.548,38.746l-5.7,3.291A5.351,5.351,0,0,0,12.387,48.1l-1.338.763a4.01,4.01,0,0,0,2.007,7.492,4.094,4.094,0,0,0,2.007-.535l1.338-.763a5.191,5.191,0,0,0,2.341,1.391,5.07,5.07,0,0,0,1.4.187,5.271,5.271,0,0,0,2.676-.722l1.164-.669,2.676,4.642a4.01,4.01,0,1,0,6.944-4.014L31.17,51.629,51.238,44.1a1.342,1.342,0,0,0,.7-1.913Zm-31.6,22.864a1.337,1.337,0,1,1-1.338-2.315l1.164-.669,1.338,2.315Zm17.606,3.746a1.337,1.337,0,0,1-2.315,1.338l-2.676-4.642,2.221-1.271h.107Z" transform="translate(2.377 7.434)" fill="#002b45"/>
      </g>
    </g>
  </g>
</svg>
