<svg xmlns="http://www.w3.org/2000/svg" width="105.965" height="102.312" viewBox="0 0 105.965 102.312">
  <g id="website_2_" data-name="website (2)" transform="translate(0 -8.827)">
    <path id="Trazado_25367" data-name="Trazado 25367" d="M91.349,8.827H5.483A5.484,5.484,0,0,0,0,14.31V78.253H105.965V14.31a5.484,5.484,0,0,0-5.483-5.483H91.349Z" fill="#e7eced"/>
    <rect id="Rectángulo_4692" data-name="Rectángulo 4692" width="91.349" height="58.464" transform="translate(7.308 16.135)" fill="#28384c"/>
    <path id="Trazado_25368" data-name="Trazado 25368" d="M114.759,79.448v34.713h43.495l7.661-7.677V79.448Z" transform="translate(-91.008 -56.005)" fill="#e7eced"/>
    <path id="Trazado_25369" data-name="Trazado 25369" d="M100.482,341.237h-95A5.484,5.484,0,0,1,0,335.754v-9.133H105.965v9.133A5.484,5.484,0,0,1,100.482,341.237Z" transform="translate(0 -252.022)" fill="#afb6bb"/>
    <path id="Trazado_25370" data-name="Trazado 25370" d="M233.478,356.757H222.516a1.827,1.827,0,0,1,0-3.654h10.962a1.827,1.827,0,0,1,0,3.654Z" transform="translate(-175.015 -273.024)" fill="#fff"/>
    <path id="Trazado_25371" data-name="Trazado 25371" d="M174.742,475.17h-47.5a3.653,3.653,0,0,1-3.654-3.654h0a3.653,3.653,0,0,1,3.654-3.654h47.5a3.653,3.653,0,0,1,3.654,3.654h0A3.653,3.653,0,0,1,174.742,475.17Z" transform="translate(-98.008 -364.032)" fill="#afb6bb"/>
    <path id="Trazado_25372" data-name="Trazado 25372" d="M188.128,397.241h-18.27c0,8.079-2.883,14.616-10.962,14.616H199.09C191.011,411.857,188.128,405.32,188.128,397.241Z" transform="translate(-126.01 -308.027)" fill="#6c797a"/>
    <path id="Trazado_25373" data-name="Trazado 25373" d="M329.246,209.136l-5.53-5.53a.243.243,0,0,1,0-.344l3.574-3.576-18.27-5.481,5.481,18.27,3.482-3.482a.559.559,0,0,1,.789,0l5.307,5.309Z" transform="translate(-245.063 -147.012)" fill="#7383bf"/>
    <rect id="Rectángulo_4693" data-name="Rectángulo 4693" width="51.155" height="9.135" transform="translate(23.751 23.443)" fill="#556080"/>
    <rect id="Rectángulo_4694" data-name="Rectángulo 4694" width="14.616" height="7.308" transform="translate(31.059 43.54)" fill="#dd352e"/>
  </g>
</svg>
