<svg xmlns="http://www.w3.org/2000/svg" width="111.481" height="110.176" viewBox="0 0 111.481 110.176">
  <g id="return-on-investment" transform="translate(0 -0.042)">
    <path id="Trazado_25325" data-name="Trazado 25325" d="M163.341,73.316c-9.873-.353-15.882,3.735-36.628,13.885l-18.12-9.833L101.7,73.63c.71-9.44,4.222-33.788,21.631-43.4,0,0-12.423-9.069-11.285-20.742a1.59,1.59,0,0,1,1.578-1.443h37.816a1.591,1.591,0,0,1,1.578,1.443c1.139,11.673-11.285,20.742-11.285,20.742,17.221,9.511,20.845,33.438,21.6,43.088Zm0,0" transform="translate(-78.986 -6.214)" fill="#b76c6c"/>
    <path id="Trazado_25326" data-name="Trazado 25326" d="M163.341,73.316c-9.873-.353-15.882,3.735-36.628,13.885l-18.12-9.833L101.7,73.63c.71-9.44,4.222-33.788,21.631-43.4,0,0-12.423-9.069-11.285-20.742a1.59,1.59,0,0,1,1.578-1.443h37.816a1.591,1.591,0,0,1,1.578,1.443c1.139,11.673-11.285,20.742-11.285,20.742,17.221,9.511,20.845,33.438,21.6,43.088Zm0,0" transform="translate(-78.986 -6.214)" fill="#c98585"/>
    <path id="Trazado_25327" data-name="Trazado 25327" d="M187.292,73.317c-9.873-.353-15.882,3.735-36.628,13.885l-18.12-9.833c1.055-11.236,5.2-38.169,21.444-47.14,0,0-12.423-9.069-11.285-20.742a1.59,1.59,0,0,1,1.578-1.443H175.4a1.591,1.591,0,0,1,1.578,1.443c1.139,11.673-11.285,20.742-11.285,20.742,17.221,9.511,20.845,33.438,21.6,43.088Zm0,0" transform="translate(-102.937 -6.214)" fill="#b76c6c"/>
    <path id="Trazado_25328" data-name="Trazado 25328" d="M279.232,73.317a27.521,27.521,0,0,0-6.916.581c-1.139-11.222-5.414-33.421-21.39-42.651,0,0,12.423-9.484,11.285-21.693a1.619,1.619,0,0,0-1.578-1.51h6.7a1.591,1.591,0,0,1,1.578,1.443c1.139,11.673-11.285,20.742-11.285,20.742,17.221,9.511,20.845,33.438,21.6,43.088Zm0,0" transform="translate(-194.876 -6.214)" fill="#965959"/>
    <path id="Trazado_25329" data-name="Trazado 25329" d="M93.282,278.206q-1.526-.139-3.062-.141a33.924,33.924,0,0,0-10.848,1.78,33.113,33.113,0,0,0-4.083,1.676L53.965,291.953,18.285,272.592a6.839,6.839,0,1,0-6.815,11.86L46.747,316.77c.021.016.043.038.065.054a12.617,12.617,0,0,0,12.1,1.671l28.51-10.767a19.979,19.979,0,0,1,15,.925V280.341a34.112,34.112,0,0,0-9.139-2.135Zm0,0" transform="translate(-6.24 -210.965)" fill="#ffbb98"/>
    <path id="Trazado_25330" data-name="Trazado 25330" d="M444.116,281.882v35.485a2.446,2.446,0,0,1-2.448,2.448h-8.622a2.447,2.447,0,0,1-2.448-2.448V281.882a2.449,2.449,0,0,1,2.448-2.448h8.622A2.449,2.449,0,0,1,444.116,281.882Zm0,0" transform="translate(-334.414 -216.984)" fill="#5fcdff"/>
    <path id="Trazado_25331" data-name="Trazado 25331" d="M467.415,281.882v35.485a2.446,2.446,0,0,1-2.448,2.448h-1.92a2.447,2.447,0,0,1-2.448-2.448V281.882a2.449,2.449,0,0,1,2.448-2.448h1.92A2.449,2.449,0,0,1,467.415,281.882Zm0,0" transform="translate(-357.713 -216.984)" fill="#30b6ff"/>
    <path id="Trazado_25332" data-name="Trazado 25332" d="M229.1,300.392q-1.526-.139-3.062-.141a33.925,33.925,0,0,0-10.848,1.78,33.118,33.118,0,0,0-4.083,1.676l-21.324,10.432-3.379,1.654a6.345,6.345,0,0,0-3.488,5.667,6.279,6.279,0,0,0,.681,2.856,6.343,6.343,0,0,0,8.523,2.812L218.3,314.323a38.942,38.942,0,0,1,16.891-2.751l3.05.244v-9.289a34.111,34.111,0,0,0-9.139-2.135Zm0,0" transform="translate(-142.056 -233.15)" fill="#ffcaa6"/>
    <path id="Trazado_25333" data-name="Trazado 25333" d="M240.844,334.014c3.342-1.738,6.151-3.167,8.649-4.311C246.965,330.949,244.119,332.379,240.844,334.014Zm0,0" transform="translate(-187.046 -256.024)" fill="#965959"/>
    <g id="Grupo_30132" data-name="Grupo 30132" transform="translate(0 0.042)">
      <path id="Trazado_25334" data-name="Trazado 25334" d="M107.246,60.741H98.625a4.238,4.238,0,0,0-4.235,4.235v1.97a35.667,35.667,0,0,0-8.381-1.492c-1.5-15.519-7.147-32.991-20.184-41.663C69.5,20.512,76.752,12.726,75.814,3.1A3.365,3.365,0,0,0,72.459.042H34.642A3.364,3.364,0,0,0,31.287,3.1c-.938,9.623,6.317,17.41,9.989,20.689C28.485,32.3,22.8,49.281,21.177,64.624l-8.242-4.472a8.626,8.626,0,0,0-8.77,14.854c2.435,2.234,35.159,32.223,35.32,32.343A14.464,14.464,0,0,0,53.3,109.271l28.48-10.753a18.084,18.084,0,0,1,12.612.407v1.528a4.238,4.238,0,0,0,4.235,4.235h8.622a4.241,4.241,0,0,0,4.235-4.235V64.976a4.242,4.242,0,0,0-4.235-4.235ZM34.824,3.616H72.271c.786,9.237-8.041,16.924-10.135,18.61H44.964c-2.093-1.677-10.925-9.369-10.14-18.61Zm10,22.184H62.27C75.46,33.809,80.813,50.11,82.4,65.427c-9.337.4-12.769,2.926-34.627,13.621L24.594,66.478C26.009,50.848,31.28,34.135,44.825,25.8ZM94.389,95.114a21.6,21.6,0,0,0-13.786.031c-.049.011-28.522,10.766-28.569,10.784a10.887,10.887,0,0,1-10.32-1.376c-.2-.179-35.358-32.415-35.592-32.541a5.005,5.005,0,0,1-2.358-3.06,5.059,5.059,0,0,1,7.43-5.678c23.89,12.956-2.818-1.521,32.638,17.7-8.049,3.962-5.1,15.537,3.391,15.537,2.5,0,.954.444,30.312-13.915a1.787,1.787,0,0,0-1.573-3.208L49.254,92.455a4.567,4.567,0,0,1-6.393-5.463c1.379-2.749-1.688-.737,26.975-14.756a32.17,32.17,0,0,1,24.553-1.528Zm13.519,5.338a.663.663,0,0,1-.661.661H98.624a.66.66,0,0,1-.661-.661V64.976a.66.66,0,0,1,.661-.661h8.622a.663.663,0,0,1,.661.661Zm0,0" transform="translate(0 -0.042)" fill="#5f266d"/>
      <path id="Trazado_25335" data-name="Trazado 25335" d="M195.674,171.177a1.787,1.787,0,1,0,3.574,0v-5.269H201.2a8.416,8.416,0,1,0,0-16.831h-7.484a4.842,4.842,0,0,1,0-9.684H203.7a2.35,2.35,0,0,1,2.347,2.347,1.787,1.787,0,0,0,1.787,1.787c3.538,0,1.637-7.708-4.134-7.708h-4.449v-5.269a1.787,1.787,0,1,0-3.574,0v5.269h-1.955a8.416,8.416,0,0,0,0,16.831H201.2a4.842,4.842,0,1,1,0,9.684h-9.978a2.35,2.35,0,0,1-2.346-2.347,1.787,1.787,0,0,0-1.787-1.787c-3.54,0-1.633,7.708,4.133,7.708h4.45Zm0,0" transform="translate(-143.913 -100.01)" fill="#5f266d"/>
    </g>
  </g>
</svg>
