<svg xmlns="http://www.w3.org/2000/svg" width="150" height="150" viewBox="0 0 150 150">
  <g id="Grupo_30149" data-name="Grupo 30149" transform="translate(-3958 -2026)">
    <g id="Grupo_30142" data-name="Grupo 30142">
      <g id="Elipse_1044" data-name="Elipse 1044" transform="translate(3958 2026)" fill="#fff" stroke="#b869c3" stroke-width="7">
        <circle cx="75" cy="75" r="75" stroke="none"/>
        <circle cx="75" cy="75" r="71.5" fill="none"/>
      </g>
      <g id="analytics" transform="translate(3992.285 2071.747)">
        <path id="Trazado_25386" data-name="Trazado 25386" d="M76.462.5h-71A5.462,5.462,0,0,0,0,5.962V52.385a5.462,5.462,0,0,0,5.462,5.462H32.3L29.023,68.77h-3.08V71.5H55.981V68.77H52.9L49.624,57.847H76.462a5.462,5.462,0,0,0,5.462-5.462V5.962A5.462,5.462,0,0,0,76.462.5ZM50.05,68.77H31.874l3.277-10.923H46.773ZM79.193,52.385a2.731,2.731,0,0,1-2.731,2.731h-71a2.731,2.731,0,0,1-2.731-2.731V49.654H79.193Zm0-5.462H2.731V5.962A2.731,2.731,0,0,1,5.462,3.231h71a2.731,2.731,0,0,1,2.731,2.731Zm0,0" fill="#002b45"/>
        <path id="Trazado_25387" data-name="Trazado 25387" d="M40,32.5h2.731v2.731H40Zm0,0" transform="translate(-33.173 -26.538)" fill="#002b45"/>
        <path id="Trazado_25388" data-name="Trazado 25388" d="M72,32.5h2.731v2.731H72Zm0,0" transform="translate(-59.711 -26.538)" fill="#002b45"/>
        <path id="Trazado_25389" data-name="Trazado 25389" d="M104,32.5h2.731v2.731H104Zm0,0" transform="translate(-86.25 -26.538)" fill="#002b45"/>
        <path id="Trazado_25390" data-name="Trazado 25390" d="M59.96,69.289a16.385,16.385,0,1,0,0,23.17,16.384,16.384,0,0,0,0-23.17Zm-21.24,1.932a13.653,13.653,0,0,1,18.3-.919L47.81,79.51H34.788a13.544,13.544,0,0,1,3.933-8.289Zm-3.933,11.02H45.079L37.8,89.517A13.523,13.523,0,0,1,34.788,82.241ZM48.375,94.529a13.561,13.561,0,0,1-8.642-3.08l8.642-8.643,8.642,8.643A13.561,13.561,0,0,1,48.375,94.529Zm10.572-5.012-8.642-8.642,8.642-8.642a13.654,13.654,0,0,1,0,17.283Zm0,0" transform="translate(-26.529 -53.068)" fill="#002b45"/>
        <path id="Trazado_25391" data-name="Trazado 25391" d="M246.827,169.022l4.852,2.433a1.388,1.388,0,0,0,1.575-.263l4.5-4.5,4.5,4.5a1.338,1.338,0,0,0,1.1.393,1.365,1.365,0,0,0,1-.6l4.326-6.493L273,170.979l2.272-1.515-5.462-8.192a1.419,1.419,0,0,0-2.272,0L263,168.082l-4.285-4.284a1.366,1.366,0,0,0-1.931,0l-4.765,4.766-4.583-2.3a1.364,1.364,0,0,0-1.22,0l-3.486,1.75v-5.983H240v13.654a1.365,1.365,0,0,0,1.365,1.365h32.769v-2.731h-31.4V171.07Zm0,0" transform="translate(-199.038 -132.86)" fill="#002b45"/>
        <path id="Trazado_25392" data-name="Trazado 25392" d="M241.366,65.073h32.769V62.342h-31.4V59.09l4.1-2.048,4.852,2.433a1.365,1.365,0,0,0,1.746-.464l4.326-6.5L262.076,59a1.365,1.365,0,0,0,1,.612,1.333,1.333,0,0,0,1.1-.393l4.5-4.5,4.5,4.5L275.1,57.28l-5.462-5.462a1.366,1.366,0,0,0-1.931,0L263.423,56.1,258.886,49.3a1.419,1.419,0,0,0-2.272,0l-4.794,7.19-4.384-2.193a1.364,1.364,0,0,0-1.22,0l-3.486,1.743V50.053H240V63.707a1.365,1.365,0,0,0,1.365,1.365Zm0,0" transform="translate(-199.038 -39.996)" fill="#002b45"/>
      </g>
    </g>
  </g>
</svg>
