<svg xmlns="http://www.w3.org/2000/svg" width="150" height="150" viewBox="0 0 150 150">
  <g id="Grupo_29517" data-name="Grupo 29517" transform="translate(-284 -1809)">
    <g id="Elipse_1021" data-name="Elipse 1021" transform="translate(284 1809)" fill="#fff" stroke="#b869c3" stroke-width="7">
      <circle cx="75" cy="75" r="75" stroke="none"/>
      <circle cx="75" cy="75" r="71.5" fill="none"/>
    </g>
    <g id="Online_Shopping-Shopping-Smartphone-Shopping_Bag-Commerce" data-name="Online Shopping-Shopping-Smartphone-Shopping Bag-Commerce" transform="translate(318 1840)">
      <path id="Trazado_23141" data-name="Trazado 23141" d="M18,6h2.919V8.919H18Z" transform="translate(7.352 1.838)" fill="#002b45"/>
      <path id="Trazado_23142" data-name="Trazado 23142" d="M22,6H33.676V8.919H22Z" transform="translate(9.19 1.838)" fill="#002b45"/>
      <path id="Trazado_23143" data-name="Trazado 23143" d="M58.921,64.759a7.306,7.306,0,0,1-7.3,7.3H24.961l5.018-8.69a4.316,4.316,0,0,0-.248,1.392,4.379,4.379,0,0,0,4.379,4.379h5.838a4.379,4.379,0,0,0,0-8.757H34.109a4.367,4.367,0,0,0-3.55,1.835,5.823,5.823,0,0,0-10.406-5.183l-4.962,8.6a7.259,7.259,0,0,1-.055-.873V12.217a7.306,7.306,0,0,1,7.3-7.3h29.19a7.327,7.327,0,0,1,6.32,3.649l2.526-1.46A10.257,10.257,0,0,0,51.624,2H22.433A10.228,10.228,0,0,0,12.217,12.217V40.385a4.379,4.379,0,0,0-2.113,2.1L3.479,56.86A15.846,15.846,0,0,0,2,63.592V89.571H4.919V63.592a12.936,12.936,0,0,1,1.208-5.5l6.089-13.212V64.759a10.177,10.177,0,0,0,1.3,4.978,1.46,1.46,0,0,0,2.6.13l6.568-11.375a2.919,2.919,0,1,1,5.056,2.919L21.169,72.787a1.46,1.46,0,0,0,.013,1.483l3.126,5.2a7.324,7.324,0,0,1,1.044,3.763v6.328h2.919V83.228a10.233,10.233,0,0,0-1.459-5.265l-1.8-2.987H51.624A10.228,10.228,0,0,0,61.84,64.759v-7.3H58.921ZM34.109,63.3h5.838a1.46,1.46,0,0,1,0,2.919H34.109a1.46,1.46,0,0,1,0-2.919Z" transform="translate(0)" fill="#002b45"/>
      <path id="Trazado_23144" data-name="Trazado 23144" d="M73.58,16.962A23.352,23.352,0,0,0,32.757,39.016l-4.933,8.363a1.46,1.46,0,0,0,.058,1.576,1.487,1.487,0,0,0,1.474.6l9.531-1.781a23.263,23.263,0,0,0,11.5,5.59,24.228,24.228,0,0,0,4.072.35A23.352,23.352,0,0,0,73.58,16.962Zm.992,16.945A20.433,20.433,0,0,1,40.347,45.146a1.476,1.476,0,0,0-1.007-.394,1.586,1.586,0,0,0-.263.015l-7.108,1.328,3.678-6.218a1.521,1.521,0,0,0,.088-1.328,20.431,20.431,0,1,1,38.838-4.641Z" transform="translate(11.773 2.289)" fill="#002b45"/>
      <path id="Trazado_23145" data-name="Trazado 23145" d="M59.893,19.3H55.514v-1.46a5.838,5.838,0,0,0-11.676,0V19.3H39.46A1.46,1.46,0,0,0,38,20.757V38.271a4.392,4.392,0,0,0,4.379,4.379h14.6a4.392,4.392,0,0,0,4.379-4.379V20.757A1.46,1.46,0,0,0,59.893,19.3Zm-13.136-1.46a2.919,2.919,0,1,1,5.838,0V19.3H46.757ZM58.433,38.271a1.46,1.46,0,0,1-1.46,1.46h-14.6a1.46,1.46,0,0,1-1.46-1.46v-1.46H58.433Zm0-4.379H40.919V22.217h2.919v2.919h2.919V22.217H52.6v2.919h2.919V22.217h2.919Z" transform="translate(16.543 4.595)" fill="#002b45"/>
      <path id="Trazado_23146" data-name="Trazado 23146" d="M26.577,15.293l-2.248,2.248A7.319,7.319,0,1,0,26.393,19.6l2.248-2.248ZM24.69,23.622a4.379,4.379,0,1,1-4.379-4.379,4.307,4.307,0,0,1,1.875.438L17.82,24.049l2.064,2.064,4.368-4.365a4.307,4.307,0,0,1,.438,1.875Z" transform="translate(5.041 6.108)" fill="#002b45"/>
      <path id="Trazado_23147" data-name="Trazado 23147" d="M25,18h5.838v2.919H25Z" transform="translate(10.569 7.352)" fill="#002b45"/>
      <path id="Trazado_23148" data-name="Trazado 23148" d="M25,22h5.838v2.919H25Z" transform="translate(10.569 9.19)" fill="#002b45"/>
    </g>
  </g>
</svg>
