<svg xmlns="http://www.w3.org/2000/svg" width="690" height="345" viewBox="0 0 690 345">
  <g id="Grupo_30086" data-name="Grupo 30086" transform="translate(-254 -11242)">
    <path id="Trazado_25123" data-name="Trazado 25123" d="M0,0H236V63H0Z" transform="translate(254 11242)" fill="#b869c3"/>
    <path id="Trazado_25124" data-name="Trazado 25124" d="M0,0H236V85H0Z" transform="translate(254 11312)" fill="#e6eef3"/>
    <path id="Trazado_25113" data-name="Trazado 25113" d="M0,0H144V85H0Z" transform="translate(498 11312)" fill="#e6eef3"/>
    <path id="Trazado_25114" data-name="Trazado 25114" d="M0,0H144V85H0Z" transform="translate(649 11312)" fill="#e6eef3"/>
    <path id="Trazado_25115" data-name="Trazado 25115" d="M0,0H144V85H0Z" transform="translate(800 11312)" fill="#e6eef3"/>
    <path id="Trazado_25125" data-name="Trazado 25125" d="M0,0H236V85H0Z" transform="translate(254 11405)" fill="#f1f4f8"/>
    <path id="Trazado_25116" data-name="Trazado 25116" d="M0,0H144V85H0Z" transform="translate(498 11405)" fill="#f1f4f8"/>
    <path id="Trazado_25106" data-name="Trazado 25106" d="M0,0H144V85H0Z" transform="translate(649 11405)" fill="#f1f4f8"/>
    <path id="Trazado_25107" data-name="Trazado 25107" d="M0,0H144V85H0Z" transform="translate(800 11405)" fill="#f1f4f8"/>
    <path id="Trazado_25126" data-name="Trazado 25126" d="M0,0H236V85H0Z" transform="translate(254 11502)" fill="#e6d8e8"/>
    <path id="Trazado_25117" data-name="Trazado 25117" d="M0,0H144V85H0Z" transform="translate(498 11502)" fill="#e6d8e8"/>
    <path id="Trazado_25108" data-name="Trazado 25108" d="M0,0H144V85H0Z" transform="translate(649 11502)" fill="#e6d8e8"/>
    <path id="Trazado_25105" data-name="Trazado 25105" d="M0,0H144V85H0Z" transform="translate(800 11502)" fill="#e6d8e8"/>
    <path id="Trazado_25127" data-name="Trazado 25127" d="M0,0H144V63H0Z" transform="translate(498 11242)" fill="#b869c3"/>
    <path id="Trazado_25128" data-name="Trazado 25128" d="M0,0H144V63H0Z" transform="translate(649 11242)" fill="#b869c3"/>
    <path id="Trazado_25129" data-name="Trazado 25129" d="M0,0H144V63H0Z" transform="translate(800 11242)" fill="#b869c3"/>
    <path id="Trazado_25130" data-name="Trazado 25130" d="M79.865,19V4.889h5.107a7.962,7.962,0,0,1,2.944.508,5.423,5.423,0,0,1,2.109,1.44,6.266,6.266,0,0,1,1.25,2.222,9.172,9.172,0,0,1,.425,2.881,9.206,9.206,0,0,1-.425,2.891,6.266,6.266,0,0,1-1.25,2.222,5.423,5.423,0,0,1-2.109,1.44A7.962,7.962,0,0,1,84.973,19Zm2.93-2.588h2.031a3.466,3.466,0,0,0,2.852-1.147,5.143,5.143,0,0,0,.938-3.325,5.143,5.143,0,0,0-.937-3.325,3.466,3.466,0,0,0-2.852-1.147H82.795Zm19.834-8.945H97.395v3.2h4.639v2.549H97.395v3.193h5.234V19H94.445V4.889h8.184Zm11.2-2.578V7.467h-3.35V19h-2.9V7.467h-3.369V4.889ZM124.289,19l-1.025-2.91h-5.928L116.311,19h-3l5.2-14.111h3.584L127.287,19ZM118.2,13.639H122.4l-2.1-5.986Zm14.141,2.773h4.424V19h-7.354V4.889h2.93Zm9.59,0h4.424V19H139V4.889h2.93ZM156.77,7.467h-5.234v3.2h4.639v2.549h-4.639v3.193h5.234V19h-8.184V4.889h8.184Z" transform="translate(254 11261)" fill="#002b45"/>
    <path id="Trazado_25131" data-name="Trazado 25131" d="M66.969,17.167a6.574,6.574,0,0,1-2.435-.444,5.879,5.879,0,0,1-1.956-1.248,5.567,5.567,0,0,1-1.3-2.008,7.263,7.263,0,0,1-.47-2.663,7.144,7.144,0,0,1,.475-2.65A5.556,5.556,0,0,1,64.534,4.9a6.633,6.633,0,0,1,2.435-.439,6.287,6.287,0,0,1,3.292.87,5.421,5.421,0,0,1,2.175,2.417l-1.45.6a4.075,4.075,0,0,0-1.622-1.762,4.654,4.654,0,0,0-2.4-.62,4.921,4.921,0,0,0-1.8.325,4.317,4.317,0,0,0-1.459.932,4.206,4.206,0,0,0-.98,1.529,5.674,5.674,0,0,0-.356,2.057,5.71,5.71,0,0,0,.356,2.061,4.2,4.2,0,0,0,.98,1.534,4.374,4.374,0,0,0,1.459.936,4.863,4.863,0,0,0,1.8.33,4.654,4.654,0,0,0,2.4-.62,4.085,4.085,0,0,0,1.622-1.753l1.45.589A5.394,5.394,0,0,1,70.265,16.3,6.305,6.305,0,0,1,66.969,17.167Zm9.765,0a2.94,2.94,0,0,1-1.894-.593A2.13,2.13,0,0,1,74.1,14.8a2.517,2.517,0,0,1,.237-1.129,1.991,1.991,0,0,1,.7-.787,4.218,4.218,0,0,1,1.015-.488,9.384,9.384,0,0,1,1.314-.312l1.4-.229q.765-.141.765-.8a1.51,1.51,0,0,0-.541-1.288,2.2,2.2,0,0,0-1.367-.409,2.243,2.243,0,0,0-1.354.4,1.655,1.655,0,0,0-.642,1.213l-1.371-.29a2.639,2.639,0,0,1,1.081-1.85,4.039,4.039,0,0,1,2.355-.62,4.777,4.777,0,0,1,1.252.154,3.4,3.4,0,0,1,1.046.483,2.168,2.168,0,0,1,.747.932A3.466,3.466,0,0,1,81,11.2v3.568a1.46,1.46,0,0,0,.2.9.854.854,0,0,0,.681.233h.141V17h-.756a1.442,1.442,0,0,1-1.635-1.169h-.07A3.3,3.3,0,0,1,76.733,17.167Zm.352-1.23a2.305,2.305,0,0,0,1.854-.835,3.438,3.438,0,0,0,.7-2.285l-2.285.439a3.076,3.076,0,0,0-1.34.479,1.114,1.114,0,0,0-.435.945,1.1,1.1,0,0,0,.417.949A1.785,1.785,0,0,0,77.085,15.937ZM88.247,8.193a3.005,3.005,0,0,1,2.175.782,2.918,2.918,0,0,1,.813,2.206V17H89.715V11.524a2.043,2.043,0,0,0-.527-1.547,1.885,1.885,0,0,0-1.354-.5,2.09,2.09,0,0,0-1.538.593,2.407,2.407,0,0,0-.606,1.762V17H84.169V8.36h1.521V9.468A2.885,2.885,0,0,1,88.247,8.193ZM96.931,17a2.271,2.271,0,0,1-1.687-.62,2.344,2.344,0,0,1-.615-1.727V9.573H92.861V8.36h.65a1.249,1.249,0,0,0,.954-.3,1.492,1.492,0,0,0,.277-1.015V5.478h1.415V8.36h1.986V9.573H96.157V14.5a1.31,1.31,0,0,0,.33.954,1.154,1.154,0,0,0,.866.338h.791V17Zm4.184-10.67A1.035,1.035,0,0,1,100.086,5.3a.975.975,0,0,1,.3-.721,1,1,0,0,1,.725-.3.987.987,0,0,1,.716.3.975.975,0,0,1,.3.721.989.989,0,0,1-.3.725A.979.979,0,0,1,101.114,6.33ZM100.341,17V8.36h1.529V17Zm11-13.5h1.521V17H111.4l-.035-1.679a3.179,3.179,0,0,1-1.23,1.362,3.429,3.429,0,0,1-1.828.5,3.926,3.926,0,0,1-2.852-1.217,4.16,4.16,0,0,1-.87-1.428,5.225,5.225,0,0,1-.321-1.854,4.543,4.543,0,0,1,1.173-3.243,3.788,3.788,0,0,1,2.87-1.248,3.443,3.443,0,0,1,1.806.488A3.2,3.2,0,0,1,111.345,10ZM108.62,15.866a2.587,2.587,0,0,0,2.008-.91,3.283,3.283,0,0,0,.813-2.272,3.277,3.277,0,0,0-.817-2.268,2.586,2.586,0,0,0-2-.914,2.644,2.644,0,0,0-2.021.883,3.25,3.25,0,0,0-.817,2.3,3.25,3.25,0,0,0,.817,2.3A2.644,2.644,0,0,0,108.62,15.866Zm9.334,1.3a2.94,2.94,0,0,1-1.894-.593,2.13,2.13,0,0,1-.743-1.771,2.517,2.517,0,0,1,.237-1.129,1.991,1.991,0,0,1,.7-.787,4.218,4.218,0,0,1,1.015-.488,9.384,9.384,0,0,1,1.314-.312l1.4-.229q.765-.141.765-.8a1.51,1.51,0,0,0-.541-1.288,2.2,2.2,0,0,0-1.367-.409,2.243,2.243,0,0,0-1.354.4,1.655,1.655,0,0,0-.642,1.213l-1.371-.29a2.639,2.639,0,0,1,1.081-1.85,4.039,4.039,0,0,1,2.355-.62,4.777,4.777,0,0,1,1.252.154,3.4,3.4,0,0,1,1.046.483,2.168,2.168,0,0,1,.747.932,3.466,3.466,0,0,1,.268,1.419v3.568a1.46,1.46,0,0,0,.2.9.854.854,0,0,0,.681.233h.141V17h-.756a1.442,1.442,0,0,1-1.635-1.169h-.07A3.3,3.3,0,0,1,117.954,17.167Zm.352-1.23a2.305,2.305,0,0,0,1.854-.835,3.438,3.438,0,0,0,.7-2.285l-2.285.439a3.076,3.076,0,0,0-1.34.479,1.114,1.114,0,0,0-.435.945,1.1,1.1,0,0,0,.417.949A1.785,1.785,0,0,0,118.306,15.937ZM131.595,3.5h1.521V17h-1.468l-.035-1.679a3.179,3.179,0,0,1-1.23,1.362,3.429,3.429,0,0,1-1.828.5,3.926,3.926,0,0,1-2.852-1.217,4.16,4.16,0,0,1-.87-1.428,5.225,5.225,0,0,1-.321-1.854,4.543,4.543,0,0,1,1.173-3.243,3.788,3.788,0,0,1,2.87-1.248,3.443,3.443,0,0,1,1.806.488A3.2,3.2,0,0,1,131.595,10ZM128.87,15.866a2.587,2.587,0,0,0,2.008-.91,3.283,3.283,0,0,0,.813-2.272,3.277,3.277,0,0,0-.817-2.268,2.586,2.586,0,0,0-2-.914,2.644,2.644,0,0,0-2.021.883,3.25,3.25,0,0,0-.817,2.3,3.25,3.25,0,0,0,.817,2.3A2.644,2.644,0,0,0,128.87,15.866ZM147.266,3.5h1.521V17h-1.468l-.035-1.679a3.179,3.179,0,0,1-1.23,1.362,3.429,3.429,0,0,1-1.828.5,3.926,3.926,0,0,1-2.852-1.217,4.16,4.16,0,0,1-.87-1.428,5.225,5.225,0,0,1-.321-1.854,4.543,4.543,0,0,1,1.173-3.243,3.788,3.788,0,0,1,2.87-1.248,3.443,3.443,0,0,1,1.806.488A3.2,3.2,0,0,1,147.266,10Zm-2.725,12.366a2.587,2.587,0,0,0,2.008-.91,3.283,3.283,0,0,0,.813-2.272,3.277,3.277,0,0,0-.817-2.268,2.586,2.586,0,0,0-2-.914,2.644,2.644,0,0,0-2.021.883,3.25,3.25,0,0,0-.817,2.3,3.25,3.25,0,0,0,.817,2.3A2.644,2.644,0,0,0,144.541,15.866Zm14.9-3.357-.018.413h-6.75a3.053,3.053,0,0,0,.826,2.21,2.713,2.713,0,0,0,1.969.769,2.59,2.59,0,0,0,1.433-.413,2.68,2.68,0,0,0,.984-1.143l1.371.29a3.9,3.9,0,0,1-1.477,1.854,4.028,4.028,0,0,1-2.294.677,4.174,4.174,0,0,1-3.111-1.2,4.479,4.479,0,0,1-1.187-3.287A4.458,4.458,0,0,1,152.376,9.4a4.122,4.122,0,0,1,3.063-1.2,3.9,3.9,0,0,1,2.9,1.107A4.376,4.376,0,0,1,159.438,12.509Zm-4-3.146a2.694,2.694,0,0,0-1.8.611,2.8,2.8,0,0,0-.91,1.78h5.177a2.567,2.567,0,0,0-.756-1.78A2.441,2.441,0,0,0,155.439,9.362ZM37.767,32.193a2.886,2.886,0,0,1,2.136.8,3.1,3.1,0,0,1,.8,2.294V41H39.182V35.577a2.125,2.125,0,0,0-.527-1.591,1.878,1.878,0,0,0-1.362-.51,2.091,2.091,0,0,0-1.525.589,2.394,2.394,0,0,0-.611,1.767V41H33.636V27.5h1.521v6a2.81,2.81,0,0,1,1.085-.967A3.31,3.31,0,0,1,37.767,32.193Zm13.421,4.315-.018.413H44.42a3.053,3.053,0,0,0,.826,2.21,2.713,2.713,0,0,0,1.969.769,2.59,2.59,0,0,0,1.433-.413,2.68,2.68,0,0,0,.984-1.143l1.371.29a3.9,3.9,0,0,1-1.477,1.854,4.028,4.028,0,0,1-2.294.677,4.174,4.174,0,0,1-3.111-1.2,4.479,4.479,0,0,1-1.187-3.287A4.458,4.458,0,0,1,44.126,33.4a4.122,4.122,0,0,1,3.063-1.2,3.9,3.9,0,0,1,2.9,1.107A4.376,4.376,0,0,1,51.188,36.509Zm-4-3.146a2.694,2.694,0,0,0-1.8.611,2.8,2.8,0,0,0-.91,1.78h5.177a2.567,2.567,0,0,0-.756-1.78A2.441,2.441,0,0,0,47.189,33.362ZM53.57,41V27.5h1.538V41Zm6.627.167a2.94,2.94,0,0,1-1.894-.593A2.13,2.13,0,0,1,57.56,38.8a2.517,2.517,0,0,1,.237-1.129,1.991,1.991,0,0,1,.7-.787,4.218,4.218,0,0,1,1.015-.488,9.384,9.384,0,0,1,1.314-.312l1.4-.229q.765-.141.765-.8a1.51,1.51,0,0,0-.541-1.288,2.2,2.2,0,0,0-1.367-.409,2.243,2.243,0,0,0-1.354.4,1.655,1.655,0,0,0-.642,1.213l-1.371-.29a2.639,2.639,0,0,1,1.081-1.85,4.039,4.039,0,0,1,2.355-.62,4.777,4.777,0,0,1,1.252.154,3.4,3.4,0,0,1,1.046.483,2.168,2.168,0,0,1,.747.932,3.466,3.466,0,0,1,.268,1.419v3.568a1.46,1.46,0,0,0,.2.9.854.854,0,0,0,.681.233h.141V41h-.756A1.442,1.442,0,0,1,63.1,39.831h-.07A3.3,3.3,0,0,1,60.2,41.167Zm.352-1.23A2.305,2.305,0,0,0,62.4,39.1a3.438,3.438,0,0,0,.7-2.285l-2.285.439a3.076,3.076,0,0,0-1.34.479,1.114,1.114,0,0,0-.435.945,1.1,1.1,0,0,0,.417.949A1.785,1.785,0,0,0,60.548,39.937ZM73.837,27.5h1.521V41H73.89l-.035-1.679a3.179,3.179,0,0,1-1.23,1.362,3.429,3.429,0,0,1-1.828.5,3.926,3.926,0,0,1-2.852-1.217,4.16,4.16,0,0,1-.87-1.428,5.225,5.225,0,0,1-.321-1.854,4.543,4.543,0,0,1,1.173-3.243,3.788,3.788,0,0,1,2.87-1.248,3.443,3.443,0,0,1,1.806.488A3.2,3.2,0,0,1,73.837,34ZM71.113,39.866a2.587,2.587,0,0,0,2.008-.91,3.568,3.568,0,0,0,0-4.54,2.586,2.586,0,0,0-2-.914,2.644,2.644,0,0,0-2.021.883,3.64,3.64,0,0,0,0,4.6A2.644,2.644,0,0,0,71.113,39.866Zm10.978,1.3a4.554,4.554,0,0,1-2.215-.536,3.9,3.9,0,0,1-1.56-1.569,4.819,4.819,0,0,1-.576-2.386,4.4,4.4,0,0,1,1.226-3.256,4.6,4.6,0,0,1,6.253,0,4.41,4.41,0,0,1,1.222,3.256,4.413,4.413,0,0,1-1.226,3.265A4.232,4.232,0,0,1,82.09,41.167ZM82.082,39.9a2.654,2.654,0,0,0,2.043-.888,3.755,3.755,0,0,0,0-4.667,2.654,2.654,0,0,0-2.043-.888,2.617,2.617,0,0,0-2.026.888,3.788,3.788,0,0,0,0,4.667A2.617,2.617,0,0,0,82.082,39.9Zm9.475,1.266a4.1,4.1,0,0,1-2.329-.624,2.581,2.581,0,0,1-1.134-1.775l1.327-.378a1.851,1.851,0,0,0,.708,1.2,2.3,2.3,0,0,0,1.419.426,2.832,2.832,0,0,0,.831-.114,1.331,1.331,0,0,0,.637-.426,1.189,1.189,0,0,0,.185-1.143,1.526,1.526,0,0,0-.141-.286.87.87,0,0,0-.246-.237,3.245,3.245,0,0,0-.3-.185,3.067,3.067,0,0,0-.391-.163q-.259-.092-.417-.141t-.483-.141q-.325-.092-.5-.145a9.372,9.372,0,0,1-.9-.316A3.932,3.932,0,0,1,89.1,36.3a1.679,1.679,0,0,1-.567-.681,2.3,2.3,0,0,1-.189-.967,2.234,2.234,0,0,1,.422-1.38,2.374,2.374,0,0,1,1.094-.813,4.374,4.374,0,0,1,1.534-.25,3.754,3.754,0,0,1,2.1.563,2.4,2.4,0,0,1,1.05,1.688l-1.248.316a1.655,1.655,0,0,0-.659-1.094,2.1,2.1,0,0,0-1.239-.365,2.139,2.139,0,0,0-1.16.3,1.019,1.019,0,0,0-.483.927.923.923,0,0,0,.127.479,1.521,1.521,0,0,0,.259.338,1.594,1.594,0,0,0,.475.259q.343.136.51.185t.633.163q.088.026.132.035.51.132.831.233a5.105,5.105,0,0,1,.747.316,2.484,2.484,0,0,1,.672.47,2.178,2.178,0,0,1,.422.668,2.358,2.358,0,0,1,.176.932,2.516,2.516,0,0,1-.259,1.165,2.028,2.028,0,0,1-.708.8,3.422,3.422,0,0,1-1.006.435A4.8,4.8,0,0,1,91.556,41.167Zm14.81-8.974a3.93,3.93,0,0,1,1.564.316,3.848,3.848,0,0,1,1.283.888,4.149,4.149,0,0,1,.866,1.424,5.25,5.25,0,0,1,.321,1.863,4.568,4.568,0,0,1-1.165,3.261,3.782,3.782,0,0,1-2.87,1.239,3.42,3.42,0,0,1-1.806-.492,3.226,3.226,0,0,1-1.235-1.327v5.985H101.8V32.36h1.468l.035,1.679a3.163,3.163,0,0,1,1.23-1.349A3.452,3.452,0,0,1,106.366,32.193Zm-.3,7.673a2.623,2.623,0,0,0,2-.875,3.674,3.674,0,0,0,0-4.61,2.726,2.726,0,0,0-4.03.04,3.525,3.525,0,0,0,0,4.535A2.636,2.636,0,0,0,106.067,39.866Zm8.218-5.985a2.612,2.612,0,0,1,1.072-1.16,3.229,3.229,0,0,1,1.661-.457V33.7a2.846,2.846,0,0,0-2.008.642,2.68,2.68,0,0,0-.69,2.048V41H112.8V32.36h1.485Zm8.051,7.286a4.554,4.554,0,0,1-2.215-.536,3.9,3.9,0,0,1-1.56-1.569,4.819,4.819,0,0,1-.576-2.386,4.4,4.4,0,0,1,1.226-3.256,4.6,4.6,0,0,1,6.253,0,4.41,4.41,0,0,1,1.222,3.256,4.413,4.413,0,0,1-1.226,3.265A4.232,4.232,0,0,1,122.335,41.167Zm-.009-1.266a2.654,2.654,0,0,0,2.043-.888,3.755,3.755,0,0,0,0-4.667,2.654,2.654,0,0,0-2.043-.888,2.617,2.617,0,0,0-2.026.888,3.788,3.788,0,0,0,0,4.667A2.617,2.617,0,0,0,122.327,39.9Zm13.122-12.4h1.521V41H135.5l-.035-1.679a3.179,3.179,0,0,1-1.23,1.362,3.429,3.429,0,0,1-1.828.5,3.926,3.926,0,0,1-2.852-1.217,4.16,4.16,0,0,1-.87-1.428,5.225,5.225,0,0,1-.321-1.854,4.543,4.543,0,0,1,1.173-3.243,3.788,3.788,0,0,1,2.87-1.248,3.443,3.443,0,0,1,1.806.488A3.2,3.2,0,0,1,135.449,34Zm-2.725,12.366a2.587,2.587,0,0,0,2.008-.91,3.568,3.568,0,0,0,0-4.54,2.586,2.586,0,0,0-2-.914,2.644,2.644,0,0,0-2.021.883,3.64,3.64,0,0,0,0,4.6A2.644,2.644,0,0,0,132.724,39.866Zm12.718-7.506h1.521V41H145.5l-.035-1.143a2.7,2.7,0,0,1-1.072.971,3.3,3.3,0,0,1-1.512.338,3.005,3.005,0,0,1-2.175-.782,2.918,2.918,0,0,1-.813-2.206V32.36h1.521v5.476a2.05,2.05,0,0,0,.532,1.547,1.882,1.882,0,0,0,1.358.51,2.067,2.067,0,0,0,1.534-.6,2.434,2.434,0,0,0,.6-1.767Zm8.2,8.8a4.161,4.161,0,0,1-3.094-1.239,4.421,4.421,0,0,1-1.222-3.243,4.43,4.43,0,0,1,1.217-3.243,4.5,4.5,0,0,1,5.6-.483,3.815,3.815,0,0,1,1.455,2.1l-1.424.229a2.63,2.63,0,0,0-.976-1.345,2.656,2.656,0,0,0-1.564-.475,2.554,2.554,0,0,0-2,.888,3.835,3.835,0,0,0,0,4.654,2.56,2.56,0,0,0,2,.883,2.656,2.656,0,0,0,1.564-.475,2.63,2.63,0,0,0,.976-1.345l1.424.237a3.819,3.819,0,0,1-1.463,2.1A4.185,4.185,0,0,1,153.642,41.158Zm6.97-10.828a1.035,1.035,0,0,1-1.028-1.028.975.975,0,0,1,.3-.721,1,1,0,0,1,.725-.3.987.987,0,0,1,.716.3.975.975,0,0,1,.3.721.989.989,0,0,1-.3.725A.979.979,0,0,1,160.612,30.33ZM159.838,41V32.36h1.529V41Zm11-13.5h1.521V41H170.9l-.035-1.679a3.179,3.179,0,0,1-1.23,1.362,3.429,3.429,0,0,1-1.828.5,3.926,3.926,0,0,1-2.852-1.217,4.16,4.16,0,0,1-.87-1.428,5.225,5.225,0,0,1-.321-1.854,4.543,4.543,0,0,1,1.173-3.243,3.788,3.788,0,0,1,2.87-1.248,3.443,3.443,0,0,1,1.806.488A3.2,3.2,0,0,1,170.842,34Zm-2.725,12.366a2.587,2.587,0,0,0,2.008-.91,3.568,3.568,0,0,0,0-4.54,2.586,2.586,0,0,0-2-.914,2.644,2.644,0,0,0-2.021.883,3.64,3.64,0,0,0,0,4.6A2.644,2.644,0,0,0,168.118,39.866Zm10.978,1.3a4.554,4.554,0,0,1-2.215-.536,3.9,3.9,0,0,1-1.56-1.569,4.819,4.819,0,0,1-.576-2.386,4.4,4.4,0,0,1,1.226-3.256,4.6,4.6,0,0,1,6.253,0,4.41,4.41,0,0,1,1.222,3.256,4.413,4.413,0,0,1-1.226,3.265A4.232,4.232,0,0,1,179.1,41.167Zm-.009-1.266a2.654,2.654,0,0,0,2.043-.888,3.755,3.755,0,0,0,0-4.667,2.654,2.654,0,0,0-2.043-.888,2.617,2.617,0,0,0-2.026.888,3.788,3.788,0,0,0,0,4.667A2.617,2.617,0,0,0,179.086,39.9Zm9.475,1.266a4.1,4.1,0,0,1-2.329-.624,2.581,2.581,0,0,1-1.134-1.775l1.327-.378a1.851,1.851,0,0,0,.708,1.2,2.3,2.3,0,0,0,1.419.426,2.832,2.832,0,0,0,.831-.114,1.331,1.331,0,0,0,.637-.426,1.189,1.189,0,0,0,.185-1.143,1.526,1.526,0,0,0-.141-.286.87.87,0,0,0-.246-.237,3.245,3.245,0,0,0-.3-.185,3.067,3.067,0,0,0-.391-.163q-.259-.092-.417-.141t-.483-.141q-.325-.092-.5-.145a9.372,9.372,0,0,1-.9-.316,3.932,3.932,0,0,1-.729-.417,1.679,1.679,0,0,1-.567-.681,2.3,2.3,0,0,1-.189-.967,2.234,2.234,0,0,1,.422-1.38,2.374,2.374,0,0,1,1.094-.813,4.374,4.374,0,0,1,1.534-.25,3.754,3.754,0,0,1,2.1.563,2.4,2.4,0,0,1,1.05,1.688l-1.248.316a1.655,1.655,0,0,0-.659-1.094,2.1,2.1,0,0,0-1.239-.365,2.139,2.139,0,0,0-1.16.3,1.019,1.019,0,0,0-.483.927.923.923,0,0,0,.127.479,1.521,1.521,0,0,0,.259.338,1.594,1.594,0,0,0,.475.259q.343.136.51.185t.633.163q.088.026.132.035.51.132.831.233a5.105,5.105,0,0,1,.747.316,2.484,2.484,0,0,1,.672.47,2.178,2.178,0,0,1,.422.668,2.358,2.358,0,0,1,.176.932,2.516,2.516,0,0,1-.259,1.165,2.028,2.028,0,0,1-.708.8,3.422,3.422,0,0,1-1.006.435A4.8,4.8,0,0,1,188.561,41.167Z" transform="translate(254 11331)" fill="#00223d"/>
    <path id="Trazado_25118" data-name="Trazado 25118" d="M54,4.625h1.424V17h-1.5V6.286L50.946,8.861V7.235Zm7.857,12.551a.987.987,0,0,1-.716-.3,1.022,1.022,0,0,1,.716-1.74.994.994,0,0,1,.721.3,1,1,0,0,1,0,1.437A1,1,0,0,1,61.853,17.176Zm7.69-8.139a4.8,4.8,0,0,1,3.375,1.042,3.778,3.778,0,0,1,1.116,2.9,4.107,4.107,0,0,1-1.147,3.01,4.026,4.026,0,0,1-3,1.165,4.769,4.769,0,0,1-1.551-.25,4.19,4.19,0,0,1-1.31-.721,3.3,3.3,0,0,1-.914-1.217,4,4,0,0,1-.338-1.67,5.645,5.645,0,0,1,.044-.633l1.556-.132a6.186,6.186,0,0,0-.07.694,2.794,2.794,0,0,0,.224,1.151,1.968,1.968,0,0,0,.6.787,2.738,2.738,0,0,0,.813.426,2.968,2.968,0,0,0,.918.141,2.538,2.538,0,0,0,1.92-.756,2.69,2.69,0,0,0,.725-1.942,2.559,2.559,0,0,0-.751-1.951,3.368,3.368,0,0,0-2.377-.712H66.248l.765-5.73H73.5V6.058H68.3l-.4,2.979Zm10.424,8.13a3.447,3.447,0,0,1-3.05-1.617A8.623,8.623,0,0,1,75.845,10.8,8.662,8.662,0,0,1,76.9,6.066a3.705,3.705,0,0,1,6.113,0A8.637,8.637,0,0,1,84.081,10.8,8.6,8.6,0,0,1,83,15.545,3.44,3.44,0,0,1,79.967,17.167Zm0-1.406a2.093,2.093,0,0,0,1.925-1.239A8.08,8.08,0,0,0,82.56,10.8a7.851,7.851,0,0,0-.681-3.713,2.115,2.115,0,0,0-3.828,0,7.891,7.891,0,0,0-.677,3.718,8.122,8.122,0,0,0,.664,3.722A2.091,2.091,0,0,0,79.967,15.761ZM90.1,17.167a3.447,3.447,0,0,1-3.05-1.617A8.623,8.623,0,0,1,85.979,10.8a8.662,8.662,0,0,1,1.059-4.737,3.705,3.705,0,0,1,6.113,0A8.637,8.637,0,0,1,94.214,10.8a8.6,8.6,0,0,1-1.077,4.742A3.44,3.44,0,0,1,90.1,17.167Zm0-1.406a2.093,2.093,0,0,0,1.925-1.239,8.08,8.08,0,0,0,.668-3.718,7.851,7.851,0,0,0-.681-3.713,2.115,2.115,0,0,0-3.828,0,7.891,7.891,0,0,0-.677,3.718,8.122,8.122,0,0,0,.664,3.722A2.091,2.091,0,0,0,90.1,15.761Z" transform="translate(498 11343)" fill="#00223d"/>
    <path id="Trazado_25119" data-name="Trazado 25119" d="M53.4,13.643a3.482,3.482,0,0,1-.316,1.516,2.866,2.866,0,0,1-.883,1.085,4.319,4.319,0,0,1-1.292.65,6.34,6.34,0,0,1-1.586.272v1.125H48.5V17.167a5.154,5.154,0,0,1-2.861-.967,3.7,3.7,0,0,1-1.455-2.3l1.6-.387a2.6,2.6,0,0,0,.932,1.564,3.345,3.345,0,0,0,1.784.712V11.3l-.088-.026q-.51-.141-.831-.237t-.773-.268a4.781,4.781,0,0,1-.734-.338,5.472,5.472,0,0,1-.6-.422,2.129,2.129,0,0,1-.5-.549,2.915,2.915,0,0,1-.3-.694,3.064,3.064,0,0,1-.119-.875,3.34,3.34,0,0,1,.316-1.472,2.9,2.9,0,0,1,.861-1.068,4.181,4.181,0,0,1,1.252-.642A5.282,5.282,0,0,1,48.5,4.467V3.3h.826v1.2a5.107,5.107,0,0,1,2.54.888,3.363,3.363,0,0,1,1.345,2.083l-1.521.4a2.389,2.389,0,0,0-.826-1.371,3.053,3.053,0,0,0-1.538-.624v4.219q.4.105.659.18t.637.2a5.953,5.953,0,0,1,.633.237q.25.114.571.286a2.835,2.835,0,0,1,.523.347,4.765,4.765,0,0,1,.422.422,2.109,2.109,0,0,1,.347.523,3.181,3.181,0,0,1,.207.624A3.337,3.337,0,0,1,53.4,13.643ZM46.134,7.877a1.546,1.546,0,0,0,.176.747,1.53,1.53,0,0,0,.527.554,4.108,4.108,0,0,0,.729.378q.378.149.932.308V5.829a3,3,0,0,0-1.683.563A1.741,1.741,0,0,0,46.134,7.877Zm3.19,7.928a3.263,3.263,0,0,0,1.8-.589,1.756,1.756,0,0,0,.668-1.529,1.79,1.79,0,0,0-.193-.809,1.662,1.662,0,0,0-.554-.6,4.427,4.427,0,0,0-.765-.417,9.313,9.313,0,0,0-.958-.334ZM59.81,17.167q-4.122,0-4.122-4.4l1.547-.079a3.864,3.864,0,0,0,.58,2.329,2.339,2.339,0,0,0,2,.773,2.742,2.742,0,0,0,1.92-.668,2.254,2.254,0,0,0,.734-1.749,2.232,2.232,0,0,0-.708-1.74,2.537,2.537,0,0,0-1.771-.642H59.37V9.7h.6a1.831,1.831,0,0,0,1.354-.571,1.927,1.927,0,0,0,.563-1.406,1.733,1.733,0,0,0-.6-1.362,2.188,2.188,0,0,0-1.5-.527,2.392,2.392,0,0,0-.989.185,1.388,1.388,0,0,0-.628.541,2.548,2.548,0,0,0-.316.787,4.611,4.611,0,0,0-.1,1L56.206,8.29a4.007,4.007,0,0,1,.927-2.839,3.436,3.436,0,0,1,2.641-.993,3.669,3.669,0,0,1,2.536.905,2.893,2.893,0,0,1,1.015,2.25,2.71,2.71,0,0,1-.492,1.608,2.812,2.812,0,0,1-1.239,1,3.421,3.421,0,0,1,1.74,1.134,3.179,3.179,0,0,1,.677,2.083,3.4,3.4,0,0,1-1.182,2.7A4.434,4.434,0,0,1,59.81,17.167Zm8.033.009a.987.987,0,0,1-.716-.3,1.022,1.022,0,0,1,.716-1.74.994.994,0,0,1,.721.3,1,1,0,0,1,0,1.437A1,1,0,0,1,67.843,17.176Zm7.69-8.139a4.8,4.8,0,0,1,3.375,1.042,3.778,3.778,0,0,1,1.116,2.9,4.107,4.107,0,0,1-1.147,3.01,4.026,4.026,0,0,1-3,1.165,4.769,4.769,0,0,1-1.551-.25,4.19,4.19,0,0,1-1.31-.721A3.3,3.3,0,0,1,72.1,14.97a4,4,0,0,1-.338-1.67,5.645,5.645,0,0,1,.044-.633l1.556-.132a6.186,6.186,0,0,0-.07.694,2.794,2.794,0,0,0,.224,1.151,1.968,1.968,0,0,0,.6.787,2.738,2.738,0,0,0,.813.426,2.968,2.968,0,0,0,.918.141,2.538,2.538,0,0,0,1.92-.756,2.69,2.69,0,0,0,.725-1.942,2.559,2.559,0,0,0-.751-1.951,3.368,3.368,0,0,0-2.377-.712H72.237L73,4.643h6.486V6.058h-5.2l-.4,2.979Zm10.424,8.13a3.447,3.447,0,0,1-3.05-1.617A8.623,8.623,0,0,1,81.835,10.8a8.662,8.662,0,0,1,1.059-4.737,3.705,3.705,0,0,1,6.113,0A8.637,8.637,0,0,1,90.07,10.8a8.6,8.6,0,0,1-1.077,4.742A3.44,3.44,0,0,1,85.957,17.167Zm0-1.406a2.093,2.093,0,0,0,1.925-1.239A8.08,8.08,0,0,0,88.55,10.8a7.851,7.851,0,0,0-.681-3.713,2.115,2.115,0,0,0-3.828,0,7.891,7.891,0,0,0-.677,3.718,8.122,8.122,0,0,0,.664,3.722A2.091,2.091,0,0,0,85.957,15.761Zm10.134,1.406a3.447,3.447,0,0,1-3.05-1.617A8.623,8.623,0,0,1,91.969,10.8a8.662,8.662,0,0,1,1.059-4.737,3.705,3.705,0,0,1,6.113,0A8.637,8.637,0,0,1,100.2,10.8a8.6,8.6,0,0,1-1.077,4.742A3.44,3.44,0,0,1,96.091,17.167Zm0-1.406a2.093,2.093,0,0,0,1.925-1.239,8.08,8.08,0,0,0,.668-3.718A7.851,7.851,0,0,0,98,7.09a2.115,2.115,0,0,0-3.828,0A7.891,7.891,0,0,0,93.5,10.8a8.122,8.122,0,0,0,.664,3.722A2.091,2.091,0,0,0,96.091,15.761Z" transform="translate(498 11437)" fill="#00223d"/>
    <path id="Trazado_25120" data-name="Trazado 25120" d="M35.934,13.643a3.482,3.482,0,0,1-.316,1.516,2.866,2.866,0,0,1-.883,1.085,4.319,4.319,0,0,1-1.292.65,6.34,6.34,0,0,1-1.586.272v1.125H31.03V17.167a5.154,5.154,0,0,1-2.861-.967,3.7,3.7,0,0,1-1.455-2.3l1.6-.387a2.6,2.6,0,0,0,.932,1.564,3.345,3.345,0,0,0,1.784.712V11.3l-.088-.026q-.51-.141-.831-.237t-.773-.268a4.781,4.781,0,0,1-.734-.338,5.472,5.472,0,0,1-.6-.422,2.129,2.129,0,0,1-.5-.549,2.915,2.915,0,0,1-.3-.694,3.064,3.064,0,0,1-.119-.875A3.34,3.34,0,0,1,27.4,6.422a2.9,2.9,0,0,1,.861-1.068,4.181,4.181,0,0,1,1.252-.642,5.282,5.282,0,0,1,1.516-.246V3.3h.826v1.2a5.107,5.107,0,0,1,2.54.888,3.363,3.363,0,0,1,1.345,2.083l-1.521.4a2.389,2.389,0,0,0-.826-1.371,3.053,3.053,0,0,0-1.538-.624v4.219q.4.105.659.18t.637.2a5.953,5.953,0,0,1,.633.237q.25.114.571.286a2.835,2.835,0,0,1,.523.347,4.765,4.765,0,0,1,.422.422,2.109,2.109,0,0,1,.347.523,3.181,3.181,0,0,1,.207.624A3.337,3.337,0,0,1,35.934,13.643ZM28.666,7.877a1.546,1.546,0,0,0,.176.747,1.53,1.53,0,0,0,.527.554,4.108,4.108,0,0,0,.729.378q.378.149.932.308V5.829a3,3,0,0,0-1.683.563A1.741,1.741,0,0,0,28.666,7.877Zm3.19,7.928a3.263,3.263,0,0,0,1.8-.589,1.756,1.756,0,0,0,.668-1.529,1.79,1.79,0,0,0-.193-.809,1.662,1.662,0,0,0-.554-.6,4.427,4.427,0,0,0-.765-.417,9.313,9.313,0,0,0-.958-.334ZM42.139,9.037a4.8,4.8,0,0,1,3.375,1.042,3.778,3.778,0,0,1,1.116,2.9,4.107,4.107,0,0,1-1.147,3.01,4.026,4.026,0,0,1-3,1.165,4.769,4.769,0,0,1-1.551-.25,4.19,4.19,0,0,1-1.31-.721,3.3,3.3,0,0,1-.914-1.217,4,4,0,0,1-.338-1.67,5.645,5.645,0,0,1,.044-.633l1.556-.132a6.186,6.186,0,0,0-.07.694,2.794,2.794,0,0,0,.224,1.151,1.968,1.968,0,0,0,.6.787,2.738,2.738,0,0,0,.813.426,2.968,2.968,0,0,0,.918.141,2.538,2.538,0,0,0,1.92-.756,2.69,2.69,0,0,0,.725-1.942,2.559,2.559,0,0,0-.751-1.951,3.368,3.368,0,0,0-2.377-.712H38.843l.765-5.73h6.486V6.058h-5.2l-.4,2.979Zm8.235,8.139a.987.987,0,0,1-.716-.3,1.022,1.022,0,0,1,.716-1.74.994.994,0,0,1,.721.3,1,1,0,0,1,0,1.437A1,1,0,0,1,50.375,17.176ZM56.351,15.6h6.161V17h-8.35V15.849l4.957-5.124a5.872,5.872,0,0,0,1.116-1.468,2.928,2.928,0,0,0,.308-1.274,2.136,2.136,0,0,0-.624-1.639A2.548,2.548,0,0,0,56.61,6.4a2.741,2.741,0,0,0-.628,1.991V9.3L54.461,9.16V8.4a3.912,3.912,0,0,1,1.046-2.94,4.33,4.33,0,0,1,5.48-.075,3.27,3.27,0,0,1,1.05,2.566,3.892,3.892,0,0,1-.417,1.789,7.689,7.689,0,0,1-1.34,1.78ZM68.2,9.037a4.8,4.8,0,0,1,3.375,1.042,3.778,3.778,0,0,1,1.116,2.9,4.107,4.107,0,0,1-1.147,3.01,4.026,4.026,0,0,1-3,1.165,4.769,4.769,0,0,1-1.551-.25,4.19,4.19,0,0,1-1.31-.721,3.3,3.3,0,0,1-.914-1.217,4,4,0,0,1-.338-1.67,5.645,5.645,0,0,1,.044-.633l1.556-.132a6.186,6.186,0,0,0-.07.694,2.794,2.794,0,0,0,.224,1.151,1.968,1.968,0,0,0,.6.787,2.738,2.738,0,0,0,.813.426,2.968,2.968,0,0,0,.918.141,2.538,2.538,0,0,0,1.92-.756,2.69,2.69,0,0,0,.725-1.942,2.559,2.559,0,0,0-.751-1.951,3.368,3.368,0,0,0-2.377-.712H64.9l.765-5.73h6.486V6.058h-5.2l-.4,2.979Zm10.424,8.13a3.447,3.447,0,0,1-3.05-1.617A8.623,8.623,0,0,1,74.5,10.8,8.662,8.662,0,0,1,75.56,6.066a3.705,3.705,0,0,1,6.113,0A8.637,8.637,0,0,1,82.736,10.8a8.6,8.6,0,0,1-1.077,4.742A3.44,3.44,0,0,1,78.623,17.167Zm0-1.406a2.093,2.093,0,0,0,1.925-1.239,8.08,8.08,0,0,0,.668-3.718,7.851,7.851,0,0,0-.681-3.713,2.115,2.115,0,0,0-3.828,0A7.891,7.891,0,0,0,76.03,10.8a8.122,8.122,0,0,0,.664,3.722A2.091,2.091,0,0,0,78.623,15.761Zm6.688,1.415a.987.987,0,0,1-.716-.3,1.022,1.022,0,0,1,.716-1.74.994.994,0,0,1,.721.3,1,1,0,0,1,0,1.437A1,1,0,0,1,85.311,17.176Zm7.98-.009a3.447,3.447,0,0,1-3.05-1.617A8.623,8.623,0,0,1,89.169,10.8a8.662,8.662,0,0,1,1.059-4.737,3.705,3.705,0,0,1,6.113,0A8.637,8.637,0,0,1,97.4,10.8a8.6,8.6,0,0,1-1.077,4.742A3.44,3.44,0,0,1,93.292,17.167Zm0-1.406a2.093,2.093,0,0,0,1.925-1.239,8.08,8.08,0,0,0,.668-3.718A7.851,7.851,0,0,0,95.2,7.09a2.115,2.115,0,0,0-3.828,0A7.891,7.891,0,0,0,90.7,10.8a8.122,8.122,0,0,0,.664,3.722A2.091,2.091,0,0,0,93.292,15.761Zm10.134,1.406a3.447,3.447,0,0,1-3.05-1.617A8.623,8.623,0,0,1,99.3,10.8a8.662,8.662,0,0,1,1.059-4.737,3.705,3.705,0,0,1,6.113,0,8.637,8.637,0,0,1,1.063,4.733,8.6,8.6,0,0,1-1.077,4.742A3.44,3.44,0,0,1,103.425,17.167Zm0-1.406a2.093,2.093,0,0,0,1.925-1.239,8.08,8.08,0,0,0,.668-3.718,7.851,7.851,0,0,0-.681-3.713,2.115,2.115,0,0,0-3.828,0,7.891,7.891,0,0,0-.677,3.718,8.122,8.122,0,0,0,.664,3.722A2.091,2.091,0,0,0,103.425,15.761Zm10.134,1.406a3.447,3.447,0,0,1-3.05-1.617,8.623,8.623,0,0,1-1.072-4.746A8.662,8.662,0,0,1,110.5,6.066a3.705,3.705,0,0,1,6.113,0,8.637,8.637,0,0,1,1.063,4.733,8.6,8.6,0,0,1-1.077,4.742A3.44,3.44,0,0,1,113.559,17.167Zm0-1.406a2.093,2.093,0,0,0,1.925-1.239,8.08,8.08,0,0,0,.668-3.718,7.851,7.851,0,0,0-.681-3.713,2.115,2.115,0,0,0-3.828,0,7.891,7.891,0,0,0-.677,3.718,8.122,8.122,0,0,0,.664,3.722A2.091,2.091,0,0,0,113.559,15.761Z" transform="translate(498 11534)" fill="#00223d"/>
    <path id="Trazado_25121" data-name="Trazado 25121" d="M54,4.625h1.424V17h-1.5V6.286L50.946,8.861V7.235Zm7.857,12.551a.987.987,0,0,1-.716-.3,1.022,1.022,0,0,1,.716-1.74.994.994,0,0,1,.721.3,1,1,0,0,1,0,1.437A1,1,0,0,1,61.853,17.176Zm12.252-4.3a4.176,4.176,0,0,1-.562,2.224,3.974,3.974,0,0,1-1.556,1.512,4.437,4.437,0,0,1-2.145.527,4.32,4.32,0,0,1-3.076-1.165,3.934,3.934,0,0,1-1.239-3A4.873,4.873,0,0,1,66.6,10l4.14-5.379h1.793L69.1,8.958a3.853,3.853,0,0,1,1.072-.149,3.933,3.933,0,0,1,1.9.475,3.8,3.8,0,0,1,1.45,1.419A4.242,4.242,0,0,1,74.1,12.878Zm-4.3,2.848a2.688,2.688,0,0,0,2.813-2.874A2.719,2.719,0,0,0,69.781,10a2.66,2.66,0,0,0-2.021.848,2.842,2.842,0,0,0-.782,2.07,2.739,2.739,0,0,0,.8,2.065A2.834,2.834,0,0,0,69.807,15.726Zm9.87-6.688a4.8,4.8,0,0,1,3.375,1.042,3.778,3.778,0,0,1,1.116,2.9,4.107,4.107,0,0,1-1.147,3.01,4.026,4.026,0,0,1-3,1.165,4.769,4.769,0,0,1-1.551-.25,4.19,4.19,0,0,1-1.31-.721,3.3,3.3,0,0,1-.914-1.217,4,4,0,0,1-.338-1.67,5.645,5.645,0,0,1,.044-.633l1.556-.132a6.186,6.186,0,0,0-.07.694,2.794,2.794,0,0,0,.224,1.151,1.968,1.968,0,0,0,.6.787,2.738,2.738,0,0,0,.813.426,2.968,2.968,0,0,0,.918.141,2.538,2.538,0,0,0,1.92-.756,2.69,2.69,0,0,0,.725-1.942,2.559,2.559,0,0,0-.751-1.951,3.368,3.368,0,0,0-2.377-.712H76.381l.765-5.73h6.486V6.058h-5.2l-.4,2.979ZM90.1,17.167a3.447,3.447,0,0,1-3.05-1.617A8.623,8.623,0,0,1,85.979,10.8a8.662,8.662,0,0,1,1.059-4.737,3.705,3.705,0,0,1,6.113,0A8.637,8.637,0,0,1,94.214,10.8a8.6,8.6,0,0,1-1.077,4.742A3.44,3.44,0,0,1,90.1,17.167Zm0-1.406a2.093,2.093,0,0,0,1.925-1.239,8.08,8.08,0,0,0,.668-3.718,7.851,7.851,0,0,0-.681-3.713,2.115,2.115,0,0,0-3.828,0,7.891,7.891,0,0,0-.677,3.718,8.122,8.122,0,0,0,.664,3.722A2.091,2.091,0,0,0,90.1,15.761Z" transform="translate(649 11343)" fill="#00223d"/>
    <path id="Trazado_25109" data-name="Trazado 25109" d="M53.4,13.643a3.482,3.482,0,0,1-.316,1.516,2.866,2.866,0,0,1-.883,1.085,4.319,4.319,0,0,1-1.292.65,6.34,6.34,0,0,1-1.586.272v1.125H48.5V17.167a5.154,5.154,0,0,1-2.861-.967,3.7,3.7,0,0,1-1.455-2.3l1.6-.387a2.6,2.6,0,0,0,.932,1.564,3.345,3.345,0,0,0,1.784.712V11.3l-.088-.026q-.51-.141-.831-.237t-.773-.268a4.781,4.781,0,0,1-.734-.338,5.472,5.472,0,0,1-.6-.422,2.129,2.129,0,0,1-.5-.549,2.915,2.915,0,0,1-.3-.694,3.064,3.064,0,0,1-.119-.875,3.34,3.34,0,0,1,.316-1.472,2.9,2.9,0,0,1,.861-1.068,4.181,4.181,0,0,1,1.252-.642A5.282,5.282,0,0,1,48.5,4.467V3.3h.826v1.2a5.107,5.107,0,0,1,2.54.888,3.363,3.363,0,0,1,1.345,2.083l-1.521.4a2.389,2.389,0,0,0-.826-1.371,3.053,3.053,0,0,0-1.538-.624v4.219q.4.105.659.18t.637.2a5.953,5.953,0,0,1,.633.237q.25.114.571.286a2.835,2.835,0,0,1,.523.347,4.765,4.765,0,0,1,.422.422,2.109,2.109,0,0,1,.347.523,3.181,3.181,0,0,1,.207.624A3.337,3.337,0,0,1,53.4,13.643ZM46.134,7.877a1.546,1.546,0,0,0,.176.747,1.53,1.53,0,0,0,.527.554,4.108,4.108,0,0,0,.729.378q.378.149.932.308V5.829a3,3,0,0,0-1.683.563A1.741,1.741,0,0,0,46.134,7.877Zm3.19,7.928a3.263,3.263,0,0,0,1.8-.589,1.756,1.756,0,0,0,.668-1.529,1.79,1.79,0,0,0-.193-.809,1.662,1.662,0,0,0-.554-.6,4.427,4.427,0,0,0-.765-.417,9.313,9.313,0,0,0-.958-.334ZM59.81,17.167q-4.122,0-4.122-4.4l1.547-.079a3.864,3.864,0,0,0,.58,2.329,2.339,2.339,0,0,0,2,.773,2.742,2.742,0,0,0,1.92-.668,2.254,2.254,0,0,0,.734-1.749,2.232,2.232,0,0,0-.708-1.74,2.537,2.537,0,0,0-1.771-.642H59.37V9.7h.6a1.831,1.831,0,0,0,1.354-.571,1.927,1.927,0,0,0,.563-1.406,1.733,1.733,0,0,0-.6-1.362,2.188,2.188,0,0,0-1.5-.527,2.392,2.392,0,0,0-.989.185,1.388,1.388,0,0,0-.628.541,2.548,2.548,0,0,0-.316.787,4.611,4.611,0,0,0-.1,1L56.206,8.29a4.007,4.007,0,0,1,.927-2.839,3.436,3.436,0,0,1,2.641-.993,3.669,3.669,0,0,1,2.536.905,2.893,2.893,0,0,1,1.015,2.25,2.71,2.71,0,0,1-.492,1.608,2.812,2.812,0,0,1-1.239,1,3.421,3.421,0,0,1,1.74,1.134,3.179,3.179,0,0,1,.677,2.083,3.4,3.4,0,0,1-1.182,2.7A4.434,4.434,0,0,1,59.81,17.167Zm8.033.009a.987.987,0,0,1-.716-.3,1.022,1.022,0,0,1,.716-1.74.994.994,0,0,1,.721.3,1,1,0,0,1,0,1.437A1,1,0,0,1,67.843,17.176ZM71.613,4.625h8.464V5.9L74.03,17H72.29l6.1-10.969H71.613Zm14.432,0h1.424V17h-1.5V6.286L83,8.861V7.235ZM96.091,17.167a3.447,3.447,0,0,1-3.05-1.617A8.623,8.623,0,0,1,91.969,10.8a8.662,8.662,0,0,1,1.059-4.737,3.705,3.705,0,0,1,6.113,0A8.637,8.637,0,0,1,100.2,10.8a8.6,8.6,0,0,1-1.077,4.742A3.44,3.44,0,0,1,96.091,17.167Zm0-1.406a2.093,2.093,0,0,0,1.925-1.239,8.08,8.08,0,0,0,.668-3.718A7.851,7.851,0,0,0,98,7.09a2.115,2.115,0,0,0-3.828,0A7.891,7.891,0,0,0,93.5,10.8a8.122,8.122,0,0,0,.664,3.722A2.091,2.091,0,0,0,96.091,15.761Z" transform="translate(649 11437)" fill="#00223d"/>
    <path id="Trazado_25110" data-name="Trazado 25110" d="M35.306,13.643a3.482,3.482,0,0,1-.316,1.516,2.866,2.866,0,0,1-.883,1.085,4.319,4.319,0,0,1-1.292.65,6.34,6.34,0,0,1-1.586.272v1.125H30.4V17.167a5.154,5.154,0,0,1-2.861-.967,3.7,3.7,0,0,1-1.455-2.3l1.6-.387a2.6,2.6,0,0,0,.932,1.564,3.345,3.345,0,0,0,1.784.712V11.3l-.088-.026q-.51-.141-.831-.237t-.773-.268a4.781,4.781,0,0,1-.734-.338,5.472,5.472,0,0,1-.6-.422,2.129,2.129,0,0,1-.5-.549,2.915,2.915,0,0,1-.3-.694,3.064,3.064,0,0,1-.119-.875,3.34,3.34,0,0,1,.316-1.472,2.9,2.9,0,0,1,.861-1.068,4.181,4.181,0,0,1,1.252-.642A5.282,5.282,0,0,1,30.4,4.467V3.3h.826v1.2a5.107,5.107,0,0,1,2.54.888,3.363,3.363,0,0,1,1.345,2.083l-1.521.4a2.389,2.389,0,0,0-.826-1.371,3.053,3.053,0,0,0-1.538-.624v4.219q.4.105.659.18t.637.2a5.953,5.953,0,0,1,.633.237q.25.114.571.286a2.835,2.835,0,0,1,.523.347,4.765,4.765,0,0,1,.422.422,2.109,2.109,0,0,1,.347.523,3.181,3.181,0,0,1,.207.624A3.337,3.337,0,0,1,35.306,13.643ZM28.037,7.877a1.546,1.546,0,0,0,.176.747,1.53,1.53,0,0,0,.527.554,4.108,4.108,0,0,0,.729.378q.378.149.932.308V5.829a3,3,0,0,0-1.683.563A1.741,1.741,0,0,0,28.037,7.877Zm3.19,7.928a3.263,3.263,0,0,0,1.8-.589,1.756,1.756,0,0,0,.668-1.529,1.79,1.79,0,0,0-.193-.809,1.662,1.662,0,0,0-.554-.6,4.427,4.427,0,0,0-.765-.417,9.313,9.313,0,0,0-.958-.334Zm14.845-2.927A4.176,4.176,0,0,1,45.51,15.1a3.974,3.974,0,0,1-1.556,1.512,4.437,4.437,0,0,1-2.145.527,4.32,4.32,0,0,1-3.076-1.165,3.934,3.934,0,0,1-1.239-3A4.873,4.873,0,0,1,38.566,10l4.14-5.379H44.5L41.063,8.958a3.853,3.853,0,0,1,1.072-.149,3.933,3.933,0,0,1,1.9.475,3.8,3.8,0,0,1,1.45,1.419A4.242,4.242,0,0,1,46.072,12.878Zm-4.3,2.848a2.688,2.688,0,0,0,2.813-2.874A2.719,2.719,0,0,0,41.748,10a2.66,2.66,0,0,0-2.021.848,2.842,2.842,0,0,0-.782,2.07,2.739,2.739,0,0,0,.8,2.065A2.834,2.834,0,0,0,41.774,15.726Zm7.972,1.45a.987.987,0,0,1-.716-.3,1.022,1.022,0,0,1,.716-1.74.994.994,0,0,1,.721.3,1,1,0,0,1,0,1.437A1,1,0,0,1,49.746,17.176ZM57.814,4.625h1.424V17h-1.5V6.286L54.765,8.861V7.235ZM65.856,15.6h6.161V17h-8.35V15.849l4.957-5.124a5.872,5.872,0,0,0,1.116-1.468,2.928,2.928,0,0,0,.308-1.274,2.136,2.136,0,0,0-.624-1.639,2.548,2.548,0,0,0-3.309.053,2.741,2.741,0,0,0-.628,1.991V9.3L63.967,9.16V8.4a3.912,3.912,0,0,1,1.046-2.94,4.33,4.33,0,0,1,5.48-.075,3.27,3.27,0,0,1,1.05,2.566,3.892,3.892,0,0,1-.417,1.789,7.689,7.689,0,0,1-1.34,1.78ZM78.082,4.625h1.424V17H78V6.286L75.032,8.861V7.235Zm7.857,12.551a.987.987,0,0,1-.716-.3,1.022,1.022,0,0,1,.716-1.74.994.994,0,0,1,.721.3,1,1,0,0,1,0,1.437A1,1,0,0,1,85.939,17.176Zm7.69-8.139A4.8,4.8,0,0,1,97,10.079a3.778,3.778,0,0,1,1.116,2.9,4.107,4.107,0,0,1-1.147,3.01,4.026,4.026,0,0,1-3,1.165,4.769,4.769,0,0,1-1.551-.25,4.19,4.19,0,0,1-1.31-.721A3.3,3.3,0,0,1,90.2,14.97a4,4,0,0,1-.338-1.67,5.645,5.645,0,0,1,.044-.633l1.556-.132a6.186,6.186,0,0,0-.07.694,2.794,2.794,0,0,0,.224,1.151,1.968,1.968,0,0,0,.6.787,2.738,2.738,0,0,0,.813.426,2.968,2.968,0,0,0,.918.141,2.538,2.538,0,0,0,1.92-.756,2.69,2.69,0,0,0,.725-1.942,2.559,2.559,0,0,0-.751-1.951,3.368,3.368,0,0,0-2.377-.712H90.334l.765-5.73h6.486V6.058h-5.2l-.4,2.979Zm10.424,8.13A3.447,3.447,0,0,1,101,15.55,8.623,8.623,0,0,1,99.932,10.8a8.662,8.662,0,0,1,1.059-4.737,3.705,3.705,0,0,1,6.113,0,8.637,8.637,0,0,1,1.063,4.733,8.6,8.6,0,0,1-1.077,4.742A3.44,3.44,0,0,1,104.054,17.167Zm0-1.406a2.093,2.093,0,0,0,1.925-1.239,8.08,8.08,0,0,0,.668-3.718,7.851,7.851,0,0,0-.681-3.713,2.115,2.115,0,0,0-3.828,0,7.891,7.891,0,0,0-.677,3.718,8.122,8.122,0,0,0,.664,3.722A2.091,2.091,0,0,0,104.054,15.761Zm10.134,1.406a3.447,3.447,0,0,1-3.05-1.617,8.623,8.623,0,0,1-1.072-4.746,8.662,8.662,0,0,1,1.059-4.737,3.705,3.705,0,0,1,6.113,0A8.637,8.637,0,0,1,118.3,10.8a8.6,8.6,0,0,1-1.077,4.742A3.44,3.44,0,0,1,114.188,17.167Zm0-1.406a2.093,2.093,0,0,0,1.925-1.239,8.08,8.08,0,0,0,.668-3.718A7.851,7.851,0,0,0,116.1,7.09a2.115,2.115,0,0,0-3.828,0,7.891,7.891,0,0,0-.677,3.718,8.122,8.122,0,0,0,.664,3.722A2.091,2.091,0,0,0,114.188,15.761Z" transform="translate(649 11534)" fill="#00223d"/>
    <path id="Trazado_25122" data-name="Trazado 25122" d="M54,4.625h1.424V17h-1.5V6.286L50.946,8.861V7.235Zm7.857,12.551a.987.987,0,0,1-.716-.3,1.022,1.022,0,0,1,.716-1.74.994.994,0,0,1,.721.3,1,1,0,0,1,0,1.437A1,1,0,0,1,61.853,17.176Zm10.986-1.028a4.913,4.913,0,0,1-6,0,3.369,3.369,0,0,1-1.2-2.694,3.329,3.329,0,0,1,.624-2.021,3.577,3.577,0,0,1,1.7-1.248,3.056,3.056,0,0,1-1.217-1.059A2.694,2.694,0,0,1,66.292,7.6,2.861,2.861,0,0,1,67.3,5.341a3.72,3.72,0,0,1,2.54-.883,3.655,3.655,0,0,1,2.509.888A2.87,2.87,0,0,1,73.358,7.6a2.753,2.753,0,0,1-.439,1.525,2.974,2.974,0,0,1-1.2,1.059,3.647,3.647,0,0,1,1.688,1.252,3.31,3.31,0,0,1,.624,2.017A3.371,3.371,0,0,1,72.839,16.147Zm-3-6.469a2.094,2.094,0,0,0,1.5-.58,1.887,1.887,0,0,0,.611-1.424,1.826,1.826,0,0,0-.611-1.393,2.288,2.288,0,0,0-3.01,0,1.829,1.829,0,0,0-.606,1.4A1.887,1.887,0,0,0,68.335,9.1,2.105,2.105,0,0,0,69.842,9.679Zm0,6.082a2.756,2.756,0,0,0,1.9-.677,2.283,2.283,0,0,0,.76-1.793,2.237,2.237,0,0,0-.76-1.767,2.778,2.778,0,0,0-1.9-.668,2.807,2.807,0,0,0-1.916.668,2.231,2.231,0,0,0-.765,1.767,2.277,2.277,0,0,0,.765,1.793A2.785,2.785,0,0,0,69.842,15.761Zm9.835-6.724a4.8,4.8,0,0,1,3.375,1.042,3.778,3.778,0,0,1,1.116,2.9,4.107,4.107,0,0,1-1.147,3.01,4.026,4.026,0,0,1-3,1.165,4.769,4.769,0,0,1-1.551-.25,4.19,4.19,0,0,1-1.31-.721,3.3,3.3,0,0,1-.914-1.217,4,4,0,0,1-.338-1.67,5.645,5.645,0,0,1,.044-.633l1.556-.132a6.186,6.186,0,0,0-.07.694,2.794,2.794,0,0,0,.224,1.151,1.968,1.968,0,0,0,.6.787,2.738,2.738,0,0,0,.813.426,2.968,2.968,0,0,0,.918.141,2.538,2.538,0,0,0,1.92-.756,2.69,2.69,0,0,0,.725-1.942,2.559,2.559,0,0,0-.751-1.951,3.368,3.368,0,0,0-2.377-.712H76.381l.765-5.73h6.486V6.058h-5.2l-.4,2.979ZM90.1,17.167a3.447,3.447,0,0,1-3.05-1.617A8.623,8.623,0,0,1,85.979,10.8a8.662,8.662,0,0,1,1.059-4.737,3.705,3.705,0,0,1,6.113,0A8.637,8.637,0,0,1,94.214,10.8a8.6,8.6,0,0,1-1.077,4.742A3.44,3.44,0,0,1,90.1,17.167Zm0-1.406a2.093,2.093,0,0,0,1.925-1.239,8.08,8.08,0,0,0,.668-3.718,7.851,7.851,0,0,0-.681-3.713,2.115,2.115,0,0,0-3.828,0,7.891,7.891,0,0,0-.677,3.718,8.122,8.122,0,0,0,.664,3.722A2.091,2.091,0,0,0,90.1,15.761Z" transform="translate(800 11343)" fill="#00223d"/>
    <path id="Trazado_25111" data-name="Trazado 25111" d="M53.4,13.643a3.482,3.482,0,0,1-.316,1.516,2.866,2.866,0,0,1-.883,1.085,4.319,4.319,0,0,1-1.292.65,6.34,6.34,0,0,1-1.586.272v1.125H48.5V17.167a5.154,5.154,0,0,1-2.861-.967,3.7,3.7,0,0,1-1.455-2.3l1.6-.387a2.6,2.6,0,0,0,.932,1.564,3.345,3.345,0,0,0,1.784.712V11.3l-.088-.026q-.51-.141-.831-.237t-.773-.268a4.781,4.781,0,0,1-.734-.338,5.472,5.472,0,0,1-.6-.422,2.129,2.129,0,0,1-.5-.549,2.915,2.915,0,0,1-.3-.694,3.064,3.064,0,0,1-.119-.875,3.34,3.34,0,0,1,.316-1.472,2.9,2.9,0,0,1,.861-1.068,4.181,4.181,0,0,1,1.252-.642A5.282,5.282,0,0,1,48.5,4.467V3.3h.826v1.2a5.107,5.107,0,0,1,2.54.888,3.363,3.363,0,0,1,1.345,2.083l-1.521.4a2.389,2.389,0,0,0-.826-1.371,3.053,3.053,0,0,0-1.538-.624v4.219q.4.105.659.18t.637.2a5.953,5.953,0,0,1,.633.237q.25.114.571.286a2.835,2.835,0,0,1,.523.347,4.765,4.765,0,0,1,.422.422,2.109,2.109,0,0,1,.347.523,3.181,3.181,0,0,1,.207.624A3.337,3.337,0,0,1,53.4,13.643ZM46.134,7.877a1.546,1.546,0,0,0,.176.747,1.53,1.53,0,0,0,.527.554,4.108,4.108,0,0,0,.729.378q.378.149.932.308V5.829a3,3,0,0,0-1.683.563A1.741,1.741,0,0,0,46.134,7.877Zm3.19,7.928a3.263,3.263,0,0,0,1.8-.589,1.756,1.756,0,0,0,.668-1.529,1.79,1.79,0,0,0-.193-.809,1.662,1.662,0,0,0-.554-.6,4.427,4.427,0,0,0-.765-.417,9.313,9.313,0,0,0-.958-.334ZM59.81,17.167q-4.122,0-4.122-4.4l1.547-.079a3.864,3.864,0,0,0,.58,2.329,2.339,2.339,0,0,0,2,.773,2.742,2.742,0,0,0,1.92-.668,2.254,2.254,0,0,0,.734-1.749,2.232,2.232,0,0,0-.708-1.74,2.537,2.537,0,0,0-1.771-.642H59.37V9.7h.6a1.831,1.831,0,0,0,1.354-.571,1.927,1.927,0,0,0,.563-1.406,1.733,1.733,0,0,0-.6-1.362,2.188,2.188,0,0,0-1.5-.527,2.392,2.392,0,0,0-.989.185,1.388,1.388,0,0,0-.628.541,2.548,2.548,0,0,0-.316.787,4.611,4.611,0,0,0-.1,1L56.206,8.29a4.007,4.007,0,0,1,.927-2.839,3.436,3.436,0,0,1,2.641-.993,3.669,3.669,0,0,1,2.536.905,2.893,2.893,0,0,1,1.015,2.25,2.71,2.71,0,0,1-.492,1.608,2.812,2.812,0,0,1-1.239,1,3.421,3.421,0,0,1,1.74,1.134,3.179,3.179,0,0,1,.677,2.083,3.4,3.4,0,0,1-1.182,2.7A4.434,4.434,0,0,1,59.81,17.167Zm8.033.009a.987.987,0,0,1-.716-.3,1.022,1.022,0,0,1,.716-1.74.994.994,0,0,1,.721.3,1,1,0,0,1,0,1.437A1,1,0,0,1,67.843,17.176ZM75.8,4.484a4.324,4.324,0,0,1,3.072,1.165,3.927,3.927,0,0,1,1.244,3,4.873,4.873,0,0,1-1.081,2.971L74.892,17H73.072l3.419-4.307a3.992,3.992,0,0,1-1.037.132,3.8,3.8,0,0,1-3.331-1.9,4.225,4.225,0,0,1-.589-2.167,4.445,4.445,0,0,1,.321-1.745,3.84,3.84,0,0,1,.91-1.354A4.235,4.235,0,0,1,74.131,4.8,4.476,4.476,0,0,1,75.8,4.484Zm-1.964,6.372a2.805,2.805,0,0,0,2.026.773,2.646,2.646,0,0,0,2.017-.848,2.85,2.85,0,0,0,.778-2.07,2.763,2.763,0,0,0-.8-2.057,3.066,3.066,0,0,0-4.056.04,2.733,2.733,0,0,0-.787,2.087A2.8,2.8,0,0,0,73.833,10.856Zm12.037,6.311q-4.122,0-4.122-4.4l1.547-.079a3.864,3.864,0,0,0,.58,2.329,2.339,2.339,0,0,0,2,.773,2.742,2.742,0,0,0,1.92-.668,2.254,2.254,0,0,0,.734-1.749,2.232,2.232,0,0,0-.708-1.74,2.537,2.537,0,0,0-1.771-.642H85.43V9.7h.6a1.831,1.831,0,0,0,1.354-.571,1.927,1.927,0,0,0,.563-1.406,1.733,1.733,0,0,0-.6-1.362,2.188,2.188,0,0,0-1.5-.527,2.392,2.392,0,0,0-.989.185,1.388,1.388,0,0,0-.628.541,2.548,2.548,0,0,0-.316.787,4.611,4.611,0,0,0-.1,1L82.266,8.29a4.007,4.007,0,0,1,.927-2.839,3.436,3.436,0,0,1,2.641-.993,3.669,3.669,0,0,1,2.536.905,2.893,2.893,0,0,1,1.015,2.25,2.71,2.71,0,0,1-.492,1.608,2.812,2.812,0,0,1-1.239,1,3.421,3.421,0,0,1,1.74,1.134,3.179,3.179,0,0,1,.677,2.083,3.4,3.4,0,0,1-1.182,2.7A4.434,4.434,0,0,1,85.869,17.167ZM94.087,15.6h6.161V17H91.9V15.849l4.957-5.124a5.872,5.872,0,0,0,1.116-1.468,2.928,2.928,0,0,0,.308-1.274,2.136,2.136,0,0,0-.624-1.639,2.548,2.548,0,0,0-3.309.053,2.741,2.741,0,0,0-.628,1.991V9.3L92.2,9.16V8.4a3.912,3.912,0,0,1,1.046-2.94,4.33,4.33,0,0,1,5.48-.075,3.27,3.27,0,0,1,1.05,2.566,3.892,3.892,0,0,1-.417,1.789,7.689,7.689,0,0,1-1.34,1.78Z" transform="translate(800 11437)" fill="#00223d"/>
    <path id="Trazado_25112" data-name="Trazado 25112" d="M35.306,13.643a3.482,3.482,0,0,1-.316,1.516,2.866,2.866,0,0,1-.883,1.085,4.319,4.319,0,0,1-1.292.65,6.34,6.34,0,0,1-1.586.272v1.125H30.4V17.167a5.154,5.154,0,0,1-2.861-.967,3.7,3.7,0,0,1-1.455-2.3l1.6-.387a2.6,2.6,0,0,0,.932,1.564,3.345,3.345,0,0,0,1.784.712V11.3l-.088-.026q-.51-.141-.831-.237t-.773-.268a4.781,4.781,0,0,1-.734-.338,5.472,5.472,0,0,1-.6-.422,2.129,2.129,0,0,1-.5-.549,2.915,2.915,0,0,1-.3-.694,3.064,3.064,0,0,1-.119-.875,3.34,3.34,0,0,1,.316-1.472,2.9,2.9,0,0,1,.861-1.068,4.181,4.181,0,0,1,1.252-.642A5.282,5.282,0,0,1,30.4,4.467V3.3h.826v1.2a5.107,5.107,0,0,1,2.54.888,3.363,3.363,0,0,1,1.345,2.083l-1.521.4a2.389,2.389,0,0,0-.826-1.371,3.053,3.053,0,0,0-1.538-.624v4.219q.4.105.659.18t.637.2a5.953,5.953,0,0,1,.633.237q.25.114.571.286a2.835,2.835,0,0,1,.523.347,4.765,4.765,0,0,1,.422.422,2.109,2.109,0,0,1,.347.523,3.181,3.181,0,0,1,.207.624A3.337,3.337,0,0,1,35.306,13.643ZM28.037,7.877a1.546,1.546,0,0,0,.176.747,1.53,1.53,0,0,0,.527.554,4.108,4.108,0,0,0,.729.378q.378.149.932.308V5.829a3,3,0,0,0-1.683.563A1.741,1.741,0,0,0,28.037,7.877Zm3.19,7.928a3.263,3.263,0,0,0,1.8-.589,1.756,1.756,0,0,0,.668-1.529,1.79,1.79,0,0,0-.193-.809,1.662,1.662,0,0,0-.554-.6,4.427,4.427,0,0,0-.765-.417,9.313,9.313,0,0,0-.958-.334Zm6.363-11.18h8.464V5.9L40.008,17h-1.74l6.1-10.969H37.591ZM49.746,17.176a.987.987,0,0,1-.716-.3,1.022,1.022,0,0,1,.716-1.74.994.994,0,0,1,.721.3,1,1,0,0,1,0,1.437A1,1,0,0,1,49.746,17.176ZM57.814,4.625h1.424V17h-1.5V6.286L54.765,8.861V7.235Zm9.958,12.542q-4.122,0-4.122-4.4l1.547-.079a3.864,3.864,0,0,0,.58,2.329,2.339,2.339,0,0,0,2,.773,2.742,2.742,0,0,0,1.92-.668,2.254,2.254,0,0,0,.734-1.749,2.232,2.232,0,0,0-.708-1.74,2.537,2.537,0,0,0-1.771-.642h-.615V9.7h.6a1.831,1.831,0,0,0,1.354-.571,1.927,1.927,0,0,0,.563-1.406,1.733,1.733,0,0,0-.6-1.362,2.188,2.188,0,0,0-1.5-.527,2.392,2.392,0,0,0-.989.185,1.388,1.388,0,0,0-.628.541,2.548,2.548,0,0,0-.316.787,4.611,4.611,0,0,0-.1,1L64.169,8.29A4.007,4.007,0,0,1,65.1,5.451a3.436,3.436,0,0,1,2.641-.993,3.669,3.669,0,0,1,2.536.905,2.893,2.893,0,0,1,1.015,2.25A2.71,2.71,0,0,1,70.8,9.222a2.812,2.812,0,0,1-1.239,1,3.421,3.421,0,0,1,1.74,1.134,3.179,3.179,0,0,1,.677,2.083,3.4,3.4,0,0,1-1.182,2.7A4.434,4.434,0,0,1,67.772,17.167Zm14.493-4.289A4.176,4.176,0,0,1,81.7,15.1a3.974,3.974,0,0,1-1.556,1.512A4.437,4.437,0,0,1,78,17.141a4.32,4.32,0,0,1-3.076-1.165,3.934,3.934,0,0,1-1.239-3A4.873,4.873,0,0,1,74.76,10L78.9,4.625h1.793L77.256,8.958a3.853,3.853,0,0,1,1.072-.149,3.933,3.933,0,0,1,1.9.475,3.8,3.8,0,0,1,1.45,1.419A4.242,4.242,0,0,1,82.266,12.878Zm-4.3,2.848a2.688,2.688,0,0,0,2.813-2.874A2.719,2.719,0,0,0,77.941,10a2.66,2.66,0,0,0-2.021.848,2.842,2.842,0,0,0-.782,2.07,2.739,2.739,0,0,0,.8,2.065A2.834,2.834,0,0,0,77.968,15.726Zm7.972,1.45a.987.987,0,0,1-.716-.3,1.022,1.022,0,0,1,.716-1.74.994.994,0,0,1,.721.3,1,1,0,0,1,0,1.437A1,1,0,0,1,85.939,17.176Zm7.69-8.139A4.8,4.8,0,0,1,97,10.079a3.778,3.778,0,0,1,1.116,2.9,4.107,4.107,0,0,1-1.147,3.01,4.026,4.026,0,0,1-3,1.165,4.769,4.769,0,0,1-1.551-.25,4.19,4.19,0,0,1-1.31-.721A3.3,3.3,0,0,1,90.2,14.97a4,4,0,0,1-.338-1.67,5.645,5.645,0,0,1,.044-.633l1.556-.132a6.186,6.186,0,0,0-.07.694,2.794,2.794,0,0,0,.224,1.151,1.968,1.968,0,0,0,.6.787,2.738,2.738,0,0,0,.813.426,2.968,2.968,0,0,0,.918.141,2.538,2.538,0,0,0,1.92-.756,2.69,2.69,0,0,0,.725-1.942,2.559,2.559,0,0,0-.751-1.951,3.368,3.368,0,0,0-2.377-.712H90.334l.765-5.73h6.486V6.058h-5.2l-.4,2.979Zm13.43,7.11a4.913,4.913,0,0,1-6,0,3.369,3.369,0,0,1-1.2-2.694,3.329,3.329,0,0,1,.624-2.021,3.577,3.577,0,0,1,1.7-1.248,3.056,3.056,0,0,1-1.217-1.059,2.694,2.694,0,0,1-.453-1.525,2.861,2.861,0,0,1,1.011-2.254,3.72,3.72,0,0,1,2.54-.883,3.655,3.655,0,0,1,2.509.888,2.87,2.87,0,0,1,1.006,2.25,2.753,2.753,0,0,1-.439,1.525,2.974,2.974,0,0,1-1.2,1.059,3.647,3.647,0,0,1,1.688,1.252,3.31,3.31,0,0,1,.624,2.017A3.371,3.371,0,0,1,107.06,16.147Zm-3-6.469a2.094,2.094,0,0,0,1.5-.58,1.887,1.887,0,0,0,.611-1.424,1.826,1.826,0,0,0-.611-1.393,2.288,2.288,0,0,0-3.01,0,1.829,1.829,0,0,0-.606,1.4,1.887,1.887,0,0,0,.611,1.424A2.105,2.105,0,0,0,104.063,9.679Zm0,6.082a2.756,2.756,0,0,0,1.9-.677,2.283,2.283,0,0,0,.76-1.793,2.237,2.237,0,0,0-.76-1.767,2.778,2.778,0,0,0-1.9-.668,2.807,2.807,0,0,0-1.916.668,2.231,2.231,0,0,0-.765,1.767,2.277,2.277,0,0,0,.765,1.793A2.785,2.785,0,0,0,104.063,15.761Zm10.125,1.406a3.447,3.447,0,0,1-3.05-1.617,8.623,8.623,0,0,1-1.072-4.746,8.662,8.662,0,0,1,1.059-4.737,3.705,3.705,0,0,1,6.113,0A8.637,8.637,0,0,1,118.3,10.8a8.6,8.6,0,0,1-1.077,4.742A3.44,3.44,0,0,1,114.188,17.167Zm0-1.406a2.093,2.093,0,0,0,1.925-1.239,8.08,8.08,0,0,0,.668-3.718A7.851,7.851,0,0,0,116.1,7.09a2.115,2.115,0,0,0-3.828,0,7.891,7.891,0,0,0-.677,3.718,8.122,8.122,0,0,0,.664,3.722A2.091,2.091,0,0,0,114.188,15.761Z" transform="translate(800 11534)" fill="#00223d"/>
    <path id="Trazado_25132" data-name="Trazado 25132" d="M66.02,4.625h1.661L63.146,17H61.528L56.993,4.625h1.652l3.691,10.406Zm4.834,12.542a2.94,2.94,0,0,1-1.894-.593,2.13,2.13,0,0,1-.743-1.771,2.517,2.517,0,0,1,.237-1.129,1.991,1.991,0,0,1,.7-.787,4.218,4.218,0,0,1,1.015-.488,9.384,9.384,0,0,1,1.314-.312l1.4-.229q.765-.141.765-.8a1.51,1.51,0,0,0-.541-1.288,2.2,2.2,0,0,0-1.367-.409,2.243,2.243,0,0,0-1.354.4,1.655,1.655,0,0,0-.642,1.213l-1.371-.29a2.639,2.639,0,0,1,1.081-1.85,4.039,4.039,0,0,1,2.355-.62,4.777,4.777,0,0,1,1.252.154,3.4,3.4,0,0,1,1.046.483,2.168,2.168,0,0,1,.747.932,3.466,3.466,0,0,1,.268,1.419v3.568a1.46,1.46,0,0,0,.2.9A.854.854,0,0,0,76,15.9h.141V17h-.756a1.442,1.442,0,0,1-1.635-1.169h-.07A3.3,3.3,0,0,1,70.854,17.167Zm.352-1.23A2.305,2.305,0,0,0,73.06,15.1a3.438,3.438,0,0,0,.7-2.285l-2.285.439a3.076,3.076,0,0,0-1.34.479,1.114,1.114,0,0,0-.435.945,1.1,1.1,0,0,0,.417.949A1.785,1.785,0,0,0,71.205,15.937ZM78.289,17V3.5h1.538V17Zm8.271.167a4.554,4.554,0,0,1-2.215-.536,3.9,3.9,0,0,1-1.56-1.569,4.819,4.819,0,0,1-.576-2.386,4.4,4.4,0,0,1,1.226-3.256,4.6,4.6,0,0,1,6.253,0,4.41,4.41,0,0,1,1.222,3.256,4.413,4.413,0,0,1-1.226,3.265A4.232,4.232,0,0,1,86.56,17.167ZM86.551,15.9a2.654,2.654,0,0,0,2.043-.888,3.326,3.326,0,0,0,.813-2.338,3.314,3.314,0,0,0-.813-2.329,2.654,2.654,0,0,0-2.043-.888,2.617,2.617,0,0,0-2.026.888,3.336,3.336,0,0,0-.8,2.329,3.348,3.348,0,0,0,.8,2.338A2.617,2.617,0,0,0,86.551,15.9Zm8.227-6.021a2.612,2.612,0,0,1,1.072-1.16,3.229,3.229,0,0,1,1.661-.457V9.7a2.846,2.846,0,0,0-2.008.642,2.68,2.68,0,0,0-.69,2.048V17H93.292V8.36h1.485ZM109.35,8.36h1.521V17h-1.459l-.035-1.143a2.7,2.7,0,0,1-1.072.971,3.3,3.3,0,0,1-1.512.338,3.005,3.005,0,0,1-2.175-.782,2.918,2.918,0,0,1-.813-2.206V8.36h1.521v5.476a2.05,2.05,0,0,0,.532,1.547,1.882,1.882,0,0,0,1.358.51,2.067,2.067,0,0,0,1.534-.6,2.434,2.434,0,0,0,.6-1.767Zm8.692-.167a3.005,3.005,0,0,1,2.175.782,2.918,2.918,0,0,1,.813,2.206V17H119.51V11.524a2.043,2.043,0,0,0-.527-1.547,1.885,1.885,0,0,0-1.354-.5,2.09,2.09,0,0,0-1.538.593,2.407,2.407,0,0,0-.606,1.762V17h-1.521V8.36h1.521V9.468A2.885,2.885,0,0,1,118.042,8.193Zm6.7-1.863A1.035,1.035,0,0,1,123.711,5.3a.975.975,0,0,1,.3-.721,1,1,0,0,1,.725-.3.987.987,0,0,1,.716.3.975.975,0,0,1,.3.721.989.989,0,0,1-.3.725A.979.979,0,0,1,124.739,6.33ZM123.966,17V8.36H125.5V17Zm7.383,0a2.271,2.271,0,0,1-1.687-.62,2.344,2.344,0,0,1-.615-1.727V9.573h-1.767V8.36h.65a1.249,1.249,0,0,0,.954-.3,1.492,1.492,0,0,0,.277-1.015V5.478h1.415V8.36h1.986V9.573h-1.986V14.5a1.31,1.31,0,0,0,.33.954,1.154,1.154,0,0,0,.866.338h.791V17Zm5.3.167a2.94,2.94,0,0,1-1.894-.593,2.13,2.13,0,0,1-.743-1.771,2.517,2.517,0,0,1,.237-1.129,1.991,1.991,0,0,1,.7-.787,4.218,4.218,0,0,1,1.015-.488,9.384,9.384,0,0,1,1.314-.312l1.4-.229q.765-.141.765-.8a1.51,1.51,0,0,0-.541-1.288,2.2,2.2,0,0,0-1.367-.409,2.243,2.243,0,0,0-1.354.4,1.655,1.655,0,0,0-.642,1.213l-1.371-.29a2.639,2.639,0,0,1,1.081-1.85,4.039,4.039,0,0,1,2.355-.62,4.777,4.777,0,0,1,1.252.154,3.4,3.4,0,0,1,1.046.483,2.168,2.168,0,0,1,.747.932,3.466,3.466,0,0,1,.268,1.419v3.568a1.46,1.46,0,0,0,.2.9.854.854,0,0,0,.681.233h.141V17h-.756a1.442,1.442,0,0,1-1.635-1.169h-.07A3.3,3.3,0,0,1,136.648,17.167Zm.352-1.23a2.305,2.305,0,0,0,1.854-.835,3.438,3.438,0,0,0,.7-2.285l-2.285.439a3.076,3.076,0,0,0-1.34.479,1.114,1.114,0,0,0-.435.945,1.1,1.1,0,0,0,.417.949A1.785,1.785,0,0,0,137,15.937Zm8.569-6.056a2.612,2.612,0,0,1,1.072-1.16,3.229,3.229,0,0,1,1.661-.457V9.7a2.846,2.846,0,0,0-2.008.642,2.68,2.68,0,0,0-.69,2.048V17h-1.521V8.36h1.485ZM150.86,6.33A1.035,1.035,0,0,1,149.832,5.3a.975.975,0,0,1,.3-.721,1,1,0,0,1,.725-.3.987.987,0,0,1,.716.3.975.975,0,0,1,.3.721.989.989,0,0,1-.3.725A.979.979,0,0,1,150.86,6.33ZM150.087,17V8.36h1.529V17Zm8.262.167a4.554,4.554,0,0,1-2.215-.536,3.9,3.9,0,0,1-1.56-1.569A4.819,4.819,0,0,1,154,12.676a4.4,4.4,0,0,1,1.226-3.256,4.6,4.6,0,0,1,6.253,0,4.41,4.41,0,0,1,1.222,3.256,4.413,4.413,0,0,1-1.226,3.265A4.232,4.232,0,0,1,158.349,17.167ZM158.34,15.9a2.654,2.654,0,0,0,2.043-.888,3.326,3.326,0,0,0,.813-2.338,3.314,3.314,0,0,0-.813-2.329,2.654,2.654,0,0,0-2.043-.888,2.617,2.617,0,0,0-2.026.888,3.336,3.336,0,0,0-.8,2.329,3.348,3.348,0,0,0,.8,2.338A2.617,2.617,0,0,0,158.34,15.9Z" transform="translate(254 11437)" fill="#00223d"/>
    <path id="Trazado_25133" data-name="Trazado 25133" d="M78.293,4.625h1.661L75.419,17H73.8L69.267,4.625h1.652l3.691,10.406Zm4.834,12.542a2.94,2.94,0,0,1-1.894-.593,2.13,2.13,0,0,1-.743-1.771,2.517,2.517,0,0,1,.237-1.129,1.991,1.991,0,0,1,.7-.787,4.218,4.218,0,0,1,1.015-.488,9.384,9.384,0,0,1,1.314-.312l1.4-.229q.765-.141.765-.8a1.51,1.51,0,0,0-.541-1.288,2.2,2.2,0,0,0-1.367-.409,2.243,2.243,0,0,0-1.354.4,1.655,1.655,0,0,0-.642,1.213l-1.371-.29a2.639,2.639,0,0,1,1.081-1.85,4.039,4.039,0,0,1,2.355-.62,4.777,4.777,0,0,1,1.252.154,3.4,3.4,0,0,1,1.046.483,2.168,2.168,0,0,1,.747.932A3.466,3.466,0,0,1,87.4,11.2v3.568a1.46,1.46,0,0,0,.2.9.854.854,0,0,0,.681.233h.141V17h-.756a1.442,1.442,0,0,1-1.635-1.169h-.07A3.3,3.3,0,0,1,83.127,17.167Zm.352-1.23a2.305,2.305,0,0,0,1.854-.835,3.438,3.438,0,0,0,.7-2.285l-2.285.439a3.076,3.076,0,0,0-1.34.479,1.114,1.114,0,0,0-.435.945,1.1,1.1,0,0,0,.417.949A1.785,1.785,0,0,0,83.479,15.937ZM90.563,17V3.5H92.1V17Zm8.271.167a4.554,4.554,0,0,1-2.215-.536,3.9,3.9,0,0,1-1.56-1.569,4.819,4.819,0,0,1-.576-2.386,4.4,4.4,0,0,1,1.226-3.256,4.6,4.6,0,0,1,6.253,0,4.41,4.41,0,0,1,1.222,3.256,4.413,4.413,0,0,1-1.226,3.265A4.232,4.232,0,0,1,98.833,17.167ZM98.825,15.9a2.654,2.654,0,0,0,2.043-.888,3.326,3.326,0,0,0,.813-2.338,3.314,3.314,0,0,0-.813-2.329,2.654,2.654,0,0,0-2.043-.888,2.617,2.617,0,0,0-2.026.888,3.336,3.336,0,0,0-.8,2.329,3.348,3.348,0,0,0,.8,2.338A2.617,2.617,0,0,0,98.825,15.9Zm8.227-6.021a2.612,2.612,0,0,1,1.072-1.16,3.229,3.229,0,0,1,1.661-.457V9.7a2.846,2.846,0,0,0-2.008.642,2.68,2.68,0,0,0-.69,2.048V17h-1.521V8.36h1.485ZM119,17a2.271,2.271,0,0,1-1.687-.62,2.344,2.344,0,0,1-.615-1.727V9.573h-1.767V8.36h.65a1.249,1.249,0,0,0,.954-.3,1.492,1.492,0,0,0,.277-1.015V5.478h1.415V8.36h1.986V9.573h-1.986V14.5a1.31,1.31,0,0,0,.33.954,1.154,1.154,0,0,0,.866.338h.791V17Zm6.943.167a4.554,4.554,0,0,1-2.215-.536,3.9,3.9,0,0,1-1.56-1.569,4.819,4.819,0,0,1-.576-2.386,4.4,4.4,0,0,1,1.226-3.256,4.6,4.6,0,0,1,6.253,0,4.41,4.41,0,0,1,1.222,3.256,4.413,4.413,0,0,1-1.226,3.265A4.232,4.232,0,0,1,125.948,17.167Zm-.009-1.266a2.654,2.654,0,0,0,2.043-.888,3.326,3.326,0,0,0,.813-2.338,3.314,3.314,0,0,0-.813-2.329,2.654,2.654,0,0,0-2.043-.888,2.617,2.617,0,0,0-2.026.888,3.336,3.336,0,0,0-.8,2.329,3.348,3.348,0,0,0,.8,2.338A2.617,2.617,0,0,0,125.939,15.9Zm9.5,1.1a2.271,2.271,0,0,1-1.687-.62,2.344,2.344,0,0,1-.615-1.727V9.573h-1.767V8.36h.65a1.249,1.249,0,0,0,.954-.3,1.492,1.492,0,0,0,.277-1.015V5.478h1.415V8.36h1.986V9.573h-1.986V14.5a1.31,1.31,0,0,0,.33.954,1.154,1.154,0,0,0,.866.338h.791V17Zm5.3.167a2.94,2.94,0,0,1-1.894-.593A2.13,2.13,0,0,1,138.1,14.8a2.517,2.517,0,0,1,.237-1.129,1.991,1.991,0,0,1,.7-.787,4.218,4.218,0,0,1,1.015-.488,9.384,9.384,0,0,1,1.314-.312l1.4-.229q.765-.141.765-.8a1.51,1.51,0,0,0-.541-1.288,2.2,2.2,0,0,0-1.367-.409,2.243,2.243,0,0,0-1.354.4,1.655,1.655,0,0,0-.642,1.213l-1.371-.29a2.639,2.639,0,0,1,1.081-1.85,4.039,4.039,0,0,1,2.355-.62,4.777,4.777,0,0,1,1.252.154A3.4,3.4,0,0,1,144,8.848a2.168,2.168,0,0,1,.747.932,3.466,3.466,0,0,1,.268,1.419v3.568a1.46,1.46,0,0,0,.2.9.854.854,0,0,0,.681.233h.141V17h-.756a1.442,1.442,0,0,1-1.635-1.169h-.07A3.3,3.3,0,0,1,140.74,17.167Zm.352-1.23a2.305,2.305,0,0,0,1.854-.835,3.438,3.438,0,0,0,.7-2.285l-2.285.439a3.076,3.076,0,0,0-1.34.479,1.114,1.114,0,0,0-.435.945,1.1,1.1,0,0,0,.417.949A1.785,1.785,0,0,0,141.091,15.937ZM148.175,17V3.5h1.538V17Z" transform="translate(254 11534)" fill="#00223d"/>
    <path id="Trazado_25134" data-name="Trazado 25134" d="M51.238,19l-1.025-2.91H44.285L43.26,19h-3l5.2-14.111h3.584L54.236,19Zm-6.094-5.361h4.209l-2.1-5.986ZM61.512,2.008a.665.665,0,0,0-.61.371,1.953,1.953,0,0,0-.21.967H59.217a2.841,2.841,0,0,1,.605-1.88A2.023,2.023,0,0,1,61.463.738a2.1,2.1,0,0,1,1.641.713l.22.254q.161.186.239.259a1.033,1.033,0,0,0,.229.151.664.664,0,0,0,.308.078q.762,0,.762-1.318h1.494a2.872,2.872,0,0,1-.591,1.87,2.024,2.024,0,0,1-1.665.728,2,2,0,0,1-.986-.21,2.462,2.462,0,0,1-.674-.571q-.029-.029-.117-.142L62.205,2.4q-.029-.039-.107-.122a.673.673,0,0,0-.127-.112l-.127-.078a.45.45,0,0,0-.161-.063A.982.982,0,0,0,61.512,2.008Zm4.482,2.881h2.92V19H65.525L59.275,8.912V19h-2.92V4.889h3.35l6.289,10.029ZM78.816,19.2a7.671,7.671,0,0,1-3.706-.884,6.407,6.407,0,0,1-2.573-2.544,7.651,7.651,0,0,1-.937-3.828,7.644,7.644,0,0,1,.938-3.833A6.383,6.383,0,0,1,75.11,5.572a8.243,8.243,0,0,1,7.407,0,6.391,6.391,0,0,1,2.568,2.534,7.644,7.644,0,0,1,.938,3.833,7.651,7.651,0,0,1-.937,3.828,6.407,6.407,0,0,1-2.573,2.544A7.65,7.65,0,0,1,78.816,19.2ZM75.73,15.274a4.472,4.472,0,0,0,6.172,0,4.558,4.558,0,0,0,1.211-3.335A4.528,4.528,0,0,0,81.9,8.619a4.485,4.485,0,0,0-6.172,0,4.528,4.528,0,0,0-1.211,3.32A4.558,4.558,0,0,0,75.73,15.274ZM97.674,4.889h2.676V19h-2.8V7.779L94.3,10.8V7.906Z" transform="translate(498 11261)" fill="#002b45"/>
    <path id="Trazado_25135" data-name="Trazado 25135" d="M51.238,19l-1.025-2.91H44.285L43.26,19h-3l5.2-14.111h3.584L54.236,19Zm-6.094-5.361h4.209l-2.1-5.986ZM61.512,2.008a.665.665,0,0,0-.61.371,1.953,1.953,0,0,0-.21.967H59.217a2.841,2.841,0,0,1,.605-1.88A2.023,2.023,0,0,1,61.463.738a2.1,2.1,0,0,1,1.641.713l.22.254q.161.186.239.259a1.033,1.033,0,0,0,.229.151.664.664,0,0,0,.308.078q.762,0,.762-1.318h1.494a2.872,2.872,0,0,1-.591,1.87,2.024,2.024,0,0,1-1.665.728,2,2,0,0,1-.986-.21,2.462,2.462,0,0,1-.674-.571q-.029-.029-.117-.142L62.205,2.4q-.029-.039-.107-.122a.673.673,0,0,0-.127-.112l-.127-.078a.45.45,0,0,0-.161-.063A.982.982,0,0,0,61.512,2.008Zm4.482,2.881h2.92V19H65.525L59.275,8.912V19h-2.92V4.889h3.35l6.289,10.029ZM78.816,19.2a7.671,7.671,0,0,1-3.706-.884,6.407,6.407,0,0,1-2.573-2.544,7.651,7.651,0,0,1-.937-3.828,7.644,7.644,0,0,1,.938-3.833A6.383,6.383,0,0,1,75.11,5.572a8.243,8.243,0,0,1,7.407,0,6.391,6.391,0,0,1,2.568,2.534,7.644,7.644,0,0,1,.938,3.833,7.651,7.651,0,0,1-.937,3.828,6.407,6.407,0,0,1-2.573,2.544A7.65,7.65,0,0,1,78.816,19.2ZM75.73,15.274a4.472,4.472,0,0,0,6.172,0,4.558,4.558,0,0,0,1.211-3.335A4.528,4.528,0,0,0,81.9,8.619a4.485,4.485,0,0,0-6.172,0,4.528,4.528,0,0,0-1.211,3.32A4.558,4.558,0,0,0,75.73,15.274ZM97,16.49h6.016V19H93.064V16.881l5.615-5.732A3.534,3.534,0,0,0,99.9,8.717a1.72,1.72,0,0,0-.5-1.309,1.98,1.98,0,0,0-1.421-.479q-2,0-2,2.275V10.25l-2.8-.283v-.7A4.4,4.4,0,0,1,94.461,5.87a4.937,4.937,0,0,1,3.5-1.2,5.172,5.172,0,0,1,3.4,1.084,3.653,3.653,0,0,1,1.313,2.979,4.224,4.224,0,0,1-.444,1.934,8.082,8.082,0,0,1-1.411,1.885Z" transform="translate(649 11261)" fill="#002b45"/>
    <path id="Trazado_25136" data-name="Trazado 25136" d="M51.238,19l-1.025-2.91H44.285L43.26,19h-3l5.2-14.111h3.584L54.236,19Zm-6.094-5.361h4.209l-2.1-5.986ZM61.512,2.008a.665.665,0,0,0-.61.371,1.953,1.953,0,0,0-.21.967H59.217a2.841,2.841,0,0,1,.605-1.88A2.023,2.023,0,0,1,61.463.738a2.1,2.1,0,0,1,1.641.713l.22.254q.161.186.239.259a1.033,1.033,0,0,0,.229.151.664.664,0,0,0,.308.078q.762,0,.762-1.318h1.494a2.872,2.872,0,0,1-.591,1.87,2.024,2.024,0,0,1-1.665.728,2,2,0,0,1-.986-.21,2.462,2.462,0,0,1-.674-.571q-.029-.029-.117-.142L62.205,2.4q-.029-.039-.107-.122a.673.673,0,0,0-.127-.112l-.127-.078a.45.45,0,0,0-.161-.063A.982.982,0,0,0,61.512,2.008Zm4.482,2.881h2.92V19H65.525L59.275,8.912V19h-2.92V4.889h3.35l6.289,10.029ZM78.816,19.2a7.671,7.671,0,0,1-3.706-.884,6.407,6.407,0,0,1-2.573-2.544,7.651,7.651,0,0,1-.937-3.828,7.644,7.644,0,0,1,.938-3.833A6.383,6.383,0,0,1,75.11,5.572a8.243,8.243,0,0,1,7.407,0,6.391,6.391,0,0,1,2.568,2.534,7.644,7.644,0,0,1,.938,3.833,7.651,7.651,0,0,1-.937,3.828,6.407,6.407,0,0,1-2.573,2.544A7.65,7.65,0,0,1,78.816,19.2ZM75.73,15.274a4.472,4.472,0,0,0,6.172,0,4.558,4.558,0,0,0,1.211-3.335A4.528,4.528,0,0,0,81.9,8.619a4.485,4.485,0,0,0-6.172,0,4.528,4.528,0,0,0-1.211,3.32A4.558,4.558,0,0,0,75.73,15.274Zm22.3,3.921a5.063,5.063,0,0,1-3.848-1.289,5.59,5.59,0,0,1-1.211-3.945l2.881-.127a10.2,10.2,0,0,0,.044,1.035,3.578,3.578,0,0,0,.176.8,1.433,1.433,0,0,0,.371.6,1.686,1.686,0,0,0,.635.347,3.137,3.137,0,0,0,.952.127,2.288,2.288,0,0,0,1.665-.566,1.98,1.98,0,0,0,.581-1.484,2,2,0,0,0-.557-1.528,2.1,2.1,0,0,0-1.494-.522h-.547V10.455h.508a1.527,1.527,0,0,0,1.167-.5,1.776,1.776,0,0,0,.464-1.26,1.419,1.419,0,0,0-.508-1.172,2.064,2.064,0,0,0-1.338-.41,2.005,2.005,0,0,0-.762.132,1.421,1.421,0,0,0-.513.337,1.49,1.49,0,0,0-.3.518,2.72,2.72,0,0,0-.146.615,6.143,6.143,0,0,0-.034.684l-2.842-.137A4.517,4.517,0,0,1,94.588,5.87a4.617,4.617,0,0,1,3.359-1.177,4.8,4.8,0,0,1,3.223,1.079,3.379,3.379,0,0,1,1.27,2.681,3.051,3.051,0,0,1-.542,1.816,3.1,3.1,0,0,1-1.235,1.074,3.478,3.478,0,0,1,.9.4,3.683,3.683,0,0,1,.786.674,3.007,3.007,0,0,1,.581,1.025,4.126,4.126,0,0,1,.215,1.367,3.988,3.988,0,0,1-1.4,3.188A5.508,5.508,0,0,1,98.035,19.2Z" transform="translate(800 11261)" fill="#002b45"/>
  </g>
</svg>
