<svg xmlns="http://www.w3.org/2000/svg" width="509" height="196" viewBox="0 0 509 196">
  <g id="Grupo_30130" data-name="Grupo 30130" transform="translate(-441 -13580)">
    <path id="Trazado_25311" data-name="Trazado 25311" d="M0,0H509V196H0Z" transform="translate(441 13580)" fill="#eef0f2"/>
    <path id="Trazado_25312" data-name="Trazado 25312" d="M21.895,19.2a7.877,7.877,0,0,1-2.876-.518,6.763,6.763,0,0,1-2.29-1.445,6.515,6.515,0,0,1-1.5-2.295,8,8,0,0,1-.547-3,7.644,7.644,0,0,1,.938-3.833,6.382,6.382,0,0,1,2.573-2.534,7.705,7.705,0,0,1,3.706-.879,7.488,7.488,0,0,1,4.141,1.143A6.255,6.255,0,0,1,28.564,8.98l-2.734,1a3.865,3.865,0,0,0-1.514-1.9,4.323,4.323,0,0,0-2.422-.684,4.145,4.145,0,0,0-3.086,1.23,4.528,4.528,0,0,0-1.211,3.32,4.534,4.534,0,0,0,1.216,3.325A4.14,4.14,0,0,0,21.895,16.5a4.307,4.307,0,0,0,2.417-.688A3.883,3.883,0,0,0,25.83,13.9l2.734,1a6.28,6.28,0,0,1-2.529,3.149A7.464,7.464,0,0,1,21.895,19.2ZM38.418,19l-3.672-6.211H33.9V19h-2.93V4.889h5.117a5.919,5.919,0,0,1,2.051.327,3.546,3.546,0,0,1,1.421.908,3.889,3.889,0,0,1,.8,1.333,4.876,4.876,0,0,1,.269,1.65,3.446,3.446,0,0,1-.771,2.319,3.888,3.888,0,0,1-2.217,1.216L41.885,19ZM33.9,7.32v3.369h1.729q2.2,0,2.2-1.68a1.53,1.53,0,0,0-.537-1.24,2.554,2.554,0,0,0-1.66-.449Zm18.32-2.432V7.467h-3.35V19h-2.9V7.467H42.6V4.889Zm18.164,6.162V8.912H79v2.139Zm0,4.287V13.2H79v2.139Z" transform="translate(479 13662)" fill="#002b45"/>
    <path id="Trazado_25317" data-name="Trazado 25317" d="M19.679,4.889H22.6V19H19.21L12.96,8.912V19H10.04V4.889h3.35l6.289,10.029ZM30.5,19.2a6.313,6.313,0,0,1-2.842-.615,4.6,4.6,0,0,1-1.948-1.807,5.384,5.384,0,0,1-.708-2.8,4.911,4.911,0,0,1,1.523-3.809,5.652,5.652,0,0,1,3.975-1.4,5.665,5.665,0,0,1,3.984,1.4,4.911,4.911,0,0,1,1.523,3.809,4.938,4.938,0,0,1-1.523,3.823A5.654,5.654,0,0,1,30.5,19.2Zm-.029-2.236a2.577,2.577,0,0,0,1.987-.82,3.071,3.071,0,0,0,.757-2.168,3.071,3.071,0,0,0-.757-2.168,2.577,2.577,0,0,0-1.987-.82,2.483,2.483,0,0,0-1.929.825,3.1,3.1,0,0,0-.747,2.163,3.1,3.1,0,0,0,.747,2.163A2.483,2.483,0,0,0,30.47,16.959ZM39.679,19.2a1.617,1.617,0,0,1-1.6-1.6,1.568,1.568,0,0,1,.474-1.143,1.532,1.532,0,0,1,1.128-.479A1.634,1.634,0,0,1,41.3,17.594a1.532,1.532,0,0,1-.479,1.128A1.568,1.568,0,0,1,39.679,19.2Zm17-15.2h2.813V19H56.827l-.068-1.309a2.867,2.867,0,0,1-1.274,1.138,4.29,4.29,0,0,1-1.88.405,4.883,4.883,0,0,1-1.875-.361A4.516,4.516,0,0,1,49.151,16.2a6.106,6.106,0,0,1-.381-2.2,5.707,5.707,0,0,1,.664-2.8,4.55,4.55,0,0,1,1.753-1.821A4.827,4.827,0,0,1,53.6,8.766a4.4,4.4,0,0,1,1.821.366,2.843,2.843,0,0,1,1.255,1.04ZM54.249,16.9a2.5,2.5,0,0,0,1.9-.8,2.932,2.932,0,0,0,.757-2.1,2.938,2.938,0,0,0-.762-2.1,2.5,2.5,0,0,0-1.895-.806,2.53,2.53,0,0,0-1.909.791A2.937,2.937,0,0,0,51.583,14a2.924,2.924,0,0,0,.757,2.109A2.53,2.53,0,0,0,54.249,16.9Zm17.6-3.066-.029.674H64.376a2.6,2.6,0,0,0,.8,1.836,2.561,2.561,0,0,0,1.768.635,2.468,2.468,0,0,0,1.323-.347,2.131,2.131,0,0,0,.845-1.011L71.69,16a4.383,4.383,0,0,1-1.758,2.354,5.226,5.226,0,0,1-2.969.84,5.435,5.435,0,0,1-3.911-1.382A5.042,5.042,0,0,1,61.6,13.98a5.072,5.072,0,0,1,1.455-3.833,5.273,5.273,0,0,1,3.818-1.4,5.04,5.04,0,0,1,3.6,1.279A5.019,5.019,0,0,1,71.847,13.834Zm-4.951-3.1a2.222,2.222,0,0,0-2.441,1.934h4.609a2.114,2.114,0,0,0-.693-1.436A2.2,2.2,0,0,0,66.9,10.738Zm16.826,8.447a5.364,5.364,0,0,1-3.877-1.445,4.992,4.992,0,0,1-1.5-3.77,4.981,4.981,0,0,1,1.5-3.77,5.96,5.96,0,0,1,7.134-.469,4.316,4.316,0,0,1,1.68,2.725l-2.6.283a2.226,2.226,0,0,0-.84-1.318,2.554,2.554,0,0,0-1.523-.439,2.3,2.3,0,0,0-1.836.82,3.216,3.216,0,0,0-.7,2.168,3.22,3.22,0,0,0,.7,2.163,2.3,2.3,0,0,0,1.836.825,2.532,2.532,0,0,0,1.519-.439,2.277,2.277,0,0,0,.845-1.318l2.6.283a4.328,4.328,0,0,1-1.694,2.725A5.327,5.327,0,0,1,83.722,19.186Zm11.611.01a6.313,6.313,0,0,1-2.842-.615,4.6,4.6,0,0,1-1.948-1.807,5.384,5.384,0,0,1-.708-2.8,4.911,4.911,0,0,1,1.523-3.809,6.368,6.368,0,0,1,7.959,0,4.911,4.911,0,0,1,1.523,3.809,4.938,4.938,0,0,1-1.523,3.823A5.654,5.654,0,0,1,95.333,19.2ZM95.3,16.959a2.577,2.577,0,0,0,1.987-.82,3.071,3.071,0,0,0,.757-2.168,3.071,3.071,0,0,0-.757-2.168,2.577,2.577,0,0,0-1.987-.82,2.483,2.483,0,0,0-1.929.825,3.1,3.1,0,0,0-.747,2.163,3.1,3.1,0,0,0,.747,2.163A2.483,2.483,0,0,0,95.3,16.959Zm13.555-8.193a3.914,3.914,0,0,1,2.773.9,3.349,3.349,0,0,1,.967,2.573V19h-2.822V12.848a1.749,1.749,0,0,0-.5-1.387,1.9,1.9,0,0,0-1.294-.439,2.643,2.643,0,0,0-.84.127,2.158,2.158,0,0,0-.7.4,1.748,1.748,0,0,0-.5.757,3.5,3.5,0,0,0-.19,1.162V19h-2.812V8.961h2.813v1.113A3.868,3.868,0,0,1,108.858,8.766Zm12.754.2h2.979L120.313,19h-2.441L113.644,8.961H116.6l2.5,6.865Zm13.5,4.873-.029.674h-7.441a2.6,2.6,0,0,0,.8,1.836,2.561,2.561,0,0,0,1.768.635,2.468,2.468,0,0,0,1.323-.347,2.131,2.131,0,0,0,.845-1.011l2.578.381a4.383,4.383,0,0,1-1.758,2.354,5.226,5.226,0,0,1-2.969.84,5.435,5.435,0,0,1-3.911-1.382,5.042,5.042,0,0,1-1.45-3.833,5.072,5.072,0,0,1,1.455-3.833,5.273,5.273,0,0,1,3.818-1.4,5.04,5.04,0,0,1,3.6,1.279A5.019,5.019,0,0,1,135.108,13.834Zm-4.951-3.1a2.222,2.222,0,0,0-2.441,1.934h4.609a2.114,2.114,0,0,0-.693-1.436A2.2,2.2,0,0,0,130.157,10.738Zm9.785-.186a3.259,3.259,0,0,1,1.318-1.206,4.023,4.023,0,0,1,1.963-.5v2.51a3.8,3.8,0,0,0-2.4.605,2.643,2.643,0,0,0-.742,2.148V19h-2.832V8.961h2.7Zm8.467,8.643a5.61,5.61,0,0,1-2.93-.7,2.972,2.972,0,0,1-1.436-2.09l2.354-.664a1.891,1.891,0,0,0,2.012,1.494A2.078,2.078,0,0,0,149.435,17a.8.8,0,0,0,.4-.776.821.821,0,0,0-.166-.518,1.315,1.315,0,0,0-.513-.371,6.388,6.388,0,0,0-.684-.264q-.337-.107-.894-.259t-.928-.288a6.215,6.215,0,0,1-.884-.376,3.769,3.769,0,0,1-.732-.518,2.086,2.086,0,0,1-.547-.786,2.836,2.836,0,0,1-.19-1.074,2.565,2.565,0,0,1,1.089-2.246,4.865,4.865,0,0,1,2.847-.762,4.988,4.988,0,0,1,2.627.645,2.917,2.917,0,0,1,1.348,2.012l-2.178.488a1.706,1.706,0,0,0-1.787-1.27,1.957,1.957,0,0,0-.986.225.722.722,0,0,0-.391.664.761.761,0,0,0,.059.3.6.6,0,0,0,.205.244,2.992,2.992,0,0,0,.283.186,2.136,2.136,0,0,0,.4.161q.264.083.439.127l.513.132.522.137q.537.146.942.293a5.519,5.519,0,0,1,.864.41,3.1,3.1,0,0,1,.757.591,2.635,2.635,0,0,1,.493.83,3.066,3.066,0,0,1,.2,1.118,3.02,3.02,0,0,1-.337,1.455,2.529,2.529,0,0,1-.923.981,4.492,4.492,0,0,1-1.3.527A6.763,6.763,0,0,1,148.409,19.2ZM156,7.457a1.579,1.579,0,0,1-1.152-.474,1.555,1.555,0,0,1-.479-1.147A1.536,1.536,0,0,1,154.85,4.7,1.584,1.584,0,0,1,156,4.225a1.626,1.626,0,0,1,1.611,1.611A1.626,1.626,0,0,1,156,7.457ZM154.562,19V8.961h2.832V19Zm10.42.2a6.313,6.313,0,0,1-2.842-.615,4.6,4.6,0,0,1-1.948-1.807,5.384,5.384,0,0,1-.708-2.8,4.911,4.911,0,0,1,1.523-3.809,6.368,6.368,0,0,1,7.959,0,4.911,4.911,0,0,1,1.523,3.809,4.938,4.938,0,0,1-1.523,3.823A5.654,5.654,0,0,1,164.981,19.2Zm-.029-2.236a2.577,2.577,0,0,0,1.987-.82,3.071,3.071,0,0,0,.757-2.168,3.071,3.071,0,0,0-.757-2.168,2.577,2.577,0,0,0-1.987-.82,2.483,2.483,0,0,0-1.929.825,3.1,3.1,0,0,0-.747,2.163,3.1,3.1,0,0,0,.747,2.163A2.483,2.483,0,0,0,164.952,16.959Zm13.555-8.193a3.914,3.914,0,0,1,2.773.9,3.349,3.349,0,0,1,.967,2.573V19h-2.822V12.848a1.749,1.749,0,0,0-.5-1.387,1.9,1.9,0,0,0-1.294-.439,2.643,2.643,0,0,0-.84.127,2.158,2.158,0,0,0-.7.4,1.748,1.748,0,0,0-.5.757,3.5,3.5,0,0,0-.19,1.162V19h-2.812V8.961h2.813v1.113A3.868,3.868,0,0,1,178.507,8.766Zm15.908,5.068-.029.674h-7.441a2.6,2.6,0,0,0,.8,1.836,2.561,2.561,0,0,0,1.768.635,2.468,2.468,0,0,0,1.323-.347,2.131,2.131,0,0,0,.845-1.011l2.578.381a4.383,4.383,0,0,1-1.758,2.354,5.226,5.226,0,0,1-2.969.84,5.435,5.435,0,0,1-3.911-1.382,5.042,5.042,0,0,1-1.45-3.833,5.072,5.072,0,0,1,1.455-3.833,5.273,5.273,0,0,1,3.818-1.4,5.04,5.04,0,0,1,3.6,1.279A5.019,5.019,0,0,1,194.415,13.834Zm-4.951-3.1a2.222,2.222,0,0,0-2.441,1.934h4.609a2.114,2.114,0,0,0-.693-1.436A2.2,2.2,0,0,0,189.464,10.738ZM200.089,19.2a5.61,5.61,0,0,1-2.93-.7,2.972,2.972,0,0,1-1.436-2.09l2.354-.664a1.891,1.891,0,0,0,2.012,1.494A2.078,2.078,0,0,0,201.114,17a.8.8,0,0,0,.4-.776.821.821,0,0,0-.166-.518,1.315,1.315,0,0,0-.513-.371,6.388,6.388,0,0,0-.684-.264q-.337-.107-.894-.259t-.928-.288a6.215,6.215,0,0,1-.884-.376,3.769,3.769,0,0,1-.732-.518,2.086,2.086,0,0,1-.547-.786,2.836,2.836,0,0,1-.19-1.074,2.565,2.565,0,0,1,1.089-2.246,4.865,4.865,0,0,1,2.847-.762,4.988,4.988,0,0,1,2.627.645,2.917,2.917,0,0,1,1.348,2.012l-2.178.488a1.706,1.706,0,0,0-1.787-1.27,1.957,1.957,0,0,0-.986.225.722.722,0,0,0-.391.664.761.761,0,0,0,.059.3.6.6,0,0,0,.205.244,2.992,2.992,0,0,0,.283.186,2.136,2.136,0,0,0,.4.161q.264.083.439.127l.513.132.522.137q.537.146.942.293a5.519,5.519,0,0,1,.864.41,3.1,3.1,0,0,1,.757.591,2.635,2.635,0,0,1,.493.83,3.066,3.066,0,0,1,.2,1.118,3.02,3.02,0,0,1-.337,1.455,2.529,2.529,0,0,1-.923.981,4.492,4.492,0,0,1-1.3.527A6.763,6.763,0,0,1,200.089,19.2Z" transform="translate(599 13641)" fill="#002b45"/>
    <path id="Trazado_25313" data-name="Trazado 25313" d="M52.936,4.889h2.92V19H52.467L46.217,8.912V19H43.3V4.889h3.35l6.289,10.029ZM63.756,19.2a6.313,6.313,0,0,1-2.842-.615,4.6,4.6,0,0,1-1.948-1.807,5.384,5.384,0,0,1-.708-2.8,4.911,4.911,0,0,1,1.523-3.809,6.368,6.368,0,0,1,7.959,0,4.911,4.911,0,0,1,1.523,3.809,4.938,4.938,0,0,1-1.523,3.823A5.654,5.654,0,0,1,63.756,19.2Zm-.029-2.236a2.577,2.577,0,0,0,1.987-.82,3.071,3.071,0,0,0,.757-2.168,3.071,3.071,0,0,0-.757-2.168,2.577,2.577,0,0,0-1.987-.82,2.483,2.483,0,0,0-1.929.825,3.1,3.1,0,0,0-.747,2.163,3.1,3.1,0,0,0,.747,2.163A2.483,2.483,0,0,0,63.727,16.959ZM72.936,19.2a1.617,1.617,0,0,1-1.6-1.6,1.568,1.568,0,0,1,.474-1.143,1.532,1.532,0,0,1,1.128-.479,1.634,1.634,0,0,1,1.621,1.621,1.532,1.532,0,0,1-.479,1.128A1.568,1.568,0,0,1,72.936,19.2Zm17-15.2H92.75V19H90.084l-.068-1.309a2.867,2.867,0,0,1-1.274,1.138,4.29,4.29,0,0,1-1.88.405,4.883,4.883,0,0,1-1.875-.361A4.516,4.516,0,0,1,82.408,16.2a6.106,6.106,0,0,1-.381-2.2,5.707,5.707,0,0,1,.664-2.8,4.55,4.55,0,0,1,1.753-1.821,4.827,4.827,0,0,1,2.417-.615,4.4,4.4,0,0,1,1.821.366,2.843,2.843,0,0,1,1.255,1.04ZM87.506,16.9a2.5,2.5,0,0,0,1.9-.8,2.932,2.932,0,0,0,.757-2.1,2.938,2.938,0,0,0-.762-2.1,2.5,2.5,0,0,0-1.895-.806,2.53,2.53,0,0,0-1.909.791A2.937,2.937,0,0,0,84.84,14a2.924,2.924,0,0,0,.757,2.109A2.53,2.53,0,0,0,87.506,16.9Zm17.6-3.066-.029.674H97.633a2.6,2.6,0,0,0,.8,1.836,2.561,2.561,0,0,0,1.768.635,2.468,2.468,0,0,0,1.323-.347,2.131,2.131,0,0,0,.845-1.011l2.578.381a4.383,4.383,0,0,1-1.758,2.354,5.226,5.226,0,0,1-2.969.84,5.435,5.435,0,0,1-3.911-1.382,5.042,5.042,0,0,1-1.45-3.833,5.072,5.072,0,0,1,1.455-3.833,5.273,5.273,0,0,1,3.818-1.4,5.04,5.04,0,0,1,3.6,1.279A5.019,5.019,0,0,1,105.1,13.834Zm-4.951-3.1a2.222,2.222,0,0,0-2.441,1.934h4.609a2.114,2.114,0,0,0-.693-1.436A2.2,2.2,0,0,0,100.152,10.738Zm18.818-1.777h2.979L117.672,19H115.23L111,8.961h2.959l2.5,6.865Zm5.889-1.5a1.579,1.579,0,0,1-1.152-.474,1.555,1.555,0,0,1-.479-1.147,1.536,1.536,0,0,1,.483-1.138,1.584,1.584,0,0,1,1.147-.474,1.626,1.626,0,0,1,1.611,1.611,1.626,1.626,0,0,1-1.611,1.621ZM123.424,19V8.961h2.832V19Zm9.277.2a5.61,5.61,0,0,1-2.93-.7,2.972,2.972,0,0,1-1.436-2.09l2.354-.664a1.891,1.891,0,0,0,2.012,1.494A2.078,2.078,0,0,0,133.727,17a.8.8,0,0,0,.4-.776.821.821,0,0,0-.166-.518,1.315,1.315,0,0,0-.513-.371,6.388,6.388,0,0,0-.684-.264q-.337-.107-.894-.259t-.928-.288a6.215,6.215,0,0,1-.884-.376,3.769,3.769,0,0,1-.732-.518,2.086,2.086,0,0,1-.547-.786,2.836,2.836,0,0,1-.19-1.074,2.565,2.565,0,0,1,1.089-2.246,4.865,4.865,0,0,1,2.847-.762,4.988,4.988,0,0,1,2.627.645,2.917,2.917,0,0,1,1.348,2.012l-2.178.488a1.706,1.706,0,0,0-1.787-1.27,1.957,1.957,0,0,0-.986.225.722.722,0,0,0-.391.664.761.761,0,0,0,.059.3.6.6,0,0,0,.205.244,2.992,2.992,0,0,0,.283.186,2.136,2.136,0,0,0,.4.161q.264.083.439.127l.513.132.522.137q.537.146.942.293a5.519,5.519,0,0,1,.864.41,3.1,3.1,0,0,1,.757.591,2.635,2.635,0,0,1,.493.83,3.066,3.066,0,0,1,.2,1.118,3.02,3.02,0,0,1-.337,1.455,2.529,2.529,0,0,1-.923.981,4.492,4.492,0,0,1-1.3.527A6.763,6.763,0,0,1,132.7,19.2Zm7.588-11.738a1.579,1.579,0,0,1-1.152-.474,1.555,1.555,0,0,1-.479-1.147,1.536,1.536,0,0,1,.483-1.138,1.584,1.584,0,0,1,1.147-.474A1.626,1.626,0,0,1,141.9,5.836a1.626,1.626,0,0,1-1.611,1.621ZM138.854,19V8.961h2.832V19Zm9.482,0a3.032,3.032,0,0,1-2.266-.815,3.171,3.171,0,0,1-.8-2.319V11.119H143.3V8.961h.635a1.656,1.656,0,0,0,1.25-.42,2.162,2.162,0,0,0,.4-1.494V5.719h2.539V8.961h2.07v2.158h-2.07v4.443q0,1.3,1.162,1.3h.908V19Zm12.227-2.725a9.391,9.391,0,0,0,.244,2.451V19H158.18l-.225-1.094a3.264,3.264,0,0,1-1.406.967,5.183,5.183,0,0,1-1.816.322,4.776,4.776,0,0,1-.937-.088,3.187,3.187,0,0,1-.845-.3,2.563,2.563,0,0,1-.7-.522,2.291,2.291,0,0,1-.469-.8,3.17,3.17,0,0,1-.176-1.089,3.019,3.019,0,0,1,.186-1.089,2.552,2.552,0,0,1,.488-.815,2.962,2.962,0,0,1,.791-.6,6.052,6.052,0,0,1,1-.43,11.9,11.9,0,0,1,1.191-.312l1.65-.371a1.82,1.82,0,0,0,.747-.317.633.633,0,0,0,.22-.5,1.036,1.036,0,0,0-.493-.967,2.3,2.3,0,0,0-1.2-.293,1.721,1.721,0,0,0-1.963,1.533l-2.49-.449a3.371,3.371,0,0,1,1.455-2.29,5.783,5.783,0,0,1,3.154-.737q4.219,0,4.219,3.623Zm-4.951,1.016a2.262,2.262,0,0,0,1.738-.728,3.066,3.066,0,0,0,.674-2.153l-2.383.674a2.816,2.816,0,0,0-1,.41.842.842,0,0,0-.347.723.935.935,0,0,0,.371.8A1.536,1.536,0,0,0,155.611,17.291Zm11.221,1.9a5.61,5.61,0,0,1-2.93-.7,2.972,2.972,0,0,1-1.436-2.09l2.354-.664a1.891,1.891,0,0,0,2.012,1.494A2.078,2.078,0,0,0,167.857,17a.8.8,0,0,0,.4-.776.821.821,0,0,0-.166-.518,1.315,1.315,0,0,0-.513-.371,6.388,6.388,0,0,0-.684-.264q-.337-.107-.894-.259t-.928-.288a6.215,6.215,0,0,1-.884-.376,3.769,3.769,0,0,1-.732-.518,2.086,2.086,0,0,1-.547-.786,2.836,2.836,0,0,1-.19-1.074,2.565,2.565,0,0,1,1.089-2.246,4.865,4.865,0,0,1,2.847-.762,4.988,4.988,0,0,1,2.627.645,2.917,2.917,0,0,1,1.348,2.012l-2.178.488a1.706,1.706,0,0,0-1.787-1.27,1.957,1.957,0,0,0-.986.225.722.722,0,0,0-.391.664.761.761,0,0,0,.059.3.6.6,0,0,0,.205.244,2.992,2.992,0,0,0,.283.186,2.136,2.136,0,0,0,.4.161q.264.083.439.127l.513.132.522.137q.537.146.942.293a5.519,5.519,0,0,1,.864.41,3.1,3.1,0,0,1,.757.591,2.635,2.635,0,0,1,.493.83,3.066,3.066,0,0,1,.2,1.118,3.02,3.02,0,0,1-.337,1.455,2.529,2.529,0,0,1-.923.981,4.492,4.492,0,0,1-1.3.527A6.763,6.763,0,0,1,166.832,19.2Z" transform="translate(599 13686)" fill="#002b45"/>
    <path id="Trazado_25314" data-name="Trazado 25314" d="M13.994,13.531,12.4,12.57l1.875-2.309q.27-.328.141-.551t-.539-.152l-2.977.457V8.164l2.977.445q.41.07.539-.152t-.141-.551L12.4,5.574l1.594-.926,1.1,2.8q.141.41.41.41t.41-.41l1.09-2.8,1.629.926-1.91,2.332q-.27.328-.141.551t.551.152L20.1,8.164v1.852l-2.965-.457q-.422-.07-.551.152t.152.551l1.9,2.309-1.629.961-1.09-2.789q-.141-.41-.41-.41t-.41.41Z" transform="translate(828 13662)" fill="#002b45"/>
    <path id="Trazado_25315" data-name="Trazado 25315" d="M14.269,4.889h2.676V19h-2.8V7.779L10.9,10.8V7.906ZM26.612,19.2a4.4,4.4,0,0,1-3.794-1.826,9.225,9.225,0,0,1-1.323-5.43,9.224,9.224,0,0,1,1.318-5.43,4.406,4.406,0,0,1,3.8-1.816A4.4,4.4,0,0,1,30.4,6.51a9.224,9.224,0,0,1,1.318,5.43,9.225,9.225,0,0,1-1.323,5.43A4.391,4.391,0,0,1,26.612,19.2Zm0-2.539A1.855,1.855,0,0,0,28.307,15.5a8.057,8.057,0,0,0,.6-3.56A8,8,0,0,0,28.3,8.38a1.859,1.859,0,0,0-1.689-1.157q-2.3,0-2.3,4.717T26.612,16.656ZM38.556,19.2a4.4,4.4,0,0,1-3.794-1.826,9.225,9.225,0,0,1-1.323-5.43,9.224,9.224,0,0,1,1.318-5.43,4.406,4.406,0,0,1,3.8-1.816A4.4,4.4,0,0,1,42.345,6.51a9.224,9.224,0,0,1,1.318,5.43,9.225,9.225,0,0,1-1.323,5.43A4.391,4.391,0,0,1,38.556,19.2Zm0-2.539A1.855,1.855,0,0,0,40.25,15.5a8.057,8.057,0,0,0,.6-3.56,8,8,0,0,0-.605-3.56,1.859,1.859,0,0,0-1.689-1.157q-2.3,0-2.3,4.717T38.556,16.656Z" transform="translate(844 13659)" fill="#002b45"/>
    <path id="Trazado_25316" data-name="Trazado 25316" d="M0,0H198" transform="translate(606.5 13677.5)" fill="none" stroke="#002b45" stroke-width="2"/>
    <path id="Trazado_25300" data-name="Trazado 25300" d="M859.664,499.736c-7.473,10.139-12.145,24.582-12.145,40.611s4.672,30.471,12.145,40.611" transform="translate(-260.519 13137.264)" fill="none" stroke="#002b45" stroke-miterlimit="10" stroke-width="2"/>
    <path id="Trazado_25301" data-name="Trazado 25301" d="M847.519,499.736c7.473,10.139,12.145,24.582,12.145,40.611s-4.672,30.471-12.145,40.611" transform="translate(-35.519 13137.264)" fill="none" stroke="#002b45" stroke-miterlimit="10" stroke-width="2"/>
  </g>
</svg>
