<svg xmlns="http://www.w3.org/2000/svg" width="77" height="77" viewBox="0 0 77 77">
  <g id="Grupo_30078" data-name="Grupo 30078" transform="translate(-409 -10219)">
    <circle id="Elipse_1052" data-name="Elipse 1052" cx="33" cy="33" r="33" transform="translate(409 10219)" fill="#e6d8e8"/>
    <g id="analitica_1_" data-name="analitica (1)" transform="translate(426.915 10236.915)">
      <g id="Grupo_30034" data-name="Grupo 30034" transform="translate(8.77)">
        <g id="Grupo_30033" data-name="Grupo 30033">
          <path id="Trazado_25049" data-name="Trazado 25049" d="M119.16,0c-.235,0-.468.012-.7.035A1.154,1.154,0,0,0,118.187,0h-34.8A7.394,7.394,0,0,0,76,7.386V12a1.154,1.154,0,1,0,2.308,0V7.386a5.083,5.083,0,0,1,5.078-5.078H113.9a7.126,7.126,0,0,0-1.9,4.847,1.153,1.153,0,0,0,.006.115,1.153,1.153,0,0,0-.006.115v7.886a1.154,1.154,0,0,0,2.308,0V8.309h10.848a1.154,1.154,0,0,0,1.154-1.154A7.163,7.163,0,0,0,119.16,0Zm-4.707,6a4.846,4.846,0,0,1,9.414,0Z" transform="translate(-76 0)" fill="#7d58bd"/>
        </g>
      </g>
      <g id="Grupo_30036" data-name="Grupo 30036" transform="translate(3.26 6.231)">
        <g id="Grupo_30035" data-name="Grupo 30035">
          <path id="Trazado_25050" data-name="Trazado 25050" d="M63.979,53.99H56.646a1.154,1.154,0,1,0,0,2.308H61.34L48.25,69.388l-7.673-7.673a1.154,1.154,0,0,0-1.632,0L28.587,72.072A1.154,1.154,0,1,0,30.219,73.7l9.541-9.541,7.673,7.673a1.154,1.154,0,0,0,1.632,0L62.825,58.077v4.4a1.154,1.154,0,1,0,2.308,0V55.144A1.154,1.154,0,0,0,63.979,53.99Z" transform="translate(-28.249 -53.99)" fill="#7d58bd"/>
        </g>
      </g>
      <g id="Grupo_30038" data-name="Grupo 30038" transform="translate(0 27.235)">
        <g id="Grupo_30037" data-name="Grupo 30037">
          <path id="Trazado_25051" data-name="Trazado 25051" d="M1.97,236.338a1.153,1.153,0,0,0-1.632,0,1.154,1.154,0,0,0,.816,1.97,1.154,1.154,0,0,0,.816-1.97Z" transform="translate(0 -236)" fill="#7d58bd"/>
        </g>
      </g>
      <g id="Grupo_30040" data-name="Grupo 30040" transform="translate(2.539 24.699)">
        <g id="Grupo_30039" data-name="Grupo 30039">
          <path id="Trazado_25052" data-name="Trazado 25052" d="M72.085,225.568a1.154,1.154,0,0,0-1.154-1.154H62.161v-8.771a1.154,1.154,0,0,0-1.154-1.154,11.079,11.079,0,1,0,3.23,21.676v5.095a4.847,4.847,0,0,1-9.694,0c0-.036,0-.071-.005-.106a1.168,1.168,0,0,0,.007-.125,1.154,1.154,0,0,0-1.154-1.154H30.54V215.183a1.154,1.154,0,1,0-2.308,0v24.693H23.154A1.154,1.154,0,0,0,22,241.03a7.394,7.394,0,0,0,7.386,7.386h30a7.163,7.163,0,0,0,7.155-7.155v-6c0-.032,0-.063,0-.095A11.085,11.085,0,0,0,72.085,225.568Zm-42.7,20.539a5.087,5.087,0,0,1-4.945-3.924H52.3a7.131,7.131,0,0,0,1.836,3.924Zm31.621-11.769a8.771,8.771,0,0,1-1.154-17.465v8.695a1.154,1.154,0,0,0,1.154,1.154H69.7A8.784,8.784,0,0,1,61.007,234.338Z" transform="translate(-22 -214.029)" fill="#7d58bd"/>
        </g>
      </g>
      <g id="Grupo_30042" data-name="Grupo 30042" transform="translate(44.314 18.698)">
        <g id="Grupo_30041" data-name="Grupo 30041">
          <path id="Trazado_25053" data-name="Trazado 25053" d="M385.154,162.029A1.154,1.154,0,0,0,384,163.183v12.463a1.154,1.154,0,0,0,1.154,1.154h12.463a1.154,1.154,0,0,0,1.154-1.154A13.633,13.633,0,0,0,385.154,162.029Zm1.154,12.463V164.4a11.33,11.33,0,0,1,10.1,10.1Z" transform="translate(-384 -162.029)" fill="#7d58bd"/>
        </g>
      </g>
      <g id="Grupo_30044" data-name="Grupo 30044" transform="translate(13.271 37.39)">
        <g id="Grupo_30043" data-name="Grupo 30043">
          <path id="Trazado_25054" data-name="Trazado 25054" d="M126.079,324h-9.925a1.154,1.154,0,1,0,0,2.308h9.925a1.154,1.154,0,1,0,0-2.308Z" transform="translate(-115 -324)" fill="#7d58bd"/>
        </g>
      </g>
      <g id="Grupo_30046" data-name="Grupo 30046" transform="translate(27.754 42.929)">
        <g id="Grupo_30045" data-name="Grupo 30045">
          <path id="Trazado_25055" data-name="Trazado 25055" d="M242.47,372.338a1.153,1.153,0,1,0,.338.816A1.162,1.162,0,0,0,242.47,372.338Z" transform="translate(-240.5 -372)" fill="#7d58bd"/>
        </g>
      </g>
      <g id="Grupo_30048" data-name="Grupo 30048" transform="translate(13.271 42.929)">
        <g id="Grupo_30047" data-name="Grupo 30047">
          <path id="Trazado_25056" data-name="Trazado 25056" d="M126.079,372h-9.925a1.154,1.154,0,0,0,0,2.308h9.925a1.154,1.154,0,0,0,0-2.308Z" transform="translate(-115 -372)" fill="#7d58bd"/>
        </g>
      </g>
      <g id="Grupo_30050" data-name="Grupo 30050" transform="translate(13.271 31.851)">
        <g id="Grupo_30049" data-name="Grupo 30049">
          <path id="Trazado_25057" data-name="Trazado 25057" d="M120.126,276h-3.972a1.154,1.154,0,1,0,0,2.308h3.972a1.154,1.154,0,1,0,0-2.308Z" transform="translate(-115 -276)" fill="#7d58bd"/>
        </g>
      </g>
    </g>
  </g>
</svg>
