<svg xmlns="http://www.w3.org/2000/svg" width="75" height="77" viewBox="0 0 75 77">
  <g id="Grupo_30079" data-name="Grupo 30079" transform="translate(-513 -10219)">
    <circle id="Elipse_1056" data-name="Elipse 1056" cx="33" cy="33" r="33" transform="translate(513 10219)" fill="#e6d8e8"/>
    <g id="analitica" transform="translate(529 10236.915)">
      <g id="Grupo_30008" data-name="Grupo 30008" transform="translate(23.646 47.283)">
        <g id="Grupo_30007" data-name="Grupo 30007" transform="translate(0 0)">
          <rect id="Rectángulo_4624" data-name="Rectángulo 4624" width="2" height="2" transform="translate(0.353 -0.199)" fill="#7d58bd"/>
        </g>
      </g>
      <g id="Grupo_30010" data-name="Grupo 30010">
        <g id="Grupo_30009" data-name="Grupo 30009">
          <path id="Trazado_25043" data-name="Trazado 25043" d="M54.391,0H4.609A4.618,4.618,0,0,0,0,4.616v39.7A4.618,4.618,0,0,0,4.609,48.93H9.219V47.083H4.609a2.771,2.771,0,0,1-2.766-2.77V9.232H57.156V44.314a2.771,2.771,0,0,1-2.766,2.77V48.93A4.618,4.618,0,0,0,59,44.314V4.616A4.618,4.618,0,0,0,54.391,0Zm2.766,7.386H1.844V4.616a2.771,2.771,0,0,1,2.766-2.77H54.391a2.771,2.771,0,0,1,2.766,2.77Z" fill="#7d58bd"/>
        </g>
      </g>
      <g id="Grupo_30012" data-name="Grupo 30012" transform="translate(3.703 3.709)">
        <g id="Grupo_30011" data-name="Grupo 30011" transform="translate(0 0)">
          <ellipse id="Elipse_1053" data-name="Elipse 1053" cx="1" cy="0.5" rx="1" ry="0.5" transform="translate(0.297 0.377)" fill="#7d58bd"/>
        </g>
      </g>
      <g id="Grupo_30014" data-name="Grupo 30014" transform="translate(7.329 3.709)">
        <g id="Grupo_30013" data-name="Grupo 30013" transform="translate(0 0)">
          <ellipse id="Elipse_1054" data-name="Elipse 1054" cx="1" cy="0.5" rx="1" ry="0.5" transform="translate(-0.329 0.377)" fill="#7d58bd"/>
        </g>
      </g>
      <g id="Grupo_30016" data-name="Grupo 30016" transform="translate(10.955 3.709)">
        <g id="Grupo_30015" data-name="Grupo 30015" transform="translate(0 0)">
          <ellipse id="Elipse_1055" data-name="Elipse 1055" cx="1" cy="0.5" rx="1" ry="0.5" transform="translate(0.045 0.377)" fill="#7d58bd"/>
        </g>
      </g>
      <g id="Grupo_30018" data-name="Grupo 30018" transform="translate(4.609 14.771)">
        <g id="Grupo_30017" data-name="Grupo 30017">
          <path id="Trazado_25044" data-name="Trazado 25044" d="M83.328,150.157H77.8v-3.693a.923.923,0,0,0-.922-.923H64.947a12.843,12.843,0,0,0,.866-4.616.923.923,0,0,0-.922-.923H53.828V128.923a.923.923,0,0,0-.922-.923,12.925,12.925,0,1,0,11.16,19.387H75.953v2.77H68.578a4.618,4.618,0,0,0-4.609,4.616V164a4.618,4.618,0,0,0,4.609,4.616h14.75A4.618,4.618,0,0,0,87.938,164v-9.232A4.618,4.618,0,0,0,83.328,150.157Zm-41.484-9.232a11.087,11.087,0,0,1,10.141-11.04V140.74l-4.165,10.011A11.082,11.082,0,0,1,41.844,140.925Zm21.106,4.616H59.189a2.77,2.77,0,1,0,0,1.846h2.688a11.011,11.011,0,0,1-12.359,4.08l4-9.619H63.93A11,11,0,0,1,62.95,145.541Zm-5.434.923a.922.922,0,1,1-.922-.923A.924.924,0,0,1,57.516,146.464ZM86.094,164a2.771,2.771,0,0,1-2.766,2.77H68.578A2.771,2.771,0,0,1,65.813,164v-9.232A2.771,2.771,0,0,1,68.578,152h14.75a2.771,2.771,0,0,1,2.766,2.77Z" transform="translate(-40 -128)" fill="#7d58bd"/>
        </g>
      </g>
      <g id="Grupo_30020" data-name="Grupo 30020" transform="translate(20.281 11.078)">
        <g id="Grupo_30019" data-name="Grupo 30019">
          <path id="Trazado_25045" data-name="Trazado 25045" d="M189.828,96a.919.919,0,0,0-.652.271l-3.333,3.337A12.843,12.843,0,0,0,176.922,96a.923.923,0,0,0-.922.923v12a.923.923,0,0,0,.922.923h11.984a.923.923,0,0,0,.922-.923,12.863,12.863,0,0,0-2.747-7.945l3.129-3.133h4.228V96Zm-1.882,12h-10.1V97.885a11.017,11.017,0,0,1,6.7,3.027l-1.818,1.821,1.3,1.305,1.74-1.743A11.007,11.007,0,0,1,187.946,108Z" transform="translate(-176 -96)" fill="#7d58bd"/>
        </g>
      </g>
      <g id="Grupo_30022" data-name="Grupo 30022" transform="translate(40.87 10.971)">
        <g id="Grupo_30021" data-name="Grupo 30021" transform="translate(0 0)">
          <rect id="Rectángulo_4625" data-name="Rectángulo 4625" width="14" height="2" transform="translate(0.13 0.114)" fill="#7d58bd"/>
        </g>
      </g>
      <g id="Grupo_30024" data-name="Grupo 30024" transform="translate(40.87 14.602)">
        <g id="Grupo_30023" data-name="Grupo 30023" transform="translate(0 0)">
          <rect id="Rectángulo_4626" data-name="Rectángulo 4626" width="14" height="1" transform="translate(0.13 0.483)" fill="#7d58bd"/>
        </g>
      </g>
      <g id="Grupo_30026" data-name="Grupo 30026" transform="translate(40.87 18.234)">
        <g id="Grupo_30025" data-name="Grupo 30025" transform="translate(0 0)">
          <rect id="Rectángulo_4627" data-name="Rectángulo 4627" width="14" height="2" transform="translate(0.13 -0.149)" fill="#7d58bd"/>
        </g>
      </g>
      <g id="Grupo_30028" data-name="Grupo 30028" transform="translate(1.844 43.39)">
        <g id="Grupo_30027" data-name="Grupo 30027">
          <path id="Trazado_25046" data-name="Trazado 25046" d="M36.281,389.848v-9.232a.923.923,0,0,0-.922-.923H31.672v-2.77A.923.923,0,0,0,30.75,376H26.141a.923.923,0,0,0-.922.923v7.386H21.531a.923.923,0,0,0-.922.923v4.616H16v1.846H39.969v-1.846Zm-11.062,0H22.453v-3.693h2.766Zm4.609-9.232v9.232H27.063v-12h2.766Zm4.609,9.232H31.672v-8.309h2.766Z" transform="translate(-16 -376)" fill="#7d58bd"/>
        </g>
      </g>
      <g id="Grupo_30030" data-name="Grupo 30030" transform="translate(31.411 40.62)">
        <g id="Grupo_30029" data-name="Grupo 30029">
          <path id="Trazado_25047" data-name="Trazado 25047" d="M288.236,353.551l-2.131,6.405-4.5-7.511a.921.921,0,0,0-1.637.112l-2.229,5.21-1.8-1.806a.922.922,0,0,0-1.508.31l-1.844,4.616,1.711.686,1.325-3.316,1.777,1.78a.921.921,0,0,0,1.5-.289l2.056-4.8,4.6,7.684a.921.921,0,0,0,1.664-.184l2.766-8.309Z" transform="translate(-272.584 -351.997)" fill="#7d58bd"/>
        </g>
      </g>
      <g id="Grupo_30032" data-name="Grupo 30032" transform="translate(44.25 24.003)">
        <g id="Grupo_30031" data-name="Grupo 30031">
          <path id="Trazado_25048" data-name="Trazado 25048" d="M394.141,208h-9.219a.923.923,0,0,0-.922.923v7.386a.923.923,0,0,0,.922.923h9.219a.923.923,0,0,0,.922-.923v-7.386A.923.923,0,0,0,394.141,208Zm-2.628,1.846-1.981,1.588-1.982-1.588Zm-5.669,1,2.213,1.773-2.213,1.773Zm1.706,4.542,1.982-1.588,1.982,1.588Zm5.669-1-2.212-1.772,2.212-1.773Z" transform="translate(-384 -208)" fill="#7d58bd"/>
        </g>
      </g>
    </g>
  </g>
</svg>
