<svg xmlns="http://www.w3.org/2000/svg" width="76.633" height="76.49" viewBox="0 0 76.633 76.49">
  <g id="Grupo_30085" data-name="Grupo 30085" transform="translate(-615 -10494)">
    <circle id="Elipse_1061" data-name="Elipse 1061" cx="33" cy="33" r="33" transform="translate(615 10494)" fill="#e6d8e8"/>
    <g id="investigacion" transform="translate(618 10497.357)">
      <path id="Trazado_25074" data-name="Trazado 25074" d="M120,264h2.878v1.919H120Z" transform="translate(-91.528 -218.689)" fill="#7d58bd"/>
      <path id="Trazado_25075" data-name="Trazado 25075" d="M176,304h2.878v1.919H176Z" transform="translate(-140.813 -253.892)" fill="#7d58bd"/>
      <path id="Trazado_25076" data-name="Trazado 25076" d="M120,304h4.8v1.919H120Z" transform="translate(-91.528 -253.892)" fill="#7d58bd"/>
      <path id="Trazado_25077" data-name="Trazado 25077" d="M56,304h5.756v1.919H56Z" transform="translate(-35.204 -253.892)" fill="#7d58bd"/>
      <path id="Trazado_25078" data-name="Trazado 25078" d="M104,344h11.513v1.919H104Z" transform="translate(-77.447 -289.095)" fill="#7d58bd"/>
      <path id="Trazado_25079" data-name="Trazado 25079" d="M56,344h3.838v1.919H56Z" transform="translate(-35.204 -289.095)" fill="#7d58bd"/>
      <path id="Trazado_25080" data-name="Trazado 25080" d="M152,384h5.756v1.919H152Z" transform="translate(-119.691 -324.298)" fill="#7d58bd"/>
      <path id="Trazado_25081" data-name="Trazado 25081" d="M56,384h9.594v1.919H56Z" transform="translate(-35.204 -324.298)" fill="#7d58bd"/>
      <path id="Trazado_25082" data-name="Trazado 25082" d="M104,424h5.756v1.919H104Z" transform="translate(-77.447 -359.502)" fill="#7d58bd"/>
      <path id="Trazado_25083" data-name="Trazado 25083" d="M56,424h3.838v1.919H56Z" transform="translate(-35.204 -359.502)" fill="#7d58bd"/>
      <path id="Trazado_25084" data-name="Trazado 25084" d="M71.644,211.837a.959.959,0,0,0-.959-.959H64.929a.959.959,0,0,0-.959.959v4.8h-4.8a.959.959,0,0,0-.959.959v4.8h-4.8a.959.959,0,0,0-.959.959v4.8h-4.8a.959.959,0,0,0-.959.959v5.756H39.82a2.878,2.878,0,1,0,0,1.919h1.124v2.878a.96.96,0,0,1-.959.959H18.878a.96.96,0,0,1-.959-.959V217.594h4.8a2.881,2.881,0,0,0,2.878-2.878v-4.8H39.985a.96.96,0,0,1,.959.959v.959h1.919v-.959A2.881,2.881,0,0,0,39.985,208H25.429a2.86,2.86,0,0,0-2.035.843l-6.551,6.551A2.859,2.859,0,0,0,16,217.429V239.66a2.881,2.881,0,0,0,2.878,2.878H39.985a2.881,2.881,0,0,0,2.878-2.878v-2.878h30.7v-1.919H71.644Zm-47.969-.562v3.44a.961.961,0,0,1-.959.959h-3.44Zm13.431,25.506a.959.959,0,1,1,.959-.959A.959.959,0,0,1,37.107,236.782Zm11.513-6.716h3.838v4.8H48.619Zm5.756-5.756h3.838v10.553H54.376Zm5.756-5.756h3.838v16.31H60.132Zm5.756,16.31V212.8h3.838v22.066Z" transform="translate(-0.001 -169.405)" fill="#7d58bd"/>
      <path id="Trazado_25085" data-name="Trazado 25085" d="M18.878,75.178a2.878,2.878,0,0,0,2.6-4.118l2.879-2.879a2.877,2.877,0,0,0,3.953-1.638h4.168a2.878,2.878,0,0,0,5.551-.484l5.418-4.644a2.878,2.878,0,1,0-1.305-1.409l-4.59,3.934a2.876,2.876,0,0,0-5.074.683H28.306a2.878,2.878,0,1,0-5.31,2.2L20.118,69.7a2.878,2.878,0,1,0-1.24,5.475Zm25.9-17.269a.959.959,0,1,1-.959.959.959.959,0,0,1,.959-.959Zm-9.594,6.716a.959.959,0,1,1-.959.959A.959.959,0,0,1,35.187,64.625Zm-9.594,0a.959.959,0,1,1-.959.959A.959.959,0,0,1,25.593,64.625ZM18.878,71.34a.959.959,0,1,1-.959.959A.959.959,0,0,1,18.878,71.34Z" transform="translate(0 -35.623)" fill="#7d58bd"/>
      <path id="Trazado_25086" data-name="Trazado 25086" d="M180.331,38.01l-6.341,6.341h-8.4a2.878,2.878,0,1,0,0,1.919h2.084V63.539h1.919V46.27h4.8a.96.96,0,0,0,.678-.281l6.924-6.924a12.506,12.506,0,1,0-1.658-1.055Zm-17.457,8.26a.959.959,0,1,1,.959-.959A.959.959,0,0,1,162.875,46.27Zm32.64-11.015L189.955,29h8.373a10.518,10.518,0,0,1-2.814,6.254Zm2.814-8.173h-9.55v-9.55a10.571,10.571,0,0,1,9.55,9.55Zm-11.469-9.55V28.042a.954.954,0,0,0,.243.637h0l6.979,7.852a10.551,10.551,0,1,1-7.222-19Z" transform="translate(-126.728)" fill="#7d58bd"/>
    </g>
  </g>
</svg>
