<svg xmlns="http://www.w3.org/2000/svg" width="75.034" height="77.001" viewBox="0 0 75.034 77.001">
  <g id="Grupo_30084" data-name="Grupo 30084" transform="translate(-513 -10495)">
    <circle id="Elipse_1060" data-name="Elipse 1060" cx="33" cy="33" r="33" transform="translate(513 10495)" fill="#e6d8e8"/>
    <g id="presupuesto" transform="translate(528.901 10512.868)">
      <g id="Grupo_30052" data-name="Grupo 30052" transform="translate(18.726 28.581)">
        <g id="Grupo_30051" data-name="Grupo 30051">
          <path id="Trazado_25087" data-name="Trazado 25087" d="M157.342,240.3l-2.173-.722a1.749,1.749,0,0,1-1.2-1.661,1.971,1.971,0,1,1,3.942,0h1.971a3.942,3.942,0,0,0-2.957-3.8V232h-1.971v2.111a3.942,3.942,0,0,0-2.957,3.8,3.718,3.718,0,0,0,2.544,3.53l2.173.722a1.75,1.75,0,0,1,1.2,1.661,1.971,1.971,0,1,1-3.942,0H152a3.942,3.942,0,0,0,2.957,3.8v2.111h1.971v-2.111a3.942,3.942,0,0,0,2.957-3.8A3.718,3.718,0,0,0,157.342,240.3Z" transform="translate(-152.001 -232)" fill="#7d58bd"/>
        </g>
      </g>
      <g id="Grupo_30054" data-name="Grupo 30054" transform="translate(0.001)">
        <g id="Grupo_30053" data-name="Grupo 30053" transform="translate(0)">
          <path id="Trazado_25088" data-name="Trazado 25088" d="M58.148,21.682H38.224a22.694,22.694,0,0,0-7.672-6.1V11.334L34.1,8.673a.986.986,0,0,0,.394-.788V.986A.986.986,0,0,0,33.51,0H29.567a.985.985,0,0,0-.7.289L27.6,1.563,26.322.289a.985.985,0,0,0-.7-.289H19.712a.985.985,0,0,0-.7.289L17.741,1.563,16.467.289A.985.985,0,0,0,15.77,0H11.828a.986.986,0,0,0-.986.986v6.9a.986.986,0,0,0,.394.788l3.548,2.661V15.6C7.324,19.205,0,28.9,0,41.339,0,52.647,8.263,59.133,22.669,59.133a38.053,38.053,0,0,0,6.973-.619.986.986,0,0,0,.912.619h27.6a.986.986,0,0,0,.986-.986V22.668A.986.986,0,0,0,58.148,21.682ZM12.813,7.392V1.971h2.549l1.682,1.682a.986.986,0,0,0,1.394,0L20.12,1.971h5.1L26.9,3.653a.986.986,0,0,0,1.394,0l1.682-1.682h2.549V7.392L29.239,9.855H16.1Zm15.769,4.435v2.957H16.755V11.827ZM29.567,45.8a10.841,10.841,0,1,1,0-16.7V45.8Zm0-23.134v4a12.812,12.812,0,1,0,0,21.569v8.288a35.89,35.89,0,0,1-6.9.639c-6.223,0-20.7-1.541-20.7-15.823,0-9.429,5.651-21.161,15.112-24.584H28.26a19.416,19.416,0,0,1,7.326,4.928H30.553A.986.986,0,0,0,29.567,22.668Zm27.6,34.494H31.539V31.538H57.163Zm0-27.6H31.539V23.653H57.163Z" transform="translate(-0.001)" fill="#7d58bd"/>
        </g>
      </g>
      <g id="Grupo_30056" data-name="Grupo 30056" transform="translate(33.51 33.509)">
        <g id="Grupo_30055" data-name="Grupo 30055">
          <path id="Trazado_25089" data-name="Trazado 25089" d="M276.929,272h-3.942a.986.986,0,0,0-.986.986v3.942a.986.986,0,0,0,.986.986h3.942a.986.986,0,0,0,.986-.986v-3.942A.986.986,0,0,0,276.929,272Zm-.986,3.942h-1.971v-1.971h1.971Z" transform="translate(-272.001 -272)" fill="#7d58bd"/>
        </g>
      </g>
      <g id="Grupo_30058" data-name="Grupo 30058" transform="translate(41.394 33.509)">
        <g id="Grupo_30057" data-name="Grupo 30057">
          <path id="Trazado_25090" data-name="Trazado 25090" d="M340.929,272h-3.942a.986.986,0,0,0-.986.986v3.942a.986.986,0,0,0,.986.986h3.942a.986.986,0,0,0,.986-.986v-3.942A.986.986,0,0,0,340.929,272Zm-.986,3.942h-1.971v-1.971h1.971Z" transform="translate(-336.001 -272)" fill="#7d58bd"/>
        </g>
      </g>
      <g id="Grupo_30060" data-name="Grupo 30060" transform="translate(49.278 33.509)">
        <g id="Grupo_30059" data-name="Grupo 30059">
          <path id="Trazado_25091" data-name="Trazado 25091" d="M404.929,272h-3.942a.986.986,0,0,0-.986.986v3.942a.986.986,0,0,0,.986.986h3.942a.986.986,0,0,0,.986-.986v-3.942A.986.986,0,0,0,404.929,272Zm-.986,3.942h-1.971v-1.971h1.971Z" transform="translate(-400.001 -272)" fill="#7d58bd"/>
        </g>
      </g>
      <g id="Grupo_30062" data-name="Grupo 30062" transform="translate(33.51 41.393)">
        <g id="Grupo_30061" data-name="Grupo 30061">
          <path id="Trazado_25092" data-name="Trazado 25092" d="M276.929,336h-3.942a.986.986,0,0,0-.986.986v3.942a.986.986,0,0,0,.986.986h3.942a.986.986,0,0,0,.986-.986v-3.942A.986.986,0,0,0,276.929,336Zm-.986,3.942h-1.971v-1.971h1.971Z" transform="translate(-272.001 -336)" fill="#7d58bd"/>
        </g>
      </g>
      <g id="Grupo_30064" data-name="Grupo 30064" transform="translate(41.394 41.393)">
        <g id="Grupo_30063" data-name="Grupo 30063">
          <path id="Trazado_25093" data-name="Trazado 25093" d="M340.929,336h-3.942a.986.986,0,0,0-.986.986v3.942a.986.986,0,0,0,.986.986h3.942a.986.986,0,0,0,.986-.986v-3.942A.986.986,0,0,0,340.929,336Zm-.986,3.942h-1.971v-1.971h1.971Z" transform="translate(-336.001 -336)" fill="#7d58bd"/>
        </g>
      </g>
      <g id="Grupo_30066" data-name="Grupo 30066" transform="translate(33.51 49.277)">
        <g id="Grupo_30065" data-name="Grupo 30065">
          <path id="Trazado_25094" data-name="Trazado 25094" d="M276.929,400h-3.942a.986.986,0,0,0-.986.986v3.942a.986.986,0,0,0,.986.986h3.942a.986.986,0,0,0,.986-.986v-3.942A.986.986,0,0,0,276.929,400Zm-.986,3.942h-1.971v-1.971h1.971Z" transform="translate(-272.001 -400)" fill="#7d58bd"/>
        </g>
      </g>
      <g id="Grupo_30068" data-name="Grupo 30068" transform="translate(41.394 49.277)">
        <g id="Grupo_30067" data-name="Grupo 30067">
          <path id="Trazado_25095" data-name="Trazado 25095" d="M340.929,400h-3.942a.986.986,0,0,0-.986.986v3.942a.986.986,0,0,0,.986.986h3.942a.986.986,0,0,0,.986-.986v-3.942A.986.986,0,0,0,340.929,400Zm-.986,3.942h-1.971v-1.971h1.971Z" transform="translate(-336.001 -400)" fill="#7d58bd"/>
        </g>
      </g>
      <g id="Grupo_30070" data-name="Grupo 30070" transform="translate(49.278 41.393)">
        <g id="Grupo_30069" data-name="Grupo 30069">
          <path id="Trazado_25096" data-name="Trazado 25096" d="M404.929,336h-3.942a.986.986,0,0,0-.986.986v11.827a.986.986,0,0,0,.986.986h3.942a.986.986,0,0,0,.986-.986V336.986A.986.986,0,0,0,404.929,336Zm-.986,11.827h-1.971v-9.855h1.971Z" transform="translate(-400.001 -336)" fill="#7d58bd"/>
        </g>
      </g>
      <g id="Grupo_30072" data-name="Grupo 30072" transform="translate(52.929 25.61)">
        <g id="Grupo_30071" data-name="Grupo 30071" transform="translate(0 0)">
          <rect id="Rectángulo_4636" data-name="Rectángulo 4636" width="2" height="2" transform="translate(0.171 -0.479)" fill="#7d58bd"/>
        </g>
      </g>
      <g id="Grupo_30074" data-name="Grupo 30074" transform="translate(49.4 25.61)">
        <g id="Grupo_30073" data-name="Grupo 30073" transform="translate(0 0)">
          <rect id="Rectángulo_4637" data-name="Rectángulo 4637" width="2" height="2" transform="translate(-0.301 -0.479)" fill="#7d58bd"/>
        </g>
      </g>
      <g id="Grupo_30076" data-name="Grupo 30076" transform="translate(44.989 25.61)">
        <g id="Grupo_30075" data-name="Grupo 30075" transform="translate(0 0)">
          <rect id="Rectángulo_4638" data-name="Rectángulo 4638" width="3" height="2" transform="translate(0.11 -0.479)" fill="#7d58bd"/>
        </g>
      </g>
    </g>
  </g>
</svg>
