<svg xmlns="http://www.w3.org/2000/svg" width="75.132" height="77" viewBox="0 0 75.132 77">
  <g id="Grupo_30077" data-name="Grupo 30077" transform="translate(-294 -10219)">
    <circle id="Elipse_1051" data-name="Elipse 1051" cx="33" cy="33" r="33" transform="translate(294 10219)" fill="#e6d8e8"/>
    <g id="bares" transform="translate(310 10236.868)">
      <g id="Grupo_30004" data-name="Grupo 30004" transform="translate(1.234)">
        <g id="Grupo_30003" data-name="Grupo 30003">
          <path id="Trazado_25041" data-name="Trazado 25041" d="M58.01,0V1.909h6.274l-24.4,24.4-9.533-9.533L10.6,36.527l1.35,1.339,18.4-18.391,9.533,9.533L65.634,3.259V9.533h1.909V0Z" transform="translate(-10.6)" fill="#7d58bd"/>
        </g>
      </g>
      <g id="Grupo_30006" data-name="Grupo 30006" transform="translate(0 13.351)">
        <g id="Grupo_30005" data-name="Grupo 30005">
          <path id="Trazado_25042" data-name="Trazado 25042" d="M57.223,158.571V114.7H47.689v43.871H45.78V126.142H36.247v32.429H34.338V135.687H24.793v22.884H22.884v-26.7H13.351v26.7H11.442V141.4H1.909v17.169H0v1.909H59.132v-1.909Zm-47.678,0H3.818v-15.26H9.545Zm11.442,0H15.26V133.778h5.727Zm11.442.012H26.7V137.6h5.727Zm11.442-.012H38.145v-30.52h5.727Zm11.454,0H49.6V116.609h5.727Z" transform="translate(0 -114.7)" fill="#7d58bd"/>
        </g>
      </g>
    </g>
  </g>
</svg>
