<svg xmlns="http://www.w3.org/2000/svg" width="77.081" height="78.482" viewBox="0 0 77.081 78.482">
  <g id="Grupo_30083" data-name="Grupo 30083" transform="translate(-409 -10495)">
    <circle id="Elipse_1059" data-name="Elipse 1059" cx="33" cy="33" r="33" transform="translate(409 10495)" fill="#e6d8e8"/>
    <g id="transportador" transform="translate(421 10472.784)">
      <path id="Trazado_25097" data-name="Trazado 25097" d="M184.316,449.241H170.652a.954.954,0,0,0,0,1.907h13.664A.954.954,0,0,0,184.316,449.241Z" transform="translate(-148.153 -350.449)" fill="#7d58bd"/>
      <path id="Trazado_25098" data-name="Trazado 25098" d="M20.027,433.515a11.477,11.477,0,0,1-6.651-2.109.954.954,0,0,0-1.1,1.558,13.374,13.374,0,0,0,7.75,2.457A.954.954,0,0,0,20.027,433.515Z" transform="translate(-10.368 -334.723)" fill="#7d58bd"/>
      <path id="Trazado_25099" data-name="Trazado 25099" d="M108.35,449.241h-3.539a.954.954,0,0,0,0,1.907h3.539A.954.954,0,0,0,108.35,449.241Z" transform="translate(-90.682 -350.449)" fill="#7d58bd"/>
      <path id="Trazado_25100" data-name="Trazado 25100" d="M440.888,254.817a11.531,11.531,0,0,1,5.563,2.21.954.954,0,0,0,1.139-1.529,13.439,13.439,0,0,0-6.484-2.575A.954.954,0,0,0,440.888,254.817Z" transform="translate(-384.133 -179.078)" fill="#7d58bd"/>
      <path id="Trazado_25101" data-name="Trazado 25101" d="M55.422,77.569H53.4a2.881,2.881,0,0,0,.174-.988V58.8A3.432,3.432,0,0,0,51.1,55.509V53.282a2.164,2.164,0,0,0,1.519-2.063v-1.3a2.16,2.16,0,0,0-2.158-2.158H45.629a2.16,2.16,0,0,0-2.158,2.158v1.3a2.164,2.164,0,0,0,1.519,2.063v2.227A3.432,3.432,0,0,0,42.518,58.8V76.58a2.883,2.883,0,0,0,.174.988H37.9a2.881,2.881,0,0,0,.174-.988V58.8A3.432,3.432,0,0,0,35.6,55.509V53.282a2.163,2.163,0,0,0,1.519-2.063v-1.3a2.16,2.16,0,0,0-2.158-2.158H30.122a2.16,2.16,0,0,0-2.157,2.158v1.3a2.164,2.164,0,0,0,1.519,2.063v2.227A3.432,3.432,0,0,0,27.011,58.8V76.58a2.883,2.883,0,0,0,.174.988h-4.8a2.881,2.881,0,0,0,.174-.988V58.8a3.432,3.432,0,0,0-2.472-3.291V53.282a2.163,2.163,0,0,0,1.519-2.063v-1.3a2.16,2.16,0,0,0-2.158-2.158H14.614a2.16,2.16,0,0,0-2.157,2.158v1.3a2.164,2.164,0,0,0,1.519,2.063v2.227A3.432,3.432,0,0,0,11.5,58.8v6.023a.954.954,0,0,0,1.907,0V63.309H16.08v7.923H13.41V69.907a.954.954,0,0,0-1.907,0V76.58a2.883,2.883,0,0,0,.174.988H9.658a9.658,9.658,0,1,0,0,19.316H55.422a9.658,9.658,0,1,0,0-19.316ZM45.379,49.917a.251.251,0,0,1,.251-.251h4.837a.251.251,0,0,1,.251.251v1.3a.253.253,0,0,1-.253.253H45.632a.253.253,0,0,1-.253-.253v-1.3Zm-.953,13.392h2.669v7.923H44.425Zm0,13.271V73.139h3.623A.953.953,0,0,0,49,72.185v-9.83a.953.953,0,0,0-.953-.953H44.425V58.8a1.521,1.521,0,0,1,1.519-1.519.953.953,0,0,0,.953-.953V53.379h2.3v2.948a.953.953,0,0,0,.953.953A1.521,1.521,0,0,1,51.671,58.8V76.58a.989.989,0,0,1-.988.988H45.414a.989.989,0,0,1-.989-.988ZM29.871,49.917a.251.251,0,0,1,.251-.251h4.837a.251.251,0,0,1,.251.251v1.3a.253.253,0,0,1-.253.253H30.124a.253.253,0,0,1-.253-.253v-1.3Zm-.953,13.392h2.669v7.923H28.918Zm0,13.271V73.139H32.54a.953.953,0,0,0,.953-.953v-9.83a.953.953,0,0,0-.953-.953H28.918V58.8a1.521,1.521,0,0,1,1.519-1.519.953.953,0,0,0,.953-.953V53.379h2.3v2.948a.953.953,0,0,0,.953.953A1.521,1.521,0,0,1,36.163,58.8V76.58a.989.989,0,0,1-.988.988H29.906a.989.989,0,0,1-.989-.988ZM14.364,49.917a.251.251,0,0,1,.251-.251h4.837a.251.251,0,0,1,.251.251v1.3a.253.253,0,0,1-.253.253H14.617a.253.253,0,0,1-.253-.253v-1.3ZM13.41,76.58V73.139h3.623a.953.953,0,0,0,.953-.953v-9.83a.953.953,0,0,0-.953-.953H13.41V58.8a1.521,1.521,0,0,1,1.519-1.519.953.953,0,0,0,.953-.953V53.379h2.3v2.948a.953.953,0,0,0,.953.953A1.521,1.521,0,0,1,20.655,58.8V76.58a.989.989,0,0,1-.988.988H14.4a.989.989,0,0,1-.989-.988Zm42.012,18.4H9.658a7.751,7.751,0,1,1,0-15.5H55.422a7.751,7.751,0,1,1,0,15.5Z" fill="#7d58bd"/>
      <path id="Trazado_25102" data-name="Trazado 25102" d="M61.936,341.816a2.394,2.394,0,1,0-2.394,2.394A2.4,2.4,0,0,0,61.936,341.816Zm-2.882,0a.488.488,0,1,1,.488.488A.488.488,0,0,1,59.054,341.816Z" transform="translate(-49.883 -254.589)" fill="#7d58bd"/>
      <path id="Trazado_25103" data-name="Trazado 25103" d="M80.364,310.85H34.6a6.026,6.026,0,1,0,0,12.053H80.364a5.992,5.992,0,0,0,3.442-1.079.954.954,0,0,0-1.09-1.564,4.12,4.12,0,1,1,1.72-4.009,4.14,4.14,0,0,1,.048.627.954.954,0,0,0,1.907,0,6.033,6.033,0,0,0-6.026-6.026Zm-49.884,6.026A4.12,4.12,0,1,1,34.6,321,4.124,4.124,0,0,1,30.481,316.876ZM75.972,321H38.993a6.01,6.01,0,0,0,0-8.239H75.972a6.01,6.01,0,0,0,0,8.239Z" transform="translate(-24.942 -229.649)" fill="#7d58bd"/>
      <path id="Trazado_25104" data-name="Trazado 25104" d="M417.179,341.816a2.394,2.394,0,1,0,2.394-2.394A2.4,2.4,0,0,0,417.179,341.816Zm2.882,0a.488.488,0,1,1-.488-.488A.488.488,0,0,1,420.061,341.816Z" transform="translate(-364.151 -254.589)" fill="#7d58bd"/>
    </g>
  </g>
</svg>
